<svg id="Layer_1" data-name="Layer 1" xmlns="http://www.w3.org/2000/svg" viewBox="0 0 473.65 473.65"><defs><style>.cls-1{fill:#fff;}</style></defs><title>computer</title><path class="cls-1" d="M236.83,0C106,0,0,106,0,236.83S106,473.65,236.83,473.65s236.83-106,236.83-236.83S367.62,0,236.83,0ZM139.67,261.19q7.49,4.21,7.49,15.14a22.58,22.58,0,0,1-3.23,12.15q-3.25,5.22-8,5.22a9,9,0,0,1-4.43-1.24L67.53,256.52q-9.21-5.21-9.21-15.61t9.21-15.62l63.95-35.95a9,9,0,0,1,4.43-1.24q4.77,0,8,5.21a22.64,22.64,0,0,1,3.23,12.16q0,10.91-7.49,15.13L103.58,240.9Zm177.88-88.43L253.31,312.64a14.06,14.06,0,0,1-25.56-11.73L292,161A14.06,14.06,0,1,1,317.55,172.75Zm88.74,83.76-63.95,35.95a9,9,0,0,1-4.43,1.24q-4.77,0-8-5.22a22.58,22.58,0,0,1-3.23-12.15q0-10.93,7.49-15.14l36.09-20.29-36.09-20.3q-7.49-4.21-7.49-15.13a22.64,22.64,0,0,1,3.23-12.16q3.24-5.21,8-5.21a9,9,0,0,1,4.43,1.24l63.95,35.95q9.21,5.2,9.21,15.62T406.29,256.51Z"/></svg>