<svg id="Layer_2" data-name="Layer 2" xmlns="http://www.w3.org/2000/svg" viewBox="0 0 140.82 155"><defs><style>.cls-1{fill:#fff;}</style></defs><title>currencies</title><path class="cls-1" d="M653.29,450.09q2.89-12.43,11-18.76T685,425a40.64,40.64,0,0,1,8.55.78,51.89,51.89,0,0,1,7.1,2.11l-3.44,12.88a54,54,0,0,0-5.44-1.5,32.8,32.8,0,0,0-6.88-.61q-6.66,0-10.38,2.89a16.2,16.2,0,0,0-5.38,8.55h24.65l-2.11,11h-24c-0.07.82-.11,1.5-0.11,2.05v3.27q0,0.67.11,1.89h22.65l-2.11,11H669.16q1.89,6.66,5.66,9.27a16.2,16.2,0,0,0,9.44,2.61,42.8,42.8,0,0,0,7.44-.67,36.43,36.43,0,0,0,7.55-2.22L702.47,501a35.46,35.46,0,0,1-7.72,2.72,46.42,46.42,0,0,1-11,1.17q-13.88,0-21.2-6.72t-9.66-18.93h-8v-11h7q-0.11-1.22-.11-1.89V463a15.14,15.14,0,0,1,.11-1.89h-7v-11h8.44Z" transform="translate(-561.65 -350)"/><path class="cls-1" d="M628.07,403.65a9.64,9.64,0,0,0,3.28,3.28,37.78,37.78,0,0,0,5.92,3c1.68,0.7,3.66,1.44,5.88,2.24,1.87-3.76,3.71-7.17,5.53-11.17H627.2A7.76,7.76,0,0,0,628.07,403.65Z" transform="translate(-561.65 -350)"/><path class="cls-1" d="M628,485.28c-9-.73-15.24-2-20.44-3.94a124.68,124.68,0,0,1-12.11-4.89l-0.86-.4,8.24-22.12,1,0.48a91.43,91.43,0,0,0,14.53,5.4,64.34,64.34,0,0,0,17.82,2.43c1,0,1.85,0,2.85-.06V449H623.83c2.54-4,5-8.89,7.36-13.35l-1.07-.36c-3.92-1.43-7.77-3-11.44-4.69a48.18,48.18,0,0,1-6.18-3.42q-3.18,7.73-6.86,15.09c-3.42-6.62-6.56-13.44-9.42-20.41s-5.86-13.86-9-20.86h-25.6c1.51,3,3.26,7,5.27,11s4.11,8.14,6.32,12.36,4.47,8.4,6.77,12.61,4.52,8,6.62,12H572v15h22v10H572v15h22v16h23V489h11v-3.72Z" transform="translate(-561.65 -350)"/><path class="cls-1" d="M675.16,442.29a14.05,14.05,0,0,0-4.62,6.71h11.05a33.07,33.07,0,0,0-1.77-8.85A12.18,12.18,0,0,0,675.16,442.29Z" transform="translate(-561.65 -350)"/><path class="cls-1" d="M669,463.13v3.27a1.52,1.52,0,0,1-.36.59h9.22c0.93-1,1.68-3.28,2.23-5.09,0,0,0,.09,0,0.09H668.65A6.74,6.74,0,0,1,669,463.13Z" transform="translate(-561.65 -350)"/><path class="cls-1" d="M609.06,423.45a45.81,45.81,0,0,0,10,6.25q5.54,2.56,11.35,4.67,6,2.11,10.56,4a45.44,45.44,0,0,1,7.57,3.78,15.54,15.54,0,0,1,4.58,4.31l0.06,0.11c2.13-6.86,5.63-12.24,10.44-16a28.45,28.45,0,0,1,6.35-3.71,54.83,54.83,0,0,0-10.07-6.53,130.22,130.22,0,0,0-14.35-6.17q-5.11-1.77-8.71-3.27a38.67,38.67,0,0,1-6.07-3.08,10.55,10.55,0,0,1-3.61-3.61,9.65,9.65,0,0,1-1.14-4.84,8.86,8.86,0,0,1,3.7-7.39q3.7-2.81,12.15-2.82A71.86,71.86,0,0,1,658,390.88a81.46,81.46,0,0,1,13.47,4.23L676.93,374a67,67,0,0,0-10.32-3.52A99,99,0,0,0,651,367.82V350H629v18.52A39,39,0,0,0,615.38,373a30.44,30.44,0,0,0-9.28,7.48,29.76,29.76,0,0,0-5.25,9.77,37.36,37.36,0,0,0-1.7,11.18A26.93,26.93,0,0,0,609.06,423.45Z" transform="translate(-561.65 -350)"/><path class="cls-1" d="M652,480h-8V467h6.77a1.75,1.75,0,0,0,.23-0.59V463a5.23,5.23,0,0,0-.24-1h-3.83c-2.72,1-6.33,1.2-10.84,1.2a64.67,64.67,0,0,1-18-2.45,92.29,92.29,0,0,1-14.7-5.45l-7.57,20.25a129.74,129.74,0,0,0,12.12,4.84c5.34,1.94,12.1,3.26,21.1,4V505h22V483.83a8.05,8.05,0,0,1,2-.52C652.67,482.28,652.25,481,652,480Z" transform="translate(-561.65 -350)"/></svg>