<?xml version="1.0" encoding="utf-8"?>
<!-- Generator: Adobe Illustrator 21.0.2, SVG Export Plug-In . SVG Version: 6.00 Build 0)  -->
<svg version="1.1" id="Laag_1" xmlns="http://www.w3.org/2000/svg" xmlns:xlink="http://www.w3.org/1999/xlink" x="0px" y="0px"
	 viewBox="0 0 119 119" style="enable-background:new 0 0 119 119;" xml:space="preserve">
<style type="text/css">
	.st0{fill:#FFFFFF;}
</style>
<g id="logo">
	<path id="Facebook_3_" class="st0" d="M43.7,24.7c0,3.1,0,16.7,0,16.7h-12v20.4h12v56h24.7v-56H85c0,0,1.6-9.8,2.3-20.5
		c-2.2,0-18.8,0-18.8,0s0-11.9,0-14c0-2.1,2.7-4.9,5.4-4.9c2.7,0,8.3,0,13.5,0c0-2.8,0-12.4,0-21.3c-6.9,0-14.9,0-18.3,0
		C43.1,1.2,43.7,21.6,43.7,24.7z"/>
</g>
</svg>
