<?xml version="1.0" encoding="utf-8"?>
<!-- Generator: Adobe Illustrator 21.0.0, SVG Export Plug-In . SVG Version: 6.00 Build 0)  -->
<svg version="1.1" id="Laag_1" xmlns="http://www.w3.org/2000/svg" xmlns:xlink="http://www.w3.org/1999/xlink" x="0px" y="0px"
	 viewBox="0 0 595.28 841.89" enable-background="new 0 0 595.28 841.89" xml:space="preserve">
<g>
	<path id="Facebook_3_" fill="#FFFFFF" d="M281.087,419.991c0,3.053,0,16.692,0,16.692H269.04v20.415h12.047v56.018h24.743v-56.018
		h16.605c0,0,1.556-9.788,2.31-20.49c-2.161,0-18.821,0-18.821,0s0-11.874,0-13.954c0-2.086,2.705-4.89,5.364-4.89
		c2.668,0,8.286,0,13.486,0c0-2.781,0-12.38,0-21.257c-6.946,0-14.851,0-18.334,0C280.473,396.507,281.087,416.942,281.087,419.991z
		"/>
</g>
</svg>
