<?xml version="1.0" encoding="utf-8"?>
<!-- Generator: Adobe Illustrator 21.0.0, SVG Export Plug-In . SVG Version: 6.00 Build 0)  -->
<svg version="1.1" id="Laag_1" xmlns="http://www.w3.org/2000/svg" xmlns:xlink="http://www.w3.org/1999/xlink" x="0px" y="0px"
	 viewBox="0 0 595.28 841.89" enable-background="new 0 0 595.28 841.89" xml:space="preserve">
<g>
	<path fill="#FFFFFF" d="M305.12,342.269c-43.389-0.177-78.621,35.018-78.709,78.626c-0.087,43.146,34.9,78.294,77.936,78.723
		c42.477,0.423,78.988-32.971,79.643-77.235C384.654,377.605,349.662,342.451,305.12,342.269z M331.007,460.619
		c-19.418,9.892-38.833,9.42-56.569-3.91c-26.978-20.277-22.915-61.155,7.212-76.353c22.926-11.565,51.662-4.778,65.418,15.528
		c1.629,2.405,2.828,5.102,4.575,8.302c-2.168,0-3.497,0-4.827,0c-4.744-0.001-9.491-0.103-14.231,0.043
		c-1.987,0.061-3.193-0.618-4.415-2.159c-12.385-15.627-37.444-14.558-47.846,2.326c-6.731,10.925-6.575,22.53,0.283,33.317
		c6.817,10.724,17.392,14.243,29.704,12.729c8.183-1.007,15.031-4.578,19.661-11.651c1.117-1.706,1.84-3.669,3.025-6.087
		c-1.61,0-2.484,0-3.358,0c-9.569-0.001-19.138-0.052-28.705,0.038c-2.035,0.019-2.663-0.665-2.589-2.636
		c0.127-3.372,0.088-6.754,0.016-10.13c-0.035-1.631,0.546-2.298,2.228-2.294c17.368,0.039,34.736,0.046,52.104,0.011
		c1.825-0.004,2.295,0.739,2.275,2.459C354.759,438.265,347.269,452.335,331.007,460.619z"/>
</g>
</svg>
