<?xml version="1.0" encoding="utf-8"?>
<!-- Generator: Adobe Illustrator 21.0.2, SVG Export Plug-In . SVG Version: 6.00 Build 0)  -->
<svg version="1.1" id="Laag_1" xmlns="http://www.w3.org/2000/svg" xmlns:xlink="http://www.w3.org/1999/xlink" x="0px" y="0px"
	 viewBox="0 0 164.7 164.7" style="enable-background:new 0 0 164.7 164.7;" xml:space="preserve">
<style type="text/css">
	.st0{fill:#FFFFFF;}
</style>
<g id="logo">
	<path class="st0" d="M82.3,3.7C38.9,3.5,3.6,38.7,3.6,82.3c-0.1,43.1,34.9,78.3,77.9,78.7c42.5,0.4,79-33,79.6-77.2
		C161.8,39,126.8,3.9,82.3,3.7z M108.1,122c-19.4,9.9-38.8,9.4-56.6-3.9c-27-20.3-22.9-61.2,7.2-76.4c22.9-11.6,51.7-4.8,65.4,15.5
		c1.6,2.4,2.8,5.1,4.6,8.3c-2.2,0-3.5,0-4.8,0c-4.7,0-9.5-0.1-14.2,0c-2,0.1-3.2-0.6-4.4-2.2c-12.4-15.6-37.4-14.6-47.8,2.3
		c-6.7,10.9-6.6,22.5,0.3,33.3c6.8,10.7,17.4,14.2,29.7,12.7c8.2-1,15-4.6,19.7-11.7c1.1-1.7,1.8-3.7,3-6.1c-1.6,0-2.5,0-3.4,0
		c-9.6,0-19.1-0.1-28.7,0c-2,0-2.7-0.7-2.6-2.6c0.1-3.4,0.1-6.8,0-10.1c0-1.6,0.5-2.3,2.2-2.3c17.4,0,34.7,0,52.1,0
		c1.8,0,2.3,0.7,2.3,2.5C131.9,99.7,124.4,113.7,108.1,122z"/>
</g>
</svg>
