<?xml version="1.0" encoding="utf-8"?>
<!-- Generator: Adobe Illustrator 21.0.0, SVG Export Plug-In . SVG Version: 6.00 Build 0)  -->
<svg version="1.1" id="Laag_1" xmlns="http://www.w3.org/2000/svg" xmlns:xlink="http://www.w3.org/1999/xlink" x="0px" y="0px"
	 viewBox="0 0 595.28 841.89" enable-background="new 0 0 595.28 841.89" xml:space="preserve">
<g>
	<path fill="#FFFFFF" d="M297.424,430.864c-13.247-0.009-23.924,10.638-23.94,23.874c-0.016,13.217,10.667,23.947,23.868,23.973
		c13.168,0.026,23.959-10.733,23.976-23.902C321.346,441.613,310.625,430.875,297.424,430.864z"/>
	<path fill-rule="evenodd" clip-rule="evenodd" fill="#FFFFFF" d="M294.949,518.612c0.168-0.372,0.305-0.76,0.508-1.112
		c7.078-12.29,14.16-24.579,21.259-36.856c0.324-0.559,0.765-1.089,1.258-1.507c14.273-12.098,15.173-33.637,1.941-46.879
		c-0.289-0.289-0.618-0.538-1.17-1.014c12.775,0,25.193,0,37.955,0c1.164,4.494,2.461,9.07,3.501,13.706
		c0.523,2.33,0.577,4.766,0.848,7.154c0.055,0.489,0.129,0.975,0.194,1.461c0,0.997,0,1.994,0,2.99
		c-0.068,0.615-0.168,1.228-0.199,1.842c-0.528,10.624-3.543,20.542-9.148,29.525c-10.393,16.66-25.186,26.905-44.82,29.733
		c-2.541,0.366-5.094,0.641-7.641,0.956C297.94,518.612,296.445,518.612,294.949,518.612z"/>
	<path fill-rule="evenodd" clip-rule="evenodd" fill="#FFFFFF" d="M233.64,451.072c0.331-2.456,0.559-4.931,1.011-7.365
		c1.452-7.81,3.857-15.265,8.499-21.842c0.166-0.235,0.342-0.464,0.591-0.801c0.224,0.297,0.434,0.523,0.584,0.782
		c7.026,12.178,14.061,24.352,21.04,36.557c0.495,0.865,0.636,1.95,0.851,2.953c3.234,15.073,16.492,25.621,31.895,25.31
		c1.856-0.037,3.708-0.317,5.7-0.496c-0.164,0.347-0.289,0.666-0.458,0.96c-5.633,9.774-11.288,19.536-16.877,29.334
		c-0.552,0.969-1.128,1.066-2.069,0.86c-18-3.943-31.9-13.728-41.549-29.407c-5.279-8.577-8.252-17.967-8.999-28.038
		c-0.027-0.365-0.144-0.722-0.219-1.082C233.64,456.224,233.64,453.648,233.64,451.072z"/>
	<path fill-rule="evenodd" clip-rule="evenodd" fill="#FFFFFF" d="M301.678,391.01c0.975,0.147,1.947,0.311,2.925,0.438
		c20.562,2.656,36.258,12.911,47.365,30.329c0.191,0.301,0.336,0.631,0.589,1.111c-0.653,0-1.134,0-1.616,0
		c-17.439,0-34.881,0.192-52.316-0.059c-15.084-0.218-27.101,9.181-31.332,21.386c-0.038,0.109-0.106,0.208-0.241,0.464
		c-0.27-0.404-0.505-0.714-0.698-1.048c-5.614-9.738-11.211-19.486-16.856-29.205c-0.496-0.854-0.377-1.352,0.247-2.033
		c10.885-11.88,24.245-18.978,40.284-20.929c1.143-0.14,2.283-0.303,3.425-0.455C296.195,391.01,298.937,391.01,301.678,391.01z"/>
	<path fill-rule="evenodd" clip-rule="evenodd" fill="#FFFFFF" d="M297.424,430.864c13.201,0.011,23.922,10.749,23.904,23.944
		c-0.017,13.169-10.808,23.928-23.976,23.902c-13.201-0.026-23.884-10.756-23.868-23.973
		C273.5,441.502,284.177,430.855,297.424,430.864z"/>
</g>
</svg>
