<?xml version="1.0" encoding="utf-8"?>
<!-- Generator: Adobe Illustrator 21.0.2, SVG Export Plug-In . SVG Version: 6.00 Build 0)  -->
<svg version="1.1" id="Laag_1" xmlns="http://www.w3.org/2000/svg" xmlns:xlink="http://www.w3.org/1999/xlink" x="0px" y="0px"
	 viewBox="0 0 128.6 128.6" style="enable-background:new 0 0 128.6 128.6;" xml:space="preserve">
<style type="text/css">
	.st0{fill:#FFFFFF;}
</style>
<g id="logo">
	<path class="st0" d="M64.3,40.4c-13.2,0-23.9,10.6-23.9,23.9c0,13.2,10.7,23.9,23.9,24c13.2,0,24-10.7,24-23.9
		C88.2,51.1,77.5,40.4,64.3,40.4z"/>
	<path class="st0" d="M61.8,128.1c0.2-0.4,0.3-0.8,0.5-1.1c7.1-12.3,14.2-24.6,21.3-36.9c0.3-0.6,0.8-1.1,1.3-1.5
		C99.1,76.5,100,55,86.8,41.8c-0.3-0.3-0.6-0.5-1.2-1c12.8,0,25.2,0,38,0c1.2,4.5,2.5,9.1,3.5,13.7c0.5,2.3,0.6,4.8,0.8,7.2
		c0.1,0.5,0.1,1,0.2,1.5c0,1,0,2,0,3c-0.1,0.6-0.2,1.2-0.2,1.8c-0.5,10.6-3.5,20.5-9.1,29.5c-10.4,16.7-25.2,26.9-44.8,29.7
		c-2.5,0.4-5.1,0.6-7.6,1C64.8,128.1,63.3,128.1,61.8,128.1z"/>
	<path class="st0" d="M0.5,60.6c0.3-2.5,0.6-4.9,1-7.4C3,45.4,5.4,38,10,31.4c0.2-0.2,0.3-0.5,0.6-0.8c0.2,0.3,0.4,0.5,0.6,0.8
		c7,12.2,14.1,24.4,21,36.6c0.5,0.9,0.6,2,0.9,3C36.3,85.9,49.6,96.5,65,96.2c1.9,0,3.7-0.3,5.7-0.5c-0.2,0.3-0.3,0.7-0.5,1
		c-5.6,9.8-11.3,19.5-16.9,29.3c-0.6,1-1.1,1.1-2.1,0.9c-18-3.9-31.9-13.7-41.5-29.4c-5.3-8.6-8.3-18-9-28c0-0.4-0.1-0.7-0.2-1.1
		C0.5,65.7,0.5,63.2,0.5,60.6z"/>
	<path class="st0" d="M68.6,0.5c1,0.1,1.9,0.3,2.9,0.4c20.6,2.7,36.3,12.9,47.4,30.3c0.2,0.3,0.3,0.6,0.6,1.1c-0.7,0-1.1,0-1.6,0
		c-17.4,0-34.9,0.2-52.3-0.1c-15.1-0.2-27.1,9.2-31.3,21.4c0,0.1-0.1,0.2-0.2,0.5c-0.3-0.4-0.5-0.7-0.7-1
		C27.6,43.4,22,33.7,16.4,23.9c-0.5-0.9-0.4-1.4,0.2-2C27.5,10,40.9,2.9,56.9,1c1.1-0.1,2.3-0.3,3.4-0.5C63.1,0.5,65.8,0.5,68.6,0.5
		z"/>
	<path class="st0" d="M64.3,40.4c13.2,0,23.9,10.7,23.9,23.9c0,13.2-10.8,23.9-24,23.9c-13.2,0-23.9-10.8-23.9-24
		C40.4,51,51.1,40.4,64.3,40.4z"/>
</g>
</svg>
