<?xml version="1.0" encoding="utf-8"?>
<!-- Generator: Adobe Illustrator 21.0.0, SVG Export Plug-In . SVG Version: 6.00 Build 0)  -->
<svg version="1.1" id="Laag_1" xmlns="http://www.w3.org/2000/svg" xmlns:xlink="http://www.w3.org/1999/xlink" x="0px" y="0px"
	 viewBox="0 0 595.28 841.89" enable-background="new 0 0 595.28 841.89" xml:space="preserve">
<g>
	<path fill="#FFFFFF" d="M150.814,479.889c-0.039,7.366-3.153,13.19-9.626,16.946c-14.682,8.519-29.37,17.028-44.11,25.446
		c-6.452,3.684-13.018,3.591-19.476-0.132c-14.562-8.394-29.125-16.787-43.667-25.215c-6.445-3.736-9.707-9.407-9.763-16.84
		c-0.063-8.499-0.015-16.999-0.015-25.499c0-8.333-0.016-16.666,0.005-24.999c0.019-7.429,3.121-13.187,9.574-16.942
		c14.671-8.539,29.344-17.076,44.101-25.464c6.425-3.652,13.082-3.551,19.509,0.129c14.587,8.352,29.126,16.786,43.67,25.213
		c6.461,3.743,9.739,9.487,9.79,16.86C150.922,446.223,150.903,463.057,150.814,479.889z M290,454.561
		c0,8.666,0.033,17.332-0.01,25.997c-0.035,7.086-3.211,12.572-9.224,16.109c-14.771,8.689-29.643,17.208-44.526,25.705
		c-6.102,3.483-12.493,3.615-18.589,0.167c-15.062-8.519-30.05-17.172-44.966-25.944c-6.044-3.554-9.157-9.175-9.202-16.177
		c-0.111-17.164-0.148-34.331,0.019-51.494c0.07-7.172,3.42-12.726,9.725-16.371c14.693-8.493,29.333-17.079,44.091-25.456
		c6.248-3.546,12.819-3.484,19.063,0.073c14.747,8.4,29.424,16.925,44.079,25.485c6.412,3.745,9.613,9.405,9.554,16.909
		C289.95,437.895,290,446.228,290,454.561z M421.184,496.547c-14.882,8.822-29.897,17.426-44.944,25.966
		c-6.108,3.467-12.515,3.367-18.6-0.094c-15.04-8.554-30.055-17.158-44.938-25.98c-5.823-3.451-8.851-8.899-8.858-15.803
		c-0.016-17.163,0.006-34.326-0.011-51.489c-0.007-7.111,3.057-12.649,9.064-16.197c15.039-8.882,30.157-17.635,45.387-26.184
		c5.721-3.212,11.967-3.136,17.696,0.095c15.215,8.581,30.353,17.303,45.396,26.183c5.851,3.454,8.801,8.89,8.789,15.802
		c-0.014,8.665-0.003,17.33-0.003,25.995c0,8.498-0.069,16.997,0.021,25.495C430.259,487.496,427.159,493.005,421.184,496.547z
		 M569.981,479.887c-0.027,7.609-3.368,13.39-10.017,17.221c-14.276,8.224-28.553,16.447-42.799,24.724
		c-7.145,4.152-14.136,4.041-21.261-0.124c-13.792-8.064-27.611-16.084-41.511-23.961c-7.54-4.272-11.255-10.431-11.032-19.161
		c0.204-7.993,0.043-15.995,0.043-23.993c0-8.331-0.022-16.663,0.007-24.994c0.026-7.629,3.277-13.389,9.956-17.221
		c14.435-8.282,28.842-16.615,43.255-24.935c6.63-3.827,13.352-3.858,19.937-0.106c14.747,8.405,29.457,16.878,44.09,25.48
		c6.214,3.653,9.328,9.337,9.341,16.582C570.021,446.228,570.042,463.058,569.981,479.887z"/>
	<path fill="#FFFFFF" d="M141.015,412.531c-14.544-8.427-29.083-16.861-43.67-25.213c-6.426-3.68-13.084-3.781-19.509-0.129
		c-14.757,8.388-29.43,16.926-44.101,25.464c-6.453,3.755-9.555,9.513-9.574,16.942c-0.021,8.333-0.005,16.666-0.005,24.999
		c0,8.5-0.049,17,0.015,25.499c0.055,7.433,3.317,13.104,9.763,16.84c14.542,8.428,29.105,16.821,43.667,25.215
		c6.458,3.723,13.025,3.816,19.476,0.132c14.74-8.417,29.428-16.926,44.11-25.446c6.474-3.756,9.587-9.581,9.626-16.946
		c0.089-16.832,0.107-33.666-0.009-50.497C150.754,422.018,147.476,416.274,141.015,412.531z M138.999,472.079
		c0.207,8.316-3.485,14.374-10.497,18.466c-10.763,6.281-21.491,12.642-32.468,18.53c-5.692,3.053-11.886,2.938-17.669-0.322
		c-10.422-5.875-20.762-11.896-31.171-17.795c-7.433-4.213-11.35-10.331-11.232-19.064c0.157-11.657,0.012-23.317,0.049-34.976
		c0.025-7.79,3.359-13.704,10.157-17.64c9.921-5.744,19.86-11.457,29.705-17.328c7.689-4.584,15.209-4.755,22.961-0.138
		c10.135,6.035,20.419,11.818,30.57,17.826c6.201,3.67,9.379,9.286,9.539,16.467c0.137,6.159,0.028,12.324,0.029,18.487
		C138.971,460.42,138.854,466.253,138.999,472.079z"/>
	<path fill="#FFFFFF" d="M280.461,412.654c-14.655-8.56-29.332-17.085-44.079-25.485c-6.245-3.557-12.815-3.62-19.063-0.073
		c-14.759,8.377-29.398,16.964-44.091,25.456c-6.306,3.645-9.656,9.198-9.725,16.371c-0.167,17.163-0.13,34.33-0.019,51.494
		c0.045,7.002,3.159,12.623,9.202,16.177c14.916,8.772,29.904,17.424,44.966,25.944c6.096,3.448,12.487,3.317,18.589-0.167
		c14.883-8.496,29.755-17.015,44.526-25.705c6.013-3.537,9.189-9.023,9.224-16.109c0.043-8.666,0.01-17.332,0.01-25.997
		c0-8.333-0.05-16.665,0.015-24.997C290.074,422.059,286.873,416.399,280.461,412.654z M278.092,439.314
		c-0.51,5.277-0.089,10.644-0.089,15.97c0,6.158-0.02,12.317,0.005,18.475c0.029,7.357-3.551,12.733-9.607,16.343
		c-9.689,5.776-19.771,10.908-29.325,16.891c-8.068,5.052-15.735,5.315-23.829,0.541c-10.144-5.982-20.38-11.809-30.517-17.802
		c-6.781-4.009-9.521-10.452-9.665-17.95c-0.223-11.647-0.341-23.31,0.039-34.949c0.258-7.881,3.669-14.151,11.093-18.123
		c9.797-5.241,19.467-10.757,28.903-16.62c7.708-4.79,14.985-4.995,22.744-0.346c9.106,5.456,18.357,10.676,27.618,15.868
		C273.982,422.391,279.101,428.878,278.092,439.314z"/>
	<path fill="#FFFFFF" d="M560.649,412.817c-14.633-8.602-29.342-17.075-44.09-25.48c-6.584-3.752-13.306-3.721-19.937,0.106
		c-14.414,8.32-28.82,16.653-43.255,24.935c-6.68,3.832-9.93,9.592-9.956,17.221c-0.029,8.331-0.007,16.663-0.007,24.994
		c0,7.998,0.161,16-0.043,23.993c-0.223,8.73,3.492,14.889,11.032,19.161c13.9,7.876,27.719,15.897,41.511,23.961
		c7.125,4.166,14.116,4.276,21.261,0.124c14.245-8.277,28.523-16.5,42.799-24.724c6.649-3.83,9.989-9.611,10.017-17.221
		c0.061-16.829,0.04-33.659,0.009-50.488C569.977,422.154,566.863,416.47,560.649,412.817z M557.972,473.522
		c-0.161,7.6-3.665,13.242-10.306,17.025c-10.251,5.839-20.398,11.862-30.676,17.652c-6.689,3.769-13.51,4.079-20.34,0.087
		c-10.616-6.205-21.213-12.447-31.945-18.446c-6.537-3.655-9.332-9.523-9.552-16.416c-0.393-12.31-0.283-24.645-0.047-36.962
		c0.143-7.453,3.463-13.356,10.112-17.189c9.931-5.727,19.85-11.477,29.719-17.311c7.277-4.302,14.496-5.101,22.057-0.621
		c10.435,6.183,21.064,12.04,31.454,18.295c6.43,3.871,9.805,9.671,9.584,17.421C557.867,442.88,558,448.712,558,454.54
		C558,460.867,558.106,467.197,557.972,473.522z"/>
	<path fill="#FFFFFF" d="M430.162,454.841c0-8.665-0.011-17.33,0.003-25.995c0.011-6.912-2.939-12.348-8.789-15.802
		c-15.042-8.88-30.18-17.603-45.396-26.183c-5.729-3.231-11.975-3.307-17.696-0.095c-15.23,8.549-30.348,17.302-45.387,26.184
		c-6.007,3.548-9.072,9.086-9.064,16.197c0.018,17.163-0.005,34.326,0.011,51.489c0.006,6.904,3.035,12.352,8.858,15.803
		c14.884,8.822,29.898,17.426,44.938,25.98c6.085,3.461,12.492,3.561,18.6,0.094c15.047-8.54,30.061-17.143,44.944-25.966
		c5.975-3.542,9.075-9.051,8.999-16.212C430.093,471.838,430.162,463.339,430.162,454.841z M418.9,471.027
		c-0.211,8.683-3.738,15.523-11.787,19.917c-9.76,5.329-19.235,11.181-28.845,16.784c-7.378,4.302-14.813,4.444-22.243,0.14
		c-10.202-5.91-20.453-11.741-30.554-17.82c-6.049-3.64-9.759-8.815-9.53-16.337c0.198-6.489,0.041-12.989,0.041-19.484
		c0-5.995,0.181-11.998-0.045-17.985c-0.296-7.852,3.337-13.37,9.811-17.165c10.602-6.216,21.268-12.327,32-18.314
		c6.637-3.703,13.403-3.135,19.861,0.539c9.814,5.583,19.379,11.618,29.323,16.952c8.309,4.457,11.716,11.504,11.959,20.301
		C419.191,449.372,419.163,460.209,418.9,471.027z"/>
	<path fill="#FFFFFF" d="M115.136,427.481c0-10.902,0.003-10.778-10.882-10.533c-3.14,0.071-4.023,1.196-3.965,4.127
		c0.135,6.83-0.009,13.666,0.065,20.498c0.024,2.196-0.486,3.395-3.031,3.351c-6.831-0.118-13.666-0.108-20.498-0.002
		c-2.384,0.037-3.241-0.837-3.184-3.201c0.116-4.83,0.029-9.665,0.029-14.498c-0.001-10.344-0.004-10.135-10.276-10.302
		c-3.975-0.065-4.669,1.376-4.604,4.915c0.202,10.996,0.074,21.998,0.074,32.997c0,9.166,0,18.332,0,27.499
		c0,10.886-0.003,10.758,10.915,10.502c3.179-0.075,3.97-1.271,3.93-4.162c-0.117-8.498,0.038-17-0.084-25.498
		c-0.04-2.812,0.496-4.318,3.803-4.209c6.493,0.215,12.999,0.149,19.496,0.024c2.646-0.051,3.478,1.008,3.439,3.537
		c-0.105,6.831-0.034,13.665-0.034,20.498c0,9.792,0.007,9.552,9.741,9.839c4.348,0.129,5.192-1.379,5.153-5.386
		C115.031,467.481,115.136,447.481,115.136,427.481z"/>
	<path fill="#FFFFFF" d="M255,431.069c0-11.523,0.005-11.441-11.482-10.805c-2.587,0.143-3.446,0.958-3.407,3.537
		c0.126,8.331,0.068,16.664,0.04,24.997c-0.025,7.164,0.201,14.347-0.248,21.487c-0.485,7.707-5.567,12.295-12.956,12.526
		c-7.347,0.229-12.545-4.116-13.726-11.71c-0.381-2.453-0.357-4.982-0.363-7.477c-0.033-12.999,0.014-25.997-0.052-38.996
		c-0.008-1.612,0.952-4.08-2.003-4.217c-3.658-0.169-7.329-0.073-10.995-0.035c-1.996,0.021-1.804,1.547-1.802,2.867
		c0.029,15.997-0.438,32.016,0.242,47.985c0.666,15.653,13.612,26.271,29.872,25.693c15.259-0.543,26.751-12.43,26.87-27.856
		c0.055-7.165,0.009-14.332,0.009-21.498C255,442.068,255,436.568,255,431.069z"/>
	<path fill="#FFFFFF" d="M507.877,416.013c-21.938,0.002-39.708,17.555-39.576,39.093c0.133,21.819,17.324,38.906,39.12,38.885
		c22.181-0.021,39.624-17.196,39.577-38.968C546.952,433.48,529.433,416.011,507.877,416.013z M507.861,479.827
		c-13.498,0.089-24.653-11.082-24.733-24.767c-0.081-13.964,10.486-24.469,24.617-24.47c14.166-0.001,24.433,10.362,24.367,24.596
		C532.049,468.786,521.27,479.738,507.861,479.827z"/>
	<path fill="#FFFFFF" d="M398.829,451.655c-3.96,0.394-7.991,0.084-11.99,0.087c-4.666,0.003-9.333,0.028-13.998-0.011
		c-1.688-0.014-2.625,0.274-2.897,2.378c-1.421,11.006-0.84,11.781,9.961,11.781c0.667,0,1.34-0.06,1.998,0.012
		c1.604,0.176,3.902-0.827,4.671,0.551c1.092,1.957-0.862,3.756-2.056,5.221c-4.853,5.956-11.15,9.184-18.872,7.857
		c-9.338-1.605-16.235-6.897-19.592-15.899c-4.24-11.373,0.392-24.057,10.539-29.987c10.565-6.174,22.962-3.69,31.422,6.171
		c0.846,0.987,1.489,4.013,3.415,2.022c3.087-3.19,7.67-5.134,8.883-9.96c0.073-0.289-0.584-0.759-0.897-1.149
		c-10.807-13.438-28.453-18.272-44.604-12.22c-15.794,5.919-25.5,20.829-24.951,38.329c0.658,20.946,17.686,37.35,38.594,37.18
		c20.739-0.168,34.819-15.155,35.218-37.233C403.741,453.083,403.075,451.232,398.829,451.655z"/>
</g>
</svg>
