<?xml version="1.0" encoding="utf-8"?>
<!-- Generator: Adobe Illustrator 21.0.2, SVG Export Plug-In . SVG Version: 6.00 Build 0)  -->
<svg version="1.1" id="Laag_1" xmlns="http://www.w3.org/2000/svg" xmlns:xlink="http://www.w3.org/1999/xlink" x="0px" y="0px"
	 viewBox="0 0 341.3 341.3" style="enable-background:new 0 0 341.3 341.3;" xml:space="preserve">
<style type="text/css">
	.st0{fill:#FFFFFF;}
</style>
<g id="logo">
	<path class="st0" d="M328.4,251.2c-9.1-4.5-13.1-0.5-17,7.5c-4.4,9.2-9.4,22.1-21.9,17.5c-13.5-4.9-5.6-17.7-4.2-27.4
		c0.6-4.4,2.5-8.5,3.5-12.9c5.2-23.1,15-45.2,14.2-69.6c-0.7-21.6-7.9-39.8-27.7-49.9c-20.7-10.7-40.5-5.5-58.3,8.2
		c-8.2,6.3-15.7,13.5-26.5,22.9c1.9-10.1,2.7-15.9,4.1-21.6c2-7.6-0.4-11.1-8.5-11.1c-18.6,0.2-37.3-1.6-55.7,0.6
		c-18.3,2.1-13.7,20.6-16.2,32c-2.8,12.5,10.1,8,15.8,7.6c15-1,15.5,5.7,12.2,17.3c-5.8,20.7-10.7,41.7-16.1,62.6
		c-3.8,15.1-12.2,27.1-25.4,35.3c-10.3,6.4-22.2,12.6-33.2,4.6c-10.3-7.4-4.2-19.2-1.8-29c9.2-38.3,18.3-76.6,28.7-114.5
		c3.6-13.4,0.4-17.2-12.9-16.6c-18.5,0.8-37.2-0.5-55.7,0.5c-21.3,1.1-15.6,20.5-18.5,32.2c-3.1,12.8,9.8,8.1,15.4,7.7
		c15.4-1.1,14.9,6.4,12.1,17.5c-7,28.1-14.9,56.1-19.8,84.6C9,294,29.5,313.8,66.7,310.1c17.3-1.7,29.4-12.7,45.9-24.7
		c-8.3,21.6,2.9,21.3,16.9,22.8c22,2.3,33.1-5.3,35.2-27.5c0.9-9.5,3.9-18.9,6.6-28.2c7.4-25.6,10.6-52.6,21.7-77.1
		c8.7-19.2,27.6-28.5,43.4-21.8c19.5,8.3,18.7,24.5,14.2,41.5c-5.3,20.1-11.2,40.1-15.8,60.3c-4,17.6-1.6,34.6,13.6,46.5
		c15.6,12.2,33.9,11,51,4.5c17.1-6.5,25.5-22,31.9-38.2C333.6,262.1,337.6,255.8,328.4,251.2z"/>
	<path class="st0" d="M79,87.8c16.3-0.3,29.2-13.5,29.1-29.7C108,41,96.3,30.1,78.3,30.2c-17.6,0.1-29.4,11.7-29.1,28.7
		C49.4,75,62.9,88.1,79,87.8z"/>
</g>
</svg>
