<?xml version="1.0" encoding="utf-8"?>
<!-- Generator: Adobe Illustrator 21.0.0, SVG Export Plug-In . SVG Version: 6.00 Build 0)  -->
<svg version="1.1" id="Laag_1" xmlns="http://www.w3.org/2000/svg" xmlns:xlink="http://www.w3.org/1999/xlink" x="0px" y="0px"
	 viewBox="0 0 595.28 841.89" enable-background="new 0 0 595.28 841.89" xml:space="preserve">
<g>
	<path fill="#FFFFFF" d="M469.638,566.743c-9.141-4.531-13.131-0.514-16.974,7.542c-4.366,9.152-9.432,22.056-21.899,17.501
		c-13.453-4.916-5.576-17.715-4.173-27.357c0.636-4.37,2.527-8.542,3.51-12.88c5.233-23.085,14.984-45.19,14.238-69.574
		c-0.66-21.58-7.924-39.774-27.672-49.937c-20.741-10.674-40.518-5.533-58.27,8.222c-8.185,6.342-15.72,13.522-26.491,22.878
		c1.884-10.079,2.655-15.923,4.115-21.589c1.962-7.617-0.385-11.13-8.481-11.053c-18.575,0.178-37.347-1.583-55.675,0.557
		c-18.329,2.14-13.706,20.636-16.228,32.014c-2.766,12.48,10.099,7.96,15.816,7.569c15.018-1.027,15.486,5.659,12.207,17.305
		c-5.833,20.718-10.739,41.697-16.062,62.56c-3.844,15.067-12.197,27.091-25.363,35.289c-10.267,6.393-22.176,12.574-33.198,4.578
		c-10.263-7.445-4.18-19.233-1.826-28.992c9.229-38.264,18.326-76.576,28.654-114.549c3.643-13.396,0.388-17.159-12.883-16.608
		c-18.547,0.769-37.185-0.489-55.715,0.465c-21.276,1.096-15.609,20.481-18.452,32.2c-3.097,12.762,9.824,8.133,15.444,7.725
		c15.4-1.117,14.865,6.447,12.097,17.514c-7.026,28.091-14.946,56.072-19.823,84.557c-6.305,36.832,14.181,56.65,51.342,52.913
		c17.32-1.742,29.371-12.705,45.93-24.717c-8.281,21.593,2.948,21.337,16.908,22.792c22.003,2.294,33.055-5.35,35.183-27.481
		c0.915-9.516,3.913-18.902,6.598-28.163c7.435-25.647,10.609-52.58,21.675-77.081c8.667-19.19,27.579-28.524,43.375-21.849
		c19.527,8.252,18.688,24.526,14.242,41.498c-5.267,20.105-11.199,40.055-15.796,60.31c-4.002,17.633-1.636,34.586,13.594,46.473
		c15.62,12.192,33.862,10.985,50.96,4.505c17.084-6.475,25.488-21.984,31.915-38.238C474.852,577.595,478.83,571.3,469.638,566.743z
		"/>
	<path fill="#FFFFFF" d="M220.246,403.329c16.331-0.276,29.242-13.464,29.095-29.718c-0.154-17.074-11.842-28.004-29.843-27.909
		c-17.612,0.093-29.365,11.662-29.115,28.658C190.622,390.52,204.107,403.602,220.246,403.329z"/>
</g>
</svg>
