<svg id="Layer_1" data-name="Layer 1" xmlns="http://www.w3.org/2000/svg" viewBox="0 0 170.57 166.85"><defs><style>.cls-1{fill:#fff;}</style></defs><title>iosandroid</title>
<g id="logo"><path class="cls-1" d="M235.48,326c11.79,0,23.57.09,35.35-.06,2.91,0,4.07.48,4,3.79-0.18,17.52-.06,35-0.09,52.57,0,6.09-3.92,10-10,10.08s-6,.13-6,6.1c0,4.2,0,8.4,0,12.6-0.06,5.33-4.09,9.52-9,9.4-5-.12-8.71-4.14-8.73-9.56s-0.11-10.66,0-16c0.05-2.07-.67-2.56-2.63-2.59-9.14-.12-9.13-0.18-9.13,8.81,0,3.48,0,7,0,10.45a9,9,0,0,1-8.81,8.88,9.23,9.23,0,0,1-8.89-8.84c-0.1-4.71,0-9.43,0-14.14,0-5.08,0-5.11-5-5.1-2.82,0-5.42-.29-7.67-2.4a9.59,9.59,0,0,1-3.27-7.29c0-18,0-36.07-.08-54.1,0-2.35,1-2.66,3-2.65C210.89,326,223.18,326,235.48,326Z" transform="translate(-174.53 -253.67)"/><path class="cls-1" d="M235.22,323.19c-12.19,0-24.39-.07-36.58,0-2.51,0-3.24-.77-3-3.19,1.39-11.92,7.48-20.82,17.53-27,2.14-1.32,2.37-2.29,1.11-4.26a69.71,69.71,0,0,1-3.56-6.45c-0.54-1.08-2-2.51-.38-3.43s1.81,1.22,2.35,2.11c1.49,2.44,2.81,5,4.14,7.54,0.74,1.42,1.54,1.7,3.17,1.11a42.53,42.53,0,0,1,30.62.14c1.41,0.54,2,.27,2.65-0.94,1.42-2.71,2.87-5.41,4.44-8,0.54-.92.9-2.85,2.51-1.84,1.09,0.68.28,2-.3,3-1.28,2.21-2.37,4.55-3.78,6.67s-0.86,3.33,1.24,4.57a35.07,35.07,0,0,1,16,20.24,55.32,55.32,0,0,1,1.34,6.61c0.43,2.32-.35,3.24-2.91,3.22C259.61,323.12,247.42,323.19,235.22,323.19ZM216.9,302c-1.68.44-3,1.43-2.93,3.52a3.27,3.27,0,0,0,6.54-.23C220.41,303.35,219.17,302.22,216.9,302Zm39.57,3.41c-0.1-1.93-1-3.32-3.14-3.31a3.29,3.29,0,1,0-.17,6.58C255.23,308.78,256.37,307.65,256.47,305.46Z" transform="translate(-174.53 -253.67)"/><path class="cls-1" d="M277.9,351.33c0-5.93.23-11.88-.07-17.79a8.85,8.85,0,0,1,7.78-9c5.53-.24,9,2.39,9.73,7.84a32.31,32.31,0,0,1,.26,4.88c-0.16,11.24.51,22.5-.34,33.73a8.59,8.59,0,0,1-9.1,7.69,8.7,8.7,0,0,1-8.23-8.63c-0.06-6.24,0-12.48,0-18.72h0Z" transform="translate(-174.53 -253.67)"/><path class="cls-1" d="M192.52,351.62c0,5.95,0,11.89,0,17.83,0,4.89-3.27,8.74-7.69,9.18-4.75.48-9.23-2.4-9.57-7.43a261.26,261.26,0,0,1,.1-40.18c0.39-4.45,4.87-6.9,10-6.43a8.31,8.31,0,0,1,7.14,8C192.6,338.92,192.52,345.27,192.52,351.62Z" transform="translate(-174.53 -253.67)"/><path class="cls-1" d="M344.82,375.31a26.4,26.4,0,0,1-11.3-7.33,38.93,38.93,0,0,1-10.12-18.41c-2-9-1.23-17.75,3.15-26a39.29,39.29,0,0,1,7.2-9.55c2-1.94,4-3.77,6-5.66l0.53-.49c-0.35-.43-0.67-0.82-1-1.21a52,52,0,0,0-8.6-8.23,35.79,35.79,0,0,0-15.57-6.53,42,42,0,0,0-17.32.92c-3,.74-5.83,1.71-8.72,2.66q-4,1.31-8,2.22a18.6,18.6,0,0,1-8.75-.11c-3.22-.81-6.44-1.6-9.64-2.49l-1.09-.29a36.11,36.11,0,0,1,12.73,18.32,35,35,0,0,1,1.05,4.9c0.1,0.61.2,1.22,0.31,1.83a3.66,3.66,0,0,1-.52,3.16c-0.83,1-2.23,1-3.26,1h-0.13c-8.88,0-18,0-26.77.06-3.3,0-6,.07-10,0.07v0h-9.07q-8.89,0-18,0c-0.08.28-.12,0.55-0.2,0.83,6.06,0,12.16,0,18.09,0h9.65l9.22,0c8.56,0,17.42,0,26.12-.06,1.73,0,3.07.15,4,1s1.1,1.92,1.08,3.75c-0.12,11.43-.1,23.06-0.09,34.3q0,9.13,0,18.26c0,6.59-4.32,10.94-11,11.08-2.46.05-4.08,0.09-4.55,0.56s-0.46,2.09-.46,4.54q0,1.92,0,3.85c0,2.92,0,5.84,0,8.77a10.93,10.93,0,0,1-3.25,7.72,9.83,9.83,0,0,1-1.22,1,43.84,43.84,0,0,0,6.5-2.08,69.75,69.75,0,0,1,8.33-2.91,29.47,29.47,0,0,1,9.51-1,37.75,37.75,0,0,1,8.46,1.61c2.57,0.79,5.1,1.69,7.66,2.52a51.25,51.25,0,0,0,8.51,2.06,18.41,18.41,0,0,0,11-1.83,32.05,32.05,0,0,0,8-5.83,68.21,68.21,0,0,0,9.52-11.76,105.73,105.73,0,0,0,9.39-17.22c1-2.43,1.86-4.94,2.78-7.42,0-.13.08-0.27,0.13-0.43A1.44,1.44,0,0,0,344.82,375.31Zm-48.55-4.25a9.62,9.62,0,0,1-9.69,8.62h-0.45a9.68,9.68,0,0,1-9.18-9.62c0-4.38,0-8.82,0-13.12q0-2.35,0-4.7l0-.9c0-1.8,0-3.61,0-5.42,0-4,.1-8.24-0.11-12.33a9.84,9.84,0,0,1,8.74-10c6.13-.26,9.95,2.82,10.77,8.7a33.17,33.17,0,0,1,.27,5c-0.06,4,0,8,0,11.88C296.73,356.33,296.82,363.76,296.26,371.07Z" transform="translate(-174.53 -253.67)"/><path class="cls-1" d="M240.09,411l0-3.5c0-4.1-.06-8.34,0-12.52a1.9,1.9,0,0,0-.22-1.28,2.36,2.36,0,0,0-1.42-.28H238.3c-4.07-.05-6.31-0.08-7.13.73s-0.82,3-.82,7.07V404c0,1.7,0,3.44,0,5.19a44.73,44.73,0,0,0,6.39,6.12,26,26,0,0,0,7,4A10.72,10.72,0,0,1,240.09,411Z" transform="translate(-174.53 -253.67)"/><path class="cls-1" d="M306.82,253.67a11.57,11.57,0,0,1,.6,4,33.32,33.32,0,0,1-1.24,8.79,40.88,40.88,0,0,1-15.59,22.75,19.69,19.69,0,0,1-7.31,3.61c-2,.45-4,0.72-6,1-0.71.12-1.44,0.17-2.16,0.24-0.34,0-.69,0-1.06.06,0-.85,0-1.64,0-2.42a49.64,49.64,0,0,1,1.65-10.37,40.32,40.32,0,0,1,7-14.2,32.72,32.72,0,0,1,10.69-8.71,54.09,54.09,0,0,1,13-4.73C306.51,253.69,306.62,253.69,306.82,253.67Z" transform="translate(-174.53 -253.67)"/></g></svg>