<?xml version="1.0" encoding="utf-8"?>
<!-- Generator: Adobe Illustrator 21.0.2, SVG Export Plug-In . SVG Version: 6.00 Build 0)  -->
<svg version="1.1" id="Laag_1" xmlns="http://www.w3.org/2000/svg" xmlns:xlink="http://www.w3.org/1999/xlink" x="0px" y="0px"
	 viewBox="0 0 130.3 130.3" style="enable-background:new 0 0 130.3 130.3;" xml:space="preserve">
<style type="text/css">
	.st0{fill:#FFFFFF;}
</style>
<g id="logo">
	<path class="st0" d="M93.2,31.6c1.2,1.8,2.3,3.6,3.4,5.4c0.1,0.1,0.2,0.3,0.3,0.4c3,2.5,4.1,6,4.6,9.7c0.4,3.1,0.7,6.2,1,9.3
		c0.1,0.9,0.4,1.5,1.4,2c3.4,1.5,6.7,3.2,9.4,5.8c0.2,0.2,0.6,0.3,0.9,0.4c5.1,1.7,6.5,7.3,3.2,10.8c-0.2,0.2-0.2,0.8-0.1,1.1
		c0.4,1.3,0.8,2.6,1.3,3.8c0.1,0.4,0.5,0.7,0.9,0.9c3.5,1.3,5.3,4.2,4.2,7.7c-4.3,13-10.3,25-22.1,33c-6.7,4.6-14.1,7.2-22.2,7.6
		c-22.5,1.4-39.1-8.8-51.3-26.9c-0.5-0.7-0.9-0.9-1.7-1c-8.6-0.1-15.9-6.7-17.2-15.3c-0.4-2.9-0.3-5.7,0.6-8.5
		c0.2-0.5,0.1-0.8-0.4-1.1c-1.4-1-2.8-2.2-4.2-3.2c-3.3-2.4-4.5-5.7-4.6-9.5c-0.1-5,1.3-9.6,3.2-14.1c4-9.4,9.6-17.7,16.2-25.4
		c5.8-6.8,12.2-13,19.8-17.9c3.7-2.4,7.6-4.4,12-5.2c4.1-0.8,7.8-0.2,11,2.7c1,0.9,2.2,1.7,3.2,2.6c0.6,0.6,1,0.5,1.7,0.1
		C72,4.2,76.8,2.1,82,1.1c3.3-0.6,6.5-0.8,9.7,0.2c4.7,1.4,7.7,5.3,8,10.2c0.3,5.1-1.1,9.7-3.3,14.2C95.4,27.8,94.2,29.8,93.2,31.6z
		 M112.8,77.7c-0.2,0.1-0.3,0.1-0.3,0.2c-7.8,7.2-17.2,11-27.7,12.2c-2.1,0.3-4.3,0.3-6.5,0.4c-2.1,0.1-3.3,1.4-3.2,3.5
		c2.9,0.8,5.8,1.1,8.8,0.7c3-0.4,6-0.8,8.9-1.5c2.9-0.6,5.7-1.6,8.5-2.4c0,0.1,0,0.2,0.1,0.3c-8.1,4.6-16.8,6.1-26.2,5.1
		c0.3,1.1,0.9,2,1.8,2.6c0.8,0.5,1.7,0.9,2.7,1.2c3.9,1,7.8,0.7,11.7-0.1c7.5-1.4,14.1-4.8,20.2-9.2c1.5-1.1,2.9-2.3,4.3-3.4
		c0.1,0.1,0.1,0.1,0.2,0.2c-0.9,1.1-1.7,2.4-2.7,3.4c-8.4,7.9-18.4,12.2-30,12.3c-2.3,0-4.6-0.4-6.8-1.5c-2-1-3.4-2.6-4-4.8
		c-1.4-4.9,1.4-8.6,6.4-8.7c0.4,0,0.9,0,1.3,0c7.6-0.3,14.8-2,21.5-5.7c4.7-2.5,8.7-5.8,12.1-9.9c1.1-1.3,0.8-2.7-0.7-3.5
		c-0.4-0.2-0.9-0.3-1.3-0.4c-0.3-0.1-0.6-0.1-0.8-0.3c-2.8-3-6.3-4.8-10-6.3c-1.8-0.8-2.7-2-2.9-3.8c-0.3-3-0.6-6.1-1-9.1
		c-0.3-2.4-0.6-4.7-1.9-6.8c-1.4-2.2-3.5-3.1-6-2.3c-1.1,0.4-2.3,1.1-3.1,1.9c-3.1,3-6.8,4.4-11.1,4.2c-2-0.1-4.1-0.3-6.1-0.2
		c-5.3,0.2-9.1,2.8-11.2,7.6c-1.3,2.8-1.3,5.9-1,8.9c0.1,0.8,0.2,1.6,0.3,2.6c-0.8-0.7-1.5-1.2-2.3-1.8c0.8,4.2,3.2,7.1,6.2,9.7
		c-0.7,0.1-1.1,0.2-1.6,0.2c0,0.1-0.1,0.2-0.1,0.3c1.8,1,3.5,2.1,5.3,3.1c-2.4,2.3-4.4,5.1-5.7,8.3c-1.2,2.9-1.7,8.2-1,10.1
		c0.4-0.5,0.7-1,1.3-1.7c-0.4,3.4-0.2,6.4,1,9.5c0.6-1.3,1.2-2.4,1.8-3.5c0.4,3.1,0.9,6.2,2.6,9.1c0.2-1.2,0.3-2.1,0.5-3.3
		c0.3,0.7,0.5,1.1,0.7,1.5c2.2,5.1,6,8.2,11.4,9.4c5.1,1.1,10.1,1,15.1-0.3c12-3.2,20.5-10.5,25-22.2c0.5-1.2,1-2.4,1.6-3.6
		c0.2-0.5,0.4-1,0.6-1.6c0.3-1.5-0.5-2.8-2-3c-0.9-0.1-1.8,0-2.7,0C114.6,82.6,114.2,80.1,112.8,77.7z M31.7,48.3
		c0.1-0.2,0.3-0.3,0.4-0.5c2.9-3.4,5.8-6.8,8.6-10.2c7.1-8.7,14.9-16.7,24.1-23.2c5.5-3.9,11-7.6,17.4-9.5c0,0,0-0.1,0.1-0.2
		c-5.7,1-10.7,3.5-15.6,6.3c-2.2-1.9-4.4-3.7-6.5-5.5c-0.3-0.2-0.8-0.4-1-0.3c-1.4,0.7-2.8,0.8-4.3,0.6c-0.7-0.1-1.4,0.1-2.1,0.2
		c-4.4,0.9-8.3,3-12,5.5C26.9,21.1,16.5,33.5,9.1,48.7C7,52.9,5.3,57.3,4.9,62.1c-0.2,2.4-0.2,4.9,1.4,6.8c1.5,1.7,3.4,3.1,5.2,4.6
		c1-1.1,1.8-2.2,2.8-3.1c1.1-1.1,2.7-2,3.5-3.3c0.9-1.4,1.2-3.1,1.7-4.7c0-0.1,0.1-0.3,0.1-0.4c7.2-17,18.4-30.7,33.6-41.2
		c0.1-0.1,0.2-0.1,0.5-0.2C45.1,29,37.4,37.8,31.7,48.3z M35,78.6c-0.6-1.8-1.2-3.6-1.9-5.3c-0.6-1.4-1.7-2.3-3.2-2.7
		c-2.4-0.7-4.8-0.8-7.3-0.1C15.1,72.5,11,81,13.8,88.6c2.2,6.2,8.2,9.8,14.6,8.7c5.2-0.9,9.7-5.6,10.5-11c0.3-1.5,0.3-3.1,0-4.9
		c-0.5,1-1,1.7-1.4,2.5c-0.1-2.9-0.4-5.6-1.4-8.4C35.7,76.6,35.3,77.7,35,78.6z M65.4,27.2c0,0.1,0.1,0.2,0.1,0.3
		c-3.1,0.8-6.2,1.6-9,3.8c1.2-0.1,2.2-0.1,3.2-0.2c-6.9,4.3-12.6,9.8-16.8,16.7c0.3-0.2,0.5-0.5,0.8-0.7
		c8.1-9.3,17.9-15.8,29.8-18.9c4.2-1.1,8.4-1.6,12.7-0.7c1.2,0.3,2.4,0.8,3.7,1.3c-1.4-2.7-3.6-4.1-6.6-5.2c0.4,0.6,0.7,1,0.9,1.3
		C82,23.9,80,23,77.9,22.2c0,0.1-0.1,0.2-0.1,0.3c0.4,0.6,0.9,1.1,1.4,1.8c-5.5-1.3-6.9-1.4-8.4-0.8c0.8,0.4,1.7,0.9,2.6,1.4
		c-4.1-0.2-8,0-11.9,1.8C63,26.9,64.2,27.1,65.4,27.2z"/>
	<path class="st0" d="M110,120.6c0.3-0.2,0.6-0.4,1.1-0.8c0,0.9,0,1.5,0,2.1c-0.1,0-0.1,0-0.2,0c-0.1-0.2-0.2-0.5-0.4-0.7
		c-0.2,0.3-0.3,0.5-0.5,0.8c-0.2-0.3-0.4-0.6-0.5-0.8c-0.1,0.2-0.2,0.5-0.3,0.7c-0.1,0-0.2,0-0.3,0c0-0.6-0.1-1.2-0.1-2.2
		C109.3,120.2,109.7,120.4,110,120.6z"/>
	<path class="st0" d="M107.7,122.3c-0.3-0.9-0.5-1.5-0.7-2.2c0.4,0,0.9,0,1.3,0C108.2,120.8,108,121.4,107.7,122.3z"/>
	<path class="st0" d="M65.3,64.6c0.2-1.8,3.6-3.9,6.4-4c3.3-0.1,6.6,1.7,7,3.7c-2.2-0.5-4.5-1.3-6.7-1.3
		C69.9,63.2,67.6,64.1,65.3,64.6z"/>
	<path class="st0" d="M94.8,59.3c-1.3-0.2-2.5-0.3-3.7-0.5c-0.2,0-0.4-0.2-0.5-0.4c-0.4-1.6-0.7-3.1-0.3-4.7
		c0.4-1.3,1.3-1.6,2.2-0.5C94.1,54.9,94.6,57.1,94.8,59.3z"/>
	<path class="st0" d="M70.4,68.6c0.6-1.9,2.1-2.4,3.7-2.8c1.7-0.4,3.7,0.3,4.4,1.7C75.6,67.1,73,67.6,70.4,68.6z"/>
	<path class="st0" d="M90.6,67.2c0,0.6-0.6,1-1.3,1c-0.9,0.1-2-0.6-2.4-1.4c-0.5-1-0.1-1.8,1-2C89.1,64.7,90.7,65.8,90.6,67.2z"/>
	<path class="st0" d="M93.3,64.6c0-1.1,0.7-2.1,1.6-2c0.7,0,1.2,0.7,1.3,1.6c0,1-0.7,2.1-1.5,2.1C93.9,66.3,93.3,65.6,93.3,64.6z"/>
	<path class="st0" d="M47.8,10.1c3.2,2.7,6.2,5.1,9.3,7.7c-0.7,0.6-1.3,1.1-2,1.7c-2.2-1.9-4.4-3.8-6.5-5.8c-0.3-0.3-0.4-1-0.5-1.5
		C48,11.6,47.9,11,47.8,10.1z"/>
	<path class="st0" d="M61.6,14.4c-0.8,0.6-1.4,1-2.1,1.5c-1.2-1-2.4-2-3.6-3c0-0.1,0.1-0.1,0.1-0.2C57.8,13.3,59.6,13.8,61.6,14.4z"
		/>
	<path class="st0" d="M58.4,10.9c-2.2-0.3-2.7-2.2-1.3-4.6C57.5,7.9,58,9.4,58.4,10.9z"/>
	<path class="st0" d="M61.9,10.2c0.8,0.7,1.7,1.4,2.6,2.2c-0.6,0.4-1.1,0.8-1.8,1.2c-0.3-1.1-0.6-2.2-1-3.2
		C61.8,10.3,61.8,10.3,61.9,10.2z"/>
	<path class="st0" d="M19.7,83.9c0.2,1,0.5,2,0.7,3c0.1,0.3,0,0.6,0,0.9c-0.3-0.1-0.7-0.1-0.9-0.2c-1.3-1-1.7-2.5-1.9-4
		c-0.6-4.3,2.1-8.1,6.3-9.1c3-0.7,6.3,0.4,7.8,2.7c0.6,0.9,0.9,2,0.6,3.1c-0.1,0.3-0.4,0.4-0.7,0.6c-0.1-0.2-0.3-0.3-0.4-0.5
		c-1-2.7-3.4-3.9-6.1-3.4C21.7,77.8,19.9,80.2,19.7,83.9z"/>
	<path class="st0" d="M30,79.6c-0.2,0.2-0.3,0.3-0.4,0.4c-0.9,0.7-0.9,1.5,0.1,2.1c0.5,0.4,1.1,0.6,1.7,1c2,1.2,2.7,2.9,2.2,5.2
		c-0.5,2.1-2.2,3.7-4.3,3.8c-1.2,0.1-2.4-0.5-2.9-1.5c0.6,0,1.2,0,1.9,0c1.5,0,2.8-1,3.2-2.4c0.5-1.6,0-2.6-1.5-3.6
		c-0.6-0.4-1.2-0.8-1.7-1.3c-0.7-0.7-0.9-1.6-0.7-2.5C27.7,79.6,28.7,79.1,30,79.6z"/>
</g>
</svg>
