<?xml version="1.0" encoding="utf-8"?>
<!-- Generator: Adobe Illustrator 21.0.0, SVG Export Plug-In . SVG Version: 6.00 Build 0)  -->
<svg version="1.1" id="Laag_1" xmlns="http://www.w3.org/2000/svg" xmlns:xlink="http://www.w3.org/1999/xlink" x="0px" y="0px"
	 viewBox="0 0 595.28 841.89" enable-background="new 0 0 595.28 841.89" xml:space="preserve">
<g>
	<path fill-rule="evenodd" clip-rule="evenodd" fill="#FFFFFF" d="M328.22,421.315c1.151,1.829,2.263,3.596,3.378,5.361
		c0.087,0.138,0.174,0.288,0.295,0.388c3.05,2.521,4.108,5.998,4.587,9.715c0.397,3.089,0.688,6.193,0.99,9.295
		c0.092,0.942,0.385,1.54,1.363,1.974c3.395,1.503,6.68,3.22,9.407,5.825c0.224,0.212,0.551,0.344,0.853,0.445
		c5.061,1.689,6.47,7.304,3.172,10.778c-0.21,0.221-0.247,0.762-0.148,1.088c0.389,1.282,0.83,2.552,1.332,3.794
		c0.143,0.356,0.501,0.749,0.852,0.879c3.477,1.297,5.333,4.172,4.167,7.702c-4.303,13.028-10.301,24.996-22.098,33.048
		c-6.715,4.581-14.149,7.153-22.237,7.643c-22.516,1.362-39.061-8.76-51.334-26.946c-0.46-0.681-0.881-0.938-1.702-0.952
		c-8.6-0.135-15.937-6.698-17.169-15.282c-0.412-2.868-0.309-5.695,0.6-8.46c0.175-0.532,0.061-0.814-0.378-1.137
		c-1.43-1.046-2.804-2.169-4.238-3.207c-3.259-2.359-4.531-5.684-4.624-9.544c-0.12-4.958,1.32-9.59,3.217-14.086
		c3.953-9.37,9.633-17.657,16.2-25.357c5.818-6.821,12.23-13.006,19.8-17.892c3.712-2.396,7.613-4.394,12.007-5.233
		c4.081-0.781,7.825-0.165,11.044,2.675c1.032,0.911,2.185,1.687,3.2,2.616c0.61,0.559,1.047,0.487,1.705,0.099
		c4.543-2.687,9.332-4.784,14.545-5.789c3.255-0.628,6.518-0.781,9.745,0.18c4.71,1.404,7.678,5.266,7.976,10.24
		c0.303,5.07-1.146,9.73-3.31,14.208C330.405,417.471,329.218,419.473,328.22,421.315z M347.795,467.416
		c-0.171,0.101-0.262,0.138-0.328,0.2c-7.834,7.228-17.222,10.964-27.678,12.247c-2.145,0.265-4.318,0.295-6.479,0.422
		c-2.119,0.125-3.303,1.375-3.19,3.472c2.882,0.818,5.846,1.072,8.826,0.689c2.986-0.384,5.978-0.821,8.914-1.476
		c2.862-0.638,5.657-1.58,8.482-2.388c0.018,0.083,0.036,0.167,0.055,0.25c-8.097,4.621-16.828,6.126-26.161,5.087
		c0.302,1.127,0.881,2.042,1.83,2.61c0.832,0.499,1.744,0.936,2.679,1.177c3.9,1.006,7.823,0.667,11.713-0.076
		c7.486-1.432,14.122-4.775,20.237-9.225c1.474-1.074,2.87-2.253,4.301-3.383c0.075,0.056,0.149,0.114,0.225,0.171
		c-0.91,1.124-1.702,2.375-2.748,3.352c-8.446,7.878-18.376,12.215-30.019,12.272c-2.344,0.013-4.633-0.447-6.754-1.529
		c-2.035-1.04-3.395-2.64-4.029-4.845c-1.402-4.868,1.364-8.637,6.399-8.714c0.427-0.008,0.853-0.004,1.279-0.022
		c7.571-0.345,14.793-2.012,21.499-5.651c4.669-2.532,8.711-5.836,12.15-9.878c1.101-1.293,0.82-2.698-0.711-3.465
		c-0.402-0.203-0.872-0.268-1.304-0.413c-0.271-0.092-0.604-0.147-0.783-0.34c-2.784-2.972-6.323-4.772-9.988-6.322
		c-1.798-0.758-2.674-1.986-2.865-3.848c-0.312-3.034-0.633-6.068-0.972-9.099c-0.263-2.355-0.633-4.69-1.908-6.757
		c-1.369-2.217-3.528-3.132-5.994-2.294c-1.137,0.387-2.276,1.07-3.142,1.902c-3.119,2.997-6.777,4.38-11.078,4.179
		c-2.032-0.098-4.071-0.255-6.099-0.178c-5.283,0.201-9.06,2.77-11.221,7.594c-1.271,2.836-1.297,5.862-1.049,8.896
		c0.064,0.782,0.198,1.558,0.328,2.561c-0.831-0.661-1.467-1.166-2.26-1.795c0.842,4.151,3.227,7.068,6.239,9.72
		c-0.661,0.09-1.13,0.154-1.6,0.218c-0.034,0.087-0.068,0.172-0.103,0.26c1.762,1.03,3.524,2.06,5.315,3.107
		c-2.414,2.324-4.389,5.073-5.685,8.283c-1.193,2.949-1.72,8.195-1.002,10.097c0.368-0.507,0.722-0.997,1.255-1.732
		c-0.378,3.374-0.184,6.383,1,9.45c0.646-1.272,1.202-2.366,1.758-3.459c0.363,3.142,0.85,6.153,2.562,9.14
		c0.173-1.204,0.305-2.107,0.477-3.292c0.31,0.696,0.495,1.11,0.677,1.523c2.225,5.065,5.972,8.239,11.43,9.432
		c5.074,1.109,10.124,1.042,15.106-0.283c12.027-3.198,20.481-10.497,25.026-22.179c0.47-1.209,1.044-2.377,1.553-3.572
		c0.216-0.51,0.445-1.027,0.563-1.565c0.338-1.539-0.467-2.784-2.028-3.012c-0.858-0.126-1.75-0.023-2.697-0.023
		C349.596,472.325,349.161,469.788,347.795,467.416z M266.717,438.01c0.144-0.151,0.296-0.296,0.43-0.455
		c2.881-3.408,5.812-6.777,8.63-10.236c7.098-8.713,14.887-16.678,24.098-23.219c5.452-3.872,10.952-7.568,17.424-9.538
		c0.023-0.007,0.023-0.086,0.056-0.22c-5.687,0.987-10.708,3.491-15.59,6.324c-2.213-1.867-4.361-3.697-6.538-5.491
		c-0.259-0.215-0.769-0.427-1.006-0.313c-1.383,0.661-2.794,0.783-4.297,0.613c-0.699-0.079-1.44,0.082-2.145,0.218
		c-4.435,0.865-8.335,2.965-11.988,5.491c-13.85,9.578-24.341,22.052-31.712,37.162c-2.077,4.258-3.762,8.664-4.195,13.443
		c-0.216,2.394-0.197,4.882,1.416,6.758c1.494,1.737,3.45,3.077,5.213,4.601c1.021-1.135,1.846-2.154,2.78-3.062
		c1.15-1.116,2.67-1.957,3.518-3.254c0.886-1.354,1.164-3.106,1.707-4.686c0.043-0.125,0.082-0.25,0.134-0.37
		c7.235-16.972,18.406-30.74,33.582-41.246c0.087-0.06,0.199-0.082,0.473-0.191C280.097,418.713,272.364,427.526,266.717,438.01z
		 M270.021,468.253c-0.63-1.785-1.175-3.599-1.911-5.334c-0.586-1.383-1.715-2.251-3.203-2.691c-2.421-0.714-4.832-0.83-7.268-0.14
		c-7.528,2.127-11.645,10.57-8.884,18.217c2.247,6.222,8.21,9.765,14.591,8.671c5.205-0.894,9.655-5.556,10.537-11.032
		c0.25-1.55,0.315-3.094,0-4.869c-0.541,0.97-0.965,1.729-1.39,2.492c-0.095-2.892-0.448-5.621-1.44-8.423
		C270.656,466.339,270.32,467.352,270.021,468.253z M300.442,416.939c0.026,0.086,0.051,0.171,0.077,0.256
		c-3.094,0.802-6.183,1.616-9.015,3.762c1.249-0.066,2.21-0.119,3.17-0.168c-6.903,4.346-12.568,9.78-16.808,16.653
		c0.311-0.195,0.537-0.475,0.772-0.745c8.068-9.275,17.908-15.773,29.846-18.923c4.152-1.095,8.384-1.614,12.651-0.696
		c1.231,0.265,2.401,0.814,3.678,1.26c-1.405-2.672-3.643-4.15-6.585-5.181c0.403,0.613,0.652,0.993,0.857,1.306
		c-2.069-0.863-4.131-1.722-6.193-2.583c-0.05,0.099-0.099,0.196-0.148,0.293c0.44,0.565,0.88,1.128,1.424,1.826
		c-5.528-1.256-6.85-1.374-8.35-0.794c0.838,0.448,1.714,0.913,2.589,1.38c-4.103-0.245-7.997-0.02-11.925,1.789
		C297.962,416.585,299.202,416.763,300.442,416.939z"/>
	<path fill-rule="evenodd" clip-rule="evenodd" fill="#FFFFFF" d="M345.002,510.321c0.271-0.199,0.599-0.44,1.055-0.773
		c0,0.902,0,1.522,0,2.145c-0.067,0.015-0.133,0.032-0.201,0.047c-0.109-0.232-0.219-0.465-0.352-0.747
		c-0.156,0.252-0.308,0.496-0.524,0.845c-0.219-0.343-0.38-0.595-0.542-0.846c-0.108,0.246-0.215,0.49-0.323,0.735
		c-0.084-0.006-0.168-0.014-0.251-0.019c-0.033-0.601-0.065-1.202-0.119-2.167C344.322,509.898,344.676,510.118,345.002,510.321z"/>
	<path fill-rule="evenodd" clip-rule="evenodd" fill="#FFFFFF" d="M342.697,512.006c-0.276-0.896-0.459-1.486-0.667-2.158
		c0.392,0,0.945,0,1.343,0C343.172,510.488,342.976,511.117,342.697,512.006z"/>
	<path fill-rule="evenodd" clip-rule="evenodd" fill="#FFFFFF" d="M300.325,454.335c0.214-1.842,3.585-3.897,6.441-3.987
		c3.309-0.103,6.627,1.66,7.005,3.734c-2.23-0.46-4.462-1.31-6.678-1.268C304.853,452.856,302.63,453.779,300.325,454.335z"/>
	<path fill-rule="evenodd" clip-rule="evenodd" fill="#FFFFFF" d="M329.809,448.973c-1.298-0.163-2.522-0.305-3.741-0.482
		c-0.18-0.025-0.44-0.197-0.484-0.352c-0.44-1.556-0.745-3.135-0.297-4.744c0.366-1.31,1.332-1.563,2.243-0.537
		C329.097,444.624,329.627,446.791,329.809,448.973z"/>
	<path fill-rule="evenodd" clip-rule="evenodd" fill="#FFFFFF" d="M305.407,458.312c0.576-1.888,2.089-2.426,3.691-2.779
		c1.731-0.381,3.657,0.306,4.388,1.701C310.617,456.842,307.977,457.261,305.407,458.312z"/>
	<path fill-rule="evenodd" clip-rule="evenodd" fill="#FFFFFF" d="M325.646,456.939c-0.05,0.618-0.593,0.958-1.344,1.038
		c-0.892,0.094-2.018-0.555-2.438-1.362c-0.51-0.977-0.083-1.848,1.001-2.04C324.14,454.352,325.673,455.528,325.646,456.939z"/>
	<path fill-rule="evenodd" clip-rule="evenodd" fill="#FFFFFF" d="M328.27,454.326c-0.019-1.08,0.728-2.056,1.566-2.044
		c0.701,0.013,1.229,0.68,1.263,1.6c0.04,1.04-0.717,2.102-1.514,2.124C328.894,456.026,328.286,455.249,328.27,454.326z"/>
	<path fill-rule="evenodd" clip-rule="evenodd" fill="#FFFFFF" d="M282.811,399.806c3.214,2.654,6.193,5.114,9.279,7.661
		c-0.689,0.593-1.32,1.137-1.999,1.719c-2.187-1.927-4.376-3.805-6.488-5.767c-0.343-0.319-0.381-0.999-0.492-1.526
		C282.984,401.292,282.932,400.674,282.811,399.806z"/>
	<path fill-rule="evenodd" clip-rule="evenodd" fill="#FFFFFF" d="M296.565,404.135c-0.792,0.577-1.394,1.017-2.056,1.502
		c-1.21-1.01-2.408-2.007-3.603-3.007c0.026-0.062,0.052-0.125,0.079-0.188C292.784,402.989,294.583,403.535,296.565,404.135z"/>
	<path fill-rule="evenodd" clip-rule="evenodd" fill="#FFFFFF" d="M293.395,400.643c-2.201-0.343-2.698-2.221-1.285-4.634
		C292.54,397.564,292.953,399.048,293.395,400.643z"/>
	<path fill-rule="evenodd" clip-rule="evenodd" fill="#FFFFFF" d="M296.868,399.937c0.846,0.708,1.691,1.418,2.609,2.186
		c-0.62,0.413-1.15,0.767-1.787,1.19c-0.336-1.143-0.645-2.195-0.955-3.248C296.78,400.023,296.824,399.98,296.868,399.937z"/>
	<path fill-rule="evenodd" clip-rule="evenodd" fill="#FFFFFF" d="M254.747,473.645c0.24,1.007,0.497,2.012,0.708,3.024
		c0.06,0.285-0.016,0.6-0.028,0.9c-0.3-0.07-0.667-0.052-0.889-0.222c-1.291-0.995-1.686-2.463-1.893-3.967
		c-0.593-4.296,2.061-8.143,6.252-9.149c3.038-0.729,6.267,0.374,7.785,2.665c0.621,0.94,0.949,1.957,0.607,3.069
		c-0.077,0.253-0.427,0.422-0.651,0.63c-0.143-0.155-0.348-0.288-0.418-0.47c-1.017-2.663-3.359-3.949-6.147-3.355
		C256.698,467.488,254.894,469.873,254.747,473.645z"/>
	<path fill-rule="evenodd" clip-rule="evenodd" fill="#FFFFFF" d="M264.958,469.323c-0.201,0.184-0.309,0.296-0.431,0.39
		c-0.923,0.715-0.915,1.455,0.063,2.095c0.546,0.356,1.146,0.629,1.707,0.966c2.009,1.204,2.723,2.873,2.223,5.157
		c-0.452,2.064-2.245,3.662-4.32,3.847c-1.219,0.11-2.387-0.454-2.91-1.467c0.645,0,1.249,0.015,1.852-0.003
		c1.517-0.049,2.793-1.027,3.21-2.447c0.456-1.552,0.032-2.562-1.459-3.569c-0.594-0.403-1.192-0.815-1.717-1.297
		c-0.733-0.677-0.924-1.564-0.714-2.524C262.715,469.318,263.707,468.823,264.958,469.323z"/>
</g>
</svg>
