<?xml version="1.0" encoding="utf-8"?>
<!-- Generator: Adobe Illustrator 21.0.2, SVG Export Plug-In . SVG Version: 6.00 Build 0)  -->
<svg version="1.1" id="Laag_1" xmlns="http://www.w3.org/2000/svg" xmlns:xlink="http://www.w3.org/1999/xlink" x="0px" y="0px"
	 viewBox="0 0 256 256" style="enable-background:new 0 0 256 256;" xml:space="preserve">
<style type="text/css">
	.st0{fill:#FFFFFF;}
</style>
<g id="logo">
	<path class="st0" d="M28.3,105.7c-5-0.7-9.7,0.1-13.9,2.5c-7.6,4.5-11.9,11.1-11.9,20.2c0,10.5,0,21,0,31.4c0,0.6,0,1.2,0,1.9
		c2.3,0.1,4.1-0.8,5.8-2.1c2.8-2.3,3.8-5.3,3.4-9.1c0.8,0,1.4,0,2,0c4.8-0.1,9.7-0.2,14.5-0.3c3.7-0.1,7.1-1.5,9.9-3.6
		c5.2-3.8,9-8.7,9.8-15.5c0.5-3.9,0.3-7.8-1.3-11.3C43.1,111.9,37.1,107,28.3,105.7z M27.7,141.6c0,0-0.1,0-0.1,0
		c-5.2,0-10.4,0-15.5,0c0-5.6-0.4-11,0.1-16.3c0.5-5.6,6.6-11.1,12.4-11c6.9,0.2,11.8,3.3,13.6,9.4C40.5,132.1,36,139.8,27.7,141.6z
		"/>
	<path class="st0" d="M97.3,122.8c-1.5-5.9-5-10.4-10-13.7c-5.2-3.4-11-4.4-17.2-3.1c-6.4,1.4-11.3,5-14.8,10.5
		c-1.8,2.9-2.7,6.1-3.1,9.6c-0.5,4.6,0.4,8.9,2.7,12.8c4.2,7.1,10.6,11.3,18.9,11.6c4.8,0.2,9.6,0.2,14.5,0.1c3.1,0,6.2-0.1,9.3-0.1
		c0-0.4,0.1-0.7,0.1-0.9c0-1.4,0-2.9,0-4.3c0-6.6,0-13.1,0-19.7C97.7,124.7,97.5,123.7,97.3,122.8z M78.6,141.6c-3,0-6,0.3-8.9-0.9
		c-4.1-1.6-8-7-8.2-11.4c-0.1-3.4,0.3-6.6,2.5-9.4c2.6-3.4,5.9-5.5,10.4-5.6c3.8-0.1,7,1,9.7,3.5c2.6,2.5,4.2,5.6,4.4,9.2
		c0.2,4.4,0,8.8,0,13.2c0,0.4,0,0.7-0.1,1.3C85.1,141.6,81.8,141.7,78.6,141.6z"/>
	<path class="st0" d="M138.9,114.1c0,2.7,0,5.4,0,8.1c0,23.2,0,11.7,0,17.6c0,0.6,0,1.2,0,1.9c-0.7,0-1.2,0-1.7,0c-4.7,0-9.3,0-14,0
		c-0.1,0-0.2,0-0.3,0c-3.7-0.7-6.7-2.8-8.7-5.6c-1.7-2.4-2.6-5.3-2.6-8.3c0.1-4.2,0-8.4,0-12.6c0.1-3-1.2-5.4-3.4-7.4
		c-1.6-1.4-3.5-2.3-5.9-2.1c0,7.9,0,15.7,0,23.5c0,1.2,0.2,2.4,0.5,3.6c0.6,2.9,1.7,5.5,3.4,7.8c1.2,1.7,2.7,3.3,4.4,4.8
		c2.8,2.4,6,4.2,9.7,4.7c4,0.4,8,0.5,12,0.6c2.1,0.1,4.2,0,6.6,0c-0.3,3,0.2,5.5,2,7.8c1.8,2.2,4.1,3.3,7.1,3.5c0-15,0-29.9,0-44.8
		c0-3.8,0-7.6,0-11.4C143.4,105.3,139,109.8,138.9,114.1z"/>
	<path class="st0" d="M211.1,119.5c-2.2-5.3-6-9.1-11-11.8c-4.4-2.3-9.2-2.8-14.2-2c-6.1,0.9-10.7,4.1-14.4,8.8
		c-3.4,4.3-4.7,9.3-4.6,14.7c0.1,6.5,0,13.1,0,19.6c0,0.5,0,1.1,0,1.6c0.4,0,0.6,0.1,0.8,0.1c5-0.5,8.6-4.4,8.7-9.1
		c0.1-4.1,0.1-8.2,0-12.3c-0.2-5,1.6-9,5.6-12.2c3.2-2.6,9.2-3.3,12.8-1.7c5.9,2.7,8.6,7.4,8.6,13.7c0,4,0,8,0,12
		c0,1.2,0.2,2.5,0.6,3.7c1,3,5,6.1,8.6,5.8c0-0.6,0-1.2,0-1.7c0-6.8,0-13.7,0-20.5C212.6,125.2,212.2,122.3,211.1,119.5z"/>
	<path class="st0" d="M252.1,146.1c-1.8-3-4.5-4.5-8.1-4.5c-2.5,0-5.2,0.1-7.6-0.5c-5.9-1.5-9.7-7-9.7-13c0-8,0-16,0-24
		c0-2-0.4-3.9-1.5-5.6c-1.9-2.7-4.4-4.3-7.9-4.3c0,0.5-0.1,0.7-0.1,1c0,11.2-0.1,22.4,0.1,33.5c0,2.3,0.4,4.6,1.3,6.7
		c3.5,8.7,10,13.9,19.3,15c5,0.6,10.2,0.1,15.3,0.1c0.1,0,0.1-0.1,0.5-0.5C253.1,148.8,252.8,147.3,252.1,146.1z"/>
	<path class="st0" d="M153,138.1c-0.7,7.1,3.9,13.3,9,12.2C162.8,143,158.8,137.5,153,138.1z"/>
</g>
</svg>
