<?xml version="1.0" encoding="utf-8"?>
<!-- Generator: Adobe Illustrator 21.0.0, SVG Export Plug-In . SVG Version: 6.00 Build 0)  -->
<svg version="1.1" id="Laag_1" xmlns="http://www.w3.org/2000/svg" xmlns:xlink="http://www.w3.org/1999/xlink" x="0px" y="0px"
	 viewBox="0 0 595.28 841.89" enable-background="new 0 0 595.28 841.89" xml:space="preserve">
<g>
	<path fill="#FFFFFF" d="M197.623,432.441c-4.964-0.711-9.676,0.059-13.892,2.531c-7.62,4.468-11.898,11.121-11.89,20.195
		c0.009,10.476,0.002,20.952,0.002,31.428c0,0.595,0,1.191,0,1.855c2.32,0.08,4.138-0.789,5.759-2.077
		c2.841-2.258,3.772-5.327,3.422-9.099c0.836,0,1.431,0.01,2.026-0.002c4.841-0.098,9.683-0.156,14.521-0.316
		c3.658-0.121,7.053-1.477,9.893-3.552c5.23-3.822,9.026-8.711,9.846-15.519c0.474-3.937,0.281-7.768-1.311-11.325
		C212.443,438.615,206.45,433.705,197.623,432.441z M197.018,468.317c-0.049,0.01-0.1,0.019-0.15,0.019
		c-5.201,0.001-10.402,0.001-15.487,0.001c0-5.595-0.395-10.975,0.108-16.27c0.536-5.647,6.568-11.139,12.424-10.996
		c6.888,0.168,11.753,3.287,13.55,9.429C209.899,458.828,205.368,466.542,197.018,468.317z"/>
	<path fill="#FFFFFF" d="M266.637,449.559c-1.485-5.891-4.954-10.434-9.95-13.708c-5.241-3.434-11.02-4.446-17.219-3.092
		c-6.437,1.406-11.275,5.006-14.763,10.473c-1.847,2.895-2.702,6.107-3.106,9.569c-0.542,4.642,0.398,8.945,2.664,12.786
		c4.185,7.095,10.579,11.257,18.875,11.612c4.813,0.206,9.637,0.187,14.498,0.141c3.098-0.029,6.211-0.069,9.347-0.069
		c0.04-0.419,0.084-0.662,0.084-0.905c0.001-1.444,0.001-2.888,0.002-4.332c0.005-6.555,0.01-13.111-0.016-19.666
		C267.048,451.43,266.868,450.474,266.637,449.559z M247.975,468.343c-2.993-0.04-5.987,0.266-8.927-0.86
		c-4.123-1.58-8.004-6.979-8.179-11.365c-0.138-3.443,0.316-6.648,2.459-9.433c2.621-3.406,5.859-5.531,10.396-5.635
		c3.794-0.087,7.019,1.008,9.719,3.532c2.643,2.471,4.204,5.631,4.357,9.245c0.185,4.395,0.046,8.803,0.043,13.206
		c0,0.351-0.035,0.702-0.067,1.319C254.426,468.352,251.2,468.386,247.975,468.343z"/>
	<path fill="#FFFFFF" d="M308.305,440.793c-0.014,2.686-0.019,5.371-0.021,8.057c0,23.184,0.008,11.743,0.008,17.614
		c0,0.586,0,1.172,0,1.888c-0.72,0-1.216,0-1.713,0c-4.658-0.003-9.316-0.006-13.975-0.01c-0.1,0-0.201-0.017-0.3-0.036
		c-3.702-0.712-6.714-2.79-8.689-5.58c-1.688-2.384-2.621-5.288-2.577-8.309c0.062-4.202-0.042-8.406,0.029-12.607
		c0.051-3.038-1.159-5.447-3.384-7.379c-1.637-1.422-3.513-2.311-5.859-2.126c0,7.932-0.02,15.725,0.021,23.518
		c0.006,1.188,0.22,2.388,0.455,3.559c0.588,2.926,1.746,5.515,3.356,7.821c1.215,1.74,2.687,3.318,4.371,4.755
		c2.809,2.398,6.021,4.246,9.726,4.659c3.987,0.445,8.021,0.491,12.037,0.643c2.108,0.08,4.221,0.014,6.564,0.014
		c-0.34,2.96,0.167,5.539,2.011,7.755c1.826,2.194,4.129,3.324,7.059,3.482c0-15.042,0-29.938,0-44.803c0-3.805,0-7.608,0-11.411
		C312.76,432.075,308.327,436.573,308.305,440.793z"/>
	<path fill="#FFFFFF" d="M380.431,446.25c-2.201-5.286-5.978-9.147-10.955-11.75c-4.427-2.316-9.222-2.778-14.178-2.033
		c-6.062,0.912-10.72,4.13-14.439,8.754c-3.425,4.258-4.673,9.3-4.623,14.729c0.06,6.533,0.014,13.067,0.014,19.601
		c0,0.541,0,1.082,0,1.629c0.388,0.044,0.59,0.104,0.785,0.084c4.988-0.506,8.568-4.382,8.717-9.136
		c0.128-4.098,0.136-8.208-0.001-12.306c-0.169-5.027,1.644-9.012,5.551-12.175c3.169-2.566,9.161-3.336,12.783-1.661
		c5.881,2.721,8.567,7.404,8.626,13.739c0.037,4.001-0.04,8.003,0.035,12.003c0.023,1.229,0.217,2.507,0.615,3.666
		c1.031,3.003,5.046,6.119,8.582,5.769c0-0.645,0-1.195,0-1.746c0-6.837-0.037-13.675,0.017-20.512
		C381.983,451.91,381.59,449.035,380.431,446.25z"/>
	<path fill="#FFFFFF" d="M421.439,472.785c-1.813-3.012-4.549-4.479-8.149-4.466c-2.547,0.009-5.197,0.099-7.621-0.533
		c-5.863-1.53-9.747-6.973-9.748-13.011c-0.001-7.995-0.038-15.991,0.026-23.986c0.016-2.043-0.425-3.915-1.55-5.552
		c-1.86-2.706-4.414-4.274-7.942-4.292c-0.03,0.476-0.06,0.724-0.06,0.972c-0.003,11.183-0.071,22.368,0.054,33.55
		c0.025,2.254,0.434,4.639,1.266,6.724c3.481,8.726,10.024,13.933,19.333,14.973c5.045,0.564,10.208,0.075,15.318,0.051
		c0.074,0,0.147-0.123,0.52-0.454C422.452,475.523,422.179,474.014,421.439,472.785z"/>
	<path fill="#FFFFFF" d="M322.385,464.821c-0.74,7.116,3.882,13.342,8.998,12.242C332.198,469.773,328.138,464.192,322.385,464.821z
		"/>
</g>
<g>
	<g>
		<path fill="#FFFFFF" d="M311.653,439.776c-1.097-2.136-3.53-0.733-5.342-1.069c-5.407-1.003-8.914,1.098-11.6,5.976
			c-2.821,5.123-6.512,9.766-10.066,14.975c-1.847-6.115-3.665-11.709-5.195-17.38c-0.738-2.735-2.185-3.809-4.944-3.607
			c-2.115,0.155-4.25,0.017-6.376,0.034c-3.323,0.026-3.799,0.653-2.733,3.811c3.126,9.258,6.228,18.524,9.489,27.734
			c0.64,1.808,0.392,3.057-0.704,4.525c-2.706,3.625-5.219,7.393-7.903,11.035c-0.995,1.349-1.367,2.56-0.22,3.945
			c4.069,0,8.139,0,12.208,0c0.618-0.883,1.239-1.764,1.853-2.65c9.781-14.117,19.588-28.215,29.299-42.38
			C310.438,443.238,312.735,441.882,311.653,439.776z"/>
		<path fill="#FFFFFF" d="M215.258,437.217c1.412-9.244-3.243-15.48-12.434-16.874c-4.699-0.713-9.411-0.231-13.37-0.417
			c-4.162,0-7.583,0.06-11.001-0.02c-2.412-0.056-3.738,0.807-4.136,3.362c-2.623,16.867-5.333,33.721-8.033,50.577
			c-0.315,1.966,0.53,2.723,2.427,2.693c2.772-0.044,5.546-0.057,8.318,0.003c2.261,0.049,3.344-0.975,3.648-3.219
			c0.544-4.023,1.358-8.01,1.871-12.035c0.356-2.791,1.828-3.751,4.493-3.655c2.767,0.099,5.549,0.082,8.312-0.089
			c9.584-0.594,16.301-5.995,18.899-15.167C214.727,440.695,214.993,438.948,215.258,437.217z M194.008,445.821
			c-2.436,0.528-4.936,0.582-7.435,0.582c-1.214,0-1.667-0.365-1.459-1.604c0.627-3.727,1.214-7.461,1.793-11.196
			c0.529-3.411,3.232-1.788,4.909-2.232c0.513,0.035,0.881,0.066,1.249,0.084c4.549,0.233,6.652,1.681,6.949,4.788
			C200.479,441.114,198.15,444.923,194.008,445.821z"/>
		<path fill="#FFFFFF" d="M347.382,420.352c-8.269-1.035-16.603-0.271-24.907-0.394c-2.112-0.031-2.916,1.385-3.23,3.407
			c-2.493,16.038-5.081,32.061-7.606,48.094c-0.796,5.055-0.75,5.063,4.352,5.063c0.739,0,1.478,0,2.217,0
			c1.201,0,2.41-0.093,3.6,0.02c2.342,0.221,3.543-0.535,3.827-3.102c0.464-4.21,1.368-8.369,1.958-12.567
			c0.318-2.262,1.537-3.221,3.71-3.217c2.032,0.004,4.064,0.007,6.096-0.001c13.578-0.054,21.778-7.597,22.94-21.101
			C361.148,427.141,356.794,421.53,347.382,420.352z M337.078,446.117c-1.187,0.154-2.386,0.214-2.876,0.257
			c-4.246,0.068-4.281,0.063-3.766-3.428c0.47-3.189,1.072-6.359,1.526-9.551c0.213-1.496,0.99-2.053,2.423-1.999
			c2.388,0.091,4.805-0.198,7.134,0.594c2.156,0.733,3.291,2.209,3.427,4.509C345.287,442.234,342.74,445.385,337.078,446.117z"/>
		<path fill="#FFFFFF" d="M256.619,438.703c-1.849-0.008-3.708,0.119-5.544-0.03c-2.63-0.213-4.584,0.29-4.532,3.951
			c-2.31-3.111-5.213-4.132-8.407-4.523c-13.811-1.69-25.051,7.799-25.839,21.803c-0.608,10.803,6.166,17.822,16.957,17.545
			c4.573-0.117,8.547-1.894,12.179-4.778c0.253,3.854,0.253,3.854,4.087,3.856c2.034,0.001,4.068-0.019,6.101,0.003
			c2.011,0.022,3.048-0.981,3.334-2.937c0.428-2.922,0.915-5.836,1.378-8.754c1.188-7.475,2.408-14.946,3.553-22.428
			C260.386,439.154,259.944,438.718,256.619,438.703z M233.851,467.002c-4.944-0.01-8.277-3.152-8.206-7.736
			c0.094-6.093,5.241-11.166,11.192-11.033c4.824,0.108,8.091,3.354,8.043,7.991C244.818,462.211,239.903,467.014,233.851,467.002z"
			/>
		<path fill="#FFFFFF" d="M402.624,438.702c-2.216,0.003-4.441,0.121-6.646-0.032c-2.539-0.176-4.484,0.214-4.43,4.159
			c-1.991-2.942-4.341-3.965-6.918-4.488c-15.265-3.097-27.549,8.182-27.377,23.302c0.119,10.467,7.496,16.66,17.851,15.789
			c4.196-0.353,7.888-2.077,11.616-4.961c-0.874,3.622,0.743,4.27,3.374,4.08c2.021-0.146,4.063-0.08,6.092-0.016
			c2.198,0.07,3.392-0.779,3.744-3.086c1.625-10.661,3.34-21.308,5.055-31.955C405.295,439.563,404.518,438.7,402.624,438.702z
			 M378.981,467.001c-5.004,0.048-8.276-2.914-8.361-7.569c-0.108-5.961,5.068-11.232,11.005-11.207
			c4.827,0.02,8.152,3.201,8.18,7.823C389.842,462.087,385.043,466.943,378.981,467.001z"/>
		<path fill="#FFFFFF" d="M424.514,419.893c-2.024,0.131-4.083,0.205-6.091-0.017c-2.781-0.307-3.686,0.989-4.07,3.521
			c-2.38,15.684-4.847,31.356-7.334,47.024c-1.078,6.789-1.04,6.093,5.387,6.1c0.462,0,0.924,0,1.386,0
			c5.264,0,5.233-0.005,6.041-5.259c0.967-6.291,1.994-12.572,2.995-18.857c1.551-9.747,3.084-19.496,4.666-29.238
			C427.891,420.726,426.99,419.733,424.514,419.893z"/>
	</g>
</g>
</svg>
