<?xml version="1.0" encoding="utf-8"?>
<!-- Generator: Adobe Illustrator 21.0.2, SVG Export Plug-In . SVG Version: 6.00 Build 0)  -->
<svg version="1.1" id="Laag_1" xmlns="http://www.w3.org/2000/svg" xmlns:xlink="http://www.w3.org/1999/xlink" x="0px" y="0px"
	 viewBox="0 0 265 265" style="enable-background:new 0 0 265 265;" xml:space="preserve">
<style type="text/css">
	.st0{fill:#FFFFFF;}
</style>
<g id="logo">
	<g>
		<path class="st0" d="M147.3,117.5c-1.1-2.1-3.5-0.7-5.3-1.1c-5.4-1-8.9,1.1-11.6,6c-2.8,5.1-6.5,9.8-10.1,15
			c-1.8-6.1-3.7-11.7-5.2-17.4c-0.7-2.7-2.2-3.8-4.9-3.6c-2.1,0.2-4.3,0-6.4,0c-3.3,0-3.8,0.7-2.7,3.8c3.1,9.3,6.2,18.5,9.5,27.7
			c0.6,1.8,0.4,3.1-0.7,4.5c-2.7,3.6-5.2,7.4-7.9,11c-1,1.3-1.4,2.6-0.2,3.9c4.1,0,8.1,0,12.2,0c0.6-0.9,1.2-1.8,1.9-2.6
			c9.8-14.1,19.6-28.2,29.3-42.4C146,121,148.3,119.6,147.3,117.5z"/>
		<path class="st0" d="M50.9,114.9c1.4-9.2-3.2-15.5-12.4-16.9c-4.7-0.7-9.4-0.2-13.4-0.4c-4.2,0-7.6,0.1-11,0
			c-2.4-0.1-3.7,0.8-4.1,3.4c-2.6,16.9-5.3,33.7-8,50.6c-0.3,2,0.5,2.7,2.4,2.7c2.8,0,5.5-0.1,8.3,0c2.3,0,3.3-1,3.6-3.2
			c0.5-4,1.4-8,1.9-12c0.4-2.8,1.8-3.8,4.5-3.7c2.8,0.1,5.5,0.1,8.3-0.1c9.6-0.6,16.3-6,18.9-15.2C50.3,118.4,50.6,116.7,50.9,114.9
			z M29.6,123.5c-2.4,0.5-4.9,0.6-7.4,0.6c-1.2,0-1.7-0.4-1.5-1.6c0.6-3.7,1.2-7.5,1.8-11.2c0.5-3.4,3.2-1.8,4.9-2.2
			c0.5,0,0.9,0.1,1.2,0.1c4.5,0.2,6.7,1.7,6.9,4.8C36.1,118.8,33.7,122.6,29.6,123.5z"/>
		<path class="st0" d="M183,98.1c-8.3-1-16.6-0.3-24.9-0.4c-2.1,0-2.9,1.4-3.2,3.4c-2.5,16-5.1,32.1-7.6,48.1
			c-0.8,5.1-0.8,5.1,4.4,5.1c0.7,0,1.5,0,2.2,0c1.2,0,2.4-0.1,3.6,0c2.3,0.2,3.5-0.5,3.8-3.1c0.5-4.2,1.4-8.4,2-12.6
			c0.3-2.3,1.5-3.2,3.7-3.2c2,0,4.1,0,6.1,0c13.6-0.1,21.8-7.6,22.9-21.1C196.7,104.9,192.4,99.3,183,98.1z M172.7,123.8
			c-1.2,0.2-2.4,0.2-2.9,0.3c-4.2,0.1-4.3,0.1-3.8-3.4c0.5-3.2,1.1-6.4,1.5-9.6c0.2-1.5,1-2.1,2.4-2c2.4,0.1,4.8-0.2,7.1,0.6
			c2.2,0.7,3.3,2.2,3.4,4.5C180.9,120,178.3,123.1,172.7,123.8z"/>
		<path class="st0" d="M92.2,116.4c-1.8,0-3.7,0.1-5.5,0c-2.6-0.2-4.6,0.3-4.5,4c-2.3-3.1-5.2-4.1-8.4-4.5
			c-13.8-1.7-25.1,7.8-25.8,21.8c-0.6,10.8,6.2,17.8,17,17.5c4.6-0.1,8.5-1.9,12.2-4.8c0.3,3.9,0.3,3.9,4.1,3.9c2,0,4.1,0,6.1,0
			c2,0,3-1,3.3-2.9c0.4-2.9,0.9-5.8,1.4-8.8c1.2-7.5,2.4-14.9,3.6-22.4C96,116.9,95.5,116.4,92.2,116.4z M69.4,144.7
			c-4.9,0-8.3-3.2-8.2-7.7c0.1-6.1,5.2-11.2,11.2-11c4.8,0.1,8.1,3.4,8,8C80.4,139.9,75.5,144.7,69.4,144.7z"/>
		<path class="st0" d="M238.2,116.4c-2.2,0-4.4,0.1-6.6,0c-2.5-0.2-4.5,0.2-4.4,4.2c-2-2.9-4.3-4-6.9-4.5
			c-15.3-3.1-27.5,8.2-27.4,23.3c0.1,10.5,7.5,16.7,17.9,15.8c4.2-0.4,7.9-2.1,11.6-5c-0.9,3.6,0.7,4.3,3.4,4.1c2-0.1,4.1-0.1,6.1,0
			c2.2,0.1,3.4-0.8,3.7-3.1c1.6-10.7,3.3-21.3,5.1-32C240.9,117.3,240.1,116.4,238.2,116.4z M214.6,144.7c-5,0-8.3-2.9-8.4-7.6
			c-0.1-6,5.1-11.2,11-11.2c4.8,0,8.2,3.2,8.2,7.8C225.4,139.8,220.6,144.7,214.6,144.7z"/>
		<path class="st0" d="M260.1,97.6c-2,0.1-4.1,0.2-6.1,0c-2.8-0.3-3.7,1-4.1,3.5c-2.4,15.7-4.8,31.4-7.3,47c-1.1,6.8-1,6.1,5.4,6.1
			c0.5,0,0.9,0,1.4,0c5.3,0,5.2,0,6-5.3c1-6.3,2-12.6,3-18.9c1.6-9.7,3.1-19.5,4.7-29.2C263.5,98.4,262.6,97.5,260.1,97.6z"/>
	</g>
</g>
</svg>
