<?xml version="1.0" encoding="utf-8"?>
<!-- Generator: Adobe Illustrator 21.0.0, SVG Export Plug-In . SVG Version: 6.00 Build 0)  -->
<svg version="1.1" id="Laag_1" xmlns="http://www.w3.org/2000/svg" xmlns:xlink="http://www.w3.org/1999/xlink" x="0px" y="0px"
	 viewBox="0 0 165.85 112" enable-background="new 0 0 165.85 112" xml:space="preserve">
<path fill="#FFFFFF" d="M93.712,66.643c-5.111,5.109-13.396,5.109-18.498,0h0.002L45.136,36.569c-3.812-3.834-10.024-3.834-13.86,0
	L15.072,52.764l36.996,36.993c17.896,17.896,46.914,17.894,64.769,0c1.592-1.547,3.01-3.214,4.309-4.951L97.092,60.751
	C96.537,62.919,95.411,64.947,93.712,66.643"/>
<path fill="#FFFFFF" d="M116.838,25.007c-17.856-17.875-46.873-17.875-64.769,0c-1.559,1.568-2.984,3.234-4.281,4.951L71.833,54.01
	c0.578-2.154,1.69-4.181,3.383-5.879c5.101-5.113,13.385-5.111,18.498,0h-0.002l30.062,30.074c3.838,3.835,10.063,3.835,13.898,0
	L153.85,62L116.838,25.007z"/>
</svg>
