<?xml version="1.0" encoding="utf-8"?>
<!-- Generator: Adobe Illustrator 21.0.0, SVG Export Plug-In . SVG Version: 6.00 Build 0)  -->
<svg version="1.1" id="Laag_1" xmlns="http://www.w3.org/2000/svg" xmlns:xlink="http://www.w3.org/1999/xlink" x="0px" y="0px"
	 viewBox="0 0 596.694 131.405" enable-background="new 0 0 596.694 131.405" xml:space="preserve">
<path fill="#FFFFFF" d="M213.666,89.877c0,0-3.005,1.007-7.954,1.007c-7.791,0-11.84-5.121-11.84-12.911V59.857h-6.282v-9.892h6.282
	V36.475h10.341v13.489h10.562v9.892h-10.562v15.928c0,2.775,0.733,5.361,4.442,5.361c2.582,0,5.011-0.417,5.011-0.417V89.877z"/>
<path fill="#FFFFFF" d="M221.89,36.809c0-3.691,2.832-6.46,6.56-6.46c3.669,0,6.448,2.769,6.448,6.46
	c0,3.678-2.779,6.537-6.448,6.537C224.723,43.346,221.89,40.486,221.89,36.809 M223.224,49.965h10.337v39.83h-10.337V49.965z"/>
<path fill="#FFFFFF" d="M277.527,81.074c-3.716,5.88-10.405,9.81-18.034,9.81c-11.757,0-21.144-9.385-21.144-20.884
	c0-11.562,9.387-20.791,21.144-20.791c7.534,0,14.094,3.781,17.862,9.478l-8.821,5.114c-2.008-2.844-5.28-4.697-9.04-4.697
	c-6.029,0-10.977,5.032-10.977,10.895c0,5.958,4.949,10.986,10.977,10.986c3.929,0,7.365-2.015,9.313-5.107L277.527,81.074z"/>
<polygon fill="#FFFFFF" points="307.772,89.795 292.027,72.028 292.027,89.795 281.703,89.795 281.703,27.753 292.027,27.753 
	292.027,65.396 306.439,49.964 319.676,49.964 302.264,68.166 321.377,89.795 "/>
<path fill="#FFFFFF" d="M328.318,73.28c1.18,4.863,5.113,8.295,11.072,8.295c3.626,0,7.462-1.347,9.798-4.433l7.058,5.608
	c-3.612,5.121-10.005,8.135-16.789,8.135c-11.99,0-21.213-8.963-21.213-20.635c0-11.31,7.983-21.039,20.644-21.039
	c11.714,0,20.025,9.561,20.025,20.791c0,1.106-0.074,2.267-0.245,3.279H328.318z M348.52,65.737c-0.585-4.035-4.78-7.133-9.73-7.133
	c-4.78,0-8.625,2.85-10.132,7.133H348.52z"/>
<path fill="#FFFFFF" d="M386.656,89.877c0,0-3.003,1.007-7.952,1.007c-7.783,0-11.83-5.121-11.83-12.911V59.857h-6.289v-9.892h6.289
	V36.475h10.331v13.489h10.562v9.892h-10.562v15.928c0,2.775,0.747,5.361,4.447,5.361c2.589,0,5.004-0.417,5.004-0.417V89.877z"/>
<path fill="#FFFFFF" d="M398.486,77.393c3.672,3.169,8.121,4.105,10.96,4.105c3.705,0,4.876-1.521,4.876-2.938
	c0-5.951-20.218-2.256-20.218-16.602c0-7.298,5.223-12.749,14.081-12.749c3.538,0,9.986,0.835,14.517,5.032l-5.458,7.376
	c-3.521-2.429-6.793-3.013-8.97-3.013c-3.439,0-4.114,1.502-4.114,2.522c0,5.611,19.959,2.927,19.959,17.101
	c0,7.283-5.282,12.658-15.341,12.658c-7.396,0-12.152-2.846-15.761-5.616L398.486,77.393z"/>
<polygon fill="#FFFFFF" points="467.927,89.795 458.973,64.386 450.357,89.795 439.628,89.795 425.455,49.964 437.017,49.964 
	445.074,76.133 454.461,49.964 463.508,49.964 472.731,76.133 480.875,49.964 492.509,49.964 478.194,89.795 "/>
<path fill="#FFFFFF" d="M524.57,89.795v-2.591c-3.17,2.591-6.95,3.681-11.046,3.681c-11.748,0-21.134-9.387-21.134-20.885
	c0-11.562,9.385-20.789,21.134-20.789c4.035,0,7.812,1.09,11.046,3.69v-2.936h10.336v39.83H524.57z M513.523,59.105
	c-6.02,0-10.969,5.032-10.969,10.895c0,5.96,4.949,10.988,10.969,10.988c6.134,0,11.046-5.028,11.046-10.988
	C524.57,64.136,519.657,59.105,513.523,59.105"/>
<path fill="#FFFFFF" d="M541.785,111.007V49.965h10.303v2.936c3.214-2.601,6.991-3.691,11.083-3.691
	c11.75,0,21.127,9.228,21.127,20.791c0,11.498-9.377,20.885-21.127,20.885c-4.091,0-7.869-1.09-11.083-3.681v23.802H541.785z
	 M552.088,70.51c0.273,5.71,5.125,10.476,11.083,10.476c6.036,0,10.981-5.028,10.981-10.986c0-5.863-4.945-10.895-10.981-10.895
	c-5.958,0-10.81,4.864-11.083,10.477V70.51z"/>
<path fill="#FFFFFF" d="M93.712,72.39c-5.111,5.109-13.396,5.109-18.498,0h0.002L45.136,42.316c-3.812-3.834-10.024-3.834-13.86,0
	L15.072,58.512l36.996,36.993c17.896,17.896,46.914,17.894,64.769,0c1.592-1.547,3.01-3.214,4.309-4.951L97.092,66.498
	C96.537,68.666,95.411,70.695,93.712,72.39"/>
<path fill="#FFFFFF" d="M116.838,30.755c-17.856-17.875-46.873-17.875-64.769,0c-1.559,1.568-2.984,3.234-4.281,4.951l24.045,24.052
	c0.578-2.154,1.69-4.181,3.383-5.879c5.101-5.113,13.385-5.111,18.498,0h-0.002l30.062,30.074c3.838,3.835,10.063,3.835,13.898,0
	l16.178-16.206L116.838,30.755z"/>
</svg>
