<?xml version="1.0" encoding="utf-8"?>
<!-- Generator: Adobe Illustrator 21.0.2, SVG Export Plug-In . SVG Version: 6.00 Build 0)  -->
<svg version="1.1" id="Laag_1" xmlns="http://www.w3.org/2000/svg" xmlns:xlink="http://www.w3.org/1999/xlink" x="0px" y="0px"
	 viewBox="0 0 139.5 139.5" style="enable-background:new 0 0 139.5 139.5;" xml:space="preserve">
<style type="text/css">
	.st0{fill:#FFFFFF;}
</style>
<g id="logo">
	<path class="st0" d="M79,79c-5.1,5.1-13.4,5.1-18.5,0h0L30.4,48.9c-3.8-3.8-10-3.8-13.9,0L0.4,65.1l37,37
		c17.9,17.9,46.9,17.9,64.8,0c1.6-1.5,3-3.2,4.3-5L82.4,73.1C81.8,75.3,80.7,77.3,79,79"/>
	<path class="st0" d="M102.1,37.4c-17.9-17.9-46.9-17.9-64.8,0c-1.6,1.6-3,3.2-4.3,5l24,24.1c0.6-2.2,1.7-4.2,3.4-5.9
		c5.1-5.1,13.4-5.1,18.5,0h0l30.1,30.1c3.8,3.8,10.1,3.8,13.9,0l16.2-16.2L102.1,37.4z"/>
</g>
</svg>
