<?xml version="1.0" encoding="utf-8"?>
<!-- Generator: Adobe Illustrator 21.0.0, SVG Export Plug-In . SVG Version: 6.00 Build 0)  -->
<svg version="1.1" id="Laag_1" xmlns="http://www.w3.org/2000/svg" xmlns:xlink="http://www.w3.org/1999/xlink" x="0px" y="0px"
	 viewBox="0 0 595.28 841.89" enable-background="new 0 0 595.28 841.89" xml:space="preserve">
<g>
	<g>
		<path fill="#FFFFFF" d="M367.869,410.904c-5.209,2.32-10.805,3.876-16.674,4.574c5.99-3.59,10.592-9.277,12.759-16.063
			c-5.609,3.324-11.824,5.75-18.435,7.05c-5.302-5.646-12.853-9.174-21.195-9.174c-16.04,0-29.052,13.006-29.052,29.043
			c0,2.273,0.259,4.489,0.759,6.62c-24.137-1.214-45.541-12.78-59.859-30.347c-2.496,4.288-3.937,9.278-3.937,14.605
			c0,10.071,5.13,18.959,12.927,24.171c-4.762-0.147-9.244-1.46-13.161-3.636c0,0.121,0,0.245,0,0.367
			c0,14.067,10.012,25.805,23.298,28.479c-2.441,0.663-5.002,1.022-7.65,1.022c-1.874,0-3.694-0.185-5.469-0.532
			c3.694,11.543,14.426,19.938,27.132,20.175c-9.943,7.782-22.456,12.429-36.069,12.429c-2.342,0-4.655-0.14-6.932-0.401
			c12.86,8.238,28.127,13.044,44.52,13.044c53.419,0,82.631-44.25,82.631-82.627c0-1.258-0.027-2.517-0.08-3.757
			C359.052,421.855,363.975,416.736,367.869,410.904z"/>
	</g>
</g>
</svg>
