<?xml version="1.0" encoding="utf-8"?>
<!-- Generator: Adobe Illustrator 21.0.2, SVG Export Plug-In . SVG Version: 6.00 Build 0)  -->
<svg version="1.1" id="Laag_1" xmlns="http://www.w3.org/2000/svg" xmlns:xlink="http://www.w3.org/1999/xlink" x="0px" y="0px"
	 viewBox="0 0 152.9 152.9" style="enable-background:new 0 0 152.9 152.9;" xml:space="preserve">
<style type="text/css">
	.st0{fill:#FFFFFF;}
</style>
<g id="logo">
	<g>
		<path class="st0" d="M147.3,32.6c-5.2,2.3-10.8,3.9-16.7,4.6c6-3.6,10.6-9.3,12.8-16.1c-5.6,3.3-11.8,5.8-18.4,7
			c-5.3-5.6-12.9-9.2-21.2-9.2c-16,0-29.1,13-29.1,29c0,2.3,0.3,4.5,0.8,6.6c-24.1-1.2-45.5-12.8-59.9-30.3
			c-2.5,4.3-3.9,9.3-3.9,14.6c0,10.1,5.1,19,12.9,24.2c-4.8-0.1-9.2-1.5-13.2-3.6c0,0.1,0,0.2,0,0.4c0,14.1,10,25.8,23.3,28.5
			c-2.4,0.7-5,1-7.6,1c-1.9,0-3.7-0.2-5.5-0.5c3.7,11.5,14.4,19.9,27.1,20.2c-9.9,7.8-22.5,12.4-36.1,12.4c-2.3,0-4.7-0.1-6.9-0.4
			c12.9,8.2,28.1,13,44.5,13c53.4,0,82.6-44.3,82.6-82.6c0-1.3,0-2.5-0.1-3.8C138.4,43.5,143.4,38.4,147.3,32.6z"/>
	</g>
</g>
</svg>
