<?xml version="1.0" encoding="utf-8"?>
<!-- Generator: Adobe Illustrator 21.0.2, SVG Export Plug-In . SVG Version: 6.00 Build 0)  -->
<svg version="1.1" id="Laag_1" xmlns:sketch="http://www.bohemiancoding.com/sketch/ns"
	 xmlns="http://www.w3.org/2000/svg" xmlns:xlink="http://www.w3.org/1999/xlink" x="0px" y="0px" viewBox="0 0 137.8 137.8"
	 style="enable-background:new 0 0 137.8 137.8;" xml:space="preserve">
<style type="text/css">
	.st0{fill:#FFFFFF;}
</style>
<g id="logo" sketch:type="MSPage">
	<path id="Fill-3_1_" sketch:type="MSShapeGroup" class="st0" d="M60.1,75.8c0.8-1.3,1.3-2.8,1.7-4.3c0.2-1,0.4-2,0.4-3
		c0-0.8,0-1.5-0.1-2.3c-0.2-1.2-0.6-2.3-1.2-3.3c-0.1-0.2-1.3-1.7-1.3-1.8c0.1-0.1,0.2-0.3,0.4-0.5c0.1-0.2,0.3-0.4,0.4-0.6
		c0.7-0.9,1.6-2,1.7-3.3c0-0.6-0.2-1.2-0.6-1.6c-0.5-0.6-1.4-0.9-2.4-0.9c-0.5,0-0.9,0.1-1.3,0.2c-2.1,0.7-3.1,3.5-3.1,5.3
		c0,0.4,0.1,0.7,0.3,0.9c0.1,0.1-0.5,0.9-0.5,0.9c-0.9,1.5-1.9,3-2.9,4.4c-0.3,0.4-0.6,0.8-0.9,1.2c-0.7,1-1.5,1.9-2.4,2.8
		c-1,1-2,1.9-3.1,2.8c-1.2,0.9-2.4,1.6-3.8,2.2c-1.4,0.6-2.8,0.9-4.3,1c-0.2,0-0.4,0-0.6,0c-0.6,0-1-0.2-1.3-0.5
		c-0.7-0.7-0.7-2.1-0.7-3l0.7-0.3c3.2-1.3,9.8-3.9,9.8-9.5c0-2.7-1.7-4.3-4.5-4.3c-5,0-9.8,5.1-11,11.5c-2.3,2.3-4.1,3.5-7.3,4.8
		l1.8-7.5l1.1-5c1.3-5.8,3.1-11.3,4.9-16.4c0.1-0.2,0-0.4-0.1-0.5c-0.1-0.2-0.3-0.2-0.5-0.2h-3.9c-0.2,0-0.4,0.1-0.5,0.3
		c-1.4,2.7-2.9,7.1-4.2,12.3L19.5,64c-2.8,3-4.6,4.2-6.6,4.2c-1.7,0-3-1.4-3-3.4c0-2.1,1-5.9,1.9-9c0.4-1.4,0.7-2.8,1-3.8
		c0.5-2.1,0.7-3.2,0.7-5c0-0.7-0.1-1-0.2-1.5c-0.1-0.2-0.3-0.4-0.6-0.4H10c-0.1,0-0.3,0-0.4,0.1c-2.9,2.4-5.6,4.3-7.9,5.8
		c-0.3,0.2-0.3,0.5-0.2,0.8l1.2,2.3c0.1,0.1,0.2,0.2,0.4,0.3c0.2,0,0.3,0,0.5,0c1.2-0.7,2.6-1.6,3.8-2.5c-0.2,1.6-0.6,3-1.2,5.5
		c-0.9,3.2-1.5,6.2-1.5,7.9c0,4.2,3.1,7.4,7.3,7.4c2.2,0,4.1-0.8,6.2-2.6l-1.3,6.3l-1.3,0.4C11.1,78.2,3,80.7,3,86.8
		c0,3.4,2.6,5.8,6.2,5.8c3.1,0,5.9-1.5,8-4.3c1.6-2,2.5-4.3,3.7-8.7c4.6-1.6,7.1-2.9,8.7-4c0.7,3.1,2.5,4.8,5.1,4.8
		c7.1,0,13.7-3.4,18.1-9.4c1.3-1.8,4.2-6,4.2-6s0.4,0.5,0.6,0.8c0.2,0.4,0.4,0.8,0.5,1.2c0.4,1.9-0.3,5.2-3.3,7.3
		c-1.3,0.9-3.2,0.9-4.5,1.9c-0.6,0.5-1,2.2-1,2.6c0,0.9,1.1,1.4,2.1,1.6c2.1,0.3,4.4-0.6,6.1-1.8c0.5-0.3,0.9-0.7,1.3-1.2
		C59.4,76.9,59.8,76.3,60.1,75.8L60.1,75.8L60.1,75.8z M40.2,62.8c0.4,0,0.5,0.1,0.5,0.5c0,1.6-2,3.3-5.3,4.7
		C36.4,65.1,38.5,62.8,40.2,62.8L40.2,62.8L40.2,62.8z M15.2,81.2c-1.5,5.2-3.4,7.5-5.9,7.5c-1.3,0-2.2-0.8-2.2-1.9
		c0-2,2.2-3.5,7.6-5.4L15.2,81.2L15.2,81.2z"/>
	<path id="Fill-4_1_" sketch:type="MSShapeGroup" class="st0" d="M66.7,88.6V57.4l4,0l0.9,1.8c0.5-0.6,1.3-1.2,2.3-1.6
		c1.1-0.4,2.2-0.7,3.4-0.7c2.4,0,4.3,0.8,5.6,2.5c1.3,1.7,2,4.3,2,8c0,2-0.1,3.8-0.3,5.2c-0.2,1.5-0.6,2.7-1.1,3.7s-1.4,1.7-2.4,2.2
		c-1,0.5-2.4,0.7-4,0.7c-0.9,0-1.8-0.2-2.8-0.7c-0.9-0.5-1.6-1.2-1.9-2v12.2L66.7,88.6L66.7,88.6z M79.2,67.9c0-1.3-0.1-2.3-0.2-3.1
		c-0.1-0.8-0.3-1.5-0.5-2c-0.3-0.5-0.6-0.8-1-1.1c-0.4-0.2-1-0.3-1.6-0.3c-0.7,0-1.3,0.1-1.7,0.3c-0.4,0.2-0.8,0.6-1,1.1
		c-0.2,0.5-0.4,1.2-0.5,2c-0.1,0.8-0.1,1.9-0.1,3.1c0,2.3,0.2,4,0.7,5c0.4,1,1.3,1.5,2.7,1.5c1.4,0,2.4-0.5,2.7-1.6
		C79,71.8,79.2,70.1,79.2,67.9L79.2,67.9L79.2,67.9z"/>
	<path id="Fill-5_1_" sketch:type="MSShapeGroup" class="st0" d="M88.7,46.8h5.6v31.9h-5.6L88.7,46.8L88.7,46.8z"/>
	<path id="Fill-6_1_" sketch:type="MSShapeGroup" class="st0" d="M114.4,78.7h-4.1l-1-2.2c-0.6,0.7-1.2,1.2-1.8,1.5
		c-0.6,0.3-1.1,0.6-1.5,0.7c-0.5,0.2-1.1,0.3-1.5,0.3c-0.8,0-1.6-0.1-2.4-0.2c-0.8-0.1-1.5-0.4-2.2-0.8c-0.7-0.4-1.2-1-1.6-1.9
		c-0.4-0.8-0.6-2-0.6-3.4c0-1.1,0.1-2,0.4-2.8c0.3-0.8,0.8-1.4,1.6-2c0.8-0.6,1.9-1,3.4-1.5c1.5-0.4,3.4-0.8,5.7-1.3
		c0-0.7-0.1-1.3-0.1-1.8c-0.1-0.5-0.2-0.9-0.3-1.3c-0.2-0.3-0.4-0.6-0.7-0.8c-0.3-0.2-0.7-0.3-1.3-0.3c-0.8,0-1.5,0.2-1.9,0.7
		c-0.5,0.5-0.8,1-0.9,1.7l-4.7-1.4c0.2-1,0.6-1.9,1.2-2.7c0.5-0.7,1.3-1.3,2.3-1.9c1-0.6,2.5-0.8,4.3-0.8c0.6,0,1.4,0.1,2.3,0.3
		c0.9,0.2,1.7,0.6,2.5,1.1c0.8,0.6,1.5,1.4,2,2.4c0.6,1,0.9,2.4,0.9,4.2L114.4,78.7L114.4,78.7z M108.8,68.3c-1.1,0.2-2,0.4-2.7,0.7
		c-0.7,0.3-1.2,0.7-1.6,1c-0.4,0.4-0.6,0.7-0.8,1.1c-0.1,0.4-0.2,0.7-0.2,1.1c0,0.9,0.1,1.6,0.4,2.1c0.3,0.5,0.8,0.8,1.6,0.8
		c0.9,0,1.6-0.2,2.1-0.6c0.5-0.4,0.9-0.7,1.2-1.1L108.8,68.3L108.8,68.3z"/>
	<path id="Fill-7_1_" sketch:type="MSShapeGroup" class="st0" d="M118.9,57.3h3.8l1.3,2.1c0.4-0.3,0.7-0.6,1.1-0.9
		c0.4-0.3,0.7-0.6,1.1-0.8c0.4-0.2,0.8-0.4,1.3-0.6c0.5-0.1,1-0.2,1.6-0.2c1.3,0,2.5,0.3,3.5,0.9c0.4,0.2,0.9,0.5,1.3,0.9
		c0.4,0.4,0.8,0.8,1.1,1.3c0.3,0.5,0.6,1.2,0.8,1.9c0.2,0.7,0.3,1.6,0.3,2.6v14.2h-5.7V66.1c0-0.5,0-1.1-0.1-1.6s-0.2-1-0.3-1.5
		c-0.2-0.4-0.4-0.8-0.7-1.1c-0.3-0.3-0.7-0.4-1.2-0.4c-1.1,0-2,0.3-2.5,0.8c-0.6,0.5-1,1.1-1.3,1.7v14.7h-5.6L118.9,57.3"/>
</g>
</svg>
