<?xml version="1.0" encoding="utf-8"?>
<!-- Generator: Adobe Illustrator 21.0.0, SVG Export Plug-In . SVG Version: 6.00 Build 0)  -->
<svg version="1.1" id="Laag_1" xmlns:sketch="http://www.bohemiancoding.com/sketch/ns"
	 xmlns="http://www.w3.org/2000/svg" xmlns:xlink="http://www.w3.org/1999/xlink" x="0px" y="0px" viewBox="0 0 199 54"
	 enable-background="new 0 0 199 54" xml:space="preserve">
<title>logo</title>
<description>Created with Sketch (http://www.bohemiancoding.com/sketch)</description>
<g id="Page-1_1_" sketch:type="MSPage">
	<path id="Fill-3_1_" sketch:type="MSShapeGroup" fill="#FFFFFF" d="M58.633,36.359c0.8-1.317,1.337-2.822,1.668-4.285
		c0.218-0.97,0.351-1.972,0.416-2.963c0.05-0.765,0.042-1.539-0.074-2.298c-0.178-1.168-0.552-2.302-1.192-3.3
		c-0.119-0.185-1.317-1.694-1.268-1.764c0.09-0.131,0.192-0.272,0.352-0.484c0.135-0.181,0.284-0.37,0.441-0.568
		c0.722-0.91,1.619-2.042,1.695-3.277c0.038-0.621-0.156-1.176-0.559-1.606c-0.534-0.567-1.418-0.891-2.426-0.891
		c-0.463,0-0.917,0.071-1.31,0.204c-2.131,0.723-3.089,3.525-3.089,5.284c0,0.397,0.128,0.683,0.295,0.908
		c0.051,0.069-0.477,0.853-0.52,0.926c-0.905,1.514-1.891,2.979-2.879,4.439c-0.274,0.404-0.556,0.806-0.874,1.177
		c-0.746,0.959-1.512,1.911-2.356,2.787c-0.959,0.994-2,1.94-3.099,2.777c-1.152,0.879-2.436,1.6-3.764,2.184
		c-1.396,0.613-2.827,0.884-4.342,0.99c-0.183,0.013-0.369,0.037-0.553,0.037c-0.556,0-0.974-0.15-1.274-0.462
		c-0.665-0.686-0.707-2.067-0.687-3.014l0.657-0.263c3.175-1.27,9.778-3.913,9.778-9.451c0-2.71-1.692-4.328-4.528-4.328
		c-5.048,0-9.834,5.051-10.964,11.535c-2.299,2.254-4.147,3.465-7.344,4.758l1.771-7.535l1.113-4.96
		c1.302-5.781,3.12-11.319,4.892-16.442c0.061-0.178,0.032-0.375-0.076-0.528c-0.109-0.154-0.286-0.244-0.475-0.244h-3.897
		c-0.215,0-0.414,0.12-0.513,0.311c-1.43,2.707-2.905,7.089-4.152,12.337l-1.482,6.231c-2.808,3.027-4.592,4.156-6.555,4.156
		c-1.745,0-3.012-1.416-3.012-3.367c0-2.079,1.034-5.906,1.863-8.98c0.385-1.427,0.748-2.776,0.957-3.754
		c0.452-2.056,0.67-3.221,0.723-5.036c0-0.741-0.056-0.964-0.227-1.534c-0.075-0.247-0.3-0.416-0.556-0.416H8.577
		c-0.133,0-0.264,0.047-0.368,0.132c-2.886,2.362-5.556,4.324-7.939,5.831c-0.254,0.16-0.343,0.488-0.206,0.756l1.163,2.279
		c0.073,0.141,0.199,0.247,0.35,0.292c0.152,0.047,0.315,0.028,0.454-0.049c1.234-0.696,2.628-1.591,3.845-2.467
		c-0.176,1.595-0.561,3.025-1.248,5.495c-0.919,3.193-1.491,6.203-1.491,7.856c0,4.227,3.121,7.417,7.262,7.417
		c2.196,0,4.073-0.759,6.193-2.559l-1.327,6.333l-1.293,0.404C9.618,38.725,1.518,41.244,1.518,47.394
		c0,3.443,2.57,5.847,6.249,5.847c3.072,0,5.931-1.519,8.047-4.269c1.553-1.956,2.538-4.256,3.722-8.72
		c4.626-1.565,7.051-2.905,8.676-4.045c0.665,3.126,2.455,4.833,5.111,4.833c7.122,0,13.73-3.429,18.13-9.411
		c1.315-1.788,4.182-6.038,4.182-6.038s0.399,0.528,0.558,0.791c0.236,0.389,0.38,0.788,0.467,1.237
		c0.371,1.899-0.331,5.217-3.305,7.288c-1.275,0.889-3.246,0.876-4.471,1.894c-0.59,0.492-0.998,2.22-0.991,2.581
		c0.017,0.911,1.103,1.412,2.1,1.553c2.145,0.302,4.435-0.595,6.141-1.849c0.464-0.341,0.941-0.73,1.329-1.156
		C57.895,37.451,58.298,36.912,58.633,36.359L58.633,36.359L58.633,36.359z M38.738,23.372c0.387,0,0.53,0.145,0.53,0.532
		c0,1.555-2.04,3.332-5.282,4.666C34.941,25.699,37.003,23.372,38.738,23.372L38.738,23.372L38.738,23.372z M13.736,41.789
		c-1.531,5.179-3.359,7.505-5.868,7.505c-1.318,0-2.203-0.763-2.203-1.9c0-1.952,2.19-3.524,7.56-5.424L13.736,41.789L13.736,41.789
		z"/>
	<path id="Fill-4_1_" sketch:type="MSShapeGroup" fill="#FFFFFF" d="M65.262,49.159V17.959l3.955-0.045l0.853,1.753
		c0.479-0.628,1.258-1.168,2.337-1.618c1.079-0.449,2.202-0.674,3.37-0.674c2.396,0,4.269,0.831,5.618,2.495
		c1.348,1.663,2.022,4.323,2.022,7.979c0,2.008-0.098,3.754-0.292,5.237c-0.195,1.484-0.577,2.72-1.146,3.709
		c-0.569,0.989-1.371,1.723-2.405,2.203c-1.033,0.479-2.374,0.72-4.022,0.72c-0.929,0-1.849-0.241-2.763-0.72
		c-0.915-0.48-1.551-1.153-1.911-2.024v12.183H65.262L65.262,49.159z M77.71,28.479c0-1.259-0.053-2.299-0.157-3.125
		c-0.106-0.823-0.285-1.484-0.54-1.978c-0.254-0.494-0.6-0.846-1.033-1.056c-0.435-0.209-0.966-0.315-1.596-0.315
		c-0.69,0-1.251,0.105-1.686,0.315c-0.434,0.21-0.771,0.569-1.011,1.079c-0.24,0.51-0.404,1.176-0.494,2
		c-0.09,0.825-0.135,1.851-0.135,3.079c0,2.308,0.225,3.972,0.675,4.99c0.449,1.02,1.333,1.528,2.651,1.528
		c1.438,0,2.351-0.531,2.741-1.596C77.514,32.339,77.71,30.697,77.71,28.479L77.71,28.479L77.71,28.479z"/>
	<path id="Fill-5_1_" sketch:type="MSShapeGroup" fill="#FFFFFF" d="M87.236,7.395h5.618v31.873h-5.618V7.395L87.236,7.395z"/>
	<path id="Fill-6_1_" sketch:type="MSShapeGroup" fill="#FFFFFF" d="M112.942,39.269h-4.089l-1.034-2.203
		c-0.6,0.659-1.184,1.162-1.753,1.506c-0.569,0.345-1.078,0.592-1.527,0.742c-0.54,0.179-1.051,0.284-1.529,0.314
		c-0.779,0-1.573-0.053-2.381-0.158c-0.809-0.105-1.544-0.367-2.202-0.787c-0.659-0.419-1.2-1.041-1.619-1.866
		c-0.42-0.824-0.629-1.956-0.629-3.394c0-1.108,0.135-2.045,0.404-2.809c0.269-0.765,0.809-1.423,1.618-1.978
		c0.809-0.554,1.939-1.042,3.393-1.461c1.452-0.42,3.363-0.839,5.729-1.259c-0.03-0.689-0.075-1.288-0.134-1.798
		c-0.06-0.509-0.173-0.936-0.338-1.281c-0.165-0.345-0.404-0.608-0.719-0.787c-0.315-0.18-0.741-0.27-1.281-0.27
		c-0.809,0-1.453,0.225-1.932,0.675c-0.48,0.45-0.764,1.005-0.854,1.664l-4.673-1.438c0.18-1.019,0.584-1.918,1.213-2.697
		c0.509-0.69,1.288-1.311,2.336-1.866c1.048-0.554,2.487-0.831,4.314-0.831c0.63,0,1.386,0.09,2.27,0.27
		c0.883,0.18,1.722,0.555,2.517,1.124c0.793,0.569,1.475,1.379,2.044,2.427c0.569,1.05,0.854,2.443,0.854,4.181V39.269
		L112.942,39.269z M107.324,28.884c-1.138,0.18-2.044,0.427-2.718,0.741c-0.675,0.315-1.207,0.653-1.596,1.012
		c-0.389,0.36-0.644,0.727-0.764,1.101c-0.121,0.376-0.18,0.727-0.18,1.057c0,0.869,0.135,1.559,0.405,2.068
		c0.269,0.51,0.793,0.764,1.573,0.764c0.899,0,1.587-0.194,2.067-0.584c0.479-0.389,0.883-0.749,1.213-1.079V28.884L107.324,28.884z
		"/>
	<path id="Fill-7_1_" sketch:type="MSShapeGroup" fill="#FFFFFF" d="M117.436,17.915h3.82l1.302,2.068c0.36-0.3,0.72-0.6,1.079-0.9
		c0.359-0.299,0.741-0.569,1.146-0.809c0.404-0.24,0.846-0.434,1.325-0.584c0.479-0.15,1.018-0.225,1.618-0.225
		c1.317,0.03,2.5,0.315,3.549,0.854c0.45,0.24,0.884,0.539,1.304,0.899c0.419,0.36,0.794,0.81,1.123,1.349s0.599,1.184,0.809,1.933
		c0.209,0.749,0.315,1.619,0.315,2.608v14.161h-5.662V26.681c0-0.539-0.03-1.078-0.09-1.618c-0.06-0.54-0.165-1.026-0.315-1.461
		c-0.151-0.434-0.382-0.787-0.697-1.056c-0.315-0.27-0.712-0.405-1.191-0.405c-1.139,0-1.985,0.263-2.539,0.787
		c-0.555,0.525-0.981,1.087-1.281,1.686v14.655h-5.617V17.915"/>
</g>
</svg>
