<?xml version="1.0" encoding="utf-8"?>
<!-- Generator: Adobe Illustrator 21.0.2, SVG Export Plug-In . SVG Version: 6.00 Build 0)  -->
<svg version="1.1" id="Layer_1" xmlns="http://www.w3.org/2000/svg" xmlns:xlink="http://www.w3.org/1999/xlink" x="0px" y="0px"
	 viewBox="0 0 184.7 158.6" style="enable-background:new 0 0 184.7 158.6;" xml:space="preserve">
<style type="text/css">
	.st0{fill:#002856;}
</style>
<g>
	<path class="st0" d="M182.4,73L145.9,9.8c-3.1-5.4-10.8-9.8-17-9.8h-73c-6.2,0-13.9,4.4-17,9.8L2.3,73c-3.1,5.4-3.1,14.2,0,19.6
		l36.5,63.2c0.5,0.9,1.2,1.8,2,2.7l0-21.5c-0.2-2.3,0.2-4.8,1.3-6.5l20.4-35.3c1.7-3,6-5.5,9.5-5.5h40.7c3.5,0,7.8,2.5,9.5,5.5
		l20.4,35.3c1,1.8,1.4,4.2,1.3,6.5l0,21.5c0.8-0.9,1.5-1.8,2-2.7l36.5-63.2C185.5,87.3,185.5,78.4,182.4,73z M120.4,60.1L109,79.8
		c-1,1.7-3.4,3.1-5.3,3.1H81c-1.9,0-4.3-1.4-5.3-3.1L64.3,60.1c-1-1.7-1-4.4,0-6.1l11.4-19.7c1-1.7,3.4-3.1,5.3-3.1h22.7
		c1.9,0,4.3,1.4,5.3,3.1L120.4,54C121.3,55.7,121.3,58.4,120.4,60.1z"/>
</g>
</svg>
