<?xml version="1.0" encoding="utf-8"?>
<!-- Generator: Adobe Illustrator 21.0.0, SVG Export Plug-In . SVG Version: 6.00 Build 0)  -->
<svg version="1.1" id="Layer_1" xmlns="http://www.w3.org/2000/svg" xmlns:xlink="http://www.w3.org/1999/xlink" x="0px" y="0px"
	 viewBox="0 0 283.46 283.46" enable-background="new 0 0 283.46 283.46" xml:space="preserve">
<path fill="#BCD9EA" d="M82.349,264.215c-6.236,0-13.89-4.419-17.008-9.819L5.962,151.547c-3.118-5.4-3.118-14.238,0-19.639
	L65.341,29.059c3.118-5.4,10.772-9.819,17.008-9.819h118.76c6.236,0,13.89,4.419,17.008,9.819l59.38,102.849
	c3.118,5.4,3.118,14.238,0,19.639l-59.38,102.849c-3.118,5.4-10.771,9.819-17.008,9.819H82.349z"/>
<g>
	<path fill="#002856" d="M231.739,131.908L195.24,68.689c-3.118-5.401-10.771-9.819-17.008-9.819h-72.999
		c-6.235,0-13.889,4.418-17.008,9.818l-36.499,63.22c-3.118,5.4-3.118,14.238,0,19.639l36.499,63.22
		c0.537,0.93,1.217,1.828,1.992,2.682l0.023-21.513c-0.183-2.321,0.239-4.762,1.264-6.536l20.369-35.28
		c1.74-3.014,6.012-5.479,9.491-5.479h40.737c3.48,0,7.751,2.465,9.492,5.479l20.369,35.28c1.024,1.775,1.445,4.218,1.263,6.541
		l0.023,21.508c0.775-0.854,1.455-1.752,1.992-2.683l36.499-63.219C234.857,146.146,234.857,137.309,231.739,131.908z
		 M169.762,118.983l-11.366,19.687c-0.972,1.683-3.354,3.058-5.297,3.058h-22.732c-1.941,0-4.325-1.375-5.295-3.058l-11.366-19.687
		c-0.972-1.681-0.972-4.435,0-6.115l11.366-19.687c0.97-1.682,3.354-3.058,5.295-3.058h22.732c1.942,0,4.325,1.376,5.297,3.058
		l11.366,19.687C170.731,114.549,170.731,117.303,169.762,118.983z"/>
</g>
</svg>
