<?xml version="1.0" encoding="utf-8"?>
<!-- Generator: Adobe Illustrator 21.0.2, SVG Export Plug-In . SVG Version: 6.00 Build 0)  -->
<svg version="1.1" id="Layer_1" xmlns="http://www.w3.org/2000/svg" xmlns:xlink="http://www.w3.org/1999/xlink" x="0px" y="0px"
	 viewBox="0 0 191.7 172.7" style="enable-background:new 0 0 191.7 172.7;" xml:space="preserve">
<style type="text/css">
	.st0{fill:#002856;}
	.st1{fill:none;}
</style>
<g>
	<g>
		<path class="st0" d="M175.8,77.6l-24.8-43H40.7l-24.8,43c-2.8,4.8-2.8,12.6,0,17.4l32.4,56.2c2.8,4.8,9.6,8.7,15.1,8.7h64.8
			c5.5,0,12.3-3.9,15.1-8.7l32.4-56.2C178.6,90.3,178.6,82.4,175.8,77.6z M70.2,95.9l-2.3,7L37.2,90v-7.2l30.7-13l2.3,7l-23.8,9.5
			L70.2,95.9z M87.9,119.8h-8.8l24.1-68.9h8.7L87.9,119.8z M154.5,90l-30.7,13l-2.4-7l23.8-9.5l-23.8-9.5l2.4-7l30.7,13V90z"/>
	</g>
	<g>
		<path class="st0" d="M132.7,11l2.3-3.4h2.7l-3.7,5.3c0.8,1,1.5,1.9,2.2,2.9c0.7,1,1.3,1.9,1.7,2.8h-2.8c-0.1-0.3-0.3-0.5-0.5-0.8
			s-0.4-0.6-0.6-1c-0.2-0.3-0.5-0.7-0.7-1c-0.3-0.3-0.5-0.6-0.7-0.9c-0.5,0.6-1,1.2-1.4,1.9s-0.9,1.3-1.2,1.8h-2.6
			c0.2-0.4,0.5-0.9,0.8-1.3c0.3-0.5,0.6-0.9,1-1.4c0.3-0.5,0.7-1,1.1-1.5c0.4-0.5,0.7-0.9,1.1-1.4l-3.7-5.4h2.8L132.7,11z"/>
	</g>
	<g>
		<path class="st1" d="M152.2,25.3l-112.7,0l-30.6,53c-2.5,4.3-2.5,11.8,0,16.1l36.5,63.2c2.5,4.3,9,8.1,14,8.1h73
			c5,0,11.5-3.8,14-8.1l36.5-63.2c2.5-4.3,2.5-11.8,0-16.1L152.2,25.3z"/>
		<path class="st0" d="M188.9,74.8l-36.5-63.2C148.6,5.1,139.8,0,132.3,0h-73c-7.5,0-16.3,5.1-20,11.6L2.8,74.8
			c-3.7,6.5-3.7,16.7,0,23.1l36.5,63.2c3.7,6.5,12.5,11.6,20,11.6h73c7.5,0,16.3-5.1,20-11.6l36.5-63.2
			C192.6,91.4,192.6,81.3,188.9,74.8z M122.7,11.7l4-7c0.3-0.6,1.2-1.1,1.9-1.1h8.1c0.7,0,1.5,0.5,1.9,1.1l4,7
			c0.3,0.6,0.3,1.6,0,2.2l-4,7c-0.3,0.6-1.2,1.1-1.9,1.1h-8.1c-0.7,0-1.5-0.5-1.9-1.1l-4-7C122.4,13.3,122.4,12.3,122.7,11.7z
			 M182.8,94.4l-36.5,63.2c-2.5,4.3-9,8.1-14,8.1h-73c-5,0-11.5-3.8-14-8.1L8.9,94.4c-2.5-4.3-2.5-11.8,0-16.1l30.6-53l112.7,0
			l30.6,53C185.3,82.6,185.3,90.1,182.8,94.4z"/>
	</g>
</g>
</svg>
