<?xml version="1.0" encoding="utf-8"?>
<!-- Generator: Adobe Illustrator 21.0.2, SVG Export Plug-In . SVG Version: 6.00 Build 0)  -->
<svg version="1.1" id="Layer_1" xmlns="http://www.w3.org/2000/svg" xmlns:xlink="http://www.w3.org/1999/xlink" x="0px" y="0px"
	 viewBox="0 0 184.7 165.7" style="enable-background:new 0 0 184.7 165.7;" xml:space="preserve">
<style type="text/css">
	.st0{fill:#002856;}
</style>
<g>
	<path class="st0" d="M182.4,73L145.9,9.8c-3.1-5.4-10.8-9.8-17-9.8h-73c-6.2,0-13.9,4.4-17,9.8L2.3,73c-3.1,5.4-3.1,14.2,0,19.6
		l36.5,63.2c3.1,5.4,10.8,9.8,17,9.8h73c6.2,0,13.9-4.4,17-9.8l36.5-63.2C185.5,87.3,185.5,78.4,182.4,73z M93.7,134.3l-10.9,18.8
		c-0.9,1.6-3.2,2.9-5.1,2.9H56c-1.9,0-4.1-1.3-5.1-2.9L40,134.3c-0.9-1.6-0.9-4.2,0-5.9l10.9-18.8c0.9-1.6,3.2-2.9,5.1-2.9h21.8
		c1.9,0,4.1,1.3,5.1,2.9l10.9,18.8C94.6,130.1,94.6,132.7,93.7,134.3z M94,96.1H56.8c-3.2,0-7.1-2.3-8.7-5L29.5,58.9
		c-1.6-2.8-1.6-7.3,0-10l18.6-32.3c1.6-2.8,5.5-5,8.7-5H94c3.2,0,7.1,2.3,8.7,5l18.6,32.3c1.6,2.8,1.6,7.3,0,10l-18.6,32.2
		C101.1,93.9,97.2,96.1,94,96.1z M172.5,85.7L162,103.8c-0.9,1.6-3.1,2.8-4.9,2.8h-21c-1.8,0-4-1.3-4.9-2.8l-10.5-18.2
		c-0.9-1.6-0.9-4.1,0-5.6l10.5-18.2c0.9-1.6,3.1-2.8,4.9-2.8h21c1.8,0,4,1.3,4.9,2.8L172.5,80C173.4,81.6,173.4,84.1,172.5,85.7z"/>
</g>
<path class="st0" d="M85.3,72.4c-0.4-1.3-0.9-2.6-1.3-4c-0.5-1.4-0.9-2.7-1.4-4.1H68c-0.5,1.4-0.9,2.7-1.4,4.1
	c-0.5,1.4-0.9,2.7-1.3,4h-8.7c1.4-4,2.7-7.7,4-11.1s2.5-6.6,3.7-9.6c1.2-3,2.4-5.8,3.5-8.5s2.4-5.3,3.6-7.9h7.9
	c1.2,2.6,2.4,5.2,3.6,7.9c1.2,2.7,2.4,5.5,3.6,8.5c1.2,3,2.4,6.2,3.7,9.6s2.6,7.1,4,11.1L85.3,72.4L85.3,72.4z M75.2,43.7
	c-0.2,0.5-0.5,1.3-0.8,2.2c-0.4,0.9-0.8,2-1.2,3.2c-0.5,1.2-1,2.6-1.5,4c-0.6,1.5-1.1,3-1.7,4.6h10.6c-0.6-1.6-1.1-3.1-1.6-4.6
	c-0.5-1.5-1-2.8-1.5-4c-0.5-1.2-0.9-2.3-1.3-3.2C75.8,45,75.5,44.2,75.2,43.7z"/>
<path class="st0" d="M66.8,117.7c4.3,0,7.7,0.8,10,2.3c2.3,1.5,3.5,4,3.5,7.5c0,3.5-1.2,6-3.5,7.6c-2.4,1.6-5.7,2.3-10.1,2.3h-2.1
	v9.7h-6.6v-28.7c1.4-0.3,2.9-0.5,4.5-0.6C64.2,117.7,65.6,117.7,66.8,117.7z M67.2,123.2c-0.5,0-0.9,0-1.4,0c-0.5,0-0.9,0.1-1.2,0.1
	v8.4h2.1c2.3,0,4-0.3,5.1-0.9c1.1-0.6,1.7-1.8,1.7-3.4c0-0.8-0.1-1.5-0.4-2c-0.3-0.5-0.7-1-1.3-1.3c-0.5-0.3-1.2-0.5-2-0.7
	C69.1,123.3,68.2,123.2,67.2,123.2z"/>
<path class="st0" d="M143.4,68.3h6.6v29.1h-6.6V68.3z"/>
</svg>
