<?xml version="1.0" encoding="utf-8"?>
<!-- Generator: Adobe Illustrator 21.0.0, SVG Export Plug-In . SVG Version: 6.00 Build 0)  -->
<svg version="1.1" id="Layer_1" xmlns="http://www.w3.org/2000/svg" xmlns:xlink="http://www.w3.org/1999/xlink" x="0px" y="0px"
	 viewBox="0 0 283.46 283.46" enable-background="new 0 0 283.46 283.46" xml:space="preserve">
<path fill="#BCD9EA" d="M82.352,264.215c-6.236,0-13.89-4.419-17.008-9.819L5.965,151.547c-3.118-5.4-3.118-14.238,0-19.639
	L65.344,29.06c3.118-5.4,10.772-9.819,17.008-9.819h118.76c6.236,0,13.89,4.419,17.008,9.819l59.38,102.849
	c3.118,5.4,3.118,14.238,0,19.639l-59.38,102.849c-3.118,5.4-10.771,9.819-17.008,9.819H82.352z"/>
<g>
	<path fill="#002856" d="M231.739,131.908L195.24,68.689c-3.118-5.4-10.771-9.82-17.008-9.82h-72.999
		c-6.235,0-13.889,4.42-17.008,9.82l-36.499,63.219c-3.118,5.4-3.118,14.238,0,19.639l36.499,63.219
		c3.119,5.401,10.772,9.82,17.008,9.82h72.999c6.236,0,13.89-4.42,17.008-9.82l36.499-63.219
		C234.857,146.146,234.857,137.309,231.739,131.908z M143.101,193.17l-10.882,18.848c-0.929,1.61-3.211,2.929-5.072,2.929h-21.764
		c-1.859,0-4.141-1.317-5.071-2.929L89.43,193.17c-0.93-1.61-0.93-4.246,0-5.855l10.882-18.849c0.93-1.61,3.212-2.929,5.071-2.929
		h21.764c1.861,0,4.143,1.318,5.072,2.929l10.882,18.849C144.031,188.924,144.031,191.56,143.101,193.17z M143.435,154.996h-37.239
		c-3.182,0-7.085-2.254-8.677-5.01L78.9,117.736c-1.591-2.754-1.591-7.264,0-10.017l18.619-32.25c1.592-2.754,5.496-5.01,8.677-5.01
		h37.239c3.181,0,7.085,2.256,8.676,5.01l18.619,32.25c1.591,2.754,1.591,7.264,0,10.017l-18.619,32.25
		C150.52,152.74,146.615,154.996,143.435,154.996z M221.86,144.548l-10.48,18.151c-0.895,1.552-3.093,2.821-4.885,2.821h-20.961
		c-1.79,0-3.987-1.268-4.884-2.821l-10.48-18.151c-0.895-1.551-0.895-4.089,0-5.64l10.48-18.152c0.896-1.551,3.094-2.82,4.884-2.82
		h20.961c1.792,0,3.989,1.27,4.885,2.82l10.48,18.152C222.757,140.459,222.757,142.997,221.86,144.548z"/>
</g>
<path fill="#002856" d="M134.663,131.281c-0.412-1.291-0.856-2.613-1.331-3.973c-0.476-1.359-0.949-2.713-1.421-4.059H117.42
	c-0.469,1.354-0.939,2.709-1.41,4.068c-0.47,1.361-0.91,2.682-1.314,3.963h-8.675c1.396-3.998,2.72-7.691,3.974-11.084
	c1.254-3.393,2.479-6.586,3.679-9.584c1.2-3,2.381-5.846,3.545-8.541c1.164-2.695,2.372-5.328,3.626-7.899h7.918
	c1.219,2.57,2.42,5.203,3.605,7.899c1.183,2.695,2.375,5.541,3.577,8.541c1.201,2.998,2.43,6.191,3.685,9.584
	c1.255,3.393,2.582,7.086,3.98,11.084H134.663z M124.628,102.58c-0.187,0.539-0.459,1.273-0.819,2.199
	c-0.358,0.928-0.767,2-1.225,3.217c-0.458,1.215-0.971,2.553-1.538,4.016c-0.566,1.461-1.143,2.994-1.727,4.598h10.611
	c-0.568-1.609-1.118-3.146-1.65-4.611c-0.533-1.467-1.038-2.809-1.518-4.025c-0.479-1.215-0.899-2.287-1.26-3.213
	C125.141,103.834,124.85,103.107,124.628,102.58z"/>
<path fill="#002856" d="M116.201,176.52c4.34,0,7.671,0.763,9.996,2.289c2.323,1.526,3.485,4.025,3.485,7.497
	c0,3.5-1.176,6.027-3.527,7.581c-2.353,1.554-5.713,2.331-10.08,2.331h-2.059v9.744h-6.552v-28.687
	c1.428-0.279,2.939-0.476,4.536-0.588C113.597,176.577,114.996,176.52,116.201,176.52z M116.621,182.107
	c-0.477,0-0.945,0.015-1.407,0.042c-0.462,0.028-0.861,0.057-1.197,0.084v8.4h2.059c2.268,0,3.976-0.308,5.124-0.924
	c1.147-0.616,1.722-1.765,1.722-3.444c0-0.812-0.147-1.484-0.441-2.017c-0.294-0.531-0.714-0.958-1.26-1.28
	c-0.546-0.322-1.211-0.546-1.995-0.673C118.44,182.169,117.572,182.107,116.621,182.107z"/>
<path fill="#002856" d="M192.74,127.175h6.552v29.106h-6.552V127.175z"/>
</svg>
