<?xml version="1.0" encoding="utf-8"?>
<!-- Generator: Adobe Illustrator 21.0.0, SVG Export Plug-In . SVG Version: 6.00 Build 0)  -->
<svg version="1.1" id="Layer_1" xmlns="http://www.w3.org/2000/svg" xmlns:xlink="http://www.w3.org/1999/xlink" x="0px" y="0px"
	 viewBox="0 0 283.46 283.46" enable-background="new 0 0 283.46 283.46" xml:space="preserve">
<path fill="#BCD9EA" d="M82.352,264.215c-6.236,0-13.89-4.419-17.008-9.819L5.965,151.547c-3.118-5.4-3.118-14.238,0-19.639
	L65.344,29.06c3.118-5.4,10.772-9.819,17.008-9.819h118.76c6.236,0,13.89,4.419,17.008,9.819l59.38,102.849
	c3.118,5.4,3.118,14.238,0,19.639l-59.38,102.849c-3.118,5.4-10.771,9.819-17.008,9.819H82.352z"/>
<g>
	<g>
		<path fill="#002856" d="M221.677,133.006l-24.836-43.019H86.624l-24.837,43.019c-2.769,4.797-2.769,12.646,0,17.443l32.419,56.151
			c2.771,4.798,9.567,8.723,15.106,8.723h64.839c5.539,0,12.336-3.926,15.106-8.723l32.418-56.151
			C224.447,145.652,224.447,137.803,221.677,133.006z M116.116,151.264l-2.348,7.045L83.097,145.35v-7.245l30.671-12.958
			l2.348,7.045l-23.84,9.534L116.116,151.264z M133.835,175.172h-8.824l24.063-68.885h8.67L133.835,175.172z M200.371,145.35
			l-30.67,12.959l-2.35-7.045l23.84-9.538l-23.84-9.534l2.35-7.045l30.67,12.958V145.35z"/>
	</g>
	<g>
		<path fill="#002856" d="M178.586,66.382l2.335-3.363h2.667l-3.688,5.261c0.77,0.968,1.509,1.946,2.215,2.935
			c0.707,0.988,1.289,1.917,1.746,2.788h-2.768c-0.128-0.257-0.293-0.54-0.494-0.849c-0.201-0.309-0.418-0.63-0.646-0.964
			c-0.23-0.333-0.47-0.664-0.72-0.991c-0.251-0.328-0.493-0.637-0.73-0.926c-0.492,0.57-0.975,1.202-1.445,1.894
			s-0.861,1.303-1.17,1.836h-2.591c0.208-0.422,0.462-0.866,0.765-1.332c0.303-0.467,0.627-0.943,0.973-1.431
			c0.346-0.487,0.701-0.975,1.068-1.462c0.367-0.487,0.73-0.95,1.092-1.39l-3.73-5.369h2.793L178.586,66.382z"/>
	</g>
	<g>
		<path fill="none" d="M198.108,80.658L85.359,80.653l-30.602,53.005c-2.482,4.299-2.482,11.84,0,16.139l36.499,63.219
			c2.482,4.299,9.014,8.07,13.977,8.07h72.999c4.963,0,11.494-3.771,13.977-8.07l36.499-63.219c2.482-4.299,2.482-11.84,0-16.139
			L198.108,80.658z"/>
		<path fill="#002856" d="M234.77,130.158l-36.499-63.219c-3.746-6.488-12.549-11.57-20.039-11.57h-72.999
			c-7.489,0-16.291,5.082-20.039,11.57l-36.499,63.219c-3.746,6.487-3.746,16.651,0,23.139l36.499,63.219
			c3.747,6.488,12.548,11.57,20.039,11.57h72.999c7.49,0,16.293-5.082,20.039-11.57l36.499-63.219
			C238.516,146.81,238.516,136.645,234.77,130.158z M168.609,67.09l4.043-7.002c0.346-0.598,1.193-1.088,1.884-1.088h8.085
			c0.691,0,1.539,0.49,1.884,1.088l4.043,7.002c0.345,0.598,0.345,1.577,0,2.176l-4.043,7.001c-0.345,0.599-1.192,1.088-1.884,1.088
			h-8.085c-0.69,0-1.538-0.489-1.884-1.088l-4.043-7.001C168.265,68.667,168.265,67.688,168.609,67.09z M228.708,149.797
			l-36.499,63.219c-2.482,4.299-9.014,8.07-13.977,8.07h-72.999c-4.963,0-11.494-3.771-13.977-8.07l-36.499-63.219
			c-2.482-4.299-2.482-11.84,0-16.139l30.602-53.005l112.749,0.005l30.6,53C231.19,137.957,231.19,145.498,228.708,149.797z"/>
	</g>
</g>
</svg>
