<?xml version="1.0" encoding="utf-8"?>
<!-- Generator: Adobe Illustrator 21.0.2, SVG Export Plug-In . SVG Version: 6.00 Build 0)  -->
<svg version="1.1" id="Layer_1" xmlns="http://www.w3.org/2000/svg" xmlns:xlink="http://www.w3.org/1999/xlink" x="0px" y="0px"
	 viewBox="0 0 94.8 85" style="enable-background:new 0 0 94.8 85;" xml:space="preserve">
<style type="text/css">
	.st0{display:none;}
	.st1{display:inline;}
	.st2{fill:#002856;}
	.st3{fill:none;}
	.st4{display:inline;fill:#002856;}
	.st5{fill:#BCD9EA;}
	.st6{display:inline;fill:#BCD9EA;}
</style>
<g id="icoon__x23_20" class="st0">
</g>
<g id="icoon__x23_19" class="st0">
	<g class="st1">
		<path class="st2" d="M35.2,41.5c0-0.7,0-1.4,0-2.2c-0.7,0-1.4,0-2.2,0c0,0.7,0,1.4,0,2.2C33.8,41.5,34.5,41.5,35.2,41.5z"/>
		<path class="st2" d="M48.2,61.2c-0.7,0-1.4,0-2.1,0c0,0.7,0,1.4,0,2.1c0.7,0,1.4,0,2.1,0C48.2,62.6,48.2,61.9,48.2,61.2z"/>
		<path class="st2" d="M37.4,45.8C37.4,45.8,37.4,45.8,37.4,45.8C37.4,45.8,37.4,45.8,37.4,45.8c2.2,0,4.4,0,6.6,0c0,0,0,0,0,0
			c0,0,0,0,0,0c0-0.7,0-1.4,0-2.2c0,0,0,0,0,0c0,0,0,0,0,0c-2.2,0-4.3,0-6.6,0C37.4,44.4,37.4,45.1,37.4,45.8z"/>
		<path class="st2" d="M46.2,65.5c0-0.8,0-1.5,0-2.2c-1.5,0-2.9,0-4.4,0c0,1.5,0,2.9,0,4.4c0,0,0,0,0,0c0,0,0,0,0,0
			c0.7,0,1.4,0,2.2,0c0,0,0,0,0,0c0,0,0,0,0,0c0-0.7,0-1.4,0-2.2C44.7,65.5,45.4,65.5,46.2,65.5z"/>
		<path class="st2" d="M41.8,28.5C41.8,28.5,41.8,28.5,41.8,28.5C41.8,28.4,41.8,28.4,41.8,28.5c-0.7,0-1.4,0-2.2,0
			c0,0.8,0,1.5,0,2.2c0,0,0,0,0,0c0,0,0,0,0,0c0.7,0,1.4,0,2.2,0C41.8,29.9,41.8,29.2,41.8,28.5z"/>
		<path class="st2" d="M50.4,65.5c-0.7,0-1.4,0-2.2,0c0,0.7,0,1.4,0,2.1c0.7,0,1.5,0.1,2.2,0.1C50.4,66.9,50.4,66.2,50.4,65.5z"/>
		<path class="st2" d="M37.4,48c0-0.7,0-1.4,0-2.2c0,0,0,0,0,0c0,0,0,0,0,0c-0.7,0-1.4,0-2.2,0c0,0.7,0,1.4,0,2.2
			C36,48,36.7,48,37.4,48C37.4,48,37.4,48,37.4,48C37.4,48,37.4,48,37.4,48z"/>
		<path class="st2" d="M46.1,30.6C46.1,30.6,46.1,30.6,46.1,30.6C46.2,30.6,46.2,30.6,46.1,30.6c0-0.7,0-1.4,0-2.2
			c-0.8,0-1.5,0-2.2,0c0,0,0,0,0,0c0,0,0,0,0,0c0,0.7,0,1.4,0,2.2C44.7,30.6,45.4,30.6,46.1,30.6z"/>
		<path class="st2" d="M35.2,43.7c-0.8,0-1.5,0-2.2,0c0,0.7,0,1.4,0,2.1c0.7,0,1.5,0,2.2,0C35.2,45.1,35.2,44.4,35.2,43.7z"/>
		<path class="st2" d="M54.8,35c-0.7,0-1.4,0-2.2,0c0,0.7,0,1.4,0,2.2c0.7,0,1.5,0,2.2,0C54.8,36.4,54.8,35.7,54.8,35z"/>
		<path class="st2" d="M50.4,58.9c0-0.7,0-1.4,0-2.2c-0.7,0-1.5,0-2.2,0c0,0.7,0,1.4,0,2.2C49,58.9,49.7,58.9,50.4,58.9z"/>
		<path class="st2" d="M30.9,39.4C30.9,39.4,30.9,39.4,30.9,39.4L30.9,39.4L30.9,39.4C30.9,39.4,30.9,39.4,30.9,39.4
			c-0.7,0-1.4,0-2.2,0c0,0.8,0,1.5,0,2.2c0,0,0,0,0,0c0,0,0,0,0,0c0.7,0,1.4,0,2.2,0C30.9,40.8,30.9,40.1,30.9,39.4z"/>
		<path class="st2" d="M41.8,32.8c0,0.7,0,1.4,0,2.1c0,0,0,0,0,0c0,0,0,0,0,0c0.7,0,1.4,0,2.2,0c0,0,0,0,0,0c0,0,0,0,0,0
			c0-0.7,0-1.4,0-2.1C43.2,32.8,42.5,32.8,41.8,32.8z"/>
		<path class="st2" d="M35.2,48c-0.7,0-1.4,0-2.2,0c0-0.8,0-1.5,0-2.2c-0.7,0-1.4,0-2.2,0c0,1.5,0,2.9,0,4.4c0,0,0,0,0,0
			c0,0,0,0,0,0c1.4,0,2.9,0,4.4,0C35.2,49.5,35.2,48.7,35.2,48z"/>
		<path class="st2" d="M39.6,61.2c0,0.7,0,1.4,0,2.1c0.7,0,1.4,0,2.2,0c0-0.7,0-1.4,0-2.1C41,61.2,40.3,61.2,39.6,61.2z"/>
		<path class="st2" d="M67.9,45.8C67.9,45.8,67.9,45.8,67.9,45.8c0.7,0,1.5,0,2.2,0c0-0.8,0-1.4,0-2.2c-0.7,0-1.5,0-2.2,0
			c0,0,0,0,0,0c0,0,0,0,0,0C67.9,44.4,67.9,45.1,67.9,45.8C67.9,45.8,67.9,45.8,67.9,45.8z"/>
		<path class="st2" d="M22.1,28.4c3.7,0,7.3,0,10.9,0c0-3.7,0-7.3,0-10.9c-3.6,0-7.3,0-10.9,0C22.1,21.2,22.1,24.8,22.1,28.4z
			 M24.3,19.7c2.2,0,4.3,0,6.5,0c0,2.2,0,4.3,0,6.5c-2.1,0-4.3,0-6.5,0C24.3,24.1,24.3,21.9,24.3,19.7z"/>
		<path class="st2" d="M39.6,50.2c0-0.7,0-1.4,0-2.2c-0.8,0-1.5,0-2.2,0c0,0,0,0,0,0c0,0,0,0,0,0c0,0.7,0,1.5,0,2.2
			C38.2,50.2,38.9,50.2,39.6,50.2C39.6,50.2,39.6,50.2,39.6,50.2C39.6,50.2,39.6,50.2,39.6,50.2z"/>
		<path class="st2" d="M57,58.9c2.2,0,4.4,0,6.5,0c0-2.2,0-4.3,0-6.5c-2.2,0-4.3,0-6.5,0C57,54.6,57,56.7,57,58.9z M59.2,54.6
			c0.7,0,1.4,0,2.1,0c0,0.7,0,1.4,0,2.1c-0.7,0-1.4,0-2.1,0C59.2,56,59.2,55.4,59.2,54.6z"/>
		<path class="st2" d="M93.2,37.6L74.5,5.4c-1.6-2.8-5.5-5-8.7-5H28.6c-3.2,0-7.1,2.3-8.7,5L1.3,37.6c-1.6,2.8-1.6,7.3,0,10L20,79.9
			c1.6,2.8,5.5,5,8.7,5h37.2c3.2,0,7.1-2.3,8.7-5l18.6-32.2C94.7,44.9,94.7,40.4,93.2,37.6z M59.2,15.4c5.1,0,10.1,0,15.2,0
			c0,5,0,10.1,0,15.1c-5.1,0-10.1,0-15.2,0C59.2,25.5,59.2,20.5,59.2,15.4z M72.3,32.9c0,0.7,0,1.4,0,2.1c-0.7,0-1.4,0-2.1,0
			c0-0.7,0-1.4,0-2.1C70.9,32.9,71.6,32.9,72.3,32.9z M70.1,37.2c0,0.7,0,1.4,0,2.1c-0.7,0-1.4,0-2.1,0c0-0.7,0-1.4,0-2.1
			C68.7,37.2,69.4,37.2,70.1,37.2z M67.9,32.8c0,0.7,0,1.4,0,2.1c-0.7,0-1.4,0-2.1,0c0-0.7,0-1.4,0-2.1
			C66.5,32.8,67.2,32.8,67.9,32.8z M50.5,21.9c0-0.7,0-1.4,0-2.2c0.7,0,1.4,0,2.2,0c0-0.7,0-1.4,0-2.2c0.7,0,1.4,0,2.1,0
			c0,0,0,0,0,0l0,0c0,0,0,0,0,0c0,0,0,0,0,0c0-0.7,0-1.3,0-2.1c0.8,0,1.4,0,2.2,0c0,0.7,0,1.3,0,2.1c-0.7,0-1.5,0-2.2,0c0,0,0,0,0,0
			c0,0,0,0,0,0c0,1.2,0,2.5,0,3.7c0,0.9,0,1.8,0,2.8c-0.7,0-1.4,0-2.2,0c0,0.8,0,1.5,0,2.2c0,0,0,0,0,0c0,0,0,0,0,0
			c0.7,0,1.4,0,2.2,0c0,0.8,0,1.5,0,2.2c0,0,0,0,0,0h0l0,0c0,0,0,0,0,0c0.7,0,1.4,0,2.2,0c0,0.7,0,1.4,0,2.1c-0.7,0-1.4,0-2.2,0
			c0-0.7,0-1.4,0-2.1c0,0,0,0,0,0c0,0,0,0,0,0c-0.7,0-1.4,0-2.2,0c0,0,0,0,0,0l0,0l0,0c0,0,0,0,0,0c0,0.7,0,1.4,0,2.1
			c-0.7,0-1.4,0-2.1,0c0-0.7,0-1.4,0-2.1c0.7,0,1.4,0,2.1,0c0,0,0,0,0,0c0,0,0,0,0,0c0-0.7,0-1.4,0-2.2c0,0,0,0,0,0c0,0,0,0,0,0
			c-0.7,0-1.4,0-2.1,0c0-0.7,0-1.4,0-2.2c-1.5,0-2.9,0-4.3,0c0-1.5,0-2.9,0-4.3c0.7,0,1.3,0,2.1,0c0,0.7,0,1.4,0,2.1
			C49,21.9,49.7,21.9,50.5,21.9z M46.2,15.4c0.7,0,1.4,0,2,0c0,0.7,0,1.3,0,2c-0.7,0-1.3,0-2,0C46.2,16.8,46.2,16.1,46.2,15.4z
			 M41.8,15.4c0.7,0,1.4,0,2.1,0c0,1.4,0,2.8,0,4.2c-0.7,0-1.4,0-2.1,0C41.8,18.3,41.8,16.8,41.8,15.4z M37.5,17.6
			c0.7,0,1.4,0,2.1,0c0,0.7,0,1.4,0,2.1c-0.7,0-1.4,0-2.1,0C37.5,19,37.5,18.3,37.5,17.6z M20.1,15.4c5,0,10.1,0,15.1,0
			c0,5,0,10.1,0,15.2c-5,0-10.1,0-15.1,0C20.1,25.5,20.1,20.5,20.1,15.4z M20,43.7c0.7,0,1.4,0,2.1,0c0,2.9,0,5.7,0,8.7
			c-0.7,0-1.3,0-2.1,0C20,49.5,20,46.6,20,43.7z M35.2,69.9c-5.1,0-10.1,0-15.1,0c0-5.1,0-10.1,0-15.2c5,0,10.1,0,15.1,0
			C35.2,59.7,35.2,64.8,35.2,69.9z M74.5,43.6c-0.7,0-1.4,0-2.1,0c0,0.7,0,1.4,0,2.2c0.7,0,1.4,0,2.1,0c0,1.5,0,2.9,0,4.4
			c-1.4,0-2.9,0-4.3,0c0,0,0,0,0,0c0,0,0,0,0,0c0,0.7,0,1.4,0,2.2c-0.7,0-1.4,0-2.2,0c0,1.5,0,2.9,0,4.4c-0.7,0-1.4,0-2.2,0
			c0,0.7,0,1.4,0,2.2c1.4,0,2.9,0,4.3,0c0,0,0,0,0,0c0,0,0,0,0,0c0-1.1,0-2.2,0-3.3c0-0.3,0-0.6,0-1c0.7,0,1.4,0,2.2,0
			c0-0.8,0-1.4,0-2.2c0.7,0,1.4,0,2.1,0c0,1.4,0,2.8,0,4.3c-0.7,0-1.4,0-2.1,0c0,0.7,0,1.4,0,2.2c-0.8,0-1.5,0-2.2,0c0,0,0,0,0,0
			c0,0,0,0,0,0c0,0.7,0,1.4,0,2.2c0,0,0,0,0,0c0,0,0,0,0,0c1.4,0,2.9,0,4.3,0c0,2.9,0,5.8,0,8.7c-2.1,0-4.3,0-6.5,0
			c0-0.7,0-1.4,0-2.1c1.4,0,2.8,0,4.3,0c0-1.5,0-2.9,0-4.5c-0.7,0-1.4,0-2.2,0c0,0,0,0,0,0h0h0c0,0,0,0,0,0c0,0.7,0,1.4,0,2.2
			c-0.7,0-1.4,0-2.1,0c0-0.7,0-1.4,0-2.2c0.7,0,1.4,0,2.1,0c0,0,0,0,0,0c0,0,0,0,0,0c0-0.7,0-1.4,0-2.2c0,0,0,0,0,0c0,0,0,0,0,0
			c-1.4,0-2.9,0-4.3,0c0,0.7,0,1.4,0,2.2c-0.8,0-1.5,0-2.2,0c0,0,0,0,0,0c0,0,0,0,0,0c0,0.7,0,1.5,0,2.2c0,0,0,0,0,0c0,0,0,0,0,0
			c0.7,0,1.4,0,2.2,0c0,0.7,0,1.4,0,2.1c-0.7,0-1.4,0-2.2,0c0-0.7,0-1.4,0-2.1c0,0,0,0,0,0l0,0v0c0,0,0,0,0,0c-0.7,0-1.5,0-2.2,0
			c0,0,0,0,0,0c0,0,0,0,0,0c0,1.4,0,2.9,0,4.4c-0.7,0-1.4,0-2.1,0c0-1.4,0-2.8,0-4.4c0.7,0,1.4,0,2.1,0c0,0,0,0,0,0l0,0c0,0,0,0,0,0
			c0-0.7,0-1.4,0-2.2c0,0,0,0,0,0c0,0,0,0,0,0c-0.7,0-1.4,0-2.1,0c0-0.7,0-1.4,0-2.1c-2.9,0-5.8,0-8.8,0c0,0.7,0,1.4,0,2.2
			c2.2,0,4.3,0,6.5,0c0,0.7,0,1.4,0,2.2c-1.4,0-2.8,0-4.3,0c0,1.5,0,2.9,0,4.4c-1.5,0-2.9,0-4.3,0c0-0.7-0.1-1.5-0.1-2.2
			c-0.8,0-1.5,0-2.3,0c-0.6,0-1.3,0-1.9,0c0,0,0,0,0,0c0,0,0,0,0,0c0,0.7,0,1.4,0,2.1c-0.7,0-1.4,0-2.2,0c0-0.7,0-1.4,0-2.1
			c0,0,0,0,0,0c0,0,0,0,0,0c-0.7,0-1.4,0-2.2,0c0,0.7,0,1.4,0,2.2c-0.7,0-1.4,0-2.2,0c0-3.6,0-7.2,0-10.9c0.7,0,1.4,0,2.1,0
			c0-0.7,0-1.4,0-2.2c-0.7,0-1.4,0-2.1,0c0-1.5,0-2.9,0-4.4c-2.2,0-4.4,0-6.6,0c0-0.8,0-1.5,0-2.2c0,0,0,0,0,0c0,0,0,0,0,0
			c-1.4,0-2.9,0-4.4,0c0,0.7,0,1.4,0,2.2c-0.7,0-1.4,0-2.2,0c0-2.2,0-4.3,0-6.5c1.4,0,2.9,0,4.3,0c0-1.5,0-2.9,0-4.3c0,0,0,0,0,0
			c0,0,0,0,0,0c-0.7,0-1.4,0-2.2,0c0,0,0,0,0,0c0,0,0,0,0,0c0,0.7,0,1.3,0,2.1c-0.7,0-1.4,0-2.1,0c0-0.7,0-1.3,0-2.1
			c0.7,0,1.4,0,2.1,0c0,0,0,0,0,0c0,0,0,0,0,0c0-2.2,0-4.3,0-6.5c-1.5,0-2.9,0-4.4,0c0,0.7,0,1.4,0,2.2c0.7,0,1.4,0,2.1,0
			c0,0.7,0,1.4,0,2.2c-0.7,0-1.4,0-2.1,0c0,0.7,0,1.4,0,2.2c-0.7,0-1.4,0-2.1,0c0-2.9,0-5.8,0-8.7c3.6,0,7.2,0,10.8,0
			c0,2.2,0,4.3,0,6.5c0,0,0,0,0,0c0,0,0,0,0,0c0.7,0,1.4,0,2.2,0c0-0.7,0-1.4,0-2.1c2.2,0,4.3,0,6.5,0c0,1.4,0,2.9,0,4.3
			c1.5,0,2.9,0,4.4,0c0,0.7,0,1.4,0,2.1c0,0,0,0,0,0c0,0,0,0,0,0c0.7,0,1.4,0,2.2,0c0-1.4,0-2.8,0-4.2c0.7,0,1.4,0,2.1,0
			c0,0.7,0,1.4,0,2.1c0.7,0,1.4,0,2.2,0c0,0.7,0,1.4,0,2.1c-0.7,0-1.4,0-2.1,0c0,0.7,0,1.4,0,2.2c-1.5,0-2.9,0-4.3,0c0,0,0,0,0,0
			c0,0,0,0,0,0c0,0.7,0,1.4,0,2.2c0,0,0,0,0,0c0,0,0,0,0,0c1.4,0,2.8,0,4.3,0c0,0.8,0,1.5,0,2.2c0,0,0,0,0,0c0,0,0,0,0,0
			c1.4,0,2.9,0,4.4,0c0,0.7,0,1.4,0,2.2c0.8,0,1.5,0,2.2,0c0-1.5,0-2.9,0-4.4c-0.7,0-1.4,0-2.1,0c0-0.7,0-1.4,0-2.2
			c0.7,0,1.4,0,2.1,0c0-0.7,0-1.4,0-2.2c-0.7,0-1.4,0-2.1,0c0-0.2,0-0.4,0-0.5c0-1.8,0-3.6,0-5.5c0-0.2,0-0.3,0-0.5
			c-0.7,0-1.4,0-2.1,0c0-0.7,0-1.4,0-2.2c-0.8,0-1.5,0-2.2,0c0,0.7,0,1.4,0,2.1c-0.7,0-1.4,0-2.1,0c0-0.7,0-1.4,0-2.2
			c-0.8,0-1.5,0-2.2,0c0,0,0,0,0,0c0,0,0,0,0,0c0,1.4,0,2.9,0,4.3c-0.7,0-1.4,0-2.2,0c0-1.4,0-2.9,0-4.3c0,0,0,0,0,0c0,0,0,0,0,0
			c-2.9,0-5.8,0-8.7,0c0-0.7,0-1.4,0-2.2c2.2,0,4.3,0,6.5,0c0-0.8,0-1.5,0-2.2c0,0,0,0,0,0c0,0,0,0,0,0c-0.7,0-1.4,0-2.1,0
			c0-1.5,0-2.9,0-4.3c0.7,0,1.4,0,2.1,0c0-0.7,0-1.4,0-2.2c-0.7,0-1.4,0-2.1,0c0-0.7,0-1.4,0-2.2c2.1,0,4.3,0,6.5,0
			c0,0.7,0,1.4,0,2.1c-0.7,0-1.4,0-2.1,0c0,1.5,0,2.9,0,4.4c0,0,0,0,0,0c0,0,0,0,0,0c0.7,0,1.4,0,2.2,0c0,0,0,0,0,0c0,0,0,0,0,0
			c0-0.7,0-1.4,0-2.1c1.4,0,2.8,0,4.3,0c0,1.4,0,2.8,0,4.3c-0.7,0-1.4,0-2.1,0c0,0,0,0,0,0c0,0,0,0,0,0c0,0.7,0,1.4,0,2.2
			c4.3,0,8.7,0,13,0c0,1.5,0,2.9,0,4.4c0.8,0,1.5,0,2.2,0c0-1.4,0-2.9,0-4.3c0.7,0,1.4,0,2.1,0c0,2.1,0,4.3,0,6.5
			c-0.7,0-1.4,0-2.2,0c0,0.8,0,1.6,0,2.4c0,0.6,0,1.2,0,1.9c0.7,0,1.5,0,2.2,0.1c0,0,0,0,0,0c0,0,0,0,0,0c0-0.7,0-1.3,0-2
			c0.7,0,1.4,0,2.2,0c0,0.7,0,1.4,0,2c0,0,0,0,0,0c0,0,0,0,0,0c0.7,0,1.4,0,2.2,0c0,0,0,0,0,0c0,0,0,0,0,0c0-0.7,0-1.3,0-2.1
			c1.5,0,2.9,0,4.4,0c0-1.5,0-2.9,0-4.4c0.7,0,1.4,0,2.2,0C74.5,39.4,74.5,41.5,74.5,43.6z"/>
		<path class="st2" d="M41.8,50.2c-0.8,0-1.5,0-2.2,0c0,0,0,0,0,0c0,0,0,0,0,0c0,1.5,0,2.9,0,4.4c0.8,0,1.5,0,2.2,0c0,0,0,0,0,0
			c0,0,0,0,0,0c0-0.7,0-1.4,0-2.1c1.5,0,2.9,0,4.3,0c0,0.7,0,1.4,0,2.1c-1.5,0-2.9,0-4.3,0c0,0,0,0,0,0c0,0,0,0,0,0
			c0,1.5,0,2.9,0,4.4c0.8,0,1.5,0,2.2,0c0-0.7,0-1.4,0-2.1c0.3,0,0.5,0,0.7,0c1.2,0,2.4,0,3.6,0c0-0.7,0-1.4,0-2.2
			c0.8,0,1.5,0,2.2,0c0-0.8,0-1.4,0-2.2c-0.7,0-1.4,0-2.2,0c0-0.8,0-1.5,0-2.2c0,0,0,0,0,0c0,0,0,0,0,0c-1.4,0-2.8,0-4.3,0
			c0-0.8,0-1.5,0-2.2c0,0,0,0,0,0c0,0,0,0,0,0c-0.7,0-1.4,0-2.2,0C41.8,48.8,41.8,49.5,41.8,50.2z"/>
		<path class="st2" d="M67.9,48C67.9,48,67.9,48,67.9,48C67.9,48,67.9,48,67.9,48c0,0.7,0,1.5,0,2.2c0.8,0,1.5,0,2.2,0c0,0,0,0,0,0
			c0,0,0,0,0,0c0-0.7,0-1.4,0-2.2C69.4,48,68.6,48,67.9,48z"/>
		<path class="st2" d="M61.4,28.4c3.7,0,7.3,0,10.9,0c0-3.6,0-7.3,0-10.9c-3.7,0-7.3,0-10.9,0C61.4,21.2,61.4,24.8,61.4,28.4z
			 M63.6,19.7c2.2,0,4.3,0,6.5,0c0,2.2,0,4.3,0,6.5c-2.2,0-4.3,0-6.5,0C63.6,24.1,63.6,21.9,63.6,19.7z"/>
		<path class="st2" d="M52.7,59c0.7,0,1.4,0,2.1,0c0-1.5,0-2.9,0-4.3c-0.7,0-1.4,0-2.1,0C52.7,56.1,52.7,57.5,52.7,59z"/>
		<path class="st2" d="M59.2,39.4c-0.8,0-1.5,0-2.2,0c0,2.9,0,5.7,0,8.6c0.7,0,1.4,0,2.2,0c0-0.7,0-1.4,0-2.2c0.7,0,1.4,0,2.2,0
			c0-0.8-0.1-1.5-0.1-2.2c-0.7,0-1.4,0-2.1,0C59.2,42.2,59.2,40.8,59.2,39.4z"/>
		<path class="st2" d="M65.8,50.2c0-0.7,0-1.4,0-2.2c0.8,0,1.4,0,2.1,0c0,0,0,0,0,0c0,0,0,0,0,0c0-0.7,0-1.4,0-2.2c0,0,0,0,0,0
			c0,0,0,0,0,0c-0.7,0-1.4,0-2.2,0c0-0.7,0-1.5,0-2.2c0,0,0,0,0,0c0,0,0,0,0,0c-0.7,0-1.4,0-2.2,0c0,0,0,0,0,0c0,0,0,0,0,0
			c0,2.2,0,4.3,0,6.5C64.3,50.2,65,50.2,65.8,50.2z"/>
		<path class="st2" d="M61.4,61.2c0,0.7,0,1.4,0,2.1c0,0,0,0,0,0c0,0,0,0,0,0c0.7,0,1.4,0,2.2,0c0,0,0,0,0,0c0,0,0,0,0,0
			c0-0.7,0-1.4,0-2.1C62.8,61.2,62.1,61.2,61.4,61.2z"/>
		<path class="st2" d="M33,56.8c-3.7,0-7.3,0-10.9,0c0,3.6,0,7.2,0,10.9c3.7,0,7.3,0,10.9,0C33,64,33,60.4,33,56.8z M30.8,65.5
			c-2.1,0-4.3,0-6.5,0c0-2.1,0-4.3,0-6.5c2.2,0,4.3,0,6.5,0C30.8,61.1,30.8,63.3,30.8,65.5z"/>
		<path d="M37.4,48C37.4,48,37.4,48,37.4,48C37.4,48,37.4,48,37.4,48L37.4,48z"/>
		<path d="M70.1,58.9C70.1,58.9,70.1,58.9,70.1,58.9C70.1,58.9,70.1,58.9,70.1,58.9L70.1,58.9z"/>
		<path d="M48.3,50.2C48.3,50.2,48.3,50.2,48.3,50.2L48.3,50.2C48.2,50.2,48.3,50.2,48.3,50.2z"/>
		<path d="M41.8,54.6C41.8,54.6,41.8,54.6,41.8,54.6C41.8,54.6,41.8,54.6,41.8,54.6L41.8,54.6z"/>
		<path d="M39.6,50.2C39.6,50.2,39.6,50.2,39.6,50.2C39.6,50.2,39.6,50.2,39.6,50.2L39.6,50.2z"/>
		<path d="M46.1,30.6C46.2,30.6,46.2,30.6,46.1,30.6L46.1,30.6C46.1,30.6,46.1,30.6,46.1,30.6z"/>
		<ellipse transform="matrix(0.8303 -0.5573 0.5573 0.8303 -13.9005 41.5747)" cx="61.3" cy="43.6" rx="0" ry="0"/>
		<path d="M63.5,43.6C63.5,43.6,63.5,43.7,63.5,43.6C63.5,43.7,63.6,43.7,63.5,43.6L63.5,43.6z"/>
		<path d="M67.9,48C67.9,48,67.9,48,67.9,48L67.9,48C67.9,48,67.9,48,67.9,48z"/>
		<path d="M70.1,61.1C70.1,61.1,70.1,61.1,70.1,61.1C70.1,61.1,70.1,61.1,70.1,61.1L70.1,61.1z"/>
		<path d="M44,35C44,35,44,35,44,35C44,35,44,35,44,35L44,35z"/>
		<ellipse transform="matrix(0.7423 -0.67 0.67 0.7423 -25.5991 46.9537)" cx="48.2" cy="56.8" rx="0" ry="0"/>
		<path d="M44,28.4C44,28.4,44,28.4,44,28.4C44,28.5,44,28.5,44,28.4L44,28.4z"/>
		<path d="M41.8,35C41.8,35,41.8,35,41.8,35L41.8,35C41.8,35,41.8,35,41.8,35z"/>
		<path d="M39.6,30.6C39.6,30.6,39.6,30.6,39.6,30.6C39.6,30.6,39.6,30.6,39.6,30.6L39.6,30.6z"/>
		<path d="M41.8,28.5C41.8,28.4,41.8,28.4,41.8,28.5L41.8,28.5C41.8,28.5,41.8,28.5,41.8,28.5z"/>
		<ellipse transform="matrix(0.6657 -0.7462 0.7462 0.6657 -10.1582 51.6997)" cx="52.6" cy="37.2" rx="0" ry="0"/>
		<ellipse transform="matrix(0.6679 -0.7442 0.7442 0.6679 -31.7972 55.377)" cx="46.2" cy="63.3" rx="0" ry="0"/>
		<ellipse transform="matrix(0.4995 -0.8663 0.8663 0.4995 -34.4664 75.6205)" cx="48.2" cy="67.6" rx="0" ry="0"/>
		<path d="M41.8,67.7C41.8,67.7,41.8,67.7,41.8,67.7L41.8,67.7C41.8,67.7,41.8,67.7,41.8,67.7z"/>
		<ellipse transform="matrix(0.7615 -0.6482 0.6482 0.7615 -31.0765 42.1913)" cx="41.8" cy="63.3" rx="0" ry="0"/>
		<path d="M30.9,50.2C30.9,50.2,30.9,50.2,30.9,50.2C30.9,50.2,30.9,50.2,30.9,50.2L30.9,50.2z"/>
		<path d="M70.1,50.2C70.1,50.2,70.1,50.2,70.1,50.2L70.1,50.2C70.1,50.2,70.1,50.2,70.1,50.2z"/>
		<path d="M61.4,63.3C61.4,63.3,61.4,63.3,61.4,63.3L61.4,63.3C61.4,63.3,61.4,63.3,61.4,63.3z"/>
		<path d="M63.6,63.3C63.6,63.3,63.6,63.3,63.6,63.3C63.6,63.3,63.5,63.3,63.6,63.3L63.6,63.3z"/>
		<path d="M44,67.7C44,67.7,44,67.7,44,67.7C44,67.7,44,67.7,44,67.7L44,67.7z"/>
		<path d="M37.4,45.8C37.4,45.8,37.4,45.8,37.4,45.8C37.4,45.8,37.4,45.8,37.4,45.8L37.4,45.8z"/>
		<path d="M30.9,50.2C30.9,50.2,30.9,50.2,30.9,50.2L30.9,50.2C30.9,50.2,30.9,50.2,30.9,50.2z"/>
		<path d="M30.9,39.4C30.9,39.4,30.9,39.4,30.9,39.4L30.9,39.4C30.9,39.4,30.9,39.4,30.9,39.4z"/>
		<ellipse transform="matrix(0.7167 -0.6974 0.6974 0.7167 -18.0953 34.203)" cx="33" cy="39.4" rx="0" ry="0"/>
		<path d="M28.7,41.6C28.7,41.6,28.7,41.6,28.7,41.6C28.7,41.6,28.7,41.6,28.7,41.6L28.7,41.6z"/>
		<path d="M44,43.6C44,43.6,44,43.6,44,43.6C44,43.6,44,43.6,44,43.6L44,43.6z"/>
		<path d="M26.5,41.6C26.5,41.6,26.5,41.5,26.5,41.6C26.5,41.5,26.5,41.5,26.5,41.6L26.5,41.6z"/>
		<path d="M30.9,39.4C30.9,39.4,30.9,39.4,30.9,39.4C30.9,39.4,30.9,39.4,30.9,39.4L30.9,39.4z"/>
		<path d="M28.7,41.5C28.7,41.6,28.7,41.6,28.7,41.5L28.7,41.5C28.7,41.5,28.7,41.5,28.7,41.5z"/>
		<path d="M67.9,43.6C67.9,43.6,67.9,43.6,67.9,43.6L67.9,43.6C67.9,43.7,67.9,43.6,67.9,43.6z"/>
		<path d="M67.9,45.8C67.9,45.8,67.9,45.8,67.9,45.8C67.9,45.8,67.9,45.8,67.9,45.8L67.9,45.8z"/>
		<path d="M70.1,50.2C70.1,50.2,70.1,50.2,70.1,50.2C70.1,50.2,70.1,50.2,70.1,50.2L70.1,50.2z"/>
		<path d="M67.9,48C67.9,48,67.9,48,67.9,48C67.9,48,67.9,48,67.9,48L67.9,48z"/>
		<path d="M54.8,17.5C54.8,17.5,54.8,17.5,54.8,17.5C54.8,17.5,54.8,17.5,54.8,17.5L54.8,17.5z"/>
		<path d="M52.6,26.2C52.6,26.2,52.6,26.2,52.6,26.2C52.6,26.3,52.6,26.3,52.6,26.2L52.6,26.2z"/>
		<path d="M39.6,30.6C39.6,30.6,39.6,30.6,39.6,30.6L39.6,30.6C39.6,30.6,39.6,30.6,39.6,30.6z"/>
		<path d="M41.8,28.4C41.8,28.4,41.8,28.4,41.8,28.4C41.8,28.4,41.8,28.4,41.8,28.4L41.8,28.4z"/>
		<path d="M70.1,63.3C70.1,63.3,70.1,63.3,70.1,63.3C70.1,63.3,70.1,63.3,70.1,63.3C70.1,63.3,70.1,63.3,70.1,63.3z"/>
		<path d="M70.1,61.1C70.1,61.1,70.1,61.1,70.1,61.1L70.1,61.1C70.1,61.1,70.1,61.1,70.1,61.1z"/>
		<path d="M44,43.7C44,43.6,44,43.6,44,43.7L44,43.7C44,43.7,44,43.7,44,43.7z"/>
		<path d="M44,45.8C44,45.8,44,45.8,44,45.8C44,45.8,44,45.8,44,45.8L44,45.8z"/>
		<path d="M44,48C44,48,44,48,44,48C44,48,44,48,44,48L44,48z"/>
		<path d="M37.4,45.8C37.4,45.8,37.4,45.8,37.4,45.8L37.4,45.8C37.4,45.8,37.4,45.8,37.4,45.8z"/>
		<path d="M39.6,50.2C39.6,50.2,39.6,50.2,39.6,50.2C39.6,50.2,39.6,50.2,39.6,50.2L39.6,50.2z"/>
		<path d="M44,45.8C44,45.8,44,45.8,44,45.8L44,45.8C44,45.8,44,45.8,44,45.8z"/>
		<path d="M37.4,48C37.4,48,37.4,48,37.4,48C37.4,48,37.4,48,37.4,48L37.4,48z"/>
		<path d="M70.1,58.9C70.1,58.9,70.1,58.9,70.1,58.9L70.1,58.9C70.1,58.9,70.1,58.9,70.1,58.9z"/>
		<path d="M46.2,30.6C46.2,30.6,46.2,30.6,46.2,30.6C46.2,30.6,46.2,30.6,46.2,30.6L46.2,30.6z"/>
		<path d="M44,28.4C44,28.4,44,28.4,44,28.4L44,28.4C44,28.4,44,28.4,44,28.4z"/>
		<path d="M41.8,35C41.8,35,41.8,35,41.8,35C41.8,35,41.8,35,41.8,35L41.8,35z"/>
		<path d="M44,35C44,35,44,35,44,35L44,35C44,35,44,35,44,35z"/>
		<path d="M61.3,65.5L61.3,65.5C61.3,65.5,61.3,65.5,61.3,65.5C61.3,65.5,61.3,65.5,61.3,65.5C61.3,65.5,61.3,65.5,61.3,65.5
			L61.3,65.5z"/>
		<path d="M48.3,50.2C48.3,50.2,48.2,50.2,48.3,50.2C48.2,50.2,48.2,50.2,48.3,50.2L48.3,50.2z"/>
		<path d="M44,48C44,48,44,48,44,48L44,48C44,48,44,48,44,48z"/>
		<path d="M41.8,67.7C41.8,67.7,41.8,67.7,41.8,67.7C41.8,67.7,41.8,67.7,41.8,67.7L41.8,67.7z"/>
		<path d="M44,67.7C44,67.7,44,67.7,44,67.7L44,67.7C44,67.7,44,67.7,44,67.7z"/>
		<polygon points="63.5,65.5 63.5,65.5 63.5,65.5 		"/>
		<path d="M63.5,65.5C63.5,65.5,63.5,65.5,63.5,65.5C63.5,65.5,63.5,65.5,63.5,65.5C63.5,65.5,63.5,65.5,63.5,65.5z"/>
		<path d="M61.4,63.3C61.4,63.3,61.4,63.3,61.4,63.3C61.4,63.3,61.4,63.3,61.4,63.3L61.4,63.3z"/>
		<path d="M63.5,63.3C63.5,63.3,63.6,63.3,63.5,63.3L63.5,63.3C63.5,63.3,63.5,63.3,63.5,63.3z"/>
		<path d="M61.3,65.5C61.3,65.5,61.3,65.5,61.3,65.5C61.3,65.5,61.3,65.5,61.3,65.5C61.3,65.5,61.3,65.5,61.3,65.5z"/>
		<path d="M63.5,65.5C63.5,65.5,63.5,65.5,63.5,65.5C63.5,65.5,63.5,65.5,63.5,65.5C63.5,65.5,63.5,65.5,63.5,65.5z"/>
		<path d="M61.3,65.5L61.3,65.5L61.3,65.5z"/>
		<polygon points="63.5,65.5 63.5,65.5 63.5,65.5 		"/>
		<path d="M52.6,28.4C52.6,28.4,52.6,28.4,52.6,28.4C52.6,28.4,52.6,28.4,52.6,28.4L52.6,28.4z"/>
		<path d="M54.8,28.4C54.8,28.4,54.8,28.4,54.8,28.4C54.8,28.4,54.8,28.5,54.8,28.4C54.8,28.5,54.8,28.4,54.8,28.4z"/>
		<path d="M52.6,26.3C52.6,26.3,52.6,26.3,52.6,26.3L52.6,26.3C52.6,26.3,52.6,26.3,52.6,26.3z"/>
		<path d="M52.6,28.4L52.6,28.4C52.6,28.4,52.6,28.4,52.6,28.4C52.6,28.4,52.6,28.4,52.6,28.4z"/>
		<path d="M54.8,28.5C54.8,28.5,54.8,28.4,54.8,28.5L54.8,28.5C54.8,28.5,54.8,28.5,54.8,28.5z"/>
		<polygon points="54.8,28.4 54.8,28.4 54.8,28.5 		"/>
		<path d="M67.9,43.6C67.9,43.6,67.9,43.7,67.9,43.6C67.9,43.7,67.9,43.7,67.9,43.6L67.9,43.6z"/>
		<path d="M67.9,45.8C67.9,45.8,67.9,45.8,67.9,45.8L67.9,45.8C67.9,45.8,67.9,45.8,67.9,45.8z"/>
		<path d="M65.7,43.7C65.7,43.7,65.7,43.6,65.7,43.7L65.7,43.7C65.7,43.7,65.7,43.7,65.7,43.7z"/>
		<path d="M70.1,63.3L70.1,63.3L70.1,63.3z"/>
		<path d="M70.1,63.3C70.1,63.3,70.1,63.3,70.1,63.3L70.1,63.3C70.1,63.3,70.1,63.3,70.1,63.3z"/>
		<polygon points="70.1,63.3 70.1,63.3 70.1,63.3 		"/>
		<path d="M26.5,41.6C26.5,41.6,26.5,41.6,26.5,41.6L26.5,41.6C26.5,41.5,26.5,41.6,26.5,41.6z"/>
		<path d="M65.7,43.6C65.7,43.6,65.7,43.6,65.7,43.6C65.7,43.6,65.7,43.7,65.7,43.6L65.7,43.6z"/>
		<path d="M63.6,43.6C63.6,43.6,63.5,43.6,63.6,43.6L63.6,43.6C63.6,43.7,63.6,43.6,63.6,43.6z"/>
		<path d="M54.8,17.5C54.8,17.5,54.8,17.5,54.8,17.5C54.8,17.5,54.8,17.5,54.8,17.5C54.8,17.5,54.8,17.5,54.8,17.5z"/>
		<path d="M41.8,54.6C41.8,54.6,41.8,54.6,41.8,54.6L41.8,54.6C41.8,54.6,41.8,54.6,41.8,54.6z"/>
		<ellipse transform="matrix(0.6482 -0.7615 0.7615 0.6482 -24.1668 43.7242)" cx="35.2" cy="48" rx="0" ry="0"/>
		<ellipse transform="matrix(0.6873 -0.7264 0.7264 0.6873 -22.2739 39.9258)" cx="35.2" cy="45.8" rx="0" ry="0"/>
		<ellipse transform="matrix(0.7264 -0.6873 0.6873 0.7264 -22.4612 35.2562)" cx="33" cy="45.8" rx="0" ry="0"/>
	</g>
</g>
<g id="icoon__x23_18" class="st0">
	<g class="st1">
		<g>
			<path class="st2" d="M18.2,76.9l1.7,3c1.6,2.8,5.5,5,8.7,5h37.2c3.2,0,7.1-2.3,8.7-5l18.6-32.2c1.6-2.8,1.6-7.3,0-10l-7-12h-68
				V76.9z M24.2,31.1c9.9,0,19.7,0,29.6,0c0,9.9,0,19.7,0,29.6c-9.9,0-19.7,0-29.6,0C24.2,50.8,24.2,41,24.2,31.1z"/>
			<path class="st2" d="M28.3,56.4c7.2,0,14.2,0,21.3,0c0-7.1,0-14.2,0-21.3c-7.1,0-14.2,0-21.3,0C28.3,42.3,28.3,49.3,28.3,56.4z
				 M32.6,39.5c4.2,0,8.4,0,12.6,0c0,4.2,0,8.4,0,12.7c-4.2,0-8.4,0-12.6,0C32.6,47.9,32.6,43.7,32.6,39.5z"/>
			<path class="st2" d="M84.1,22L74.5,5.4c-1.6-2.8-5.5-5-8.7-5H28.6c-3.2,0-7.1,2.3-8.7,5L1.3,37.6c-1.6,2.8-1.6,7.3,0,10
				l13.3,23.1V22H84.1z"/>
		</g>
		<g>
			<path class="st2" d="M37.2,42.3l1.3-0.2v1.7h2v1.1h-2v2.3c0,0.4,0.1,0.8,0.2,1c0.1,0.2,0.4,0.3,0.7,0.3c0.2,0,0.4,0,0.6-0.1
				c0.2-0.1,0.3-0.1,0.4-0.1l0.2,1c-0.2,0.1-0.3,0.1-0.6,0.2c-0.2,0.1-0.5,0.1-0.9,0.1c-0.4,0-0.7-0.1-1-0.2
				c-0.3-0.1-0.5-0.3-0.6-0.5s-0.3-0.4-0.3-0.7s-0.1-0.6-0.1-1L37.2,42.3L37.2,42.3z"/>
		</g>
	</g>
</g>
<g id="icoon__x23_17" class="st0">
	<g class="st1">
		<rect x="35" y="37.5" class="st3" width="9.9" height="35.1"/>
		<rect x="22.8" y="18.2" class="st3" width="9.9" height="54.4"/>
		<rect x="47.2" y="25.8" class="st3" width="9.9" height="46.8"/>
		<rect x="59.4" y="51.9" class="st3" width="9.9" height="1"/>
		<rect x="59.4" y="55.1" class="st3" width="9.9" height="17.5"/>
		<path class="st2" d="M65.6,46.7c0.1,0,0.2,0,0.2-0.1s0.1-0.2,0.1-0.4s0-0.3-0.1-0.4c-0.1-0.1-0.1-0.1-0.2-0.1
			c-0.1,0-0.2,0-0.2,0.1s-0.1,0.2-0.1,0.4c0,0.2,0,0.3,0.1,0.4S65.5,46.7,65.6,46.7z"/>
		<path class="st2" d="M62.7,47.9c0,0.1,0.1,0.2,0.2,0.2c0.1,0.1,0.1,0.1,0.2,0.1s0.2,0,0.2-0.1c0.1-0.1,0.1-0.1,0.2-0.2
			s0.1-0.2,0.1-0.4c0-0.1,0-0.3,0-0.5s0-0.3,0-0.5c0-0.1,0-0.3-0.1-0.4c0-0.1-0.1-0.2-0.2-0.2c-0.1-0.1-0.1-0.1-0.2-0.1
			c-0.1,0-0.2,0-0.2,0.1c-0.1,0.1-0.1,0.1-0.2,0.2c0,0.1-0.1,0.2-0.1,0.4c0,0.1,0,0.3,0,0.5s0,0.3,0,0.5S62.6,47.8,62.7,47.9z"/>
		<path class="st2" d="M68,47.5c-0.1,0.1-0.1,0.2-0.1,0.4s0,0.3,0.1,0.4c0.1,0.1,0.1,0.1,0.2,0.1c0.1,0,0.2,0,0.2-0.1
			c0.1-0.1,0.1-0.2,0.1-0.4s0-0.3-0.1-0.4c-0.1-0.1-0.1-0.1-0.2-0.1C68.1,47.4,68,47.5,68,47.5z"/>
		<path class="st2" d="M93.2,37.6L74.5,5.4c-1.6-2.8-5.5-5-8.7-5H28.6c-3.2,0-7.1,2.3-8.7,5L1.3,37.6c-1.6,2.8-1.6,7.3,0,10L20,79.9
			c1.6,2.8,5.5,5,8.7,5h37.2c3.2,0,7.1-2.3,8.7-5l18.6-32.2C94.7,44.9,94.7,40.4,93.2,37.6z M69.1,47.9c0,0.3-0.1,0.6-0.2,0.7
			c-0.2,0.2-0.4,0.3-0.7,0.3s-0.5-0.1-0.7-0.3c-0.2-0.2-0.2-0.4-0.2-0.7c0-0.3,0.1-0.6,0.2-0.7s0.4-0.3,0.7-0.3s0.5,0.1,0.7,0.3
			S69.1,47.6,69.1,47.9z M68.3,45.3l-2,3.6h-0.7l2-3.6H68.3z M65,45.4c0.2-0.2,0.4-0.3,0.7-0.3s0.5,0.1,0.7,0.3
			c0.2,0.2,0.2,0.4,0.2,0.7c0,0.3-0.1,0.6-0.2,0.7c-0.2,0.2-0.4,0.3-0.7,0.3s-0.5-0.1-0.7-0.3s-0.2-0.4-0.2-0.7
			C64.7,45.9,64.8,45.6,65,45.4z M61.9,46.3c0.1-0.2,0.1-0.4,0.3-0.6s0.3-0.3,0.4-0.4s0.3-0.1,0.5-0.1c0.4,0,0.7,0.2,0.9,0.5
			c0.2,0.3,0.3,0.8,0.3,1.4c0,0.6-0.1,1.1-0.3,1.4c-0.2,0.3-0.5,0.5-0.9,0.5s-0.7-0.2-0.9-0.5c-0.2-0.3-0.3-0.8-0.3-1.4
			C61.8,46.8,61.8,46.5,61.9,46.3z M32.6,72.6h-9.9V18.2h9.9V72.6z M44.9,72.6H35V37.5h9.9V72.6z M57.1,72.6h-9.9V25.8h9.9V72.6z
			 M58.9,40.8h0.9v-1h0.7v1h0.9v0.6h-0.9v1h-0.7v-1h-0.9V40.8z M59,46c0.1,0,0.2-0.1,0.3-0.1s0.2-0.1,0.3-0.2
			c0.1-0.1,0.2-0.1,0.3-0.2c0.1-0.1,0.2-0.1,0.3-0.2h0.5v3.6H60v-2.6c-0.1,0.1-0.2,0.1-0.3,0.2c-0.1,0.1-0.3,0.1-0.4,0.1L59,46z
			 M69.2,72.6h-9.9V55.1h9.9V72.6z M69.2,52.9h-9.9v-1h9.9V52.9z"/>
	</g>
</g>
<g id="icoon__x23_16" class="st0">
	<g class="st1">
		<path class="st2" d="M93.2,37.5L74.5,5.2c-1.6-2.8-5.5-5-8.7-5H28.6c-3.2,0-7.1,2.3-8.7,5L1.3,37.5c-1.6,2.8-1.6,7.3,0,10L20,79.7
			c0.3,0.5,0.6,0.9,1,1.4l0-11c-0.1-1.2,0.1-2.4,0.6-3.3l10.4-18c0.9-1.5,3.1-2.8,4.8-2.8h20.8c1.8,0,4,1.3,4.8,2.8l10.4,18
			c0.5,0.9,0.7,2.2,0.6,3.3l0,11c0.4-0.4,0.7-0.9,1-1.4l18.6-32.2C94.7,44.7,94.7,40.2,93.2,37.5z M61.5,30.9l-5.8,10
			c-0.5,0.9-1.7,1.6-2.7,1.6H41.5c-1,0-2.2-0.7-2.7-1.6l-5.8-10c-0.5-0.9-0.5-2.3,0-3.1l5.8-10c0.5-0.9,1.7-1.6,2.7-1.6H53
			c1,0,2.2,0.7,2.7,1.6l5.8,10C62,28.6,62,30,61.5,30.9z"/>
	</g>
</g>
<g id="icoon__x23_15" class="st0">
	<g class="st1">
		<path class="st2" d="M50.6,17.1h-6.5c-0.5,0-0.9,0.3-0.9,0.7c0,0.4,0.4,0.7,0.9,0.7h6.5c0.5,0,0.9-0.3,0.9-0.7
			C51.5,17.5,51.1,17.1,50.6,17.1z"/>
		<path class="st2" d="M93.2,37.6L74.5,5.4c-1.6-2.8-5.5-5-8.7-5H28.6c-3.2,0-7.1,2.3-8.7,5L1.3,37.6c-1.6,2.8-1.6,7.3,0,10L20,79.9
			c0.1,0.2,0.3,0.4,0.4,0.6V17.9c0-4.2,3.4-7.6,7.6-7.6h37.9c4.2,0,7.6,3.4,7.6,7.6v63.5c0.5-0.5,0.8-1,1.1-1.5l18.6-32.2
			C94.7,44.9,94.7,40.4,93.2,37.6z"/>
		<circle class="st2" cx="40.1" cy="17.9" r="1"/>
		<path class="st2" d="M65.9,84.9c1.3,0,2.7-0.4,4-1V21.8H23.9v61.8c1.5,0.8,3.2,1.3,4.7,1.3L65.9,84.9L65.9,84.9z M33.4,47.9l5-8.7
			c0.8-1.3,2.2-2.2,3.8-2.2h10c1.5,0,3,0.8,3.8,2.2l1.3,2.3l-7.5,12.9c-0.1,0.2-0.8,1.1-1.8,0.6c-1.1-0.7-0.5-1.8-0.5-1.8v0l2.7-4.8
			c0,0,1-1.8-0.6-2.7c-1.6-0.9-2.6,0.9-2.6,0.9l-2.7,4.8c-0.1,0.1-0.7,1.1-1.8,0.6c-1.1-0.6-0.6-1.7-0.5-1.9v0l2.7-4.7
			c0,0,1-1.8-0.6-2.7c-1.6-0.9-2.6,0.9-2.6,0.9l-2.3,4c-2.2,3.8-0.2,7.6,3.7,9.9c3.9,2.2,8.2,2.1,10.4-1.7l6-10.3l1.6,2.8
			c0.8,1.3,0.8,3,0,4.3l-5,8.7c-0.8,1.3-2.2,2.2-3.8,2.2h-10c-1.6,0-3-0.8-3.8-2.2l-5-8.7C32.7,50.9,32.7,49.2,33.4,47.9z"/>
	</g>
</g>
<g id="icoon__x23_12" class="st0">
	<g class="st1">
		<g>
			<path class="st2" d="M86.8,38.3L74.5,17.1H20L7.7,38.3c-1.4,2.4-1.4,6.3,0,8.6l16,27.8c1.4,2.4,4.7,4.3,7.5,4.3h32.1
				c2.7,0,6.1-1.9,7.5-4.3l16-27.8C88.2,44.6,88.2,40.7,86.8,38.3z M34.6,47.4l-1.2,3.5l-15.2-6.4v-3.6l15.2-6.4l1.2,3.5l-11.8,4.7
				L34.6,47.4z M43.3,59.2H39l11.9-34.1h4.3L43.3,59.2z M76.3,44.4l-15.2,6.4l-1.2-3.5l11.8-4.7l-11.8-4.7l1.2-3.5l15.2,6.4V44.4z"
				/>
		</g>
		<g>
			<path class="st2" d="M65.5,5.4l1.2-1.7H68l-1.8,2.6c0.4,0.5,0.7,1,1.1,1.5s0.6,0.9,0.9,1.4h-1.4c-0.1-0.1-0.1-0.3-0.2-0.4
				s-0.2-0.3-0.3-0.5c-0.1-0.2-0.2-0.3-0.4-0.5c-0.1-0.2-0.2-0.3-0.4-0.5c-0.2,0.3-0.5,0.6-0.7,0.9c-0.2,0.3-0.4,0.6-0.6,0.9h-1.3
				c0.1-0.2,0.2-0.4,0.4-0.7c0.2-0.2,0.3-0.5,0.5-0.7c0.2-0.2,0.3-0.5,0.5-0.7c0.2-0.2,0.4-0.5,0.5-0.7l-1.8-2.7h1.4L65.5,5.4z"/>
		</g>
		<g>
			<path class="st3" d="M75.1,12.4l-55.8,0L4.2,38.7c-1.2,2.1-1.2,5.9,0,8l18.1,31.3c1.2,2.1,4.5,4,6.9,4h36.1c2.5,0,5.7-1.9,6.9-4
				l18.1-31.3c1.2-2.1,1.2-5.9,0-8L75.1,12.4z"/>
			<path class="st2" d="M93.3,36.9L75.2,5.6c-1.9-3.2-6.2-5.7-9.9-5.7H29.2c-3.7,0-8.1,2.5-9.9,5.7L1.2,36.9
				c-1.9,3.2-1.9,8.2,0,11.4l18.1,31.3c1.9,3.2,6.2,5.7,9.9,5.7h36.1c3.7,0,8.1-2.5,9.9-5.7l18.1-31.3
				C95.1,45.2,95.1,40.1,93.3,36.9z M60.5,5.7l2-3.5c0.2-0.3,0.6-0.5,0.9-0.5h4c0.3,0,0.8,0.2,0.9,0.5l2,3.5c0.2,0.3,0.2,0.8,0,1.1
				l-2,3.5c-0.2,0.3-0.6,0.5-0.9,0.5h-4c-0.3,0-0.8-0.2-0.9-0.5l-2-3.5C60.4,6.5,60.4,6,60.5,5.7z M90.3,46.6L72.2,77.9
				c-1.2,2.1-4.5,4-6.9,4H29.2c-2.5,0-5.7-1.9-6.9-4L4.2,46.6c-1.2-2.1-1.2-5.9,0-8l15.1-26.2l55.8,0l15.1,26.2
				C91.5,40.8,91.5,44.5,90.3,46.6z"/>
		</g>
	</g>
</g>
<g id="icoon__x23_11" class="st0">
	<g class="st1">
		<path class="st3" d="M40.1,85.6c1,0,1.8-0.6,2.1-1.4h-4.3C38.3,85,39.1,85.6,40.1,85.6z"/>
		<path class="st3" d="M68.3,85.6c1.3,0,2.3-1,2.3-2.3c0-0.2,0-0.3-0.1-0.5c-1.4,0.8-2.9,1.3-4.4,1.3C66.5,85,67.3,85.6,68.3,85.6z"
			/>
		<path class="st2" d="M42.3,83.3c0-1.3-1-2.3-2.3-2.3s-2.3,1-2.3,2.3c0,0.3,0.1,0.6,0.2,0.9h4.3C42.3,83.9,42.3,83.6,42.3,83.3z"/>
		<path class="st2" d="M68.3,81c-1.3,0-2.3,1-2.3,2.3c0,0.3,0.1,0.6,0.2,0.8c1.4-0.1,3-0.6,4.4-1.3C70.3,81.8,69.4,81,68.3,81z"/>
		<path class="st2" d="M93.2,36.9L74.5,4.7c-1.6-2.8-5.5-5-8.7-5H28.6c-3.2,0-7.1,2.3-8.7,5L1.3,36.9c-1.6,2.8-1.6,7.3,0,10L20,79.2
			c1.6,2.8,5.5,5,8.7,5h5.6c0-0.3-0.1-0.6-0.1-0.9c0-3.2,2.6-5.9,5.9-5.9s5.9,2.6,5.9,5.9c0,0.3,0,0.6-0.1,0.9h16.7
			c0-0.3-0.1-0.6-0.1-0.9c0-3.2,2.6-5.9,5.9-5.9c2.2,0,4.2,1.3,5.2,3.1c0.4-0.4,0.8-0.9,1.1-1.4l18.6-32.2
			C94.7,44.2,94.7,39.7,93.2,36.9z M70.3,74H38.9c-2.8,0-6.1-1.9-7.5-4.3L18.6,47.5c-1.4-2.4-1.4-6.2,0-8.6l3.1-5.7
			c-0.7-0.9-1.1-2-1.1-3.2c0-2.8,2.3-5.1,5.1-5.1s5.1,2.3,5.1,5.1S28.5,35,25.7,35c-0.3,0-0.7,0-1-0.1l-3,5.6
			c-0.8,1.3-0.8,3.8,0,5.1l12.8,22.2c0.8,1.3,2.9,2.6,4.4,2.6h31.4V74z M81.8,44.8L71.3,63.1c-0.9,1.6-3.1,2.8-4.9,2.8H45.2
			c-1.8,0-4-1.3-4.9-2.8L29.8,44.8c-0.9-1.6,0.1-4.1,1-5.7h51C82.7,40.6,82.7,43.2,81.8,44.8z"/>
	</g>
</g>
<g id="icoon__x23_10" class="st0">
	<g class="st1">
		<path class="st2" d="M93.2,37.6L74.5,5.4c-1.6-2.8-5.5-5-8.7-5H28.6c-3.2,0-7.1,2.3-8.7,5L1.3,37.6c-1.6,2.8-1.6,7.3,0,10L20,79.9
			c1.6,2.8,5.5,5,8.7,5h37.2c3.2,0,7.1-2.3,8.7-5l18.6-32.2C94.7,44.9,94.7,40.4,93.2,37.6z M31.8,79.9c-2.8,0-6.2-2-7.6-4.4
			L7.9,47.3c-1.4-2.4-1.4-6.4,0-8.8l16.3-28.2c1.4-2.4,4.8-4.4,7.6-4.4H62l-18.5,32c-1.6,2.8-1.6,7.3,0,10l18.5,32H31.8z M81.9,46
			h-9.3v10.2H67V46h-9.3v-5.3H67V30.4h5.6v10.2h9.3V46z"/>
	</g>
</g>
<g id="icoon__x23_9" class="st0">
	<g class="st1">
		<path class="st2" d="M93.2,37.6L74.5,5.4c-1.6-2.8-5.5-5-8.7-5H28.6c-3.2,0-7.1,2.3-8.7,5L1.3,37.6c-1.6,2.8-1.6,7.3,0,10L20,79.9
			c1.6,2.8,5.5,5,8.7,5h37.2c3.2,0,7.1-2.3,8.7-5l18.6-32.2C94.7,44.9,94.7,40.4,93.2,37.6z M31.3,79.7c-2.8,0-6.2-2-7.6-4.4L7.4,47
			c-1.4-2.4-1.4-6.4,0-8.8L23.7,10c1.4-2.4,4.8-4.4,7.6-4.4h12l-18.5,32c-1.6,2.8-1.6,7.3,0,10l18.5,32L31.3,79.7L31.3,79.7z
			 M50.6,75.4c-2.5,0-5.5-1.7-6.7-3.9l-14.4-25c-1.2-2.1-1.2-5.6,0-7.8l14.4-25c1.2-2.1,4.3-3.9,6.7-3.9h7.8c0,0.1-0.1,0.1-0.1,0.2
			L42,38.3c-1.4,2.4-1.4,6.4,0,8.8l16.3,28.2c0,0.1,0.1,0.1,0.1,0.2L50.6,75.4L50.6,75.4z M54.7,56.5c-1.7,0-3.2-0.9-4-2.3l-5.4-9.3
			c-0.8-1.4-0.8-3.2,0-4.6l5.4-9.3c0.8-1.4,2.4-2.3,4-2.3h10.8c1.6,0,3.2,0.9,4,2.3l1.4,2.4l-8,13.8c-0.1,0.2-0.9,1.2-1.9,0.6
			c-1.2-0.7-0.5-2-0.5-2v0l2.9-5.1c0,0,1.1-1.9-0.7-2.9c-1.7-0.9-2.7,0.9-2.7,0.9l-2.9,5.1c-0.1,0.1-0.8,1.2-1.9,0.6
			c-1.2-0.7-0.6-1.8-0.5-2v0l2.9-5.1c0,0,1.1-1.9-0.7-2.9c-1.7-0.9-2.7,0.9-2.7,0.9l-2.5,4.3c-2.4,4.1-0.2,8.2,3.9,10.6
			c4.2,2.4,8.7,2.2,11.1-1.9l6.4-11.1l1.7,3c0.8,1.4,0.8,3.2,0,4.6l-5.4,9.3c-0.8,1.4-2.4,2.3-4,2.3L54.7,56.5L54.7,56.5z
			 M88.4,45.7L77,65.5c-1,1.7-3.4,3.1-5.3,3.1h-6.2c0,0,0.1-0.1,0.1-0.1l12.9-22.3c1.1-1.9,1.1-5,0-6.9L65.6,16.9
			c0,0-0.1-0.1-0.1-0.1h6.2c2,0,4.3,1.4,5.3,3.1l11.4,19.8C89.4,41.3,89.4,44,88.4,45.7z"/>
	</g>
</g>
<g id="icoon__x23_8" class="st0">
	<g class="st1">
		<path class="st2" d="M74.5,5.4c-1.6-2.8-5.5-5-8.7-5H28.6c-3.2,0-7.1,2.3-8.7,5L1.3,37.6c-1.6,2.8-1.6,7.3,0,10L20,79.9
			c1.6,2.8,5.5,5,8.7,5h37.2c3.2,0,7.1-2.3,8.7-5l18.6-32.2c1.6-2.8,1.6-7.3,0-10L74.5,5.4z M58.8,68.9c-2.1,0.5-4.6,0.8-7.5,0.8
			c-6.3,0-11-1.5-14.4-4.5c-3.3-3-5.5-7.3-6.5-12.8H25v-7.4h4.7c0-0.6-0.1-1-0.1-1.3c0-0.3,0-0.7,0-1.1c0-0.4,0-0.8,0-1.3
			s0-0.9,0.1-1.3H25v-7.4h5.7c1.3-5.6,3.8-9.8,7.4-12.7c3.7-2.9,8.3-4.3,14.1-4.3c2.3,0,4.2,0.2,5.8,0.5c1.6,0.4,3.2,0.8,4.8,1.4
			l-2.3,8.7c-1.2-0.4-2.4-0.7-3.7-1c-1.3-0.3-2.8-0.4-4.7-0.4c-3,0-5.3,0.7-7,2c-1.7,1.3-2.9,3.2-3.6,5.8h16.7L56.7,40H40.5
			c-0.1,0.6-0.1,1-0.1,1.4c0,0.4,0,0.8,0,1.2c0,0.4,0,0.8,0,1.1c0,0.3,0,0.7,0.1,1.3h15.3l-1.4,7.4H41.5c0.9,3,2.1,5.1,3.8,6.3
			c1.7,1.2,3.8,1.8,6.4,1.8c1.7,0,3.3-0.2,5-0.5c1.7-0.3,3.4-0.8,5.1-1.5l2.2,8.6C62.7,67.8,60.9,68.4,58.8,68.9z"/>
	</g>
</g>
<g id="icoon__x23_7" class="st0">
	<g class="st1">
		<path class="st2" d="M93.2,37.6L74.5,5.4c-1.6-2.8-5.5-5-8.7-5H28.6c-3.2,0-7.1,2.3-8.7,5L1.3,37.6c-1.6,2.8-1.6,7.3,0,10L20,79.9
			c1.6,2.8,5.5,5,8.7,5h37.2c3.2,0,7.1-2.3,8.7-5l18.6-32.2C94.7,44.9,94.7,40.4,93.2,37.6z M49.6,78.6h-5.3c-1,0-1.8-0.5-1.8-1.1
			c0-0.6,0.8-1.1,1.8-1.1h5.3c1,0,1.8,0.5,1.8,1.1C51.3,78.1,50.6,78.6,49.6,78.6z M54.9,71.8l-0.3,1.3c-0.2,1-1.1,1.7-2.1,1.7h-11
			c-1,0-1.9-0.6-2-1.3c-0.1-0.7,0.6-1.4,1.5-1.5l12.5-1.8C54.5,70.2,55.1,70.9,54.9,71.8z M55.7,67.6c-0.1,0.7-1,1.3-2,1.4l-13,1.8
			c-1,0.1-1.8-0.3-2-0.9c-0.1-0.6,0.6-1.2,1.5-1.4l13.9-1.9C55.2,66.5,55.9,66.9,55.7,67.6z M56.5,63.9c-0.1,0.6-1,1.2-2,1.4
			l-14.4,2c-1,0.1-1.8-0.2-1.9-0.8s0.6-1.2,1.6-1.3L55,63C55.9,62.9,56.6,63.3,56.5,63.9z M70.8,29.4L61.9,45
			c-1.8,3.5-4,8.2-4.4,11.1c-0.2,1.3-0.5,2.2-1,2.7c0.6,0.2,0.9,0.7,0.8,1.3c-0.2,0.8-1.1,1.5-2,1.7l-15.7,2.2
			c-1,0.1-1.9-0.5-2.1-1.5l-0.4-2.1c-0.1-0.8,0.3-1.5,1-1.7c-0.5-0.5-0.8-1.3-1-2.6c-0.3-2.5-2.1-6.5-3.8-9.8l-9.6-16.8
			c-0.5-0.9-0.5-2.4,0-3.3L34,8.3c0.5-0.9,1.8-1.5,2.9-1.5H37h20.5h0.1c1.1,0,2.3,0.6,2.9,1.5l10.3,17.9
			C71.4,27,71.4,28.5,70.8,29.4z"/>
		<path class="st2" d="M58.7,11c-0.5-0.8-1.6-1.2-2.5-1.2H38.3c-0.9,0-2,0.4-2.5,1.2l-8.9,15.3c-0.5,0.8-0.5,2.1,0,2.9l8.9,15.6
			c0.5,0.8,1,1.6,2.5,1.6c5.3,0,5.5,12.5,8.6,12.5s4.3-12.5,9.3-12.5c1.6,0,2-0.7,2.5-1.5l8.9-15.6c0.5-0.8,0.5-2,0-2.8L58.7,11z"/>
	</g>
</g>
<g id="icoon__x23_6" class="st0">
	<g class="st1">
		<path class="st2" d="M63.7,0H30.8c-5.1,0-9.8,2.7-12.3,7.1L2.1,35.6c-2.5,4.4-2.5,9.8,0,14.2l16.5,28.5c2.5,4.4,7.2,7.1,12.3,7.1
			h32.9c5.1,0,9.8-2.7,12.3-7.1l16.5-28.5c2.5-4.4,2.5-9.8,0-14.2l-5.2-9L67.6,60.4c-7.3,12.6-21.3,13-34,5.7
			c-12.7-7.3-19.3-19.7-12-32.3l7.6-13.2c0,0,3.3-5.8,8.4-2.9c5.4,3.1,2.1,8.9,2.1,8.9l-8.9,15.5v0c-0.3,0.4-2,4,1.5,6.1
			c3.4,1.9,5.5-1.4,5.8-1.8l9-15.6c0,0,3.3-5.8,8.4-2.9c5.4,3.1,2.1,8.9,2.1,8.9l-8.9,15.6v0c0,0-2.2,3.9,1.5,6
			c3.2,1.8,5.4-1.2,5.8-1.8l24.4-42.3L76,7.1C73.4,2.7,68.7,0,63.7,0"/>
	</g>
</g>
<g id="icoon__x23_5" class="st0">
	<g class="st1">
		<polygon class="st2" points="48.9,49 48.9,48.9 46.3,47.4 45.3,49.1 44.7,50.1 43.2,52.8 44.8,53.7 48.5,55.8 50,53.2 47.4,51.6 
					"/>
		<polygon class="st2" points="49.3,42.1 46.7,40.6 45.2,43.2 42.5,41.7 41,44.4 46.2,47.4 		"/>
		<path class="st2" d="M93.4,37.6L74.7,5.2c-1.6-2.8-5.5-5-8.7-5H28.5c-3.2,0-7.1,2.3-8.7,5L1.1,37.6c-1.6,2.8-1.6,7.3,0,10.1
			l18.7,32.4c1.6,2.8,5.5,5,8.7,5H66c3.2,0,7.1-2.3,8.7-5l18.7-32.4C95,44.9,95,40.4,93.4,37.6z M79.4,42.9L64.1,70
			c-1.6,2.9-4.3,5-7.6,5.9c-1.1,0.3-2.3,0.5-3.4,0.5c-2.1,0-4.2-0.5-6.1-1.6l0,0L19.9,59.5c-6-3.4-8.2-11.1-4.8-17.1l15.3-27.1
			c3.4-6,11.1-8.2,17.1-4.8l27.1,15.3C80.6,29.2,82.8,36.9,79.4,42.9z"/>
		<path class="st2" d="M43,26.9l-3.8,6.7l6.7,3.8l3.8-6.7L43,26.9z M45,34.2l-2.7-1.5l1.5-2.7l2.7,1.5L45,34.2z"/>
		<polygon class="st2" points="40.5,51.2 42,48.6 39.4,47 41,44.4 38.3,42.8 35.2,48.2 		"/>
		<path class="st2" d="M71.9,30.7L44.8,15.4c-1.1-0.6-2.3-0.9-3.4-0.9c-2.4,0-4.8,1.3-6.1,3.6L20,45.1c-1.9,3.4-0.7,7.6,2.7,9.5
			l27.1,15.3c1.6,0.9,3.5,1.1,5.3,0.6s3.3-1.7,4.2-3.3l15.3-27.1C76.4,36.8,75.2,32.6,71.9,30.7z M61.6,45.5L58.9,44l-3.1,5.4
			l-2.7-1.5L50,53.2l2.7,1.5l3.1-5.3l2.7,1.5l-6.2,10.7l-2.7-1.5l1.5-2.7l-2.7-1.5L47,58.5l-5.4-3.1l1.5-2.7l-2.6-1.5L39,53.9
			l-8-4.6l1.5-2.7l-2.7-1.5l1.5-2.7l2.7,1.5l0,0l1.5-2.7l-2.7-1.5l1.5-2.7l2.7,1.5l-1.5,2.7l2.7,1.5l1.5-2.7l2.7,1.5L44,39l-2.7-1.5
			l-1.5,2.6l-2.7-1.5l1.5-2.6L36,34.4l6.2-10.7l16,9.2l-1.5,2.7l-5.3-3.1l-3.1,5.3l2.6,1.5l-1.5,2.7l2.7,1.5l-1.5,2.7l2.7,1.5
			l3.1-5.4l-5.4-3.1l1.5-2.7l2.7,1.5l0,0l1.5-2.7l2.7,1.5l1.5-2.7l2.7,1.5L62,38.7l-2.7-1.5l-1.5,2.7l2.7,1.5l0,0l1.5-2.7l2.7,1.5
			L61.6,45.5z"/>
	</g>
</g>
<g id="icoon__x23_4" class="st0">
	<g class="st1">
		<path class="st2" d="M47.2,32.4c1.2,0,2.3,0.2,3.3,0.5L69.1,0.8C68.1,0.4,67,0.1,66,0.1H28.5c-1,0-2.1,0.2-3.1,0.6L44,32.9
			C45,32.6,46.1,32.4,47.2,32.4z"/>
		<path class="st2" d="M40.5,34.9L21.9,2.8c-0.9,0.7-1.6,1.5-2.1,2.4L1.1,37.6c-0.5,0.9-0.8,1.9-1,3h37.1
			C37.6,38.4,38.8,36.4,40.5,34.9z"/>
		<path class="st2" d="M47.2,52.9c-5,0-9.1-3.5-10.1-8.3H0c0.2,1.1,0.5,2.2,1,3l18.7,32.4c1.6,2.8,5.5,5,8.7,5H66
			c3.2,0,7.1-2.3,8.7-5l18.7-32.4c0.5-0.9,0.8-1.9,1-3H57.3C56.4,49.3,52.2,52.9,47.2,52.9z"/>
	</g>
	<g class="st1">
		<path class="st2" d="M72.7,26.3c0.5,0,1,0.3,1.2,0.7c0.4,0.6,0.2,1.4-0.4,1.9L57.7,40.6h36.7c-0.2-1.1-0.5-2.2-1-3L74.7,5.2
			c-0.5-0.9-1.3-1.7-2.1-2.4L54.2,34.6l17.9-8.2C72.3,26.3,72.5,26.3,72.7,26.3z"/>
	</g>
	<path class="st4" d="M72.7,27.7L49.9,38.1c-1.5-0.9-3.5-1-5.2-0.1c-2.5,1.4-3.4,4.6-2,7.1c1.4,2.5,4.6,3.4,7.1,2
		c1.7-0.9,2.6-2.6,2.7-4.4L72.7,27.7z"/>
</g>
<g id="icoon__x23_3" class="st0">
	<path class="st4" d="M28.5,85.2c-3.2,0-7.1-2.3-8.7-5L1.1,47.7c-1.6-2.8-1.6-7.3,0-10.1L19.8,5.2c1.6-2.8,5.5-5,8.7-5H66
		c3.2,0,7.1,2.3,8.7,5l18.7,32.4c1.6,2.8,1.6,7.3,0,10.1L74.7,80.1c-1.6,2.8-5.5,5-8.7,5L28.5,85.2L28.5,85.2z"/>
	<g class="st1">
		<g>
			<path class="st3" d="M42.9,39.2c-2.4,0-5.3,1.2-5.3,2.6c0,0.8,0,1.7,3.4,3.1c1.3,0.5,2.8,0.9,4.4,1.1l2.7-4.6
				c-1.9-1.5-2.8-2-4.7-2.2C43.3,39.2,43.1,39.2,42.9,39.2z"/>
			<path class="st5" d="M84.3,51.1l-8.5-14.6c-0.7-1.3-2.5-2.3-3.9-2.3h-8.3H55c-1.4,0-3.2,1-3.9,2.3l-2.8,4.9L45.5,46
				c2.7,0.4,5.9,0.4,9.9,0.4l3.3,0c3.4,0,6.2,1.5,7.7,4.2c1.4,2.5,1.5,5.5,0.2,7.8c-1.2,2.1-3.4,3.3-6.1,3.3l-0.3,0l-1.9-0.1
				c-2.5-0.1-5.1-0.2-7.8-0.2c-1.6,0-3,0-4.4,0.1l5,8.7c0.7,1.3,2.5,2.3,3.9,2.3h16.9c1.4,0,3.2-1,3.9-2.3l8.5-14.6
				C85,54.4,85,52.4,84.3,51.1z"/>
		</g>
		<g>
			<path class="st3" d="M36.2,41.8c0,1.6,0.6,2.9,4.3,4.4c0.9,0.3,1.8,0.6,2.7,0.8l4.5-7.8c-1.3-0.9-2.4-1.3-4.1-1.5
				C40.7,37.6,36.3,39,36.2,41.8z"/>
			<path class="st5" d="M58.7,47.9c-6.8,0-11.6,0.1-15.5-0.8c-1-0.2-1.9-0.5-2.7-0.8c-3.8-1.5-4.3-2.8-4.3-4.4c0-2.9,4.5-4.3,7.4-4
				c1.7,0.2,2.8,0.6,4.1,1.5l2-3.5c1-1.7,3.2-3,5.2-3h4.6c-6.9-5.4-10.3-9-16.6-9c-9.9,0-9.8,5.9-26.4,5.9c-0.2,0-0.3,0-0.4,0v24.4
				c0.1,0,0.3,0,0.4,0c8,0,11.3,9.5,18.6,7.6c2.8-0.7,5.7-1.2,8.6-1.4c5.7-0.5,11.5-0.2,16.6,0C68.7,60.6,68,47.9,58.7,47.9z"/>
		</g>
	</g>
	<path class="st6" d="M7.9,54.6c0.7,1.4,2.4,2.5,3.8,2.5s2.4-1.3,2.4-2.8v-24c0-1.6-1.1-2.8-2.4-2.8s-3,1.1-3.8,2.5l-5.2,9.8
		c-0.7,1.4-0.7,3.6,0,5L7.9,54.6z"/>
</g>
<g id="icoon__x23_2">
	<g>
		<path class="st3" d="M43.1,36.3c-0.9,1.3-1.9,2.7-2.8,4.3"/>
		<path class="st3" d="M45.7,37.2c2-3.9,4.6-8.1,7.9-12.6c0,0-4.7,3.8-9.8,10.8"/>
		<path class="st3" d="M42.9,43.1c0.6-1.5,1.3-3,2.1-4.6l0,0"/>
		<g>
			<path class="st2" d="M45.9,50.4l-5.2-1.2c0.5-1.5,1-3.2,1.7-4.9l13.4-1.8l-12.9,0.6c0.6-1.5,1.3-3,2.1-4.6l7.2-2l-6.5,0.6
				c2-3.9,4.6-8.1,7.9-12.6c0,0-4.7,3.8-9.8,10.8l-2.6-3.1l1.9,4l-2.8,4.3l-4.1-4.7l3.6,5.6c-1.1,1.8-2.1,3.8-3.1,5.9l-3.6-4.9
				l3,6.3c-1,2.4-1.9,4.9-2.7,7.6l0.3,2.1c0.2,1.5,1.5,2.4,2.8,2.1l2-0.5c0.2-2.8,0.7-6.1,1.7-9.7L45.9,50.4L45.9,50.4z"/>
			<path class="st2" d="M93.6,37.5L74.8,5c-1.6-2.8-5.5-5-8.7-5H28.7c-3.2,0-7.1,2.3-8.7,5L1.2,37.5c-1.6,2.8-1.6,7.3,0,10.1
				L19.9,80c1.6,2.8,5.5,5,8.7,5h37.5c3.2,0,7.1-2.3,8.7-5l18.7-32.4C95.2,44.8,95.2,40.2,93.6,37.5z M69.5,32.3l-13,20.8
				c-1.1,1.8-3.1,3.5-4.4,3.8l-13.5,3.2c-0.6,8.4,1.3,13.2-0.3,14.5c-3,2.6-7.2-0.5-7.2-0.5C31,67.6,32,61.7,33.5,56.3l-2.2-15
				c-0.2-1.5,0.5-4.1,1.6-5.9l13-20.8c1.1-1.8,3.1-3.5,4.4-3.8l15.5-3.6c1.3-0.3,2.6,0.6,2.8,2.1l2.6,17.2
				C71.4,27.9,70.6,30.6,69.5,32.3z"/>
		</g>
		<line class="st3" x1="42.4" y1="44.3" x2="55.8" y2="42.5"/>
		<line class="st3" x1="45" y1="38.5" x2="52.2" y2="36.6"/>
		<line class="st3" x1="43.7" y1="35.3" x2="41.2" y2="32.3"/>
	</g>
</g>
<g id="icoon__x23_1" class="st0">
	<path class="st4" d="M28.5,85.2c-3.2,0-7.1-2.3-8.7-5L1.1,47.7c-1.6-2.8-1.6-7.3,0-10.1L19.8,5.2c1.6-2.8,5.5-5,8.7-5H66
		c3.2,0,7.1,2.3,8.7,5l18.7,32.4c1.6,2.8,1.6,7.3,0,10.1L74.7,80.1c-1.6,2.8-5.5,5-8.7,5L28.5,85.2L28.5,85.2z"/>
</g>
<g id="icoon__x23_0" class="st0">
	<path class="st4" d="M28.5,85.2c-3.2,0-7.1-2.3-8.7-5L1.1,47.7c-1.6-2.8-1.6-7.3,0-10.1L19.8,5.2c1.6-2.8,5.5-5,8.7-5H66
		c3.2,0,7.1,2.3,8.7,5l18.7,32.4c1.6,2.8,1.6,7.3,0,10.1L74.7,80.1c-1.6,2.8-5.5,5-8.7,5L28.5,85.2L28.5,85.2z"/>
</g>
</svg>
