<?xml version="1.0" encoding="utf-8"?>
<!-- Generator: Adobe Illustrator 21.0.2, SVG Export Plug-In . SVG Version: 6.00 Build 0)  -->
<svg version="1.1" id="Layer_1" xmlns="http://www.w3.org/2000/svg" xmlns:xlink="http://www.w3.org/1999/xlink" x="0px" y="0px"
	 viewBox="0 0 184.7 165.7" style="enable-background:new 0 0 184.7 165.7;" xml:space="preserve">
<style type="text/css">
	.st0{fill:#002856;}
</style>
<g>
	<path class="st0" d="M182.4,73L145.9,9.8c-3.1-5.4-10.8-9.8-17-9.8h-73c-6.2,0-13.9,4.4-17,9.8L2.3,73c-3.1,5.4-3.1,14.2,0,19.6
		l36.5,63.2c3.1,5.4,10.8,9.8,17,9.8h73c6.2,0,13.9-4.4,17-9.8l36.5-63.2C185.5,87.3,185.5,78.4,182.4,73z M96.9,153.3H86.6
		c-1.9,0-3.5-0.9-3.5-2.1c0-1.1,1.6-2.1,3.5-2.1h10.4c1.9,0,3.5,0.9,3.5,2.1C100.4,152.4,98.8,153.3,96.9,153.3z M107.3,140.1
		l-0.5,2.6c-0.4,1.9-2.2,3.4-4.1,3.4H81.1c-1.9,0-3.7-1.1-3.9-2.5c-0.3-1.4,1.1-2.7,3-3l24.4-3.4
		C106.5,136.9,107.7,138.2,107.3,140.1z M109,131.7c-0.3,1.3-2,2.5-3.9,2.8l-25.5,3.6c-1.9,0.3-3.6-0.5-3.8-1.7
		c-0.2-1.2,1.1-2.4,3-2.7l27.2-3.8C107.9,129.6,109.3,130.4,109,131.7z M110.4,124.5c-0.2,1.2-2,2.4-3.9,2.6l-28.2,4
		c-1.9,0.3-3.6-0.4-3.8-1.6c-0.2-1.1,1.2-2.3,3-2.5l29.8-4.2C109.3,122.6,110.7,123.3,110.4,124.5z M138.6,56.9l-17.5,30.5
		c-3.6,6.8-7.9,16.1-8.6,21.7c-0.3,2.6-1.1,4.3-2,5.3c1.1,0.4,1.7,1.4,1.5,2.5c-0.3,1.5-2.1,3-4,3.2l-30.8,4.3c-1.9,0.3-3.7-1-4-2.9
		l-0.7-4c-0.3-1.5,0.5-2.9,1.9-3.3c-0.9-1-1.6-2.6-1.9-5.1c-0.6-5-4.1-12.8-7.4-19.3L46.1,56.9c-1-1.8-1-4.8,0-6.6l20.2-34.9
		c1-1.8,3.6-3,5.6-3h0.3h40.2h0.3c2.1,0,4.6,1.2,5.6,3l20.2,35.1C139.6,52.2,139.6,55.1,138.6,56.9z"/>
	<path class="st0" d="M114.7,20.7c-0.9-1.6-3.1-2.4-4.9-2.4h-35c-1.8,0-4,0.8-4.9,2.4l-17.5,30c-0.9,1.6-0.9,4.2,0,5.7L70,87.1
		c0.9,1.6,1.9,3.1,4.9,3.1c10.3,0,10.8,24.6,16.8,24.6c6,0,8.4-24.6,18.2-24.6c3.2,0,4-1.5,4.9-3l17.5-30.6c0.9-1.6,0.9-4,0-5.5
		L114.7,20.7z"/>
</g>
</svg>
