<?xml version="1.0" encoding="utf-8"?>
<!-- Generator: Adobe Illustrator 21.0.2, SVG Export Plug-In . SVG Version: 6.00 Build 0)  -->
<svg version="1.1" id="Layer_1" xmlns="http://www.w3.org/2000/svg" xmlns:xlink="http://www.w3.org/1999/xlink" x="0px" y="0px"
	 viewBox="0 0 187.5 165.3" style="enable-background:new 0 0 187.5 165.3;" xml:space="preserve">
<style type="text/css">
	.st0{fill:none;stroke:#808285;stroke-width:0.25;stroke-miterlimit:10;}
	.st1{fill:none;stroke:#808285;stroke-width:0.25;stroke-miterlimit:10;stroke-dasharray:1.9931,1.9931;}
	.st2{fill:#002856;}
</style>
<g>
	<g>
		<polyline class="st0" points="45.5,165.3 44.5,165.3 44,164.4 		"/>
		<line class="st1" x1="43" y1="162.7" x2="-2.3" y2="84.2"/>
		<polyline class="st0" points="-2.8,83.3 -3.3,82.4 -2.8,81.6 		"/>
		<line class="st1" x1="-1.8" y1="79.8" x2="43.5" y2="1.3"/>
		<polyline class="st0" points="44,0.4 44.5,-0.4 45.5,-0.4 		"/>
		<line class="st1" x1="47.5" y1="-0.4" x2="138.2" y2="-0.4"/>
		<polyline class="st0" points="139.2,-0.4 140.2,-0.4 140.7,0.4 		"/>
		<line class="st1" x1="141.7" y1="2.2" x2="187" y2="80.7"/>
		<polyline class="st0" points="187.5,81.6 188,82.4 187.5,83.3 		"/>
		<line class="st1" x1="186.5" y1="85" x2="141.2" y2="163.6"/>
		<polyline class="st0" points="140.7,164.4 140.2,165.3 139.2,165.3 		"/>
		<line class="st1" x1="137.2" y1="165.3" x2="46.5" y2="165.3"/>
	</g>
</g>
<g>
	<path class="st2" d="M182.4,72.6L145.9,9.4c-3.1-5.4-10.8-9.8-17-9.8h-73c-6.2,0-13.9,4.4-17,9.8L2.3,72.6
		c-3.1,5.4-3.1,14.2,0,19.6l36.5,63.2c3.1,5.4,10.8,9.8,17,9.8h73c6.2,0,13.9-4.4,17-9.8l36.5-63.2C185.5,86.8,185.5,78,182.4,72.6z
		 M62.1,155.6c-5.5,0-12.2-3.9-14.9-8.6l-32-55.4c-2.7-4.7-2.7-12.5,0-17.2l32-55.4c2.7-4.7,9.4-8.6,14.9-8.6h59.1L85,73.1
		c-3.1,5.4-3.1,14.3,0,19.7l36.2,62.8L62.1,155.6L62.1,155.6z M160.3,88.9h-18.2V109H131V88.9h-18.2V78.5H131V58.4h11.1v20.1h18.2
		V88.9z"/>
</g>
</svg>
