<?xml version="1.0" encoding="utf-8"?>
<!-- Generator: Adobe Illustrator 21.0.0, SVG Export Plug-In . SVG Version: 6.00 Build 0)  -->
<svg version="1.1" id="Layer_1" xmlns="http://www.w3.org/2000/svg" xmlns:xlink="http://www.w3.org/1999/xlink" x="0px" y="0px"
	 viewBox="0 0 283.46 283.46" enable-background="new 0 0 283.46 283.46" xml:space="preserve">
<path fill="#BCD9EA" d="M82.352,264.215c-6.236,0-13.89-4.419-17.008-9.819L5.965,151.547c-3.118-5.4-3.118-14.238,0-19.639
	L65.344,29.06c3.118-5.4,10.772-9.819,17.008-9.819h118.76c6.236,0,13.89,4.419,17.008,9.819l59.38,102.849
	c3.118,5.4,3.118,14.238,0,19.639l-59.38,102.849c-3.118,5.4-10.771,9.819-17.008,9.819H82.352z"/>
<g>
	<g>
		<polyline fill="none" stroke="#808285" stroke-width="0.25" stroke-miterlimit="10" points="94.895,224.585 93.895,224.585 
			93.395,223.719 		"/>
		
			<line fill="none" stroke="#808285" stroke-width="0.25" stroke-miterlimit="10" stroke-dasharray="1.9931,1.9931" x1="92.398" y1="221.993" x2="47.054" y2="143.456"/>
		<polyline fill="none" stroke="#808285" stroke-width="0.25" stroke-miterlimit="10" points="46.556,142.594 46.056,141.727 
			46.556,140.861 		"/>
		
			<line fill="none" stroke="#808285" stroke-width="0.25" stroke-miterlimit="10" stroke-dasharray="1.9931,1.9931" x1="47.553" y1="139.135" x2="92.896" y2="60.599"/>
		<polyline fill="none" stroke="#808285" stroke-width="0.25" stroke-miterlimit="10" points="93.395,59.736 93.895,58.87 
			94.895,58.87 		"/>
		
			<line fill="none" stroke="#808285" stroke-width="0.25" stroke-miterlimit="10" stroke-dasharray="1.9931,1.9931" x1="96.888" y1="58.87" x2="187.575" y2="58.87"/>
		<polyline fill="none" stroke="#808285" stroke-width="0.25" stroke-miterlimit="10" points="188.571,58.87 189.571,58.87 
			190.071,59.736 		"/>
		
			<line fill="none" stroke="#808285" stroke-width="0.25" stroke-miterlimit="10" stroke-dasharray="1.9931,1.9931" x1="191.067" y1="61.462" x2="236.41" y2="139.999"/>
		<polyline fill="none" stroke="#808285" stroke-width="0.25" stroke-miterlimit="10" points="236.908,140.861 237.408,141.727 
			236.908,142.594 		"/>
		
			<line fill="none" stroke="#808285" stroke-width="0.25" stroke-miterlimit="10" stroke-dasharray="1.9931,1.9931" x1="235.912" y1="144.32" x2="190.569" y2="222.857"/>
		<polyline fill="none" stroke="#808285" stroke-width="0.25" stroke-miterlimit="10" points="190.071,223.719 189.571,224.585 
			188.571,224.585 		"/>
		
			<line fill="none" stroke="#808285" stroke-width="0.25" stroke-miterlimit="10" stroke-dasharray="1.9931,1.9931" x1="186.578" y1="224.585" x2="95.891" y2="224.585"/>
	</g>
</g>
<g>
	<path fill="#002856" d="M231.739,131.908L195.24,68.689c-3.118-5.401-10.771-9.82-17.008-9.82h-72.999
		c-6.235,0-13.889,4.419-17.008,9.819l-36.499,63.219c-3.118,5.4-3.118,14.238,0,19.639l36.499,63.219
		c3.119,5.401,10.772,9.819,17.008,9.819h72.999c6.236,0,13.89-4.419,17.008-9.82l36.499-63.219
		C234.857,146.146,234.857,137.309,231.739,131.908z M111.51,214.854c-5.464,0-12.17-3.871-14.902-8.603l-31.979-55.39
		c-2.732-4.732-2.732-12.475,0-17.207l31.979-55.39c2.732-4.731,9.438-8.603,14.902-8.603h59.079l-36.237,62.766
		c-3.122,5.407-3.122,14.253,0,19.66l36.237,62.766H111.51z M209.7,148.248h-18.222v20.066h-11.057v-20.066h-18.224v-10.442h18.224
		v-20.064h11.057v20.064H209.7V148.248z"/>
</g>
</svg>
