<?xml version="1.0" encoding="utf-8"?>
<!-- Generator: Adobe Illustrator 21.0.0, SVG Export Plug-In . SVG Version: 6.00 Build 0)  -->
<svg version="1.1" id="Layer_1" xmlns="http://www.w3.org/2000/svg" xmlns:xlink="http://www.w3.org/1999/xlink" x="0px" y="0px"
	 viewBox="0 0 283.46 283.46" enable-background="new 0 0 283.46 283.46" xml:space="preserve">
<path fill="#BCD9EA" d="M82.352,264.215c-6.236,0-13.89-4.419-17.008-9.819L5.965,151.547c-3.118-5.4-3.118-14.238,0-19.639
	L65.344,29.06c3.118-5.4,10.772-9.819,17.008-9.819h118.76c6.236,0,13.89,4.419,17.008,9.819l59.38,102.849
	c3.118,5.4,3.118,14.238,0,19.639l-59.38,102.849c-3.118,5.4-10.771,9.819-17.008,9.819H82.352z"/>
<g>
	<g>
		<polyline fill="none" stroke="#808285" stroke-width="0.25" stroke-miterlimit="10" points="94.895,224.585 93.895,224.585 
			93.395,223.719 		"/>
		
			<line fill="none" stroke="#808285" stroke-width="0.25" stroke-miterlimit="10" stroke-dasharray="1.9931,1.9931" x1="92.398" y1="221.993" x2="47.054" y2="143.457"/>
		<polyline fill="none" stroke="#808285" stroke-width="0.25" stroke-miterlimit="10" points="46.556,142.594 46.056,141.728 
			46.556,140.861 		"/>
		
			<line fill="none" stroke="#808285" stroke-width="0.25" stroke-miterlimit="10" stroke-dasharray="1.9931,1.9931" x1="47.553" y1="139.135" x2="92.896" y2="60.599"/>
		<polyline fill="none" stroke="#808285" stroke-width="0.25" stroke-miterlimit="10" points="93.395,59.736 93.895,58.87 
			94.895,58.87 		"/>
		
			<line fill="none" stroke="#808285" stroke-width="0.25" stroke-miterlimit="10" stroke-dasharray="1.9931,1.9931" x1="96.888" y1="58.87" x2="187.575" y2="58.87"/>
		<polyline fill="none" stroke="#808285" stroke-width="0.25" stroke-miterlimit="10" points="188.571,58.87 189.571,58.87 
			190.071,59.736 		"/>
		
			<line fill="none" stroke="#808285" stroke-width="0.25" stroke-miterlimit="10" stroke-dasharray="1.9931,1.9931" x1="191.067" y1="61.462" x2="236.41" y2="139.999"/>
		<polyline fill="none" stroke="#808285" stroke-width="0.25" stroke-miterlimit="10" points="236.908,140.861 237.408,141.728 
			236.908,142.594 		"/>
		
			<line fill="none" stroke="#808285" stroke-width="0.25" stroke-miterlimit="10" stroke-dasharray="1.9931,1.9931" x1="235.912" y1="144.32" x2="190.569" y2="222.857"/>
		<polyline fill="none" stroke="#808285" stroke-width="0.25" stroke-miterlimit="10" points="190.071,223.719 189.571,224.585 
			188.571,224.585 		"/>
		
			<line fill="none" stroke="#808285" stroke-width="0.25" stroke-miterlimit="10" stroke-dasharray="1.9931,1.9931" x1="186.578" y1="224.585" x2="95.891" y2="224.585"/>
	</g>
</g>
<g>
	<path fill="#002856" d="M231.739,131.908L195.24,68.689c-3.118-5.401-10.771-9.82-17.008-9.82h-73
		c-6.235,0-13.889,4.419-17.008,9.819l-36.499,63.219c-3.118,5.4-3.118,14.238,0,19.639l36.499,63.219
		c3.119,5.401,10.772,9.819,17.008,9.819h73c6.236,0,13.89-4.419,17.008-9.82l36.499-63.219
		C234.857,146.146,234.857,137.309,231.739,131.908z M221.438,148.777l-33.71,58.388c-2.701,4.678-6.809,7.05-12.211,7.05
		c-5.337,0-17.803-11.305-24.005-17.266c-2.824,2.287-6.414,3.664-10.324,3.664c-9.064,0-16.438-7.374-16.438-16.438
		c0-9.064,7.374-16.438,16.438-16.438c9.064,0,16.438,7.374,16.438,16.438c0,3.023-0.834,5.85-2.265,8.287
		c7.911,7.607,17.658,15.596,20.194,15.854c3.279-0.001,5.402-1.227,7.062-4.101l30.024-52.003c-2.148,0.828-4.655,0.004-5.85-2.043
		l-20.551-35.218c-1.324-2.271-0.552-5.212,1.72-6.537l4.792-2.797c1.699-0.991,3.772-0.807,5.265,0.299l-15.4-26.674
		c-1.238-2.146-4.623-4.1-7.101-4.1h-67.421c-2.478,0-5.861,1.954-7.1,4.1l-15.097,26.148c1.359-0.603,2.978-0.575,4.353,0.228
		l4.793,2.797c2.27,1.325,3.044,4.266,1.719,6.537l-20.55,35.218c-1.325,2.27-4.267,3.044-6.537,1.719l-4.793-2.797
		c-2.27-1.325-3.044-4.267-1.719-6.537l1.074-1.841l-2.983-4.442l34.629-59.98c2.282-3.953,7.646-7.05,12.211-7.05h67.421
		c4.564,0,9.929,3.097,12.211,7.05l33.71,58.388C223.72,138.63,223.72,144.824,221.438,148.777z"/>
	<path fill="#002856" d="M141.188,173.638c-5.81,0-10.537,4.727-10.537,10.537c0,5.811,4.727,10.538,10.537,10.538
		c5.81,0,10.538-4.727,10.538-10.538C151.726,178.365,146.998,173.638,141.188,173.638z"/>
</g>
</svg>
