<?xml version="1.0" encoding="utf-8"?>
<!-- Generator: Adobe Illustrator 21.0.2, SVG Export Plug-In . SVG Version: 6.00 Build 0)  -->
<svg version="1.1" id="Layer_1" xmlns="http://www.w3.org/2000/svg" xmlns:xlink="http://www.w3.org/1999/xlink" x="0px" y="0px"
	 viewBox="0 0 94.4 85" style="enable-background:new 0 0 94.4 85;" xml:space="preserve">
<style type="text/css">
	.st0{display:none;}
	.st1{display:inline;}
	.st2{fill:#002856;}
	.st3{fill:none;}
	.st4{display:inline;fill:#002856;}
	.st5{fill:#BCD9EA;}
	.st6{display:inline;fill:#BCD9EA;}
</style>
<g id="icoon__x23_20" class="st0">
</g>
<g id="icoon__x23_19" class="st0">
	<g class="st1">
		<path class="st2" d="M35.2,41.4c0-0.7,0-1.4,0-2.2c-0.7,0-1.4,0-2.2,0c0,0.7,0,1.4,0,2.2C33.8,41.4,34.5,41.4,35.2,41.4z"/>
		<path class="st2" d="M48.2,61c-0.7,0-1.4,0-2.1,0c0,0.7,0,1.4,0,2.1c0.7,0,1.4,0,2.1,0C48.2,62.4,48.2,61.7,48.2,61z"/>
		<path class="st2" d="M37.4,45.7C37.4,45.7,37.4,45.7,37.4,45.7C37.4,45.7,37.4,45.7,37.4,45.7c2.2,0,4.4,0,6.6,0c0,0,0,0,0,0
			c0,0,0,0,0,0c0-0.7,0-1.4,0-2.2c0,0,0,0,0,0c0,0,0,0,0,0c-2.2,0-4.3,0-6.6,0C37.4,44.3,37.4,45,37.4,45.7z"/>
		<path class="st2" d="M46.1,65.4c0-0.8,0-1.5,0-2.2c-1.5,0-2.9,0-4.4,0c0,1.5,0,2.9,0,4.4c0,0,0,0,0,0c0,0,0,0,0,0
			c0.7,0,1.4,0,2.2,0c0,0,0,0,0,0c0,0,0,0,0,0c0-0.7,0-1.4,0-2.2C44.7,65.4,45.4,65.4,46.1,65.4z"/>
		<path class="st2" d="M41.7,28.3C41.7,28.3,41.7,28.3,41.7,28.3C41.7,28.3,41.7,28.3,41.7,28.3c-0.7,0-1.4,0-2.2,0
			c0,0.8,0,1.5,0,2.2c0,0,0,0,0,0c0,0,0,0,0,0c0.7,0,1.4,0,2.2,0C41.7,29.7,41.7,29,41.7,28.3z"/>
		<path class="st2" d="M50.4,65.4c-0.7,0-1.4,0-2.2,0c0,0.7,0,1.4,0,2.1c0.7,0,1.5,0.1,2.2,0.1C50.4,66.8,50.4,66.1,50.4,65.4z"/>
		<path class="st2" d="M37.4,47.9c0-0.7,0-1.4,0-2.2c0,0,0,0,0,0c0,0,0,0,0,0c-0.7,0-1.4,0-2.2,0c0,0.7,0,1.4,0,2.2
			C35.9,47.9,36.6,47.9,37.4,47.9C37.4,47.9,37.4,47.9,37.4,47.9C37.4,47.9,37.4,47.9,37.4,47.9z"/>
		<path class="st2" d="M46.1,30.5C46.1,30.5,46.1,30.5,46.1,30.5C46.1,30.5,46.1,30.5,46.1,30.5c0-0.7,0-1.4,0-2.2
			c-0.8,0-1.5,0-2.2,0c0,0,0,0,0,0c0,0,0,0,0,0c0,0.7,0,1.4,0,2.2C44.7,30.5,45.4,30.5,46.1,30.5z"/>
		<path class="st2" d="M35.2,43.6c-0.8,0-1.5,0-2.2,0c0,0.7,0,1.4,0,2.1c0.7,0,1.4,0,2.2,0C35.2,45,35.2,44.3,35.2,43.6z"/>
		<path class="st2" d="M54.8,34.9c-0.7,0-1.4,0-2.2,0c0,0.7,0,1.4,0,2.2c0.7,0,1.5,0,2.2,0C54.8,36.3,54.8,35.6,54.8,34.9z"/>
		<path class="st2" d="M50.4,58.8c0-0.7,0-1.4,0-2.2c-0.7,0-1.5,0-2.2,0c0,0.7,0,1.4,0,2.2C49,58.8,49.7,58.8,50.4,58.8z"/>
		<path class="st2" d="M30.8,39.3C30.8,39.3,30.8,39.3,30.8,39.3L30.8,39.3L30.8,39.3C30.8,39.2,30.8,39.2,30.8,39.3
			c-0.7,0-1.4,0-2.2,0c0,0.8,0,1.5,0,2.2c0,0,0,0,0,0c0,0,0,0,0,0c0.7,0,1.4,0,2.2,0C30.8,40.7,30.8,40,30.8,39.3z"/>
		<path class="st2" d="M41.7,32.7c0,0.7,0,1.4,0,2.1c0,0,0,0,0,0c0,0,0,0,0,0c0.7,0,1.4,0,2.2,0c0,0,0,0,0,0c0,0,0,0,0,0
			c0-0.7,0-1.4,0-2.1C43.2,32.7,42.5,32.7,41.7,32.7z"/>
		<path class="st2" d="M35.2,47.9c-0.7,0-1.4,0-2.2,0c0-0.8,0-1.5,0-2.2c-0.7,0-1.4,0-2.2,0c0,1.5,0,2.9,0,4.4c0,0,0,0,0,0
			c0,0,0,0,0,0c1.4,0,2.9,0,4.4,0C35.2,49.3,35.2,48.6,35.2,47.9z"/>
		<path class="st2" d="M39.6,61c0,0.7,0,1.4,0,2.1c0.7,0,1.4,0,2.2,0c0-0.7,0-1.4,0-2.1C41,61,40.3,61,39.6,61z"/>
		<path class="st2" d="M67.9,45.7C67.9,45.7,67.9,45.7,67.9,45.7c0.7,0,1.5,0,2.2,0c0-0.8,0-1.4,0-2.2c-0.7,0-1.5,0-2.2,0
			c0,0,0,0,0,0c0,0,0,0,0,0C67.9,44.2,67.9,45,67.9,45.7C67.9,45.7,67.9,45.7,67.9,45.7z"/>
		<path class="st2" d="M22.1,28.3c3.7,0,7.3,0,10.9,0c0-3.7,0-7.3,0-10.9c-3.6,0-7.3,0-10.9,0C22.1,21,22.1,24.7,22.1,28.3z
			 M24.3,19.6c2.2,0,4.3,0,6.5,0c0,2.2,0,4.3,0,6.5c-2.1,0-4.3,0-6.5,0C24.3,23.9,24.3,21.8,24.3,19.6z"/>
		<path class="st2" d="M39.6,50.1c0-0.7,0-1.4,0-2.2c-0.8,0-1.5,0-2.2,0c0,0,0,0,0,0c0,0,0,0,0,0c0,0.7,0,1.5,0,2.2
			C38.1,50.1,38.8,50.1,39.6,50.1C39.5,50.1,39.5,50.1,39.6,50.1C39.6,50.1,39.6,50.1,39.6,50.1z"/>
		<path class="st2" d="M57,58.8c2.2,0,4.4,0,6.5,0c0-2.2,0-4.3,0-6.5c-2.2,0-4.3,0-6.5,0C57,54.5,57,56.6,57,58.8z M59.2,54.5
			c0.7,0,1.4,0,2.1,0c0,0.7,0,1.4,0,2.1c-0.7,0-1.4,0-2.1,0C59.2,55.9,59.2,55.2,59.2,54.5z"/>
		<path class="st2" d="M93.1,37.5L74.5,5.3c-1.6-2.8-5.5-5-8.7-5H28.6c-3.2,0-7.1,2.3-8.7,5L1.3,37.5c-1.6,2.8-1.6,7.3,0,10
			l18.6,32.2c1.6,2.8,5.5,5,8.7,5h37.2c3.2,0,7.1-2.3,8.7-5l18.6-32.2C94.7,44.8,94.7,40.3,93.1,37.5z M59.2,15.3
			c5.1,0,10.1,0,15.2,0c0,5,0,10.1,0,15.1c-5.1,0-10.1,0-15.2,0C59.2,25.4,59.2,20.4,59.2,15.3z M72.2,32.7c0,0.7,0,1.4,0,2.1
			c-0.7,0-1.4,0-2.1,0c0-0.7,0-1.4,0-2.1C70.8,32.7,71.5,32.7,72.2,32.7z M70,37.1c0,0.7,0,1.4,0,2.1c-0.7,0-1.4,0-2.1,0
			c0-0.7,0-1.4,0-2.1C68.6,37.1,69.3,37.1,70,37.1z M67.9,32.7c0,0.7,0,1.4,0,2.1c-0.7,0-1.4,0-2.1,0c0-0.7,0-1.4,0-2.1
			C66.5,32.7,67.1,32.7,67.9,32.7z M50.4,21.7c0-0.7,0-1.4,0-2.2c0.7,0,1.4,0,2.2,0c0-0.7,0-1.4,0-2.2c0.7,0,1.4,0,2.1,0
			c0,0,0,0,0,0l0,0c0,0,0,0,0,0c0,0,0,0,0,0c0-0.7,0-1.3,0-2.1c0.8,0,1.4,0,2.2,0c0,0.7,0,1.3,0,2.1c-0.7,0-1.5,0-2.2,0c0,0,0,0,0,0
			c0,0,0,0,0,0c0,1.2,0,2.5,0,3.7c0,0.9,0,1.8,0,2.8c-0.7,0-1.4,0-2.2,0c0,0.8,0,1.5,0,2.2c0,0,0,0,0,0c0,0,0,0,0,0
			c0.7,0,1.4,0,2.2,0c0,0.8,0,1.5,0,2.2c0,0,0,0,0,0h0l0,0c0,0,0,0,0,0c0.7,0,1.4,0,2.2,0c0,0.7,0,1.4,0,2.1c-0.7,0-1.4,0-2.2,0
			c0-0.7,0-1.4,0-2.1c0,0,0,0,0,0c0,0,0,0,0,0c-0.7,0-1.4,0-2.2,0c0,0,0,0,0,0l0,0l0,0c0,0,0,0,0,0c0,0.7,0,1.4,0,2.1
			c-0.7,0-1.4,0-2.1,0c0-0.7,0-1.4,0-2.1c0.7,0,1.4,0,2.1,0c0,0,0,0,0,0c0,0,0,0,0,0c0-0.7,0-1.4,0-2.2c0,0,0,0,0,0c0,0,0,0,0,0
			c-0.7,0-1.4,0-2.1,0c0-0.7,0-1.4,0-2.2c-1.5,0-2.9,0-4.3,0c0-1.5,0-2.9,0-4.3c0.7,0,1.3,0,2.1,0c0,0.7,0,1.4,0,2.1
			C49,21.7,49.7,21.7,50.4,21.7z M46.1,15.3c0.7,0,1.4,0,2,0c0,0.7,0,1.3,0,2c-0.7,0-1.3,0-2,0C46.1,16.6,46.1,16,46.1,15.3z
			 M41.8,15.3c0.7,0,1.4,0,2.1,0c0,1.4,0,2.8,0,4.2c-0.7,0-1.4,0-2.1,0C41.8,18.1,41.8,16.7,41.8,15.3z M37.4,17.4
			c0.7,0,1.4,0,2.1,0c0,0.7,0,1.4,0,2.1c-0.7,0-1.4,0-2.1,0C37.4,18.8,37.4,18.1,37.4,17.4z M20,15.3c5,0,10.1,0,15.1,0
			c0,5,0,10.1,0,15.2c-5,0-10.1,0-15.1,0C20,25.4,20,20.4,20,15.3z M20,43.6c0.7,0,1.4,0,2.1,0c0,2.9,0,5.7,0,8.7
			c-0.7,0-1.3,0-2.1,0C20,49.3,20,46.5,20,43.6z M35.2,69.7c-5.1,0-10.1,0-15.1,0c0-5.1,0-10.1,0-15.2c5,0,10.1,0,15.1,0
			C35.2,59.6,35.2,64.6,35.2,69.7z M74.4,43.5c-0.7,0-1.4,0-2.1,0c0,0.7,0,1.4,0,2.2c0.7,0,1.4,0,2.1,0c0,1.5,0,2.9,0,4.4
			c-1.4,0-2.9,0-4.3,0c0,0,0,0,0,0c0,0,0,0,0,0c0,0.7,0,1.4,0,2.2c-0.7,0-1.4,0-2.2,0c0,1.5,0,2.9,0,4.4c-0.7,0-1.4,0-2.2,0
			c0,0.7,0,1.4,0,2.2c1.4,0,2.9,0,4.3,0c0,0,0,0,0,0c0,0,0,0,0,0c0-1.1,0-2.2,0-3.3c0-0.3,0-0.6,0-1c0.7,0,1.4,0,2.2,0
			c0-0.8,0-1.4,0-2.2c0.7,0,1.4,0,2.1,0c0,1.4,0,2.8,0,4.3c-0.7,0-1.4,0-2.1,0c0,0.7,0,1.4,0,2.2c-0.8,0-1.5,0-2.2,0c0,0,0,0,0,0
			c0,0,0,0,0,0c0,0.7,0,1.4,0,2.2c0,0,0,0,0,0c0,0,0,0,0,0c1.4,0,2.9,0,4.3,0c0,2.9,0,5.8,0,8.7c-2.1,0-4.3,0-6.5,0
			c0-0.7,0-1.4,0-2.1c1.4,0,2.8,0,4.3,0c0-1.5,0-2.9,0-4.5c-0.7,0-1.4,0-2.2,0c0,0,0,0,0,0h0h0c0,0,0,0,0,0c0,0.7,0,1.4,0,2.2
			c-0.7,0-1.4,0-2.1,0c0-0.7,0-1.4,0-2.2c0.7,0,1.4,0,2.1,0c0,0,0,0,0,0c0,0,0,0,0,0c0-0.7,0-1.4,0-2.2c0,0,0,0,0,0c0,0,0,0,0,0
			c-1.4,0-2.9,0-4.3,0c0,0.7,0,1.4,0,2.2c-0.8,0-1.5,0-2.2,0c0,0,0,0,0,0c0,0,0,0,0,0c0,0.7,0,1.5,0,2.2c0,0,0,0,0,0c0,0,0,0,0,0
			c0.7,0,1.4,0,2.2,0c0,0.7,0,1.4,0,2.1c-0.7,0-1.4,0-2.2,0c0-0.7,0-1.4,0-2.1c0,0,0,0,0,0l0,0v0c0,0,0,0,0,0c-0.7,0-1.5,0-2.2,0
			c0,0,0,0,0,0c0,0,0,0,0,0c0,1.4,0,2.9,0,4.4c-0.7,0-1.4,0-2.1,0c0-1.4,0-2.8,0-4.4c0.7,0,1.4,0,2.1,0c0,0,0,0,0,0l0,0c0,0,0,0,0,0
			c0-0.7,0-1.4,0-2.2c0,0,0,0,0,0c0,0,0,0,0,0c-0.7,0-1.4,0-2.1,0c0-0.7,0-1.4,0-2.1c-2.9,0-5.8,0-8.8,0c0,0.7,0,1.4,0,2.2
			c2.2,0,4.3,0,6.5,0c0,0.7,0,1.4,0,2.2c-1.4,0-2.8,0-4.3,0c0,1.5,0,2.9,0,4.4c-1.5,0-2.9,0-4.3,0c0-0.7-0.1-1.5-0.1-2.2
			c-0.8,0-1.5,0-2.3,0c-0.6,0-1.3,0-1.9,0c0,0,0,0,0,0c0,0,0,0,0,0c0,0.7,0,1.4,0,2.1c-0.7,0-1.4,0-2.2,0c0-0.7,0-1.4,0-2.1
			c0,0,0,0,0,0c0,0,0,0,0,0c-0.7,0-1.4,0-2.2,0c0,0.7,0,1.4,0,2.2c-0.7,0-1.4,0-2.2,0c0-3.6,0-7.2,0-10.9c0.7,0,1.4,0,2.1,0
			c0-0.7,0-1.4,0-2.2c-0.7,0-1.4,0-2.1,0c0-1.5,0-2.9,0-4.4c-2.2,0-4.4,0-6.6,0c0-0.8,0-1.5,0-2.2c0,0,0,0,0,0c0,0,0,0,0,0
			c-1.4,0-2.9,0-4.4,0c0,0.7,0,1.4,0,2.2c-0.7,0-1.4,0-2.2,0c0-2.2,0-4.3,0-6.5c1.4,0,2.9,0,4.3,0c0-1.5,0-2.9,0-4.3c0,0,0,0,0,0
			c0,0,0,0,0,0c-0.7,0-1.4,0-2.2,0c0,0,0,0,0,0c0,0,0,0,0,0c0,0.7,0,1.3,0,2.1c-0.7,0-1.4,0-2.1,0c0-0.7,0-1.3,0-2.1
			c0.7,0,1.4,0,2.1,0c0,0,0,0,0,0c0,0,0,0,0,0c0-2.2,0-4.3,0-6.5c-1.5,0-2.9,0-4.4,0c0,0.7,0,1.4,0,2.2c0.7,0,1.4,0,2.1,0
			c0,0.7,0,1.4,0,2.2c-0.7,0-1.4,0-2.1,0c0,0.7,0,1.4,0,2.2c-0.7,0-1.4,0-2.1,0c0-2.9,0-5.8,0-8.7c3.6,0,7.2,0,10.8,0
			c0,2.2,0,4.3,0,6.5c0,0,0,0,0,0c0,0,0,0,0,0c0.7,0,1.4,0,2.2,0c0-0.7,0-1.4,0-2.1c2.2,0,4.3,0,6.5,0c0,1.4,0,2.9,0,4.3
			c1.5,0,2.9,0,4.4,0c0,0.7,0,1.4,0,2.1c0,0,0,0,0,0c0,0,0,0,0,0c0.7,0,1.4,0,2.2,0c0-1.4,0-2.8,0-4.2c0.7,0,1.4,0,2.1,0
			c0,0.7,0,1.4,0,2.1c0.7,0,1.4,0,2.2,0c0,0.7,0,1.4,0,2.1c-0.7,0-1.4,0-2.1,0c0,0.7,0,1.4,0,2.2c-1.5,0-2.9,0-4.3,0c0,0,0,0,0,0
			c0,0,0,0,0,0c0,0.7,0,1.4,0,2.2c0,0,0,0,0,0c0,0,0,0,0,0c1.4,0,2.8,0,4.3,0c0,0.8,0,1.5,0,2.2c0,0,0,0,0,0c0,0,0,0,0,0
			c1.4,0,2.9,0,4.4,0c0,0.7,0,1.4,0,2.2c0.8,0,1.5,0,2.2,0c0-1.5,0-2.9,0-4.4c-0.7,0-1.4,0-2.1,0c0-0.7,0-1.4,0-2.2
			c0.7,0,1.4,0,2.1,0c0-0.7,0-1.4,0-2.2c-0.7,0-1.4,0-2.1,0c0-0.2,0-0.4,0-0.5c0-1.8,0-3.6,0-5.5c0-0.2,0-0.3,0-0.5
			c-0.7,0-1.4,0-2.1,0c0-0.7,0-1.4,0-2.2c-0.8,0-1.5,0-2.2,0c0,0.7,0,1.4,0,2.1c-0.7,0-1.4,0-2.1,0c0-0.7,0-1.4,0-2.2
			c-0.8,0-1.5,0-2.2,0c0,0,0,0,0,0c0,0,0,0,0,0c0,1.4,0,2.9,0,4.3c-0.7,0-1.4,0-2.2,0c0-1.4,0-2.9,0-4.3c0,0,0,0,0,0c0,0,0,0,0,0
			c-2.9,0-5.8,0-8.7,0c0-0.7,0-1.4,0-2.2c2.2,0,4.3,0,6.5,0c0-0.8,0-1.5,0-2.2c0,0,0,0,0,0c0,0,0,0,0,0c-0.7,0-1.4,0-2.1,0
			c0-1.5,0-2.9,0-4.3c0.7,0,1.4,0,2.1,0c0-0.7,0-1.4,0-2.2c-0.7,0-1.4,0-2.1,0c0-0.7,0-1.4,0-2.2c2.1,0,4.3,0,6.5,0
			c0,0.7,0,1.4,0,2.1c-0.7,0-1.4,0-2.1,0c0,1.5,0,2.9,0,4.4c0,0,0,0,0,0c0,0,0,0,0,0c0.7,0,1.4,0,2.2,0c0,0,0,0,0,0c0,0,0,0,0,0
			c0-0.7,0-1.4,0-2.1c1.4,0,2.8,0,4.3,0c0,1.4,0,2.8,0,4.3c-0.7,0-1.4,0-2.1,0c0,0,0,0,0,0c0,0,0,0,0,0c0,0.7,0,1.4,0,2.2
			c4.3,0,8.7,0,13,0c0,1.5,0,2.9,0,4.4c0.8,0,1.5,0,2.2,0c0-1.4,0-2.9,0-4.3c0.7,0,1.4,0,2.1,0c0,2.1,0,4.3,0,6.5
			c-0.7,0-1.4,0-2.2,0c0,0.8,0,1.6,0,2.4c0,0.6,0,1.2,0,1.9c0.7,0,1.5,0,2.2,0.1c0,0,0,0,0,0c0,0,0,0,0,0c0-0.7,0-1.3,0-2
			c0.7,0,1.4,0,2.2,0c0,0.7,0,1.4,0,2c0,0,0,0,0,0c0,0,0,0,0,0c0.7,0,1.4,0,2.2,0c0,0,0,0,0,0c0,0,0,0,0,0c0-0.7,0-1.3,0-2.1
			c1.5,0,2.9,0,4.4,0c0-1.5,0-2.9,0-4.4c0.7,0,1.4,0,2.2,0C74.4,39.2,74.4,41.3,74.4,43.5z"/>
		<path class="st2" d="M41.7,50.1c-0.8,0-1.5,0-2.2,0c0,0,0,0,0,0c0,0,0,0,0,0c0,1.5,0,2.9,0,4.4c0.8,0,1.5,0,2.2,0c0,0,0,0,0,0
			c0,0,0,0,0,0c0-0.7,0-1.4,0-2.1c1.5,0,2.9,0,4.3,0c0,0.7,0,1.4,0,2.1c-1.5,0-2.9,0-4.3,0c0,0,0,0,0,0c0,0,0,0,0,0
			c0,1.5,0,2.9,0,4.4c0.8,0,1.5,0,2.2,0c0-0.7,0-1.4,0-2.1c0.3,0,0.5,0,0.7,0c1.2,0,2.4,0,3.6,0c0-0.7,0-1.4,0-2.2
			c0.8,0,1.5,0,2.2,0c0-0.8,0-1.4,0-2.2c-0.7,0-1.4,0-2.2,0c0-0.8,0-1.5,0-2.2c0,0,0,0,0,0c0,0,0,0,0,0c-1.4,0-2.8,0-4.3,0
			c0-0.8,0-1.5,0-2.2c0,0,0,0,0,0c0,0,0,0,0,0c-0.7,0-1.4,0-2.2,0C41.7,48.6,41.7,49.3,41.7,50.1z"/>
		<path class="st2" d="M67.9,47.9C67.9,47.9,67.9,47.9,67.9,47.9C67.9,47.9,67.9,47.9,67.9,47.9c0,0.7,0,1.5,0,2.2
			c0.8,0,1.5,0,2.2,0c0,0,0,0,0,0c0,0,0,0,0,0c0-0.7,0-1.4,0-2.2C69.3,47.9,68.6,47.9,67.9,47.9z"/>
		<path class="st2" d="M61.4,28.3c3.7,0,7.3,0,10.9,0c0-3.6,0-7.3,0-10.9c-3.7,0-7.3,0-10.9,0C61.4,21.1,61.4,24.7,61.4,28.3z
			 M63.6,19.6c2.2,0,4.3,0,6.5,0c0,2.2,0,4.3,0,6.5c-2.2,0-4.3,0-6.5,0C63.6,23.9,63.6,21.8,63.6,19.6z"/>
		<path class="st2" d="M52.6,58.8c0.7,0,1.4,0,2.1,0c0-1.5,0-2.9,0-4.3c-0.7,0-1.4,0-2.1,0C52.6,56,52.6,57.4,52.6,58.8z"/>
		<path class="st2" d="M59.2,39.3c-0.8,0-1.5,0-2.2,0c0,2.9,0,5.7,0,8.6c0.7,0,1.4,0,2.2,0c0-0.7,0-1.4,0-2.2c0.7,0,1.4,0,2.2,0
			c0-0.8-0.1-1.5-0.1-2.2c-0.7,0-1.4,0-2.1,0C59.2,42.1,59.2,40.7,59.2,39.3z"/>
		<path class="st2" d="M65.7,50.1c0-0.7,0-1.4,0-2.2c0.8,0,1.4,0,2.1,0c0,0,0,0,0,0c0,0,0,0,0,0c0-0.7,0-1.4,0-2.2c0,0,0,0,0,0
			c0,0,0,0,0,0c-0.7,0-1.4,0-2.2,0c0-0.7,0-1.5,0-2.2c0,0,0,0,0,0c0,0,0,0,0,0c-0.7,0-1.4,0-2.2,0c0,0,0,0,0,0c0,0,0,0,0,0
			c0,2.2,0,4.3,0,6.5C64.3,50.1,65,50.1,65.7,50.1z"/>
		<path class="st2" d="M61.3,61c0,0.7,0,1.4,0,2.1c0,0,0,0,0,0c0,0,0,0,0,0c0.7,0,1.4,0,2.2,0c0,0,0,0,0,0c0,0,0,0,0,0
			c0-0.7,0-1.4,0-2.1C62.8,61,62.1,61,61.3,61z"/>
		<path class="st2" d="M33,56.7c-3.7,0-7.3,0-10.9,0c0,3.6,0,7.2,0,10.9c3.7,0,7.3,0,10.9,0C33,63.9,33,60.3,33,56.7z M30.8,65.3
			c-2.1,0-4.3,0-6.5,0c0-2.1,0-4.3,0-6.5c2.2,0,4.3,0,6.5,0C30.8,61,30.8,63.2,30.8,65.3z"/>
		<path d="M37.4,47.9C37.4,47.9,37.4,47.9,37.4,47.9C37.4,47.9,37.4,47.9,37.4,47.9L37.4,47.9z"/>
		<path d="M70,58.8C70,58.8,70,58.8,70,58.8C70,58.8,70,58.8,70,58.8L70,58.8z"/>
		<path d="M48.2,50.1C48.2,50.1,48.2,50.1,48.2,50.1L48.2,50.1C48.2,50.1,48.2,50.1,48.2,50.1z"/>
		<path d="M41.7,54.4C41.7,54.4,41.7,54.4,41.7,54.4C41.7,54.5,41.7,54.5,41.7,54.4L41.7,54.4z"/>
		<path d="M39.5,50.1C39.5,50.1,39.5,50.1,39.5,50.1C39.6,50.1,39.6,50.1,39.5,50.1L39.5,50.1z"/>
		<path d="M46.1,30.5C46.1,30.5,46.1,30.5,46.1,30.5L46.1,30.5C46.1,30.5,46.1,30.5,46.1,30.5z"/>
		<ellipse transform="matrix(0.8303 -0.5573 0.5573 0.8303 -13.8362 41.5259)" cx="61.3" cy="43.5" rx="0" ry="0"/>
		<path d="M63.5,43.5C63.5,43.5,63.5,43.5,63.5,43.5C63.5,43.5,63.5,43.5,63.5,43.5L63.5,43.5z"/>
		<path d="M67.9,47.9C67.9,47.9,67.9,47.9,67.9,47.9L67.9,47.9C67.9,47.9,67.9,47.9,67.9,47.9z"/>
		<path d="M70.1,61C70.1,61,70,61,70.1,61C70,61,70,61,70.1,61L70.1,61z"/>
		<path d="M43.9,34.9C43.9,34.9,43.9,34.9,43.9,34.9C43.9,34.9,43.9,34.9,43.9,34.9L43.9,34.9z"/>
		<ellipse transform="matrix(0.7423 -0.67 0.67 0.7423 -25.5244 46.8881)" cx="48.2" cy="56.6" rx="0" ry="0"/>
		<path d="M43.9,28.3C43.9,28.3,43.9,28.3,43.9,28.3C43.9,28.3,43.9,28.3,43.9,28.3L43.9,28.3z"/>
		<path d="M41.7,34.9C41.7,34.9,41.7,34.9,41.7,34.9L41.7,34.9C41.7,34.9,41.7,34.9,41.7,34.9z"/>
		<path d="M39.5,30.5C39.6,30.5,39.6,30.5,39.5,30.5C39.6,30.5,39.6,30.5,39.5,30.5L39.5,30.5z"/>
		<path d="M41.7,28.3C41.7,28.3,41.7,28.3,41.7,28.3L41.7,28.3C41.7,28.3,41.7,28.3,41.7,28.3z"/>
		<ellipse transform="matrix(0.6657 -0.7462 0.7462 0.6657 -10.0772 51.6204)" cx="52.6" cy="37.1" rx="0" ry="0"/>
		<ellipse transform="matrix(0.6679 -0.7442 0.7442 0.6679 -31.7164 55.2982)" cx="46.1" cy="63.2" rx="0" ry="0"/>
		<ellipse transform="matrix(0.4995 -0.8663 0.8663 0.4995 -34.3778 75.5138)" cx="48.2" cy="67.5" rx="0" ry="0"/>
		<path d="M41.7,67.5C41.7,67.6,41.7,67.6,41.7,67.5L41.7,67.5C41.7,67.5,41.7,67.5,41.7,67.5z"/>
		<ellipse transform="matrix(0.7615 -0.6482 0.6482 0.7615 -31.0037 42.1292)" cx="41.7" cy="63.2" rx="0" ry="0"/>
		<path d="M30.8,50.1C30.8,50.1,30.8,50.1,30.8,50.1C30.8,50.1,30.8,50.1,30.8,50.1L30.8,50.1z"/>
		<path d="M70,50.1C70.1,50.1,70.1,50.1,70,50.1L70,50.1C70,50.1,70,50.1,70,50.1z"/>
		<path d="M61.3,63.2C61.3,63.2,61.3,63.2,61.3,63.2L61.3,63.2C61.3,63.2,61.3,63.2,61.3,63.2z"/>
		<path d="M63.5,63.2C63.5,63.2,63.5,63.2,63.5,63.2C63.5,63.2,63.5,63.2,63.5,63.2L63.5,63.2z"/>
		<path d="M43.9,67.6C43.9,67.6,43.9,67.6,43.9,67.6C43.9,67.5,43.9,67.5,43.9,67.6L43.9,67.6z"/>
		<path d="M37.4,45.7C37.4,45.7,37.4,45.7,37.4,45.7C37.4,45.7,37.4,45.7,37.4,45.7L37.4,45.7z"/>
		<path d="M30.8,50.1C30.8,50.1,30.8,50.1,30.8,50.1L30.8,50.1C30.8,50.1,30.8,50.1,30.8,50.1z"/>
		<path d="M30.8,39.3C30.8,39.2,30.8,39.2,30.8,39.3L30.8,39.3C30.8,39.3,30.8,39.3,30.8,39.3z"/>
		<ellipse transform="matrix(0.7167 -0.6974 0.6974 0.7167 -18.0183 34.1327)" cx="33" cy="39.2" rx="0" ry="0"/>
		<path d="M28.6,41.4C28.6,41.4,28.6,41.4,28.6,41.4C28.6,41.4,28.6,41.4,28.6,41.4L28.6,41.4z"/>
		<path d="M43.9,43.5C43.9,43.5,43.9,43.5,43.9,43.5C43.9,43.5,43.9,43.5,43.9,43.5L43.9,43.5z"/>
		<path d="M26.5,41.4C26.5,41.4,26.5,41.4,26.5,41.4C26.4,41.4,26.4,41.4,26.5,41.4L26.5,41.4z"/>
		<path d="M30.8,39.2C30.8,39.2,30.8,39.2,30.8,39.2C30.8,39.2,30.8,39.2,30.8,39.2L30.8,39.2z"/>
		<path d="M28.6,41.4C28.6,41.4,28.6,41.4,28.6,41.4L28.6,41.4C28.6,41.4,28.6,41.4,28.6,41.4z"/>
		<path d="M67.9,43.5C67.9,43.5,67.9,43.5,67.9,43.5L67.9,43.5C67.9,43.5,67.9,43.5,67.9,43.5z"/>
		<path d="M67.9,45.7C67.9,45.7,67.9,45.7,67.9,45.7C67.9,45.7,67.9,45.7,67.9,45.7L67.9,45.7z"/>
		<path d="M70.1,50.1C70.1,50.1,70.1,50.1,70.1,50.1C70.1,50.1,70.1,50.1,70.1,50.1L70.1,50.1z"/>
		<path d="M67.9,47.9C67.9,47.9,67.9,47.9,67.9,47.9C67.9,47.9,67.9,47.9,67.9,47.9L67.9,47.9z"/>
		<path d="M54.7,17.4C54.7,17.4,54.7,17.4,54.7,17.4C54.7,17.4,54.7,17.4,54.7,17.4L54.7,17.4z"/>
		<path d="M52.6,26.1C52.6,26.1,52.6,26.1,52.6,26.1C52.6,26.1,52.6,26.1,52.6,26.1L52.6,26.1z"/>
		<path d="M39.5,30.5C39.5,30.5,39.5,30.5,39.5,30.5L39.5,30.5C39.6,30.5,39.6,30.5,39.5,30.5z"/>
		<path d="M41.7,28.3C41.7,28.3,41.7,28.3,41.7,28.3C41.7,28.3,41.7,28.3,41.7,28.3L41.7,28.3z"/>
		<path d="M70.1,63.2C70.1,63.2,70.1,63.2,70.1,63.2C70.1,63.2,70,63.2,70.1,63.2C70,63.2,70.1,63.2,70.1,63.2z"/>
		<path d="M70.1,61C70.1,61,70.1,61,70.1,61L70.1,61C70,61,70.1,61,70.1,61z"/>
		<path d="M43.9,43.5C43.9,43.5,43.9,43.5,43.9,43.5L43.9,43.5C43.9,43.5,43.9,43.5,43.9,43.5z"/>
		<path d="M43.9,45.7C43.9,45.7,43.9,45.7,43.9,45.7C43.9,45.7,43.9,45.7,43.9,45.7L43.9,45.7z"/>
		<path d="M43.9,47.9C43.9,47.9,43.9,47.9,43.9,47.9C43.9,47.9,43.9,47.9,43.9,47.9L43.9,47.9z"/>
		<path d="M37.4,45.7C37.4,45.7,37.4,45.7,37.4,45.7L37.4,45.7C37.4,45.7,37.4,45.7,37.4,45.7z"/>
		<path d="M39.6,50.1C39.6,50.1,39.6,50.1,39.6,50.1C39.6,50.1,39.6,50.1,39.6,50.1L39.6,50.1z"/>
		<path d="M43.9,45.7C43.9,45.7,43.9,45.7,43.9,45.7L43.9,45.7C43.9,45.7,43.9,45.7,43.9,45.7z"/>
		<path d="M37.4,47.9C37.4,47.9,37.4,47.9,37.4,47.9C37.4,47.9,37.4,47.9,37.4,47.9L37.4,47.9z"/>
		<path d="M70,58.8C70,58.8,70,58.8,70,58.8L70,58.8C70,58.8,70,58.8,70,58.8z"/>
		<path d="M46.1,30.5C46.1,30.5,46.1,30.5,46.1,30.5C46.1,30.5,46.1,30.5,46.1,30.5L46.1,30.5z"/>
		<path d="M43.9,28.3C43.9,28.3,43.9,28.3,43.9,28.3L43.9,28.3C43.9,28.3,43.9,28.3,43.9,28.3z"/>
		<path d="M41.7,34.9C41.7,34.9,41.7,34.9,41.7,34.9C41.7,34.9,41.7,34.9,41.7,34.9L41.7,34.9z"/>
		<path d="M43.9,34.9C43.9,34.9,43.9,34.9,43.9,34.9L43.9,34.9C43.9,34.9,43.9,34.9,43.9,34.9z"/>
		<path d="M61.3,65.4L61.3,65.4C61.3,65.4,61.3,65.4,61.3,65.4C61.3,65.4,61.3,65.4,61.3,65.4C61.3,65.4,61.3,65.4,61.3,65.4
			L61.3,65.4z"/>
		<path d="M48.2,50.1C48.2,50.1,48.2,50.1,48.2,50.1C48.2,50.1,48.2,50.1,48.2,50.1L48.2,50.1z"/>
		<path d="M43.9,47.9C43.9,47.9,43.9,47.9,43.9,47.9L43.9,47.9C43.9,47.9,43.9,47.9,43.9,47.9z"/>
		<path d="M41.7,67.6C41.7,67.6,41.7,67.6,41.7,67.6C41.7,67.6,41.7,67.6,41.7,67.6L41.7,67.6z"/>
		<path d="M43.9,67.6C43.9,67.6,43.9,67.6,43.9,67.6L43.9,67.6C43.9,67.6,43.9,67.6,43.9,67.6z"/>
		<polygon points="63.5,65.4 63.5,65.4 63.5,65.4 		"/>
		<path d="M63.5,65.4C63.5,65.4,63.5,65.4,63.5,65.4C63.5,65.4,63.5,65.4,63.5,65.4C63.5,65.4,63.5,65.4,63.5,65.4z"/>
		<path d="M61.3,63.2C61.3,63.2,61.3,63.2,61.3,63.2C61.3,63.2,61.3,63.2,61.3,63.2L61.3,63.2z"/>
		<path d="M63.5,63.2C63.5,63.2,63.5,63.2,63.5,63.2L63.5,63.2C63.5,63.2,63.5,63.2,63.5,63.2z"/>
		<path d="M61.3,65.4C61.3,65.4,61.3,65.4,61.3,65.4C61.3,65.4,61.3,65.4,61.3,65.4C61.3,65.4,61.3,65.4,61.3,65.4z"/>
		<path d="M63.5,65.4C63.5,65.4,63.5,65.4,63.5,65.4C63.5,65.4,63.5,65.4,63.5,65.4C63.5,65.4,63.5,65.4,63.5,65.4z"/>
		<path d="M61.3,65.4L61.3,65.4L61.3,65.4z"/>
		<polygon points="63.5,65.4 63.5,65.4 63.5,65.4 		"/>
		<path d="M52.6,28.3C52.6,28.3,52.6,28.3,52.6,28.3C52.6,28.3,52.6,28.3,52.6,28.3L52.6,28.3z"/>
		<path d="M54.7,28.3C54.7,28.3,54.7,28.3,54.7,28.3C54.7,28.3,54.7,28.3,54.7,28.3C54.7,28.3,54.7,28.3,54.7,28.3z"/>
		<path d="M52.6,26.1C52.6,26.1,52.6,26.1,52.6,26.1L52.6,26.1C52.6,26.1,52.6,26.1,52.6,26.1z"/>
		<path d="M52.6,28.3L52.6,28.3C52.6,28.3,52.6,28.3,52.6,28.3C52.6,28.3,52.6,28.3,52.6,28.3z"/>
		<path d="M54.8,28.3L54.8,28.3L54.8,28.3z"/>
		<path d="M54.8,28.3C54.8,28.3,54.8,28.3,54.8,28.3L54.8,28.3C54.7,28.3,54.7,28.3,54.8,28.3z"/>
		<polygon points="54.8,28.3 54.7,28.3 54.7,28.3 		"/>
		<path d="M67.9,43.5C67.9,43.5,67.9,43.5,67.9,43.5C67.9,43.5,67.9,43.5,67.9,43.5L67.9,43.5z"/>
		<path d="M67.9,45.7C67.9,45.7,67.9,45.7,67.9,45.7L67.9,45.7C67.9,45.7,67.9,45.7,67.9,45.7z"/>
		<path d="M65.7,43.5C65.7,43.5,65.7,43.5,65.7,43.5L65.7,43.5C65.7,43.5,65.7,43.5,65.7,43.5z"/>
		<path d="M70.1,63.2L70.1,63.2L70.1,63.2z"/>
		<path d="M70,63.2C70,63.2,70.1,63.2,70,63.2L70,63.2C70,63.2,70,63.2,70,63.2z"/>
		<polygon points="70.1,63.2 70.1,63.2 70,63.2 		"/>
		<path d="M26.4,41.4C26.4,41.4,26.5,41.4,26.4,41.4L26.4,41.4C26.4,41.4,26.4,41.4,26.4,41.4z"/>
		<path d="M65.7,43.5C65.7,43.5,65.7,43.5,65.7,43.5C65.7,43.5,65.7,43.5,65.7,43.5L65.7,43.5z"/>
		<path d="M63.5,43.5C63.5,43.5,63.5,43.5,63.5,43.5L63.5,43.5C63.5,43.5,63.5,43.5,63.5,43.5z"/>
		<path d="M54.7,17.4C54.7,17.4,54.8,17.4,54.7,17.4C54.8,17.4,54.8,17.4,54.7,17.4C54.7,17.4,54.7,17.4,54.7,17.4z"/>
		<path d="M41.7,54.4C41.7,54.4,41.7,54.4,41.7,54.4L41.7,54.4C41.7,54.4,41.7,54.4,41.7,54.4z"/>
		<ellipse transform="matrix(0.6482 -0.7615 0.7615 0.6482 -24.0847 43.6419)" cx="35.2" cy="47.9" rx="0" ry="0"/>
		<ellipse transform="matrix(0.6873 -0.7264 0.7264 0.6873 -22.1944 39.8503)" cx="35.2" cy="45.7" rx="0" ry="0"/>
		<ellipse transform="matrix(0.7264 -0.6873 0.6873 0.7264 -22.385 35.1876)" cx="33" cy="45.7" rx="0" ry="0"/>
	</g>
</g>
<g id="icoon__x23_18" class="st0">
	<g class="st1">
		<g>
			<path class="st2" d="M18.2,76.8l1.7,3c1.6,2.8,5.5,5,8.7,5h37.2c3.2,0,7.1-2.3,8.7-5l18.6-32.2c1.6-2.8,1.6-7.3,0-10l-7-12h-68
				V76.8z M24.2,31c9.9,0,19.7,0,29.6,0c0,9.9,0,19.7,0,29.6c-9.9,0-19.7,0-29.6,0C24.2,50.7,24.2,40.8,24.2,31z"/>
			<path class="st2" d="M28.2,56.3c7.2,0,14.2,0,21.3,0c0-7.1,0-14.2,0-21.3c-7.1,0-14.2,0-21.3,0C28.2,42.2,28.2,49.2,28.2,56.3z
				 M32.6,39.3c4.2,0,8.4,0,12.6,0c0,4.2,0,8.4,0,12.7c-4.2,0-8.4,0-12.6,0C32.6,47.8,32.6,43.6,32.6,39.3z"/>
			<path class="st2" d="M84.1,21.9L74.5,5.3c-1.6-2.8-5.5-5-8.7-5H28.6c-3.2,0-7.1,2.3-8.7,5L1.3,37.5c-1.6,2.8-1.6,7.3,0,10
				l13.3,23.1V21.9H84.1z"/>
		</g>
		<g>
			<path class="st2" d="M37.2,42.2l1.3-0.2v1.7h2v1.1h-2V47c0,0.4,0.1,0.8,0.2,1c0.1,0.2,0.4,0.3,0.7,0.3c0.2,0,0.4,0,0.6-0.1
				c0.2-0.1,0.3-0.1,0.4-0.1l0.2,1c-0.2,0.1-0.3,0.1-0.6,0.2c-0.2,0.1-0.5,0.1-0.9,0.1c-0.4,0-0.7-0.1-1-0.2
				c-0.3-0.1-0.5-0.3-0.6-0.5s-0.3-0.4-0.3-0.7s-0.1-0.6-0.1-1L37.2,42.2L37.2,42.2z"/>
		</g>
	</g>
</g>
<g id="icoon__x23_17" class="st0">
	<g class="st1">
		<rect x="35" y="37.4" class="st3" width="9.9" height="35.1"/>
		<rect x="22.7" y="18.1" class="st3" width="9.9" height="54.4"/>
		<rect x="47.2" y="25.6" class="st3" width="9.9" height="46.8"/>
		<rect x="59.3" y="51.7" class="st3" width="9.9" height="1"/>
		<rect x="59.3" y="54.9" class="st3" width="9.9" height="17.5"/>
		<path class="st2" d="M65.6,46.6c0.1,0,0.2,0,0.2-0.1s0.1-0.2,0.1-0.4s0-0.3-0.1-0.4c-0.1-0.1-0.1-0.1-0.2-0.1
			c-0.1,0-0.2,0-0.2,0.1s-0.1,0.2-0.1,0.4c0,0.2,0,0.3,0.1,0.4S65.5,46.6,65.6,46.6z"/>
		<path class="st2" d="M62.6,47.8c0,0.1,0.1,0.2,0.2,0.2c0.1,0.1,0.1,0.1,0.2,0.1s0.2,0,0.2-0.1c0.1-0.1,0.1-0.1,0.2-0.2
			s0.1-0.2,0.1-0.4c0-0.1,0-0.3,0-0.5s0-0.3,0-0.5c0-0.1,0-0.3-0.1-0.4c0-0.1-0.1-0.2-0.2-0.2c-0.1-0.1-0.1-0.1-0.2-0.1
			c-0.1,0-0.2,0-0.2,0.1c-0.1,0.1-0.1,0.1-0.2,0.2c0,0.1-0.1,0.2-0.1,0.4c0,0.1,0,0.3,0,0.5s0,0.3,0,0.5S62.6,47.7,62.6,47.8z"/>
		<path class="st2" d="M67.9,47.4c-0.1,0.1-0.1,0.2-0.1,0.4s0,0.3,0.1,0.4c0.1,0.1,0.1,0.1,0.2,0.1c0.1,0,0.2,0,0.2-0.1
			c0.1-0.1,0.1-0.2,0.1-0.4s0-0.3-0.1-0.4c-0.1-0.1-0.1-0.1-0.2-0.1C68,47.3,68,47.3,67.9,47.4z"/>
		<path class="st2" d="M93.1,37.5L74.5,5.3c-1.6-2.8-5.5-5-8.7-5H28.6c-3.2,0-7.1,2.3-8.7,5L1.3,37.5c-1.6,2.8-1.6,7.3,0,10
			l18.6,32.2c1.6,2.8,5.5,5,8.7,5h37.2c3.2,0,7.1-2.3,8.7-5l18.6-32.2C94.7,44.8,94.7,40.3,93.1,37.5z M69.1,47.8
			c0,0.3-0.1,0.6-0.2,0.7c-0.2,0.2-0.4,0.3-0.7,0.3s-0.5-0.1-0.7-0.3c-0.2-0.2-0.2-0.4-0.2-0.7c0-0.3,0.1-0.6,0.2-0.7
			s0.4-0.3,0.7-0.3s0.5,0.1,0.7,0.3S69.1,47.5,69.1,47.8z M68.2,45.1l-2,3.6h-0.7l2-3.6H68.2z M64.9,45.3c0.2-0.2,0.4-0.3,0.7-0.3
			s0.5,0.1,0.7,0.3c0.2,0.2,0.2,0.4,0.2,0.7c0,0.3-0.1,0.6-0.2,0.7c-0.2,0.2-0.4,0.3-0.7,0.3s-0.5-0.1-0.7-0.3s-0.2-0.4-0.2-0.7
			C64.7,45.7,64.8,45.5,64.9,45.3z M61.8,46.1c0.1-0.2,0.1-0.4,0.3-0.6s0.3-0.3,0.4-0.4s0.3-0.1,0.5-0.1c0.4,0,0.7,0.2,0.9,0.5
			c0.2,0.3,0.3,0.8,0.3,1.4c0,0.6-0.1,1.1-0.3,1.4c-0.2,0.3-0.5,0.5-0.9,0.5s-0.7-0.2-0.9-0.5c-0.2-0.3-0.3-0.8-0.3-1.4
			C61.7,46.6,61.8,46.4,61.8,46.1z M32.6,72.5h-9.9V18.1h9.9V72.5z M44.8,72.5H35V37.4h9.9V72.5z M57.1,72.5h-9.9V25.6h9.9V72.5z
			 M58.9,40.6h0.9v-1h0.7v1h0.9v0.6h-0.9v1h-0.7v-1h-0.9V40.6z M59,45.9c0.1,0,0.2-0.1,0.3-0.1s0.2-0.1,0.3-0.2
			c0.1-0.1,0.2-0.1,0.3-0.2c0.1-0.1,0.2-0.1,0.3-0.2h0.5v3.6h-0.8v-2.6c-0.1,0.1-0.2,0.1-0.3,0.2c-0.1,0.1-0.3,0.1-0.4,0.1L59,45.9z
			 M69.2,72.5h-9.9V54.9h9.9V72.5z M69.2,52.8h-9.9v-1h9.9V52.8z"/>
	</g>
</g>
<g id="icoon__x23_16" class="st0">
	<g class="st1">
		<path class="st2" d="M93.1,37.3L74.5,5.1c-1.6-2.8-5.5-5-8.7-5H28.6c-3.2,0-7.1,2.3-8.7,5L1.3,37.3c-1.6,2.8-1.6,7.3,0,10
			l18.6,32.2c0.3,0.5,0.6,0.9,1,1.4l0-11c-0.1-1.2,0.1-2.4,0.6-3.3l10.4-18c0.9-1.5,3.1-2.8,4.8-2.8h20.8c1.8,0,4,1.3,4.8,2.8
			l10.4,18c0.5,0.9,0.7,2.2,0.6,3.3l0,11c0.4-0.4,0.7-0.9,1-1.4l18.6-32.2C94.7,44.6,94.7,40.1,93.1,37.3z M61.5,30.7l-5.8,10
			c-0.5,0.9-1.7,1.6-2.7,1.6H41.4c-1,0-2.2-0.7-2.7-1.6l-5.8-10c-0.5-0.9-0.5-2.3,0-3.1l5.8-10c0.5-0.9,1.7-1.6,2.7-1.6H53
			c1,0,2.2,0.7,2.7,1.6l5.8,10C62,28.5,62,29.9,61.5,30.7z"/>
	</g>
</g>
<g id="icoon__x23_15" class="st0">
	<g class="st1">
		<path class="st2" d="M50.6,17h-6.5c-0.5,0-0.9,0.3-0.9,0.7c0,0.4,0.4,0.7,0.9,0.7h6.5c0.5,0,0.9-0.3,0.9-0.7
			C51.5,17.3,51.1,17,50.6,17z"/>
		<path class="st2" d="M93.1,37.5L74.5,5.3c-1.6-2.8-5.5-5-8.7-5H28.6c-3.2,0-7.1,2.3-8.7,5L1.3,37.5c-1.6,2.8-1.6,7.3,0,10
			l18.6,32.2c0.1,0.2,0.3,0.4,0.4,0.6V17.8c0-4.2,3.4-7.6,7.6-7.6h37.9c4.2,0,7.6,3.4,7.6,7.6v63.5c0.5-0.5,0.8-1,1.1-1.5l18.6-32.2
			C94.7,44.8,94.7,40.3,93.1,37.5z"/>
		<circle class="st2" cx="40.1" cy="17.7" r="1"/>
		<path class="st2" d="M65.8,84.8c1.3,0,2.7-0.4,4-1V21.7H23.9v61.8c1.5,0.8,3.2,1.3,4.7,1.3L65.8,84.8L65.8,84.8z M33.4,47.7l5-8.7
			c0.8-1.3,2.2-2.2,3.8-2.2h10c1.5,0,3,0.8,3.8,2.2l1.3,2.3l-7.5,12.9c-0.1,0.2-0.8,1.1-1.8,0.6c-1.1-0.7-0.5-1.8-0.5-1.8v0l2.7-4.8
			c0,0,1-1.8-0.6-2.7c-1.6-0.9-2.6,0.9-2.6,0.9l-2.7,4.8c-0.1,0.1-0.7,1.1-1.8,0.6c-1.1-0.6-0.6-1.7-0.5-1.9v0l2.7-4.7
			c0,0,1-1.8-0.6-2.7c-1.6-0.9-2.6,0.9-2.6,0.9l-2.3,4c-2.2,3.8-0.2,7.6,3.7,9.9c3.9,2.2,8.2,2.1,10.4-1.7l6-10.3l1.6,2.8
			c0.8,1.3,0.8,3,0,4.3l-5,8.7c-0.8,1.3-2.2,2.2-3.8,2.2h-10c-1.6,0-3-0.8-3.8-2.2l-5-8.7C32.6,50.7,32.6,49.1,33.4,47.7z"/>
	</g>
</g>
<g id="icoon__x23_12" class="st0">
	<g class="st1">
		<g>
			<path class="st2" d="M86.7,38.2L74.5,16.9H19.9L7.7,38.2c-1.4,2.4-1.4,6.3,0,8.6l16,27.8c1.4,2.4,4.7,4.3,7.5,4.3h32.1
				c2.7,0,6.1-1.9,7.5-4.3l16-27.8C88.1,44.5,88.1,40.6,86.7,38.2z M34.5,47.2l-1.2,3.5l-15.2-6.4v-3.6l15.2-6.4l1.2,3.5l-11.8,4.7
				L34.5,47.2z M43.3,59.1h-4.4L50.8,25h4.3L43.3,59.1z M76.2,44.3L61,50.7l-1.2-3.5l11.8-4.7l-11.8-4.7l1.2-3.5l15.2,6.4V44.3z"/>
		</g>
		<g>
			<path class="st2" d="M65.4,5.2l1.2-1.7h1.3l-1.8,2.6c0.4,0.5,0.7,1,1.1,1.5S67.8,8.6,68,9h-1.4c-0.1-0.1-0.1-0.3-0.2-0.4
				s-0.2-0.3-0.3-0.5C66,8,65.9,7.8,65.8,7.6c-0.1-0.2-0.2-0.3-0.4-0.5c-0.2,0.3-0.5,0.6-0.7,0.9c-0.2,0.3-0.4,0.6-0.6,0.9h-1.3
				c0.1-0.2,0.2-0.4,0.4-0.7c0.2-0.2,0.3-0.5,0.5-0.7c0.2-0.2,0.3-0.5,0.5-0.7c0.2-0.2,0.4-0.5,0.5-0.7l-1.8-2.7h1.4L65.4,5.2z"/>
		</g>
		<g>
			<path class="st3" d="M75.1,12.3l-55.8,0L4.2,38.5c-1.2,2.1-1.2,5.9,0,8l18.1,31.3c1.2,2.1,4.5,4,6.9,4h36.1c2.5,0,5.7-1.9,6.9-4
				l18.1-31.3c1.2-2.1,1.2-5.9,0-8L75.1,12.3z"/>
			<path class="st2" d="M93.2,36.8L75.2,5.5c-1.9-3.2-6.2-5.7-9.9-5.7H29.1c-3.7,0-8.1,2.5-9.9,5.7L1.2,36.8
				c-1.9,3.2-1.9,8.2,0,11.4l18.1,31.3c1.9,3.2,6.2,5.7,9.9,5.7h36.1c3.7,0,8.1-2.5,9.9-5.7l18.1-31.3C95.1,45,95.1,40,93.2,36.8z
				 M60.5,5.6l2-3.5c0.2-0.3,0.6-0.5,0.9-0.5h4c0.3,0,0.8,0.2,0.9,0.5l2,3.5c0.2,0.3,0.2,0.8,0,1.1l-2,3.5c-0.2,0.3-0.6,0.5-0.9,0.5
				h-4c-0.3,0-0.8-0.2-0.9-0.5l-2-3.5C60.3,6.4,60.3,5.9,60.5,5.6z M90.2,46.5L72.2,77.8c-1.2,2.1-4.5,4-6.9,4H29.1
				c-2.5,0-5.7-1.9-6.9-4L4.2,46.5c-1.2-2.1-1.2-5.9,0-8l15.1-26.2l55.8,0l15.1,26.2C91.5,40.7,91.5,44.4,90.2,46.5z"/>
		</g>
	</g>
</g>
<g id="icoon__x23_11" class="st0">
	<g class="st1">
		<path class="st3" d="M40,85.5c1,0,1.8-0.6,2.1-1.4h-4.3C38.2,84.9,39,85.5,40,85.5z"/>
		<path class="st3" d="M68.2,85.5c1.3,0,2.3-1,2.3-2.3c0-0.2,0-0.3-0.1-0.5c-1.4,0.8-2.9,1.3-4.4,1.3C66.5,84.9,67.3,85.5,68.2,85.5
			z"/>
		<path class="st2" d="M42.3,83.2c0-1.3-1-2.3-2.3-2.3s-2.3,1-2.3,2.3c0,0.3,0.1,0.6,0.2,0.9h4.3C42.2,83.8,42.3,83.5,42.3,83.2z"/>
		<path class="st2" d="M68.2,80.9c-1.3,0-2.3,1-2.3,2.3c0,0.3,0.1,0.6,0.2,0.8c1.4-0.1,3-0.6,4.4-1.3C70.3,81.7,69.3,80.9,68.2,80.9
			z"/>
		<path class="st2" d="M93.1,36.8L74.5,4.5c-1.6-2.8-5.5-5-8.7-5H28.6c-3.2,0-7.1,2.3-8.7,5L1.3,36.8c-1.6,2.8-1.6,7.3,0,10L19.9,79
			c1.6,2.8,5.5,5,8.7,5h5.6c0-0.3-0.1-0.6-0.1-0.9c0-3.2,2.6-5.9,5.9-5.9s5.9,2.6,5.9,5.9c0,0.3,0,0.6-0.1,0.9h16.7
			c0-0.3-0.1-0.6-0.1-0.9c0-3.2,2.6-5.9,5.9-5.9c2.2,0,4.2,1.3,5.2,3.1c0.4-0.4,0.8-0.9,1.1-1.4l18.6-32.2
			C94.7,44.1,94.7,39.5,93.1,36.8z M70.3,73.9H38.9c-2.8,0-6.1-1.9-7.5-4.3L18.5,47.3c-1.4-2.4-1.4-6.2,0-8.6l3.1-5.7
			c-0.7-0.9-1.1-2-1.1-3.2c0-2.8,2.3-5.1,5.1-5.1s5.1,2.3,5.1,5.1s-2.3,5.1-5.1,5.1c-0.3,0-0.7,0-1-0.1l-3,5.6
			c-0.8,1.3-0.8,3.8,0,5.1l12.8,22.2c0.8,1.3,2.9,2.6,4.4,2.6h31.4V73.9z M81.8,44.6L71.2,62.9c-0.9,1.6-3.1,2.8-4.9,2.8H45.2
			c-1.8,0-4-1.3-4.9-2.8L29.7,44.6c-0.9-1.6,0.1-4.1,1-5.7h51C82.7,40.5,82.7,43.1,81.8,44.6z"/>
	</g>
</g>
<g id="icoon__x23_10" class="st0">
	<g class="st1">
		<path class="st2" d="M93.1,37.5L74.5,5.3c-1.6-2.8-5.5-5-8.7-5H28.6c-3.2,0-7.1,2.3-8.7,5L1.3,37.5c-1.6,2.8-1.6,7.3,0,10
			l18.6,32.2c1.6,2.8,5.5,5,8.7,5h37.2c3.2,0,7.1-2.3,8.7-5l18.6-32.2C94.7,44.8,94.7,40.3,93.1,37.5z M31.8,79.8
			c-2.8,0-6.2-2-7.6-4.4L7.9,47.2c-1.4-2.4-1.4-6.4,0-8.8l16.3-28.2c1.4-2.4,4.8-4.4,7.6-4.4h30.1l-18.5,32c-1.6,2.8-1.6,7.3,0,10
			l18.5,32H31.8z M81.9,45.8h-9.3v10.2h-5.6V45.8h-9.3v-5.3h9.3V30.3h5.6v10.2h9.3V45.8z"/>
	</g>
</g>
<g id="icoon__x23_9" class="st0">
	<g class="st1">
		<path class="st2" d="M93.1,37.5L74.5,5.3c-1.6-2.8-5.5-5-8.7-5H28.6c-3.2,0-7.1,2.3-8.7,5L1.3,37.5c-1.6,2.8-1.6,7.3,0,10
			l18.6,32.2c1.6,2.8,5.5,5,8.7,5h37.2c3.2,0,7.1-2.3,8.7-5l18.6-32.2C94.7,44.8,94.7,40.3,93.1,37.5z M31.3,79.5
			c-2.8,0-6.2-2-7.6-4.4L7.4,46.9c-1.4-2.4-1.4-6.4,0-8.8L23.7,9.9c1.4-2.4,4.8-4.4,7.6-4.4h12l-18.5,32c-1.6,2.8-1.6,7.3,0,10
			l18.5,32L31.3,79.5L31.3,79.5z M50.6,75.3c-2.5,0-5.5-1.7-6.7-3.9l-14.4-25c-1.2-2.1-1.2-5.6,0-7.8l14.4-25
			c1.2-2.1,4.3-3.9,6.7-3.9h7.8c0,0.1-0.1,0.1-0.1,0.2L42,38.1c-1.4,2.4-1.4,6.4,0,8.8l16.3,28.2c0,0.1,0.1,0.1,0.1,0.2L50.6,75.3
			L50.6,75.3z M54.7,56.4c-1.7,0-3.2-0.9-4-2.3l-5.4-9.3c-0.8-1.4-0.8-3.2,0-4.6l5.4-9.3c0.8-1.4,2.4-2.3,4-2.3h10.8
			c1.6,0,3.2,0.9,4,2.3l1.4,2.4l-8,13.8c-0.1,0.2-0.9,1.2-1.9,0.6c-1.2-0.7-0.5-2-0.5-2v0l2.9-5.1c0,0,1.1-1.9-0.7-2.9
			c-1.7-0.9-2.7,0.9-2.7,0.9l-2.9,5.1c-0.1,0.1-0.8,1.2-1.9,0.6c-1.2-0.7-0.6-1.8-0.5-2v0l2.9-5.1c0,0,1.1-1.9-0.7-2.9
			c-1.7-0.9-2.7,0.9-2.7,0.9l-2.5,4.3c-2.4,4.1-0.2,8.2,3.9,10.6c4.2,2.4,8.7,2.2,11.1-1.9l6.4-11.1l1.7,3c0.8,1.4,0.8,3.2,0,4.6
			l-5.4,9.3c-0.8,1.4-2.4,2.3-4,2.3L54.7,56.4L54.7,56.4z M88.4,45.6L77,65.4c-1,1.7-3.4,3.1-5.3,3.1h-6.2c0,0,0.1-0.1,0.1-0.1
			L78.5,46c1.1-1.9,1.1-5,0-6.9L65.6,16.7c0,0-0.1-0.1-0.1-0.1h6.2c2,0,4.3,1.4,5.3,3.1l11.4,19.8C89.4,41.1,89.4,43.9,88.4,45.6z"
			/>
	</g>
</g>
<g id="icoon__x23_8" class="st0">
	<g class="st1">
		<path class="st2" d="M74.5,5.3c-1.6-2.8-5.5-5-8.7-5H28.6c-3.2,0-7.1,2.3-8.7,5L1.3,37.5c-1.6,2.8-1.6,7.3,0,10l18.6,32.2
			c1.6,2.8,5.5,5,8.7,5h37.2c3.2,0,7.1-2.3,8.7-5l18.6-32.2c1.6-2.8,1.6-7.3,0-10L74.5,5.3z M58.8,68.8c-2.1,0.5-4.6,0.8-7.5,0.8
			c-6.3,0-11-1.5-14.4-4.5c-3.3-3-5.5-7.3-6.5-12.8H25v-7.4h4.7c0-0.6-0.1-1-0.1-1.3c0-0.3,0-0.7,0-1.1c0-0.4,0-0.8,0-1.3
			s0-0.9,0.1-1.3H25v-7.4h5.7c1.3-5.6,3.8-9.8,7.4-12.7s8.3-4.3,14.1-4.3c2.3,0,4.2,0.2,5.8,0.5c1.6,0.4,3.2,0.8,4.8,1.4l-2.3,8.7
			c-1.2-0.4-2.4-0.7-3.7-1c-1.3-0.3-2.8-0.4-4.7-0.4c-3,0-5.3,0.7-7,2c-1.7,1.3-2.9,3.2-3.6,5.8h16.7l-1.4,7.4H40.5
			c-0.1,0.6-0.1,1-0.1,1.4c0,0.4,0,0.8,0,1.2c0,0.4,0,0.8,0,1.1c0,0.3,0,0.7,0.1,1.3h15.3l-1.4,7.4H41.4c0.9,3,2.1,5.1,3.8,6.3
			c1.7,1.2,3.8,1.8,6.4,1.8c1.7,0,3.3-0.2,5-0.5c1.7-0.3,3.4-0.8,5.1-1.5l2.2,8.6C62.6,67.6,60.9,68.3,58.8,68.8z"/>
	</g>
</g>
<g id="icoon__x23_7" class="st0">
	<g class="st1">
		<path class="st2" d="M93.1,37.5L74.5,5.3c-1.6-2.8-5.5-5-8.7-5H28.6c-3.2,0-7.1,2.3-8.7,5L1.3,37.5c-1.6,2.8-1.6,7.3,0,10
			l18.6,32.2c1.6,2.8,5.5,5,8.7,5h37.2c3.2,0,7.1-2.3,8.7-5l18.6-32.2C94.7,44.8,94.7,40.3,93.1,37.5z M49.5,78.4h-5.3
			c-1,0-1.8-0.5-1.8-1.1c0-0.6,0.8-1.1,1.8-1.1h5.3c1,0,1.8,0.5,1.8,1.1C51.3,78,50.5,78.4,49.5,78.4z M54.8,71.7L54.6,73
			c-0.2,1-1.1,1.7-2.1,1.7h-11c-1,0-1.9-0.6-2-1.3C39.3,72.8,40,72.1,41,72l12.5-1.8C54.4,70.1,55,70.8,54.8,71.7z M55.7,67.4
			c-0.1,0.6-1,1.3-2,1.4l-13,1.8c-1,0.1-1.8-0.3-2-0.9c-0.1-0.6,0.6-1.2,1.5-1.4l13.9-1.9C55.2,66.4,55.8,66.8,55.7,67.4z
			 M56.4,63.8c-0.1,0.6-1,1.2-2,1.4l-14.4,2c-1,0.1-1.8-0.2-1.9-0.8c-0.1-0.6,0.6-1.2,1.6-1.3l15.2-2.1
			C55.9,62.8,56.5,63.2,56.4,63.8z M70.8,29.3l-8.9,15.6c-1.8,3.5-4,8.2-4.4,11.1c-0.2,1.3-0.5,2.2-1,2.7c0.6,0.2,0.9,0.7,0.8,1.3
			c-0.2,0.8-1.1,1.5-2,1.7l-15.7,2.2c-1,0.1-1.9-0.5-2.1-1.5L37,60.2c-0.1-0.8,0.3-1.5,1-1.7c-0.5-0.5-0.8-1.3-1-2.6
			c-0.3-2.5-2.1-6.5-3.8-9.8l-9.6-16.8c-0.5-0.9-0.5-2.4,0-3.3L33.9,8.1c0.5-0.9,1.8-1.5,2.9-1.5H37h20.5h0.1c1.1,0,2.3,0.6,2.9,1.5
			L70.8,26C71.3,26.9,71.3,28.4,70.8,29.3z"/>
		<path class="st2" d="M58.6,10.8C58.2,10,57,9.6,56.1,9.6H38.3c-0.9,0-2,0.4-2.5,1.2l-8.9,15.3c-0.5,0.8-0.5,2.1,0,2.9l8.9,15.6
			c0.5,0.8,1,1.6,2.5,1.6c5.3,0,5.5,12.5,8.6,12.5s4.3-12.5,9.3-12.5c1.6,0,2-0.7,2.5-1.5l8.9-15.6c0.5-0.8,0.5-2,0-2.8L58.6,10.8z"
			/>
	</g>
</g>
<g id="icoon__x23_6" class="st0">
	<g class="st1">
		<path class="st2" d="M63.6-0.2H30.8c-5.1,0-9.8,2.7-12.3,7.1L2,35.4c-2.5,4.4-2.5,9.8,0,14.2l16.5,28.5c2.5,4.4,7.2,7.1,12.3,7.1
			h32.9c5.1,0,9.8-2.7,12.3-7.1l16.5-28.5c2.5-4.4,2.5-9.8,0-14.2l-5.2-9L67.6,60.3c-7.3,12.6-21.3,13-34,5.7
			c-12.7-7.3-19.3-19.7-12-32.3l7.6-13.2c0,0,3.3-5.8,8.4-2.9c5.4,3.1,2.1,8.9,2.1,8.9l-8.9,15.5v0c-0.3,0.4-2,4,1.5,6.1
			c3.4,1.9,5.5-1.4,5.8-1.8l9-15.6c0,0,3.3-5.8,8.4-2.9c5.4,3.1,2.1,8.9,2.1,8.9l-8.9,15.6v0c0,0-2.2,3.9,1.5,6
			c3.2,1.8,5.4-1.2,5.8-1.8l24.4-42.3L76,6.9C73.4,2.5,68.7-0.2,63.6-0.2"/>
	</g>
</g>
<g id="icoon__x23_5" class="st0">
	<g class="st1">
		<polygon class="st2" points="48.9,48.8 48.9,48.8 46.2,47.3 45.2,49 44.7,50 43.1,52.6 44.8,53.6 48.4,55.7 50,53 47.3,51.5 		"/>
		<polygon class="st2" points="49.3,41.9 46.7,40.4 45.1,43.1 42.4,41.6 40.9,44.2 46.2,47.3 		"/>
		<path class="st2" d="M93.4,37.5L74.7,5c-1.6-2.8-5.5-5-8.7-5H28.5c-3.2,0-7.1,2.3-8.7,5L1,37.5c-1.6,2.8-1.6,7.3,0,10.1L19.7,80
			c1.6,2.8,5.5,5,8.7,5h37.5c3.2,0,7.1-2.3,8.7-5l18.7-32.4C95,44.8,95,40.2,93.4,37.5z M79.3,42.8L64,69.9c-1.6,2.9-4.3,5-7.6,5.9
			c-1.1,0.3-2.3,0.5-3.4,0.5c-2.1,0-4.2-0.5-6.1-1.6l0,0L19.8,59.4c-6-3.4-8.2-11.1-4.8-17.1l15.3-27.1c3.4-6,11.1-8.2,17.1-4.8
			l27.1,15.3C80.6,29.1,82.7,36.8,79.3,42.8z"/>
		<path class="st2" d="M43,26.7l-3.8,6.7l6.7,3.8l3.8-6.7L43,26.7z M45,34.1l-2.7-1.5l1.5-2.7l2.7,1.5L45,34.1z"/>
		<polygon class="st2" points="40.4,51.1 42,48.4 39.4,46.9 40.9,44.2 38.2,42.7 35.1,48 		"/>
		<path class="st2" d="M71.8,30.5L44.8,15.2c-1.1-0.6-2.3-0.9-3.4-0.9c-2.4,0-4.8,1.3-6.1,3.6L19.9,45c-1.9,3.4-0.7,7.6,2.7,9.5
			l27.1,15.3c1.6,0.9,3.5,1.1,5.3,0.6s3.3-1.7,4.2-3.3l15.3-27.1C76.4,36.7,75.2,32.4,71.8,30.5z M61.5,45.4l-2.7-1.5l-3.1,5.4
			l-2.7-1.5L50,53l2.7,1.5l3.1-5.3l2.7,1.5l-6.2,10.7l-2.7-1.5l1.5-2.7l-2.7-1.5l-1.5,2.7l-5.4-3.1l1.5-2.7l-2.6-1.5l-1.5,2.7
			l-8-4.6l1.5-2.7l-2.7-1.5l1.5-2.7l2.7,1.5l0,0l1.5-2.7l-2.7-1.5l1.5-2.7l2.7,1.5l-1.5,2.7l2.7,1.5l1.5-2.7l2.7,1.5l1.5-2.7
			l-2.7-1.5L39.8,40l-2.7-1.5l1.5-2.6L36,34.2l6.2-10.7l16,9.2l-1.5,2.7l-5.3-3.1l-3.1,5.3l2.6,1.5l-1.5,2.7l2.7,1.5l-1.5,2.7
			l2.7,1.5l3.1-5.4l-5.4-3.1l1.5-2.7l2.7,1.5l0,0l1.5-2.7l2.7,1.5l1.5-2.7l2.7,1.5l-1.5,2.7L59.3,37l-1.5,2.7l2.7,1.5l0,0l1.5-2.7
			l2.7,1.5L61.5,45.4z"/>
	</g>
</g>
<g id="icoon__x23_4">
	<g>
		<path class="st2" d="M47.2,32.3c1.2,0,2.3,0.2,3.3,0.5L69.1,0.6C68,0.2,66.9,0,65.9,0H28.5c-1,0-2.1,0.2-3.1,0.6l18.6,32.2
			C44.9,32.5,46,32.3,47.2,32.3z"/>
		<path class="st2" d="M40.4,34.8L21.9,2.6C21,3.4,20.2,4.2,19.7,5L1,37.5c-0.5,0.9-0.8,1.9-1,3h37.1C37.6,38.3,38.8,36.3,40.4,34.8
			z"/>
		<path class="st2" d="M47.2,52.8c-5,0-9.1-3.5-10.1-8.3H0c0.2,1.1,0.5,2.2,1,3L19.7,80c1.6,2.8,5.5,5,8.7,5h37.5
			c3.2,0,7.1-2.3,8.7-5l18.7-32.4c0.5-0.9,0.8-1.9,1-3H57.3C56.3,49.2,52.2,52.8,47.2,52.8z"/>
	</g>
	<g>
		<path class="st2" d="M72.6,26.1c0.5,0,1,0.3,1.2,0.7c0.4,0.6,0.2,1.4-0.4,1.9L57.7,40.5h36.7c-0.2-1.1-0.5-2.2-1-3L74.7,5
			c-0.5-0.9-1.3-1.7-2.1-2.4L54.2,34.5L72,26.3C72.2,26.2,72.4,26.1,72.6,26.1z"/>
	</g>
	<path class="st2" d="M72.6,27.6L49.8,38c-1.5-0.9-3.5-1-5.2-0.1c-2.5,1.4-3.4,4.6-2,7.1c1.4,2.5,4.6,3.4,7.1,2
		c1.7-0.9,2.6-2.6,2.7-4.4L72.6,27.6z"/>
</g>
<g id="icoon__x23_3" class="st0">
	<path class="st4" d="M28.5,85c-3.2,0-7.1-2.3-8.7-5L1,47.6c-1.6-2.8-1.6-7.3,0-10.1L19.7,5c1.6-2.8,5.5-5,8.7-5h37.5
		c3.2,0,7.1,2.3,8.7,5l18.7,32.4c1.6,2.8,1.6,7.3,0,10.1L74.7,80c-1.6,2.8-5.5,5-8.7,5L28.5,85L28.5,85z"/>
	<g class="st1">
		<g>
			<path class="st3" d="M42.9,39.1c-2.4,0-5.3,1.2-5.3,2.6c0,0.8,0,1.7,3.4,3.1c1.3,0.5,2.8,0.9,4.4,1.1l2.7-4.6
				c-1.9-1.5-2.8-2-4.7-2.2C43.3,39.1,43.1,39.1,42.9,39.1z"/>
			<path class="st5" d="M84.2,51l-8.5-14.6c-0.7-1.3-2.5-2.3-3.9-2.3h-8.3h-8.6c-1.4,0-3.2,1-3.9,2.3l-2.8,4.9l-2.7,4.6
				c2.7,0.4,5.9,0.4,9.9,0.4l3.3,0c3.4,0,6.2,1.5,7.7,4.2c1.4,2.5,1.5,5.5,0.2,7.8c-1.2,2.1-3.4,3.3-6.1,3.3l-0.3,0l-1.9-0.1
				c-2.5-0.1-5.1-0.2-7.8-0.2c-1.6,0-3,0-4.4,0.1l5,8.7c0.7,1.3,2.5,2.3,3.9,2.3h16.9c1.4,0,3.2-1,3.9-2.3l8.5-14.6
				C85,54.3,85,52.2,84.2,51z"/>
		</g>
		<g>
			<path class="st3" d="M36.2,41.7c0,1.6,0.6,2.9,4.3,4.4c0.9,0.3,1.8,0.6,2.7,0.8l4.5-7.8c-1.3-0.9-2.4-1.3-4.1-1.5
				C40.6,37.4,36.2,38.9,36.2,41.7z"/>
			<path class="st5" d="M58.7,47.7c-6.8,0-11.6,0.1-15.5-0.8c-1-0.2-1.9-0.5-2.7-0.8c-3.8-1.5-4.3-2.8-4.3-4.4c0-2.9,4.5-4.3,7.4-4
				c1.7,0.2,2.8,0.6,4.1,1.5l2-3.5c1-1.7,3.2-3,5.2-3h4.6c-6.9-5.4-10.3-9-16.6-9c-9.9,0-9.8,5.9-26.4,5.9c-0.2,0-0.3,0-0.4,0V54
				c0.1,0,0.3,0,0.4,0c8,0,11.3,9.5,18.6,7.6c2.8-0.7,5.7-1.2,8.6-1.4c5.7-0.5,11.5-0.2,16.6,0C68.6,60.5,68,47.7,58.7,47.7z"/>
		</g>
	</g>
	<path class="st6" d="M7.8,54.5c0.7,1.4,2.4,2.5,3.8,2.5s2.4-1.3,2.4-2.8v-24c0-1.6-1.1-2.8-2.4-2.8s-3,1.1-3.8,2.5l-5.2,9.8
		c-0.7,1.4-0.7,3.6,0,5L7.8,54.5z"/>
	<text transform="matrix(1 0 0 1 128.836 45.9056)" class="st1" style="font-family:'MyriadPro-Regular'; font-size:12px;">goed idee slecht uit gevoerd </text>
</g>
<g id="icoon__x23_2" class="st0">
	<g class="st1">
		<path class="st3" d="M43,36.2c-0.9,1.3-1.9,2.7-2.8,4.3"/>
		<path class="st3" d="M45.6,37.1c2-3.9,4.6-8.1,7.9-12.6c0,0-4.7,3.8-9.8,10.8"/>
		<path class="st3" d="M42.8,43c0.6-1.5,1.3-3,2.1-4.6l0,0"/>
		<g>
			<path class="st2" d="M45.8,50.3l-5.2-1.2c0.5-1.5,1-3.2,1.7-4.9l13.4-1.8L42.8,43c0.6-1.5,1.3-3,2.1-4.6l7.2-2l-6.5,0.6
				c2-3.9,4.6-8.1,7.9-12.6c0,0-4.7,3.8-9.8,10.8l-2.6-3.1l1.9,4l-2.8,4.3l-4.1-4.7l3.6,5.6c-1.1,1.8-2.1,3.8-3.1,5.9l-3.6-4.9
				l3,6.3c-1,2.4-1.9,4.9-2.7,7.6l0.3,2.1c0.2,1.5,1.5,2.4,2.8,2.1l2-0.5c0.2-2.8,0.7-6.1,1.7-9.7L45.8,50.3L45.8,50.3z"/>
			<path class="st2" d="M93.5,37.3L74.8,4.9c-1.6-2.8-5.5-5-8.7-5H28.6c-3.2,0-7.1,2.3-8.7,5L1.2,37.3c-1.6,2.8-1.6,7.3,0,10.1
				l18.7,32.4c1.6,2.8,5.5,5,8.7,5h37.5c3.2,0,7.1-2.3,8.7-5l18.7-32.4C95.1,44.7,95.1,40.1,93.5,37.3z M69.5,32.2L56.5,53
				c-1.1,1.8-3.1,3.5-4.4,3.8L38.6,60c-0.6,8.4,1.3,13.2-0.3,14.5c-3,2.6-7.2-0.5-7.2-0.5c-0.1-6.5,0.8-12.5,2.3-17.8l-2.2-15
				c-0.2-1.5,0.5-4.1,1.6-5.9l13-20.8c1.1-1.8,3.1-3.5,4.4-3.8L65.7,7c1.3-0.3,2.6,0.6,2.8,2.1l2.6,17.2
				C71.3,27.8,70.6,30.4,69.5,32.2z"/>
		</g>
		<line class="st3" x1="42.4" y1="44.2" x2="55.7" y2="42.4"/>
		<line class="st3" x1="44.9" y1="38.4" x2="52.1" y2="36.4"/>
		<line class="st3" x1="43.7" y1="35.2" x2="41.1" y2="32.1"/>
	</g>
</g>
<g id="icoon__x23_1" class="st0">
	<path class="st4" d="M28.5,85c-3.2,0-7.1-2.3-8.7-5L1,47.6c-1.6-2.8-1.6-7.3,0-10.1L19.7,5c1.6-2.8,5.5-5,8.7-5h37.5
		c3.2,0,7.1,2.3,8.7,5l18.7,32.4c1.6,2.8,1.6,7.3,0,10.1L74.7,80c-1.6,2.8-5.5,5-8.7,5L28.5,85L28.5,85z"/>
</g>
<g id="icoon__x23_0" class="st0">
	<path class="st4" d="M28.5,85c-3.2,0-7.1-2.3-8.7-5L1,47.6c-1.6-2.8-1.6-7.3,0-10.1L19.7,5c1.6-2.8,5.5-5,8.7-5h37.5
		c3.2,0,7.1,2.3,8.7,5l18.7,32.4c1.6,2.8,1.6,7.3,0,10.1L74.7,80c-1.6,2.8-5.5,5-8.7,5L28.5,85L28.5,85z"/>
</g>
</svg>
