<?xml version="1.0" encoding="utf-8"?>
<!-- Generator: Adobe Illustrator 21.0.2, SVG Export Plug-In . SVG Version: 6.00 Build 0)  -->
<svg version="1.1" id="Layer_1" xmlns="http://www.w3.org/2000/svg" xmlns:xlink="http://www.w3.org/1999/xlink" x="0px" y="0px"
	 viewBox="0 0 94.2 84.5" style="enable-background:new 0 0 94.2 84.5;" xml:space="preserve">
<style type="text/css">
	.st0{display:none;}
	.st1{display:inline;}
	.st2{fill:#002856;}
	.st3{fill:none;}
	.st4{display:inline;fill:#002856;}
	.st5{fill:#BCD9EA;}
	.st6{display:inline;fill:#BCD9EA;}
</style>
<g id="icoon__x23_20" class="st0">
</g>
<g id="icoon__x23_19" class="st0">
	<g class="st1">
		<path class="st2" d="M35.1,41.1c0-0.7,0-1.4,0-2.2c-0.7,0-1.4,0-2.2,0c0,0.7,0,1.4,0,2.2C33.7,41.1,34.4,41.1,35.1,41.1z"/>
		<path class="st2" d="M48.1,60.8c-0.7,0-1.4,0-2.1,0c0,0.7,0,1.4,0,2.1c0.7,0,1.4,0,2.1,0C48.1,62.2,48.1,61.5,48.1,60.8z"/>
		<path class="st2" d="M37.3,45.4C37.3,45.4,37.3,45.4,37.3,45.4C37.3,45.4,37.3,45.4,37.3,45.4c2.2,0,4.4,0,6.6,0c0,0,0,0,0,0
			c0,0,0,0,0,0c0-0.7,0-1.4,0-2.2c0,0,0,0,0,0c0,0,0,0,0,0c-2.2,0-4.3,0-6.6,0C37.3,44,37.3,44.7,37.3,45.4z"/>
		<path class="st2" d="M46,65.1c0-0.8,0-1.5,0-2.2c-1.5,0-2.9,0-4.4,0c0,1.5,0,2.9,0,4.4c0,0,0,0,0,0c0,0,0,0,0,0c0.7,0,1.4,0,2.2,0
			c0,0,0,0,0,0c0,0,0,0,0,0c0-0.7,0-1.4,0-2.2C44.6,65.1,45.3,65.1,46,65.1z"/>
		<path class="st2" d="M41.6,28.1C41.6,28.1,41.6,28.1,41.6,28.1C41.6,28.1,41.6,28.1,41.6,28.1c-0.7,0-1.4,0-2.2,0
			c0,0.8,0,1.5,0,2.2c0,0,0,0,0,0c0,0,0,0,0,0c0.7,0,1.4,0,2.2,0C41.6,29.5,41.6,28.8,41.6,28.1z"/>
		<path class="st2" d="M50.3,65.2c-0.7,0-1.4,0-2.2,0c0,0.7,0,1.4,0,2.1c0.7,0,1.5,0.1,2.2,0.1C50.3,66.6,50.3,65.8,50.3,65.2z"/>
		<path class="st2" d="M37.3,47.6c0-0.7,0-1.4,0-2.2c0,0,0,0,0,0c0,0,0,0,0,0c-0.7,0-1.4,0-2.2,0c0,0.7,0,1.4,0,2.2
			C35.8,47.6,36.5,47.6,37.3,47.6C37.3,47.6,37.3,47.6,37.3,47.6C37.3,47.6,37.3,47.6,37.3,47.6z"/>
		<path class="st2" d="M46,30.2C46,30.2,46,30.2,46,30.2C46,30.2,46,30.2,46,30.2c0-0.7,0-1.4,0-2.2c-0.8,0-1.5,0-2.2,0c0,0,0,0,0,0
			c0,0,0,0,0,0c0,0.7,0,1.4,0,2.2C44.6,30.2,45.3,30.2,46,30.2z"/>
		<path class="st2" d="M35.1,43.3c-0.8,0-1.5,0-2.2,0c0,0.7,0,1.4,0,2.1c0.7,0,1.5,0,2.2,0C35.1,44.7,35.1,44,35.1,43.3z"/>
		<path class="st2" d="M54.6,34.6c-0.7,0-1.4,0-2.2,0c0,0.7,0,1.4,0,2.2c0.7,0,1.5,0,2.2,0C54.6,36,54.6,35.3,54.6,34.6z"/>
		<path class="st2" d="M50.3,58.6c0-0.7,0-1.4,0-2.2c-0.7,0-1.5,0-2.2,0c0,0.7,0,1.4,0,2.2C48.9,58.6,49.6,58.6,50.3,58.6z"/>
		<path class="st2" d="M30.7,39C30.7,39,30.7,39,30.7,39L30.7,39L30.7,39C30.7,39,30.7,39,30.7,39c-0.7,0-1.4,0-2.2,0
			c0,0.8,0,1.5,0,2.2c0,0,0,0,0,0c0,0,0,0,0,0c0.7,0,1.4,0,2.2,0C30.7,40.4,30.7,39.7,30.7,39z"/>
		<path class="st2" d="M41.6,32.5c0,0.7,0,1.4,0,2.1c0,0,0,0,0,0c0,0,0,0,0,0c0.7,0,1.4,0,2.2,0c0,0,0,0,0,0c0,0,0,0,0,0
			c0-0.7,0-1.4,0-2.1C43.1,32.5,42.4,32.5,41.6,32.5z"/>
		<path class="st2" d="M35.1,47.6c-0.7,0-1.4,0-2.2,0c0-0.8,0-1.5,0-2.2c-0.7,0-1.4,0-2.2,0c0,1.5,0,2.9,0,4.4c0,0,0,0,0,0
			c0,0,0,0,0,0c1.4,0,2.9,0,4.4,0C35.1,49.1,35.1,48.4,35.1,47.6z"/>
		<path class="st2" d="M39.5,60.8c0,0.7,0,1.4,0,2.1c0.7,0,1.4,0,2.2,0c0-0.7,0-1.4,0-2.1C40.9,60.8,40.2,60.8,39.5,60.8z"/>
		<path class="st2" d="M67.8,45.4C67.8,45.4,67.8,45.4,67.8,45.4c0.7,0,1.5,0,2.2,0c0-0.8,0-1.4,0-2.2c-0.7,0-1.5,0-2.2,0
			c0,0,0,0,0,0c0,0,0,0,0,0C67.8,44,67.8,44.7,67.8,45.4C67.8,45.4,67.8,45.4,67.8,45.4z"/>
		<path class="st2" d="M22,28c3.7,0,7.3,0,10.9,0c0-3.7,0-7.3,0-10.9c-3.7,0-7.3,0-10.9,0C22,20.8,22,24.4,22,28z M24.2,19.3
			c2.2,0,4.3,0,6.5,0c0,2.2,0,4.3,0,6.5c-2.1,0-4.3,0-6.5,0C24.2,23.7,24.2,21.5,24.2,19.3z"/>
		<path class="st2" d="M39.5,49.8c0-0.7,0-1.4,0-2.2c-0.8,0-1.5,0-2.2,0c0,0,0,0,0,0c0,0,0,0,0,0c0,0.7,0,1.5,0,2.2
			C38,49.8,38.7,49.8,39.5,49.8C39.4,49.8,39.4,49.8,39.5,49.8C39.4,49.8,39.5,49.8,39.5,49.8z"/>
		<path class="st2" d="M56.9,58.6c2.2,0,4.4,0,6.5,0c0-2.2,0-4.3,0-6.5c-2.2,0-4.3,0-6.5,0C56.9,54.2,56.9,56.4,56.9,58.6z
			 M59.1,54.2c0.7,0,1.4,0,2.1,0c0,0.7,0,1.4,0,2.1c-0.7,0-1.4,0-2.1,0C59.1,55.7,59.1,55,59.1,54.2z"/>
		<path class="st2" d="M93,37.2L74.4,5c-1.6-2.8-5.5-5-8.7-5H28.5c-3.2,0-7.1,2.3-8.7,5L1.2,37.2c-1.6,2.8-1.6,7.3,0,10l18.6,32.2
			c1.6,2.8,5.5,5,8.7,5h37.2c3.2,0,7.1-2.3,8.7-5L93,47.3C94.6,44.5,94.6,40,93,37.2z M59.1,15.1c5.1,0,10.1,0,15.2,0
			c0,5,0,10.1,0,15.1c-5.1,0-10.1,0-15.2,0C59.1,25.2,59.1,20.1,59.1,15.1z M72.1,32.5c0,0.7,0,1.4,0,2.1c-0.7,0-1.4,0-2.1,0
			c0-0.7,0-1.4,0-2.1C70.7,32.5,71.4,32.5,72.1,32.5z M69.9,36.8c0,0.7,0,1.4,0,2.1c-0.7,0-1.4,0-2.1,0c0-0.7,0-1.4,0-2.1
			C68.5,36.8,69.2,36.8,69.9,36.8z M67.8,32.5c0,0.7,0,1.4,0,2.1c-0.7,0-1.4,0-2.1,0c0-0.7,0-1.4,0-2.1C66.3,32.5,67,32.5,67.8,32.5
			z M50.3,21.5c0-0.7,0-1.4,0-2.2c0.7,0,1.4,0,2.2,0c0-0.7,0-1.4,0-2.2c0.7,0,1.4,0,2.1,0c0,0,0,0,0,0l0,0c0,0,0,0,0,0c0,0,0,0,0,0
			c0-0.7,0-1.3,0-2.1c0.8,0,1.4,0,2.2,0c0,0.7,0,1.3,0,2.1c-0.7,0-1.5,0-2.2,0c0,0,0,0,0,0c0,0,0,0,0,0c0,1.2,0,2.5,0,3.7
			c0,0.9,0,1.8,0,2.8c-0.7,0-1.4,0-2.2,0c0,0.8,0,1.5,0,2.2c0,0,0,0,0,0c0,0,0,0,0,0c0.7,0,1.4,0,2.2,0c0,0.8,0,1.5,0,2.2
			c0,0,0,0,0,0h0l0,0c0,0,0,0,0,0c0.7,0,1.4,0,2.2,0c0,0.7,0,1.4,0,2.1c-0.7,0-1.4,0-2.2,0c0-0.7,0-1.4,0-2.1c0,0,0,0,0,0
			c0,0,0,0,0,0c-0.7,0-1.4,0-2.2,0c0,0,0,0,0,0l0,0l0,0c0,0,0,0,0,0c0,0.7,0,1.4,0,2.1c-0.7,0-1.4,0-2.1,0c0-0.7,0-1.4,0-2.1
			c0.7,0,1.4,0,2.1,0c0,0,0,0,0,0c0,0,0,0,0,0c0-0.7,0-1.4,0-2.2c0,0,0,0,0,0c0,0,0,0,0,0c-0.7,0-1.4,0-2.1,0c0-0.7,0-1.4,0-2.2
			c-1.5,0-2.9,0-4.3,0c0-1.5,0-2.9,0-4.3c0.7,0,1.3,0,2.1,0c0,0.7,0,1.4,0,2.1C48.9,21.5,49.6,21.5,50.3,21.5z M46,15.1
			c0.7,0,1.4,0,2,0c0,0.7,0,1.3,0,2c-0.7,0-1.3,0-2,0C46,16.4,46,15.7,46,15.1z M41.7,15c0.7,0,1.4,0,2.1,0c0,1.4,0,2.8,0,4.2
			c-0.7,0-1.4,0-2.1,0C41.7,17.9,41.7,16.5,41.7,15z M37.3,17.2c0.7,0,1.4,0,2.1,0c0,0.7,0,1.4,0,2.1c-0.7,0-1.4,0-2.1,0
			C37.3,18.6,37.3,17.9,37.3,17.2z M19.9,15.1c5,0,10.1,0,15.1,0c0,5,0,10.1,0,15.2c-5,0-10.1,0-15.1,0
			C19.9,25.2,19.9,20.1,19.9,15.1z M19.9,43.3c0.7,0,1.4,0,2.1,0c0,2.9,0,5.7,0,8.7c-0.7,0-1.3,0-2.1,0
			C19.9,49.1,19.9,46.2,19.9,43.3z M35,69.5c-5.1,0-10.1,0-15.1,0c0-5.1,0-10.1,0-15.2c5,0,10.1,0,15.1,0C35,59.3,35,64.4,35,69.5z
			 M74.3,43.2c-0.7,0-1.4,0-2.1,0c0,0.7,0,1.4,0,2.2c0.7,0,1.4,0,2.1,0c0,1.5,0,2.9,0,4.4c-1.4,0-2.9,0-4.3,0c0,0,0,0,0,0
			c0,0,0,0,0,0c0,0.7,0,1.4,0,2.2c-0.7,0-1.4,0-2.2,0c0,1.5,0,2.9,0,4.4c-0.7,0-1.4,0-2.2,0c0,0.7,0,1.4,0,2.2c1.4,0,2.9,0,4.3,0
			c0,0,0,0,0,0c0,0,0,0,0,0c0-1.1,0-2.2,0-3.3c0-0.3,0-0.6,0-1c0.7,0,1.4,0,2.2,0c0-0.8,0-1.4,0-2.2c0.7,0,1.4,0,2.1,0
			c0,1.4,0,2.8,0,4.3c-0.7,0-1.4,0-2.1,0c0,0.7,0,1.4,0,2.2c-0.8,0-1.5,0-2.2,0c0,0,0,0,0,0c0,0,0,0,0,0c0,0.7,0,1.4,0,2.2
			c0,0,0,0,0,0c0,0,0,0,0,0c1.4,0,2.9,0,4.3,0c0,2.9,0,5.8,0,8.7c-2.1,0-4.3,0-6.5,0c0-0.7,0-1.4,0-2.1c1.4,0,2.8,0,4.3,0
			c0-1.5,0-2.9,0-4.5c-0.7,0-1.4,0-2.2,0c0,0,0,0,0,0h0h0c0,0,0,0,0,0c0,0.7,0,1.4,0,2.2c-0.7,0-1.4,0-2.1,0c0-0.7,0-1.4,0-2.2
			c0.7,0,1.4,0,2.1,0c0,0,0,0,0,0c0,0,0,0,0,0c0-0.7,0-1.4,0-2.2c0,0,0,0,0,0c0,0,0,0,0,0c-1.4,0-2.9,0-4.3,0c0,0.7,0,1.4,0,2.2
			c-0.8,0-1.5,0-2.2,0c0,0,0,0,0,0c0,0,0,0,0,0c0,0.7,0,1.5,0,2.2c0,0,0,0,0,0c0,0,0,0,0,0c0.7,0,1.4,0,2.2,0c0,0.7,0,1.4,0,2.1
			c-0.7,0-1.4,0-2.2,0c0-0.7,0-1.4,0-2.1c0,0,0,0,0,0l0,0v0c0,0,0,0,0,0c-0.7,0-1.5,0-2.2,0c0,0,0,0,0,0c0,0,0,0,0,0
			c0,1.4,0,2.9,0,4.4c-0.7,0-1.4,0-2.1,0c0-1.4,0-2.8,0-4.4c0.7,0,1.4,0,2.1,0c0,0,0,0,0,0l0,0c0,0,0,0,0,0c0-0.7,0-1.4,0-2.2
			c0,0,0,0,0,0c0,0,0,0,0,0c-0.7,0-1.4,0-2.1,0c0-0.7,0-1.4,0-2.1c-2.9,0-5.8,0-8.8,0c0,0.7,0,1.4,0,2.2c2.2,0,4.3,0,6.5,0
			c0,0.7,0,1.4,0,2.2c-1.4,0-2.8,0-4.3,0c0,1.5,0,2.9,0,4.4c-1.5,0-2.9,0-4.3,0c0-0.7-0.1-1.5-0.1-2.2c-0.8,0-1.5,0-2.3,0
			c-0.6,0-1.3,0-1.9,0c0,0,0,0,0,0c0,0,0,0,0,0c0,0.7,0,1.4,0,2.1c-0.7,0-1.4,0-2.2,0c0-0.7,0-1.4,0-2.1c0,0,0,0,0,0c0,0,0,0,0,0
			c-0.7,0-1.4,0-2.2,0c0,0.7,0,1.4,0,2.2c-0.7,0-1.4,0-2.2,0c0-3.6,0-7.2,0-10.9c0.7,0,1.4,0,2.1,0c0-0.7,0-1.4,0-2.2
			c-0.7,0-1.4,0-2.1,0c0-1.5,0-2.9,0-4.4c-2.2,0-4.4,0-6.6,0c0-0.8,0-1.5,0-2.2c0,0,0,0,0,0c0,0,0,0,0,0c-1.4,0-2.9,0-4.4,0
			c0,0.7,0,1.4,0,2.2c-0.7,0-1.4,0-2.2,0c0-2.2,0-4.3,0-6.5c1.4,0,2.9,0,4.3,0c0-1.5,0-2.9,0-4.3c0,0,0,0,0,0c0,0,0,0,0,0
			c-0.7,0-1.4,0-2.2,0c0,0,0,0,0,0c0,0,0,0,0,0c0,0.7,0,1.3,0,2.1c-0.7,0-1.4,0-2.1,0c0-0.7,0-1.3,0-2.1c0.7,0,1.4,0,2.1,0
			c0,0,0,0,0,0c0,0,0,0,0,0c0-2.2,0-4.3,0-6.5c-1.5,0-2.9,0-4.4,0c0,0.7,0,1.4,0,2.2c0.7,0,1.4,0,2.1,0c0,0.7,0,1.4,0,2.2
			c-0.7,0-1.4,0-2.1,0c0,0.7,0,1.4,0,2.2c-0.7,0-1.4,0-2.1,0c0-2.9,0-5.8,0-8.7c3.6,0,7.2,0,10.8,0c0,2.2,0,4.3,0,6.5c0,0,0,0,0,0
			c0,0,0,0,0,0c0.7,0,1.4,0,2.2,0c0-0.7,0-1.4,0-2.1c2.2,0,4.3,0,6.5,0c0,1.4,0,2.9,0,4.3c1.5,0,2.9,0,4.4,0c0,0.7,0,1.4,0,2.1
			c0,0,0,0,0,0c0,0,0,0,0,0c0.7,0,1.4,0,2.2,0c0-1.4,0-2.8,0-4.2c0.7,0,1.4,0,2.1,0c0,0.7,0,1.4,0,2.1c0.7,0,1.4,0,2.2,0
			c0,0.7,0,1.4,0,2.1c-0.7,0-1.4,0-2.1,0c0,0.7,0,1.4,0,2.2c-1.5,0-2.9,0-4.3,0c0,0,0,0,0,0c0,0,0,0,0,0c0,0.7,0,1.4,0,2.2
			c0,0,0,0,0,0c0,0,0,0,0,0c1.4,0,2.8,0,4.3,0c0,0.8,0,1.5,0,2.2c0,0,0,0,0,0c0,0,0,0,0,0c1.4,0,2.9,0,4.4,0c0,0.7,0,1.4,0,2.2
			c0.8,0,1.5,0,2.2,0c0-1.5,0-2.9,0-4.4c-0.7,0-1.4,0-2.1,0c0-0.7,0-1.4,0-2.2c0.7,0,1.4,0,2.1,0c0-0.7,0-1.4,0-2.2
			c-0.7,0-1.4,0-2.1,0c0-0.2,0-0.4,0-0.5c0-1.8,0-3.6,0-5.5c0-0.2,0-0.3,0-0.5c-0.7,0-1.4,0-2.1,0c0-0.7,0-1.4,0-2.2
			c-0.8,0-1.5,0-2.2,0c0,0.7,0,1.4,0,2.1c-0.7,0-1.4,0-2.1,0c0-0.7,0-1.4,0-2.2c-0.8,0-1.5,0-2.2,0c0,0,0,0,0,0c0,0,0,0,0,0
			c0,1.4,0,2.9,0,4.3c-0.7,0-1.4,0-2.2,0c0-1.4,0-2.9,0-4.3c0,0,0,0,0,0c0,0,0,0,0,0c-2.9,0-5.8,0-8.7,0c0-0.7,0-1.4,0-2.2
			c2.2,0,4.3,0,6.5,0c0-0.8,0-1.5,0-2.2c0,0,0,0,0,0c0,0,0,0,0,0c-0.7,0-1.4,0-2.1,0c0-1.5,0-2.9,0-4.3c0.7,0,1.4,0,2.1,0
			c0-0.7,0-1.4,0-2.2c-0.7,0-1.4,0-2.1,0c0-0.7,0-1.4,0-2.2c2.1,0,4.3,0,6.5,0c0,0.7,0,1.4,0,2.1c-0.7,0-1.4,0-2.1,0
			c0,1.5,0,2.9,0,4.4c0,0,0,0,0,0c0,0,0,0,0,0c0.7,0,1.4,0,2.2,0c0,0,0,0,0,0c0,0,0,0,0,0c0-0.7,0-1.4,0-2.1c1.4,0,2.8,0,4.3,0
			c0,1.4,0,2.8,0,4.3c-0.7,0-1.4,0-2.1,0c0,0,0,0,0,0c0,0,0,0,0,0c0,0.7,0,1.4,0,2.2c4.3,0,8.7,0,13,0c0,1.5,0,2.9,0,4.4
			c0.8,0,1.5,0,2.2,0c0-1.4,0-2.9,0-4.3c0.7,0,1.4,0,2.1,0c0,2.1,0,4.3,0,6.5c-0.7,0-1.4,0-2.2,0c0,0.8,0,1.6,0,2.4
			c0,0.6,0,1.2,0,1.9c0.7,0,1.5,0,2.2,0.1c0,0,0,0,0,0c0,0,0,0,0,0c0-0.7,0-1.3,0-2c0.7,0,1.4,0,2.2,0c0,0.7,0,1.4,0,2c0,0,0,0,0,0
			c0,0,0,0,0,0c0.7,0,1.4,0,2.2,0c0,0,0,0,0,0c0,0,0,0,0,0c0-0.7,0-1.3,0-2.1c1.5,0,2.9,0,4.4,0c0-1.5,0-2.9,0-4.4
			c0.7,0,1.4,0,2.2,0C74.3,39,74.3,41.1,74.3,43.2z"/>
		<path class="st2" d="M41.6,49.8c-0.8,0-1.5,0-2.2,0c0,0,0,0,0,0c0,0,0,0,0,0c0,1.5,0,2.9,0,4.4c0.8,0,1.5,0,2.2,0c0,0,0,0,0,0
			c0,0,0,0,0,0c0-0.7,0-1.4,0-2.1c1.5,0,2.9,0,4.3,0c0,0.7,0,1.4,0,2.1c-1.5,0-2.9,0-4.3,0c0,0,0,0,0,0c0,0,0,0,0,0
			c0,1.5,0,2.9,0,4.4c0.8,0,1.5,0,2.2,0c0-0.7,0-1.4,0-2.1c0.3,0,0.5,0,0.7,0c1.2,0,2.4,0,3.6,0c0-0.7,0-1.4,0-2.2
			c0.8,0,1.5,0,2.2,0c0-0.8,0-1.4,0-2.2c-0.7,0-1.4,0-2.2,0c0-0.8,0-1.5,0-2.2c0,0,0,0,0,0c0,0,0,0,0,0c-1.4,0-2.8,0-4.3,0
			c0-0.8,0-1.5,0-2.2c0,0,0,0,0,0c0,0,0,0,0,0c-0.7,0-1.4,0-2.2,0C41.6,48.4,41.6,49.1,41.6,49.8z"/>
		<path class="st2" d="M67.8,47.6C67.8,47.6,67.8,47.6,67.8,47.6C67.8,47.6,67.8,47.6,67.8,47.6c0,0.7,0,1.5,0,2.2
			c0.8,0,1.5,0,2.2,0c0,0,0,0,0,0c0,0,0,0,0,0c0-0.7,0-1.4,0-2.2C69.2,47.6,68.5,47.6,67.8,47.6z"/>
		<path class="st2" d="M61.3,28c3.7,0,7.3,0,10.9,0c0-3.6,0-7.3,0-10.9c-3.7,0-7.3,0-10.9,0C61.3,20.8,61.3,24.4,61.3,28z
			 M63.5,19.4c2.2,0,4.3,0,6.5,0c0,2.2,0,4.3,0,6.5c-2.2,0-4.3,0-6.5,0C63.5,23.7,63.5,21.5,63.5,19.4z"/>
		<path class="st2" d="M52.5,58.6c0.7,0,1.4,0,2.1,0c0-1.5,0-2.9,0-4.3c-0.7,0-1.4,0-2.1,0C52.5,55.7,52.5,57.1,52.5,58.6z"/>
		<path class="st2" d="M59,39c-0.8,0-1.5,0-2.2,0c0,2.9,0,5.7,0,8.6c0.7,0,1.4,0,2.2,0c0-0.7,0-1.4,0-2.2c0.7,0,1.4,0,2.2,0
			c0-0.8-0.1-1.5-0.1-2.2c-0.7,0-1.4,0-2.1,0C59,41.8,59,40.4,59,39z"/>
		<path class="st2" d="M65.6,49.8c0-0.7,0-1.4,0-2.2c0.8,0,1.4,0,2.1,0c0,0,0,0,0,0c0,0,0,0,0,0c0-0.7,0-1.4,0-2.2c0,0,0,0,0,0
			c0,0,0,0,0,0c-0.7,0-1.4,0-2.2,0c0-0.7,0-1.5,0-2.2c0,0,0,0,0,0c0,0,0,0,0,0c-0.7,0-1.4,0-2.2,0c0,0,0,0,0,0c0,0,0,0,0,0
			c0,2.2,0,4.3,0,6.5C64.2,49.8,64.9,49.8,65.6,49.8z"/>
		<path class="st2" d="M61.2,60.8c0,0.7,0,1.4,0,2.1c0,0,0,0,0,0c0,0,0,0,0,0c0.7,0,1.4,0,2.2,0c0,0,0,0,0,0c0,0,0,0,0,0
			c0-0.7,0-1.4,0-2.1C62.7,60.8,62,60.8,61.2,60.8z"/>
		<path class="st2" d="M32.9,56.4c-3.7,0-7.3,0-10.9,0c0,3.6,0,7.2,0,10.9c3.7,0,7.3,0,10.9,0C32.9,63.6,32.9,60,32.9,56.4z
			 M30.7,65.1c-2.1,0-4.3,0-6.5,0c0-2.1,0-4.3,0-6.5c2.2,0,4.3,0,6.5,0C30.7,60.8,30.7,62.9,30.7,65.1z"/>
		<path d="M37.3,47.6C37.3,47.6,37.3,47.6,37.3,47.6C37.3,47.6,37.3,47.6,37.3,47.6L37.3,47.6z"/>
		<path d="M69.9,58.5C69.9,58.5,69.9,58.6,69.9,58.5C69.9,58.6,69.9,58.6,69.9,58.5L69.9,58.5z"/>
		<path d="M48.1,49.8C48.1,49.8,48.1,49.8,48.1,49.8L48.1,49.8C48.1,49.8,48.1,49.8,48.1,49.8z"/>
		<path d="M41.6,54.2C41.6,54.2,41.6,54.2,41.6,54.2C41.6,54.2,41.6,54.2,41.6,54.2L41.6,54.2z"/>
		<path d="M39.4,49.8C39.4,49.8,39.4,49.8,39.4,49.8C39.4,49.8,39.5,49.8,39.4,49.8L39.4,49.8z"/>
		<path d="M46,30.2C46,30.2,46,30.2,46,30.2L46,30.2C46,30.2,46,30.2,46,30.2z"/>
		<ellipse transform="matrix(0.8303 -0.5573 0.5573 0.8303 -13.7098 41.4232)" cx="61.2" cy="43.2" rx="0" ry="0"/>
		<path d="M63.4,43.3C63.4,43.3,63.4,43.3,63.4,43.3C63.4,43.3,63.4,43.3,63.4,43.3L63.4,43.3z"/>
		<path d="M67.8,47.6C67.8,47.6,67.8,47.6,67.8,47.6L67.8,47.6C67.8,47.6,67.8,47.6,67.8,47.6z"/>
		<path d="M70,60.7C69.9,60.7,69.9,60.7,70,60.7C69.9,60.7,69.9,60.7,70,60.7L70,60.7z"/>
		<path d="M43.8,34.6C43.8,34.6,43.8,34.6,43.8,34.6C43.8,34.6,43.8,34.6,43.8,34.6L43.8,34.6z"/>
		<ellipse transform="matrix(0.7423 -0.67 0.67 0.7423 -25.378 46.7506)" cx="48.1" cy="56.4" rx="0" ry="0"/>
		<path d="M43.8,28C43.8,28.1,43.8,28.1,43.8,28C43.8,28.1,43.8,28.1,43.8,28L43.8,28z"/>
		<path d="M41.6,34.6C41.6,34.6,41.6,34.6,41.6,34.6L41.6,34.6C41.6,34.6,41.6,34.6,41.6,34.6z"/>
		<path d="M39.4,30.2C39.4,30.2,39.5,30.2,39.4,30.2C39.5,30.2,39.5,30.2,39.4,30.2L39.4,30.2z"/>
		<path d="M41.6,28.1C41.6,28.1,41.6,28.1,41.6,28.1L41.6,28.1C41.6,28.1,41.6,28.1,41.6,28.1z"/>
		<ellipse transform="matrix(0.6657 -0.7462 0.7462 0.6657 -9.9192 51.4551)" cx="52.5" cy="36.8" rx="0" ry="0"/>
		<ellipse transform="matrix(0.6679 -0.7442 0.7442 0.6679 -31.5587 55.1336)" cx="46" cy="62.9" rx="0" ry="0"/>
		<ellipse transform="matrix(0.4995 -0.8663 0.8663 0.4995 -34.2062 75.2928)" cx="48.1" cy="67.3" rx="0" ry="0"/>
		<path d="M41.6,67.3C41.6,67.3,41.6,67.3,41.6,67.3L41.6,67.3C41.6,67.3,41.6,67.3,41.6,67.3z"/>
		<ellipse transform="matrix(0.7615 -0.6482 0.6482 0.7615 -30.861 41.999)" cx="41.6" cy="62.9" rx="0" ry="0"/>
		<path d="M30.7,49.8C30.7,49.8,30.7,49.8,30.7,49.8C30.7,49.8,30.7,49.8,30.7,49.8L30.7,49.8z"/>
		<path d="M69.9,49.8C69.9,49.8,70,49.8,69.9,49.8L69.9,49.8C69.9,49.8,69.9,49.8,69.9,49.8z"/>
		<path d="M61.2,62.9C61.2,62.9,61.2,62.9,61.2,62.9L61.2,62.9C61.2,62.9,61.2,62.9,61.2,62.9z"/>
		<path d="M63.4,62.9C63.4,62.9,63.4,62.9,63.4,62.9C63.4,62.9,63.4,62.9,63.4,62.9L63.4,62.9z"/>
		<path d="M43.8,67.3C43.8,67.3,43.8,67.3,43.8,67.3C43.8,67.3,43.8,67.3,43.8,67.3L43.8,67.3z"/>
		<path d="M37.3,45.4C37.3,45.4,37.3,45.4,37.3,45.4C37.3,45.4,37.3,45.4,37.3,45.4L37.3,45.4z"/>
		<path d="M30.7,49.8C30.7,49.8,30.7,49.8,30.7,49.8L30.7,49.8C30.7,49.8,30.7,49.8,30.7,49.8z"/>
		<path d="M30.7,39C30.7,39,30.7,39,30.7,39L30.7,39C30.7,39,30.7,39,30.7,39z"/>
		<ellipse transform="matrix(0.7167 -0.6974 0.6974 0.7167 -17.8675 33.9857)" cx="32.9" cy="39" rx="0" ry="0"/>
		<path d="M28.5,41.2C28.5,41.2,28.5,41.2,28.5,41.2C28.5,41.2,28.5,41.2,28.5,41.2L28.5,41.2z"/>
		<path d="M43.8,43.3C43.8,43.3,43.8,43.3,43.8,43.3C43.8,43.3,43.8,43.3,43.8,43.3L43.8,43.3z"/>
		<path d="M26.3,41.2C26.3,41.2,26.3,41.2,26.3,41.2C26.3,41.2,26.3,41.2,26.3,41.2L26.3,41.2z"/>
		<path d="M30.7,39C30.7,39,30.7,39,30.7,39C30.7,39,30.7,39,30.7,39L30.7,39z"/>
		<path d="M28.5,41.2C28.5,41.2,28.5,41.2,28.5,41.2L28.5,41.2C28.5,41.2,28.5,41.2,28.5,41.2z"/>
		<path d="M67.8,43.3C67.8,43.3,67.8,43.3,67.8,43.3L67.8,43.3C67.8,43.3,67.8,43.3,67.8,43.3z"/>
		<path d="M67.8,45.5C67.8,45.5,67.8,45.5,67.8,45.5C67.8,45.4,67.8,45.4,67.8,45.5L67.8,45.5z"/>
		<path d="M70,49.8C70,49.8,70,49.8,70,49.8C70,49.8,70,49.8,70,49.8L70,49.8z"/>
		<path d="M67.8,47.6C67.8,47.6,67.8,47.6,67.8,47.6C67.8,47.6,67.8,47.6,67.8,47.6L67.8,47.6z"/>
		<path d="M54.6,17.1C54.6,17.1,54.6,17.1,54.6,17.1C54.6,17.1,54.6,17.1,54.6,17.1L54.6,17.1z"/>
		<path d="M52.5,25.9C52.5,25.9,52.5,25.9,52.5,25.9C52.5,25.9,52.5,25.9,52.5,25.9L52.5,25.9z"/>
		<path d="M39.4,30.2C39.4,30.2,39.4,30.2,39.4,30.2L39.4,30.2C39.5,30.2,39.4,30.2,39.4,30.2z"/>
		<path d="M41.6,28C41.6,28,41.6,28,41.6,28C41.6,28.1,41.6,28.1,41.6,28L41.6,28z"/>
		<path d="M70,62.9C70,62.9,70,62.9,70,62.9C69.9,62.9,69.9,62.9,70,62.9C69.9,62.9,70,62.9,70,62.9z"/>
		<path d="M70,60.7C70,60.7,70,60.7,70,60.7L70,60.7C69.9,60.7,69.9,60.7,70,60.7z"/>
		<path d="M43.8,43.3C43.8,43.3,43.8,43.3,43.8,43.3L43.8,43.3C43.8,43.3,43.8,43.3,43.8,43.3z"/>
		<path d="M43.8,45.5C43.8,45.4,43.8,45.4,43.8,45.5C43.8,45.4,43.8,45.4,43.8,45.5L43.8,45.5z"/>
		<path d="M43.8,47.6C43.8,47.6,43.8,47.6,43.8,47.6C43.8,47.6,43.8,47.6,43.8,47.6L43.8,47.6z"/>
		<path d="M37.3,45.5C37.3,45.4,37.3,45.4,37.3,45.5L37.3,45.5C37.3,45.5,37.3,45.5,37.3,45.5z"/>
		<path d="M39.5,49.8C39.5,49.8,39.5,49.8,39.5,49.8C39.5,49.8,39.4,49.8,39.5,49.8L39.5,49.8z"/>
		<path d="M43.8,45.5C43.8,45.5,43.8,45.5,43.8,45.5L43.8,45.5C43.8,45.4,43.8,45.4,43.8,45.5z"/>
		<path d="M37.3,47.6C37.3,47.6,37.3,47.6,37.3,47.6C37.3,47.6,37.3,47.6,37.3,47.6L37.3,47.6z"/>
		<path d="M69.9,58.5C69.9,58.5,69.9,58.5,69.9,58.5L69.9,58.5C69.9,58.6,69.9,58.5,69.9,58.5z"/>
		<path d="M46,30.2C46,30.2,46,30.2,46,30.2C46,30.2,46,30.2,46,30.2L46,30.2z"/>
		<path d="M43.8,28C43.8,28,43.8,28,43.8,28L43.8,28C43.8,28.1,43.8,28.1,43.8,28z"/>
		<path d="M41.6,34.6C41.6,34.6,41.6,34.6,41.6,34.6C41.6,34.6,41.6,34.6,41.6,34.6L41.6,34.6z"/>
		<path d="M43.8,34.6C43.8,34.6,43.8,34.6,43.8,34.6L43.8,34.6C43.8,34.6,43.8,34.6,43.8,34.6z"/>
		<path d="M61.2,65.1L61.2,65.1C61.2,65.1,61.2,65.1,61.2,65.1C61.2,65.1,61.2,65.1,61.2,65.1C61.2,65.1,61.2,65.1,61.2,65.1
			L61.2,65.1z"/>
		<path d="M48.1,49.8C48.1,49.8,48.1,49.8,48.1,49.8C48.1,49.8,48.1,49.8,48.1,49.8L48.1,49.8z"/>
		<path d="M43.8,47.6C43.8,47.6,43.8,47.6,43.8,47.6L43.8,47.6C43.8,47.6,43.8,47.6,43.8,47.6z"/>
		<path d="M41.6,67.3C41.6,67.3,41.6,67.3,41.6,67.3C41.6,67.3,41.6,67.3,41.6,67.3L41.6,67.3z"/>
		<path d="M43.8,67.3C43.8,67.3,43.8,67.3,43.8,67.3L43.8,67.3C43.8,67.3,43.8,67.3,43.8,67.3z"/>
		<polygon points="63.4,65.1 63.4,65.1 63.4,65.1 		"/>
		<path d="M63.4,65.1C63.4,65.1,63.4,65.1,63.4,65.1C63.4,65.1,63.4,65.1,63.4,65.1C63.4,65.1,63.4,65.1,63.4,65.1z"/>
		<path d="M61.2,62.9C61.2,62.9,61.2,62.9,61.2,62.9C61.2,62.9,61.2,62.9,61.2,62.9L61.2,62.9z"/>
		<path d="M63.4,62.9C63.4,62.9,63.4,62.9,63.4,62.9L63.4,62.9C63.4,62.9,63.4,62.9,63.4,62.9z"/>
		<path d="M61.2,65.1C61.2,65.1,61.2,65.1,61.2,65.1C61.2,65.1,61.2,65.1,61.2,65.1C61.2,65.1,61.2,65.1,61.2,65.1z"/>
		<path d="M63.4,65.1C63.4,65.1,63.4,65.1,63.4,65.1C63.4,65.1,63.4,65.1,63.4,65.1C63.4,65.1,63.4,65.1,63.4,65.1z"/>
		<path d="M61.2,65.1L61.2,65.1L61.2,65.1z"/>
		<polygon points="63.4,65.1 63.4,65.1 63.4,65.1 		"/>
		<path d="M52.5,28C52.5,28,52.5,28,52.5,28C52.5,28,52.5,28,52.5,28L52.5,28z"/>
		<path d="M54.6,28.1C54.6,28.1,54.6,28.1,54.6,28.1C54.6,28.1,54.6,28.1,54.6,28.1C54.6,28.1,54.6,28.1,54.6,28.1z"/>
		<path d="M52.5,25.9C52.5,25.9,52.5,25.9,52.5,25.9L52.5,25.9C52.5,25.9,52.5,25.9,52.5,25.9z"/>
		<path d="M52.5,28.1L52.5,28.1C52.5,28,52.5,28,52.5,28.1C52.5,28.1,52.5,28.1,52.5,28.1z"/>
		<path d="M54.6,28.1L54.6,28.1L54.6,28.1z"/>
		<path d="M54.6,28.1C54.6,28.1,54.6,28.1,54.6,28.1L54.6,28.1C54.6,28.1,54.6,28.1,54.6,28.1z"/>
		<polygon points="54.6,28.1 54.6,28.1 54.6,28.1 		"/>
		<path d="M67.8,43.3C67.8,43.3,67.8,43.3,67.8,43.3C67.8,43.3,67.8,43.3,67.8,43.3L67.8,43.3z"/>
		<path d="M67.8,45.4C67.8,45.4,67.8,45.4,67.8,45.4L67.8,45.4C67.8,45.4,67.8,45.4,67.8,45.4z"/>
		<path d="M65.6,43.3C65.6,43.3,65.6,43.3,65.6,43.3L65.6,43.3C65.6,43.3,65.6,43.3,65.6,43.3z"/>
		<path d="M70,62.9L70,62.9L70,62.9z"/>
		<path d="M69.9,62.9C69.9,62.9,69.9,62.9,69.9,62.9L69.9,62.9C69.9,62.9,69.9,62.9,69.9,62.9z"/>
		<polygon points="70,62.9 70,62.9 69.9,62.9 		"/>
		<path d="M26.3,41.2C26.3,41.2,26.3,41.2,26.3,41.2L26.3,41.2C26.3,41.2,26.3,41.2,26.3,41.2z"/>
		<path d="M65.6,43.3C65.6,43.3,65.6,43.3,65.6,43.3C65.6,43.3,65.6,43.3,65.6,43.3L65.6,43.3z"/>
		<path d="M63.4,43.3C63.4,43.3,63.4,43.3,63.4,43.3L63.4,43.3C63.4,43.3,63.4,43.3,63.4,43.3z"/>
		<path d="M54.6,17.1C54.6,17.1,54.6,17.1,54.6,17.1C54.6,17.1,54.6,17.1,54.6,17.1C54.6,17.1,54.6,17.1,54.6,17.1z"/>
		<path d="M41.6,54.2C41.6,54.2,41.6,54.2,41.6,54.2L41.6,54.2C41.6,54.2,41.6,54.2,41.6,54.2z"/>
		<ellipse transform="matrix(0.6482 -0.7615 0.7615 0.6482 -23.9245 43.4704)" cx="35.1" cy="47.6" rx="0" ry="0"/>
		<ellipse transform="matrix(0.6873 -0.7264 0.7264 0.6873 -22.0393 39.6927)" cx="35.1" cy="45.4" rx="0" ry="0"/>
		<ellipse transform="matrix(0.7264 -0.6873 0.6873 0.7264 -22.2359 35.0443)" cx="32.9" cy="45.4" rx="0" ry="0"/>
	</g>
</g>
<g id="icoon__x23_18" class="st0">
	<g class="st1">
		<g>
			<path class="st2" d="M18.1,76.5l1.7,3c1.6,2.8,5.5,5,8.7,5h37.2c3.2,0,7.1-2.3,8.7-5L93,47.3c1.6-2.8,1.6-7.3,0-10l-7-12h-68
				V76.5z M24.1,30.7c9.9,0,19.7,0,29.6,0c0,9.9,0,19.7,0,29.6c-9.9,0-19.7,0-29.6,0C24.1,50.4,24.1,40.6,24.1,30.7z"/>
			<path class="st2" d="M28.1,56.1c7.2,0,14.2,0,21.3,0c0-7.1,0-14.2,0-21.3c-7.1,0-14.2,0-21.3,0C28.1,41.9,28.1,48.9,28.1,56.1z
				 M32.5,39.1c4.2,0,8.4,0,12.6,0c0,4.2,0,8.4,0,12.7c-4.2,0-8.4,0-12.6,0C32.5,47.5,32.5,43.4,32.5,39.1z"/>
			<path class="st2" d="M84,21.6L74.4,5c-1.6-2.8-5.5-5-8.7-5H28.5c-3.2,0-7.1,2.3-8.7,5L1.2,37.2c-1.6,2.8-1.6,7.3,0,10l13.3,23.1
				V21.6H84z"/>
		</g>
		<g>
			<path class="st2" d="M37,41.9l1.3-0.2v1.7h2v1.1h-2v2.3c0,0.4,0.1,0.8,0.2,1c0.1,0.2,0.4,0.3,0.7,0.3c0.2,0,0.4,0,0.6-0.1
				c0.2-0.1,0.3-0.1,0.4-0.1l0.2,1C40.4,48.9,40.2,49,40,49c-0.2,0.1-0.5,0.1-0.9,0.1c-0.4,0-0.7-0.1-1-0.2
				c-0.3-0.1-0.5-0.3-0.6-0.5s-0.3-0.4-0.3-0.7s-0.1-0.6-0.1-1L37,41.9L37,41.9z"/>
		</g>
	</g>
</g>
<g id="icoon__x23_17">
	<g>
		<rect x="34.9" y="37.1" class="st3" width="9.9" height="35.1"/>
		<rect x="22.6" y="17.9" class="st3" width="9.9" height="54.4"/>
		<rect x="47.1" y="25.4" class="st3" width="9.9" height="46.8"/>
		<rect x="59.2" y="51.5" class="st3" width="9.9" height="1"/>
		<rect x="59.2" y="54.7" class="st3" width="9.9" height="17.5"/>
		<path class="st2" d="M65.5,46.3c0.1,0,0.2,0,0.2-0.1s0.1-0.2,0.1-0.4s0-0.3-0.1-0.4c-0.1-0.1-0.1-0.1-0.2-0.1
			c-0.1,0-0.2,0-0.2,0.1s-0.1,0.2-0.1,0.4c0,0.2,0,0.3,0.1,0.4S65.4,46.3,65.5,46.3z"/>
		<path class="st2" d="M62.5,47.5c0,0.1,0.1,0.2,0.2,0.2c0.1,0.1,0.1,0.1,0.2,0.1s0.2,0,0.2-0.1c0.1-0.1,0.1-0.1,0.2-0.2
			s0.1-0.2,0.1-0.4c0-0.1,0-0.3,0-0.5s0-0.3,0-0.5c0-0.1,0-0.3-0.1-0.4c0-0.1-0.1-0.2-0.2-0.2c-0.1-0.1-0.1-0.1-0.2-0.1
			c-0.1,0-0.2,0-0.2,0.1c-0.1,0.1-0.1,0.1-0.2,0.2c0,0.1-0.1,0.2-0.1,0.4c0,0.1,0,0.3,0,0.5s0,0.3,0,0.5S62.5,47.4,62.5,47.5z"/>
		<path class="st2" d="M67.8,47.2c-0.1,0.1-0.1,0.2-0.1,0.4s0,0.3,0.1,0.4C67.9,48,67.9,48,68,48c0.1,0,0.2,0,0.2-0.1
			c0.1-0.1,0.1-0.2,0.1-0.4s0-0.3-0.1-0.4C68.2,47.1,68.1,47,68,47C67.9,47,67.9,47.1,67.8,47.2z"/>
		<path class="st2" d="M93,37.2L74.4,5c-1.6-2.8-5.5-5-8.7-5H28.5c-3.2,0-7.1,2.3-8.7,5L1.2,37.2c-1.6,2.8-1.6,7.3,0,10l18.6,32.2
			c1.6,2.8,5.5,5,8.7,5h37.2c3.2,0,7.1-2.3,8.7-5L93,47.3C94.6,44.5,94.6,40,93,37.2z M69,47.5c0,0.3-0.1,0.6-0.2,0.7
			c-0.2,0.2-0.4,0.3-0.7,0.3s-0.5-0.1-0.7-0.3c-0.2-0.2-0.2-0.4-0.2-0.7c0-0.3,0.1-0.6,0.2-0.7s0.4-0.3,0.7-0.3s0.5,0.1,0.7,0.3
			S69,47.2,69,47.5z M68.1,44.9l-2,3.6h-0.7l2-3.6H68.1z M64.8,45.1c0.2-0.2,0.4-0.3,0.7-0.3s0.5,0.1,0.7,0.3
			c0.2,0.2,0.2,0.4,0.2,0.7c0,0.3-0.1,0.6-0.2,0.7c-0.2,0.2-0.4,0.3-0.7,0.3s-0.5-0.1-0.7-0.3s-0.2-0.4-0.2-0.7
			C64.6,45.5,64.7,45.2,64.8,45.1z M61.7,45.9c0.1-0.2,0.1-0.4,0.3-0.6s0.3-0.3,0.4-0.4s0.3-0.1,0.5-0.1c0.4,0,0.7,0.2,0.9,0.5
			c0.2,0.3,0.3,0.8,0.3,1.4c0,0.6-0.1,1.1-0.3,1.4c-0.2,0.3-0.5,0.5-0.9,0.5s-0.7-0.2-0.9-0.5c-0.2-0.3-0.3-0.8-0.3-1.4
			C61.6,46.4,61.7,46.1,61.7,45.9z M32.5,72.2h-9.9V17.9h9.9V72.2z M44.7,72.2h-9.9V37.1h9.9V72.2z M57,72.2h-9.9V25.4H57V72.2z
			 M58.8,40.4h0.9v-1h0.7v1h0.9V41h-0.9v1h-0.7v-1h-0.9V40.4z M58.9,45.6c0.1,0,0.2-0.1,0.3-0.1s0.2-0.1,0.3-0.2
			c0.1-0.1,0.2-0.1,0.3-0.2c0.1-0.1,0.2-0.1,0.3-0.2h0.5v3.6h-0.8v-2.6c-0.1,0.1-0.2,0.1-0.3,0.2c-0.1,0.1-0.3,0.1-0.4,0.1
			L58.9,45.6z M69.1,72.2h-9.9V54.7h9.9V72.2z M69.1,52.5h-9.9v-1h9.9V52.5z"/>
	</g>
</g>
<g id="icoon__x23_16" class="st0">
	<g class="st1">
		<path class="st2" d="M93,37.1L74.4,4.8c-1.6-2.8-5.5-5-8.7-5H28.5c-3.2,0-7.1,2.3-8.7,5L1.2,37.1c-1.6,2.8-1.6,7.3,0,10l18.6,32.2
			c0.3,0.5,0.6,0.9,1,1.4l0-11c-0.1-1.2,0.1-2.4,0.6-3.3l10.4-18c0.9-1.5,3.1-2.8,4.8-2.8h20.8c1.8,0,4,1.3,4.8,2.8l10.4,18
			c0.5,0.9,0.7,2.2,0.6,3.3l0,11c0.4-0.4,0.7-0.9,1-1.4L93,47.1C94.6,44.3,94.6,39.8,93,37.1z M61.4,30.5l-5.8,10
			c-0.5,0.9-1.7,1.6-2.7,1.6H41.3c-1,0-2.2-0.7-2.7-1.6l-5.8-10c-0.5-0.9-0.5-2.3,0-3.1l5.8-10c0.5-0.9,1.7-1.6,2.7-1.6h11.6
			c1,0,2.2,0.7,2.7,1.6l5.8,10C61.9,28.2,61.9,29.6,61.4,30.5z"/>
	</g>
</g>
<g id="icoon__x23_15" class="st0">
	<g class="st1">
		<path class="st2" d="M50.5,16.7H44c-0.5,0-0.9,0.3-0.9,0.7c0,0.4,0.4,0.7,0.9,0.7h6.5c0.5,0,0.9-0.3,0.9-0.7
			C51.4,17.1,51,16.7,50.5,16.7z"/>
		<path class="st2" d="M93,37.2L74.4,5c-1.6-2.8-5.5-5-8.7-5H28.5c-3.2,0-7.1,2.3-8.7,5L1.2,37.2c-1.6,2.8-1.6,7.3,0,10l18.6,32.2
			c0.1,0.2,0.3,0.4,0.4,0.6V17.5c0-4.2,3.4-7.6,7.6-7.6h37.9c4.2,0,7.6,3.4,7.6,7.6V81c0.5-0.5,0.8-1,1.1-1.5L93,47.3
			C94.6,44.5,94.6,40,93,37.2z"/>
		<circle class="st2" cx="40" cy="17.5" r="1"/>
		<path class="st2" d="M65.7,84.5c1.3,0,2.7-0.4,4-1V21.4H23.8v61.8c1.5,0.8,3.2,1.3,4.7,1.3L65.7,84.5L65.7,84.5z M33.3,47.5l5-8.7
			c0.8-1.3,2.2-2.2,3.8-2.2h10c1.5,0,3,0.8,3.8,2.2l1.3,2.3L49.7,54c-0.1,0.2-0.8,1.1-1.8,0.6c-1.1-0.7-0.5-1.8-0.5-1.8v0l2.7-4.8
			c0,0,1-1.8-0.6-2.7C48,44.3,47,46.1,47,46.1l-2.7,4.8c-0.1,0.1-0.7,1.1-1.8,0.6c-1.1-0.6-0.6-1.7-0.5-1.9v0l2.7-4.7
			c0,0,1-1.8-0.6-2.7c-1.6-0.9-2.6,0.9-2.6,0.9l-2.3,4c-2.2,3.8-0.2,7.6,3.7,9.9c3.9,2.2,8.2,2.1,10.4-1.7l6-10.3l1.6,2.8
			c0.8,1.3,0.8,3,0,4.3l-5,8.7c-0.8,1.3-2.2,2.2-3.8,2.2h-10c-1.6,0-3-0.8-3.8-2.2l-5-8.7C32.5,50.5,32.5,48.8,33.3,47.5z"/>
	</g>
</g>
<g id="icoon__x23_12" class="st0">
	<g class="st1">
		<g>
			<path class="st2" d="M86.6,37.9L74.4,16.7H19.8L7.5,37.9c-1.4,2.4-1.4,6.3,0,8.6l16,27.8c1.4,2.4,4.7,4.3,7.5,4.3h32.1
				c2.7,0,6.1-1.9,7.5-4.3l16-27.8C88,44.2,88,40.3,86.6,37.9z M34.4,47l-1.2,3.5L18.1,44v-3.6l15.2-6.4l1.2,3.5l-11.8,4.7L34.4,47z
				 M43.2,58.8h-4.4l11.9-34.1H55L43.2,58.8z M76.1,44l-15.2,6.4L59.8,47l11.8-4.7l-11.8-4.7l1.2-3.5l15.2,6.4V44z"/>
		</g>
		<g>
			<path class="st2" d="M65.3,5l1.2-1.7h1.3L66,5.9c0.4,0.5,0.7,1,1.1,1.5s0.6,0.9,0.9,1.4h-1.4c-0.1-0.1-0.1-0.3-0.2-0.4
				S66.1,8,66,7.9c-0.1-0.2-0.2-0.3-0.4-0.5c-0.1-0.2-0.2-0.3-0.4-0.5c-0.2,0.3-0.5,0.6-0.7,0.9c-0.2,0.3-0.4,0.6-0.6,0.9h-1.3
				c0.1-0.2,0.2-0.4,0.4-0.7c0.2-0.2,0.3-0.5,0.5-0.7c0.2-0.2,0.3-0.5,0.5-0.7c0.2-0.2,0.4-0.5,0.5-0.7l-1.8-2.7h1.4L65.3,5z"/>
		</g>
		<g>
			<path class="st3" d="M75,12l-55.8,0L4.1,38.3c-1.2,2.1-1.2,5.9,0,8l18.1,31.3c1.2,2.1,4.5,4,6.9,4h36.1c2.5,0,5.7-1.9,6.9-4
				l18.1-31.3c1.2-2.1,1.2-5.9,0-8L75,12z"/>
			<path class="st2" d="M93.1,36.5L75.1,5.3c-1.9-3.2-6.2-5.7-9.9-5.7H29c-3.7,0-8.1,2.5-9.9,5.7L1.1,36.5c-1.9,3.2-1.9,8.2,0,11.4
				l18.1,31.3C21,82.5,25.3,85,29,85h36.1c3.7,0,8.1-2.5,9.9-5.7L93.1,48C95,44.8,95,39.7,93.1,36.5z M60.4,5.3l2-3.5
				c0.2-0.3,0.6-0.5,0.9-0.5h4c0.3,0,0.8,0.2,0.9,0.5l2,3.5c0.2,0.3,0.2,0.8,0,1.1l-2,3.5c-0.2,0.3-0.6,0.5-0.9,0.5h-4
				c-0.3,0-0.8-0.2-0.9-0.5l-2-3.5C60.2,6.1,60.2,5.6,60.4,5.3z M90.1,46.2L72.1,77.5c-1.2,2.1-4.5,4-6.9,4H29c-2.5,0-5.7-1.9-6.9-4
				L4.1,46.2c-1.2-2.1-1.2-5.9,0-8L19.2,12L75,12l15.1,26.2C91.4,40.4,91.4,44.1,90.1,46.2z"/>
		</g>
	</g>
</g>
<g id="icoon__x23_11" class="st0">
	<g class="st1">
		<path class="st3" d="M39.9,85.2c1,0,1.8-0.6,2.1-1.4h-4.3C38.1,84.6,38.9,85.2,39.9,85.2z"/>
		<path class="st3" d="M68.1,85.2c1.3,0,2.3-1,2.3-2.3c0-0.2,0-0.3-0.1-0.5c-1.4,0.8-2.9,1.3-4.4,1.3C66.3,84.6,67.2,85.2,68.1,85.2
			z"/>
		<path class="st2" d="M42.2,82.9c0-1.3-1-2.3-2.3-2.3s-2.3,1-2.3,2.3c0,0.3,0.1,0.6,0.2,0.9H42C42.1,83.5,42.2,83.2,42.2,82.9z"/>
		<path class="st2" d="M68.1,80.6c-1.3,0-2.3,1-2.3,2.3c0,0.3,0.1,0.6,0.2,0.8c1.4-0.1,3-0.6,4.4-1.3C70.2,81.4,69.2,80.6,68.1,80.6
			z"/>
		<path class="st2" d="M93,36.5L74.4,4.3c-1.6-2.8-5.5-5-8.7-5H28.5c-3.2,0-7.1,2.3-8.7,5L1.2,36.5c-1.6,2.8-1.6,7.3,0,10l18.6,32.2
			c1.6,2.8,5.5,5,8.7,5h5.6c0-0.3-0.1-0.6-0.1-0.9c0-3.2,2.6-5.9,5.9-5.9s5.9,2.6,5.9,5.9c0,0.3,0,0.6-0.1,0.9h16.7
			c0-0.3-0.1-0.6-0.1-0.9c0-3.2,2.6-5.9,5.9-5.9c2.2,0,4.2,1.3,5.2,3.1c0.4-0.4,0.8-0.9,1.1-1.4L93,46.5
			C94.6,43.8,94.6,39.3,93,36.5z M70.2,73.6H38.8c-2.8,0-6.1-1.9-7.5-4.3L18.4,47.1c-1.4-2.4-1.4-6.2,0-8.6l3.1-5.7
			c-0.7-0.9-1.1-2-1.1-3.2c0-2.8,2.3-5.1,5.1-5.1s5.1,2.3,5.1,5.1s-2.3,5.1-5.1,5.1c-0.3,0-0.7,0-1-0.1l-3,5.6
			c-0.8,1.3-0.8,3.8,0,5.1l12.8,22.2c0.8,1.3,2.9,2.6,4.4,2.6h31.4V73.6z M81.7,44.4L71.1,62.7c-0.9,1.6-3.1,2.8-4.9,2.8H45.1
			c-1.8,0-4-1.3-4.9-2.8L29.6,44.4c-0.9-1.6,0.1-4.1,1-5.7h51C82.6,40.3,82.6,42.8,81.7,44.4z"/>
	</g>
</g>
<g id="icoon__x23_10" class="st0">
	<g class="st1">
		<path class="st2" d="M93,37.2L74.4,5c-1.6-2.8-5.5-5-8.7-5H28.5c-3.2,0-7.1,2.3-8.7,5L1.2,37.2c-1.6,2.8-1.6,7.3,0,10l18.6,32.2
			c1.6,2.8,5.5,5,8.7,5h37.2c3.2,0,7.1-2.3,8.7-5L93,47.3C94.6,44.5,94.6,40,93,37.2z M31.7,79.6c-2.8,0-6.2-2-7.6-4.4L7.8,46.9
			c-1.4-2.4-1.4-6.4,0-8.8L24.1,9.9c1.4-2.4,4.8-4.4,7.6-4.4h30.1l-18.5,32c-1.6,2.8-1.6,7.3,0,10l18.5,32H31.7z M81.8,45.6h-9.3
			v10.2h-5.6V45.6h-9.3v-5.3h9.3V30h5.6v10.2h9.3V45.6z"/>
	</g>
</g>
<g id="icoon__x23_9" class="st0">
	<g class="st1">
		<path class="st2" d="M93,37.2L74.4,5c-1.6-2.8-5.5-5-8.7-5H28.5c-3.2,0-7.1,2.3-8.7,5L1.2,37.2c-1.6,2.8-1.6,7.3,0,10l18.6,32.2
			c1.6,2.8,5.5,5,8.7,5h37.2c3.2,0,7.1-2.3,8.7-5L93,47.3C94.6,44.5,94.6,40,93,37.2z M31.2,79.3c-2.8,0-6.2-2-7.6-4.4L7.3,46.6
			c-1.4-2.4-1.4-6.4,0-8.8L23.6,9.6c1.4-2.4,4.8-4.4,7.6-4.4h12l-18.5,32c-1.6,2.8-1.6,7.3,0,10l18.5,32L31.2,79.3L31.2,79.3z
			 M50.5,75.1c-2.5,0-5.5-1.7-6.7-3.9l-14.4-25c-1.2-2.1-1.2-5.6,0-7.8l14.4-25c1.2-2.1,4.3-3.9,6.7-3.9h7.8c0,0.1-0.1,0.1-0.1,0.2
			L41.9,37.9c-1.4,2.4-1.4,6.4,0,8.8l16.3,28.2c0,0.1,0.1,0.1,0.1,0.2L50.5,75.1L50.5,75.1z M54.6,56.2c-1.7,0-3.2-0.9-4-2.3
			l-5.4-9.3c-0.8-1.4-0.8-3.2,0-4.6l5.4-9.3c0.8-1.4,2.4-2.3,4-2.3h10.8c1.6,0,3.2,0.9,4,2.3l1.4,2.4l-8,13.8
			c-0.1,0.2-0.9,1.2-1.9,0.6c-1.2-0.7-0.5-2-0.5-2v0l2.9-5.1c0,0,1.1-1.9-0.7-2.9c-1.7-0.9-2.7,0.9-2.7,0.9L57,43.5
			c-0.1,0.1-0.8,1.2-1.9,0.6c-1.2-0.7-0.6-1.8-0.5-2v0l2.9-5.1c0,0,1.1-1.9-0.7-2.9c-1.7-0.9-2.7,0.9-2.7,0.9l-2.5,4.3
			c-2.4,4.1-0.2,8.2,3.9,10.6c4.2,2.4,8.7,2.2,11.1-1.9L73,36.9l1.7,3c0.8,1.4,0.8,3.2,0,4.6l-5.4,9.3c-0.8,1.4-2.4,2.3-4,2.3
			L54.6,56.2L54.6,56.2z M88.3,45.3L76.9,65.1c-1,1.7-3.4,3.1-5.3,3.1h-6.2c0,0,0.1-0.1,0.1-0.1l12.9-22.3c1.1-1.9,1.1-5,0-6.9
			L65.5,16.5c0,0-0.1-0.1-0.1-0.1h6.2c2,0,4.3,1.4,5.3,3.1l11.4,19.8C89.3,40.9,89.3,43.6,88.3,45.3z"/>
	</g>
</g>
<g id="icoon__x23_8" class="st0">
	<g class="st1">
		<path class="st2" d="M74.4,5c-1.6-2.8-5.5-5-8.7-5H28.5c-3.2,0-7.1,2.3-8.7,5L1.2,37.2c-1.6,2.8-1.6,7.3,0,10l18.6,32.2
			c1.6,2.8,5.5,5,8.7,5h37.2c3.2,0,7.1-2.3,8.7-5L93,47.3c1.6-2.8,1.6-7.3,0-10L74.4,5z M58.7,68.5c-2.1,0.5-4.6,0.8-7.5,0.8
			c-6.3,0-11-1.5-14.4-4.5c-3.3-3-5.5-7.3-6.5-12.8h-5.4v-7.4h4.7c0-0.6-0.1-1-0.1-1.3c0-0.3,0-0.7,0-1.1c0-0.4,0-0.8,0-1.3
			s0-0.9,0.1-1.3h-4.7v-7.4h5.7c1.3-5.6,3.8-9.8,7.4-12.7c3.7-2.9,8.3-4.3,14.1-4.3c2.3,0,4.2,0.2,5.8,0.5c1.6,0.4,3.2,0.8,4.8,1.4
			l-2.3,8.7c-1.2-0.4-2.4-0.7-3.7-1c-1.3-0.3-2.8-0.4-4.7-0.4c-3,0-5.3,0.7-7,2c-1.7,1.3-2.9,3.2-3.6,5.8H58l-1.4,7.4H40.4
			c-0.1,0.6-0.1,1-0.1,1.4c0,0.4,0,0.8,0,1.2c0,0.4,0,0.8,0,1.1c0,0.3,0,0.7,0.1,1.3h15.3L54.3,52H41.3c0.9,3,2.1,5.1,3.8,6.3
			c1.7,1.2,3.8,1.8,6.4,1.8c1.7,0,3.3-0.2,5-0.5c1.7-0.3,3.4-0.8,5.1-1.5l2.2,8.6C62.5,67.4,60.8,68,58.7,68.5z"/>
	</g>
</g>
<g id="icoon__x23_7" class="st0">
	<g class="st1">
		<path class="st2" d="M93,37.2L74.4,5c-1.6-2.8-5.5-5-8.7-5H28.5c-3.2,0-7.1,2.3-8.7,5L1.2,37.2c-1.6,2.8-1.6,7.3,0,10l18.6,32.2
			c1.6,2.8,5.5,5,8.7,5h37.2c3.2,0,7.1-2.3,8.7-5L93,47.3C94.6,44.5,94.6,40,93,37.2z M49.4,78.2h-5.3c-1,0-1.8-0.5-1.8-1.1
			c0-0.6,0.8-1.1,1.8-1.1h5.3c1,0,1.8,0.5,1.8,1.1C51.2,77.7,50.4,78.2,49.4,78.2z M54.7,71.4l-0.3,1.3c-0.2,1-1.1,1.7-2.1,1.7h-11
			c-1,0-1.9-0.6-2-1.3c-0.1-0.7,0.6-1.4,1.5-1.5L53.3,70C54.3,69.8,54.9,70.5,54.7,71.4z M55.6,67.2c-0.1,0.7-1,1.3-2,1.4l-13,1.8
			c-1,0.1-1.8-0.3-2-0.9c-0.1-0.6,0.6-1.2,1.5-1.4l13.9-1.9C55,66.1,55.7,66.5,55.6,67.2z M56.3,63.5c-0.1,0.6-1,1.2-2,1.4l-14.4,2
			c-1,0.1-1.8-0.2-1.9-0.8s0.6-1.2,1.6-1.3l15.2-2.1C55.8,62.5,56.4,62.9,56.3,63.5z M70.7,29l-8.9,15.6c-1.8,3.5-4,8.2-4.4,11.1
			c-0.2,1.3-0.5,2.2-1,2.7c0.6,0.2,0.9,0.7,0.8,1.3c-0.2,0.8-1.1,1.5-2,1.7l-15.7,2.2c-1,0.1-1.9-0.5-2.1-1.5l-0.4-2.1
			c-0.1-0.8,0.3-1.5,1-1.7c-0.5-0.5-0.8-1.3-1-2.6c-0.3-2.5-2.1-6.5-3.8-9.8L23.5,29c-0.5-0.9-0.5-2.4,0-3.3L33.8,7.9
			c0.5-0.9,1.8-1.5,2.9-1.5h0.1h20.5h0.1c1.1,0,2.3,0.6,2.9,1.5l10.3,17.9C71.2,26.6,71.2,28.1,70.7,29z"/>
		<path class="st2" d="M58.5,10.6c-0.5-0.8-1.6-1.2-2.5-1.2H38.2c-0.9,0-2,0.4-2.5,1.2l-8.9,15.3c-0.5,0.8-0.5,2.1,0,2.9l8.9,15.6
			c0.5,0.8,1,1.6,2.5,1.6c5.3,0,5.5,12.5,8.6,12.5S51,46,56,46c1.6,0,2-0.7,2.5-1.5l8.9-15.6c0.5-0.8,0.5-2,0-2.8L58.5,10.6z"/>
	</g>
</g>
<g id="icoon__x23_6" class="st0">
	<g class="st1">
		<path class="st2" d="M63.5-0.4H30.7c-5.1,0-9.8,2.7-12.3,7.1L1.9,35.2c-2.5,4.4-2.5,9.8,0,14.2l16.5,28.5
			c2.5,4.4,7.2,7.1,12.3,7.1h32.9c5.1,0,9.8-2.7,12.3-7.1l16.5-28.5c2.5-4.4,2.5-9.8,0-14.2l-5.2-9L67.4,60
			c-7.3,12.6-21.3,13-34,5.7c-12.7-7.3-19.3-19.7-12-32.3l7.6-13.2c0,0,3.3-5.8,8.4-2.9c5.4,3.1,2.1,8.9,2.1,8.9l-8.9,15.5v0
			c-0.3,0.4-2,4,1.5,6.1c3.4,1.9,5.5-1.4,5.8-1.8l9-15.6c0,0,3.3-5.8,8.4-2.9c5.4,3.1,2.1,8.9,2.1,8.9l-8.9,15.6v0
			c0,0-2.2,3.9,1.5,6c3.2,1.8,5.4-1.2,5.8-1.8l24.4-42.3l-4.3-7.4C73.2,2.3,68.6-0.4,63.5-0.4"/>
	</g>
</g>
<g id="icoon__x23_5" class="st0">
	<g class="st1">
		<polygon class="st2" points="48.8,48.6 48.8,48.6 46.1,47 45.1,48.7 44.6,49.7 43,52.4 44.7,53.3 48.3,55.5 49.9,52.8 47.2,51.2 
					"/>
		<polygon class="st2" points="49.2,41.7 46.6,40.2 45,42.8 42.3,41.3 40.8,44 46.1,47 		"/>
		<path class="st2" d="M93.3,37.2L74.6,4.8c-1.6-2.8-5.5-5-8.7-5H28.4c-3.2,0-7.1,2.3-8.7,5L0.9,37.2c-1.6,2.8-1.6,7.3,0,10.1
			l18.7,32.4c1.6,2.8,5.5,5,8.7,5h37.5c3.2,0,7.1-2.3,8.7-5l18.7-32.4C94.9,44.5,94.9,40,93.3,37.2z M79.2,42.6L63.9,69.6
			c-1.6,2.9-4.3,5-7.6,5.9c-1.1,0.3-2.3,0.5-3.4,0.5c-2.1,0-4.2-0.5-6.1-1.6l0,0L19.7,59.1C13.7,55.7,11.6,48,15,42l15.3-27.1
			c3.4-6,11.1-8.2,17.1-4.8l27.1,15.3C80.5,28.8,82.6,36.5,79.2,42.6z"/>
		<path class="st2" d="M42.9,26.5L39,33.1l6.7,3.8l3.8-6.7L42.9,26.5z M44.9,33.8l-2.7-1.5l1.5-2.7l2.7,1.5L44.9,33.8z"/>
		<polygon class="st2" points="40.3,50.8 41.9,48.2 39.3,46.6 40.8,44 38.1,42.4 35,47.8 		"/>
		<path class="st2" d="M71.7,30.3L44.7,15c-1.1-0.6-2.3-0.9-3.4-0.9c-2.4,0-4.8,1.3-6.1,3.6L19.8,44.7c-1.9,3.4-0.7,7.6,2.7,9.5
			l27.1,15.3c1.6,0.9,3.5,1.1,5.3,0.6s3.3-1.7,4.2-3.3l15.3-27.1C76.3,36.4,75.1,32.2,71.7,30.3z M61.4,45.2l-2.7-1.5L55.6,49
			L53,47.4l-3.1,5.3l2.7,1.5l3.1-5.3l2.7,1.5l-6.2,10.7l-2.7-1.5L51,57l-2.7-1.5l-1.5,2.7L41.4,55l1.5-2.7l-2.6-1.5l-1.5,2.7l-8-4.6
			l1.5-2.7l-2.7-1.5l1.5-2.7l2.7,1.5l0,0l1.5-2.7l-2.7-1.5l1.5-2.7l2.7,1.5l-1.5,2.7l2.7,1.5l1.5-2.7l2.7,1.5l1.5-2.7l-2.7-1.5
			l-1.5,2.6L37,38.2l1.5-2.6L35.9,34L42,23.3l16,9.2l-1.5,2.7l-5.3-3.1l-3.1,5.3l2.6,1.5l-1.5,2.7l2.7,1.5l-1.5,2.7l2.7,1.5l3.1-5.4
			L50.7,39l1.5-2.7l2.7,1.5l0,0l1.5-2.7l2.7,1.5l1.5-2.7l2.7,1.5l-1.5,2.7l-2.7-1.5l-1.5,2.7l2.7,1.5l0,0l1.5-2.7l2.7,1.5L61.4,45.2
			z"/>
	</g>
</g>
<g id="icoon__x23_4" class="st0">
	<g class="st1">
		<path class="st2" d="M47.1,32c1.2,0,2.3,0.2,3.3,0.5L69,0.4c-1.1-0.4-2.1-0.6-3.1-0.6H28.4c-1,0-2.1,0.2-3.1,0.6l18.6,32.2
			C44.8,32.2,45.9,32,47.1,32z"/>
		<path class="st2" d="M40.3,34.6L21.8,2.4c-0.9,0.7-1.6,1.5-2.1,2.4L0.9,37.2c-0.5,0.9-0.8,1.9-1,3H37C37.5,38,38.7,36,40.3,34.6z"
			/>
		<path class="st2" d="M47.1,52.5c-5,0-9.1-3.5-10.1-8.3H-0.1c0.2,1.1,0.5,2.2,1,3l18.7,32.4c1.6,2.8,5.5,5,8.7,5h37.5
			c3.2,0,7.1-2.3,8.7-5l18.7-32.4c0.5-0.9,0.8-1.9,1-3H57.1C56.2,49,52.1,52.5,47.1,52.5z"/>
	</g>
	<g class="st1">
		<path class="st2" d="M72.5,25.9c0.5,0,1,0.3,1.2,0.7c0.4,0.6,0.2,1.4-0.4,1.9L57.6,40.3h36.7c-0.2-1.1-0.5-2.2-1-3L74.6,4.8
			c-0.5-0.9-1.3-1.7-2.1-2.4L54,34.2L71.9,26C72.1,25.9,72.3,25.9,72.5,25.9z"/>
	</g>
	<path class="st4" d="M72.5,27.3L49.7,37.8c-1.5-0.9-3.5-1-5.2-0.1c-2.5,1.4-3.4,4.6-2,7.1c1.4,2.5,4.6,3.4,7.1,2
		c1.7-0.9,2.6-2.6,2.7-4.4L72.5,27.3z"/>
</g>
<g id="icoon__x23_3" class="st0">
	<path class="st4" d="M28.4,84.8c-3.2,0-7.1-2.3-8.7-5L0.9,47.3c-1.6-2.8-1.6-7.3,0-10.1L19.6,4.8c1.6-2.8,5.5-5,8.7-5h37.5
		c3.2,0,7.1,2.3,8.7,5l18.7,32.4c1.6,2.8,1.6,7.3,0,10.1L74.6,79.7c-1.6,2.8-5.5,5-8.7,5L28.4,84.8L28.4,84.8z"/>
	<g class="st1">
		<g>
			<path class="st3" d="M42.8,38.8c-2.4,0-5.3,1.2-5.3,2.6c0,0.8,0,1.7,3.4,3.1c1.3,0.5,2.8,0.9,4.4,1.1L48,41
				c-1.9-1.5-2.8-2-4.7-2.2C43.2,38.8,43,38.8,42.8,38.8z"/>
			<path class="st5" d="M84.1,50.7l-8.5-14.6c-0.7-1.3-2.5-2.3-3.9-2.3h-8.3h-8.6c-1.4,0-3.2,1-3.9,2.3L48,41l-2.7,4.6
				c2.7,0.4,5.9,0.4,9.9,0.4l3.3,0c3.4,0,6.2,1.5,7.7,4.2c1.4,2.5,1.5,5.5,0.2,7.8c-1.2,2.1-3.4,3.3-6.1,3.3l-0.3,0l-1.9-0.1
				c-2.5-0.1-5.1-0.2-7.8-0.2c-1.6,0-3,0-4.4,0.1l5,8.7c0.7,1.3,2.5,2.3,3.9,2.3h16.9c1.4,0,3.2-1,3.9-2.3l8.5-14.6
				C84.8,54,84.8,52,84.1,50.7z"/>
		</g>
		<g>
			<path class="st3" d="M36.1,41.4c0,1.6,0.6,2.9,4.3,4.4c0.9,0.3,1.8,0.6,2.7,0.8l4.5-7.8c-1.3-0.9-2.4-1.3-4.1-1.5
				C40.5,37.2,36.1,38.6,36.1,41.4z"/>
			<path class="st5" d="M58.6,47.5c-6.8,0-11.6,0.1-15.5-0.8c-1-0.2-1.9-0.5-2.7-0.8c-3.8-1.5-4.3-2.8-4.3-4.4c0-2.9,4.5-4.3,7.4-4
				c1.7,0.2,2.8,0.6,4.1,1.5l2-3.5c1-1.7,3.2-3,5.2-3h4.6c-6.9-5.4-10.3-9-16.6-9c-9.9,0-9.8,5.9-26.4,5.9c-0.2,0-0.3,0-0.4,0v24.4
				c0.1,0,0.3,0,0.4,0c8,0,11.3,9.5,18.6,7.6c2.8-0.7,5.7-1.2,8.6-1.4c5.7-0.5,11.5-0.2,16.6,0C68.5,60.2,67.9,47.5,58.6,47.5z"/>
		</g>
	</g>
	<path class="st6" d="M7.7,54.2c0.7,1.4,2.4,2.5,3.8,2.5s2.4-1.3,2.4-2.8v-24c0-1.6-1.1-2.8-2.4-2.8s-3,1.1-3.8,2.5l-5.2,9.8
		c-0.7,1.4-0.7,3.6,0,5L7.7,54.2z"/>
	<text transform="matrix(1 0 0 1 128.7305 45.6466)" class="st1" style="font-family:'MyriadPro-Regular'; font-size:12px;">goed idee slecht uit gevoerd </text>
</g>
<g id="icoon__x23_2" class="st0">
	<g class="st1">
		<path class="st3" d="M42.9,35.9c-0.9,1.3-1.9,2.7-2.8,4.3"/>
		<path class="st3" d="M45.5,36.8c2-3.9,4.6-8.1,7.9-12.6c0,0-4.7,3.8-9.8,10.8"/>
		<path class="st3" d="M42.7,42.8c0.6-1.5,1.3-3,2.1-4.6l0,0"/>
		<g>
			<path class="st2" d="M45.7,50l-5.2-1.2c0.5-1.5,1-3.2,1.7-4.9l13.4-1.8l-12.9,0.6c0.6-1.5,1.3-3,2.1-4.6l7.2-2l-6.5,0.6
				c2-3.9,4.6-8.1,7.9-12.6c0,0-4.7,3.8-9.8,10.8L41,31.9l1.9,4l-2.8,4.3l-4.1-4.7l3.6,5.6c-1.1,1.8-2.1,3.8-3.1,5.9L33,42l3,6.3
				c-1,2.4-1.9,4.9-2.7,7.6l0.3,2.1c0.2,1.5,1.5,2.4,2.8,2.1l2-0.5c0.2-2.8,0.7-6.1,1.7-9.7L45.7,50L45.7,50z"/>
			<path class="st2" d="M93.4,37.1L74.7,4.6c-1.6-2.8-5.5-5-8.7-5H28.5c-3.2,0-7.1,2.3-8.7,5L1,37.1c-1.6,2.8-1.6,7.3,0,10.1
				l18.7,32.4c1.6,2.8,5.5,5,8.7,5H66c3.2,0,7.1-2.3,8.7-5l18.7-32.4C95,44.4,95,39.9,93.4,37.1z M69.4,32l-13,20.8
				c-1.1,1.8-3.1,3.5-4.4,3.8l-13.5,3.2c-0.6,8.4,1.3,13.2-0.3,14.5c-3,2.6-7.2-0.5-7.2-0.5c-0.1-6.5,0.8-12.5,2.3-17.8l-2.2-15
				c-0.2-1.5,0.5-4.1,1.6-5.9l13-20.8c1.1-1.8,3.1-3.5,4.4-3.8l15.5-3.6c1.3-0.3,2.6,0.6,2.8,2.1L71,26.1
				C71.2,27.5,70.5,30.2,69.4,32z"/>
		</g>
		<line class="st3" x1="42.2" y1="44" x2="55.6" y2="42.1"/>
		<line class="st3" x1="44.8" y1="38.1" x2="52" y2="36.2"/>
		<line class="st3" x1="43.6" y1="35" x2="41" y2="31.9"/>
	</g>
</g>
<g id="icoon__x23_1" class="st0">
	<path class="st4" d="M28.4,84.8c-3.2,0-7.1-2.3-8.7-5L0.9,47.3c-1.6-2.8-1.6-7.3,0-10.1L19.6,4.8c1.6-2.8,5.5-5,8.7-5h37.5
		c3.2,0,7.1,2.3,8.7,5l18.7,32.4c1.6,2.8,1.6,7.3,0,10.1L74.6,79.7c-1.6,2.8-5.5,5-8.7,5L28.4,84.8L28.4,84.8z"/>
</g>
<g id="icoon__x23_0" class="st0">
	<path class="st4" d="M28.4,84.8c-3.2,0-7.1-2.3-8.7-5L0.9,47.3c-1.6-2.8-1.6-7.3,0-10.1L19.6,4.8c1.6-2.8,5.5-5,8.7-5h37.5
		c3.2,0,7.1,2.3,8.7,5l18.7,32.4c1.6,2.8,1.6,7.3,0,10.1L74.6,79.7c-1.6,2.8-5.5,5-8.7,5L28.4,84.8L28.4,84.8z"/>
</g>
</svg>
