<?xml version="1.0" encoding="utf-8"?>
<!-- Generator: Adobe Illustrator 21.0.0, SVG Export Plug-In . SVG Version: 6.00 Build 0)  -->
<svg version="1.1" id="Layer_1" xmlns="http://www.w3.org/2000/svg" xmlns:xlink="http://www.w3.org/1999/xlink" x="0px" y="0px"
	 viewBox="0 0 283.46 283.46" enable-background="new 0 0 283.46 283.46" xml:space="preserve">
<path fill="#BCD9EA" d="M82.352,264.215c-6.236,0-13.89-4.419-17.008-9.819L5.965,151.547c-3.118-5.4-3.118-14.238,0-19.639
	L65.344,29.06c3.118-5.4,10.772-9.819,17.008-9.819h118.76c6.236,0,13.89,4.419,17.008,9.819l59.38,102.849
	c3.118,5.4,3.118,14.238,0,19.639l-59.38,102.849c-3.118,5.4-10.771,9.819-17.008,9.819H82.352z"/>
<g>
	<path fill="#002856" d="M231.739,131.908L195.24,68.689c-3.118-5.4-10.771-9.82-17.008-9.82h-73c-6.235,0-13.889,4.42-17.008,9.82
		l-36.499,63.219c-3.118,5.4-3.118,14.238,0,19.639l36.499,63.219c3.119,5.401,10.773,9.82,17.008,9.82h73
		c6.236,0,13.89-4.42,17.008-9.82l36.499-63.219C234.857,146.147,234.857,137.309,231.739,131.908z M145.452,126.719h24.844v40.762
		h-24.844V126.719z M113.728,116.069h24.844v51.412h-24.844V116.069z M82,151.773h24.844v15.707H82V151.773z M202,176.98H82v-3h120
		V176.98z M202,167.48h-24.844v-67.188H202V167.48z"/>
</g>
</svg>
