<?xml version="1.0" encoding="utf-8"?>
<!-- Generator: Adobe Illustrator 21.0.2, SVG Export Plug-In . SVG Version: 6.00 Build 0)  -->
<svg version="1.1" id="Layer_1" xmlns="http://www.w3.org/2000/svg" xmlns:xlink="http://www.w3.org/1999/xlink" x="0px" y="0px"
	 viewBox="0 0 184.7 165.7" style="enable-background:new 0 0 184.7 165.7;" xml:space="preserve">
<style type="text/css">
	.st0{fill:#002856;}
</style>
<g>
	<path class="st0" d="M182.4,73L145.9,9.8c-3.1-5.4-10.8-9.8-17-9.8h-73c-6.2,0-13.9,4.4-17,9.8L2.3,73c-3.1,5.4-3.1,14.2,0,19.6
		l36.5,63.2c3.1,5.4,10.8,9.8,17,9.8h73c6.2,0,13.9-4.4,17-9.8l36.5-63.2C185.5,87.3,185.5,78.4,182.4,73z M96.1,67.8h24.8v40.8
		H96.1V67.8z M64.3,57.2h24.8v51.4H64.3C64.3,108.6,64.3,57.2,64.3,57.2z M32.6,92.9h24.8v15.7H32.6V92.9z M152.6,118.1h-120v-3h120
		V118.1z M152.6,108.6h-24.8V41.4h24.8V108.6z"/>
</g>
</svg>
