<?xml version="1.0" encoding="utf-8"?>
<!-- Generator: Adobe Illustrator 21.0.2, SVG Export Plug-In . SVG Version: 6.00 Build 0)  -->
<svg version="1.1" id="Layer_1" xmlns="http://www.w3.org/2000/svg" xmlns:xlink="http://www.w3.org/1999/xlink" x="0px" y="0px"
	 viewBox="0 0 182.9 165.7" style="enable-background:new 0 0 182.9 165.7;" xml:space="preserve">
<style type="text/css">
	.st0{fill:#002856;}
</style>
<g>
	<path class="st0" d="M123.4,0H59.5c-9.8,0-18.9,5.3-23.9,13.8l-32,55.3c-4.9,8.5-4.9,19,0,27.5l32,55.3c4.9,8.5,14,13.8,23.9,13.8
		h63.8c9.8,0,18.9-5.3,23.9-13.8l32-55.3c4.9-8.5,4.9-19,0-27.5L169,51.6L131,117.3c-14.1,24.4-41.3,25.3-65.9,11.1
		c-24.7-14.3-37.5-38.2-23.4-62.7l14.8-25.5c0,0,6.4-11.2,16.3-5.6c10.5,6,4,17.4,4,17.4L59.4,82.1v0.1c-0.5,0.8-3.8,7.8,3,11.8
		c6.5,3.7,10.7-2.8,11.2-3.5l17.4-30.2c0,0,6.4-11.2,16.3-5.6c10.5,5.9,4,17.3,4,17.3L94,102.2v0.1c0,0-4.3,7.5,3,11.7
		c6.2,3.6,10.4-2.3,11.3-3.6l47.4-82.1l-8.3-14.4C142.2,5.3,133.1,0,123.4,0"/>
</g>
</svg>
