<?xml version="1.0" encoding="utf-8"?>
<!-- Generator: Adobe Illustrator 21.0.0, SVG Export Plug-In . SVG Version: 6.00 Build 0)  -->
<svg version="1.1" id="Layer_1" xmlns="http://www.w3.org/2000/svg" xmlns:xlink="http://www.w3.org/1999/xlink" x="0px" y="0px"
	 viewBox="0 0 283.46 283.46" enable-background="new 0 0 283.46 283.46" xml:space="preserve">
<path fill="#BCD9EA" d="M82.352,264.215c-6.236,0-13.89-4.419-17.008-9.819L5.965,151.547c-3.118-5.4-3.118-14.238,0-19.639
	L65.344,29.06c3.118-5.4,10.772-9.819,17.008-9.819h118.76c6.236,0,13.89,4.419,17.008,9.819l59.38,102.849
	c3.118,5.4,3.118,14.238,0,19.639l-59.38,102.849c-3.118,5.4-10.771,9.819-17.008,9.819H82.352z"/>
<g>
	<path fill="#002856" d="M173.653,58.855H109.81c-9.846,0-18.943,5.258-23.868,13.77l-31.963,55.331
		c-4.924,8.513-4.924,19.028,0,27.541l31.963,55.333c4.925,8.512,14.022,13.77,23.868,13.77h63.844
		c9.849,0,18.946-5.258,23.87-13.77l31.962-55.333c4.926-8.513,4.926-19.028,0-27.541l-10.18-17.527l-38.057,65.765
		c-14.102,24.37-41.311,25.286-65.931,11.099c-24.703-14.269-37.471-38.222-23.368-62.676l14.772-25.537
		c0,0,6.427-11.185,16.274-5.59c10.515,6.007,4.005,17.358,4.005,17.358l-17.274,30.126v0.085
		c-0.501,0.835-3.839,7.761,3.003,11.768c6.511,3.672,10.684-2.754,11.185-3.505l17.442-30.211c0,0,6.426-11.184,16.273-5.592
		c10.517,5.925,4.006,17.276,4.006,17.276l-17.359,30.21v0.085c0,0-4.255,7.509,3.005,11.683c6.176,3.589,10.432-2.253,11.267-3.59
		l47.403-82.122l-8.346-14.436C192.517,64.113,183.42,58.855,173.653,58.855"/>
</g>
</svg>
