<?xml version="1.0" encoding="utf-8"?>
<!-- Generator: Adobe Illustrator 21.0.0, SVG Export Plug-In . SVG Version: 6.00 Build 0)  -->
<svg version="1.1" id="Layer_1" xmlns="http://www.w3.org/2000/svg" xmlns:xlink="http://www.w3.org/1999/xlink" x="0px" y="0px"
	 viewBox="0 0 283.46 283.46" enable-background="new 0 0 283.46 283.46" xml:space="preserve">
<path fill="#BCD9EA" d="M82.352,264.215c-6.236,0-13.89-4.419-17.008-9.819L5.965,151.547c-3.118-5.4-3.118-14.238,0-19.639
	L65.344,29.059c3.118-5.4,10.772-9.819,17.008-9.819h118.76c6.236,0,13.89,4.419,17.008,9.819l59.38,102.849
	c3.118,5.4,3.118,14.238,0,19.639l-59.38,102.849c-3.118,5.4-10.771,9.819-17.008,9.819H82.352z"/>
<g>
	<path fill="#002856" d="M231.739,131.908L195.24,68.689c-3.118-5.401-10.771-9.82-17.008-9.82h-73
		c-6.235,0-13.889,4.419-17.008,9.819l-36.499,63.219c-3.118,5.4-3.118,14.238,0,19.639l36.499,63.219
		c3.119,5.401,10.772,9.819,17.008,9.819h73c6.236,0,13.89-4.419,17.008-9.82l36.499-63.219
		C234.857,146.146,234.857,137.309,231.739,131.908z M146.318,212.185h-10.364c-1.899,0-3.454-0.939-3.454-2.087
		c0-1.148,1.554-2.087,3.454-2.087h10.364c1.898,0,3.454,0.939,3.454,2.087C149.772,211.246,148.217,212.185,146.318,212.185z
		 M156.724,198.966l-0.519,2.606c-0.371,1.864-2.23,3.388-4.131,3.388h-21.589c-1.9,0-3.661-1.121-3.914-2.492
		c-0.252-1.37,1.08-2.708,2.961-2.973l24.446-3.435C155.858,195.795,157.096,197.104,156.724,198.966z M158.396,190.569
		c-0.254,1.275-2.002,2.535-3.883,2.799l-25.452,3.577c-1.881,0.264-3.604-0.507-3.826-1.715c-0.223-1.208,1.134-2.413,3.016-2.677
		l27.186-3.82C157.319,188.467,158.65,189.294,158.396,190.569z M159.825,183.392c-0.237,1.193-1.973,2.385-3.852,2.65
		l-28.191,3.962c-1.882,0.264-3.592-0.444-3.8-1.574c-0.209-1.13,1.16-2.27,3.042-2.534l29.812-4.191
		C158.717,181.44,160.062,182.199,159.825,183.392z M187.967,115.771L170.49,146.27c-3.628,6.844-7.935,16.128-8.627,21.727
		c-0.32,2.604-1.055,4.274-2.038,5.266c1.1,0.439,1.739,1.397,1.519,2.508c-0.304,1.52-2.09,2.979-3.971,3.244l-30.819,4.331
		c-1.88,0.264-3.702-1.048-4.048-2.917l-0.741-4.023c-0.285-1.544,0.537-2.854,1.902-3.262c-0.924-1.005-1.609-2.647-1.919-5.146
		c-0.611-4.958-4.062-12.808-7.362-19.291l-18.888-32.919c-1.033-1.794-1.033-4.769,0-6.563l20.232-34.937
		c1.031-1.794,3.563-3.016,5.623-3.016h0.288h40.181h0.288c2.061,0,4.593,1.202,5.624,2.997l20.232,35.05
		C188.998,111.109,188.998,113.979,187.967,115.771z"/>
	<path fill="#002856" d="M164.127,79.608c-0.892-1.553-3.084-2.359-4.868-2.359h-35.037c-1.785,0-3.976,0.836-4.87,2.387
		l-17.515,30.025c-0.894,1.552-0.894,4.152,0,5.706l17.515,30.576c0.894,1.553,1.897,3.059,4.87,3.059
		c10.315,0,10.848,24.588,16.827,24.588c5.98,0,8.37-24.576,18.21-24.576c3.194,0,3.977-1.46,4.868-3.012l17.516-30.639
		c0.895-1.551,0.895-3.976,0-5.529L164.127,79.608z"/>
</g>
</svg>
