<?xml version="1.0" encoding="utf-8"?>
<!-- Generator: Adobe Illustrator 21.0.2, SVG Export Plug-In . SVG Version: 6.00 Build 0)  -->
<svg version="1.1" id="Layer_1" xmlns="http://www.w3.org/2000/svg" xmlns:xlink="http://www.w3.org/1999/xlink" x="0px" y="0px"
	 viewBox="0 0 184.7 165.7" style="enable-background:new 0 0 184.7 165.7;" xml:space="preserve">
<style type="text/css">
	.st0{fill:#002856;}
</style>
<g>
	<path class="st0" d="M182.4,73L145.9,9.8c-3.1-5.4-10.8-9.8-17-9.8h-73c-6.2,0-13.9,4.4-17,9.8L2.3,73c-3.1,5.4-3.1,14.2,0,19.6
		l36.5,63.2c3.1,5.4,10.8,9.8,17,9.8h73c6.2,0,13.9-4.4,17-9.8l36.5-63.2C185.5,87.3,185.5,78.4,182.4,73z M61.1,155.5
		c-5.5,0-12.2-3.9-14.9-8.6l-32-55.4c-2.7-4.7-2.7-12.5,0-17.2l32-55.4c2.7-4.7,9.4-8.6,14.9-8.6h23.5L48.4,73
		c-3.1,5.4-3.1,14.3,0,19.7l36.2,62.8L61.1,155.5L61.1,155.5z M99,147.2c-4.8,0-10.8-3.4-13.2-7.6L57.4,90.5
		c-2.4-4.2-2.4-11.1,0-15.2l28.3-49.1c2.4-4.2,8.4-7.6,13.2-7.6h15.3c-0.1,0.1-0.1,0.2-0.2,0.3l-32,55.4c-2.7,4.7-2.7,12.5,0,17.2
		l32,55.4c0.1,0.1,0.1,0.2,0.2,0.3L99,147.2L99,147.2z M107,110.1c-3.3,0-6.3-1.7-7.9-4.6L88.6,87.3c-1.6-2.8-1.6-6.3,0-9.1
		l10.6-18.3c1.6-2.8,4.6-4.6,7.9-4.6h21.1c3.2,0,6.2,1.7,7.9,4.6l2.8,4.8l-15.7,27.1c-0.3,0.4-1.7,2.4-3.7,1.2c-2.4-1.4-1-3.9-1-3.9
		v0l5.7-10c0,0,2.2-3.8-1.3-5.7c-3.3-1.8-5.4,1.8-5.4,1.8l-5.8,10c-0.2,0.2-1.5,2.4-3.7,1.2c-2.3-1.3-1.2-3.6-1-3.9v0l5.7-10
		c0,0,2.2-3.8-1.3-5.7c-3.3-1.8-5.4,1.8-5.4,1.8l-4.9,8.4c-4.7,8.1-0.4,16,7.7,20.7c8.1,4.7,17.1,4.4,21.8-3.7l12.6-21.7l3.4,5.8
		c1.6,2.8,1.6,6.3,0,9.1L136,105.5c-1.6,2.8-4.6,4.6-7.9,4.6L107,110.1L107,110.1z M173.1,88.9l-22.4,38.8c-1.9,3.3-6.6,6-10.4,6
		h-12.1c0.1-0.1,0.1-0.2,0.2-0.3l25.3-43.8c2.2-3.7,2.2-9.9,0-13.6l-25.3-43.8c-0.1-0.1-0.1-0.2-0.2-0.3h12.1c3.8,0,8.5,2.7,10.4,6
		l22.4,38.8C175,80.1,175,85.6,173.1,88.9z"/>
</g>
</svg>
