<?xml version="1.0" encoding="utf-8"?>
<!-- Generator: Adobe Illustrator 21.0.0, SVG Export Plug-In . SVG Version: 6.00 Build 0)  -->
<svg version="1.1" id="Layer_1" xmlns="http://www.w3.org/2000/svg" xmlns:xlink="http://www.w3.org/1999/xlink" x="0px" y="0px"
	 viewBox="0 0 283.46 283.46" enable-background="new 0 0 283.46 283.46" xml:space="preserve">
<path fill="#BCD9EA" d="M82.352,264.215c-6.236,0-13.89-4.419-17.008-9.819L5.965,151.547c-3.118-5.4-3.118-14.238,0-19.639
	L65.344,29.06c3.118-5.4,10.772-9.819,17.008-9.819h118.76c6.236,0,13.89,4.419,17.008,9.819l59.38,102.849
	c3.118,5.4,3.118,14.238,0,19.639l-59.38,102.849c-3.118,5.4-10.771,9.819-17.008,9.819H82.352z"/>
<g>
	<path fill="#002856" d="M231.739,131.908L195.24,68.689c-3.118-5.401-10.771-9.82-17.008-9.82h-72.999
		c-6.235,0-13.889,4.419-17.008,9.819l-36.499,63.219c-3.118,5.4-3.118,14.238,0,19.639l36.499,63.219
		c3.119,5.401,10.772,9.819,17.008,9.819h72.999c6.236,0,13.89-4.419,17.008-9.82l36.499-63.219
		C234.857,146.146,234.857,137.309,231.739,131.908z M110.499,214.324c-5.463,0-12.169-3.871-14.902-8.603l-31.979-55.39
		c-2.732-4.732-2.732-12.475,0-17.207l31.979-55.39c2.733-4.731,9.438-8.603,14.902-8.603h23.507l-36.238,62.766
		c-3.122,5.407-3.122,14.253,0,19.66l36.238,62.766H110.499z M148.344,206.044c-4.841,0-10.782-3.43-13.202-7.623l-28.331-49.071
		c-2.422-4.191-2.422-11.052,0-15.244l28.331-49.071c2.42-4.192,8.361-7.623,13.202-7.623h15.294
		c-0.066,0.108-0.144,0.215-0.205,0.323l-31.98,55.39c-2.731,4.732-2.731,12.475,0,17.207l31.98,55.39
		c0.061,0.108,0.139,0.215,0.205,0.323H148.344z M156.414,168.97c-3.255,0-6.261-1.739-7.89-4.551l-10.565-18.29
		c-1.628-2.815-1.628-6.29,0-9.104l10.565-18.29c1.629-2.813,4.635-4.551,7.89-4.551h21.103c3.227,0,6.236,1.738,7.918,4.551
		l2.759,4.772l-15.669,27.145c-0.276,0.442-1.683,2.372-3.725,1.187c-2.4-1.38-0.992-3.862-0.992-3.862v-0.028l5.737-9.986
		c0,0,2.152-3.751-1.324-5.71c-3.255-1.849-5.379,1.848-5.379,1.848l-5.765,9.987c-0.166,0.248-1.547,2.371-3.698,1.158
		c-2.261-1.325-1.158-3.614-0.992-3.89v-0.028l5.71-9.958c0,0,2.152-3.751-1.323-5.738c-3.255-1.849-5.38,1.848-5.38,1.848
		l-4.883,8.441c-4.662,8.084-0.44,16.001,7.725,20.717c8.138,4.69,17.131,4.387,21.793-3.668l12.578-21.738l3.365,5.793
		c1.629,2.814,1.629,6.289,0,9.104l-10.564,18.29c-1.628,2.812-4.634,4.551-7.891,4.551H156.414z M222.495,147.749l-22.379,38.76
		c-1.911,3.312-6.604,6.021-10.429,6.021h-12.079c0.052-0.086,0.112-0.17,0.162-0.256l25.259-43.751
		c2.158-3.738,2.158-9.854,0-13.591L177.77,91.181c-0.05-0.085-0.11-0.169-0.162-0.256h12.079c3.825,0,8.518,2.71,10.429,6.021
		l22.379,38.761C224.407,139.018,224.407,144.437,222.495,147.749z"/>
</g>
</svg>
