<?xml version="1.0" encoding="utf-8"?>
<!-- Generator: Adobe Illustrator 21.0.2, SVG Export Plug-In . SVG Version: 6.00 Build 0)  -->
<svg version="1.1" id="Layer_1" xmlns="http://www.w3.org/2000/svg" xmlns:xlink="http://www.w3.org/1999/xlink" x="0px" y="0px"
	 viewBox="0 0 184.7 165.7" style="enable-background:new 0 0 184.7 165.7;" xml:space="preserve">
<style type="text/css">
	.st0{fill:#BCD9EA;}
	.st1{fill:none;stroke:#808285;stroke-width:0.25;stroke-miterlimit:10;}
	.st2{fill:none;stroke:#808285;stroke-width:0.25;stroke-miterlimit:10;stroke-dasharray:1.9931,1.9931;}
	.st3{fill:#002856;}
	.st4{fill:none;stroke:#002856;stroke-width:7;stroke-miterlimit:10;}
	.st5{fill:none;stroke:#808285;stroke-width:0.25;stroke-miterlimit:10;stroke-dasharray:2;}
	.st6{filter:url(#Adobe_OpacityMaskFilter);}
	.st7{opacity:0.1;mask:url(#SVGID_1_);}
	.st8{fill:none;stroke:#BCD9EA;stroke-miterlimit:10;}
	.st9{fill:none;}
	.st10{fill:#FFFFFF;}
</style>
<path class="st0" d="M33-1616.5c-6.2,0-13.9-4.4-17-9.8l-59.4-102.8c-3.1-5.4-3.1-14.2,0-19.6L16-1851.7c3.1-5.4,10.8-9.8,17-9.8
	h118.8c6.2,0,13.9,4.4,17,9.8l59.4,102.8c3.1,5.4,3.1,14.2,0,19.6l-59.4,102.8c-3.1,5.4-10.8,9.8-17,9.8L33-1616.5L33-1616.5z"/>
<path class="st0" d="M33-3740.7c-6.2,0-13.9-4.4-17-9.8l-59.4-102.8c-3.1-5.4-3.1-14.2,0-19.6L16-3975.9c3.1-5.4,10.8-9.8,17-9.8
	h118.8c6.2,0,13.9,4.4,17,9.8l59.4,102.8c3.1,5.4,3.1,14.2,0,19.6l-59.4,102.8c-3.1,5.4-10.8,9.8-17,9.8H33z"/>
<path class="st0" d="M33-3133.8c-6.2,0-13.9-4.4-17-9.8l-59.4-102.8c-3.1-5.4-3.1-14.2,0-19.6L16-3369c3.1-5.4,10.8-9.8,17-9.8
	h118.8c6.2,0,13.9,4.4,17,9.8l59.4,102.8c3.1,5.4,3.1,14.2,0,19.6l-59.4,102.8c-3.1,5.4-10.8,9.8-17,9.8L33-3133.8L33-3133.8z"/>
<path class="st0" d="M33-4044.2c-6.2,0-13.9-4.4-17-9.8l-59.4-102.8c-3.1-5.4-3.1-14.2,0-19.6L16-4279.4c3.1-5.4,10.8-9.8,17-9.8
	h118.8c6.2,0,13.9,4.4,17,9.8l59.4,102.8c3.1,5.4,3.1,14.2,0,19.6L168.7-4054c-3.1,5.4-10.8,9.8-17,9.8L33-4044.2L33-4044.2z"/>
<path class="st0" d="M33-3437.3c-6.2,0-13.9-4.4-17-9.8l-59.4-102.8c-3.1-5.4-3.1-14.2,0-19.6L16-3672.4c3.1-5.4,10.8-9.8,17-9.8
	h118.8c6.2,0,13.9,4.4,17,9.8l59.4,102.8c3.1,5.4,3.1,14.2,0,19.6l-59.4,102.8c-3.1,5.4-10.8,9.8-17,9.8H33z"/>
<g>
	<g>
		<polyline class="st1" points="45.5,-3476.9 44.5,-3476.9 44,-3477.8 		"/>
		<line class="st2" x1="43" y1="-3479.5" x2="-2.3" y2="-3558"/>
		<polyline class="st1" points="-2.8,-3558.9 -3.3,-3559.8 -2.8,-3560.6 		"/>
		<line class="st2" x1="-1.8" y1="-3562.4" x2="43.5" y2="-3640.9"/>
		<polyline class="st1" points="44,-3641.8 44.5,-3642.6 45.5,-3642.6 		"/>
		<line class="st2" x1="47.5" y1="-3642.6" x2="138.2" y2="-3642.6"/>
		<polyline class="st1" points="139.2,-3642.6 140.2,-3642.6 140.7,-3641.8 		"/>
		<line class="st2" x1="141.7" y1="-3640" x2="187" y2="-3561.5"/>
		<polyline class="st1" points="187.5,-3560.6 188,-3559.8 187.5,-3558.9 		"/>
		<line class="st2" x1="186.5" y1="-3557.2" x2="141.2" y2="-3478.6"/>
		<polyline class="st1" points="140.7,-3477.8 140.2,-3476.9 139.2,-3476.9 		"/>
		<line class="st2" x1="137.2" y1="-3476.9" x2="46.5" y2="-3476.9"/>
	</g>
</g>
<path class="st0" d="M-281-3436c-6.2,0-13.9-4.4-17-9.8l-59.4-102.8c-3.1-5.4-3.1-14.2,0-19.6l59.4-102.8c3.1-5.4,10.8-9.8,17-9.8
	h118.8c6.2,0,13.9,4.4,17,9.8l59.4,102.8c3.1,5.4,3.1,14.2,0,19.6l-59.4,102.8c-3.1,5.4-10.8,9.8-17,9.8H-281z"/>
<path class="st3" d="M-343.1-3643.7c-6.2,0-13.9-4.4-17-9.8l-36.5-63.2c-3.1-5.4-3.1-14.2,0-19.6l36.5-63.2c3.1-5.4,10.8-9.8,17-9.8
	h73c6.2,0,13.9,4.4,17,9.8l36.5,63.2c3.1,5.4,3.1,14.2,0,19.6l-36.5,63.2c-3.1,5.4-10.8,9.8-17,9.8L-343.1-3643.7L-343.1-3643.7z"/>
<path class="st0" d="M33-2830.4c-6.2,0-13.9-4.4-17-9.8L-43.4-2943c-3.1-5.4-3.1-14.2,0-19.6L16-3065.5c3.1-5.4,10.8-9.8,17-9.8
	h118.8c6.2,0,13.9,4.4,17,9.8l59.4,102.8c3.1,5.4,3.1,14.2,0,19.6l-59.4,102.8c-3.1,5.4-10.8,9.8-17,9.8H33z"/>
<path class="st0" d="M33-2526.9c-6.2,0-13.9-4.4-17-9.8l-59.4-102.8c-3.1-5.4-3.1-14.2,0-19.6L16-2762.1c3.1-5.4,10.8-9.8,17-9.8
	h118.8c6.2,0,13.9,4.4,17,9.8l59.4,102.8c3.1,5.4,3.1,14.2,0,19.6l-59.4,102.8c-3.1,5.4-10.8,9.8-17,9.8H33z"/>
<g>
	<g>
		<polyline class="st1" points="45.5,-2566.5 44.5,-2566.5 44,-2567.4 		"/>
		<line class="st2" x1="43" y1="-2569.1" x2="-2.3" y2="-2647.7"/>
		<polyline class="st1" points="-2.8,-2648.5 -3.3,-2649.4 -2.8,-2650.2 		"/>
		<line class="st2" x1="-1.8" y1="-2652" x2="43.5" y2="-2730.5"/>
		<polyline class="st1" points="44,-2731.4 44.5,-2732.2 45.5,-2732.2 		"/>
		<line class="st2" x1="47.5" y1="-2732.2" x2="138.2" y2="-2732.2"/>
		<polyline class="st1" points="139.2,-2732.2 140.2,-2732.2 140.7,-2731.4 		"/>
		<line class="st2" x1="141.7" y1="-2729.6" x2="187" y2="-2651.1"/>
		<polyline class="st1" points="187.5,-2650.2 188,-2649.4 187.5,-2648.5 		"/>
		<line class="st2" x1="186.5" y1="-2646.8" x2="141.2" y2="-2568.3"/>
		<polyline class="st1" points="140.7,-2567.4 140.2,-2566.5 139.2,-2566.5 		"/>
		<line class="st2" x1="137.2" y1="-2566.5" x2="46.5" y2="-2566.5"/>
	</g>
</g>
<path class="st0" d="M33-2223.4c-6.2,0-13.9-4.4-17-9.8l-59.4-102.8c-3.1-5.4-3.1-14.2,0-19.6L16-2458.6c3.1-5.4,10.8-9.8,17-9.8
	h118.8c6.2,0,13.9,4.4,17,9.8l59.4,102.8c3.1,5.4,3.1,14.2,0,19.6l-59.4,102.8c-3.1,5.4-10.8,9.8-17,9.8H33z"/>
<path class="st0" d="M34.8-1920c-6.2,0-13.9-4.4-17-9.8l-59.4-102.8c-3.1-5.4-3.1-14.2,0-19.6l59.4-102.8c3.1-5.4,10.8-9.8,17-9.8
	h118.8c6.2,0,13.9,4.4,17,9.8l59.4,102.8c3.1,5.4,3.1,14.2,0,19.6l-59.4,102.8c-3.1,5.4-10.8,9.8-17,9.8L34.8-1920L34.8-1920z"/>
<path class="st0" d="M-283-1616.5c-6.2,0-13.9-4.4-17-9.8l-59.4-102.8c-3.1-5.4-3.1-14.2,0-19.6l59.4-102.8c3.1-5.4,10.8-9.8,17-9.8
	h118.8c6.2,0,13.9,4.4,17,9.8l59.4,102.8c3.1,5.4,3.1,14.2,0,19.6l-59.4,102.8c-3.1,5.4-10.8,9.8-17,9.8H-283z"/>
<path class="st0" d="M-728.6-2062.1c-6.2,0-13.9-4.4-17-9.8l-59.4-102.8c-3.1-5.4-3.1-14.2,0-19.6l59.4-102.8
	c3.1-5.4,10.8-9.8,17-9.8h118.8c6.2,0,13.9,4.4,17,9.8l59.4,102.8c3.1,5.4,3.1,14.2,0,19.6l-59.4,102.8c-3.1,5.4-10.8,9.8-17,9.8
	L-728.6-2062.1L-728.6-2062.1z"/>
<path class="st0" d="M-283-1920c-6.2,0-13.9-4.4-17-9.8l-59.4-102.8c-3.1-5.4-3.1-14.2,0-19.6l59.4-102.8c3.1-5.4,10.8-9.8,17-9.8
	h118.8c6.2,0,13.9,4.4,17,9.8l59.4,102.8c3.1,5.4,3.1,14.2,0,19.6l-59.4,102.8c-3.1,5.4-10.8,9.8-17,9.8L-283-1920L-283-1920z"/>
<path class="st0" d="M33-1313.1c-6.2,0-13.9-4.4-17-9.8l-59.4-102.8c-3.1-5.4-3.1-14.2,0-19.6L16-1548.2c3.1-5.4,10.8-9.8,17-9.8
	h118.8c6.2,0,13.9,4.4,17,9.8l59.4,102.8c3.1,5.4,3.1,14.2,0,19.6l-59.4,102.8c-3.1,5.4-10.8,9.8-17,9.8L33-1313.1L33-1313.1z"/>
<path class="st0" d="M-263.9-1313.1c-6.2,0-13.9-4.4-17-9.8l-59.4-102.8c-3.1-5.4-3.1-14.2,0-19.6l59.4-102.8
	c3.1-5.4,10.8-9.8,17-9.8h118.8c6.2,0,13.9,4.4,17,9.8l59.4,102.8c3.1,5.4,3.1,14.2,0,19.6l-59.4,102.8c-3.1,5.4-10.8,9.8-17,9.8
	H-263.9z"/>
<path class="st0" d="M33-1009.6c-6.2,0-13.9-4.4-17-9.8l-59.4-102.8c-3.1-5.4-3.1-14.2,0-19.6L16-1244.8c3.1-5.4,10.8-9.8,17-9.8
	h118.8c6.2,0,13.9,4.4,17,9.8l59.4,102.8c3.1,5.4,3.1,14.2,0,19.6l-59.4,102.8c-3.1,5.4-10.8,9.8-17,9.8H33z"/>
<path class="st0" d="M33-706.1c-6.2,0-13.9-4.4-17-9.8l-59.4-102.8c-3.1-5.4-3.1-14.2,0-19.6L16-941.3c3.1-5.4,10.8-9.8,17-9.8
	h118.8c6.2,0,13.9,4.4,17,9.8l59.4,102.8c3.1,5.4,3.1,14.2,0,19.6L168.7-716c-3.1,5.4-10.8,9.8-17,9.8L33-706.1L33-706.1z"/>
<path class="st0" d="M33-402.7c-6.2,0-13.9-4.4-17-9.8l-59.4-102.8c-3.1-5.4-3.1-14.2,0-19.6L16-637.8c3.1-5.4,10.8-9.8,17-9.8
	h118.8c6.2,0,13.9,4.4,17,9.8L228.1-535c3.1,5.4,3.1,14.2,0,19.6l-59.4,102.8c-3.1,5.4-10.8,9.8-17,9.8L33-402.7L33-402.7z"/>
<path class="st0" d="M33-99.2c-6.2,0-13.9-4.4-17-9.8l-59.4-102.8c-3.1-5.4-3.1-14.2,0-19.6L16-334.4c3.1-5.4,10.8-9.8,17-9.8h118.8
	c6.2,0,13.9,4.4,17,9.8l59.4,102.8c3.1,5.4,3.1,14.2,0,19.6L168.7-109c-3.1,5.4-10.8,9.8-17,9.8H33z"/>
<text transform="matrix(1 0 0 1 273.6135 -4160.4097)" class="st10" style="font-family:'Ubuntu-Bold'; font-size:21px; letter-spacing:1;">Home</text>
<text transform="matrix(1 0 0 1 340.5405 -4160.4097)" style="font-family:'Ubuntu-Bold'; font-size:21px; letter-spacing:1;"> </text>
<text transform="matrix(1 0 0 1 272.6135 -3552.8489)" class="st10" style="font-family:'Ubuntu-Bold'; font-size:21px; letter-spacing:1;">Customer suport </text>
<text transform="matrix(1 0 0 1 479.9235 -3552.8489)" style="font-family:'Ubuntu-Bold'; font-size:21px; letter-spacing:1;"> </text>
<text transform="matrix(1 0 0 1 272.6135 -3249.3889)" class="st10" style="font-family:'Ubuntu-Bold'; font-size:21px; letter-spacing:1;">Pricing</text>
<text transform="matrix(1 0 0 1 357.1795 -3249.3889)" style="font-family:'Ubuntu-Bold'; font-size:21px; letter-spacing:1;"> a</text>
<text transform="matrix(1 0 0 1 272.6135 -2945.929)" class="st10" style="font-family:'Ubuntu-Bold'; font-size:21px; letter-spacing:1;">Integratie</text>
<text transform="matrix(1 0 0 1 272.6135 -2642.469)" class="st10" style="font-family:'Ubuntu-Bold'; font-size:21px; letter-spacing:1;">Create A event </text>
<text transform="matrix(1 0 0 1 460.0785 -2642.469)" style="font-family:'Ubuntu-Bold'; font-size:21px; letter-spacing:1;"> </text>
<text transform="matrix(1 0 0 1 272.6135 -2339.009)" class="st10" style="font-family:'Ubuntu-Bold'; font-size:21px; letter-spacing:1;">Shop</text>
<text transform="matrix(1 0 0 1 331.0345 -2339.009)" style="font-family:'Ubuntu-Bold'; font-size:21px; letter-spacing:1;"> </text>
<text transform="matrix(1 0 0 1 660.0649 -2036.1125)" class="st10" style="font-family:'Ubuntu-Bold'; font-size:21px; letter-spacing:1;">Tickets</text>
<text transform="matrix(1 0 0 1 272.6135 -1732.0891)" class="st10" style="font-family:'Ubuntu-Bold'; font-size:21px; letter-spacing:1;">Api</text>
<text transform="matrix(1 0 0 1 272.6135 -1428.6292)" class="st10" style="font-family:'Ubuntu-Bold'; font-size:21px; letter-spacing:1;">Scanners </text>
<text transform="matrix(1 0 0 1 386.9355 -1428.6292)" style="font-family:'Ubuntu-Bold'; font-size:21px; letter-spacing:1;"> </text>
<text transform="matrix(1 0 0 1 272.6135 -1125.1692)" class="st10" style="font-family:'Ubuntu-Bold'; font-size:21px; letter-spacing:1;">API Software</text>
<text transform="matrix(1 0 0 1 430.5105 -1125.1692)" style="font-family:'Ubuntu-Bold'; font-size:21px; letter-spacing:1;"> </text>
<text transform="matrix(1 0 0 1 272.6135 -821.7094)" class="st10" style="font-family:'Ubuntu-Bold'; font-size:21px; letter-spacing:1;">Acount </text>
<text transform="matrix(1 0 0 1 364.8015 -821.7094)" style="font-family:'Ubuntu-Bold'; font-size:21px; letter-spacing:1;"> </text>
<text transform="matrix(1 0 0 1 272.6135 -518.2494)" class="st10" style="font-family:'Ubuntu-Bold'; font-size:21px; letter-spacing:1;">Pricing </text>
<text transform="matrix(1 0 0 1 272.6135 -214.7894)" class="st10" style="font-family:'Ubuntu-Bold'; font-size:21px; letter-spacing:1;">Veiligheid</text>
<text transform="matrix(1 0 0 1 395.6715 -214.7894)" style="font-family:'Ubuntu-Bold'; font-size:21px; letter-spacing:1;"> </text>
<text transform="matrix(1 0 0 1 272.6135 88.6706)" class="st10" style="font-family:'Ubuntu-Bold'; font-size:21px; letter-spacing:1;">DATA</text>
<text transform="matrix(1 0 0 1 272.6135 -3857.4094)" class="st10" style="font-family:'Ubuntu-Bold'; font-size:21px; letter-spacing:1;">Innovatie</text>
<text transform="matrix(1 0 0 1 386.4525 -3857.4094)" style="font-family:'Ubuntu-Bold'; font-size:21px; letter-spacing:1;"> </text>
<text transform="matrix(1 0 0 1 268.8115 -3917.8682)" style="fill:#FF4C00; font-family:'Ubuntu-Bold'; font-size:11.0073px;">motion</text>
<g>
	<path class="st3" d="M182.4-3873l-36.5-63.2c-3.1-5.4-10.8-9.8-17-9.8h-73c-6.2,0-13.9,4.4-17,9.8L2.3-3873
		c-3.1,5.4-3.1,14.2,0,19.6l36.5,63.2c3.1,5.4,10.8,9.8,17,9.8h73c6.2,0,13.9-4.4,17-9.8l36.5-63.2
		C185.5-3858.8,185.5-3867.6,182.4-3873z M96.9-3792.8H86.6c-1.9,0-3.5-0.9-3.5-2.1s1.6-2.1,3.5-2.1h10.4c1.9,0,3.5,0.9,3.5,2.1
		S98.8-3792.8,96.9-3792.8z M107.3-3806l-0.5,2.6c-0.4,1.9-2.2,3.4-4.1,3.4H81.1c-1.9,0-3.7-1.1-3.9-2.5c-0.3-1.4,1.1-2.7,3-3
		l24.4-3.4C106.5-3809.2,107.7-3807.8,107.3-3806z M109-3814.4c-0.3,1.3-2,2.5-3.9,2.8l-25.5,3.6c-1.9,0.3-3.6-0.5-3.8-1.7
		c-0.2-1.2,1.1-2.4,3-2.7l27.2-3.8C107.9-3816.5,109.3-3815.7,109-3814.4z M110.4-3821.6c-0.2,1.2-2,2.4-3.9,2.6l-28.2,4
		c-1.9,0.3-3.6-0.4-3.8-1.6c-0.2-1.1,1.2-2.3,3-2.5l29.8-4.2C109.3-3823.5,110.7-3822.8,110.4-3821.6z M138.6-3889.2l-17.5,30.5
		c-3.6,6.8-7.9,16.1-8.6,21.7c-0.3,2.6-1.1,4.3-2,5.3c1.1,0.4,1.7,1.4,1.5,2.5c-0.3,1.5-2.1,3-4,3.2l-30.8,4.3c-1.9,0.3-3.7-1-4-2.9
		l-0.7-4c-0.3-1.5,0.5-2.9,1.9-3.3c-0.9-1-1.6-2.6-1.9-5.1c-0.6-5-4.1-12.8-7.4-19.3l-18.9-32.9c-1-1.8-1-4.8,0-6.6l20.2-34.9
		c1-1.8,3.6-3,5.6-3h0.3h40.2h0.3c2.1,0,4.6,1.2,5.6,3l20.2,35.1C139.6-3893.8,139.6-3891,138.6-3889.2z"/>
	<path class="st3" d="M114.7-3925.3c-0.9-1.6-3.1-2.4-4.9-2.4h-35c-1.8,0-4,0.8-4.9,2.4l-17.5,30c-0.9,1.6-0.9,4.2,0,5.7L70-3859
		c0.9,1.6,1.9,3.1,4.9,3.1c10.3,0,10.8,24.6,16.8,24.6c6,0,8.4-24.6,18.2-24.6c3.2,0,4-1.5,4.9-3l17.5-30.6c0.9-1.6,0.9-4,0-5.5
		L114.7-3925.3z"/>
</g>
<g>
	<path class="st3" d="M124.3-4249.6H60.4c-9.8,0-18.9,5.3-23.9,13.8l-32,55.3c-4.9,8.5-4.9,19,0,27.5l32,55.3
		c4.9,8.5,14,13.8,23.9,13.8h63.8c9.8,0,18.9-5.3,23.9-13.8l32-55.3c4.9-8.5,4.9-19,0-27.5l-10.2-17.5l-38.1,65.8
		c-14.1,24.4-41.3,25.3-65.9,11.1c-24.7-14.3-37.5-38.2-23.4-62.7l14.8-25.5c0,0,6.4-11.2,16.3-5.6c10.5,6,4,17.4,4,17.4l-17.3,30.1
		v0.1c-0.5,0.8-3.8,7.8,3,11.8c6.5,3.7,10.7-2.8,11.2-3.5l17.4-30.2c0,0,6.4-11.2,16.3-5.6c10.5,5.9,4,17.3,4,17.3l-17.4,30.2v0.1
		c0,0-4.3,7.5,3,11.7c6.2,3.6,10.4-2.3,11.3-3.6l47.4-82.1l-8.3-14.4C143.1-4244.3,134-4249.6,124.3-4249.6"/>
</g>
<g>
	<path class="st3" d="M182.4-3569.6l-36.5-63.2c-3.1-5.4-10.8-9.8-17-9.8h-73c-6.2,0-13.9,4.4-17,9.8l-36.5,63.2
		c-3.1,5.4-3.1,14.2,0,19.6l36.5,63.2c3.1,5.4,10.8,9.8,17,9.8h73c6.2,0,13.9-4.4,17-9.8l36.5-63.2
		C185.5-3555.3,185.5-3564.2,182.4-3569.6z M172.1-3552.7l-33.7,58.4c-2.7,4.7-6.8,7.1-12.2,7.1c-5.3,0-17.8-11.3-24-17.3
		c-2.8,2.3-6.4,3.7-10.3,3.7c-9.1,0-16.4-7.4-16.4-16.4s7.4-16.4,16.4-16.4c9.1,0,16.4,7.4,16.4,16.4c0,3-0.8,5.9-2.3,8.3
		c7.9,7.6,17.7,15.6,20.2,15.9c3.3,0,5.4-1.2,7.1-4.1l30-52c-2.1,0.8-4.7,0-5.9-2l-20.6-35.2c-1.3-2.3-0.6-5.2,1.7-6.5l4.8-2.8
		c1.7-1,3.8-0.8,5.3,0.3l-15.4-26.7c-1.2-2.1-4.6-4.1-7.1-4.1H58.7c-2.5,0-5.9,2-7.1,4.1l-15.1,26.1c1.4-0.6,3-0.6,4.4,0.2l4.8,2.8
		c2.3,1.3,3,4.3,1.7,6.5l-20.5,35.2c-1.3,2.3-4.3,3-6.5,1.7l-4.8-2.8c-2.3-1.3-3-4.3-1.7-6.5l1.1-1.8l-3-4.4l34.6-60
		c2.3-4,7.6-7.1,12.2-7.1h67.4c4.6,0,9.9,3.1,12.2,7.1l33.7,58.4C174.3-3562.9,174.3-3556.7,172.1-3552.7z"/>
	<path class="st3" d="M91.8-3527.9c-5.8,0-10.5,4.7-10.5,10.5c0,5.8,4.7,10.5,10.5,10.5s10.5-4.7,10.5-10.5
		C102.3-3523.1,97.6-3527.9,91.8-3527.9z"/>
</g>
<path class="st4" d="M-286.4-3612.7"/>
<path class="st3" d="M-193.6-3593.4l-16-49.6l-6.7,2.1l15.7,48.6c-8.6,2.9-14.8,11-14.8,20.6c0,5.8,2.3,11,5.9,14.9l-49.1,48.2
	c-6.7,5.2-9.8,5.8-15.9,2.9c-1.8-0.8-5-3.7-8.5-7c0.5-1.5,0.4-3.2-0.5-4.7l-11.9-20.4c-1.6-2.7-5.1-3.6-7.8-2l-3,1.7
	c-2.7,1.6-3.6,5.1-2,7.8l11.9,20.4c1.6,2.7,5.1,3.6,7.8,2l0.2-0.1c3.9,3.7,8,7.4,10.8,8.7c3.4,1.6,6.4,2.3,9.2,2.3
	c5,0,9.2-2.4,14.2-6.2l0.2-0.1l50.1-49.2c3,1.6,6.5,2.5,10.2,2.5c12,0,21.8-9.7,21.8-21.8C-171.9-3583.6-181.6-3593.4-193.6-3593.4z
	"/>
<path class="st0" d="M-576-3436c-6.2,0-13.9-4.4-17-9.8l-59.4-102.8c-3.1-5.4-3.1-14.2,0-19.6l59.4-102.8c3.1-5.4,10.8-9.8,17-9.8
	h118.8c6.2,0,13.9,4.4,17,9.8l59.4,102.8c3.1,5.4,3.1,14.2,0,19.6l-59.4,102.8c-3.1,5.4-10.8,9.8-17,9.8H-576z"/>
<g>
	<path class="st3" d="M-590.2-3537.6l11.9,20.4c0.9,1.5,1,3.2,0.5,4.7c3.5,3.3,6.7,6.1,8.5,7c6,2.8,9.2,2.2,15.9-2.9l49.1-48.2
		c-3.7-3.9-5.9-9.1-5.9-14.9c0-9.6,6.2-17.7,14.8-20.6l-15.7-48.6l1.7-0.5h-43.5c-6.2,0-13.9,4.4-17,9.8l-36.5,63.2
		c-3.1,5.4-3.1,14.2,0,19.6l6.1,10.5l2.5-1.5C-595.3-3541.3-591.8-3540.3-590.2-3537.6z"/>
	<path class="st3" d="M-426.6-3568.3l-36.5-63.2c-3.1-5.4-10.8-9.8-17-9.8h-24l15.5,48c12,0,21.7,9.8,21.7,21.7
		c0,12-9.7,21.8-21.8,21.8c-3.7,0-7.2-0.9-10.2-2.5l-50.1,49.2l-0.2,0.1c-4.9,3.9-9.2,6.2-14.2,6.2c-2.8,0-5.7-0.7-9.2-2.3
		c-2.7-1.3-6.7-4.7-10.5-8.4l12.8,22.1c3.1,5.4,10.8,9.8,17,9.8h73c6.2,0,13.9-4.4,17-9.8l36.5-63.2
		C-423.4-3554.1-423.4-3562.9-426.6-3568.3z"/>
</g>
<path class="st4" d="M-238.9-3576.9"/>
<path class="st4" d="M-278.4-3576.9"/>
<g>
	<path class="st3" d="M-532.6-3565.9h-40.3v-3.5c0-11.1,9-20.2,20.2-20.2s20.2,9,20.2,20.2L-532.6-3565.9L-532.6-3565.9z
		 M-565.4-3572.9h25.4c-1.5-5.6-6.6-9.7-12.7-9.7S-563.9-3578.5-565.4-3572.9z"/>
</g>
<g>
	<path class="st0" d="M-344.6-3263l-40.5-70.1c-2.1-3.7-7.3-6.7-11.6-6.7h-80.9c-4.3,0-9.5,3-11.6,6.7l-40.5,70.1
		c-2.1,3.7-2.1,9.7,0,13.4l40.5,70.1c2.1,3.7,7.3,6.7,11.6,6.7h80.9c4.3,0,9.5-3,11.6-6.7l40.5-70.1
		C-342.5-3253.3-342.5-3259.3-344.6-3263z M-347.1-3246.5l-36.5,63.2c-3.1,5.4-10.8,9.8-17,9.8h-73c-6.2,0-13.9-4.4-17-9.8
		l-36.5-63.2c-3.1-5.4-3.1-14.2,0-19.6l36.5-63.2c3.1-5.4,10.8-9.8,17-9.8h73c6.2,0,13.9,4.4,17,9.8l36.5,63.2
		C-344-3260.7-344-3251.9-347.1-3246.5z"/>
	<path class="st3" d="M-383.6-3329.3c-3.1-5.4-10.8-9.8-17-9.8h-73c-6.2,0-13.9,4.4-17,9.8l-36.5,63.2c-3.1,5.4-3.1,14.2,0,19.6
		l36.5,63.2c3.1,5.4,10.8,9.8,17,9.8h73c6.2,0,13.9-4.4,17-9.8l36.5-63.2c3.1-5.4,3.1-14.2,0-19.6L-383.6-3329.3z M-414.5-3204.8
		c-4.2,1-9.1,1.5-14.7,1.5c-12.3,0-21.7-3-28.1-8.9c-6.5-5.9-10.8-14.3-12.8-25.1h-10.6v-14.6h9.3c-0.1-1.1-0.1-1.9-0.1-2.5
		c0-0.6,0-1.3,0-2.1c0-0.8,0-1.6,0-2.5s0-1.7,0.1-2.5h-9.3v-14.6h11.2c2.6-11,7.4-19.3,14.6-24.9c7.2-5.6,16.4-8.4,27.6-8.4
		c4.4,0,8.2,0.3,11.3,1c3.1,0.7,6.3,1.6,9.4,2.8l-4.6,17.1c-2.4-0.8-4.8-1.4-7.2-2c-2.5-0.5-5.5-0.8-9.1-0.8
		c-5.9,0-10.5,1.3-13.8,3.8c-3.3,2.6-5.7,6.3-7.1,11.3h32.7l-2.8,14.6h-31.8c-0.1,1.1-0.1,2-0.1,2.7s0,1.5,0,2.3c0,0.8,0,1.5,0,2.1
		c0,0.6,0,1.4,0.1,2.5h30.1l-2.8,14.6h-25.3c1.7,5.9,4.2,10,7.5,12.3c3.3,2.3,7.5,3.5,12.5,3.5c3.2,0,6.5-0.3,9.9-0.9
		c3.3-0.6,6.7-1.6,10-2.9l4.3,16.9C-406.9-3207-410.3-3205.8-414.5-3204.8z"/>
</g>
<g>
	<path class="st3" d="M184.9-3263l-40.5-70.1c-2.1-3.7-7.3-6.7-11.6-6.7H51.9c-4.3,0-9.5,3-11.6,6.7L-0.2-3263
		c-2.1,3.7-2.1,9.7,0,13.4l40.5,70.1c2.1,3.7,7.3,6.7,11.6,6.7h80.9c4.3,0,9.5-3,11.6-6.7l40.5-70.1
		C187-3253.3,187-3259.3,184.9-3263z M182.4-3246.5l-36.5,63.2c-3.1,5.4-10.8,9.8-17,9.8h-73c-6.2,0-13.9-4.4-17-9.8l-36.5-63.2
		c-3.1-5.4-3.1-14.2,0-19.6l36.5-63.2c3.1-5.4,10.8-9.8,17-9.8h73c6.2,0,13.9,4.4,17,9.8l36.5,63.2
		C185.5-3260.7,185.5-3251.9,182.4-3246.5z"/>
	<path class="st3" d="M145.9-3329.3c-3.1-5.4-10.8-9.8-17-9.8h-73c-6.2,0-13.9,4.4-17,9.8l-36.5,63.2c-3.1,5.4-3.1,14.2,0,19.6
		l36.5,63.2c3.1,5.4,10.8,9.8,17,9.8h73c6.2,0,13.9-4.4,17-9.8l36.5-63.2c3.1-5.4,3.1-14.2,0-19.6L145.9-3329.3z M115-3204.8
		c-4.2,1-9.1,1.5-14.7,1.5c-12.3,0-21.7-3-28.1-8.9c-6.5-5.9-10.8-14.3-12.8-25.1H48.8v-14.6h9.3c-0.1-1.1-0.1-1.9-0.1-2.5
		c0-0.6,0-1.3,0-2.1c0-0.8,0-1.6,0-2.5s0-1.7,0.1-2.5h-9.3v-14.6H60c2.6-11,7.4-19.3,14.6-24.9c7.2-5.6,16.4-8.4,27.6-8.4
		c4.4,0,8.2,0.3,11.3,1c3.1,0.7,6.3,1.6,9.4,2.8l-4.6,17.1c-2.4-0.8-4.8-1.4-7.2-2c-2.5-0.5-5.5-0.8-9.1-0.8
		c-5.9,0-10.5,1.3-13.8,3.8c-3.3,2.6-5.7,6.3-7.1,11.3h32.7l-2.8,14.6H79.1c-0.1,1.1-0.1,2-0.1,2.7s0,1.5,0,2.3c0,0.8,0,1.5,0,2.1
		c0,0.6,0,1.4,0.1,2.5h30.1l-2.8,14.6H81c1.7,5.9,4.2,10,7.5,12.3c3.3,2.3,7.5,3.5,12.5,3.5c3.2,0,6.5-0.3,9.9-0.9
		c3.3-0.6,6.7-1.6,10-2.9l4.3,16.9C122.6-3207,119.2-3205.8,115-3204.8z"/>
</g>
<path class="st3" d="M-305.6-2860c-6.2,0-13.9-4.4-17-9.8l-36.5-63.2c-3.1-5.4-3.1-14.2,0-19.6l36.5-63.2c3.1-5.4,10.8-9.8,17-9.8
	h73c6.2,0,13.9,4.4,17,9.8l36.5,63.2c3.1,5.4,3.1,14.2,0,19.6l-36.5,63.2c-3.1,5.4-10.8,9.8-17,9.8L-305.6-2860L-305.6-2860z"/>
<g>
	<path class="st3" d="M182.4-2962.7l-36.5-63.2c-3.1-5.4-10.8-9.8-17-9.8h-73c-6.2,0-13.9,4.4-17,9.8l-36.5,63.2
		c-3.1,5.4-3.1,14.2,0,19.6l36.5,63.2c3.1,5.4,10.8,9.8,17,9.8h73c6.2,0,13.9-4.4,17-9.8l36.5-63.2
		C185.5-2948.4,185.5-2957.3,182.4-2962.7z M61.1-2880.2c-5.5,0-12.2-3.9-14.9-8.6l-32-55.4c-2.7-4.7-2.7-12.5,0-17.2l32-55.4
		c2.7-4.7,9.4-8.6,14.9-8.6h23.5l-36.2,62.8c-3.1,5.4-3.1,14.3,0,19.7l36.2,62.8L61.1-2880.2L61.1-2880.2z M99-2888.5
		c-4.8,0-10.8-3.4-13.2-7.6l-28.3-49.1c-2.4-4.2-2.4-11.1,0-15.2l28.3-49.1c2.4-4.2,8.4-7.6,13.2-7.6h15.3c-0.1,0.1-0.1,0.2-0.2,0.3
		l-32,55.4c-2.7,4.7-2.7,12.5,0,17.2l32,55.4c0.1,0.1,0.1,0.2,0.2,0.3L99-2888.5L99-2888.5z M107-2925.6c-3.3,0-6.3-1.7-7.9-4.6
		l-10.6-18.3c-1.6-2.8-1.6-6.3,0-9.1l10.6-18.3c1.6-2.8,4.6-4.6,7.9-4.6h21.1c3.2,0,6.2,1.7,7.9,4.6l2.8,4.8l-15.7,27.1
		c-0.3,0.4-1.7,2.4-3.7,1.2c-2.4-1.4-1-3.9-1-3.9v0l5.7-10c0,0,2.2-3.8-1.3-5.7c-3.3-1.8-5.4,1.8-5.4,1.8l-5.8,10
		c-0.2,0.2-1.5,2.4-3.7,1.2c-2.3-1.3-1.2-3.6-1-3.9v0l5.7-10c0,0,2.2-3.8-1.3-5.7c-3.3-1.8-5.4,1.8-5.4,1.8l-4.9,8.4
		c-4.7,8.1-0.4,16,7.7,20.7c8.1,4.7,17.1,4.4,21.8-3.7l12.6-21.7l3.4,5.8c1.6,2.8,1.6,6.3,0,9.1l-10.6,18.3
		c-1.6,2.8-4.6,4.6-7.9,4.6L107-2925.6L107-2925.6z M173.1-2946.8l-22.4,38.8c-1.9,3.3-6.6,6-10.4,6h-12.1c0.1-0.1,0.1-0.2,0.2-0.3
		l25.3-43.8c2.2-3.7,2.2-9.9,0-13.6l-25.3-43.8c-0.1-0.1-0.1-0.2-0.2-0.3h12.1c3.8,0,8.5,2.7,10.4,6l22.4,38.8
		C175-2955.6,175-2950.1,173.1-2946.8z"/>
</g>
<rect x="389.7" y="-3770.2" class="st5" width="4.5" height="1.5"/>
<path class="st3" d="M-208.1-2566.5c-6.2,0-13.9-4.4-17-9.8l-36.5-63.2c-3.1-5.4-3.1-14.2,0-19.6l36.5-63.2c3.1-5.4,10.8-9.8,17-9.8
	h73c6.2,0,13.9,4.4,17,9.8l36.5,63.2c3.1,5.4,3.1,14.2,0,19.6l-36.5,63.2c-3.1,5.4-10.8,9.8-17,9.8L-208.1-2566.5L-208.1-2566.5z"/>
<path class="st3" d="M55.8-138.8c-6.2,0-13.9-4.4-17-9.8L2.3-211.9c-3.1-5.4-3.1-14.2,0-19.6l36.5-63.2c3.1-5.4,10.8-9.8,17-9.8h73
	c6.2,0,13.9,4.4,17,9.8l36.5,63.2c3.1,5.4,3.1,14.2,0,19.6l-36.5,63.2c-3.1,5.4-10.8,9.8-17,9.8H55.8z"/>
<g>
	<g>
		<g>
			<path class="st0" d="M-292.2-2656.4L-292.2-2656.4c-0.1,0-0.5-0.6-1.1-0.8l-19.8-7.7c-1.6-0.6-6.1-1.2-9.8-1.1l-1.5,0
				c-11.3-5.4-21.8-14.5-23.4-30.9c-1.7,16.1-11.8,25.4-23.4,31c-3.2,0.2-6.5,0.6-8.2,1.1l-25.9,7.8c-1.4,0.4-2.1,0.6-1.9,1.6h0
				c0,0-1.2,25.8,0,27c1.2,1.2,19.5,8.4,23.9,9.1c2.5,0.4,58.8,0.1,60.4-0.3c5.8-1.2,29.3-8.4,30.7-9.1
				C-290.8-2629.2-292.2-2656.4-292.2-2656.4z"/>
		</g>
		<defs>
			<filter id="Adobe_OpacityMaskFilter" filterUnits="userSpaceOnUse" x="-407.7" y="-2697" width="116.1" height="77.9">
				<feColorMatrix  type="matrix" values="1 0 0 0 0  0 1 0 0 0  0 0 1 0 0  0 0 0 1 0"/>
			</filter>
		</defs>
		<mask maskUnits="userSpaceOnUse" x="-407.7" y="-2697" width="116.1" height="77.9" id="SVGID_1_">
			<g class="st6">
				
					<image style="overflow:visible;enable-background:new    ;" width="504" height="346" xlink:href="AA09B0C6.jpeg"  transform="matrix(0.2386 0 0 0.2372 -409.7136 -2698.9651)">
				</image>
			</g>
		</mask>
		<g class="st7">
			<path class="st0" d="M-292.2-2656.4L-292.2-2656.4c-0.1,0-0.5-0.6-1.1-0.8l-19.8-7.7c-1.6-0.6-6.1-1.2-9.8-1.1l-1.5,0
				c-11.3-5.4-21.8-14.5-23.4-30.9c-1.7,16.1-11.8,25.4-23.4,31c-3.2,0.2-6.5,0.6-8.2,1.1l-25.9,7.8c-1.4,0.4-2.1,0.6-1.9,1.6h0
				c0,0-1.2,25.8,0,27c1.2,1.2,19.5,8.4,23.9,9.1c2.5,0.4,58.8,0.1,60.4-0.3c5.8-1.2,29.3-8.4,30.7-9.1
				C-290.8-2629.2-292.2-2656.4-292.2-2656.4z"/>
		</g>
	</g>
</g>
<g>
	<path class="st0" d="M-527.8-2674c-3.8,2.6-3.6,4-3.6,6c0,3.3,0,52,0,52c0,4.4,3.1,9.7,6.9,11.9l44.3,25.6c1.8,1,4.1,1.6,6.5,1.6
		v-136.9C-476.6-2711.7-515.4-2682.7-527.8-2674z"/>
</g>
<g>
	<path class="st8" d="M-419.4-2674c3.8,2.6,3.6,4,3.6,6c0,3.3,0,52,0,52c0,4.4-3.1,9.7-6.9,11.9l-44.3,25.6c-1.8,1-4.1,1.6-6.5,1.6
		v-136.9C-470.7-2711.7-431.9-2682.7-419.4-2674z"/>
</g>
<polygon class="st0" points="-430.9,-2599.6 -450.4,-2587.8 -450.1,-2630.4 -431,-2639.9 "/>
<path class="st0" d="M-201.9-2576.3c-5.5,0-12.2-3.9-14.9-8.6l-32-55.4c-2.7-4.7-2.7-12.5,0-17.2l32-55.4c2.7-4.7,9.4-8.6,14.9-8.6
	h59.1l-36.2,62.8c-3.1,5.4-3.1,14.3,0,19.7l36.2,62.8L-201.9-2576.3L-201.9-2576.3z"/>
<g>
	<path class="st0" d="M-151.2-2653.3h18.2v-20.1h11.1v20.1h18.2v10.4h-18.2v20.1H-133v-20.1h-18.2V-2653.3z"/>
</g>
<g>
	<path class="st3" d="M182.4-2659.2l-36.5-63.2c-3.1-5.4-10.8-9.8-17-9.8h-73c-6.2,0-13.9,4.4-17,9.8l-36.5,63.2
		c-3.1,5.4-3.1,14.2,0,19.6l36.5,63.2c3.1,5.4,10.8,9.8,17,9.8h73c6.2,0,13.9-4.4,17-9.8l36.5-63.2
		C185.5-2645,185.5-2653.8,182.4-2659.2z M62.1-2576.3c-5.5,0-12.2-3.9-14.9-8.6l-32-55.4c-2.7-4.7-2.7-12.5,0-17.2l32-55.4
		c2.7-4.7,9.4-8.6,14.9-8.6h59.1L85-2658.7c-3.1,5.4-3.1,14.3,0,19.7l36.2,62.8L62.1-2576.3L62.1-2576.3z M160.3-2642.9h-18.2v20.1
		H131v-20.1h-18.2v-10.4H131v-20.1h11.1v20.1h18.2V-2642.9z"/>
</g>
<g>
	<path class="st9" d="M78.2-2260.2c1.9,0,3.5-1.2,4.2-2.8h-8.3C74.7-2261.4,76.3-2260.2,78.2-2260.2z"/>
	<path class="st9" d="M133.6-2260.2c2.5,0,4.5-2,4.5-4.5c0-0.3,0-0.6-0.1-0.9c-2.8,1.5-5.8,2.5-8.6,2.6
		C130.1-2261.4,131.7-2260.2,133.6-2260.2z"/>
	<path class="st3" d="M82.7-2264.7c0-2.5-2-4.5-4.5-4.5s-4.5,2-4.5,4.5c0,0.6,0.1,1.2,0.3,1.7h8.3
		C82.6-2263.6,82.7-2264.1,82.7-2264.7z"/>
	<path class="st3" d="M133.6-2269.2c-2.5,0-4.5,2-4.5,4.5c0,0.6,0.1,1.1,0.3,1.7c2.8-0.1,5.8-1.1,8.6-2.6
		C137.6-2267.7,135.8-2269.2,133.6-2269.2z"/>
	<path class="st3" d="M182.4-2355.7l-36.5-63.2c-3.1-5.4-10.8-9.8-17-9.8h-73c-6.2,0-13.9,4.4-17,9.8l-36.5,63.2
		c-3.1,5.4-3.1,14.2,0,19.6l36.5,63.2c3.1,5.4,10.8,9.8,17,9.8h11c-0.1-0.5-0.1-1.1-0.1-1.7c0-6.3,5.2-11.5,11.5-11.5
		s11.5,5.2,11.5,11.5c0,0.6-0.1,1.1-0.1,1.7h32.7c-0.1-0.5-0.1-1.1-0.1-1.7c0-6.3,5.2-11.5,11.5-11.5c4.4,0,8.2,2.5,10.2,6.1
		c0.8-0.9,1.5-1.8,2.1-2.8l36.5-63.2C185.5-2341.5,185.5-2350.3,182.4-2355.7z M137.6-2283H76c-5.5,0-12-3.7-14.7-8.5l-25.1-43.5
		c-2.7-4.8-2.8-12.2,0-17l6-11.3c-1.3-1.7-2.2-3.9-2.2-6.2c0-5.6,4.5-10.1,10.1-10.1s10.1,4.5,10.1,10.1s-4.5,10.1-10.1,10.1
		c-0.7,0-1.3-0.1-1.9-0.2l-5.9,11c-1.5,2.6-1.5,7.4,0,10l25.1,43.5c1.5,2.6,5.6,5,8.7,5h61.6L137.6-2283L137.6-2283z M160.1-2340.4
		l-20.7,35.9c-1.8,3.1-6.1,5.6-9.6,5.6H88.4c-3.5,0-7.9-2.5-9.6-5.6l-20.7-35.9c-1.8-3.1,0.2-8.1,2-11.1h100.1
		C161.9-2348.4,161.9-2343.4,160.1-2340.4z"/>
</g>
<path class="st0" d="M578.4-1686.8v-13h-10v13c0,0-0.8,0-7.6,0s-9.1,10-9.1,10h43.3c0,0-1.5-10-8.5-10S578.4-1686.8,578.4-1686.8z"
	/>
<g>
	<path class="st0" d="M574.8-1711.5c-0.1-0.1-0.3-0.2-0.4-0.2h-1.8c-0.2,0-0.3,0.1-0.4,0.2l-0.9,1.6c-0.1,0.1-0.1,0.4,0,0.5l0.9,1.6
		c0.1,0.1,0.3,0.2,0.4,0.2h1.8c0.2,0,0.3-0.1,0.4-0.2l0.9-1.6c0.1-0.1,0.1-0.4,0-0.5L574.8-1711.5z"/>
	<path class="st0" d="M625-1779.8H521.5c-7,0-12.7,5.7-12.7,12.7v51.7c0,7,5.7,12.7,12.7,12.7H625c7,0,12.7-5.7,12.7-12.7v-51.7
		C637.7-1774.1,632-1779.8,625-1779.8z M636.1-1716.8c0,6.6-5.5,12.1-12.3,12.1H523.1c-6.8,0-12.3-5.4-12.3-12.1v-49.3
		c0-6.6,5.5-12.1,12.3-12.1h100.7c6.8,0,12.3,5.4,12.3,12.1L636.1-1716.8L636.1-1716.8z"/>
</g>
<g>
	<path class="st3" d="M-563.1-1821.9c-6.2,0-13.9,4.4-17,9.8l-36.5,63.2c-3.1,5.4-3.1,14.2,0,19.6l36.5,63.2
		c3.1,5.4,10.8,9.8,17,9.8h8.4v-165.7H-563.1z"/>
	<path class="st3" d="M-436.6-1748.8l-36.5-63.2c-3.1-5.4-10.8-9.8-17-9.8H-550v165.7h59.9c6.2,0,13.9-4.4,17-9.8l36.5-63.2
		C-433.5-1734.6-433.5-1743.4-436.6-1748.8z"/>
</g>
<g>
	<path class="st0" d="M-506.7-1779.6l-19.2-26.2c-14.4,11.6-17.3,32.7-6.2,47.8c11.1,15.1,32,18.7,47.4,8.5l-20-27.2L-506.7-1779.6z
		"/>
	<path class="st0" d="M-479.8-1750.7c10.5-8.5,14.9-21.9,12.2-34.5l-31.4,8.3L-479.8-1750.7z"/>
	<path class="st0" d="M-470.7-1789.2c-1.1-3.5-2.8-7-5.1-10.1c-11.1-15.1-32-18.7-47.4-8.5l20,27.2L-470.7-1789.2z"/>
</g>
<g>
	<path class="st0" d="M-501.1-1699.8l29.5,13.5c6.9-17.2-0.9-37-17.9-44.7c-17-7.8-37.1-0.7-45.5,15.8l30.7,14L-501.1-1699.8z"/>
	<path class="st0" d="M-538-1711.9c-5,12.5-2.2,26.4,6.2,36l23.3-22.6L-538-1711.9z"/>
	<path class="st0" d="M-527.9-1673.8c2.7,2.5,5.9,4.7,9.4,6.3c17,7.8,37.1,0.7,45.5-15.8l-30.7-14L-527.9-1673.8z"/>
</g>
<rect x="-628.4" y="-1780.8" class="st0" width="67.3" height="4.1"/>
<rect x="-628.4" y="-1769.9" class="st0" width="67.3" height="4.1"/>
<rect x="-628.4" y="-1758.4" class="st0" width="67.3" height="4.1"/>
<rect x="-628.4" y="-1747.5" class="st0" width="67.3" height="4.1"/>
<rect x="-628.4" y="-1736.5" class="st0" width="67.3" height="4.1"/>
<rect x="-628.4" y="-1725" class="st0" width="67.3" height="4.1"/>
<g>
	<g>
		<path class="st3" d="M172.3-1747.7l-24.8-43H37.2l-24.8,43c-2.8,4.8-2.8,12.6,0,17.4l32.4,56.2c2.8,4.8,9.6,8.7,15.1,8.7h64.8
			c5.5,0,12.3-3.9,15.1-8.7l32.4-56.2C175.1-1735.1,175.1-1742.9,172.3-1747.7z M66.7-1729.5l-2.3,7l-30.7-13v-7.2l30.7-13l2.3,7
			l-23.8,9.5L66.7-1729.5z M84.4-1705.6h-8.8l24.1-68.9h8.7L84.4-1705.6z M151-1735.4l-30.7,13l-2.4-7l23.8-9.5l-23.8-9.5l2.4-7
			l30.7,13V-1735.4z"/>
	</g>
	<g>
		<path class="st3" d="M129.2-1814.3l2.3-3.4h2.7l-3.7,5.3c0.8,1,1.5,1.9,2.2,2.9c0.7,1,1.3,1.9,1.7,2.8h-2.8
			c-0.1-0.3-0.3-0.5-0.5-0.8s-0.4-0.6-0.6-1c-0.2-0.3-0.5-0.7-0.7-1c-0.3-0.3-0.5-0.6-0.7-0.9c-0.5,0.6-1,1.2-1.4,1.9
			c-0.5,0.7-0.9,1.3-1.2,1.8h-2.6c0.2-0.4,0.5-0.9,0.8-1.3c0.3-0.5,0.6-0.9,1-1.4c0.3-0.5,0.7-1,1.1-1.5s0.7-0.9,1.1-1.4l-3.7-5.4
			h2.8L129.2-1814.3z"/>
	</g>
	<g>
		<path class="st9" d="M148.7-1800.1l-112.7,0l-30.6,53c-2.5,4.3-2.5,11.8,0,16.1l36.5,63.2c2.5,4.3,9,8.1,14,8.1h73
			c5,0,11.5-3.8,14-8.1l36.5-63.2c2.5-4.3,2.5-11.8,0-16.1L148.7-1800.1z"/>
		<path class="st3" d="M185.4-1750.6l-36.5-63.2c-3.7-6.5-12.5-11.6-20-11.6h-73c-7.5,0-16.3,5.1-20,11.6l-36.5,63.2
			c-3.7,6.5-3.7,16.7,0,23.1l36.5,63.2c3.7,6.5,12.5,11.6,20,11.6h73c7.5,0,16.3-5.1,20-11.6l36.5-63.2
			C189.1-1733.9,189.1-1744.1,185.4-1750.6z M119.2-1813.6l4-7c0.3-0.6,1.2-1.1,1.9-1.1h8.1c0.7,0,1.5,0.5,1.9,1.1l4,7
			c0.3,0.6,0.3,1.6,0,2.2l-4,7c-0.3,0.6-1.2,1.1-1.9,1.1h-8.1c-0.7,0-1.5-0.5-1.9-1.1l-4-7C118.9-1812.1,118.9-1813,119.2-1813.6z
			 M179.3-1730.9l-36.5,63.2c-2.5,4.3-9,8.1-14,8.1h-73c-5,0-11.5-3.8-14-8.1l-36.5-63.2c-2.5-4.3-2.5-11.8,0-16.1l30.6-53l112.7,0
			l30.6,53C181.8-1742.8,181.8-1735.2,179.3-1730.9z"/>
	</g>
</g>
<g>
	<path class="st3" d="M-247.3-2044.6c0-1.4,0-2.8,0-4.2c-1.5,0-2.8,0-4.2,0c0,1.4,0,2.8,0,4.2
		C-250-2044.6-248.6-2044.6-247.3-2044.6z"/>
	<path class="st3" d="M-221.7-2006.1c-1.4,0-2.7,0-4.1,0c0,1.4,0,2.8,0,4.2c1.4,0,2.7,0,4.1,0
		C-221.7-2003.4-221.7-2004.8-221.7-2006.1z"/>
	<path class="st3" d="M-242.9-2036.2C-242.9-2036.2-242.9-2036.2-242.9-2036.2C-242.9-2036.2-242.9-2036.2-242.9-2036.2
		c4.3,0,8.6,0,12.9,0c0,0,0,0,0,0c0,0,0,0,0,0c0-1.4,0-2.8,0-4.3c0,0,0,0,0,0c0,0,0,0,0,0c-4.3,0-8.5,0-12.9,0
		C-242.9-2039-242.9-2037.6-242.9-2036.2z"/>
	<path class="st3" d="M-225.8-1997.6c0-1.5,0-2.9,0-4.3c-2.9,0-5.7,0-8.6,0c0,2.8,0,5.7,0,8.5c0,0,0,0,0,0c0,0,0,0,0,0
		c1.4,0,2.8,0,4.3,0c0,0,0,0,0,0c0,0,0,0,0,0c0-1.4,0-2.7,0-4.2C-228.6-1997.6-227.2-1997.6-225.8-1997.6z"/>
	<path class="st3" d="M-234.3-2070.3C-234.4-2070.3-234.4-2070.3-234.3-2070.3C-234.4-2070.3-234.4-2070.3-234.3-2070.3
		c-1.4,0-2.8,0-4.3,0c0,1.5,0,2.9,0,4.3c0,0,0,0,0,0c0,0,0,0,0,0c1.4,0,2.8,0,4.3,0C-234.3-2067.5-234.3-2068.9-234.3-2070.3z"/>
	<path class="st3" d="M-217.4-1997.6c-1.4,0-2.8,0-4.3,0c0,1.4,0,2.8,0,4.1c1.4,0.1,2.9,0.1,4.3,0.2
		C-217.4-1994.8-217.4-1996.2-217.4-1997.6z"/>
	<path class="st3" d="M-242.9-2031.9c0-1.4,0-2.8,0-4.3c0,0,0,0,0,0c0,0,0,0,0,0c-1.4,0-2.8,0-4.3,0c0,1.4,0,2.8,0,4.3
		C-245.8-2031.9-244.4-2031.9-242.9-2031.9C-242.9-2031.9-242.9-2031.9-242.9-2031.9C-242.9-2031.9-242.9-2031.9-242.9-2031.9z"/>
	<path class="st3" d="M-225.8-2066C-225.8-2066-225.8-2066-225.8-2066C-225.8-2066-225.8-2066-225.8-2066c0-1.4,0-2.8,0-4.3
		c-1.5,0-2.9,0-4.3,0c0,0,0,0,0,0c0,0,0,0,0,0c0,1.4,0,2.8,0,4.3C-228.6-2066-227.2-2066-225.8-2066z"/>
	<path class="st3" d="M-247.2-2040.4c-1.5,0-2.9,0-4.3,0c0,1.4,0,2.8,0,4.2c1.4,0,2.8,0,4.3,0
		C-247.2-2037.6-247.2-2039-247.2-2040.4z"/>
	<path class="st3" d="M-208.9-2057.4c-1.5,0-2.8,0-4.3,0c0,1.5,0,2.8,0,4.2c1.4,0,2.9,0,4.3,0
		C-208.9-2054.7-208.9-2056.1-208.9-2057.4z"/>
	<path class="st3" d="M-217.4-2010.5c0-1.4,0-2.8,0-4.3c-1.5,0-2.9,0-4.3,0c0,1.4,0,2.8,0,4.3
		C-220.2-2010.5-218.8-2010.5-217.4-2010.5z"/>
	<path class="st3" d="M-255.8-2048.9C-255.8-2048.9-255.8-2048.9-255.8-2048.9L-255.8-2048.9L-255.8-2048.9
		C-255.8-2048.9-255.8-2048.9-255.8-2048.9c-1.4,0-2.8,0-4.3,0c0,1.5,0,2.9,0,4.3c0,0,0,0,0,0c0,0,0,0,0,0c1.4,0,2.8,0,4.3,0
		C-255.8-2046.1-255.8-2047.5-255.8-2048.9z"/>
	<path class="st3" d="M-234.4-2061.7c0,1.5,0,2.8,0,4.2c0,0,0,0,0,0c0,0,0,0,0,0c1.4,0,2.8,0,4.3,0c0,0,0,0,0,0c0,0,0,0,0,0
		c0-1.4,0-2.8,0-4.2C-231.6-2061.7-232.9-2061.7-234.4-2061.7z"/>
	<path class="st3" d="M-247.2-2031.9c-1.4,0-2.8,0-4.3,0c0-1.5,0-2.9,0-4.3c-1.4,0-2.8,0-4.3,0c0,2.9,0,5.7,0,8.5c0,0,0,0,0,0
		c0,0,0,0,0,0c2.8,0,5.7,0,8.5,0C-247.2-2029.1-247.2-2030.5-247.2-2031.9z"/>
	<path class="st3" d="M-238.6-2006.1c0,1.4,0,2.8,0,4.2c1.5,0,2.8,0,4.2,0c0-1.4,0-2.8,0-4.2
		C-235.9-2006.1-237.2-2006.1-238.6-2006.1z"/>
	<path class="st3" d="M-183.1-2036.2C-183.1-2036.2-183.1-2036.2-183.1-2036.2c1.4,0,2.9,0,4.3,0c0-1.5,0-2.8,0-4.3
		c-1.5,0-2.9,0-4.3,0c0,0,0,0,0,0c0,0,0,0,0,0C-183.1-2039.1-183.1-2037.6-183.1-2036.2C-183.1-2036.2-183.1-2036.2-183.1-2036.2z"
		/>
	<path class="st3" d="M-272.9-2070.4c7.2,0,14.3,0,21.4,0c0-7.2,0-14.2,0-21.3c-7.2,0-14.2,0-21.4,0
		C-272.9-2084.6-272.9-2077.5-272.9-2070.4z M-268.6-2087.4c4.3,0,8.4,0,12.7,0c0,4.2,0,8.4,0,12.7c-4.2,0-8.4,0-12.7,0
		C-268.6-2078.9-268.6-2083.1-268.6-2087.4z"/>
	<path class="st3" d="M-238.6-2027.7c0-1.4,0-2.8,0-4.3c-1.5,0-2.9,0-4.3,0c0,0,0,0,0,0c0,0,0,0,0,0c0,1.4,0,2.9,0,4.3
		C-241.4-2027.6-240-2027.6-238.6-2027.7C-238.7-2027.6-238.7-2027.6-238.6-2027.7C-238.6-2027.7-238.6-2027.7-238.6-2027.7z"/>
	<path class="st3" d="M-204.5-2010.5c4.3,0,8.5,0,12.8,0c0-4.3,0-8.5,0-12.8c-4.3,0-8.5,0-12.8,0
		C-204.5-2019-204.5-2014.8-204.5-2010.5z M-200.1-2019c1.4,0,2.7,0,4.1,0c0,1.4,0,2.7,0,4.1c-1.4,0-2.7,0-4.1,0
		C-200.1-2016.2-200.1-2017.5-200.1-2019z"/>
	<path class="st3" d="M-133.6-2052.3l-36.5-63.2c-3.1-5.4-10.8-9.8-17-9.8h-73c-6.2,0-13.9,4.4-17,9.8l-36.5,63.2
		c-3.1,5.4-3.1,14.2,0,19.6l36.5,63.2c3.1,5.4,10.8,9.8,17,9.8h73c6.2,0,13.9-4.4,17-9.8l36.5-63.2
		C-130.5-2038-130.5-2046.9-133.6-2052.3z M-200.2-2095.8c9.9,0,19.9,0,29.8,0c0,9.9,0,19.8,0,29.7c-10,0-19.9,0-29.8,0
		C-200.2-2076-200.2-2085.9-200.2-2095.8z M-174.6-2061.7c0,1.4,0,2.7,0,4.1c-1.4,0-2.7,0-4.1,0c0-1.4,0-2.7,0-4.1
		C-177.4-2061.7-176-2061.7-174.6-2061.7z M-178.9-2053.1c0,1.4,0,2.7,0,4.1c-1.4,0-2.7,0-4.1,0c0-1.3,0-2.7,0-4.1
		C-181.6-2053.1-180.3-2053.1-178.9-2053.1z M-183.2-2061.7c0,1.4,0,2.7,0,4.1c-1.4,0-2.7,0-4.1,0c0-1.4,0-2.7,0-4.1
		C-185.9-2061.7-184.6-2061.7-183.2-2061.7z M-217.4-2083.2c0-1.4,0-2.8,0-4.2c1.5,0,2.8,0,4.3,0c0-1.5,0-2.8,0-4.3
		c1.5,0,2.8,0,4.2,0c0,0,0,0,0,0l0,0c0,0,0,0,0,0c0,0,0,0,0,0c0-1.3,0-2.6,0-4c1.5,0,2.8,0,4.3,0c0,1.3,0,2.6,0,4
		c-1.4,0-2.8,0-4.3,0c0,0,0,0,0,0c0,0,0,0,0,0c0,2.4,0,4.8,0.1,7.3c0,1.8,0,3.6,0,5.5c-1.4,0-2.8,0-4.3,0c0,1.5,0,2.9,0,4.3
		c0,0,0,0,0,0c0,0,0,0,0,0c1.4,0,2.8,0,4.2,0c0,1.5,0,2.9,0,4.3c0,0,0,0,0,0h0l0,0c0,0,0,0,0,0c1.4,0,2.8,0,4.3,0c0,1.4,0,2.8,0,4.2
		c-1.4,0-2.7,0-4.3,0c0-1.4,0-2.8,0-4.2c0,0,0,0,0,0c0,0,0,0,0,0c-1.4,0-2.8,0-4.2,0c0,0,0,0,0,0l0,0c0,0,0,0,0,0c0,0,0,0,0,0
		c0,1.4,0,2.8,0,4.2c-1.4,0-2.7,0-4.1,0c0-1.3,0-2.7,0-4.2c1.4,0,2.8,0,4.1,0c0,0,0,0,0,0c0,0,0,0,0,0c0-1.4,0-2.8,0-4.2
		c0,0,0,0,0,0c0,0,0,0,0,0c-1.4,0-2.7,0-4.2,0c0-1.4,0-2.8,0-4.3c-2.9,0-5.6,0-8.4,0c0-2.9,0-5.7,0-8.5c1.3,0,2.6,0,4,0
		c0,1.4,0,2.8,0,4.2C-220.2-2083.2-218.8-2083.2-217.4-2083.2z M-225.7-2095.8c1.3,0,2.7,0,4,0c0,1.3,0,2.6,0,4c-1.3,0-2.6,0-4,0
		C-225.7-2093.2-225.7-2094.5-225.7-2095.8z M-234.3-2095.8c1.4,0,2.7,0,4.1,0c0,2.8,0,5.5,0,8.3c-1.3,0-2.7,0-4.1,0
		C-234.3-2090.3-234.3-2093-234.3-2095.8z M-242.9-2091.7c1.4,0,2.7,0,4.1,0c0,1.4,0,2.8,0,4.1c-1.4,0-2.7,0-4.1,0
		C-242.9-2088.9-242.9-2090.3-242.9-2091.7z M-277-2095.8c9.9,0,19.8,0,29.7,0c0,9.9,0,19.8,0,29.7c-9.9,0-19.8,0-29.7,0
		C-277-2076-277-2085.9-277-2095.8z M-277-2040.4c1.4,0,2.7,0,4,0c0,5.7,0,11.3,0,17c-1.3,0-2.6,0-4,0
		C-277-2029.1-277-2034.7-277-2040.4z M-247.3-1989.1c-9.9,0-19.8,0-29.7,0c0-9.9,0-19.8,0-29.8c9.9,0,19.8,0,29.7,0
		C-247.3-2009-247.3-1999.1-247.3-1989.1z M-170.3-2040.5c-1.4,0-2.7,0-4.2,0c0,1.4,0,2.8,0,4.3c1.3,0,2.7,0,4.2,0
		c0,2.9,0,5.7,0,8.5c-2.8,0-5.7,0-8.5,0c0,0,0,0,0,0c0,0,0,0,0,0c0,1.4,0,2.8,0,4.3c-1.4,0-2.8,0-4.2,0c0,2.9,0,5.7,0,8.6
		c-1.5,0-2.8,0-4.2,0c0,1.4,0,2.8,0,4.3c2.8,0,5.6,0,8.4,0c0,0,0,0,0,0c0,0,0,0,0,0c0-2.2,0.1-4.3,0.1-6.5c0-0.6,0-1.2,0-2
		c1.4,0,2.8,0,4.3,0c0-1.5,0-2.8,0-4.2c1.4,0,2.8,0,4.2,0c0,2.8,0,5.5,0,8.4c-1.3,0-2.7,0-4.2,0c0,1.5,0,2.8,0,4.3
		c-1.5,0-2.9,0-4.4,0c0,0,0,0,0,0c0,0,0,0,0,0c0,1.4,0,2.8,0,4.3c0,0,0,0,0,0c0,0,0,0,0,0c2.8,0,5.6,0,8.5,0c0,5.7,0,11.4,0,17.1
		c-4.2,0-8.4,0-12.7,0c0-1.3,0-2.7,0-4.1c2.8,0,5.6,0,8.4,0c0-2.9,0-5.7,0-8.7c-1.4,0-2.8,0-4.3,0c0,0,0,0,0,0l0,0h0c0,0,0,0,0,0
		c0,1.4,0,2.8,0,4.3c-1.4,0-2.7,0-4.1,0c0-1.4,0-2.7,0-4.3c1.4,0,2.8,0,4.1,0c0,0,0,0,0,0c0,0,0,0,0,0c0-1.4,0-2.8,0-4.2
		c0,0,0,0,0,0c0,0,0,0,0,0c-2.8,0-5.6,0-8.5,0c0,1.5,0,2.8,0,4.3c-1.5,0-2.9,0-4.3,0c0,0,0,0,0,0c0,0,0,0,0,0c0,1.4,0,2.9,0,4.3
		c0,0,0,0,0,0c0,0,0,0,0,0c1.4,0,2.8,0,4.3,0c0,1.5,0,2.8,0,4.2c-1.4,0-2.7,0-4.3,0c0-1.4,0-2.8,0-4.2c0,0,0,0,0,0h0l0,0
		c0,0,0,0,0,0c-1.4,0-2.9,0-4.3-0.1c0,0,0,0,0,0c0,0,0,0,0,0c0,2.8,0,5.7,0,8.5c-1.3,0-2.7,0-4.1,0c0-2.8,0-5.6,0-8.6
		c1.4,0,2.7,0,4.1,0c0,0,0,0,0,0l0,0c0,0,0,0,0,0c0-1.4,0-2.8,0-4.2c0,0,0,0,0,0c0,0,0,0,0,0c-1.4,0-2.7,0-4.2,0c0-1.4,0-2.8,0-4.2
		c-5.8,0-11.4,0-17.2,0c0,1.4,0,2.8,0,4.2c4.2,0,8.4,0,12.7,0c0,1.4,0,2.8,0,4.2c-2.8,0-5.6,0-8.5,0c0,2.9,0,5.7,0,8.6
		c-2.9,0-5.7,0-8.5,0c-0.1-1.5-0.1-2.9-0.2-4.3c-1.5,0-3,0.1-4.5,0.1c-1.3,0-2.5,0-3.8,0c0,0,0,0,0,0c0,0,0,0,0,0c0,1.4,0,2.8,0,4.2
		c-1.4,0-2.8,0-4.3,0c0-1.4,0-2.8,0-4.2c0,0,0,0,0,0c0,0,0,0,0,0c-1.4,0-2.8,0-4.3,0c0,1.5,0,2.8,0,4.3c-1.5,0-2.8,0-4.2,0
		c0-7.1,0-14.2,0-21.3c1.4,0,2.7,0,4.2,0c0-1.5,0-2.8,0-4.3c-1.3,0-2.7,0-4.2,0c0-2.9,0-5.7,0-8.6c-4.3,0-8.5,0-12.9,0
		c0-1.5,0-2.9,0-4.3c0,0,0,0,0,0c0,0,0,0,0,0c-2.8,0-5.6,0-8.5,0c0,1.4,0,2.8,0,4.3c-1.5,0-2.8,0-4.2,0c0-4.2,0-8.4,0-12.7
		c2.8,0,5.6,0,8.5,0c0-2.9,0-5.7,0-8.4c0,0,0,0,0,0c0,0,0,0,0,0c-1.4,0-2.8,0-4.2,0c0,0,0,0,0,0c0,0,0,0,0,0c0,1.3,0,2.6,0,4
		c-1.4,0-2.8,0-4.2,0c0-1.3,0-2.6,0-4c1.4,0,2.8,0,4.2,0c0,0,0,0,0,0c0,0,0,0,0,0c0-4.2,0-8.5,0-12.8c-2.9,0-5.7,0-8.6,0
		c0,1.4,0,2.8,0,4.2c1.4,0,2.7,0,4.1,0c0,1.4,0,2.8,0,4.2c-1.3,0-2.7,0-4.2,0c0,1.5,0,2.8,0,4.3c-1.4,0-2.7,0-4.1,0
		c0-5.6,0-11.3,0-17c7,0,14,0,21.2,0c0,4.3,0,8.5,0,12.8c0,0,0,0,0,0c0,0,0,0,0,0c1.4,0,2.8,0,4.3,0c0-1.4,0-2.8,0-4.2
		c4.3,0,8.5,0,12.8,0c0,2.8,0,5.6,0,8.5c2.9,0,5.7,0,8.6,0c0,1.4,0,2.8,0,4.1c0,0,0,0,0,0c0,0,0,0,0,0c1.4,0,2.8,0,4.3,0
		c0-2.8,0-5.5,0-8.3c1.4,0,2.7,0,4.1,0c0,1.3,0,2.7,0,4.2c1.5,0,2.8,0,4.2,0c0,1.4,0,2.7,0,4.1c-1.4,0-2.7,0-4.2,0
		c0,1.4,0,2.8,0,4.3c-2.9,0-5.7,0-8.4,0c0,0,0,0,0,0c0,0,0,0,0,0c0,1.4,0,2.8,0,4.3c0,0,0,0,0,0c0,0,0,0,0,0c2.8,0,5.5,0,8.4,0
		c0,1.5,0,2.9,0,4.3c0,0,0,0,0,0c0,0,0,0,0,0c2.8,0,5.6,0,8.5,0c0,1.5,0,2.8,0,4.3c1.5,0,2.9,0,4.3,0c0-2.8,0-5.7,0-8.5
		c-1.4,0-2.8,0-4.2,0c0-1.4,0-2.8,0-4.2c1.4,0,2.7,0,4.1,0c0-1.5,0-2.8,0-4.3c-1.3,0-2.7,0-4.2,0c0-0.4,0-0.7,0-1.1
		c0-3.6,0-7.1,0-10.7c0-0.3,0-0.6-0.1-1c-1.4,0-2.7,0-4.2,0c0-1.4,0-2.8,0-4.3c-1.5,0-2.9,0-4.3,0c0,1.4,0,2.7,0,4.2
		c-1.4,0-2.7,0-4.1,0c0-1.3,0-2.7,0-4.2c-1.5,0-2.9,0-4.3,0c0,0,0,0,0,0c0,0,0,0,0,0c0,2.8,0,5.6,0,8.5c-1.4,0-2.8,0-4.3,0
		c0-2.8,0-5.6,0-8.5c0,0,0,0,0,0c0,0,0,0,0,0c-5.7,0-11.3,0-17,0c0-1.4,0-2.8,0-4.2c4.2,0,8.4,0,12.8,0c0-1.5,0-2.9,0-4.3
		c0,0,0,0,0,0c0,0,0,0,0,0c-1.4,0-2.8,0-4.2,0c0-2.9,0-5.6,0-8.5c1.4,0,2.7,0,4.1,0c0-1.5,0-2.8,0-4.3c-1.3,0-2.7,0-4.1,0
		c0-1.5,0-2.8,0-4.2c4.2,0,8.4,0,12.7,0c0,1.3,0,2.7,0,4.2c-1.4,0-2.7,0-4.2,0c0,2.9,0,5.8,0,8.6c0,0,0,0,0,0c0,0,0,0,0,0
		c1.4,0,2.8,0,4.3,0c0,0,0,0,0,0c0,0,0,0,0,0c0-1.4,0-2.8,0-4.2c2.8,0,5.6,0,8.3,0c0,2.8,0,5.6,0,8.5c-1.4,0-2.7,0-4.1,0
		c0,0,0,0,0,0c0,0,0,0,0,0c0,1.4,0,2.8,0,4.3c8.5,0,17,0,25.5,0c0,2.9,0,5.7,0,8.6c1.5,0,2.9,0,4.3,0c0-2.8,0-5.6,0-8.5
		c1.4,0,2.8,0,4.2,0c0,4.2,0,8.4,0,12.7c-1.4,0-2.7,0-4.2,0c0,1.6,0,3.2,0,4.7c0,1.2-0.1,2.4-0.1,3.6c1.5,0,2.9,0.1,4.4,0.1
		c0,0,0,0,0,0c0,0,0,0,0,0c0-1.3,0-2.6,0-4c1.5,0,2.8,0,4.3,0c0,1.3,0,2.7,0,4c0,0,0,0,0,0c0,0,0,0,0,0c1.4,0,2.8,0,4.3,0
		c0,0,0,0,0,0c0,0,0,0,0,0c0-1.3,0-2.6,0-4.1c2.9,0,5.7,0,8.6,0c0-2.9,0-5.7,0-8.5c1.5,0,2.8,0,4.2,0
		C-170.3-2048.9-170.3-2044.8-170.3-2040.5z"/>
	<path class="st3" d="M-234.4-2027.7c-1.5,0-2.9,0-4.2,0c0,0,0,0,0,0c0,0,0,0,0,0c0,2.9,0,5.7,0,8.6c1.5,0,2.9,0,4.3,0c0,0,0,0,0,0
		c0,0,0,0,0,0c0-1.4,0-2.7,0-4.1c2.9,0,5.7,0,8.5,0c0,1.4,0,2.7,0,4.1c-2.9,0-5.7,0-8.5,0c0,0,0,0,0,0c0,0,0,0,0,0
		c0,2.9,0,5.7,0,8.5c1.5,0,2.9,0,4.4,0c0-1.4,0-2.8,0-4.2c0.5,0,0.9,0,1.3,0c2.3,0,4.7,0,7-0.1c0-1.4,0-2.8,0-4.3c1.6,0,2.9,0,4.3,0
		c0-1.5,0-2.8,0-4.3c-1.4,0-2.8,0-4.3,0c0-1.5,0-2.9,0-4.3c0,0,0,0,0,0c0,0,0,0,0,0c-2.8,0-5.5,0-8.4,0c0-1.5,0-2.9,0-4.3
		c0,0,0,0,0,0c0,0,0,0,0,0c-1.4,0-2.8,0-4.3,0C-234.4-2030.4-234.4-2029.1-234.4-2027.7z"/>
	<path class="st3" d="M-183.1-2031.9C-183.1-2031.9-183.1-2031.9-183.1-2031.9C-183.1-2031.9-183.1-2031.9-183.1-2031.9
		c0,1.5,0,2.9,0,4.3c1.5,0,2.9,0,4.3,0c0,0,0,0,0,0c0,0,0,0,0,0c0-1.4,0-2.8,0-4.3C-180.3-2031.9-181.7-2031.9-183.1-2031.9z"/>
	<path class="st3" d="M-195.9-2070.4c7.2,0,14.3,0,21.4,0c0-7.1,0-14.2,0-21.3c-7.2,0-14.3,0-21.4,0
		C-195.9-2084.5-195.9-2077.4-195.9-2070.4z M-191.6-2087.4c4.2,0,8.4,0,12.7,0c0,4.2,0,8.4,0,12.7c-4.3,0-8.5,0-12.7,0
		C-191.6-2078.9-191.6-2083.1-191.6-2087.4z"/>
	<path class="st3" d="M-213-2010.5c1.4,0,2.8,0,4.2,0c0-2.9,0-5.7,0-8.5c-1.5,0-2.8,0-4.2,0C-213-2016.1-213-2013.3-213-2010.5z"/>
	<path class="st3" d="M-200.2-2048.9c-1.5,0-2.9,0-4.3,0c0,5.7,0,11.3,0,16.9c1.4,0,2.8,0,4.3,0c0-1.4,0-2.8,0-4.2
		c1.4,0,2.8,0,4.3,0c-0.1-1.5-0.1-3-0.2-4.4c-1.3,0-2.7,0-4.1,0C-200.2-2043.3-200.2-2046.1-200.2-2048.9z"/>
	<path class="st3" d="M-187.3-2027.6c0-1.4,0-2.8,0-4.3c1.5,0,2.8,0,4.2,0c0,0,0,0,0,0c0,0,0,0,0,0c0-1.4,0-2.8,0-4.3c0,0,0,0,0,0
		c0,0,0,0,0,0c-1.4,0-2.7,0-4.3,0c0-1.5,0-2.9,0-4.3c0,0,0,0,0,0c0,0,0,0,0,0c-1.4,0-2.8,0-4.3,0c0,0,0,0,0,0c0,0,0,0,0,0
		c0,4.3,0,8.5,0,12.8C-190.2-2027.6-188.8-2027.6-187.3-2027.6z"/>
	<path class="st3" d="M-196-2006.1c0,1.4,0,2.8,0,4.2c0,0,0,0,0,0c0,0,0,0,0,0c1.4,0,2.8,0,4.3,0c0,0,0,0,0,0c0,0,0,0,0,0
		c0-1.4,0-2.8,0-4.2C-193.1-2006.1-194.5-2006.1-196-2006.1z"/>
	<path class="st3" d="M-251.5-2014.7c-7.2,0-14.2,0-21.4,0c0,7.1,0,14.2,0,21.3c7.2,0,14.3,0,21.4,0
		C-251.5-2000.5-251.5-2007.6-251.5-2014.7z M-255.9-1997.7c-4.2,0-8.4,0-12.7,0c0-4.2,0-8.4,0-12.7c4.2,0,8.4,0,12.7,0
		C-255.9-2006.2-255.9-2002-255.9-1997.7z"/>
	<path d="M-242.9-2031.9C-242.9-2031.9-242.9-2031.9-242.9-2031.9C-242.9-2031.9-242.9-2031.9-242.9-2031.9L-242.9-2031.9z"/>
	<path d="M-178.9-2010.5C-178.9-2010.5-178.9-2010.5-178.9-2010.5C-178.9-2010.5-178.9-2010.5-178.9-2010.5L-178.9-2010.5z"/>
	<path d="M-221.7-2027.6C-221.7-2027.6-221.7-2027.6-221.7-2027.6L-221.7-2027.6C-221.7-2027.6-221.7-2027.6-221.7-2027.6z"/>
	<path d="M-234.4-2019.1C-234.4-2019.1-234.4-2019.1-234.4-2019.1C-234.4-2019.1-234.4-2019.1-234.4-2019.1L-234.4-2019.1z"/>
	<path d="M-238.7-2027.7C-238.7-2027.6-238.7-2027.6-238.7-2027.7C-238.6-2027.6-238.6-2027.6-238.7-2027.7L-238.7-2027.7z"/>
	<path d="M-225.8-2066C-225.8-2066-225.8-2066-225.8-2066L-225.8-2066C-225.8-2066-225.8-2066-225.8-2066z"/>
	<ellipse transform="matrix(0.8303 -0.5573 0.5573 0.8303 1103.964 -455.5123)" cx="-196" cy="-2040.6" rx="0" ry="0"/>
	<path d="M-191.7-2040.5C-191.7-2040.5-191.7-2040.5-191.7-2040.5C-191.7-2040.5-191.7-2040.5-191.7-2040.5L-191.7-2040.5z"/>
	<path d="M-183.1-2031.9C-183.1-2031.9-183.1-2031.9-183.1-2031.9L-183.1-2031.9C-183.1-2031.9-183.1-2031.9-183.1-2031.9z"/>
	<path d="M-178.8-2006.2C-178.8-2006.2-178.9-2006.2-178.8-2006.2C-178.9-2006.2-178.9-2006.2-178.8-2006.2L-178.8-2006.2z"/>
	<path d="M-230.1-2057.4C-230.1-2057.5-230.1-2057.5-230.1-2057.4C-230.1-2057.5-230.1-2057.5-230.1-2057.4L-230.1-2057.4z"/>
	<ellipse transform="matrix(0.7423 -0.67 0.67 0.7423 1292.7955 -667.6264)" cx="-221.6" cy="-2014.7" rx="0" ry="0"/>
	<path d="M-230.1-2070.3C-230.1-2070.3-230.1-2070.3-230.1-2070.3C-230.1-2070.3-230.1-2070.3-230.1-2070.3L-230.1-2070.3z"/>
	<path d="M-234.4-2057.5C-234.4-2057.5-234.4-2057.5-234.4-2057.5L-234.4-2057.5C-234.4-2057.5-234.4-2057.5-234.4-2057.5z"/>
	<path d="M-238.7-2066C-238.6-2066-238.6-2066-238.7-2066C-238.6-2066-238.6-2066-238.7-2066L-238.7-2066z"/>
	<path d="M-234.3-2070.3C-234.3-2070.3-234.3-2070.3-234.3-2070.3L-234.3-2070.3C-234.4-2070.3-234.4-2070.3-234.3-2070.3z"/>
	<ellipse transform="matrix(0.6657 -0.7462 0.7462 0.6657 1460.9203 -845.3464)" cx="-213" cy="-2053.2" rx="0" ry="0"/>
	<ellipse transform="matrix(0.6679 -0.7442 0.7442 0.6679 1414.9342 -832.7625)" cx="-225.7" cy="-2001.9" rx="0" ry="0"/>
	<ellipse transform="matrix(0.4995 -0.8663 0.8663 0.4995 1615.8815 -1189.7916)" cx="-221.8" cy="-1993.4" rx="0" ry="0"/>
	<path d="M-234.4-1993.4C-234.4-1993.4-234.4-1993.4-234.4-1993.4L-234.4-1993.4C-234.4-1993.4-234.4-1993.4-234.4-1993.4z"/>
	<ellipse transform="matrix(0.7615 -0.6482 0.6482 0.7615 1241.7834 -629.4108)" cx="-234.3" cy="-2002" rx="0" ry="0"/>
	<path d="M-255.8-2027.6C-255.8-2027.6-255.8-2027.6-255.8-2027.6C-255.8-2027.6-255.8-2027.6-255.8-2027.6L-255.8-2027.6z"/>
	<path d="M-178.9-2027.6C-178.8-2027.6-178.8-2027.6-178.9-2027.6L-178.9-2027.6C-178.9-2027.6-178.9-2027.6-178.9-2027.6z"/>
	<path d="M-196-2001.9C-196-2001.9-196-2001.9-196-2001.9L-196-2001.9C-196-2001.9-196-2001.9-196-2001.9z"/>
	<path d="M-191.7-2001.9C-191.7-2001.9-191.7-2001.9-191.7-2001.9C-191.7-2001.9-191.7-2001.9-191.7-2001.9L-191.7-2001.9z"/>
	<path d="M-230.1-1993.3C-230.1-1993.4-230.1-1993.4-230.1-1993.3C-230.1-1993.4-230.1-1993.4-230.1-1993.3L-230.1-1993.3z"/>
	<path d="M-242.9-2036.2C-242.9-2036.2-242.9-2036.2-242.9-2036.2C-242.9-2036.2-242.9-2036.2-242.9-2036.2L-242.9-2036.2z"/>
	<path d="M-255.8-2027.7C-255.8-2027.6-255.8-2027.6-255.8-2027.7L-255.8-2027.7C-255.8-2027.7-255.8-2027.7-255.8-2027.7z"/>
	<path d="M-255.8-2048.9C-255.8-2048.9-255.8-2048.9-255.8-2048.9L-255.8-2048.9C-255.8-2048.9-255.8-2048.9-255.8-2048.9z"/>
	<ellipse transform="matrix(0.7167 -0.6974 0.6974 0.7167 1357.6622 -755.8685)" cx="-251.5" cy="-2048.9" rx="0" ry="0"/>
	<path d="M-260.1-2044.6C-260.1-2044.6-260.1-2044.6-260.1-2044.6C-260-2044.6-260-2044.6-260.1-2044.6L-260.1-2044.6z"/>
	<path d="M-230.1-2040.5C-230.1-2040.5-230.1-2040.5-230.1-2040.5C-230.1-2040.5-230.1-2040.5-230.1-2040.5L-230.1-2040.5z"/>
	<path d="M-264.3-2044.6C-264.3-2044.6-264.3-2044.6-264.3-2044.6C-264.3-2044.6-264.4-2044.6-264.3-2044.6L-264.3-2044.6z"/>
	<path d="M-255.8-2048.9C-255.8-2048.9-255.8-2048.9-255.8-2048.9C-255.8-2048.9-255.8-2048.9-255.8-2048.9L-255.8-2048.9z"/>
	<path d="M-260.1-2044.6C-260.1-2044.6-260.1-2044.6-260.1-2044.6L-260.1-2044.6C-260.1-2044.6-260.1-2044.6-260.1-2044.6z"/>
	<path d="M-183.1-2040.5C-183.1-2040.5-183.1-2040.5-183.1-2040.5L-183.1-2040.5C-183.1-2040.5-183.1-2040.5-183.1-2040.5z"/>
	<path d="M-183.1-2036.2C-183.1-2036.2-183.1-2036.2-183.1-2036.2C-183.1-2036.2-183.1-2036.2-183.1-2036.2L-183.1-2036.2z"/>
	<path d="M-178.8-2027.6C-178.8-2027.6-178.8-2027.6-178.8-2027.6C-178.8-2027.7-178.8-2027.7-178.8-2027.6L-178.8-2027.6z"/>
	<path d="M-183.1-2031.9C-183.1-2031.9-183.1-2031.9-183.1-2031.9C-183.1-2031.9-183.1-2031.9-183.1-2031.9L-183.1-2031.9z"/>
	<path d="M-208.9-2091.8C-208.9-2091.8-208.9-2091.7-208.9-2091.8C-208.9-2091.7-208.9-2091.7-208.9-2091.8L-208.9-2091.8z"/>
	<path d="M-213.1-2074.6C-213.1-2074.6-213.1-2074.6-213.1-2074.6C-213.1-2074.6-213.1-2074.6-213.1-2074.6
		C-213.1-2074.6-213.1-2074.6-213.1-2074.6z"/>
	<path d="M-238.7-2066C-238.7-2066-238.7-2066-238.7-2066L-238.7-2066C-238.6-2066-238.6-2066-238.7-2066z"/>
	<path d="M-234.3-2070.3C-234.4-2070.3-234.4-2070.3-234.3-2070.3C-234.4-2070.3-234.4-2070.3-234.3-2070.3L-234.3-2070.3z"/>
	<path d="M-178.8-2002C-178.8-2002-178.8-2002-178.8-2002C-178.8-2002-178.9-2002-178.8-2002C-178.9-2002-178.8-2002-178.8-2002z"/>
	<path d="M-178.8-2006.2C-178.8-2006.2-178.8-2006.2-178.8-2006.2L-178.8-2006.2C-178.9-2006.2-178.8-2006.2-178.8-2006.2z"/>
	<path d="M-230.1-2040.5C-230.1-2040.5-230.1-2040.5-230.1-2040.5L-230.1-2040.5C-230.1-2040.5-230.1-2040.5-230.1-2040.5z"/>
	<path d="M-230.1-2036.2C-230.1-2036.2-230.1-2036.2-230.1-2036.2C-230.1-2036.2-230.1-2036.2-230.1-2036.2L-230.1-2036.2z"/>
	<path d="M-230.1-2031.9C-230.1-2031.9-230.1-2031.9-230.1-2031.9C-230.1-2031.9-230.1-2031.9-230.1-2031.9L-230.1-2031.9z"/>
	<path d="M-242.9-2036.2C-242.9-2036.2-242.9-2036.2-242.9-2036.2L-242.9-2036.2C-242.9-2036.2-242.9-2036.2-242.9-2036.2z"/>
	<path d="M-238.6-2027.6C-238.6-2027.6-238.6-2027.6-238.6-2027.6C-238.6-2027.7-238.6-2027.7-238.6-2027.6L-238.6-2027.6z"/>
	<path d="M-230.1-2036.2C-230.1-2036.2-230.1-2036.2-230.1-2036.2L-230.1-2036.2C-230.1-2036.2-230.1-2036.2-230.1-2036.2z"/>
	<path d="M-242.9-2031.9C-242.9-2031.9-242.9-2031.9-242.9-2031.9C-242.9-2031.9-242.9-2031.9-242.9-2031.9L-242.9-2031.9z"/>
	<path d="M-178.9-2010.5C-178.9-2010.5-178.9-2010.5-178.9-2010.5L-178.9-2010.5C-178.9-2010.5-178.9-2010.5-178.9-2010.5z"/>
	<path d="M-225.8-2066C-225.8-2066-225.8-2066-225.8-2066C-225.8-2066-225.8-2066-225.8-2066L-225.8-2066z"/>
	<path d="M-230.1-2070.3C-230.1-2070.3-230.1-2070.3-230.1-2070.3L-230.1-2070.3C-230.1-2070.3-230.1-2070.3-230.1-2070.3z"/>
	<path d="M-234.4-2057.4C-234.4-2057.4-234.4-2057.4-234.4-2057.4C-234.3-2057.5-234.3-2057.5-234.4-2057.4L-234.4-2057.4z"/>
	<path d="M-230.1-2057.4C-230.1-2057.4-230.1-2057.4-230.1-2057.4L-230.1-2057.4C-230.1-2057.5-230.1-2057.5-230.1-2057.4z"/>
	<path d="M-196-1997.7L-196-1997.7C-196-1997.7-196-1997.7-196-1997.7C-196-1997.7-196-1997.7-196-1997.7
		C-196-1997.7-196-1997.7-196-1997.7L-196-1997.7z"/>
	<path d="M-221.7-2027.7C-221.7-2027.7-221.7-2027.7-221.7-2027.7C-221.7-2027.6-221.7-2027.6-221.7-2027.7L-221.7-2027.7z"/>
	<path d="M-230.1-2031.9C-230.1-2031.9-230.1-2031.9-230.1-2031.9L-230.1-2031.9C-230.1-2031.9-230.1-2031.9-230.1-2031.9z"/>
	<path d="M-234.4-1993.3C-234.4-1993.3-234.4-1993.3-234.4-1993.3C-234.3-1993.4-234.3-1993.4-234.4-1993.3L-234.4-1993.3z"/>
	<path d="M-230.1-1993.3C-230.1-1993.3-230.1-1993.3-230.1-1993.3L-230.1-1993.3C-230.1-1993.4-230.1-1993.4-230.1-1993.3z"/>
	<polygon points="-191.7,-1997.6 -191.7,-1997.6 -191.7,-1997.6 	"/>
	<path d="M-191.7-1997.6C-191.7-1997.6-191.7-1997.6-191.7-1997.6C-191.7-1997.6-191.7-1997.6-191.7-1997.6
		C-191.7-1997.6-191.7-1997.6-191.7-1997.6z"/>
	<path d="M-196-2001.9C-196-2001.9-196-2001.9-196-2001.9C-196-2001.9-196-2001.9-196-2001.9L-196-2001.9z"/>
	<path d="M-191.7-2001.9C-191.7-2001.9-191.7-2001.9-191.7-2001.9L-191.7-2001.9C-191.7-2001.9-191.7-2001.9-191.7-2001.9z"/>
	<path d="M-196-1997.7C-196-1997.7-196-1997.7-196-1997.7C-196-1997.7-196-1997.7-196-1997.7C-196-1997.7-196-1997.7-196-1997.7z"/>
	<path d="M-191.7-1997.6C-191.7-1997.6-191.7-1997.6-191.7-1997.6C-191.7-1997.6-191.7-1997.6-191.7-1997.6
		C-191.7-1997.6-191.7-1997.6-191.7-1997.6z"/>
	<path d="M-196-1997.7L-196-1997.7L-196-1997.7z"/>
	<polygon points="-191.7,-1997.6 -191.7,-1997.6 -191.7,-1997.6 	"/>
	<path d="M-213.1-2070.3C-213.1-2070.3-213.1-2070.3-213.1-2070.3C-213.1-2070.4-213.1-2070.4-213.1-2070.3L-213.1-2070.3z"/>
	<path d="M-208.9-2070.3C-208.9-2070.3-208.9-2070.3-208.9-2070.3C-208.9-2070.3-208.9-2070.3-208.9-2070.3
		C-208.9-2070.3-208.9-2070.3-208.9-2070.3z"/>
	<path d="M-213.1-2074.6C-213.1-2074.6-213.1-2074.6-213.1-2074.6C-213.1-2074.6-213.1-2074.6-213.1-2074.6
		C-213.1-2074.6-213.1-2074.6-213.1-2074.6z"/>
	<path d="M-213.1-2070.3C-213.1-2070.3-213.1-2070.4-213.1-2070.3C-213.1-2070.3-213.1-2070.3-213.1-2070.3
		C-213.1-2070.3-213.1-2070.3-213.1-2070.3z"/>
	<path d="M-208.9-2070.3L-208.9-2070.3L-208.9-2070.3z"/>
	<path d="M-208.9-2070.3C-208.9-2070.3-208.9-2070.3-208.9-2070.3L-208.9-2070.3C-208.9-2070.3-208.9-2070.3-208.9-2070.3z"/>
	<polygon points="-208.9,-2070.3 -208.9,-2070.3 -208.9,-2070.3 	"/>
	<path d="M-183.1-2040.5C-183.1-2040.5-183.1-2040.5-183.1-2040.5C-183.1-2040.5-183.1-2040.5-183.1-2040.5L-183.1-2040.5z"/>
	<path d="M-183.1-2036.2C-183.1-2036.2-183.1-2036.2-183.1-2036.2L-183.1-2036.2C-183.1-2036.2-183.1-2036.2-183.1-2036.2z"/>
	<path d="M-187.4-2040.5C-187.4-2040.5-187.4-2040.5-187.4-2040.5L-187.4-2040.5C-187.4-2040.5-187.4-2040.5-187.4-2040.5z"/>
	<polygon points="-178.8,-2002 -178.8,-2002 -178.8,-2002 	"/>
	<path d="M-178.9-2002C-178.9-2002-178.8-2002-178.9-2002L-178.9-2002C-178.9-2002-178.9-2002-178.9-2002z"/>
	<polygon points="-178.8,-2002 -178.8,-2002 -178.9,-2002 	"/>
	<path d="M-264.4-2044.6C-264.4-2044.6-264.3-2044.6-264.4-2044.6L-264.4-2044.6C-264.4-2044.6-264.4-2044.6-264.4-2044.6z"/>
	<path d="M-187.4-2040.5C-187.4-2040.5-187.4-2040.5-187.4-2040.5C-187.4-2040.5-187.4-2040.5-187.4-2040.5L-187.4-2040.5z"/>
	<path d="M-191.7-2040.5C-191.7-2040.5-191.7-2040.5-191.7-2040.5L-191.7-2040.5C-191.7-2040.5-191.7-2040.5-191.7-2040.5z"/>
	<path d="M-208.9-2091.8C-208.9-2091.8-208.8-2091.7-208.9-2091.8C-208.8-2091.7-208.8-2091.8-208.9-2091.8
		C-208.9-2091.8-208.9-2091.8-208.9-2091.8z"/>
	<path d="M-234.4-2019.1C-234.4-2019.1-234.4-2019.1-234.4-2019.1L-234.4-2019.1C-234.4-2019.1-234.4-2019.1-234.4-2019.1z"/>
	<ellipse transform="matrix(0.6482 -0.7615 0.7615 0.6482 1460.245 -903.1583)" cx="-247.3" cy="-2031.9" rx="0" ry="0"/>
	<ellipse transform="matrix(0.6873 -0.7264 0.7264 0.6873 1401.723 -816.3654)" cx="-247.3" cy="-2036.2" rx="0" ry="0"/>
	<ellipse transform="matrix(0.7264 -0.6873 0.6873 0.7264 1330.702 -729.9979)" cx="-251.5" cy="-2036.3" rx="0" ry="0"/>
</g>
<g>
	<path class="st0" d="M-577-1446.6h-19.7c-3,0-5.8,1.6-7.4,4.2l-9.9,17.1c-1.5,2.6-1.5,5.9,0,8.5l9.9,17.1c1.5,2.6,4.3,4.2,7.4,4.2
		h19.7c3,0,5.8-1.6,7.4-4.2l9.9-17.1c1.5-2.6,1.5-5.9,0-8.5l-3.1-5.4l-11.7,20.3c-4.4,7.5-12.7,7.8-20.3,3.4
		c-7.6-4.4-11.6-11.8-7.2-19.3l4.6-7.9c0,0,2-3.4,5-1.7c3.2,1.9,1.2,5.4,1.2,5.4l-5.3,9.3v0c-0.2,0.3-1.2,2.4,0.9,3.6
		c2,1.1,3.3-0.8,3.5-1.1l5.4-9.3c0,0,2-3.5,5-1.7c3.2,1.8,1.2,5.3,1.2,5.3l-5.4,9.3v0c0,0-1.3,2.3,0.9,3.6c1.9,1.1,3.2-0.7,3.5-1.1
		l14.6-25.3l-2.6-4.5C-571.2-1445-574-1446.6-577-1446.6"/>
</g>
<g>
	<g>
		<path class="st3" d="M128.8-1352.7c2.5,0,5.2-0.7,7.8-1.9v-121.8h-90v121.1c3,1.6,6.3,2.6,9.2,2.6L128.8-1352.7L128.8-1352.7z"/>
		<circle class="st3" cx="78.4" cy="-1484.2" r="2"/>
		<path class="st3" d="M98.9-1485.6H86.2c-1,0-1.8,0.6-1.8,1.4s0.8,1.4,1.8,1.4H99c1,0,1.8-0.6,1.8-1.4S99.9-1485.6,98.9-1485.6z"/>
		<path class="st3" d="M182.4-1445.4l-36.5-63.2c-3.1-5.4-10.8-9.8-17-9.8h-73c-6.2,0-13.9,4.4-17,9.8l-36.5,63.2
			c-3.1,5.4-3.1,14.2,0,19.6l36.5,63.2c0.2,0.4,0.5,0.8,0.8,1.2v-122.8c0-8.2,6.7-14.8,14.8-14.8h74.3c8.2,0,14.8,6.7,14.8,14.8
			v124.5c0.9-0.9,1.6-1.9,2.2-3l36.5-63.2C185.5-1431.1,185.5-1440,182.4-1445.4z"/>
	</g>
</g>
<g>
	<path class="st3" d="M182.4-1141.9l-36.5-63.2c-3.1-5.4-10.8-9.8-17-9.8h-73c-6.2,0-13.9,4.4-17,9.8l-36.5,63.2
		c-3.1,5.4-3.1,14.2,0,19.6l36.5,63.2c3.1,5.4,10.8,9.8,17,9.8h73c6.2,0,13.9-4.4,17-9.8l36.5-63.2
		C185.5-1127.7,185.5-1136.5,182.4-1141.9z M93.7-1080.6l-10.9,18.8c-0.9,1.6-3.2,2.9-5.1,2.9H56c-1.9,0-4.1-1.3-5.1-2.9L40-1080.6
		c-0.9-1.6-0.9-4.2,0-5.9l10.9-18.8c0.9-1.6,3.2-2.9,5.1-2.9h21.8c1.9,0,4.1,1.3,5.1,2.9l10.9,18.8
		C94.6-1084.9,94.6-1082.3,93.7-1080.6z M94-1118.8H56.8c-3.2,0-7.1-2.3-8.7-5l-18.6-32.3c-1.6-2.8-1.6-7.3,0-10l18.6-32.3
		c1.6-2.8,5.5-5,8.7-5H94c3.2,0,7.1,2.3,8.7,5l18.6,32.3c1.6,2.8,1.6,7.3,0,10l-18.6,32.3C101.1-1121.1,97.2-1118.8,94-1118.8z
		 M172.5-1129.3l-10.5,18.2c-0.9,1.6-3.1,2.8-4.9,2.8h-21c-1.8,0-4-1.3-4.9-2.8l-10.5-18.2c-0.9-1.6-0.9-4.1,0-5.6l10.5-18.2
		c0.9-1.6,3.1-2.8,4.9-2.8h21c1.8,0,4,1.3,4.9,2.8l10.5,18.2C173.4-1133.4,173.4-1130.8,172.5-1129.3z"/>
</g>
<path class="st3" d="M85.3-1142.5c-0.4-1.3-0.9-2.6-1.3-4c-0.5-1.4-0.9-2.7-1.4-4.1H68c-0.5,1.4-0.9,2.7-1.4,4.1
	c-0.5,1.4-0.9,2.7-1.3,4h-8.7c1.4-4,2.7-7.7,4-11.1s2.5-6.6,3.7-9.6c1.2-3,2.4-5.8,3.5-8.5c1.2-2.7,2.4-5.3,3.6-7.9h7.9
	c1.2,2.6,2.4,5.2,3.6,7.9c1.2,2.7,2.4,5.5,3.6,8.5c1.2,3,2.4,6.2,3.7,9.6s2.6,7.1,4,11.1L85.3-1142.5L85.3-1142.5z M75.2-1171.2
	c-0.2,0.5-0.5,1.3-0.8,2.2c-0.4,0.9-0.8,2-1.2,3.2c-0.5,1.2-1,2.6-1.5,4c-0.6,1.5-1.1,3-1.7,4.6h10.6c-0.6-1.6-1.1-3.1-1.6-4.6
	c-0.5-1.5-1-2.8-1.5-4c-0.5-1.2-0.9-2.3-1.3-3.2C75.8-1170,75.5-1170.7,75.2-1171.2z"/>
<path class="st3" d="M66.8-1097.3c4.3,0,7.7,0.8,10,2.3c2.3,1.5,3.5,4,3.5,7.5c0,3.5-1.2,6-3.5,7.6c-2.4,1.6-5.7,2.3-10.1,2.3h-2.1
	v9.7h-6.6v-28.7c1.4-0.3,2.9-0.5,4.5-0.6C64.2-1097.2,65.6-1097.3,66.8-1097.3z M67.2-1091.7c-0.5,0-0.9,0-1.4,0
	c-0.5,0-0.9,0.1-1.2,0.1v8.4h2.1c2.3,0,4-0.3,5.1-0.9c1.1-0.6,1.7-1.8,1.7-3.4c0-0.8-0.1-1.5-0.4-2c-0.3-0.5-0.7-1-1.3-1.3
	c-0.5-0.3-1.2-0.5-2-0.7C69.1-1091.6,68.2-1091.7,67.2-1091.7z"/>
<path class="st3" d="M143.4-1146.6h6.6v29.1h-6.6V-1146.6z"/>
<g>
	<path class="st3" d="M182.4-838.4l-36.5-63.2c-3.1-5.4-10.8-9.8-17-9.8h-73c-6.2,0-13.9,4.4-17,9.8L2.3-838.4
		c-3.1,5.4-3.1,14.2,0,19.6l36.5,63.2c0.5,0.9,1.2,1.8,2,2.7l0-21.5c-0.2-2.3,0.2-4.8,1.3-6.5l20.4-35.3c1.7-3,6-5.5,9.5-5.5h40.7
		c3.5,0,7.8,2.5,9.5,5.5l20.4,35.3c1,1.8,1.4,4.2,1.3,6.5l0,21.5c0.8-0.9,1.5-1.8,2-2.7l36.5-63.2
		C185.5-824.2,185.5-833,182.4-838.4z M120.4-851.4L109-831.7c-1,1.7-3.4,3.1-5.3,3.1H81c-1.9,0-4.3-1.4-5.3-3.1l-11.4-19.7
		c-1-1.7-1-4.4,0-6.1l11.4-19.7c1-1.7,3.4-3.1,5.3-3.1h22.7c1.9,0,4.3,1.4,5.3,3.1l11.4,19.7C121.3-855.8,121.3-853,120.4-851.4z"/>
	<path class="st0" d="M143.9-735.2l0-17.7c-3.7,4.1-9.9,7.1-15,7.1h-73c-5.2,0-11.3-3-15-7.1l0,17.7"/>
</g>
<path class="st0" d="M-33.1-1794.1"/>
<g>
	<g>
		<path class="st0" d="M229.6-1918.9c3.2,0,3.2-5,0-5S226.4-1918.9,229.6-1918.9L229.6-1918.9z"/>
	</g>
</g>
<g>
	<path class="st3" d="M37.3-1975.3l3.4,5.9c3.1,5.4,10.8,9.8,17,9.8h73c6.2,0,13.9-4.4,17-9.8l36.5-63.2c3.1-5.4,3.1-14.2,0-19.6
		l-13.6-23.6H37.3V-1975.3z M49-2065.1c19.3,0,38.6,0,58,0c0,19.3,0,38.6,0,58.1c-19.3,0-38.6,0-58,0C49-2026.4,49-2045.7,49-2065.1
		z"/>
	<path class="st3" d="M57-2015.4c14,0,27.9,0,41.8,0c0-14,0-27.8,0-41.7c-14,0-27.8,0-41.8,0C57-2043.2,57-2029.3,57-2015.4z
		 M65.5-2048.7c8.3,0,16.5,0,24.8,0c0,8.3,0,16.5,0,24.8c-8.2,0-16.5,0-24.8,0C65.5-2032.1,65.5-2040.3,65.5-2048.7z"/>
	<path class="st3" d="M166.5-2082.9l-18.8-32.6c-3.1-5.4-10.8-9.8-17-9.8h-73c-6.2,0-13.9,4.4-17,9.8l-36.5,63.2
		c-3.1,5.4-3.1,14.2,0,19.6l26.1,45.2v-95.5H166.5z"/>
</g>
<g>
	<path class="st3" d="M74.4-2043.1l2.5-0.4v3.3h3.9v2.1H77v4.5c0,0.9,0.1,1.5,0.4,1.9c0.3,0.4,0.8,0.6,1.4,0.6c0.5,0,0.9,0,1.2-0.1
		c0.4-0.1,0.6-0.2,0.9-0.3l0.4,2c-0.3,0.1-0.7,0.3-1.2,0.4s-1,0.2-1.7,0.2c-0.8,0-1.4-0.1-2-0.3c-0.5-0.2-0.9-0.5-1.2-0.9
		c-0.3-0.4-0.5-0.9-0.7-1.4c-0.1-0.6-0.2-1.2-0.2-1.9L74.4-2043.1L74.4-2043.1z"/>
</g>
<path class="st0" d="M72.6-176.8c-3.4,0-7.5-2.4-9.2-5.3l-19.8-34.3c-1.7-2.9-1.7-7.7,0-10.6l19.8-34.3c1.7-2.9,5.8-5.3,9.2-5.3
	h39.6c3.4,0,7.5,2.4,9.2,5.3l19.8,34.3c1.7,2.9,1.7,7.7,0,10.6l-19.8,34.3c-1.7,2.9-5.8,5.3-9.2,5.3L72.6-176.8L72.6-176.8z"/>
<path class="st0" d="M29.4-250.4c0.2-1.2,0.2-2.4,0.2-3.8c0-1.3-0.3-2.6-0.6-3.8l1.2-2.1l17.3,10l-1.7,3l-13.3-7.7
	c0.1,0.7,0.1,1.4,0,2.3c-0.1,0.9-0.2,1.7-0.3,2.5L29.4-250.4z"/>
<path class="st0" d="M154.5-250.3c-0.6,0.3-1.3,0.6-2,0.6c-0.7,0.1-1.5,0.1-2.2,0c-0.8-0.1-1.6-0.2-2.3-0.4
	c-0.8-0.2-1.6-0.4-2.4-0.6c-0.4-0.1-0.9-0.3-1.4-0.4s-1.1-0.2-1.6-0.3c-0.5-0.1-1-0.2-1.5-0.2c-0.4,0-0.8,0-1,0.1l4.4,7.7l-2.6,1.5
	l-6.4-11c0.1-0.1,0.3-0.2,0.5-0.3c0.2-0.1,0.3-0.2,0.4-0.3c0.8-0.5,1.6-0.8,2.4-0.9c0.8-0.1,1.6-0.2,2.5-0.1
	c0.8,0.1,1.6,0.2,2.5,0.4c0.8,0.2,1.6,0.4,2.4,0.7c0.6,0.2,1.2,0.3,1.8,0.5c0.6,0.2,1.1,0.3,1.6,0.3c0.5,0.1,1,0.1,1.5,0
	c0.5-0.1,0.9-0.2,1.3-0.4c0.9-0.5,1.3-1.1,1.4-1.8c0.1-0.7-0.1-1.4-0.5-2.1c-0.3-0.5-0.6-0.9-1-1.2s-0.7-0.6-1.1-0.8
	c-0.4-0.2-0.7-0.4-1-0.5c-0.3-0.1-0.6-0.2-0.8-0.3l1.3-2.7c1.1,0.3,2.1,0.8,3,1.5c1,0.7,1.7,1.6,2.4,2.7c1.1,1.9,1.4,3.5,1,4.9
	C157-252.3,156.1-251.2,154.5-250.3z"/>
<path class="st0" d="M91.2-148c-0.5,0-1.1,0-1.6-0.1c-0.5-0.1-1.1-0.2-1.6-0.3c-0.5-0.1-0.9-0.2-1.3-0.3c-0.4-0.1-0.7-0.2-0.9-0.4
	l0.7-3c0.4,0.2,1,0.4,1.8,0.7c0.8,0.2,1.7,0.4,2.9,0.4c1.5,0,2.6-0.3,3.3-0.9c0.7-0.6,1-1.4,1-2.4c0-0.6-0.1-1.2-0.4-1.6
	c-0.3-0.4-0.6-0.8-1.1-1c-0.5-0.3-1-0.4-1.6-0.5c-0.6-0.1-1.2-0.2-1.9-0.2h-1.2v-2.8h1.4c0.4,0,0.9,0,1.3-0.1
	c0.5-0.1,0.9-0.2,1.2-0.5c0.4-0.2,0.7-0.5,0.9-0.9c0.2-0.4,0.3-0.8,0.3-1.4c0-0.5-0.1-0.9-0.3-1.2c-0.2-0.3-0.4-0.6-0.7-0.8
	c-0.3-0.2-0.6-0.4-1-0.5c-0.4-0.1-0.8-0.1-1.2-0.1c-0.9,0-1.6,0.1-2.3,0.4c-0.7,0.3-1.3,0.6-1.8,0.9l-1.3-2.6c0.3-0.2,0.6-0.4,1-0.6
	c0.4-0.2,0.8-0.4,1.3-0.5c0.5-0.2,1-0.3,1.5-0.4c0.5-0.1,1.1-0.2,1.7-0.2c1.1,0,2.1,0.1,2.9,0.4c0.8,0.3,1.5,0.6,2,1.1
	c0.5,0.5,0.9,1.1,1.2,1.7c0.3,0.7,0.4,1.4,0.4,2.2c0,0.9-0.3,1.8-0.8,2.5c-0.5,0.7-1.2,1.3-2,1.7c1,0.4,1.9,1,2.6,1.8
	c0.7,0.8,1,1.9,1,3.3c0,0.9-0.2,1.7-0.5,2.5c-0.3,0.8-0.8,1.4-1.4,2c-0.6,0.5-1.4,1-2.4,1.3C93.7-148.2,92.5-148,91.2-148z"/>
<g>
	<rect x="54.5" y="-298" transform="matrix(0.866 -0.5 0.5 0.866 149.3835 -10.0204)" class="st0" width="3" height="28.5"/>
</g>
<g>
	<rect x="148.4" y="-223.2" class="st0" width="28.5" height="3"/>
</g>
<g>
	<rect x="114" y="-285.3" transform="matrix(0.5 -0.866 0.866 0.5 309.8497 -30.8341)" class="st0" width="28.5" height="3"/>
</g>
<g>
	<rect x="42.8" y="-162.6" transform="matrix(0.5 -0.866 0.866 0.5 167.9997 -31.173)" class="st0" width="28.5" height="3"/>
</g>
<g>
	<rect x="7.4" y="-223.2" class="st0" width="28.5" height="3"/>
</g>
<g>
	<rect x="126.7" y="-174.3" transform="matrix(0.866 -0.5 0.5 0.866 97.2208 42.658)" class="st0" width="3" height="28.5"/>
</g>
<g>
	<path class="st0" d="M154.1-194.5c-0.2,1.2-0.2,2.4-0.2,3.8c0,1.3,0.3,2.6,0.6,3.8l-1.2,2.1l-17.3-10l1.7-3l13.3,7.7
		c-0.1-0.7-0.1-1.4,0-2.3c0.1-0.9,0.2-1.7,0.3-2.5L154.1-194.5z"/>
	<path class="st0" d="M29-194.5c0.6-0.3,1.3-0.6,2-0.6c0.7-0.1,1.5-0.1,2.2,0c0.8,0.1,1.6,0.2,2.3,0.4c0.8,0.2,1.6,0.4,2.4,0.6
		c0.4,0.1,0.9,0.3,1.4,0.4s1.1,0.2,1.6,0.3c0.5,0.1,1,0.2,1.5,0.2c0.4,0,0.8,0,1-0.1L39-201l2.6-1.5l6.4,11
		c-0.1,0.1-0.3,0.2-0.5,0.3c-0.2,0.1-0.3,0.2-0.4,0.3c-0.8,0.5-1.6,0.8-2.4,0.9c-0.8,0.1-1.6,0.2-2.5,0.1c-0.8-0.1-1.6-0.2-2.5-0.4
		c-0.8-0.2-1.6-0.4-2.4-0.7c-0.6-0.2-1.2-0.3-1.8-0.5c-0.6-0.2-1.1-0.3-1.6-0.3c-0.5-0.1-1-0.1-1.5,0c-0.5,0.1-0.9,0.2-1.3,0.4
		c-0.9,0.5-1.3,1.1-1.4,1.8c-0.1,0.7,0.1,1.4,0.5,2.1c0.3,0.5,0.6,0.9,1,1.2c0.4,0.3,0.7,0.6,1.1,0.8c0.4,0.2,0.7,0.4,1,0.5
		c0.3,0.1,0.6,0.2,0.8,0.3l-1.3,2.7c-1.1-0.3-2.1-0.8-3-1.5c-1-0.7-1.7-1.6-2.4-2.7c-1.1-1.9-1.4-3.5-1-4.9
		C26.6-192.5,27.5-193.7,29-194.5z"/>
	<path class="st0" d="M92.4-296.9c0.5,0,1.1,0,1.6,0.1c0.5,0.1,1.1,0.2,1.6,0.3c0.5,0.1,0.9,0.2,1.3,0.3c0.4,0.1,0.7,0.2,0.9,0.4
		l-0.7,3c-0.4-0.2-1-0.4-1.8-0.7c-0.8-0.2-1.7-0.4-2.9-0.4c-1.5,0-2.6,0.3-3.3,0.9c-0.7,0.6-1,1.4-1,2.4c0,0.6,0.1,1.2,0.4,1.6
		c0.3,0.4,0.6,0.8,1.1,1c0.5,0.3,1,0.4,1.6,0.5c0.6,0.1,1.2,0.2,1.9,0.2h1.2v2.8h-1.4c-0.4,0-0.9,0-1.3,0.1
		c-0.5,0.1-0.9,0.2-1.2,0.5c-0.4,0.2-0.7,0.5-0.9,0.9c-0.2,0.4-0.3,0.8-0.3,1.4c0,0.5,0.1,0.9,0.3,1.2c0.2,0.3,0.4,0.6,0.7,0.8
		c0.3,0.2,0.6,0.4,1,0.5c0.4,0.1,0.8,0.1,1.2,0.1c0.9,0,1.6-0.1,2.3-0.4c0.7-0.3,1.3-0.6,1.8-0.9l1.3,2.6c-0.3,0.2-0.6,0.4-1,0.6
		c-0.4,0.2-0.8,0.4-1.3,0.5c-0.5,0.2-1,0.3-1.5,0.4c-0.5,0.1-1.1,0.2-1.7,0.2c-1.1,0-2.1-0.1-2.9-0.4s-1.5-0.6-2-1.1
		c-0.5-0.5-0.9-1.1-1.2-1.7c-0.3-0.7-0.4-1.4-0.4-2.2c0-0.9,0.3-1.8,0.8-2.5c0.5-0.7,1.2-1.3,2-1.7c-1-0.4-1.9-1-2.6-1.8
		c-0.7-0.8-1-1.9-1-3.3c0-0.9,0.2-1.7,0.5-2.5c0.3-0.8,0.8-1.4,1.4-2c0.6-0.6,1.4-1,2.4-1.3C89.9-296.7,91-296.9,92.4-296.9z"/>
</g>
<text transform="matrix(1 0 0 1 341.6916 -3786.7317)" style="font-family:'MyriadPro-Regular'; font-size:12px;">Lorem ipsum</text>
<g>
	<path class="st3" d="M-213.2-1468.2l-8,13.8l13.8,8l8-13.8L-213.2-1468.2z M-209.1-1453l-5.5-3.2l3.2-5.5l5.5,3.2L-209.1-1453z"/>
	<polygon class="st3" points="-201,-1422.5 -201.1,-1422.5 -201.1,-1422.5 -206.5,-1425.7 -208.5,-1422.2 -209.7,-1420.1 
		-212.9,-1414.6 -209.5,-1412.6 -209.5,-1412.6 -201.9,-1408.2 -198.7,-1413.8 -204.2,-1416.9 	"/>
	<polygon class="st3" points="-218.5,-1417.8 -215.3,-1423.3 -220.7,-1426.5 -217.5,-1432 -223.1,-1435.2 -229.5,-1424.1 	"/>
	<polygon class="st3" points="-200.2,-1436.8 -205.6,-1439.9 -208.8,-1434.3 -214.3,-1437.5 -217.5,-1432 -206.6,-1425.7 	"/>
	<path class="st3" d="M-114.5-1445.4l-36.5-63.2c-3.1-5.4-10.8-9.8-17-9.8h-73c-6.2,0-13.9,4.4-17,9.8l-36.5,63.2
		c-3.1,5.4-3.1,14.2,0,19.6l36.5,63.2c3.1,5.4,10.8,9.8,17,9.8h73c6.2,0,13.9-4.4,17-9.8l36.5-63.2
		C-111.4-1431.1-111.4-1440-114.5-1445.4z M-138-1434.9l-31.6,56c-1.7,3.1-4,5.6-6.6,7.7l0,0l0,0c-0.2,0.2-0.4,0.3-0.6,0.5l0,0l0,0
		c-4.5,3.3-9.9,5.1-15.5,5.1c-4.3,0-8.7-1.1-12.8-3.4l-56-31.6c-12.5-7.1-16.9-23-9.9-35.5l31.6-56c1.7-3.1,4-5.7,6.6-7.7l0,0l0,0
		c0.2-0.1,0.3-0.2,0.5-0.3l0,0l0,0c8-6,19.1-7,28.4-1.8l56,31.6C-135.3-1463.4-130.9-1447.4-138-1434.9z"/>
	<path class="st3" d="M-153.5-1460.4l-56-31.6c-7-3.9-15.8-1.5-19.8,5.5l-31.6,56c-3.9,7-1.5,15.8,5.5,19.8l56,31.6
		c7,3.9,15.8,1.5,19.8-5.5l31.6-56C-144.1-1447.6-146.6-1456.4-153.5-1460.4z M-174.8-1429.5l-5.5-3.2l-6.4,11.1l-5.5-3.2l-6.4,11.1
		l5.5,3.2l6.4-11.1l5.5,3.2l-12.8,22.1l-5.5-3.2l3.2-5.5l-5.5-3.2l-3.2,5.5l-11.1-6.4l3.2-5.5l-5.4-3.1l-3.2,5.5l-16.6-9.6l3.2-5.5
		l-5.5-3.2l3.2-5.5l5.5,3.2l0,0l3.2-5.5l-5.5-3.2l3.2-5.5l5.5,3.2l-3.2,5.5l5.5,3.2l3.2-5.5l5.5,3.2l3.2-5.5l-5.5-3.2l-3.1,5.4
		l-5.5-3.2l3.1-5.4l-5.5-3.2l12.8-22.1l33.1,19.1l-3.2,5.5l-10.9-6.3l-6.4,11.1l5.4,3.1l-3.2,5.5l5.5,3.2l-3.2,5.5l5.5,3.2l6.4-11.1
		l-11.1-6.4l3.2-5.5l5.5,3.2l0,0l3.2-5.5l5.5,3.2l3.2-5.5l5.5,3.2l-3.2,5.5l-5.5-3.2l-3.2,5.5l5.5,3.2l0,0l3.2-5.5l5.5,3.2
		L-174.8-1429.5z"/>
	<path class="st10" d="M-176.2-1371.2l-0.6,0.5C-176.7-1370.9-176.4-1371.1-176.2-1371.2z"/>
	<path class="st10" d="M-232.7-1499.9l0.5-0.3C-232.4-1500.1-232.6-1500-232.7-1499.9z"/>
</g>
<path class="st0" d="M32.6-491.4"/>
<g>
	<path class="st3" d="M182.4-535l-36.5-63.2c-3.1-5.4-10.8-9.8-17-9.8h-73c-6.2,0-13.9,4.4-17,9.8L2.3-535c-3.1,5.4-3.1,14.2,0,19.6
		l36.5,63.2c3.1,5.4,10.8,9.8,17,9.8h73c6.2,0,13.9-4.4,17-9.8l36.5-63.2C185.5-520.7,185.5-529.6,182.4-535z M96.1-540.2h24.8v40.8
		H96.1V-540.2z M64.3-550.8h24.8v51.4H64.3C64.3-499.4,64.3-550.8,64.3-550.8z M32.6-515.1h24.8v15.7H32.6V-515.1z M152.6-489.9
		h-120v-3h120V-489.9z M152.6-499.4h-24.8v-67.2h24.8V-499.4z"/>
</g>
<g>
	<path class="st3" d="M-579.2-2194.4l-36.5-63.2c-3.1-5.4-10.8-9.8-17-9.8h-73c-6.2,0-13.9,4.4-17,9.8l-36.5,63.2
		c-3.1,5.4-3.1,14.2,0,19.6l36.5,63.2c3.1,5.4,10.8,9.8,17,9.8h73c6.2,0,13.9-4.4,17-9.8l36.5-63.2
		C-576.1-2180.1-576.1-2189-579.2-2194.4z M-626-2124.6c0,3-2.4,5.4-5.4,5.4H-707c-3,0-5.4-2.4-5.4-5.4v-66.5c0-3,2.4-5.4,5.4-5.4
		h4.2v-19.6c0-18.7,15.2-33.9,33.9-33.9s33.9,15.2,33.9,33.9v19.6h3.7c3,0,5.4,2.4,5.4,5.4V-2124.6z"/>
	<path class="st3" d="M-668.9-2242.4c-14.5,0-26.3,11.8-26.3,26.3v19.6h52.6v-19.6C-642.6-2230.6-654.4-2242.4-668.9-2242.4z"/>
</g>
<g>
	<path class="st3" d="M-662.8-2400.9c-0.6-0.5-1.3-1-2.1-1.4c-0.8-0.4-1.8-0.8-3-1.2c-0.5-0.2-1-0.4-1.5-0.6
		c-0.5-0.2-0.9-0.4-1.2-0.6c-0.3-0.2-0.6-0.5-0.8-0.7c-0.2-0.3-0.3-0.6-0.3-1c0-0.7,0.3-1.2,0.8-1.5c0.5-0.3,1.4-0.5,2.5-0.5
		c1.1,0,2,0.1,2.7,0.4c0.7,0.2,1.4,0.5,2,0.8l1.4-3.9c-0.7-0.4-1.6-0.7-2.7-1c-1.1-0.3-2.3-0.5-3.8-0.5c-1.2,0-2.4,0.2-3.3,0.5
		c-1,0.3-1.8,0.7-2.5,1.3c-0.7,0.6-1.2,1.3-1.6,2.1s-0.6,1.7-0.6,2.7s0.2,1.9,0.5,2.6c0.4,0.7,0.8,1.3,1.4,1.8
		c0.6,0.5,1.2,0.9,1.9,1.2s1.4,0.6,2.1,0.9c1.6,0.5,2.8,1.1,3.5,1.5c0.7,0.5,1,1.1,1,1.8c0,0.3-0.1,0.6-0.2,0.9
		c-0.1,0.3-0.3,0.5-0.6,0.7c-0.3,0.2-0.6,0.4-1.1,0.5c-0.5,0.1-1,0.2-1.7,0.2c-1.4,0-2.6-0.1-3.5-0.4c-1-0.3-1.8-0.6-2.4-1l-1.4,3.9
		c0.3,0.2,0.7,0.3,1.1,0.5c0.4,0.2,0.9,0.4,1.5,0.5c0.6,0.2,1.3,0.3,2.1,0.4c0.8,0.1,1.7,0.2,2.6,0.2c2.9,0,5-0.6,6.5-1.7
		c1.4-1.1,2.1-2.7,2.1-4.8c0-1.1-0.1-1.9-0.4-2.7C-661.8-2399.8-662.2-2400.4-662.8-2400.9z"/>
	<path class="st3" d="M-682.7-2400.9c-0.6-0.5-1.3-1-2.1-1.4s-1.8-0.8-3-1.2c-0.5-0.2-1-0.4-1.5-0.6c-0.5-0.2-0.9-0.4-1.2-0.6
		s-0.6-0.5-0.8-0.7c-0.2-0.3-0.3-0.6-0.3-1c0-0.7,0.3-1.2,0.8-1.5c0.5-0.3,1.4-0.5,2.5-0.5c1.1,0,2,0.1,2.7,0.4
		c0.7,0.2,1.4,0.5,2,0.8l1.4-3.9c-0.7-0.4-1.6-0.7-2.7-1c-1.1-0.3-2.3-0.5-3.8-0.5c-1.2,0-2.4,0.2-3.3,0.5c-1,0.3-1.8,0.7-2.5,1.3
		c-0.7,0.6-1.2,1.3-1.6,2.1s-0.6,1.7-0.6,2.7s0.2,1.9,0.5,2.6c0.4,0.7,0.8,1.3,1.4,1.8c0.6,0.5,1.2,0.9,1.9,1.2s1.4,0.6,2.1,0.9
		c1.6,0.5,2.8,1.1,3.5,1.5c0.7,0.5,1,1.1,1,1.8c0,0.3-0.1,0.6-0.2,0.9c-0.1,0.3-0.3,0.5-0.6,0.7c-0.3,0.2-0.6,0.4-1.1,0.5
		c-0.5,0.1-1,0.2-1.7,0.2c-1.4,0-2.6-0.1-3.5-0.4c-1-0.3-1.8-0.6-2.4-1l-1.4,3.9c0.3,0.2,0.7,0.3,1.1,0.5c0.4,0.2,0.9,0.4,1.5,0.5
		c0.6,0.2,1.3,0.3,2.1,0.4c0.8,0.1,1.7,0.2,2.6,0.2c2.9,0,5-0.6,6.5-1.7c1.4-1.1,2.1-2.7,2.1-4.8c0-1.1-0.1-1.9-0.4-2.7
		C-681.7-2399.8-682.2-2400.4-682.7-2400.9z"/>
	<path class="st3" d="M-579.2-2438.6l-36.5-63.2c-3.1-5.4-10.8-9.8-17-9.8h-73c-6.2,0-13.9,4.4-17,9.8l-36.5,63.2
		c-3.1,5.4-3.1,14.2,0,19.6l36.5,63.2c3.1,5.4,10.8,9.8,17,9.8h73c6.2,0,13.9-4.4,17-9.8l36.5-63.2
		C-576.1-2424.4-576.1-2433.2-579.2-2438.6z M-626-2368.8c0,3-2.4,5.4-5.4,5.4H-707c-3,0-5.4-2.4-5.4-5.4v-66.5c0-3,2.4-5.4,5.4-5.4
		h4.2v-19.6c0-18.7,15.2-33.9,33.9-33.9s33.9,15.2,33.9,33.9v19.6h3.7c3,0,5.4,2.4,5.4,5.4V-2368.8z"/>
	<polygon class="st3" points="-650.8,-2412.2 -655.7,-2412.2 -655.7,-2390.3 -641.1,-2390.3 -641.1,-2394.6 -650.8,-2394.6 	"/>
	<path class="st3" d="M-642.6-2460.3c0-14.5-11.8-26.3-26.3-26.3c-14.5,0-26.3,11.8-26.3,26.3v19.6h52.6L-642.6-2460.3
		L-642.6-2460.3z"/>
</g>
<path class="st0" d="M-276.6,205.3c-6.2,0-13.9-4.4-17-9.8L-353,92.7c-3.1-5.4-3.1-14.2,0-19.6l59.4-102.8c3.1-5.4,10.8-9.8,17-9.8
	h118.8c6.2,0,13.9,4.4,17,9.8L-81.4,73c3.1,5.4,3.1,14.2,0,19.6l-59.4,102.8c-3.1,5.4-10.8,9.8-17,9.8H-276.6z"/>
<g>
	<path class="st3" d="M182.4,73L145.9,9.8c-3.1-5.4-10.8-9.8-17-9.8h-73c-6.2,0-13.9,4.4-17,9.8L2.3,73c-3.1,5.4-3.1,14.2,0,19.6
		l36.5,63.2c3.1,5.4,10.8,9.8,17,9.8h73c6.2,0,13.9-4.4,17-9.8l36.5-63.2C185.5,87.3,185.5,78.4,182.4,73z M135.6,142.8
		c0,3-2.4,5.4-5.4,5.4H54.5c-3,0-5.4-2.4-5.4-5.4V76.4c0-3,2.4-5.4,5.4-5.4h4.2V51.4c0-18.7,15.2-33.9,33.9-33.9
		s33.9,15.2,33.9,33.9V71h3.7c3,0,5.4,2.4,5.4,5.4L135.6,142.8L135.6,142.8z"/>
	<path class="st3" d="M92.6,25c-14.5,0-26.3,11.8-26.3,26.3V71h52.6V51.4C118.9,36.9,107.1,25,92.6,25z"/>
</g>
<g>
	<path class="st3" d="M182.4,73L145.9,9.8c-3.1-5.4-10.8-9.8-17-9.8h-73c-6.2,0-13.9,4.4-17,9.8L2.3,73c-3.1,5.4-3.1,14.2,0,19.6
		l36.5,63.2c3.1,5.4,10.8,9.8,17,9.8h73c6.2,0,13.9-4.4,17-9.8l36.5-63.2C185.5,87.3,185.5,78.4,182.4,73z M135.6,142.8
		c0,3-2.4,5.4-5.4,5.4H54.5c-3,0-5.4-2.4-5.4-5.4V76.4c0-3,2.4-5.4,5.4-5.4h4.2V51.4c0-18.7,15.2-33.9,33.9-33.9
		s33.9,15.2,33.9,33.9V71h3.7c3,0,5.4,2.4,5.4,5.4L135.6,142.8L135.6,142.8z"/>
	<path class="st3" d="M92.6,25c-14.5,0-26.3,11.8-26.3,26.3V71h52.6V51.4C118.9,36.9,107.1,25,92.6,25z"/>
</g>
<g>
	<path class="st3" d="M-210.8,110.7c-0.6-0.5-1.3-1-2.1-1.4c-0.8-0.4-1.8-0.8-3-1.2c-0.5-0.2-1-0.4-1.5-0.6
		c-0.5-0.2-0.9-0.4-1.2-0.6c-0.3-0.2-0.6-0.5-0.8-0.7c-0.2-0.3-0.3-0.6-0.3-1c0-0.7,0.3-1.2,0.8-1.5c0.5-0.3,1.4-0.5,2.5-0.5
		c1.1,0,2,0.1,2.7,0.4c0.7,0.2,1.4,0.5,2,0.8l1.4-3.9c-0.7-0.4-1.6-0.7-2.7-1s-2.3-0.5-3.8-0.5c-1.2,0-2.4,0.2-3.3,0.5
		c-1,0.3-1.8,0.7-2.5,1.3c-0.7,0.6-1.2,1.3-1.6,2.1s-0.6,1.7-0.6,2.7s0.2,1.9,0.5,2.6c0.4,0.7,0.8,1.3,1.4,1.8
		c0.6,0.5,1.2,0.9,1.9,1.2c0.7,0.3,1.4,0.6,2.1,0.9c1.6,0.5,2.8,1.1,3.5,1.5c0.7,0.5,1,1.1,1,1.8c0,0.3-0.1,0.6-0.2,0.9
		c-0.1,0.3-0.3,0.5-0.6,0.7c-0.3,0.2-0.6,0.4-1.1,0.5c-0.5,0.1-1,0.2-1.7,0.2c-1.4,0-2.6-0.1-3.5-0.4c-1-0.3-1.8-0.6-2.4-1l-1.4,3.9
		c0.3,0.2,0.7,0.3,1.1,0.5c0.4,0.2,0.9,0.4,1.5,0.5s1.3,0.3,2.1,0.4c0.8,0.1,1.7,0.2,2.6,0.2c2.9,0,5-0.6,6.5-1.7
		c1.4-1.1,2.1-2.7,2.1-4.8c0-1.1-0.1-1.9-0.4-2.7C-209.8,111.9-210.2,111.2-210.8,110.7z"/>
	<path class="st3" d="M-230.7,110.7c-0.6-0.5-1.3-1-2.1-1.4c-0.8-0.4-1.8-0.8-3-1.2c-0.5-0.2-1-0.4-1.5-0.6
		c-0.5-0.2-0.9-0.4-1.2-0.6c-0.3-0.2-0.6-0.5-0.8-0.7c-0.2-0.3-0.3-0.6-0.3-1c0-0.7,0.3-1.2,0.8-1.5c0.5-0.3,1.4-0.5,2.5-0.5
		c1.1,0,2,0.1,2.7,0.4c0.7,0.2,1.4,0.5,2,0.8l1.4-3.9c-0.7-0.4-1.6-0.7-2.7-1s-2.3-0.5-3.8-0.5c-1.2,0-2.4,0.2-3.3,0.5
		c-1,0.3-1.8,0.7-2.5,1.3c-0.7,0.6-1.2,1.3-1.6,2.1s-0.6,1.7-0.6,2.7s0.2,1.9,0.5,2.6c0.4,0.7,0.8,1.3,1.4,1.8
		c0.6,0.5,1.2,0.9,1.9,1.2c0.7,0.3,1.4,0.6,2.1,0.9c1.6,0.5,2.8,1.1,3.5,1.5c0.7,0.5,1,1.1,1,1.8c0,0.3-0.1,0.6-0.2,0.9
		c-0.1,0.3-0.3,0.5-0.6,0.7c-0.3,0.2-0.6,0.4-1.1,0.5c-0.5,0.1-1,0.2-1.7,0.2c-1.4,0-2.6-0.1-3.5-0.4c-1-0.3-1.8-0.6-2.4-1l-1.4,3.9
		c0.3,0.2,0.7,0.3,1.1,0.5c0.4,0.2,0.9,0.4,1.5,0.5s1.3,0.3,2.1,0.4c0.8,0.1,1.7,0.2,2.6,0.2c2.9,0,5-0.6,6.5-1.7
		c1.4-1.1,2.1-2.7,2.1-4.8c0-1.1-0.1-1.9-0.4-2.7C-229.8,111.9-230.2,111.2-230.7,110.7z"/>
	<path class="st3" d="M-127.2,73l-36.5-63.2c-3.1-5.4-10.8-9.8-17-9.8h-73c-6.2,0-13.9,4.4-17,9.8L-307.2,73
		c-3.1,5.4-3.1,14.2,0,19.6l36.5,63.2c3.1,5.4,10.8,9.8,17,9.8h73c6.2,0,13.9-4.4,17-9.8l36.5-63.2C-124.1,87.3-124.1,78.4-127.2,73
		z M-174,142.8c0,3-2.4,5.4-5.4,5.4H-255c-3,0-5.4-2.4-5.4-5.4V76.4c0-3,2.4-5.4,5.4-5.4h4.2V51.4c0-18.7,15.2-33.9,33.9-33.9
		s33.9,15.2,33.9,33.9V71h3.7c3,0,5.4,2.4,5.4,5.4L-174,142.8L-174,142.8z"/>
	<polygon class="st3" points="-198.8,99.4 -203.7,99.4 -203.7,121.3 -189.1,121.3 -189.1,117.1 -198.8,117.1 	"/>
	<path class="st3" d="M-190.6,51.4c0-14.5-11.8-26.3-26.3-26.3s-26.3,11.8-26.3,26.3V71h52.6L-190.6,51.4L-190.6,51.4z"/>
</g>
</svg>
