<?xml version="1.0" encoding="utf-8"?>
<!-- Generator: Adobe Illustrator 21.0.2, SVG Export Plug-In . SVG Version: 6.00 Build 0)  -->
<svg version="1.1" id="Layer_1" xmlns="http://www.w3.org/2000/svg" xmlns:xlink="http://www.w3.org/1999/xlink" x="0px" y="0px"
	 viewBox="0 0 94.8 85" style="enable-background:new 0 0 94.8 85;" xml:space="preserve">
<style type="text/css">
	.st0{display:none;}
	.st1{display:inline;}
	.st2{fill:#002856;}
	.st3{fill:none;}
	.st4{display:inline;fill:#002856;}
	.st5{fill:#BCD9EA;}
	.st6{display:inline;fill:#BCD9EA;}
	.st7{fill:#BCD9EA;stroke:#002856;stroke-miterlimit:10;}
	.st8{display:inline;fill:none;stroke:#002856;stroke-miterlimit:10;}
	.st9{font-family:'Ubuntu-Medium';}
	.st10{font-size:12px;}
	.st11{font-size:18.9933px;}
	.st12{display:inline;fill:none;stroke:#002856;stroke-width:2;stroke-miterlimit:10;}
</style>
<g id="icoon__x23_20">
</g>
<g id="icoon__x23_19" class="st0">
	<g class="st1">
		<path class="st2" d="M35.3,41.4c0-0.7,0-1.4,0-2.2c-0.7,0-1.4,0-2.2,0c0,0.7,0,1.4,0,2.2C33.9,41.4,34.6,41.4,35.3,41.4z"/>
		<path class="st2" d="M48.4,61c-0.7,0-1.4,0-2.1,0c0,0.7,0,1.4,0,2.1c0.7,0,1.4,0,2.1,0C48.4,62.4,48.4,61.7,48.4,61z"/>
		<path class="st2" d="M37.5,45.7C37.6,45.7,37.6,45.7,37.5,45.7C37.6,45.7,37.6,45.7,37.5,45.7c2.2,0,4.4,0,6.6,0c0,0,0,0,0,0
			c0,0,0,0,0,0c0-0.7,0-1.4,0-2.2c0,0,0,0,0,0c0,0,0,0,0,0c-2.2,0-4.3,0-6.6,0C37.5,44.3,37.5,45,37.5,45.7z"/>
		<path class="st2" d="M46.3,65.4c0-0.8,0-1.5,0-2.2c-1.5,0-2.9,0-4.4,0c0,1.5,0,2.9,0,4.4c0,0,0,0,0,0c0,0,0,0,0,0
			c0.7,0,1.4,0,2.2,0c0,0,0,0,0,0c0,0,0,0,0,0c0-0.7,0-1.4,0-2.2C44.9,65.4,45.6,65.4,46.3,65.4z"/>
		<path class="st2" d="M41.9,28.3C41.9,28.3,41.9,28.3,41.9,28.3C41.9,28.3,41.9,28.3,41.9,28.3c-0.7,0-1.4,0-2.2,0
			c0,0.8,0,1.5,0,2.2c0,0,0,0,0,0c0,0,0,0,0,0c0.7,0,1.4,0,2.2,0C41.9,29.7,41.9,29,41.9,28.3z"/>
		<path class="st2" d="M50.6,65.4c-0.7,0-1.4,0-2.2,0c0,0.7,0,1.4,0,2.1c0.7,0,1.5,0.1,2.2,0.1C50.6,66.8,50.6,66.1,50.6,65.4z"/>
		<path class="st2" d="M37.6,47.9c0-0.7,0-1.4,0-2.2c0,0,0,0,0,0c0,0,0,0,0,0c-0.7,0-1.4,0-2.2,0c0,0.7,0,1.4,0,2.2
			C36.1,47.9,36.8,47.9,37.6,47.9C37.5,47.9,37.5,47.9,37.6,47.9C37.6,47.9,37.6,47.9,37.6,47.9z"/>
		<path class="st2" d="M46.3,30.5C46.3,30.5,46.3,30.5,46.3,30.5C46.3,30.5,46.3,30.5,46.3,30.5c0-0.7,0-1.4,0-2.2
			c-0.8,0-1.5,0-2.2,0c0,0,0,0,0,0c0,0,0,0,0,0c0,0.7,0,1.4,0,2.2C44.9,30.5,45.6,30.5,46.3,30.5z"/>
		<path class="st2" d="M35.4,43.6c-0.8,0-1.5,0-2.2,0c0,0.7,0,1.4,0,2.1c0.7,0,1.5,0,2.2,0C35.4,45,35.4,44.3,35.4,43.6z"/>
		<path class="st2" d="M54.9,34.9c-0.7,0-1.4,0-2.2,0c0,0.7,0,1.4,0,2.2c0.7,0,1.5,0,2.2,0C54.9,36.3,54.9,35.6,54.9,34.9z"/>
		<path class="st2" d="M50.6,58.8c0-0.7,0-1.4,0-2.2c-0.7,0-1.5,0-2.2,0c0,0.7,0,1.4,0,2.2C49.1,58.8,49.8,58.8,50.6,58.8z"/>
		<path class="st2" d="M31,39.3C31,39.3,31,39.3,31,39.3L31,39.3L31,39.3C31,39.2,31,39.2,31,39.3c-0.7,0-1.4,0-2.2,0
			c0,0.8,0,1.5,0,2.2c0,0,0,0,0,0c0,0,0,0,0,0c0.7,0,1.4,0,2.2,0C31,40.7,31,40,31,39.3z"/>
		<path class="st2" d="M41.9,32.7c0,0.7,0,1.4,0,2.1c0,0,0,0,0,0c0,0,0,0,0,0c0.7,0,1.4,0,2.2,0c0,0,0,0,0,0c0,0,0,0,0,0
			c0-0.7,0-1.4,0-2.1C43.4,32.7,42.6,32.7,41.9,32.7z"/>
		<path class="st2" d="M35.4,47.9c-0.7,0-1.4,0-2.2,0c0-0.8,0-1.5,0-2.2c-0.7,0-1.4,0-2.2,0c0,1.5,0,2.9,0,4.4c0,0,0,0,0,0
			c0,0,0,0,0,0c1.4,0,2.9,0,4.4,0C35.4,49.3,35.4,48.6,35.4,47.9z"/>
		<path class="st2" d="M39.8,61c0,0.7,0,1.4,0,2.1c0.7,0,1.4,0,2.2,0c0-0.7,0-1.4,0-2.1C41.2,61,40.5,61,39.8,61z"/>
		<path class="st2" d="M68.1,45.7C68.1,45.7,68.1,45.7,68.1,45.7c0.7,0,1.5,0,2.2,0c0-0.8,0-1.4,0-2.2c-0.7,0-1.5,0-2.2,0
			c0,0,0,0,0,0c0,0,0,0,0,0C68.1,44.2,68.1,45,68.1,45.7C68.1,45.7,68.1,45.7,68.1,45.7z"/>
		<path class="st2" d="M22.3,28.3c3.7,0,7.3,0,10.9,0c0-3.7,0-7.3,0-10.9c-3.7,0-7.3,0-10.9,0C22.3,21,22.3,24.7,22.3,28.3z
			 M24.5,19.6c2.2,0,4.3,0,6.5,0c0,2.2,0,4.3,0,6.5c-2.1,0-4.3,0-6.5,0C24.5,23.9,24.5,21.8,24.5,19.6z"/>
		<path class="st2" d="M39.7,50.1c0-0.7,0-1.4,0-2.2c-0.8,0-1.5,0-2.2,0c0,0,0,0,0,0c0,0,0,0,0,0c0,0.7,0,1.5,0,2.2
			C38.3,50.1,39,50.1,39.7,50.1C39.7,50.1,39.7,50.1,39.7,50.1C39.7,50.1,39.7,50.1,39.7,50.1z"/>
		<path class="st2" d="M57.2,58.8c2.2,0,4.4,0,6.5,0c0-2.2,0-4.3,0-6.5c-2.2,0-4.3,0-6.5,0C57.2,54.5,57.2,56.6,57.2,58.8z
			 M59.4,54.5c0.7,0,1.4,0,2.1,0c0,0.7,0,1.4,0,2.1c-0.7,0-1.4,0-2.1,0C59.4,55.9,59.4,55.2,59.4,54.5z"/>
		<path class="st2" d="M93.3,37.5L74.7,5.3c-1.6-2.8-5.5-5-8.7-5H28.8c-3.2,0-7.1,2.3-8.7,5L1.5,37.5c-1.6,2.8-1.6,7.3,0,10
			l18.6,32.2c1.6,2.8,5.5,5,8.7,5H66c3.2,0,7.1-2.3,8.7-5l18.6-32.2C94.9,44.8,94.9,40.3,93.3,37.5z M59.4,15.3c5.1,0,10.1,0,15.2,0
			c0,5,0,10.1,0,15.1c-5.1,0-10.1,0-15.2,0C59.4,25.4,59.4,20.4,59.4,15.3z M72.4,32.7c0,0.7,0,1.4,0,2.1c-0.7,0-1.4,0-2.1,0
			c0-0.7,0-1.4,0-2.1C71,32.7,71.7,32.7,72.4,32.7z M70.2,37.1c0,0.7,0,1.4,0,2.1c-0.7,0-1.4,0-2.1,0c0-0.7,0-1.4,0-2.1
			C68.8,37.1,69.5,37.1,70.2,37.1z M68,32.7c0,0.7,0,1.4,0,2.1c-0.7,0-1.4,0-2.1,0c0-0.7,0-1.4,0-2.1C66.6,32.7,67.3,32.7,68,32.7z
			 M50.6,21.7c0-0.7,0-1.4,0-2.2c0.7,0,1.4,0,2.2,0c0-0.7,0-1.4,0-2.2c0.7,0,1.4,0,2.1,0c0,0,0,0,0,0l0,0c0,0,0,0,0,0c0,0,0,0,0,0
			c0-0.7,0-1.3,0-2.1c0.8,0,1.4,0,2.2,0c0,0.7,0,1.3,0,2.1c-0.7,0-1.5,0-2.2,0c0,0,0,0,0,0c0,0,0,0,0,0c0,1.2,0,2.5,0,3.7
			c0,0.9,0,1.8,0,2.8c-0.7,0-1.4,0-2.2,0c0,0.8,0,1.5,0,2.2c0,0,0,0,0,0c0,0,0,0,0,0c0.7,0,1.4,0,2.2,0c0,0.8,0,1.5,0,2.2
			c0,0,0,0,0,0h0l0,0c0,0,0,0,0,0c0.7,0,1.4,0,2.2,0c0,0.7,0,1.4,0,2.1c-0.7,0-1.4,0-2.2,0c0-0.7,0-1.4,0-2.1c0,0,0,0,0,0
			c0,0,0,0,0,0c-0.7,0-1.4,0-2.2,0c0,0,0,0,0,0l0,0l0,0c0,0,0,0,0,0c0,0.7,0,1.4,0,2.1c-0.7,0-1.4,0-2.1,0c0-0.7,0-1.4,0-2.1
			c0.7,0,1.4,0,2.1,0c0,0,0,0,0,0c0,0,0,0,0,0c0-0.7,0-1.4,0-2.2c0,0,0,0,0,0c0,0,0,0,0,0c-0.7,0-1.4,0-2.1,0c0-0.7,0-1.4,0-2.2
			c-1.5,0-2.9,0-4.3,0c0-1.5,0-2.9,0-4.3c0.7,0,1.3,0,2.1,0c0,0.7,0,1.4,0,2.1C49.1,21.7,49.8,21.7,50.6,21.7z M46.3,15.3
			c0.7,0,1.4,0,2,0c0,0.7,0,1.3,0,2c-0.7,0-1.3,0-2,0C46.3,16.6,46.3,16,46.3,15.3z M42,15.3c0.7,0,1.4,0,2.1,0c0,1.4,0,2.8,0,4.2
			c-0.7,0-1.4,0-2.1,0C42,18.1,42,16.7,42,15.3z M37.6,17.4c0.7,0,1.4,0,2.1,0c0,0.7,0,1.4,0,2.1c-0.7,0-1.4,0-2.1,0
			C37.6,18.8,37.6,18.1,37.6,17.4z M20.2,15.3c5,0,10.1,0,15.1,0c0,5,0,10.1,0,15.2c-5,0-10.1,0-15.1,0
			C20.2,25.4,20.2,20.4,20.2,15.3z M20.2,43.6c0.7,0,1.4,0,2.1,0c0,2.9,0,5.7,0,8.7c-0.7,0-1.3,0-2.1,0
			C20.2,49.3,20.2,46.5,20.2,43.6z M35.3,69.7c-5.1,0-10.1,0-15.1,0c0-5.1,0-10.1,0-15.2c5,0,10.1,0,15.1,0
			C35.3,59.6,35.3,64.6,35.3,69.7z M74.6,43.5c-0.7,0-1.4,0-2.1,0c0,0.7,0,1.4,0,2.2c0.7,0,1.4,0,2.1,0c0,1.5,0,2.9,0,4.4
			c-1.4,0-2.9,0-4.3,0c0,0,0,0,0,0c0,0,0,0,0,0c0,0.7,0,1.4,0,2.2c-0.7,0-1.4,0-2.2,0c0,1.5,0,2.9,0,4.4c-0.7,0-1.4,0-2.2,0
			c0,0.7,0,1.4,0,2.2c1.4,0,2.9,0,4.3,0c0,0,0,0,0,0c0,0,0,0,0,0c0-1.1,0-2.2,0-3.3c0-0.3,0-0.6,0-1c0.7,0,1.4,0,2.2,0
			c0-0.8,0-1.4,0-2.2c0.7,0,1.4,0,2.1,0c0,1.4,0,2.8,0,4.3c-0.7,0-1.4,0-2.1,0c0,0.7,0,1.4,0,2.2c-0.8,0-1.5,0-2.2,0c0,0,0,0,0,0
			c0,0,0,0,0,0c0,0.7,0,1.4,0,2.2c0,0,0,0,0,0c0,0,0,0,0,0c1.4,0,2.9,0,4.3,0c0,2.9,0,5.8,0,8.7c-2.1,0-4.3,0-6.5,0
			c0-0.7,0-1.4,0-2.1c1.4,0,2.8,0,4.3,0c0-1.5,0-2.9,0-4.5c-0.7,0-1.4,0-2.2,0c0,0,0,0,0,0h0h0c0,0,0,0,0,0c0,0.7,0,1.4,0,2.2
			c-0.7,0-1.4,0-2.1,0c0-0.7,0-1.4,0-2.2c0.7,0,1.4,0,2.1,0c0,0,0,0,0,0c0,0,0,0,0,0c0-0.7,0-1.4,0-2.2c0,0,0,0,0,0c0,0,0,0,0,0
			c-1.4,0-2.9,0-4.3,0c0,0.7,0,1.4,0,2.2c-0.8,0-1.5,0-2.2,0c0,0,0,0,0,0c0,0,0,0,0,0c0,0.7,0,1.5,0,2.2c0,0,0,0,0,0c0,0,0,0,0,0
			c0.7,0,1.4,0,2.2,0c0,0.7,0,1.4,0,2.1c-0.7,0-1.4,0-2.2,0c0-0.7,0-1.4,0-2.1c0,0,0,0,0,0l0,0v0c0,0,0,0,0,0c-0.7,0-1.5,0-2.2,0
			c0,0,0,0,0,0c0,0,0,0,0,0c0,1.4,0,2.9,0,4.4c-0.7,0-1.4,0-2.1,0c0-1.4,0-2.8,0-4.4c0.7,0,1.4,0,2.1,0c0,0,0,0,0,0l0,0c0,0,0,0,0,0
			c0-0.7,0-1.4,0-2.2c0,0,0,0,0,0c0,0,0,0,0,0c-0.7,0-1.4,0-2.1,0c0-0.7,0-1.4,0-2.1c-2.9,0-5.8,0-8.8,0c0,0.7,0,1.4,0,2.2
			c2.2,0,4.3,0,6.5,0c0,0.7,0,1.4,0,2.2c-1.4,0-2.8,0-4.3,0c0,1.5,0,2.9,0,4.4c-1.5,0-2.9,0-4.3,0c0-0.7-0.1-1.5-0.1-2.2
			c-0.8,0-1.5,0-2.3,0c-0.6,0-1.3,0-1.9,0c0,0,0,0,0,0c0,0,0,0,0,0c0,0.7,0,1.4,0,2.1c-0.7,0-1.4,0-2.2,0c0-0.7,0-1.4,0-2.1
			c0,0,0,0,0,0c0,0,0,0,0,0c-0.7,0-1.4,0-2.2,0c0,0.7,0,1.4,0,2.2c-0.7,0-1.4,0-2.2,0c0-3.6,0-7.2,0-10.9c0.7,0,1.4,0,2.1,0
			c0-0.7,0-1.4,0-2.2c-0.7,0-1.4,0-2.1,0c0-1.5,0-2.9,0-4.4c-2.2,0-4.4,0-6.6,0c0-0.8,0-1.5,0-2.2c0,0,0,0,0,0c0,0,0,0,0,0
			c-1.4,0-2.9,0-4.4,0c0,0.7,0,1.4,0,2.2c-0.7,0-1.4,0-2.2,0c0-2.2,0-4.3,0-6.5c1.4,0,2.9,0,4.3,0c0-1.5,0-2.9,0-4.3c0,0,0,0,0,0
			c0,0,0,0,0,0c-0.7,0-1.4,0-2.2,0c0,0,0,0,0,0c0,0,0,0,0,0c0,0.7,0,1.3,0,2.1c-0.7,0-1.4,0-2.1,0c0-0.7,0-1.3,0-2.1
			c0.7,0,1.4,0,2.1,0c0,0,0,0,0,0c0,0,0,0,0,0c0-2.2,0-4.3,0-6.5c-1.5,0-2.9,0-4.4,0c0,0.7,0,1.4,0,2.2c0.7,0,1.4,0,2.1,0
			c0,0.7,0,1.4,0,2.2c-0.7,0-1.4,0-2.1,0c0,0.7,0,1.4,0,2.2c-0.7,0-1.4,0-2.1,0c0-2.9,0-5.8,0-8.7c3.6,0,7.2,0,10.8,0
			c0,2.2,0,4.3,0,6.5c0,0,0,0,0,0c0,0,0,0,0,0c0.7,0,1.4,0,2.2,0c0-0.7,0-1.4,0-2.1c2.2,0,4.3,0,6.5,0c0,1.4,0,2.9,0,4.3
			c1.5,0,2.9,0,4.4,0c0,0.7,0,1.4,0,2.1c0,0,0,0,0,0c0,0,0,0,0,0c0.7,0,1.4,0,2.2,0c0-1.4,0-2.8,0-4.2c0.7,0,1.4,0,2.1,0
			c0,0.7,0,1.4,0,2.1c0.7,0,1.4,0,2.2,0c0,0.7,0,1.4,0,2.1c-0.7,0-1.4,0-2.1,0c0,0.7,0,1.4,0,2.2c-1.5,0-2.9,0-4.3,0c0,0,0,0,0,0
			c0,0,0,0,0,0c0,0.7,0,1.4,0,2.2c0,0,0,0,0,0c0,0,0,0,0,0c1.4,0,2.8,0,4.3,0c0,0.8,0,1.5,0,2.2c0,0,0,0,0,0c0,0,0,0,0,0
			c1.4,0,2.9,0,4.4,0c0,0.7,0,1.4,0,2.2c0.8,0,1.5,0,2.2,0c0-1.5,0-2.9,0-4.4c-0.7,0-1.4,0-2.1,0c0-0.7,0-1.4,0-2.2
			c0.7,0,1.4,0,2.1,0c0-0.7,0-1.4,0-2.2c-0.7,0-1.4,0-2.1,0c0-0.2,0-0.4,0-0.5c0-1.8,0-3.6,0-5.5c0-0.2,0-0.3,0-0.5
			c-0.7,0-1.4,0-2.1,0c0-0.7,0-1.4,0-2.2c-0.8,0-1.5,0-2.2,0c0,0.7,0,1.4,0,2.1c-0.7,0-1.4,0-2.1,0c0-0.7,0-1.4,0-2.2
			c-0.8,0-1.5,0-2.2,0c0,0,0,0,0,0c0,0,0,0,0,0c0,1.4,0,2.9,0,4.3c-0.7,0-1.4,0-2.2,0c0-1.4,0-2.9,0-4.3c0,0,0,0,0,0c0,0,0,0,0,0
			c-2.9,0-5.8,0-8.7,0c0-0.7,0-1.4,0-2.2c2.2,0,4.3,0,6.5,0c0-0.8,0-1.5,0-2.2c0,0,0,0,0,0c0,0,0,0,0,0c-0.7,0-1.4,0-2.1,0
			c0-1.5,0-2.9,0-4.3c0.7,0,1.4,0,2.1,0c0-0.7,0-1.4,0-2.2c-0.7,0-1.4,0-2.1,0c0-0.7,0-1.4,0-2.2c2.1,0,4.3,0,6.5,0
			c0,0.7,0,1.4,0,2.1c-0.7,0-1.4,0-2.1,0c0,1.5,0,2.9,0,4.4c0,0,0,0,0,0c0,0,0,0,0,0c0.7,0,1.4,0,2.2,0c0,0,0,0,0,0c0,0,0,0,0,0
			c0-0.7,0-1.4,0-2.1c1.4,0,2.8,0,4.3,0c0,1.4,0,2.8,0,4.3c-0.7,0-1.4,0-2.1,0c0,0,0,0,0,0c0,0,0,0,0,0c0,0.7,0,1.4,0,2.2
			c4.3,0,8.7,0,13,0c0,1.5,0,2.9,0,4.4c0.8,0,1.5,0,2.2,0c0-1.4,0-2.9,0-4.3c0.7,0,1.4,0,2.1,0c0,2.1,0,4.3,0,6.5
			c-0.7,0-1.4,0-2.2,0c0,0.8,0,1.6,0,2.4c0,0.6,0,1.2,0,1.9c0.7,0,1.5,0,2.2,0.1c0,0,0,0,0,0c0,0,0,0,0,0c0-0.7,0-1.3,0-2
			c0.7,0,1.4,0,2.2,0c0,0.7,0,1.4,0,2c0,0,0,0,0,0c0,0,0,0,0,0c0.7,0,1.4,0,2.2,0c0,0,0,0,0,0c0,0,0,0,0,0c0-0.7,0-1.3,0-2.1
			c1.5,0,2.9,0,4.4,0c0-1.5,0-2.9,0-4.4c0.7,0,1.4,0,2.2,0C74.6,39.2,74.6,41.3,74.6,43.5z"/>
		<path class="st2" d="M41.9,50.1c-0.8,0-1.5,0-2.2,0c0,0,0,0,0,0c0,0,0,0,0,0c0,1.5,0,2.9,0,4.4c0.8,0,1.5,0,2.2,0c0,0,0,0,0,0
			c0,0,0,0,0,0c0-0.7,0-1.4,0-2.1c1.5,0,2.9,0,4.3,0c0,0.7,0,1.4,0,2.1c-1.5,0-2.9,0-4.3,0c0,0,0,0,0,0c0,0,0,0,0,0
			c0,1.5,0,2.9,0,4.4c0.8,0,1.5,0,2.2,0c0-0.7,0-1.4,0-2.1c0.3,0,0.5,0,0.7,0c1.2,0,2.4,0,3.6,0c0-0.7,0-1.4,0-2.2
			c0.8,0,1.5,0,2.2,0c0-0.8,0-1.4,0-2.2c-0.7,0-1.4,0-2.2,0c0-0.8,0-1.5,0-2.2c0,0,0,0,0,0c0,0,0,0,0,0c-1.4,0-2.8,0-4.3,0
			c0-0.8,0-1.5,0-2.2c0,0,0,0,0,0c0,0,0,0,0,0c-0.7,0-1.4,0-2.2,0C41.9,48.6,41.9,49.3,41.9,50.1z"/>
		<path class="st2" d="M68.1,47.9C68.1,47.9,68.1,47.9,68.1,47.9C68.1,47.9,68.1,47.9,68.1,47.9c0,0.7,0,1.5,0,2.2
			c0.8,0,1.5,0,2.2,0c0,0,0,0,0,0c0,0,0,0,0,0c0-0.7,0-1.4,0-2.2C69.5,47.9,68.8,47.9,68.1,47.9z"/>
		<path class="st2" d="M61.5,28.3c3.7,0,7.3,0,10.9,0c0-3.6,0-7.3,0-10.9c-3.7,0-7.3,0-10.9,0C61.5,21.1,61.5,24.7,61.5,28.3z
			 M63.7,19.6c2.2,0,4.3,0,6.5,0c0,2.2,0,4.3,0,6.5c-2.2,0-4.3,0-6.5,0C63.7,23.9,63.7,21.8,63.7,19.6z"/>
		<path class="st2" d="M52.8,58.8c0.7,0,1.4,0,2.1,0c0-1.5,0-2.9,0-4.3c-0.7,0-1.4,0-2.1,0C52.8,56,52.8,57.4,52.8,58.8z"/>
		<path class="st2" d="M59.3,39.3c-0.8,0-1.5,0-2.2,0c0,2.9,0,5.7,0,8.6c0.7,0,1.4,0,2.2,0c0-0.7,0-1.4,0-2.2c0.7,0,1.4,0,2.2,0
			c0-0.8-0.1-1.5-0.1-2.2c-0.7,0-1.4,0-2.1,0C59.3,42.1,59.3,40.7,59.3,39.3z"/>
		<path class="st2" d="M65.9,50.1c0-0.7,0-1.4,0-2.2c0.8,0,1.4,0,2.1,0c0,0,0,0,0,0c0,0,0,0,0,0c0-0.7,0-1.4,0-2.2c0,0,0,0,0,0
			c0,0,0,0,0,0c-0.7,0-1.4,0-2.2,0c0-0.7,0-1.5,0-2.2c0,0,0,0,0,0c0,0,0,0,0,0c-0.7,0-1.4,0-2.2,0c0,0,0,0,0,0c0,0,0,0,0,0
			c0,2.2,0,4.3,0,6.5C64.4,50.1,65.1,50.1,65.9,50.1z"/>
		<path class="st2" d="M61.5,61c0,0.7,0,1.4,0,2.1c0,0,0,0,0,0c0,0,0,0,0,0c0.7,0,1.4,0,2.2,0c0,0,0,0,0,0c0,0,0,0,0,0
			c0-0.7,0-1.4,0-2.1C62.9,61,62.2,61,61.5,61z"/>
		<path class="st2" d="M33.2,56.7c-3.7,0-7.3,0-10.9,0c0,3.6,0,7.2,0,10.9c3.7,0,7.3,0,10.9,0C33.2,63.9,33.2,60.3,33.2,56.7z
			 M31,65.3c-2.1,0-4.3,0-6.5,0c0-2.1,0-4.3,0-6.5c2.2,0,4.3,0,6.5,0C31,61,31,63.2,31,65.3z"/>
		<path d="M37.5,47.9C37.5,47.9,37.5,47.9,37.5,47.9C37.6,47.9,37.6,47.9,37.5,47.9L37.5,47.9z"/>
		<path d="M70.2,58.8C70.2,58.8,70.2,58.8,70.2,58.8C70.2,58.8,70.2,58.8,70.2,58.8L70.2,58.8z"/>
		<path d="M48.4,50.1C48.4,50.1,48.4,50.1,48.4,50.1L48.4,50.1C48.4,50.1,48.4,50.1,48.4,50.1z"/>
		<path d="M41.9,54.4C41.9,54.4,41.9,54.4,41.9,54.4C41.9,54.4,41.9,54.4,41.9,54.4L41.9,54.4z"/>
		<path d="M39.7,50.1C39.7,50.1,39.7,50.1,39.7,50.1C39.7,50.1,39.7,50.1,39.7,50.1L39.7,50.1z"/>
		<path d="M46.3,30.5C46.3,30.5,46.3,30.5,46.3,30.5L46.3,30.5C46.3,30.5,46.3,30.5,46.3,30.5z"/>
		<ellipse transform="matrix(0.8303 -0.5573 0.5573 0.8303 -13.8046 41.6277)" cx="61.5" cy="43.5" rx="0" ry="0"/>
		<path d="M63.7,43.5C63.7,43.5,63.7,43.5,63.7,43.5C63.7,43.5,63.7,43.5,63.7,43.5L63.7,43.5z"/>
		<path d="M68.1,47.9C68.1,47.9,68.1,47.9,68.1,47.9L68.1,47.9C68.1,47.9,68.1,47.9,68.1,47.9z"/>
		<path d="M70.2,61C70.2,61,70.2,61,70.2,61C70.2,61,70.2,61,70.2,61L70.2,61z"/>
		<path d="M44.1,34.9C44.1,34.9,44.1,34.9,44.1,34.9C44.1,34.9,44.1,34.9,44.1,34.9L44.1,34.9z"/>
		<ellipse transform="matrix(0.7423 -0.67 0.67 0.7423 -25.4765 47.0104)" cx="48.4" cy="56.6" rx="0" ry="0"/>
		<path d="M44.1,28.3C44.1,28.3,44.1,28.3,44.1,28.3C44.1,28.3,44.1,28.3,44.1,28.3L44.1,28.3z"/>
		<path d="M41.9,34.9C41.9,34.9,41.9,34.9,41.9,34.9L41.9,34.9C41.9,34.9,41.9,34.9,41.9,34.9z"/>
		<path d="M39.7,30.5C39.7,30.5,39.7,30.5,39.7,30.5C39.7,30.5,39.7,30.5,39.7,30.5L39.7,30.5z"/>
		<path d="M41.9,28.3C41.9,28.3,41.9,28.3,41.9,28.3L41.9,28.3C41.9,28.3,41.9,28.3,41.9,28.3z"/>
		<ellipse transform="matrix(0.6657 -0.7462 0.7462 0.6657 -10.0153 51.7566)" cx="52.8" cy="37.1" rx="0" ry="0"/>
		<ellipse transform="matrix(0.6679 -0.7442 0.7442 0.6679 -31.6549 55.434)" cx="46.3" cy="63.2" rx="0" ry="0"/>
		<ellipse transform="matrix(0.4995 -0.8663 0.8663 0.4995 -34.2854 75.6719)" cx="48.3" cy="67.5" rx="0" ry="0"/>
		<path d="M41.9,67.5C41.9,67.6,41.9,67.6,41.9,67.5L41.9,67.5C41.9,67.5,41.9,67.5,41.9,67.5z"/>
		<ellipse transform="matrix(0.7615 -0.6482 0.6482 0.7615 -30.9594 42.2476)" cx="41.9" cy="63.2" rx="0" ry="0"/>
		<path d="M31,50.1C31,50.1,31,50.1,31,50.1C31,50.1,31,50.1,31,50.1L31,50.1z"/>
		<path d="M70.2,50.1C70.2,50.1,70.2,50.1,70.2,50.1L70.2,50.1C70.2,50.1,70.2,50.1,70.2,50.1z"/>
		<path d="M61.5,63.2C61.5,63.2,61.5,63.2,61.5,63.2L61.5,63.2C61.5,63.2,61.5,63.2,61.5,63.2z"/>
		<path d="M63.7,63.2C63.7,63.2,63.7,63.2,63.7,63.2C63.7,63.2,63.7,63.2,63.7,63.2L63.7,63.2z"/>
		<path d="M44.1,67.6C44.1,67.6,44.1,67.6,44.1,67.6C44.1,67.5,44.1,67.5,44.1,67.6L44.1,67.6z"/>
		<path d="M37.6,45.7C37.6,45.7,37.6,45.7,37.6,45.7C37.5,45.7,37.5,45.7,37.6,45.7L37.6,45.7z"/>
		<path d="M31,50.1C31,50.1,31,50.1,31,50.1L31,50.1C31,50.1,31,50.1,31,50.1z"/>
		<path d="M31,39.3C31,39.2,31,39.2,31,39.3L31,39.3C31,39.3,31,39.3,31,39.3z"/>
		<ellipse transform="matrix(0.7167 -0.6974 0.6974 0.7167 -17.9657 34.26)" cx="33.2" cy="39.2" rx="0" ry="0"/>
		<path d="M28.8,41.4C28.8,41.4,28.8,41.4,28.8,41.4C28.8,41.4,28.8,41.4,28.8,41.4L28.8,41.4z"/>
		<path d="M44.1,43.5C44.1,43.5,44.1,43.5,44.1,43.5C44.1,43.5,44.1,43.5,44.1,43.5L44.1,43.5z"/>
		<path d="M26.6,41.4C26.6,41.4,26.6,41.4,26.6,41.4C26.6,41.4,26.6,41.4,26.6,41.4L26.6,41.4z"/>
		<path d="M31,39.2C31,39.2,31,39.2,31,39.2C31,39.2,31,39.2,31,39.2L31,39.2z"/>
		<path d="M28.8,41.4C28.8,41.4,28.8,41.4,28.8,41.4L28.8,41.4C28.8,41.4,28.8,41.4,28.8,41.4z"/>
		<path d="M68.1,43.5C68.1,43.5,68.1,43.5,68.1,43.5L68.1,43.5C68.1,43.5,68.1,43.5,68.1,43.5z"/>
		<path d="M68.1,45.7C68.1,45.7,68.1,45.7,68.1,45.7C68.1,45.7,68.1,45.7,68.1,45.7L68.1,45.7z"/>
		<path d="M70.3,50.1C70.3,50.1,70.3,50.1,70.3,50.1C70.2,50.1,70.2,50.1,70.3,50.1L70.3,50.1z"/>
		<path d="M68.1,47.9C68.1,47.9,68.1,47.9,68.1,47.9C68.1,47.9,68.1,47.9,68.1,47.9L68.1,47.9z"/>
		<path d="M54.9,17.4C54.9,17.4,54.9,17.4,54.9,17.4C54.9,17.4,54.9,17.4,54.9,17.4L54.9,17.4z"/>
		<path d="M52.8,26.1C52.8,26.1,52.7,26.1,52.8,26.1C52.7,26.1,52.7,26.1,52.8,26.1L52.8,26.1z"/>
		<path d="M39.7,30.5C39.7,30.5,39.7,30.5,39.7,30.5L39.7,30.5C39.7,30.5,39.7,30.5,39.7,30.5z"/>
		<path d="M41.9,28.3C41.9,28.3,41.9,28.3,41.9,28.3C41.9,28.3,41.9,28.3,41.9,28.3L41.9,28.3z"/>
		<path d="M70.2,63.2C70.2,63.2,70.2,63.2,70.2,63.2C70.2,63.2,70.2,63.2,70.2,63.2C70.2,63.2,70.2,63.2,70.2,63.2z"/>
		<path d="M70.2,61C70.2,61,70.2,61,70.2,61L70.2,61C70.2,61,70.2,61,70.2,61z"/>
		<path d="M44.1,43.5C44.1,43.5,44.1,43.5,44.1,43.5L44.1,43.5C44.1,43.5,44.1,43.5,44.1,43.5z"/>
		<path d="M44.1,45.7C44.1,45.7,44.1,45.7,44.1,45.7C44.1,45.7,44.1,45.7,44.1,45.7L44.1,45.7z"/>
		<path d="M44.1,47.9C44.1,47.9,44.1,47.9,44.1,47.9C44.1,47.9,44.1,47.9,44.1,47.9L44.1,47.9z"/>
		<path d="M37.6,45.7C37.6,45.7,37.6,45.7,37.6,45.7L37.6,45.7C37.6,45.7,37.6,45.7,37.6,45.7z"/>
		<path d="M39.7,50.1C39.7,50.1,39.7,50.1,39.7,50.1C39.7,50.1,39.7,50.1,39.7,50.1L39.7,50.1z"/>
		<path d="M44.1,45.7C44.1,45.7,44.1,45.7,44.1,45.7L44.1,45.7C44.1,45.7,44.1,45.7,44.1,45.7z"/>
		<path d="M37.6,47.9C37.6,47.9,37.6,47.9,37.6,47.9C37.6,47.9,37.6,47.9,37.6,47.9L37.6,47.9z"/>
		<path d="M70.2,58.8C70.2,58.8,70.2,58.8,70.2,58.8L70.2,58.8C70.2,58.8,70.2,58.8,70.2,58.8z"/>
		<path d="M46.3,30.5C46.3,30.5,46.3,30.5,46.3,30.5C46.3,30.5,46.3,30.5,46.3,30.5L46.3,30.5z"/>
		<path d="M44.1,28.3C44.1,28.3,44.1,28.3,44.1,28.3L44.1,28.3C44.1,28.3,44.1,28.3,44.1,28.3z"/>
		<path d="M41.9,34.9C41.9,34.9,41.9,34.9,41.9,34.9C41.9,34.9,41.9,34.9,41.9,34.9L41.9,34.9z"/>
		<path d="M44.1,34.9C44.1,34.9,44.1,34.9,44.1,34.9L44.1,34.9C44.1,34.9,44.1,34.9,44.1,34.9z"/>
		<path d="M61.5,65.4L61.5,65.4C61.5,65.4,61.5,65.4,61.5,65.4C61.5,65.4,61.5,65.4,61.5,65.4C61.5,65.4,61.5,65.4,61.5,65.4
			L61.5,65.4z"/>
		<path d="M48.4,50.1C48.4,50.1,48.4,50.1,48.4,50.1C48.4,50.1,48.4,50.1,48.4,50.1L48.4,50.1z"/>
		<path d="M44.1,47.9C44.1,47.9,44.1,47.9,44.1,47.9L44.1,47.9C44.1,47.9,44.1,47.9,44.1,47.9z"/>
		<path d="M41.9,67.6C41.9,67.6,41.9,67.6,41.9,67.6C41.9,67.6,41.9,67.6,41.9,67.6L41.9,67.6z"/>
		<path d="M44.1,67.6C44.1,67.6,44.1,67.6,44.1,67.6L44.1,67.6C44.1,67.6,44.1,67.6,44.1,67.6z"/>
		<polygon points="63.7,65.4 63.7,65.4 63.7,65.4 		"/>
		<path d="M63.7,65.4C63.7,65.4,63.7,65.4,63.7,65.4C63.7,65.4,63.7,65.4,63.7,65.4C63.7,65.4,63.7,65.4,63.7,65.4z"/>
		<path d="M61.5,63.2C61.5,63.2,61.5,63.2,61.5,63.2C61.5,63.2,61.5,63.2,61.5,63.2L61.5,63.2z"/>
		<path d="M63.7,63.2C63.7,63.2,63.7,63.2,63.7,63.2L63.7,63.2C63.7,63.2,63.7,63.2,63.7,63.2z"/>
		<path d="M61.5,65.4C61.5,65.4,61.5,65.4,61.5,65.4C61.5,65.4,61.5,65.4,61.5,65.4C61.5,65.4,61.5,65.4,61.5,65.4z"/>
		<path d="M63.7,65.4C63.7,65.4,63.7,65.4,63.7,65.4C63.7,65.4,63.7,65.4,63.7,65.4C63.7,65.4,63.7,65.4,63.7,65.4z"/>
		<path d="M61.5,65.4L61.5,65.4L61.5,65.4z"/>
		<polygon points="63.7,65.4 63.7,65.4 63.7,65.4 		"/>
		<path d="M52.8,28.3C52.8,28.3,52.8,28.3,52.8,28.3C52.8,28.3,52.8,28.3,52.8,28.3L52.8,28.3z"/>
		<path d="M54.9,28.3C54.9,28.3,54.9,28.3,54.9,28.3C54.9,28.3,54.9,28.3,54.9,28.3C54.9,28.3,54.9,28.3,54.9,28.3z"/>
		<path d="M52.8,26.1C52.8,26.1,52.8,26.1,52.8,26.1L52.8,26.1C52.7,26.1,52.8,26.1,52.8,26.1z"/>
		<path d="M52.8,28.3L52.8,28.3C52.7,28.3,52.7,28.3,52.8,28.3C52.8,28.3,52.8,28.3,52.8,28.3z"/>
		<path d="M54.9,28.3L54.9,28.3L54.9,28.3z"/>
		<path d="M54.9,28.3C54.9,28.3,54.9,28.3,54.9,28.3L54.9,28.3C54.9,28.3,54.9,28.3,54.9,28.3z"/>
		<polygon points="54.9,28.3 54.9,28.3 54.9,28.3 		"/>
		<path d="M68.1,43.5C68.1,43.5,68.1,43.5,68.1,43.5C68.1,43.5,68.1,43.5,68.1,43.5L68.1,43.5z"/>
		<path d="M68.1,45.7C68.1,45.7,68.1,45.7,68.1,45.7L68.1,45.7C68.1,45.7,68.1,45.7,68.1,45.7z"/>
		<path d="M65.9,43.5C65.9,43.5,65.9,43.5,65.9,43.5L65.9,43.5C65.9,43.5,65.9,43.5,65.9,43.5z"/>
		<path d="M70.2,63.2L70.2,63.2L70.2,63.2z"/>
		<path d="M70.2,63.2C70.2,63.2,70.2,63.2,70.2,63.2L70.2,63.2C70.2,63.2,70.2,63.2,70.2,63.2z"/>
		<polygon points="70.2,63.2 70.2,63.2 70.2,63.2 		"/>
		<path d="M26.6,41.4C26.6,41.4,26.6,41.4,26.6,41.4L26.6,41.4C26.6,41.4,26.6,41.4,26.6,41.4z"/>
		<path d="M65.9,43.5C65.9,43.5,65.9,43.5,65.9,43.5C65.9,43.5,65.9,43.5,65.9,43.5L65.9,43.5z"/>
		<path d="M63.7,43.5C63.7,43.5,63.7,43.5,63.7,43.5L63.7,43.5C63.7,43.5,63.7,43.5,63.7,43.5z"/>
		<path d="M54.9,17.4C54.9,17.4,54.9,17.4,54.9,17.4C54.9,17.4,54.9,17.4,54.9,17.4C54.9,17.4,54.9,17.4,54.9,17.4z"/>
		<path d="M41.9,54.4C41.9,54.4,41.9,54.4,41.9,54.4L41.9,54.4C41.9,54.4,41.9,54.4,41.9,54.4z"/>
		<ellipse transform="matrix(0.6482 -0.7615 0.7615 0.6482 -24.0195 43.7809)" cx="35.4" cy="47.9" rx="0" ry="0"/>
		<ellipse transform="matrix(0.6873 -0.7264 0.7264 0.6873 -22.1365 39.9829)" cx="35.4" cy="45.7" rx="0" ry="0"/>
		<ellipse transform="matrix(0.7264 -0.6873 0.6873 0.7264 -22.3343 35.3131)" cx="33.2" cy="45.7" rx="0" ry="0"/>
	</g>
</g>
<g id="icoon__x23_18" class="st0">
	<g class="st1">
		<g>
			<path class="st2" d="M18.4,76.8l1.7,3c1.6,2.8,5.5,5,8.7,5H66c3.2,0,7.1-2.3,8.7-5l18.6-32.2c1.6-2.8,1.6-7.3,0-10l-7-12.1h-68
				V76.8z M24.4,31c9.9,0,19.7,0,29.6,0c0,9.9,0,19.7,0,29.6c-9.9,0-19.7,0-29.6,0C24.4,50.7,24.4,40.8,24.4,31z"/>
			<path class="st2" d="M28.4,56.3c7.2,0,14.2,0,21.3,0c0-7.1,0-14.2,0-21.3c-7.1,0-14.2,0-21.3,0C28.4,42.2,28.4,49.2,28.4,56.3z
				 M32.8,39.3c4.2,0,8.4,0,12.6,0c0,4.2,0,8.4,0,12.7c-4.2,0-8.4,0-12.6,0C32.8,47.8,32.8,43.6,32.8,39.3z"/>
			<path class="st2" d="M84.3,21.9L74.7,5.3c-1.6-2.8-5.5-5-8.7-5H28.8c-3.2,0-7.1,2.3-8.7,5L1.5,37.5c-1.6,2.8-1.6,7.3,0,10
				l13.3,23.1V21.9H84.3z"/>
		</g>
		<g>
			<path class="st2" d="M37.3,42.2l1.3-0.2v1.7h2v1.1h-2V47c0,0.4,0.1,0.8,0.2,1c0.1,0.2,0.4,0.3,0.7,0.3c0.2,0,0.4,0,0.6-0.1
				c0.2-0.1,0.3-0.1,0.4-0.1l0.2,1c-0.2,0.1-0.3,0.1-0.6,0.2c-0.2,0.1-0.5,0.1-0.9,0.1c-0.4,0-0.7-0.1-1-0.2
				c-0.3-0.1-0.5-0.3-0.6-0.5s-0.3-0.4-0.3-0.7s-0.1-0.6-0.1-1L37.3,42.2L37.3,42.2z"/>
		</g>
	</g>
</g>
<g id="icoon__x23_17" class="st0">
	<g class="st1">
		<rect x="35.1" y="37.4" class="st3" width="9.9" height="35.1"/>
		<rect x="22.9" y="18.1" class="st3" width="9.9" height="54.4"/>
		<rect x="47.4" y="25.6" class="st3" width="9.9" height="46.8"/>
		<rect x="59.5" y="51.7" class="st3" width="9.9" height="1"/>
		<rect x="59.5" y="54.9" class="st3" width="9.9" height="17.5"/>
		<path class="st2" d="M65.8,46.6c0.1,0,0.2,0,0.2-0.1s0.1-0.2,0.1-0.4s0-0.3-0.1-0.4c-0.1-0.1-0.1-0.1-0.2-0.1
			c-0.1,0-0.2,0-0.2,0.1s-0.1,0.2-0.1,0.4c0,0.2,0,0.3,0.1,0.4S65.7,46.6,65.8,46.6z"/>
		<path class="st2" d="M62.8,47.8c0,0.1,0.1,0.2,0.2,0.2c0.1,0.1,0.1,0.1,0.2,0.1s0.2,0,0.2-0.1c0.1-0.1,0.1-0.1,0.2-0.2
			s0.1-0.2,0.1-0.4c0-0.1,0-0.3,0-0.5s0-0.3,0-0.5c0-0.1,0-0.3-0.1-0.4c0-0.1-0.1-0.2-0.2-0.2c-0.1-0.1-0.1-0.1-0.2-0.1
			c-0.1,0-0.2,0-0.2,0.1c-0.1,0.1-0.1,0.1-0.2,0.2c0,0.1-0.1,0.2-0.1,0.4c0,0.1,0,0.3,0,0.5s0,0.3,0,0.5S62.8,47.7,62.8,47.8z"/>
		<path class="st2" d="M68.1,47.4C68,47.5,68,47.6,68,47.8s0,0.3,0.1,0.4c0.1,0.1,0.1,0.1,0.2,0.1c0.1,0,0.2,0,0.2-0.1
			c0.1-0.1,0.1-0.2,0.1-0.4s0-0.3-0.1-0.4c-0.1-0.1-0.1-0.1-0.2-0.1C68.2,47.3,68.1,47.3,68.1,47.4z"/>
		<path class="st2" d="M93.3,37.5L74.7,5.3c-1.6-2.8-5.5-5-8.7-5H28.8c-3.2,0-7.1,2.3-8.7,5L1.5,37.5c-1.6,2.8-1.6,7.3,0,10
			l18.6,32.2c1.6,2.8,5.5,5,8.7,5H66c3.2,0,7.1-2.3,8.7-5l18.6-32.2C94.9,44.8,94.9,40.3,93.3,37.5z M69.2,47.8
			c0,0.3-0.1,0.6-0.2,0.7c-0.2,0.2-0.4,0.3-0.7,0.3s-0.5-0.1-0.7-0.3c-0.2-0.2-0.2-0.4-0.2-0.7c0-0.3,0.1-0.6,0.2-0.7
			s0.4-0.3,0.7-0.3s0.5,0.1,0.7,0.3S69.2,47.5,69.2,47.8z M68.4,45.1l-2,3.6h-0.7l2-3.6H68.4z M65.1,45.3c0.2-0.2,0.4-0.3,0.7-0.3
			s0.5,0.1,0.7,0.3c0.2,0.2,0.2,0.4,0.2,0.7c0,0.3-0.1,0.6-0.2,0.7c-0.2,0.2-0.4,0.3-0.7,0.3s-0.5-0.1-0.7-0.3s-0.2-0.4-0.2-0.7
			C64.9,45.7,64.9,45.5,65.1,45.3z M62,46.1c0.1-0.2,0.1-0.4,0.3-0.6s0.3-0.3,0.4-0.4s0.3-0.1,0.5-0.1c0.4,0,0.7,0.2,0.9,0.5
			c0.2,0.3,0.3,0.8,0.3,1.4c0,0.6-0.1,1.1-0.3,1.4c-0.2,0.3-0.5,0.5-0.9,0.5s-0.7-0.2-0.9-0.5c-0.2-0.3-0.3-0.8-0.3-1.4
			C61.9,46.6,61.9,46.4,62,46.1z M32.8,72.5h-9.9V18.1h9.9V72.5z M45,72.5h-9.9V37.4H45V72.5z M57.2,72.5h-9.9V25.6h9.9V72.5z
			 M59.1,40.6h0.9v-1h0.7v1h0.9v0.6h-0.9v1h-0.7v-1h-0.9V40.6z M59.2,45.9c0.1,0,0.2-0.1,0.3-0.1s0.2-0.1,0.3-0.2
			c0.1-0.1,0.2-0.1,0.3-0.2c0.1-0.1,0.2-0.1,0.3-0.2h0.5v3.6h-0.8v-2.6c-0.1,0.1-0.2,0.1-0.3,0.2c-0.1,0.1-0.3,0.1-0.4,0.1
			L59.2,45.9z M69.3,72.5h-9.9V54.9h9.9V72.5z M69.3,52.8h-9.9v-1h9.9V52.8z"/>
	</g>
</g>
<g id="icoon__x23_16" class="st0">
	<g class="st1">
		<path class="st2" d="M93.3,37.3L74.7,5.1c-1.6-2.8-5.5-5-8.7-5H28.8c-3.2,0-7.1,2.3-8.7,5L1.5,37.3c-1.6,2.8-1.6,7.3,0,10
			l18.6,32.2c0.3,0.5,0.6,0.9,1,1.4l0-11c-0.1-1.2,0.1-2.4,0.6-3.3l10.4-18c0.9-1.5,3.1-2.8,4.8-2.8h20.8c1.8,0,4,1.3,4.8,2.8
			l10.4,18c0.5,0.9,0.7,2.2,0.6,3.3l0,11c0.4-0.4,0.7-0.9,1-1.4l18.6-32.2C94.9,44.6,94.9,40.1,93.3,37.3z M61.7,30.7l-5.8,10
			c-0.5,0.9-1.7,1.6-2.7,1.6H41.6c-1,0-2.2-0.7-2.7-1.6l-5.8-10c-0.5-0.9-0.5-2.3,0-3.1l5.8-10c0.5-0.9,1.7-1.6,2.7-1.6h11.6
			c1,0,2.2,0.7,2.7,1.6l5.8,10C62.2,28.5,62.2,29.9,61.7,30.7z"/>
	</g>
</g>
<g id="icoon__x23_15" class="st0">
	<g class="st1">
		<path class="st2" d="M50.8,17h-6.5c-0.5,0-0.9,0.3-0.9,0.7c0,0.4,0.4,0.7,0.9,0.7h6.5c0.5,0,0.9-0.3,0.9-0.7
			C51.7,17.3,51.3,17,50.8,17z"/>
		<path class="st2" d="M93.3,37.5L74.7,5.3c-1.6-2.8-5.5-5-8.7-5H28.8c-3.2,0-7.1,2.3-8.7,5L1.5,37.5c-1.6,2.8-1.6,7.3,0,10
			l18.6,32.2c0.1,0.2,0.3,0.4,0.4,0.6V17.8c0-4.2,3.4-7.6,7.6-7.6H66c4.2,0,7.6,3.4,7.6,7.6v63.5c0.5-0.5,0.8-1,1.1-1.5l18.6-32.2
			C94.9,44.8,94.9,40.3,93.3,37.5z"/>
		<circle class="st2" cx="40.3" cy="17.7" r="1"/>
		<path class="st2" d="M66,84.8c1.3,0,2.7-0.4,4-1V21.7H24.1v61.8c1.5,0.8,3.2,1.3,4.7,1.3L66,84.8L66,84.8z M33.6,47.7l5-8.7
			c0.8-1.3,2.2-2.2,3.8-2.2h10c1.5,0,3,0.8,3.8,2.2l1.3,2.3L50,54.2c-0.1,0.2-0.8,1.1-1.8,0.6c-1.1-0.7-0.5-1.8-0.5-1.8v0l2.7-4.8
			c0,0,1-1.8-0.6-2.7c-1.6-0.9-2.6,0.9-2.6,0.9l-2.7,4.8c-0.1,0.1-0.7,1.1-1.8,0.6c-1.1-0.6-0.6-1.7-0.5-1.9v0l2.7-4.7
			c0,0,1-1.8-0.6-2.7c-1.6-0.9-2.6,0.9-2.6,0.9l-2.3,4c-2.2,3.8-0.2,7.6,3.7,9.9c3.9,2.2,8.2,2.1,10.4-1.7l6-10.3l1.6,2.8
			c0.8,1.3,0.8,3,0,4.3l-5,8.7C55.4,62.1,54,63,52.4,63h-10c-1.6,0-3-0.8-3.8-2.2l-5-8.7C32.8,50.7,32.8,49.1,33.6,47.7z"/>
	</g>
</g>
<g id="icoon__x23_12" class="st0">
	<g class="st1">
		<g>
			<path class="st2" d="M86.9,38.2L74.6,16.9H20.1L7.8,38.2c-1.4,2.4-1.4,6.3,0,8.6l16,27.8c1.4,2.4,4.7,4.3,7.5,4.3h32.1
				c2.7,0,6.1-1.9,7.5-4.3l16-27.8C88.3,44.5,88.3,40.6,86.9,38.2z M34.7,47.2l-1.2,3.5l-15.2-6.4v-3.6l15.2-6.4l1.2,3.5l-11.8,4.7
				L34.7,47.2z M43.5,59.1h-4.4L51,25h4.3L43.5,59.1z M76.4,44.3l-15.2,6.4l-1.2-3.5l11.8-4.7l-11.8-4.7l1.2-3.5l15.2,6.4V44.3z"/>
		</g>
		<g>
			<path class="st2" d="M65.6,5.2l1.2-1.7h1.3l-1.8,2.6c0.4,0.5,0.7,1,1.1,1.5S68,8.6,68.2,9h-1.4c-0.1-0.1-0.1-0.3-0.2-0.4
				s-0.2-0.3-0.3-0.5c-0.1-0.2-0.2-0.3-0.4-0.5c-0.1-0.2-0.2-0.3-0.4-0.5c-0.2,0.3-0.5,0.6-0.7,0.9c-0.2,0.3-0.4,0.6-0.6,0.9H63
				c0.1-0.2,0.2-0.4,0.4-0.7c0.2-0.2,0.3-0.5,0.5-0.7c0.2-0.2,0.3-0.5,0.5-0.7c0.2-0.2,0.4-0.5,0.5-0.7l-1.8-2.7h1.4L65.6,5.2z"/>
		</g>
		<g>
			<path class="st3" d="M75.3,12.3l-55.8,0L4.4,38.5c-1.2,2.1-1.2,5.9,0,8l18.1,31.3c1.2,2.1,4.5,4,6.9,4h36.1c2.5,0,5.7-1.9,6.9-4
				l18.1-31.3c1.2-2.1,1.2-5.9,0-8L75.3,12.3z"/>
			<path class="st2" d="M93.4,36.8L75.4,5.5c-1.9-3.2-6.2-5.7-9.9-5.7H29.3c-3.7,0-8.1,2.5-9.9,5.7L1.4,36.8
				c-1.9,3.2-1.9,8.2,0,11.4l18.1,31.3c1.9,3.2,6.2,5.7,9.9,5.7h36.1c3.7,0,8.1-2.5,9.9-5.7l18.1-31.3C95.3,45,95.3,40,93.4,36.8z
				 M60.7,5.6l2-3.5c0.2-0.3,0.6-0.5,0.9-0.5h4c0.3,0,0.8,0.2,0.9,0.5l2,3.5c0.2,0.3,0.2,0.8,0,1.1l-2,3.5c-0.2,0.3-0.6,0.5-0.9,0.5
				h-4c-0.3,0-0.8-0.2-0.9-0.5l-2-3.5C60.5,6.4,60.5,5.9,60.7,5.6z M90.4,46.5L72.4,77.8c-1.2,2.1-4.5,4-6.9,4H29.3
				c-2.5,0-5.7-1.9-6.9-4L4.4,46.5c-1.2-2.1-1.2-5.9,0-8l15.1-26.2l55.8,0l15.1,26.2C91.6,40.7,91.6,44.4,90.4,46.5z"/>
		</g>
	</g>
</g>
<g id="icoon__x23_11" class="st0">
	<g class="st1">
		<path class="st3" d="M40.2,85.5c1,0,1.8-0.6,2.1-1.4h-4.3C38.4,84.9,39.2,85.5,40.2,85.5z"/>
		<path class="st3" d="M68.4,85.5c1.3,0,2.3-1,2.3-2.3c0-0.2,0-0.3-0.1-0.5c-1.4,0.8-2.9,1.3-4.4,1.3C66.6,84.9,67.5,85.5,68.4,85.5
			z"/>
		<path class="st2" d="M42.5,83.2c0-1.3-1-2.3-2.3-2.3s-2.3,1-2.3,2.3c0,0.3,0.1,0.6,0.2,0.9h4.3C42.4,83.8,42.5,83.5,42.5,83.2z"/>
		<path class="st2" d="M68.4,80.9c-1.3,0-2.3,1-2.3,2.3c0,0.3,0.1,0.6,0.2,0.8c1.4-0.1,3-0.6,4.4-1.3C70.5,81.7,69.5,80.9,68.4,80.9
			z"/>
		<path class="st2" d="M93.3,36.8L74.7,4.5c-1.6-2.8-5.5-5-8.7-5H28.8c-3.2,0-7.1,2.3-8.7,5L1.5,36.8c-1.6,2.8-1.6,7.3,0,10L20.1,79
			c1.6,2.8,5.5,5,8.7,5h5.6c0-0.3-0.1-0.6-0.1-0.9c0-3.2,2.6-5.9,5.9-5.9s5.9,2.6,5.9,5.9c0,0.3,0,0.6-0.1,0.9h16.7
			c0-0.3-0.1-0.6-0.1-0.9c0-3.2,2.6-5.9,5.9-5.9c2.2,0,4.2,1.3,5.2,3.1c0.4-0.4,0.8-0.9,1.1-1.4l18.6-32.2
			C94.9,44.1,94.9,39.5,93.3,36.8z M70.4,73.9H39c-2.8,0-6.1-1.9-7.5-4.3L18.7,47.3c-1.4-2.4-1.4-6.2,0-8.6l3.1-5.7
			c-0.7-0.9-1.1-2-1.1-3.2c0-2.8,2.3-5.1,5.1-5.1s5.1,2.3,5.1,5.1s-2.3,5.1-5.1,5.1c-0.3,0-0.7,0-1-0.1l-3,5.6
			c-0.8,1.3-0.8,3.8,0,5.1l12.8,22.2c0.8,1.3,2.9,2.6,4.4,2.6h31.4V73.9z M82,44.6L71.4,62.9c-0.9,1.6-3.1,2.8-4.9,2.8H45.4
			c-1.8,0-4-1.3-4.9-2.8L29.9,44.6c-0.9-1.6,0.1-4.1,1-5.7h51C82.9,40.5,82.9,43.1,82,44.6z"/>
	</g>
</g>
<g id="icoon__x23_10" class="st0">
	<g class="st1">
		<path class="st2" d="M93.3,37.5L74.7,5.3c-1.6-2.8-5.5-5-8.7-5H28.8c-3.2,0-7.1,2.3-8.7,5L1.5,37.5c-1.6,2.8-1.6,7.3,0,10
			l18.6,32.2c1.6,2.8,5.5,5,8.7,5H66c3.2,0,7.1-2.3,8.7-5l18.6-32.2C94.9,44.8,94.9,40.3,93.3,37.5z M32,79.8c-2.8,0-6.2-2-7.6-4.4
			L8.1,47.2c-1.4-2.4-1.4-6.4,0-8.8l16.3-28.2c1.4-2.4,4.8-4.4,7.6-4.4h30.1l-18.5,32c-1.6,2.8-1.6,7.3,0,10l18.5,32H32z M82,45.8
			h-9.3v10.2h-5.6V45.8h-9.3v-5.3h9.3V30.3h5.6v10.2H82V45.8z"/>
	</g>
</g>
<g id="icoon__x23_9" class="st0">
	<g class="st1">
		<path class="st2" d="M93.3,37.5L74.7,5.3c-1.6-2.8-5.5-5-8.7-5H28.8c-3.2,0-7.1,2.3-8.7,5L1.5,37.5c-1.6,2.8-1.6,7.3,0,10
			l18.6,32.2c1.6,2.8,5.5,5,8.7,5H66c3.2,0,7.1-2.3,8.7-5l18.6-32.2C94.9,44.8,94.9,40.3,93.3,37.5z M31.5,79.5
			c-2.8,0-6.2-2-7.6-4.4L7.5,46.9c-1.4-2.4-1.4-6.4,0-8.8L23.9,9.9c1.4-2.4,4.8-4.4,7.6-4.4h12L25,37.5c-1.6,2.8-1.6,7.3,0,10
			l18.5,32L31.5,79.5L31.5,79.5z M50.8,75.3c-2.5,0-5.5-1.7-6.7-3.9l-14.4-25c-1.2-2.1-1.2-5.6,0-7.8l14.4-25
			c1.2-2.1,4.3-3.9,6.7-3.9h7.8c0,0.1-0.1,0.1-0.1,0.2L42.1,38.1c-1.4,2.4-1.4,6.4,0,8.8l16.3,28.2c0,0.1,0.1,0.1,0.1,0.2L50.8,75.3
			L50.8,75.3z M54.9,56.4c-1.7,0-3.2-0.9-4-2.3l-5.4-9.3c-0.8-1.4-0.8-3.2,0-4.6l5.4-9.3c0.8-1.4,2.4-2.3,4-2.3h10.8
			c1.6,0,3.2,0.9,4,2.3l1.4,2.4l-8,13.8c-0.1,0.2-0.9,1.2-1.9,0.6c-1.2-0.7-0.5-2-0.5-2v0l2.9-5.1c0,0,1.1-1.9-0.7-2.9
			c-1.7-0.9-2.7,0.9-2.7,0.9l-2.9,5.1c-0.1,0.1-0.8,1.2-1.9,0.6c-1.2-0.7-0.6-1.8-0.5-2v0l2.9-5.1c0,0,1.1-1.9-0.7-2.9
			c-1.7-0.9-2.7,0.9-2.7,0.9l-2.5,4.3c-2.4,4.1-0.2,8.2,3.9,10.6c4.2,2.4,8.7,2.2,11.1-1.9l6.4-11.1l1.7,3c0.8,1.4,0.8,3.2,0,4.6
			l-5.4,9.3c-0.8,1.4-2.4,2.3-4,2.3L54.9,56.4L54.9,56.4z M88.6,45.6L77.2,65.4c-1,1.7-3.4,3.1-5.3,3.1h-6.2c0,0,0.1-0.1,0.1-0.1
			L78.6,46c1.1-1.9,1.1-5,0-6.9L65.8,16.7c0,0-0.1-0.1-0.1-0.1h6.2c2,0,4.3,1.4,5.3,3.1l11.4,19.8C89.5,41.1,89.5,43.9,88.6,45.6z"
			/>
	</g>
</g>
<g id="icoon__x23_8" class="st0">
	<g class="st1">
		<path class="st2" d="M74.7,5.3c-1.6-2.8-5.5-5-8.7-5H28.8c-3.2,0-7.1,2.3-8.7,5L1.5,37.5c-1.6,2.8-1.6,7.3,0,10l18.6,32.2
			c1.6,2.8,5.5,5,8.7,5H66c3.2,0,7.1-2.3,8.7-5l18.6-32.2c1.6-2.8,1.6-7.3,0-10L74.7,5.3z M58.9,68.8c-2.1,0.5-4.6,0.8-7.5,0.8
			c-6.3,0-11-1.5-14.4-4.5c-3.3-3-5.5-7.3-6.5-12.8h-5.4v-7.4h4.7c0-0.6-0.1-1-0.1-1.3c0-0.3,0-0.7,0-1.1c0-0.4,0-0.8,0-1.3
			s0-0.9,0.1-1.3h-4.7v-7.4h5.7c1.3-5.6,3.8-9.8,7.4-12.7c3.7-2.9,8.3-4.3,14.1-4.3c2.3,0,4.2,0.2,5.8,0.5c1.6,0.4,3.2,0.8,4.8,1.4
			l-2.3,8.7c-1.2-0.4-2.4-0.7-3.7-1c-1.3-0.3-2.8-0.4-4.7-0.4c-3,0-5.3,0.7-7,2c-1.7,1.3-2.9,3.2-3.6,5.8h16.7l-1.4,7.4H40.6
			c-0.1,0.6-0.1,1-0.1,1.4c0,0.4,0,0.8,0,1.2c0,0.4,0,0.8,0,1.1c0,0.3,0,0.7,0.1,1.3H56l-1.4,7.4H41.6c0.9,3,2.1,5.1,3.8,6.3
			c1.7,1.2,3.8,1.8,6.4,1.8c1.7,0,3.3-0.2,5-0.5c1.7-0.3,3.4-0.8,5.1-1.5l2.2,8.6C62.8,67.6,61.1,68.3,58.9,68.8z"/>
	</g>
</g>
<g id="icoon__x23_7" class="st0">
	<g class="st1">
		<path class="st2" d="M93.3,37.5L74.7,5.3c-1.6-2.8-5.5-5-8.7-5H28.8c-3.2,0-7.1,2.3-8.7,5L1.5,37.5c-1.6,2.8-1.6,7.3,0,10
			l18.6,32.2c1.6,2.8,5.5,5,8.7,5H66c3.2,0,7.1-2.3,8.7-5l18.6-32.2C94.9,44.8,94.9,40.3,93.3,37.5z M49.7,78.4h-5.3
			c-1,0-1.8-0.5-1.8-1.1c0-0.6,0.8-1.1,1.8-1.1h5.3c1,0,1.8,0.5,1.8,1.1C51.5,78,50.7,78.4,49.7,78.4z M55,71.7L54.8,73
			c-0.2,1-1.1,1.7-2.1,1.7h-11c-1,0-1.9-0.6-2-1.3c-0.1-0.7,0.6-1.4,1.5-1.5l12.5-1.8C54.6,70.1,55.2,70.8,55,71.7z M55.9,67.4
			c-0.1,0.7-1,1.3-2,1.4l-13,1.8c-1,0.1-1.8-0.3-2-0.9c-0.1-0.6,0.6-1.2,1.5-1.4l13.9-1.9C55.3,66.4,56,66.8,55.9,67.4z M56.6,63.8
			c-0.1,0.6-1,1.2-2,1.4l-14.4,2c-1,0.1-1.8-0.2-1.9-0.8s0.6-1.2,1.6-1.3l15.2-2.1C56,62.8,56.7,63.2,56.6,63.8z M71,29.3l-8.9,15.6
			c-1.8,3.5-4,8.2-4.4,11.1c-0.2,1.3-0.5,2.2-1,2.7c0.6,0.2,0.9,0.7,0.8,1.3c-0.2,0.8-1.1,1.5-2,1.7l-15.7,2.2
			c-1,0.1-1.9-0.5-2.1-1.5l-0.4-2.1c-0.1-0.8,0.3-1.5,1-1.7c-0.5-0.5-0.8-1.3-1-2.6c-0.3-2.5-2.1-6.5-3.8-9.8l-9.6-16.8
			c-0.5-0.9-0.5-2.4,0-3.3L34.1,8.1c0.5-0.9,1.8-1.5,2.9-1.5h0.1h20.5h0.1c1.1,0,2.3,0.6,2.9,1.5L71,26C71.5,26.9,71.5,28.4,71,29.3
			z"/>
		<path class="st2" d="M58.8,10.8c-0.5-0.8-1.6-1.2-2.5-1.2H38.5c-0.9,0-2,0.4-2.5,1.2L27,26.2c-0.5,0.8-0.5,2.1,0,2.9L36,44.7
			c0.5,0.8,1,1.6,2.5,1.6c5.3,0,5.5,12.5,8.6,12.5s4.3-12.5,9.3-12.5c1.6,0,2-0.7,2.5-1.5l8.9-15.6c0.5-0.8,0.5-2,0-2.8L58.8,10.8z"
			/>
	</g>
</g>
<g id="icoon__x23_6" class="st0">
	<g class="st1">
		<path class="st2" d="M63.8-0.2H30.9c-5.1,0-9.8,2.7-12.3,7.1L2.2,35.4c-2.5,4.4-2.5,9.8,0,14.2l16.5,28.5
			c2.5,4.4,7.2,7.1,12.3,7.1h32.9c5.1,0,9.8-2.7,12.3-7.1l16.5-28.5c2.5-4.4,2.5-9.8,0-14.2l-5.2-9L67.7,60.3
			c-7.3,12.6-21.3,13-34,5.7c-12.7-7.3-19.3-19.7-12-32.3l7.6-13.2c0,0,3.3-5.8,8.4-2.9c5.4,3.1,2.1,8.9,2.1,8.9l-8.9,15.5v0
			c-0.3,0.4-2,4,1.5,6.1c3.4,1.9,5.5-1.4,5.8-1.8l9-15.6c0,0,3.3-5.8,8.4-2.9c5.4,3.1,2.1,8.9,2.1,8.9l-8.9,15.6v0
			c0,0-2.2,3.9,1.5,6c3.2,1.8,5.4-1.2,5.8-1.8l24.4-42.3l-4.3-7.4C73.5,2.5,68.9-0.2,63.8-0.2"/>
	</g>
</g>
<g id="icoon__x23_5" class="st0">
	<g class="st1">
		<polygon class="st2" points="49.1,48.8 49,48.8 46.4,47.3 45.4,49 44.9,50 43.3,52.6 45,53.6 48.6,55.7 50.2,53 47.5,51.5 		"/>
		<polygon class="st2" points="49.5,41.9 46.8,40.4 45.3,43.1 42.6,41.6 41.1,44.2 46.4,47.3 		"/>
		<path class="st2" d="M93.6,37.5L74.8,5c-1.6-2.8-5.5-5-8.7-5H28.7c-3.2,0-7.1,2.3-8.7,5L1.2,37.5c-1.6,2.8-1.6,7.3,0,10.1L19.9,80
			c1.6,2.8,5.5,5,8.7,5h37.5c3.2,0,7.1-2.3,8.7-5l18.7-32.4C95.2,44.8,95.2,40.2,93.6,37.5z M79.5,42.8L64.2,69.9
			c-1.6,2.9-4.3,5-7.6,5.9c-1.1,0.3-2.3,0.5-3.4,0.5c-2.1,0-4.2-0.5-6.1-1.6l0,0L20,59.4c-6-3.4-8.2-11.1-4.8-17.1l15.3-27.1
			c3.4-6,11.1-8.2,17.1-4.8l27.1,15.3C80.8,29.1,82.9,36.8,79.5,42.8z"/>
		<path class="st2" d="M43.2,26.7l-3.8,6.7l6.7,3.8l3.8-6.7L43.2,26.7z M45.1,34.1l-2.7-1.5l1.5-2.7l2.7,1.5L45.1,34.1z"/>
		<polygon class="st2" points="40.6,51.1 42.2,48.4 39.5,46.9 41.1,44.2 38.4,42.7 35.3,48 		"/>
		<path class="st2" d="M72,30.5L44.9,15.2c-1.1-0.6-2.3-0.9-3.4-0.9c-2.4,0-4.8,1.3-6.1,3.6L20.1,45c-1.9,3.4-0.7,7.6,2.7,9.5
			l27.1,15.3c1.6,0.9,3.5,1.1,5.3,0.6s3.3-1.7,4.2-3.3l15.3-27.1C76.6,36.7,75.4,32.4,72,30.5z M61.7,45.4L59,43.9l-3.1,5.4
			l-2.7-1.5L50.2,53l2.7,1.5l3.1-5.3l2.7,1.5l-6.2,10.7l-2.7-1.5l1.5-2.7l-2.7-1.5l-1.5,2.7l-5.4-3.1l1.5-2.7l-2.6-1.5l-1.5,2.7
			l-8-4.6l1.5-2.7L30,44.9l1.5-2.7l2.7,1.5l0,0l1.5-2.7l-2.7-1.5l1.5-2.7l2.7,1.5l-1.5,2.7l2.7,1.5L40,40l2.7,1.5l1.5-2.7l-2.7-1.5
			L40,40l-2.7-1.5l1.5-2.6l-2.7-1.5l6.2-10.7l16,9.2l-1.5,2.7l-5.3-3.1l-3.1,5.3l2.6,1.5l-1.5,2.7l2.7,1.5l-1.5,2.7l2.7,1.5l3.1-5.4
			L51,39.2l1.5-2.7l2.7,1.5l0,0l1.5-2.7l2.7,1.5l1.5-2.7l2.7,1.5l-1.5,2.7L59.4,37l-1.5,2.7l2.7,1.5l0,0l1.5-2.7l2.7,1.5L61.7,45.4z
			"/>
	</g>
</g>
<g id="icoon__x23_4" class="st0">
	<g class="st1">
		<path class="st2" d="M47.4,32.3c1.2,0,2.3,0.2,3.3,0.6L69.3,0.6C68.2,0.2,67.1,0,66.1,0H28.7c-1,0-2.1,0.2-3.1,0.6l18.6,32.2
			C45.1,32.5,46.2,32.3,47.4,32.3z"/>
		<path class="st2" d="M40.6,34.8L22.1,2.6c-0.9,0.7-1.6,1.5-2.1,2.4L1.2,37.5c-0.5,0.9-0.8,1.9-1,3h37.1
			C37.8,38.3,39,36.3,40.6,34.8z"/>
		<path class="st2" d="M47.4,52.8c-5,0-9.1-3.5-10.1-8.3H0.2c0.2,1.1,0.5,2.2,1,3L19.9,80c1.6,2.8,5.5,5,8.7,5h37.5
			c3.2,0,7.1-2.3,8.7-5l18.7-32.4c0.5-0.9,0.8-1.9,1-3H57.4C56.5,49.2,52.4,52.8,47.4,52.8z"/>
	</g>
	<g class="st1">
		<path class="st2" d="M72.8,26.1c0.5,0,1,0.3,1.2,0.7c0.4,0.6,0.2,1.4-0.4,1.9L57.8,40.5h36.7c-0.2-1.1-0.5-2.2-1-3L74.8,5
			c-0.5-0.9-1.3-1.7-2.1-2.4L54.3,34.5l17.9-8.2C72.4,26.2,72.6,26.1,72.8,26.1z"/>
	</g>
	<path class="st4" d="M72.8,27.6L50,38c-1.5-0.9-3.5-1-5.2-0.1c-2.5,1.4-3.4,4.6-2,7.1c1.4,2.5,4.6,3.4,7.1,2
		c1.7-0.9,2.6-2.6,2.7-4.4L72.8,27.6z"/>
</g>
<g id="icoon__x23_3" class="st0">
	<path class="st4" d="M28.7,85c-3.2,0-7.1-2.3-8.7-5L1.2,47.6c-1.6-2.8-1.6-7.3,0-10.1L19.9,5c1.6-2.8,5.5-5,8.7-5h37.5
		c3.2,0,7.1,2.3,8.7,5l18.7,32.4c1.6,2.8,1.6,7.3,0,10.1L74.8,80c-1.6,2.8-5.5,5-8.7,5L28.7,85L28.7,85z"/>
	<g class="st1">
		<g>
			<path class="st3" d="M43.1,39.1c-2.4,0-5.3,1.2-5.3,2.6c0,0.8,0,1.7,3.4,3.1c1.3,0.5,2.8,0.9,4.4,1.1l2.7-4.6
				c-1.9-1.5-2.8-2-4.7-2.2C43.5,39.1,43.3,39.1,43.1,39.1z"/>
			<path class="st5" d="M84.4,51L76,36.3c-0.7-1.3-2.5-2.3-3.9-2.3h-8.3h-8.6c-1.4,0-3.2,1-3.9,2.3l-2.8,4.9l-2.7,4.6
				c2.7,0.4,5.9,0.4,9.9,0.4l3.3,0c3.4,0,6.2,1.5,7.7,4.2c1.4,2.5,1.5,5.5,0.2,7.8c-1.2,2.1-3.4,3.3-6.1,3.3l-0.3,0l-1.9-0.1
				c-2.5-0.1-5.1-0.2-7.8-0.2c-1.6,0-3,0-4.4,0.1l5,8.7c0.7,1.3,2.5,2.3,3.9,2.3H72c1.4,0,3.2-1,3.9-2.3l8.5-14.6
				C85.1,54.3,85.1,52.2,84.4,51z"/>
		</g>
		<g>
			<path class="st3" d="M36.4,41.7c0,1.6,0.6,2.9,4.3,4.4c0.9,0.3,1.8,0.6,2.7,0.8l4.5-7.8c-1.3-0.9-2.4-1.3-4.1-1.5
				C40.8,37.4,36.4,38.8,36.4,41.7z"/>
			<path class="st5" d="M58.9,47.7c-6.8,0-11.6,0.1-15.5-0.8c-1-0.2-1.9-0.5-2.7-0.8c-3.8-1.5-4.3-2.8-4.3-4.4c0-2.9,4.5-4.3,7.4-4
				c1.7,0.2,2.8,0.6,4.1,1.5l2-3.5c1-1.7,3.2-3,5.2-3h4.6c-6.9-5.4-10.3-9-16.6-9c-9.9,0-9.8,5.9-26.4,5.9c-0.2,0-0.3,0-0.4,0V54
				c0.1,0,0.3,0,0.4,0c8,0,11.3,9.5,18.6,7.6c2.8-0.7,5.7-1.2,8.6-1.4c5.7-0.5,11.5-0.2,16.6,0C68.8,60.5,68.2,47.7,58.9,47.7z"/>
		</g>
	</g>
	<path class="st6" d="M8,54.5c0.7,1.4,2.4,2.5,3.8,2.5s2.4-1.3,2.4-2.8v-24c0-1.6-1.1-2.8-2.4-2.8s-3,1.1-3.8,2.5l-5.2,9.8
		c-0.7,1.4-0.7,3.6,0,5L8,54.5z"/>
	<text transform="matrix(1 0 0 1 129.019 45.9046)" class="st1 st10" style="font-family:'MyriadPro-Regular';">goed idee slecht uit gevoerd </text>
</g>
<g id="icoon__x23_2" class="st0">
	<g class="st1">
		<path class="st3" d="M43.2,36.2c-0.9,1.3-1.9,2.7-2.8,4.3"/>
		<path class="st3" d="M45.8,37.1c2-3.9,4.6-8.1,7.9-12.6c0,0-4.7,3.8-9.8,10.8"/>
		<path class="st3" d="M43,43c0.6-1.5,1.3-3,2.1-4.6l0,0"/>
		<g>
			<path class="st2" d="M46,50.3l-5.2-1.2c0.5-1.5,1-3.2,1.7-4.9l13.4-1.8L43,43c0.6-1.5,1.3-3,2.1-4.6l7.2-2l-6.5,0.6
				c2-3.9,4.6-8.1,7.9-12.6c0,0-4.7,3.8-9.8,10.8l-2.6-3.1l1.9,4l-2.8,4.3l-4.1-4.7l3.6,5.6c-1.1,1.8-2.1,3.8-3.1,5.9l-3.6-4.9
				l3,6.3c-1,2.4-1.9,4.9-2.7,7.6l0.3,2.1c0.2,1.5,1.5,2.4,2.8,2.1l2-0.5c0.2-2.8,0.7-6.1,1.7-9.7L46,50.3L46,50.3z"/>
			<path class="st2" d="M93.7,37.3L75,4.9c-1.6-2.8-5.5-5-8.7-5H28.8c-3.2,0-7.1,2.3-8.7,5L1.3,37.3c-1.6,2.8-1.6,7.3,0,10.1
				l18.7,32.4c1.6,2.8,5.5,5,8.7,5h37.5c3.2,0,7.1-2.3,8.7-5l18.7-32.4C95.3,44.7,95.3,40.1,93.7,37.3z M69.7,32.2L56.7,53
				c-1.1,1.8-3.1,3.5-4.4,3.8L38.8,60c-0.6,8.4,1.3,13.2-0.3,14.5c-3,2.6-7.2-0.5-7.2-0.5c-0.1-6.5,0.8-12.5,2.3-17.8l-2.2-15
				c-0.2-1.5,0.5-4.1,1.6-5.9l13-20.8c1.1-1.8,3.1-3.5,4.4-3.8L65.9,7c1.3-0.3,2.6,0.6,2.8,2.1l2.6,17.2
				C71.5,27.8,70.8,30.4,69.7,32.2z"/>
		</g>
		<line class="st3" x1="42.5" y1="44.2" x2="55.9" y2="42.4"/>
		<line class="st3" x1="45.1" y1="38.4" x2="52.3" y2="36.4"/>
		<line class="st3" x1="43.9" y1="35.2" x2="41.3" y2="32.1"/>
	</g>
</g>
<g id="icoon__x23_1" class="st0">
	<path class="st4" d="M28.7,85c-3.2,0-7.1-2.3-8.7-5L1.2,47.6c-1.6-2.8-1.6-7.3,0-10.1L19.9,5c1.6-2.8,5.5-5,8.7-5h37.5
		c3.2,0,7.1,2.3,8.7,5l18.7,32.4c1.6,2.8,1.6,7.3,0,10.1L74.8,80c-1.6,2.8-5.5,5-8.7,5L28.7,85L28.7,85z"/>
	<g class="st1">
		<path class="st5" d="M71.8,57.1l-9-6.3c-0.4-0.3-0.7-0.8-0.7-1.3V31.4c0-1.3,1.5-2.1,2.5-1.3l9,6.3c0.4,0.3,0.7,0.8,0.7,1.3v18.1
			C74.3,57.1,72.8,57.9,71.8,57.1z"/>
		<polygon class="st7" points="54.9,50.6 73.2,46.1 62.9,39.3 44.7,43.8 		"/>
		<path class="st7" d="M61.2,38.5l-12.9,2.7c-0.8,0.2-1.7-0.4-1.7-1.3L45,18.3c-0.1-0.7,0.4-1.4,1.1-1.5l12.9-2.7
			c0.8-0.2,1.7,0.4,1.7,1.3L62.3,37C62.4,37.7,61.9,38.4,61.2,38.5z"/>
		<path class="st7" d="M54,61.9l-9-6.3c-0.4-0.3-0.7-0.8-0.7-1.3V36.2c0-1.3,1.5-2.1,2.5-1.3l9,6.3c0.4,0.3,0.7,0.8,0.7,1.3v18.1
			C56.5,61.9,55.1,62.6,54,61.9z"/>
	</g>
	<g class="st1">
		<path class="st7" d="M50.1,63.6l-9-6.3c-0.4-0.3-0.7-0.8-0.7-1.3V38c0-1.3,1.5-2.1,2.5-1.3l9,6.3c0.4,0.3,0.7,0.8,0.7,1.3v18.1
			C52.6,63.6,51.2,64.4,50.1,63.6z"/>
		<polygon class="st7" points="33.3,57.1 51.5,52.6 41.3,45.8 23,50.3 		"/>
		<path class="st7" d="M39.5,45l-12.9,2.7c-0.8,0.2-1.7-0.4-1.7-1.3l-1.5-21.6c-0.1-0.7,0.4-1.4,1.1-1.5l12.9-2.7
			c0.8-0.2,1.7,0.4,1.7,1.3l1.5,21.6C40.7,44.2,40.2,44.9,39.5,45z"/>
		<path class="st7" d="M32.4,68.4l-9-6.3c-0.4-0.3-0.7-0.8-0.7-1.3V42.7c0-1.3,1.5-2.1,2.5-1.3l9,6.3c0.4,0.3,0.7,0.8,0.7,1.3v18.1
			C34.9,68.4,33.4,69.1,32.4,68.4z"/>
	</g>
	<g class="st1">
		<path class="st5" d="M58.2,34.3c-0.4,0-0.7-0.2-1-0.4L46.5,22.4c-0.4-0.4-0.5-1-0.3-1.5s0.7-0.9,1.3-0.9h5.5
			c0.2,0,0.4-0.2,0.4-0.4V9.3c0-0.8,0.6-1.4,1.4-1.4h6.5c0.8,0,1.4,0.6,1.4,1.4v10.2c0,0.2,0.2,0.4,0.4,0.4h5.7
			c0.6,0,1.1,0.3,1.3,0.8c0.2,0.5,0.2,1.1-0.2,1.5L59.3,33.8C59,34.1,58.6,34.3,58.2,34.3L58.2,34.3z"/>
		<path class="st2" d="M61.3,8.4c0.5,0,0.9,0.4,0.9,0.9v10.2c0,0.5,0.4,0.9,0.9,0.9h5.7c0.8,0,1.2,0.9,0.7,1.5L58.9,33.4
			c-0.2,0.2-0.4,0.3-0.7,0.3c-0.2,0-0.5-0.1-0.7-0.3L46.8,22c-0.6-0.6-0.2-1.6,0.7-1.6h5.5c0.5,0,0.9-0.4,0.9-0.9V9.3
			c0-0.5,0.4-0.9,0.9-0.9H61.3 M61.3,7.4h-6.5c-1.1,0-1.9,0.9-1.9,1.9v10.2h-5.4c-0.8,0-1.5,0.5-1.8,1.2c-0.3,0.7-0.1,1.5,0.4,2.1
			l10.7,11.5c0.4,0.4,0.9,0.6,1.4,0.6c0.6,0,1.1-0.2,1.5-0.7l10.6-11.4c0.5-0.6,0.6-1.4,0.3-2.1c-0.3-0.7-1-1.1-1.8-1.1h-5.6V9.3
			C63.3,8.2,62.4,7.4,61.3,7.4L61.3,7.4z"/>
	</g>
</g>
<g id="icoon__x23_0" class="st0">
	<path class="st4" d="M28.7,85c-3.2,0-7.1-2.3-8.7-5L1.2,47.6c-1.6-2.8-1.6-7.3,0-10.1L19.9,5c1.6-2.8,5.5-5,8.7-5h37.5
		c3.2,0,7.1,2.3,8.7,5l18.7,32.4c1.6,2.8,1.6,7.3,0,10.1L74.8,80c-1.6,2.8-5.5,5-8.7,5L28.7,85L28.7,85z"/>
	<g class="st1">
		<path id="Facebook_3_" class="st5" d="M27.5,28.7c0,1.9,0,10.2,0,10.2h-7.4v12.5h7.4v34.4h15.2V51.5h10.2c0,0,1-6,1.4-12.6
			c-1.3,0-11.5,0-11.5,0s0-7.3,0-8.6c0-1.3,1.7-3,3.3-3c1.6,0,5.1,0,8.3,0c0-1.7,0-7.6,0-13c-4.3,0-9.1,0-11.2,0
			C27.2,14.3,27.5,26.8,27.5,28.7z"/>
	</g>
</g>
<g id="icoon__x23_0_kopie_2" class="st0">
	<path class="st4" d="M28.7,85c-3.2,0-7.1-2.3-8.7-5L1.2,47.6c-1.6-2.8-1.6-7.3,0-10.1L19.9,5c1.6-2.8,5.5-5,8.7-5h37.5
		c3.2,0,7.1,2.3,8.7,5l18.7,32.4c1.6,2.8,1.6,7.3,0,10.1L74.8,80c-1.6,2.8-5.5,5-8.7,5L28.7,85L28.7,85z"/>
	<path class="st6" d="M83,91.9H27.7c-2.3,0-4.2-1.9-4.2-4.2V18.8c0-2.3,1.9-4.2,4.2-4.2h65.7c2.3,0,4.2,1.9,4.2,4.2v58.1
		C97.5,79.2,85.3,91.9,83,91.9z"/>
	<rect x="27.3" y="23.9" class="st8" width="7" height="7"/>
	<rect x="27.3" y="36.1" class="st8" width="7" height="7"/>
	<line class="st8" x1="39.5" y1="39.4" x2="82.5" y2="39.4"/>
	<rect x="27.3" y="48.1" class="st8" width="7" height="7"/>
	<line class="st8" x1="39.5" y1="51.4" x2="82.5" y2="51.4"/>
	<rect x="27.3" y="60.4" class="st8" width="7" height="7"/>
	<line class="st8" x1="39.5" y1="63.6" x2="82.5" y2="63.6"/>
	<text transform="matrix(1 0 0 1 40.019 31.136)" class="st4 st9 st10">Guest</text>
</g>
<g id="icoon__x23_0_kopie_3" class="st0">
	<path class="st4" d="M28.7,85c-3.2,0-7.1-2.3-8.7-5L1.2,47.6c-1.6-2.8-1.6-7.3,0-10.1L19.9,5c1.6-2.8,5.5-5,8.7-5h37.5
		c3.2,0,7.1,2.3,8.7,5l18.7,32.4c1.6,2.8,1.6,7.3,0,10.1L74.8,80c-1.6,2.8-5.5,5-8.7,5L28.7,85L28.7,85z"/>
	<path class="st6" d="M83,91.9H27.7c-2.3,0-4.2-1.9-4.2-4.2V18.8c0-2.3,1.9-4.2,4.2-4.2h65.7c2.3,0,4.2,1.9,4.2,4.2v58.1
		C97.5,79.2,85.3,91.9,83,91.9z"/>
	<text transform="matrix(1 0 0 1 46.77 83.7522)" class="st4 st9 st11">€ ..,-</text>
	<line class="st12" x1="37.8" y1="25.9" x2="84" y2="25.9"/>
	<line class="st12" x1="37.8" y1="40.4" x2="84" y2="40.4"/>
	<line class="st12" x1="37.8" y1="55.1" x2="84" y2="55.1"/>
</g>
<g id="icoon__x23_0_kopie_4" class="st0">
	<path class="st4" d="M28.7,85c-3.2,0-7.1-2.3-8.7-5L1.2,47.6c-1.6-2.8-1.6-7.3,0-10.1L19.9,5c1.6-2.8,5.5-5,8.7-5h37.5
		c3.2,0,7.1,2.3,8.7,5l18.7,32.4c1.6,2.8,1.6,7.3,0,10.1L74.8,80c-1.6,2.8-5.5,5-8.7,5L28.7,85L28.7,85z"/>
	<path class="st6" d="M83,91.9H27.7c-2.3,0-4.2-1.9-4.2-4.2V18.8c0-2.3,1.9-4.2,4.2-4.2h65.7c2.3,0,4.2,1.9,4.2,4.2v58.1
		C97.5,79.2,85.3,91.9,83,91.9z"/>
	<text transform="matrix(1 0 0 1 46.77 83.7522)" class="st4 st9 st11">€ ..,-</text>
	<line class="st12" x1="37.8" y1="25.9" x2="84" y2="25.9"/>
	<line class="st12" x1="37.8" y1="40.4" x2="84" y2="40.4"/>
	<line class="st12" x1="37.8" y1="55.1" x2="84" y2="55.1"/>
</g>
<path class="st2" d="M93.6,37.5L74.8,5c-1.6-2.8-5.5-5-8.7-5H28.7c-3.2,0-7.1,2.3-8.7,5L1.2,37.5c-1.6,2.8-1.6,7.3,0,10.1L19.9,80
	c1.6,2.8,5.5,5,8.7,5v0h37.5c3.2,0,7.1-2.3,8.7-5l18.7-32.4C95.2,44.8,95.2,40.2,93.6,37.5z M78.2,32.4l-5.4,8.3
	c-0.3,0.5-1.1,0.7-1.6,0.3l-6.8-4.4c-0.8-0.5-1.8,0.1-1.8,1v27.3c0,0.6-0.5,1.2-1.2,1.2H33.1c-0.6,0-1.2-0.5-1.2-1.2V37.8
	c0-0.9-1-1.5-1.8-1L23.6,41c-0.5,0.3-1.3,0.2-1.6-0.3l-5.4-8.3c-0.3-0.5-0.2-1.3,0.3-1.6l17.8-11.6c0.5-0.3,1.3-0.2,1.6,0.3l0.7,1
	h20.9l0.7-1c0.3-0.5,1.1-0.7,1.6-0.3l17.8,11.6C78.4,31.1,78.5,31.8,78.2,32.4z"/>
<g id="icoon__x23_0_kopie_5" class="st0">
	<path class="st4" d="M28.7,85c-3.2,0-7.1-2.3-8.7-5L1.2,47.6c-1.6-2.8-1.6-7.3,0-10.1L19.9,5c1.6-2.8,5.5-5,8.7-5h37.5
		c3.2,0,7.1,2.3,8.7,5l18.7,32.4c1.6,2.8,1.6,7.3,0,10.1L74.8,80c-1.6,2.8-5.5,5-8.7,5L28.7,85L28.7,85z"/>
</g>
</svg>
