<?xml version="1.0" encoding="utf-8"?>
<!-- Generator: Adobe Illustrator 21.0.2, SVG Export Plug-In . SVG Version: 6.00 Build 0)  -->
<svg version="1.1" id="Layer_1" xmlns="http://www.w3.org/2000/svg" xmlns:xlink="http://www.w3.org/1999/xlink" x="0px" y="0px"
	 viewBox="0 0 184.7 167" style="enable-background:new 0 0 184.7 167;" xml:space="preserve">
<style type="text/css">
	.st0{fill:#002856;}
</style>
<g>
	<path class="st0" d="M184.9,76.8L144.4,6.7C142.3,3,137.1,0,132.8,0H51.9c-4.3,0-9.5,3-11.6,6.7L-0.2,76.8c-2.1,3.7-2.1,9.7,0,13.4
		l40.5,70.1c2.1,3.7,7.3,6.7,11.6,6.7h80.9c4.3,0,9.5-3,11.6-6.7l40.5-70.1C187,86.5,187,80.5,184.9,76.8z M182.4,93.3l-36.5,63.2
		c-3.1,5.4-10.8,9.8-17,9.8h-73c-6.2,0-13.9-4.4-17-9.8L2.3,93.3c-3.1-5.4-3.1-14.2,0-19.6l36.5-63.2C42,5,49.6,0.6,55.8,0.6h73
		c6.2,0,13.9,4.4,17,9.8l36.5,63.2C185.5,79.1,185.5,87.9,182.4,93.3z"/>
	<path class="st0" d="M145.9,10.4c-3.1-5.4-10.8-9.8-17-9.8h-73c-6.2,0-13.9,4.4-17,9.8L2.3,73.7c-3.1,5.4-3.1,14.2,0,19.6
		l36.5,63.2c3.1,5.4,10.8,9.8,17,9.8h73c6.2,0,13.9-4.4,17-9.8l36.5-63.2c3.1-5.4,3.1-14.2,0-19.6L145.9,10.4z M115,135
		c-4.2,1-9.1,1.5-14.7,1.5c-12.3,0-21.7-3-28.1-8.9c-6.5-5.9-10.8-14.3-12.8-25.1H48.8V87.9h9.3c-0.1-1.1-0.1-1.9-0.1-2.5
		c0-0.6,0-1.3,0-2.1c0-0.8,0-1.6,0-2.5s0-1.7,0.1-2.5h-9.3V63.7H60c2.6-11,7.4-19.3,14.6-24.9c7.2-5.6,16.4-8.4,27.6-8.4
		c4.4,0,8.2,0.3,11.3,1c3.1,0.7,6.3,1.6,9.4,2.8l-4.6,17.1c-2.4-0.8-4.8-1.4-7.2-2c-2.5-0.5-5.5-0.8-9.1-0.8
		c-5.9,0-10.5,1.3-13.8,3.8c-3.3,2.6-5.7,6.3-7.1,11.3h32.7L111,78.3H79.1c-0.1,1.1-0.1,2-0.1,2.7s0,1.5,0,2.3c0,0.8,0,1.5,0,2.1
		c0,0.6,0,1.4,0.1,2.5h30.1l-2.8,14.6H81c1.7,5.9,4.2,10,7.5,12.3c3.3,2.3,7.5,3.5,12.5,3.5c3.2,0,6.5-0.3,9.9-0.9
		c3.3-0.6,6.7-1.6,10-2.9l4.3,16.9C122.6,132.8,119.2,134,115,135z"/>
</g>
</svg>
