<?xml version="1.0" encoding="utf-8"?>
<!-- Generator: Adobe Illustrator 21.0.0, SVG Export Plug-In . SVG Version: 6.00 Build 0)  -->
<svg version="1.1" id="Layer_1" xmlns="http://www.w3.org/2000/svg" xmlns:xlink="http://www.w3.org/1999/xlink" x="0px" y="0px"
	 viewBox="0 0 283.46 283.46" enable-background="new 0 0 283.46 283.46" xml:space="preserve">
<path fill="#BCD9EA" d="M82.352,264.215c-6.236,0-13.89-4.419-17.008-9.819L5.965,151.547c-3.118-5.4-3.118-14.238,0-19.639
	L65.344,29.06c3.118-5.4,10.772-9.819,17.008-9.819h118.76c6.236,0,13.89,4.419,17.008,9.819l59.38,102.849
	c3.118,5.4,3.118,14.238,0,19.639l-59.38,102.849c-3.118,5.4-10.771,9.819-17.008,9.819H82.352z"/>
<g>
	<path fill="#002856" d="M234.271,135.035l-40.473-70.102c-2.126-3.681-7.343-6.693-11.593-6.693h-80.947
		c-4.25,0-9.467,3.012-11.592,6.693l-40.473,70.102c-2.125,3.681-2.125,9.704,0,13.386l40.473,70.102
		c2.125,3.681,7.342,6.693,11.592,6.693h80.947c4.25,0,9.467-3.012,11.593-6.693l40.473-70.102
		C236.397,144.739,236.397,138.716,234.271,135.035z M231.739,151.547l-36.499,63.219c-3.118,5.401-10.771,9.82-17.008,9.82h-72.999
		c-6.236,0-13.89-4.418-17.008-9.819l-36.499-63.219c-3.118-5.4-3.118-14.238,0-19.639l36.499-63.219
		c3.118-5.4,10.772-9.819,17.008-9.819h72.999c6.236,0,13.89,4.419,17.008,9.82l36.499,63.219
		C234.857,137.309,234.857,146.146,231.739,151.547z"/>
	<path fill="#002856" d="M195.24,68.689c-3.118-5.401-10.771-9.82-17.008-9.82h-72.999c-6.236,0-13.89,4.419-17.008,9.819
		l-36.499,63.219c-3.118,5.4-3.118,14.238,0,19.639l36.499,63.219c3.118,5.401,10.772,9.819,17.008,9.819h72.999
		c6.236,0,13.89-4.419,17.008-9.82l36.499-63.219c3.118-5.4,3.118-14.238,0-19.639L195.24,68.689z M164.397,193.234
		c-4.177,1.032-9.062,1.547-14.662,1.547c-12.283,0-21.664-2.971-28.148-8.915c-6.484-5.943-10.758-14.318-12.821-25.127h-10.61
		v-14.59h9.284c-0.099-1.08-0.147-1.916-0.147-2.506c0-0.589,0-1.275,0-2.062c0-0.785,0-1.622,0-2.506
		c0-0.884,0.049-1.718,0.147-2.505h-9.284v-14.59h11.2c2.554-11.003,7.417-19.306,14.589-24.906c7.171-5.601,16.358-8.4,27.559-8.4
		c4.422,0,8.203,0.346,11.348,1.031c3.143,0.689,6.287,1.622,9.432,2.801l-4.567,17.095c-2.358-0.785-4.767-1.448-7.222-1.989
		c-2.457-0.539-5.502-0.811-9.138-0.811c-5.894,0-10.488,1.277-13.779,3.832c-3.292,2.556-5.674,6.337-7.146,11.348h32.717
		l-2.8,14.59h-31.833c-0.1,1.082-0.148,1.989-0.148,2.726c0,0.737,0,1.5,0,2.285c0,0.787,0,1.474,0,2.062
		c0,0.59,0.048,1.426,0.148,2.506h30.063l-2.8,14.59H130.43c1.669,5.895,4.175,9.998,7.516,12.306
		c3.339,2.31,7.517,3.463,12.527,3.463c3.241,0,6.532-0.295,9.874-0.884c3.339-0.59,6.679-1.571,10.021-2.948l4.274,16.948
		C171.988,191,168.574,192.203,164.397,193.234z"/>
</g>
</svg>
