<?xml version="1.0" encoding="utf-8"?>
<!-- Generator: Adobe Illustrator 21.0.2, SVG Export Plug-In . SVG Version: 6.00 Build 0)  -->
<svg version="1.1" id="Layer_1" xmlns="http://www.w3.org/2000/svg" xmlns:xlink="http://www.w3.org/1999/xlink" x="0px" y="0px"
	 viewBox="0 0 184.7 165.7" style="enable-background:new 0 0 184.7 165.7;" xml:space="preserve">
<style type="text/css">
	.st0{fill:#002856;}
	.st1{fill:#BCD9EA;}
</style>
<g>
	<path class="st0" d="M68.7,80.7c0-1.4,0-2.8,0-4.2c-1.5,0-2.8,0-4.2,0c0,1.4,0,2.8,0,4.2C66,80.7,67.4,80.7,68.7,80.7z"/>
	<path class="st0" d="M94.3,119.2c-1.4,0-2.7,0-4.1,0c0,1.4,0,2.8,0,4.2c1.4,0,2.7,0,4.1,0C94.3,121.9,94.3,120.5,94.3,119.2z"/>
	<path class="st0" d="M73.1,89.1C73.1,89.1,73.1,89.1,73.1,89.1C73.1,89.1,73.1,89.1,73.1,89.1c4.3,0,8.6,0,12.9,0c0,0,0,0,0,0
		c0,0,0,0,0,0c0-1.4,0-2.8,0-4.3c0,0,0,0,0,0c0,0,0,0,0,0c-4.3,0-8.5,0-12.8,0C73.1,86.3,73.1,87.7,73.1,89.1z"/>
	<path class="st0" d="M90.2,127.7c0-1.5,0-2.9,0-4.3c-2.9,0-5.7,0-8.6,0c0,2.8,0,5.7,0,8.5c0,0,0,0,0,0c0,0,0,0,0,0
		c1.4,0,2.8,0,4.3,0c0,0,0,0,0,0c0,0,0,0,0,0c0-1.4,0-2.7,0-4.2C87.4,127.7,88.8,127.7,90.2,127.7z"/>
	<path class="st0" d="M81.7,55C81.6,55,81.6,55,81.7,55C81.6,55,81.6,55,81.7,55c-1.4,0-2.8,0-4.3,0c0,1.5,0,2.9,0,4.3c0,0,0,0,0,0
		c0,0,0,0,0,0c1.4,0,2.8,0,4.3,0C81.7,57.8,81.7,56.4,81.7,55z"/>
	<path class="st0" d="M98.6,127.8c-1.4,0-2.8,0-4.3,0c0,1.4,0,2.8,0,4.1c1.4,0.1,2.9,0.1,4.3,0.2C98.6,130.5,98.6,129.1,98.6,127.8z
		"/>
	<path class="st0" d="M73.1,93.4c0-1.4,0-2.8,0-4.3c0,0,0,0,0,0c0,0,0,0,0,0c-1.4,0-2.8,0-4.3,0c0,1.4,0,2.8,0,4.3
		C70.2,93.4,71.6,93.4,73.1,93.4C73.1,93.4,73.1,93.4,73.1,93.4C73.1,93.4,73.1,93.4,73.1,93.4z"/>
	<path class="st0" d="M90.2,59.3C90.2,59.3,90.2,59.3,90.2,59.3C90.2,59.3,90.2,59.3,90.2,59.3c0-1.4,0-2.8,0-4.3
		c-1.5,0-2.9,0-4.3,0c0,0,0,0,0,0c0,0,0,0,0,0c0,1.4,0,2.8,0,4.3C87.4,59.3,88.8,59.3,90.2,59.3z"/>
	<path class="st0" d="M68.8,84.9c-1.5,0-2.9,0-4.3,0c0,1.4,0,2.8,0,4.2c1.4,0,2.8,0,4.3,0C68.8,87.7,68.8,86.3,68.8,84.9z"/>
	<path class="st0" d="M107.1,67.9c-1.5,0-2.8,0-4.3,0c0,1.5,0,2.8,0,4.2c1.4,0,2.9,0,4.3,0C107.1,70.6,107.1,69.3,107.1,67.9z"/>
	<path class="st0" d="M98.6,114.8c0-1.4,0-2.8,0-4.3c-1.5,0-2.9,0-4.3,0c0,1.4,0,2.8,0,4.3C95.8,114.8,97.2,114.8,98.6,114.8z"/>
	<path class="st0" d="M60.2,76.5C60.2,76.5,60.2,76.5,60.2,76.5L60.2,76.5L60.2,76.5C60.2,76.4,60.2,76.4,60.2,76.5
		c-1.4,0-2.8,0-4.3,0c0,1.5,0,2.9,0,4.3c0,0,0,0,0,0c0,0,0,0,0,0c1.4,0,2.8,0,4.3,0C60.2,79.2,60.2,77.9,60.2,76.5z"/>
	<path class="st0" d="M81.6,63.6c0,1.5,0,2.8,0,4.2c0,0,0,0,0,0c0,0,0,0,0,0c1.4,0,2.8,0,4.3,0c0,0,0,0,0,0c0,0,0,0,0,0
		c0-1.4,0-2.8,0-4.2C84.4,63.6,83.1,63.6,81.6,63.6z"/>
	<path class="st0" d="M68.8,93.4c-1.4,0-2.8,0-4.3,0c0-1.5,0-2.9,0-4.3c-1.4,0-2.8,0-4.3,0c0,2.9,0,5.7,0,8.5c0,0,0,0,0,0
		c0,0,0,0,0,0c2.8,0,5.7,0,8.5,0C68.8,96.2,68.8,94.8,68.8,93.4z"/>
	<path class="st0" d="M77.4,119.2c0,1.4,0,2.8,0,4.2c1.5,0,2.8,0,4.2,0c0-1.4,0-2.8,0-4.2C80.1,119.2,78.8,119.2,77.4,119.2z"/>
	<path class="st0" d="M132.9,89.1C132.9,89.1,132.9,89.1,132.9,89.1c1.4,0,2.9,0,4.3,0c0-1.5,0-2.8,0-4.3c-1.5,0-2.9,0-4.3,0
		c0,0,0,0,0,0c0,0,0,0,0,0C132.9,86.3,132.9,87.7,132.9,89.1C132.9,89.1,132.9,89.1,132.9,89.1z"/>
	<path class="st0" d="M43.1,55c7.2,0,14.3,0,21.4,0c0-7.2,0-14.2,0-21.3c-7.2,0-14.2,0-21.4,0C43.1,40.8,43.1,47.8,43.1,55z
		 M47.4,37.9c4.3,0,8.4,0,12.7,0c0,4.2,0,8.4,0,12.7c-4.2,0-8.4,0-12.7,0C47.4,46.4,47.4,42.2,47.4,37.9z"/>
	<path class="st0" d="M77.4,97.7c0-1.4,0-2.8,0-4.3c-1.5,0-2.9,0-4.3,0c0,0,0,0,0,0c0,0,0,0,0,0c0,1.4,0,2.9,0,4.3
		C74.6,97.7,76,97.7,77.4,97.7C77.3,97.7,77.3,97.7,77.4,97.7C77.4,97.7,77.4,97.7,77.4,97.7z"/>
	<path class="st0" d="M111.5,114.8c4.3,0,8.5,0,12.8,0c0-4.3,0-8.5,0-12.8c-4.3,0-8.5,0-12.8,0C111.5,106.3,111.5,110.5,111.5,114.8
		z M115.9,106.3c1.4,0,2.7,0,4.1,0c0,1.4,0,2.7,0,4.1c-1.4,0-2.7,0-4.1,0C115.9,109.1,115.9,107.8,115.9,106.3z"/>
	<path class="st0" d="M182.4,73L145.9,9.8c-3.1-5.4-10.8-9.8-17-9.8h-73c-6.2,0-13.9,4.4-17,9.8L2.3,73c-3.1,5.4-3.1,14.2,0,19.6
		l36.5,63.2c3.1,5.4,10.8,9.8,17,9.8h73c6.2,0,13.9-4.4,17-9.8l36.5-63.2C185.5,87.3,185.5,78.4,182.4,73z M115.8,29.5
		c9.9,0,19.9,0,29.8,0c0,9.9,0,19.8,0,29.7c-10,0-19.9,0-29.8,0C115.8,49.3,115.8,39.5,115.8,29.5z M141.4,63.7c0,1.4,0,2.7,0,4.1
		c-1.4,0-2.7,0-4.1,0c0-1.4,0-2.7,0-4.1C138.6,63.7,140,63.7,141.4,63.7z M137.1,72.2c0,1.4,0,2.7,0,4.1c-1.4,0-2.7,0-4.1,0
		c0-1.3,0-2.7,0-4.1C134.4,72.2,135.7,72.2,137.1,72.2z M132.8,63.6c0,1.4,0,2.7,0,4.1c-1.4,0-2.7,0-4.1,0c0-1.4,0-2.7,0-4.1
		C130.1,63.6,131.4,63.6,132.8,63.6z M98.6,42.1c0-1.4,0-2.8,0-4.2c1.5,0,2.8,0,4.3,0c0-1.5,0-2.8,0-4.3c1.5,0,2.8,0,4.2,0
		c0,0,0,0,0,0l0,0c0,0,0,0,0,0c0,0,0,0,0,0c0-1.3,0-2.6,0-4c1.5,0,2.8,0,4.3,0c0,1.3,0,2.6,0,4c-1.4,0-2.8,0-4.3,0c0,0,0,0,0,0
		c0,0,0,0,0,0c0,2.4,0,4.8,0.1,7.3c0,1.8,0,3.6,0,5.5c-1.4,0-2.8,0-4.3,0c0,1.5,0,2.9,0,4.3c0,0,0,0,0,0c0,0,0,0,0,0
		c1.4,0,2.8,0,4.2,0c0,1.5,0,2.9,0,4.3c0,0,0,0,0,0h0l0,0c0,0,0,0,0,0c1.4,0,2.8,0,4.3,0c0,1.4,0,2.8,0,4.2c-1.4,0-2.7,0-4.3,0
		c0-1.4,0-2.8,0-4.2c0,0,0,0,0,0c0,0,0,0,0,0c-1.4,0-2.8,0-4.2,0c0,0,0,0,0,0l0,0c0,0,0,0,0,0c0,0,0,0,0,0c0,1.4,0,2.8,0,4.2
		c-1.4,0-2.7,0-4.1,0c0-1.3,0-2.7,0-4.2c1.4,0,2.8,0,4.1,0c0,0,0,0,0,0c0,0,0,0,0,0c0-1.4,0-2.8,0-4.2c0,0,0,0,0,0c0,0,0,0,0,0
		c-1.4,0-2.7,0-4.2,0c0-1.4,0-2.8,0-4.3c-2.9,0-5.6,0-8.4,0c0-2.9,0-5.7,0-8.5c1.3,0,2.6,0,4,0c0,1.4,0,2.8,0,4.2
		C95.8,42.1,97.2,42.1,98.6,42.1z M90.3,29.5c1.3,0,2.7,0,4,0c0,1.3,0,2.6,0,4c-1.3,0-2.6,0-4,0C90.3,32.1,90.3,30.9,90.3,29.5z
		 M81.7,29.5c1.4,0,2.7,0,4.1,0c0,2.8,0,5.5,0,8.3c-1.3,0-2.7,0-4.1,0C81.7,35,81.7,32.3,81.7,29.5z M73.1,33.7c1.4,0,2.7,0,4.1,0
		c0,1.4,0,2.8,0,4.1c-1.4,0-2.7,0-4.1,0C73.1,36.4,73.1,35.1,73.1,33.7z M39,29.5c9.9,0,19.8,0,29.7,0c0,9.9,0,19.8,0,29.7
		c-9.9,0-19.8,0-29.7,0C39,49.3,39,39.4,39,29.5z M39,84.9c1.3,0,2.7,0,4,0c0,5.7,0,11.3,0,17c-1.3,0-2.6,0-4,0
		C39,96.2,39,90.6,39,84.9z M68.7,136.2c-9.9,0-19.8,0-29.7,0c0-9.9,0-19.9,0-29.8c9.9,0,19.8,0,29.7,0
		C68.7,116.3,68.7,126.2,68.7,136.2z M145.7,84.8c-1.4,0-2.7,0-4.2,0c0,1.4,0,2.8,0,4.3c1.3,0,2.7,0,4.1,0c0,2.9,0,5.7,0,8.5
		c-2.8,0-5.7,0-8.5,0c0,0,0,0,0,0c0,0,0,0,0,0c0,1.4,0,2.8,0,4.3c-1.4,0-2.8,0-4.2,0c0,2.9,0,5.7,0,8.6c-1.5,0-2.8,0-4.2,0
		c0,1.4,0,2.8,0,4.3c2.8,0,5.6,0,8.4,0c0,0,0,0,0,0c0,0,0,0,0,0c0-2.2,0.1-4.3,0.1-6.5c0-0.6,0-1.2,0-2c1.4,0,2.8,0,4.3,0
		c0-1.5,0-2.8,0-4.2c1.4,0,2.8,0,4.2,0c0,2.8,0,5.5,0,8.4c-1.4,0-2.7,0-4.2,0c0,1.5,0,2.8,0,4.3c-1.5,0-2.9,0-4.4,0c0,0,0,0,0,0
		c0,0,0,0,0,0c0,1.4,0,2.8,0,4.3c0,0,0,0,0,0c0,0,0,0,0,0c2.8,0,5.6,0,8.5,0c0,5.7,0,11.4,0,17.1c-4.2,0-8.4,0-12.7,0
		c0-1.3,0-2.7,0-4.1c2.8,0,5.6,0,8.4,0c0-2.9,0-5.7,0-8.7c-1.4,0-2.8,0-4.3,0c0,0,0,0,0,0l0,0h0c0,0,0,0,0,0c0,1.4,0,2.8,0,4.3
		c-1.4,0-2.7,0-4.1,0c0-1.4,0-2.7,0-4.3c1.4,0,2.8,0,4.1,0c0,0,0,0,0,0c0,0,0,0,0,0c0-1.4,0-2.8,0-4.2c0,0,0,0,0,0c0,0,0,0,0,0
		c-2.8,0-5.6,0-8.5,0c0,1.5,0,2.8,0,4.3c-1.5,0-2.9,0-4.3,0c0,0,0,0,0,0c0,0,0,0,0,0c0,1.4,0,2.9,0,4.3c0,0,0,0,0,0c0,0,0,0,0,0
		c1.4,0,2.8,0,4.3,0c0,1.5,0,2.8,0,4.2c-1.4,0-2.7,0-4.3,0c0-1.4,0-2.8,0-4.2c0,0,0,0,0,0h0l0,0c0,0,0,0,0,0c-1.4,0-2.9,0-4.3-0.1
		c0,0,0,0,0,0c0,0,0,0,0,0c0,2.8,0,5.7,0,8.5c-1.3,0-2.7,0-4.1,0c0-2.8,0-5.6,0-8.6c1.4,0,2.7,0,4.1,0c0,0,0,0,0,0l0,0c0,0,0,0,0,0
		c0-1.4,0-2.8,0-4.2c0,0,0,0,0,0c0,0,0,0,0,0c-1.4,0-2.7,0-4.2,0c0-1.4,0-2.8,0-4.2c-5.8,0-11.4,0-17.2,0c0,1.4,0,2.8,0,4.2
		c4.2,0,8.4,0,12.7,0c0,1.4,0,2.8,0,4.2c-2.8,0-5.6,0-8.5,0c0,2.9,0,5.7,0,8.6c-2.9,0-5.7,0-8.5,0c-0.1-1.5-0.1-2.9-0.2-4.3
		c-1.5,0-3,0.1-4.5,0.1c-1.3,0-2.5,0-3.8,0c0,0,0,0,0,0c0,0,0,0,0,0c0,1.4,0,2.8,0,4.2c-1.4,0-2.8,0-4.3,0c0-1.4,0-2.8,0-4.2
		c0,0,0,0,0,0c0,0,0,0,0,0c-1.4,0-2.8,0-4.3,0c0,1.5,0,2.8,0,4.3c-1.5,0-2.8,0-4.2,0c0-7.1,0-14.2,0-21.3c1.4,0,2.7,0,4.2,0
		c0-1.5,0-2.8,0-4.3c-1.3,0-2.7,0-4.2,0c0-2.9,0-5.7,0-8.6c-4.3,0-8.5,0-12.9,0c0-1.5,0-2.9,0-4.3c0,0,0,0,0,0c0,0,0,0,0,0
		c-2.8,0-5.6,0-8.5,0c0,1.4,0,2.8,0,4.3c-1.5,0-2.8,0-4.2,0c0-4.2,0-8.4,0-12.7c2.8,0,5.6,0,8.5,0c0-2.9,0-5.7,0-8.4c0,0,0,0,0,0
		c0,0,0,0,0,0c-1.4,0-2.8,0-4.2,0c0,0,0,0,0,0c0,0,0,0,0,0c0,1.3,0,2.6,0,4c-1.4,0-2.8,0-4.2,0c0-1.3,0-2.6,0-4c1.4,0,2.8,0,4.2,0
		c0,0,0,0,0,0c0,0,0,0,0,0c0-4.2,0-8.5,0-12.8c-2.9,0-5.7,0-8.6,0c0,1.4,0,2.8,0,4.2c1.4,0,2.7,0,4.1,0c0,1.4,0,2.8,0,4.2
		c-1.3,0-2.7,0-4.2,0c0,1.5,0,2.8,0,4.3c-1.4,0-2.7,0-4.1,0c0-5.6,0-11.3,0-17c7,0,14,0,21.2,0c0,4.3,0,8.5,0,12.8c0,0,0,0,0,0
		c0,0,0,0,0,0c1.4,0,2.8,0,4.3,0c0-1.4,0-2.8,0-4.2c4.3,0,8.5,0,12.8,0c0,2.8,0,5.6,0,8.5c2.9,0,5.7,0,8.6,0c0,1.4,0,2.8,0,4.1
		c0,0,0,0,0,0c0,0,0,0,0,0c1.4,0,2.8,0,4.3,0c0-2.8,0-5.5,0-8.3c1.4,0,2.7,0,4.1,0c0,1.4,0,2.7,0,4.2c1.5,0,2.8,0,4.2,0
		c0,1.4,0,2.7,0,4.1c-1.4,0-2.7,0-4.2,0c0,1.4,0,2.8,0,4.3c-2.9,0-5.7,0-8.4,0c0,0,0,0,0,0c0,0,0,0,0,0c0,1.4,0,2.8,0,4.3
		c0,0,0,0,0,0c0,0,0,0,0,0c2.8,0,5.5,0,8.4,0c0,1.5,0,2.9,0,4.3c0,0,0,0,0,0c0,0,0,0,0,0c2.8,0,5.6,0,8.5,0c0,1.5,0,2.8,0,4.3
		c1.5,0,2.9,0,4.3,0c0-2.9,0-5.7,0-8.5c-1.4,0-2.8,0-4.2,0c0-1.4,0-2.8,0-4.2c1.4,0,2.7,0,4.1,0c0-1.5,0-2.8,0-4.3
		c-1.3,0-2.7,0-4.2,0c0-0.4,0-0.7,0-1.1c0-3.6,0-7.1,0-10.7c0-0.3,0-0.6-0.1-1c-1.4,0-2.7,0-4.2,0c0-1.4,0-2.8,0-4.3
		c-1.5,0-2.9,0-4.3,0c0,1.4,0,2.7,0,4.2c-1.4,0-2.7,0-4.1,0c0-1.3,0-2.7,0-4.2c-1.5,0-2.9,0-4.3,0c0,0,0,0,0,0c0,0,0,0,0,0
		c0,2.8,0,5.6,0,8.5c-1.4,0-2.8,0-4.3,0c0-2.8,0-5.6,0-8.5c0,0,0,0,0,0c0,0,0,0,0,0c-5.7,0-11.3,0-17,0c0-1.4,0-2.8,0-4.2
		c4.2,0,8.4,0,12.8,0c0-1.5,0-2.9,0-4.3c0,0,0,0,0,0c0,0,0,0,0,0c-1.4,0-2.8,0-4.2,0c0-2.9,0-5.6,0-8.5c1.4,0,2.7,0,4.2,0
		c0-1.5,0-2.8,0-4.3c-1.3,0-2.7,0-4.1,0c0-1.5,0-2.8,0-4.2c4.2,0,8.4,0,12.7,0c0,1.3,0,2.7,0,4.2c-1.4,0-2.7,0-4.2,0
		c0,2.9,0,5.8,0,8.6c0,0,0,0,0,0c0,0,0,0,0,0c1.4,0,2.8,0,4.3,0c0,0,0,0,0,0c0,0,0,0,0,0c0-1.4,0-2.8,0-4.2c2.8,0,5.6,0,8.3,0
		c0,2.8,0,5.6,0,8.5c-1.4,0-2.7,0-4.1,0c0,0,0,0,0,0c0,0,0,0,0,0c0,1.4,0,2.8,0,4.3c8.5,0,17,0,25.5,0c0,2.9,0,5.7,0,8.6
		c1.5,0,2.9,0,4.3,0c0-2.8,0-5.6,0-8.5c1.4,0,2.8,0,4.2,0c0,4.2,0,8.4,0,12.7c-1.4,0-2.7,0-4.2,0c0,1.6,0,3.2,0,4.7
		c0,1.2-0.1,2.4-0.1,3.6c1.5,0,2.9,0.1,4.4,0.1c0,0,0,0,0,0c0,0,0,0,0,0c0-1.3,0-2.6,0-4c1.5,0,2.8,0,4.3,0c0,1.3,0,2.7,0,4
		c0,0,0,0,0,0c0,0,0,0,0,0c1.4,0,2.8,0,4.3,0c0,0,0,0,0,0c0,0,0,0,0,0c0-1.3,0-2.6,0-4.1c2.9,0,5.7,0,8.6,0c0-2.9,0-5.7,0-8.5
		c1.5,0,2.8,0,4.2,0C145.7,76.4,145.7,80.6,145.7,84.8z"/>
	<path class="st0" d="M81.6,97.7c-1.5,0-2.9,0-4.2,0c0,0,0,0,0,0c0,0,0,0,0,0c0,2.9,0,5.7,0,8.6c1.5,0,2.9,0,4.3,0c0,0,0,0,0,0
		c0,0,0,0,0,0c0-1.4,0-2.7,0-4.1c2.9,0,5.7,0,8.5,0c0,1.4,0,2.7,0,4.1c-2.9,0-5.7,0-8.5,0c0,0,0,0,0,0c0,0,0,0,0,0
		c0,2.9,0,5.7,0,8.5c1.5,0,2.9,0,4.4,0c0-1.4,0-2.8,0-4.2c0.5,0,0.9,0,1.3,0c2.3,0,4.7,0,7-0.1c0-1.4,0-2.8,0-4.3c1.6,0,2.9,0,4.3,0
		c0-1.5,0-2.8,0-4.3c-1.4,0-2.8,0-4.3,0c0-1.5,0-2.9,0-4.3c0,0,0,0,0,0c0,0,0,0,0,0c-2.8,0-5.5,0-8.4,0c0-1.5,0-2.9,0-4.3
		c0,0,0,0,0,0c0,0,0,0,0,0c-1.4,0-2.8,0-4.3,0C81.6,94.9,81.6,96.2,81.6,97.7z"/>
	<path class="st0" d="M132.9,93.4C132.9,93.4,132.9,93.4,132.9,93.4C132.9,93.4,132.9,93.4,132.9,93.4c0,1.5,0,2.9,0,4.3
		c1.5,0,2.9,0,4.3,0c0,0,0,0,0,0c0,0,0,0,0,0c0-1.4,0-2.8,0-4.3C135.7,93.4,134.3,93.4,132.9,93.4z"/>
	<path class="st0" d="M120.1,55c7.2,0,14.3,0,21.4,0c0-7.1,0-14.2,0-21.3c-7.2,0-14.3,0-21.4,0C120.1,40.8,120.1,47.9,120.1,55z
		 M124.4,37.9c4.2,0,8.4,0,12.7,0c0,4.2,0,8.4,0,12.7c-4.3,0-8.5,0-12.7,0C124.4,46.4,124.4,42.2,124.4,37.9z"/>
	<path class="st0" d="M103,114.8c1.4,0,2.8,0,4.2,0c0-2.9,0-5.7,0-8.5c-1.5,0-2.8,0-4.2,0C103,109.2,103,112,103,114.8z"/>
	<path class="st0" d="M115.8,76.5c-1.5,0-2.9,0-4.3,0c0,5.7,0,11.3,0,16.9c1.4,0,2.8,0,4.3,0c0-1.4,0-2.8,0-4.2c1.4,0,2.8,0,4.3,0
		c-0.1-1.5-0.1-3-0.2-4.4c-1.3,0-2.7,0-4.1,0C115.8,82,115.8,79.2,115.8,76.5z"/>
	<path class="st0" d="M128.7,97.7c0-1.4,0-2.8,0-4.3c1.5,0,2.8,0,4.2,0c0,0,0,0,0,0c0,0,0,0,0,0c0-1.4,0-2.8,0-4.3c0,0,0,0,0,0
		c0,0,0,0,0,0c-1.4,0-2.7,0-4.3,0c0-1.5,0-2.9,0-4.3c0,0,0,0,0,0c0,0,0,0,0,0c-1.4,0-2.8,0-4.3,0c0,0,0,0,0,0c0,0,0,0,0,0
		c0,4.3,0,8.5,0,12.8C125.8,97.7,127.2,97.7,128.7,97.7z"/>
	<path class="st0" d="M120,119.2c0,1.4,0,2.8,0,4.2c0,0,0,0,0,0c0,0,0,0,0,0c1.4,0,2.8,0,4.3,0c0,0,0,0,0,0c0,0,0,0,0,0
		c0-1.4,0-2.8,0-4.2C122.9,119.2,121.5,119.2,120,119.2z"/>
	<path class="st0" d="M64.5,110.6c-7.2,0-14.3,0-21.4,0c0,7.1,0,14.2,0,21.3c7.2,0,14.3,0,21.4,0C64.5,124.8,64.5,117.7,64.5,110.6z
		 M60.1,127.6c-4.2,0-8.4,0-12.7,0c0-4.2,0-8.4,0-12.7c4.2,0,8.4,0,12.7,0C60.1,119.1,60.1,123.3,60.1,127.6z"/>
	<path d="M73.1,93.4C73.1,93.4,73.1,93.4,73.1,93.4C73.1,93.4,73.1,93.4,73.1,93.4L73.1,93.4z"/>
	<path d="M137.1,114.8C137.1,114.8,137.1,114.8,137.1,114.8C137.1,114.8,137.1,114.8,137.1,114.8L137.1,114.8z"/>
	<path d="M94.3,97.7C94.3,97.7,94.3,97.7,94.3,97.7L94.3,97.7C94.3,97.7,94.3,97.7,94.3,97.7z"/>
	<path d="M81.6,106.2C81.6,106.2,81.6,106.2,81.6,106.2C81.6,106.3,81.6,106.3,81.6,106.2L81.6,106.2z"/>
	<path d="M77.3,97.7C77.3,97.7,77.3,97.7,77.3,97.7C77.4,97.7,77.4,97.7,77.3,97.7L77.3,97.7z"/>
	<path d="M90.2,59.3C90.2,59.3,90.2,59.3,90.2,59.3L90.2,59.3C90.2,59.3,90.2,59.3,90.2,59.3z"/>
	<ellipse transform="matrix(0.8303 -0.5573 0.5573 0.8303 -26.8813 81.2229)" cx="119.9" cy="84.8" rx="0" ry="0"/>
	<path d="M124.3,84.8C124.3,84.8,124.3,84.8,124.3,84.8C124.3,84.8,124.3,84.8,124.3,84.8L124.3,84.8z"/>
	<path d="M132.9,93.4C132.9,93.4,132.9,93.4,132.9,93.4L132.9,93.4C132.9,93.4,132.9,93.4,132.9,93.4z"/>
	<path d="M137.2,119.1C137.2,119.1,137.1,119.1,137.2,119.1C137.1,119.1,137.1,119.1,137.2,119.1L137.2,119.1z"/>
	<path d="M85.9,67.9C85.9,67.9,85.9,67.9,85.9,67.9C85.9,67.8,85.9,67.8,85.9,67.9L85.9,67.9z"/>
	<ellipse transform="matrix(0.7423 -0.67 0.67 0.7423 -49.7598 91.6689)" cx="94.3" cy="110.5" rx="0" ry="0"/>
	<path d="M85.9,55C85.9,55,85.9,55,85.9,55C85.9,55,85.9,55,85.9,55L85.9,55z"/>
	<path d="M81.6,67.8C81.6,67.9,81.6,67.9,81.6,67.8L81.6,67.8C81.6,67.8,81.6,67.8,81.6,67.8z"/>
	<path d="M77.3,59.3C77.4,59.3,77.4,59.3,77.3,59.3C77.4,59.3,77.4,59.3,77.3,59.3L77.3,59.3z"/>
	<path d="M81.7,55C81.7,55,81.7,55,81.7,55L81.7,55C81.6,55,81.6,55,81.7,55z"/>
	<ellipse transform="matrix(0.6657 -0.7462 0.7462 0.6657 -19.4485 100.8931)" cx="102.9" cy="72.2" rx="0" ry="0"/>
	<ellipse transform="matrix(0.6679 -0.7442 0.7442 0.6679 -61.8792 108.1064)" cx="90.2" cy="123.4" rx="0" ry="0"/>
	<ellipse transform="matrix(0.4995 -0.8663 0.8663 0.4995 -67.0703 147.6338)" cx="94.2" cy="131.9" rx="0" ry="0"/>
	<path d="M81.6,131.9C81.6,132,81.6,132,81.6,131.9L81.6,131.9C81.6,131.9,81.6,131.9,81.6,131.9z"/>
	<ellipse transform="matrix(0.7615 -0.6482 0.6482 0.7615 -60.512 82.352)" cx="81.6" cy="123.4" rx="0" ry="0"/>
	<path d="M60.2,97.7C60.2,97.7,60.2,97.7,60.2,97.7C60.2,97.7,60.2,97.7,60.2,97.7L60.2,97.7z"/>
	<path d="M137.1,97.7C137.2,97.7,137.2,97.7,137.1,97.7L137.1,97.7C137.1,97.7,137.1,97.7,137.1,97.7z"/>
	<path d="M120,123.4C120,123.4,120,123.4,120,123.4L120,123.4C120,123.4,120,123.4,120,123.4z"/>
	<path d="M124.3,123.4C124.3,123.4,124.3,123.4,124.3,123.4C124.3,123.4,124.3,123.4,124.3,123.4L124.3,123.4z"/>
	<path d="M85.9,132C85.9,132,85.9,132,85.9,132C85.9,131.9,85.9,131.9,85.9,132L85.9,132z"/>
	<path d="M73.1,89.1C73.1,89.1,73.1,89.1,73.1,89.1C73.1,89.1,73.1,89.1,73.1,89.1L73.1,89.1z"/>
	<path d="M60.2,97.7C60.2,97.7,60.2,97.7,60.2,97.7L60.2,97.7C60.2,97.7,60.2,97.7,60.2,97.7z"/>
	<path d="M60.2,76.5C60.2,76.4,60.2,76.4,60.2,76.5L60.2,76.5C60.2,76.5,60.2,76.5,60.2,76.5z"/>
	<ellipse transform="matrix(0.7167 -0.6974 0.6974 0.7167 -35.0341 66.6392)" cx="64.5" cy="76.4" rx="0" ry="0"/>
	<path d="M55.9,80.7C55.9,80.7,55.9,80.7,55.9,80.7C55.9,80.7,55.9,80.7,55.9,80.7L55.9,80.7z"/>
	<path d="M85.9,84.8C85.9,84.8,85.9,84.8,85.9,84.8C85.9,84.8,85.9,84.8,85.9,84.8L85.9,84.8z"/>
	<path d="M51.7,80.7C51.7,80.7,51.7,80.7,51.7,80.7C51.7,80.7,51.6,80.7,51.7,80.7L51.7,80.7z"/>
	<path d="M60.2,76.4C60.2,76.4,60.2,76.4,60.2,76.4C60.2,76.4,60.2,76.4,60.2,76.4L60.2,76.4z"/>
	<path d="M55.9,80.7C55.9,80.7,55.9,80.7,55.9,80.7L55.9,80.7C55.9,80.7,55.9,80.7,55.9,80.7z"/>
	<path d="M132.9,84.8C132.9,84.8,132.9,84.8,132.9,84.8L132.9,84.8C132.9,84.8,132.9,84.8,132.9,84.8z"/>
	<path d="M132.9,89.1C132.9,89.1,132.9,89.1,132.9,89.1C132.9,89.1,132.9,89.1,132.9,89.1L132.9,89.1z"/>
	<path d="M137.2,97.7C137.2,97.7,137.2,97.7,137.2,97.7C137.2,97.7,137.2,97.7,137.2,97.7L137.2,97.7z"/>
	<path d="M132.9,93.4C132.9,93.4,132.9,93.4,132.9,93.4C132.9,93.4,132.9,93.4,132.9,93.4L132.9,93.4z"/>
	<path d="M107.1,33.6C107.1,33.6,107.1,33.6,107.1,33.6C107.1,33.6,107.1,33.6,107.1,33.6L107.1,33.6z"/>
	<path d="M102.9,50.7C102.9,50.7,102.9,50.7,102.9,50.7C102.9,50.7,102.9,50.7,102.9,50.7L102.9,50.7z"/>
	<path d="M77.3,59.3C77.3,59.3,77.3,59.3,77.3,59.3L77.3,59.3C77.4,59.3,77.4,59.3,77.3,59.3z"/>
	<path d="M81.7,55C81.6,55,81.6,55,81.7,55C81.6,55,81.6,55,81.7,55L81.7,55z"/>
	<path d="M137.2,123.4C137.2,123.4,137.2,123.3,137.2,123.4C137.2,123.3,137.1,123.3,137.2,123.4
		C137.1,123.3,137.2,123.4,137.2,123.4z"/>
	<path d="M137.2,119.1C137.2,119.1,137.2,119.1,137.2,119.1L137.2,119.1C137.1,119.1,137.2,119.1,137.2,119.1z"/>
	<path d="M85.9,84.8C85.9,84.8,85.9,84.8,85.9,84.8L85.9,84.8C85.9,84.8,85.9,84.8,85.9,84.8z"/>
	<path d="M85.9,89.1C85.9,89.1,85.9,89.1,85.9,89.1C85.9,89.1,85.9,89.1,85.9,89.1L85.9,89.1z"/>
	<path d="M85.9,93.4C85.9,93.4,85.9,93.4,85.9,93.4C85.9,93.4,85.9,93.4,85.9,93.4L85.9,93.4z"/>
	<path d="M73.1,89.1C73.1,89.1,73.1,89.1,73.1,89.1L73.1,89.1C73.1,89.1,73.1,89.1,73.1,89.1z"/>
	<path d="M77.4,97.7C77.4,97.7,77.4,97.7,77.4,97.7C77.4,97.7,77.4,97.7,77.4,97.7L77.4,97.7z"/>
	<path d="M85.9,89.1C85.9,89.1,85.9,89.1,85.9,89.1L85.9,89.1C85.9,89.1,85.9,89.1,85.9,89.1z"/>
	<path d="M73.1,93.4C73.1,93.4,73.1,93.4,73.1,93.4C73.1,93.4,73.1,93.4,73.1,93.4L73.1,93.4z"/>
	<path d="M137.1,114.8C137.1,114.8,137.1,114.8,137.1,114.8L137.1,114.8C137.1,114.8,137.1,114.8,137.1,114.8z"/>
	<path d="M90.2,59.3C90.2,59.3,90.2,59.3,90.2,59.3C90.2,59.3,90.2,59.3,90.2,59.3L90.2,59.3z"/>
	<path d="M85.9,55C85.9,55,85.9,55,85.9,55L85.9,55C85.9,55,85.9,55,85.9,55z"/>
	<path d="M81.6,67.9C81.6,67.9,81.6,67.9,81.6,67.9C81.7,67.9,81.7,67.9,81.6,67.9L81.6,67.9z"/>
	<path d="M85.9,67.9C85.9,67.9,85.9,67.9,85.9,67.9L85.9,67.9C85.9,67.9,85.9,67.9,85.9,67.9z"/>
	<path d="M120,127.6L120,127.6C120,127.6,120,127.6,120,127.6C120,127.7,120,127.7,120,127.6C120,127.7,120,127.6,120,127.6
		L120,127.6z"/>
	<path d="M94.3,97.7C94.3,97.7,94.3,97.7,94.3,97.7C94.3,97.7,94.3,97.7,94.3,97.7L94.3,97.7z"/>
	<path d="M85.9,93.4C85.9,93.4,85.9,93.4,85.9,93.4L85.9,93.4C85.9,93.4,85.9,93.4,85.9,93.4z"/>
	<path d="M81.6,132C81.6,132,81.6,132,81.6,132C81.7,132,81.7,132,81.6,132L81.6,132z"/>
	<path d="M85.9,132C85.9,132,85.9,132,85.9,132L85.9,132C85.9,132,85.9,132,85.9,132z"/>
	<polygon points="124.3,127.7 124.3,127.7 124.3,127.7 	"/>
	<path d="M124.3,127.7C124.3,127.7,124.3,127.7,124.3,127.7C124.3,127.7,124.3,127.7,124.3,127.7
		C124.3,127.7,124.3,127.7,124.3,127.7z"/>
	<path d="M120,123.4C120,123.4,120,123.4,120,123.4C120,123.4,120,123.4,120,123.4L120,123.4z"/>
	<path d="M124.3,123.4C124.3,123.4,124.3,123.4,124.3,123.4L124.3,123.4C124.3,123.4,124.3,123.4,124.3,123.4z"/>
	<path d="M120,127.7C120,127.6,120,127.6,120,127.7C120,127.6,120,127.6,120,127.7C120,127.6,120,127.7,120,127.7z"/>
	<path d="M124.3,127.7C124.3,127.7,124.3,127.7,124.3,127.7C124.3,127.7,124.3,127.7,124.3,127.7
		C124.3,127.7,124.3,127.7,124.3,127.7z"/>
	<polygon points="120,127.6 120,127.7 120,127.6 	"/>
	<polygon points="124.3,127.7 124.3,127.7 124.3,127.7 	"/>
	<path d="M102.9,55C102.9,55,102.9,55,102.9,55C102.9,55,102.9,55,102.9,55L102.9,55z"/>
	<path d="M107.1,55C107.1,55,107.1,55,107.1,55C107.1,55,107.1,55,107.1,55C107.1,55,107.1,55,107.1,55z"/>
	<path d="M102.9,50.7C102.9,50.7,102.9,50.7,102.9,50.7C102.9,50.7,102.9,50.7,102.9,50.7C102.9,50.7,102.9,50.7,102.9,50.7z"/>
	<path d="M102.9,55C102.9,55,102.9,55,102.9,55C102.9,55,102.9,55,102.9,55C102.9,55,102.9,55,102.9,55z"/>
	<path d="M107.1,55C107.1,55,107.1,55,107.1,55L107.1,55C107.1,55,107.1,55,107.1,55z"/>
	<polygon points="107.1,55 107.1,55 107.1,55 	"/>
	<path d="M132.9,84.8C132.9,84.8,132.9,84.8,132.9,84.8C132.9,84.8,132.9,84.8,132.9,84.8L132.9,84.8z"/>
	<path d="M132.9,89.1C132.9,89.1,132.9,89.1,132.9,89.1L132.9,89.1C132.9,89.1,132.9,89.1,132.9,89.1z"/>
	<path d="M128.6,84.8C128.6,84.8,128.6,84.8,128.6,84.8L128.6,84.8C128.6,84.8,128.6,84.8,128.6,84.8z"/>
	<polygon points="137.2,123.4 137.2,123.4 137.2,123.4 	"/>
	<path d="M137.1,123.4C137.1,123.4,137.2,123.4,137.1,123.4L137.1,123.4C137.1,123.3,137.1,123.4,137.1,123.4z"/>
	<polygon points="137.2,123.4 137.2,123.4 137.1,123.3 	"/>
	<path d="M51.6,80.7C51.6,80.7,51.7,80.7,51.6,80.7L51.6,80.7C51.6,80.7,51.6,80.7,51.6,80.7z"/>
	<path d="M128.6,84.8C128.6,84.8,128.6,84.8,128.6,84.8C128.6,84.8,128.6,84.8,128.6,84.8L128.6,84.8z"/>
	<path d="M124.3,84.8C124.3,84.8,124.3,84.8,124.3,84.8L124.3,84.8C124.3,84.8,124.3,84.8,124.3,84.8z"/>
	<path d="M107.1,33.6C107.1,33.6,107.2,33.6,107.1,33.6C107.2,33.6,107.2,33.6,107.1,33.6C107.1,33.6,107.1,33.6,107.1,33.6z"/>
	<path d="M81.6,106.2C81.6,106.2,81.6,106.2,81.6,106.2L81.6,106.2C81.6,106.2,81.6,106.2,81.6,106.2z"/>
	<ellipse transform="matrix(0.6482 -0.7615 0.7615 0.6482 -46.9116 85.238)" cx="68.8" cy="93.4" rx="0" ry="0"/>
	<ellipse transform="matrix(0.6873 -0.7264 0.7264 0.6873 -43.2134 77.8303)" cx="68.8" cy="89.1" rx="0" ry="0"/>
	<ellipse transform="matrix(0.7264 -0.6873 0.6873 0.7264 -43.6003 68.7148)" cx="64.5" cy="89.1" rx="0" ry="0"/>
</g>
<g>
	<g>
		<path class="st1" d="M229.6,206.4c3.2,0,3.2-5,0-5S226.4,206.4,229.6,206.4L229.6,206.4z"/>
	</g>
</g>
</svg>
