<?xml version="1.0" encoding="utf-8"?>
<!-- Generator: Adobe Illustrator 21.0.0, SVG Export Plug-In . SVG Version: 6.00 Build 0)  -->
<svg version="1.1" id="Layer_1" xmlns="http://www.w3.org/2000/svg" xmlns:xlink="http://www.w3.org/1999/xlink" x="0px" y="0px"
	 viewBox="0 0 283.46 283.46" enable-background="new 0 0 283.46 283.46" xml:space="preserve">
<path fill="#BCD9EA" d="M82.349,264.215c-6.236,0-13.89-4.419-17.008-9.819L5.963,151.547c-3.118-5.4-3.118-14.238,0-19.639
	L65.342,29.06c3.118-5.4,10.772-9.819,17.008-9.819h118.76c6.236,0,13.89,4.419,17.008,9.819l59.38,102.849
	c3.118,5.4,3.118,14.238,0,19.639l-59.38,102.849c-3.118,5.4-10.771,9.819-17.008,9.819H82.349z"/>
<g>
	<path fill="#002856" d="M118.124,139.547c0-1.446,0-2.826,0-4.232c-1.454,0-2.842,0-4.23,0c0,1.409,0,2.818,0,4.232
		C115.367,139.547,116.746,139.547,118.124,139.547z"/>
	<path fill="#002856" d="M143.675,178.046c-1.398,0-2.717,0-4.071,0c0,1.439,0,2.82,0,4.203c1.368,0,2.736,0,4.071,0
		C143.675,180.782,143.675,179.407,143.675,178.046z"/>
	<path fill="#002856" d="M122.44,147.964c0.009,0,0.018,0,0.027,0c0,0.01,0,0.02,0,0.029c4.276,0,8.552,0,12.829,0
		c0-0.013,0-0.024,0-0.037c0.009,0,0.018,0,0.027,0c0-1.417,0-2.835-0.001-4.254c-0.011,0-0.022,0-0.033,0c0-0.008,0-0.016,0-0.023
		c-4.261,0-8.522,0-12.85,0C122.44,145.197,122.44,146.581,122.44,147.964z"/>
	<path fill="#002856" d="M139.587,186.593c0-1.513,0-2.918,0-4.324c-2.852,0-5.704,0-8.555,0c-0.007,2.846-0.014,5.693-0.021,8.541
		c0.009,0,0.018,0,0.027,0c0,0.012,0,0.025,0,0.037c1.419,0,2.839,0,4.259,0c0-0.012,0-0.025,0-0.037c0.009,0,0.018,0,0.027,0
		c0-1.37,0-2.74,0-4.217C136.79,186.593,138.162,186.593,139.587,186.593z"/>
	<path fill="#002856" d="M131.039,113.898c-0.009,0-0.019,0-0.028,0c0-0.012,0-0.023,0-0.035c-1.399,0-2.798,0-4.285,0
		c0,1.486,0,2.887,0,4.286c0.012,0,0.023,0,0.035,0c0,0.009,0,0.018,0,0.027c1.396,0,2.793,0,4.278,0
		C131.039,116.692,131.039,115.295,131.039,113.898z"/>
	<path fill="#002856" d="M147.966,186.622c-1.449,0-2.825,0-4.338,0c0,1.413,0,2.763,0,4.113c1.45,0.068,2.898,0.135,4.338,0.201
		C147.966,189.362,147.966,187.987,147.966,186.622z"/>
	<path fill="#002856" d="M122.468,152.251c0-1.419,0-2.837,0-4.258c-0.009,0-0.018,0-0.027,0c0-0.01,0-0.02,0-0.029
		c-1.42,0.008-2.841,0.018-4.263,0.025c0,1.421,0.001,2.842,0.001,4.266c1.421,0.008,2.842,0.016,4.262,0.023
		c0-0.01,0-0.019,0-0.027C122.449,152.251,122.458,152.251,122.468,152.251z"/>
	<path fill="#002856" d="M139.574,118.177c0-0.01,0-0.019,0-0.028c0.012,0,0.023,0,0.035,0c0-1.398,0-2.799,0-4.285
		c-1.486,0-2.886,0-4.285,0c0,0.012,0,0.023,0,0.035c-0.009,0-0.019,0-0.028,0c0,1.396,0,2.794,0,4.278
		C136.78,118.177,138.178,118.177,139.574,118.177z"/>
	<path fill="#002856" d="M118.159,143.765c-1.479,0-2.855,0-4.266,0c0,1.441,0,2.824,0,4.207c1.422,0,2.844,0,4.266,0
		C118.159,146.567,118.159,145.165,118.159,143.765z"/>
	<path fill="#002856" d="M156.532,126.782c-1.452,0-2.827,0-4.254,0c0,1.455,0,2.84,0,4.224c1.43,0,2.859,0,4.254,0
		C156.532,129.51,156.532,128.135,156.532,126.782z"/>
	<path fill="#002856" d="M147.988,173.694c0-1.43,0-2.805,0-4.277c-1.457,0-2.867,0-4.277,0c0,1.412,0,2.819,0,4.277
		C145.184,173.694,146.56,173.694,147.988,173.694z"/>
	<path fill="#002856" d="M109.612,135.324c-0.009,0.001-0.018,0.001-0.027,0.001l0.027-0.035l-0.028,0.035c0-0.012,0-0.023,0-0.035
		c-1.399,0-2.799,0-4.285,0c0,1.486,0,2.887,0,4.286c0.012,0,0.023,0,0.035,0c0,0.009,0,0.018,0,0.026c1.396,0,2.794,0,4.278,0
		C109.612,138.118,109.612,136.722,109.612,135.324z"/>
	<path fill="#002856" d="M131.011,122.503c0,1.454,0,2.832,0,4.209c0.009,0,0.018,0,0.027,0c0,0.012,0,0.023,0,0.035
		c1.419,0,2.839,0,4.258,0c0-0.012,0-0.023,0-0.035c0.009,0,0.019,0,0.028,0c0-1.398,0-2.797,0-4.209
		C133.832,122.503,132.436,122.503,131.011,122.503z"/>
	<path fill="#002856" d="M118.162,152.274c-1.381,0-2.763,0-4.287,0c0-1.477,0-2.881,0-4.285c-1.41,0-2.82,0-4.29,0
		c0,2.924,0,5.731,0,8.541c0.012,0,0.024,0,0.036,0c0,0.011,0,0.022,0,0.033c2.826,0,5.651,0,8.542,0
		C118.162,155.092,118.162,153.683,118.162,152.274z"/>
	<path fill="#002856" d="M126.787,178.054c0,1.449,0,2.83,0,4.195c1.457,0,2.843,0,4.229,0c0-1.405,0-2.809,0-4.195
		C129.524,178.054,128.144,178.054,126.787,178.054z"/>
	<path fill="#002856" d="M182.28,147.966c0,0.009,0,0.017,0,0.025c1.43,0,2.859,0,4.277,0c0-1.479,0-2.836,0-4.311
		c-1.456,0-2.863,0-4.27,0c0,0.008,0,0.016,0,0.023c-0.012,0-0.022,0-0.034,0c0,1.422,0,2.841,0,4.262
		C182.262,147.966,182.271,147.966,182.28,147.966z"/>
	<path fill="#002856" d="M92.469,113.834c7.189,0,14.28,0,21.371,0c0-7.157,0-14.249,0-21.34c-7.157,0-14.249,0-21.371,0
		C92.469,99.631,92.469,106.701,92.469,113.834z M96.825,96.793c4.257,0,8.443,0,12.69,0c0,4.24,0,8.447,0,12.716
		c-4.214,0-8.421,0-12.69,0C96.825,105.295,96.825,101.088,96.825,96.793z"/>
	<path fill="#002856" d="M126.753,156.536c0-1.403,0-2.809,0-4.285c-1.516,0-2.901,0-4.285,0c0,0.009,0,0.019,0,0.027
		c-0.009,0-0.018,0-0.027,0c0,1.428,0,2.854,0,4.285c1.522,0,2.905,0,4.286,0c0-0.009,0-0.019,0-0.027
		C126.735,156.536,126.744,156.536,126.753,156.536z"/>
	<path fill="#002856" d="M160.892,173.687c4.3,0,8.534,0,12.802,0c0-4.291,0-8.523,0-12.787c-4.293,0-8.526,0-12.802,0
		C160.892,165.163,160.892,169.376,160.892,173.687z M165.241,165.214c1.406,0,2.734,0,4.121,0c0,1.387,0,2.736,0,4.146
		c-1.355,0-2.706,0-4.121,0C165.241,168.003,165.241,166.653,165.241,165.214z"/>
	<path fill="#002856" d="M231.737,131.908l-36.499-63.219c-3.118-5.4-10.771-9.819-17.008-9.819H105.23
		c-6.235,0-13.889,4.419-17.008,9.819l-36.499,63.219c-3.118,5.4-3.118,14.238,0,19.639l36.499,63.22
		c3.119,5.4,10.772,9.818,17.008,9.818h72.999c6.236,0,13.89-4.418,17.008-9.819l36.499-63.219
		C234.855,146.146,234.855,137.309,231.737,131.908z M165.231,88.399c9.941,0,19.86,0,29.841,0c0,9.876,0,19.76,0,29.693
		c-9.952,0-19.871,0-29.841,0C165.231,108.189,165.231,98.326,165.231,88.399z M190.813,122.53c0,1.402,0,2.733,0,4.122
		c-1.385,0-2.735,0-4.146,0c0-1.358,0-2.71,0-4.122C188.031,122.53,189.378,122.53,190.813,122.53z M186.533,131.104
		c0,1.394,0,2.724,0,4.117c-1.382,0-2.733,0-4.148,0c0-1.349,0-2.702,0-4.117C183.74,131.104,185.088,131.104,186.533,131.104z
		 M182.23,122.518c0,1.396,0,2.747,0,4.146c-1.393,0-2.744,0-4.143,0c0-1.394,0-2.746,0-4.146
		C179.482,122.518,180.83,122.518,182.23,122.518z M148.021,100.993c0-1.398,0-2.753,0-4.22c1.455,0,2.83,0,4.286,0
		c0-1.466,0-2.82,0-4.318c1.454,0,2.826,0,4.198,0c0-0.009,0-0.019,0-0.027l0.03,0.027c0,0-0.03-0.027-0.028-0.026
		c0.01,0,0.019,0,0.028,0c0-1.32,0-2.641,0-4.026c1.488,0,2.838,0,4.253,0c0,1.298,0,2.612,0,4.026c-1.436,0-2.845,0-4.253,0
		c0,0.009,0,0.018,0,0.026c-0.01,0-0.021,0-0.03,0c0.021,2.423,0.047,4.847,0.06,7.27c0.01,1.81,0.002,3.618,0.002,5.532
		c-1.423,0-2.801,0-4.332,0c0,1.506,0,2.911,0,4.315c0.01,0,0.02,0,0.03,0c0,0.01,0,0.019,0,0.029c1.398,0,2.798,0,4.236,0
		c0,1.487,0,2.882,0,4.276c0.01,0,0.02,0,0.029,0h0.001l0,0c0,0.009,0,0.018,0,0.027c1.403,0,2.808,0,4.266,0
		c0,1.423,0,2.769,0,4.176c-1.359,0-2.707,0-4.264,0c0-1.384,0-2.78-0.002-4.176c-0.01,0-0.02,0-0.03,0c0-0.01,0-0.019,0-0.027
		c-1.408-0.014-2.816-0.027-4.226-0.042c0,0.011,0,0.021,0,0.032l-0.031-0.032c0,0,0.031,0.032,0.031,0.033
		c-0.011,0-0.021,0-0.031,0c0,1.379,0,2.758,0,4.204c-1.357,0-2.706,0-4.13,0c0-1.338,0-2.707,0-4.204c1.387,0,2.76,0,4.13,0
		c0-0.011,0-0.022,0-0.033c0.011,0,0.02,0,0.031,0c-0.003-1.411-0.007-2.823-0.011-4.234c-0.01,0-0.02,0-0.03,0
		c0-0.01,0-0.02,0-0.029c-1.355,0-2.71,0-4.176,0c0-1.425,0-2.805,0-4.28c-2.855,0-5.602,0-8.394,0c0-2.877,0-5.653,0-8.481
		c1.33,0,2.622,0,4.026,0c0,1.382,0,2.759,0,4.183C145.179,100.993,146.557,100.993,148.021,100.993z M139.648,88.4
		c1.343,0,2.655,0,4.015,0c0,1.312,0,2.605,0,3.964c-1.319,0-2.633,0-4.015,0C139.648,91.006,139.648,89.735,139.648,88.4z
		 M131.119,88.375c1.4,0,2.73,0,4.114,0c0,2.76,0,5.479,0,8.27c-1.344,0-2.693,0-4.114,0
		C131.119,93.903,131.119,91.142,131.119,88.375z M122.525,92.522c1.394,0,2.743,0,4.113,0c0,1.416,0,2.787,0,4.146
		c-1.408,0-2.736,0-4.113,0C122.525,95.271,122.525,93.922,122.525,92.522z M88.405,88.38c9.889,0,19.752,0,29.678,0
		c0,9.898,0,19.781,0,29.713c-9.892,0-19.752,0-29.678,0C88.405,108.19,88.405,98.308,88.405,88.38z M88.373,143.808
		c1.35,0,2.668,0,4.024,0c0,5.662,0,11.271,0,16.961c-1.318,0-2.632,0-4.024,0C88.373,155.097,88.373,149.483,88.373,143.808z
		 M118.1,195.077c-9.91,0-19.773,0-29.698,0c0-9.926,0-19.85,0-29.836c9.88,0,19.766,0,29.698,0
		C118.1,175.191,118.1,185.11,118.1,195.077z M195.087,143.665c-1.373,0-2.729,0-4.162,0c0,1.449,0,2.828,0,4.33
		c1.342,0,2.719,0,4.15,0c0,2.898,0,5.678,0,8.539c-2.844,0-5.676,0-8.509,0c0,0.01,0,0.02,0,0.029c-0.012,0-0.024,0-0.036,0
		c0,1.381,0,2.767,0,4.25c-1.383,0-2.76,0-4.233,0c0,2.9,0,5.703,0,8.574c-1.451,0-2.806,0-4.231,0c0,1.443,0,2.82,0,4.301
		c2.795,0,5.615,0,8.435,0c0-0.009,0-0.019,0-0.027c0.01,0,0.02,0,0.029,0c0.025-2.157,0.053-4.312,0.075-6.469
		c0.007-0.621,0.001-1.244,0.001-1.986c1.42,0,2.796,0,4.259,0c0-1.473,0-2.824,0-4.248c1.436,0,2.783,0,4.2,0
		c0,2.772,0,5.549,0,8.428c-1.35,0-2.728,0-4.176,0c0,1.457,0,2.812,0,4.275c-1.497,0-2.929,0-4.359,0c0,0.009,0,0.019,0,0.027
		c-0.01,0-0.02,0-0.029,0c0.007,1.422,0.015,2.844,0.023,4.266c0.008,0,0.017,0,0.024,0c0,0.009,0,0.017,0,0.025
		c2.814,0,5.627,0,8.512,0c0,5.744,0,11.379,0,17.082c-4.178,0-8.387,0-12.667,0c0-1.334,0-2.682,0-4.127c2.773,0,5.555,0,8.418,0
		c0-2.898,0-5.707,0-8.729c-1.399,0-2.831,0-4.264,0c0,0.01,0,0.02,0,0.03l0.001,0.001h-0.001c-0.01,0-0.018,0-0.027,0
		c0,1.41,0,2.815,0,4.271c-1.387,0-2.736,0-4.143,0c0-1.377,0-2.727,0-4.27c1.399,0,2.772,0,4.143-0.002c0-0.01,0-0.021,0-0.031
		c0.009,0,0.019,0,0.027,0c0.001-1.408,0.001-2.818,0.001-4.227c-0.008,0-0.017,0-0.024,0c0-0.009,0-0.017,0-0.025
		c-2.803,0-5.605,0-8.508,0c0,1.467,0,2.842,0,4.285c-1.5,0-2.903,0-4.306,0c0,0.013,0,0.024,0,0.037c-0.01,0-0.02,0-0.03,0
		c-0.006,1.426-0.011,2.853-0.018,4.281c0.01,0,0.02,0,0.029,0c0,0.01,0,0.021,0,0.031c1.403,0,2.807,0,4.254,0
		c0,1.457,0,2.803,0,4.203c-1.376,0-2.724,0-4.254,0c0-1.407,0-2.805,0-4.203c-0.01,0-0.02,0-0.029,0h-0.001l0.001-0.001
		c0-0.011,0-0.021,0-0.03c-1.429-0.018-2.857-0.035-4.288-0.053c0,0.008,0,0.015,0,0.021c-0.009,0-0.018,0-0.026,0
		c0,2.832,0,5.664,0,8.549c-1.348,0-2.697,0-4.108,0c0-2.787,0-5.561,0-8.551c1.37,0,2.738,0,4.108,0.002c0-0.008,0-0.016,0-0.023
		l0.002,0.002c0.009,0,0.017,0,0.025,0c0.014-1.412,0.028-2.821,0.044-4.232c-0.007,0-0.014,0-0.021,0c0-0.01,0-0.02,0-0.029
		c-1.358,0-2.718,0-4.189,0c0-1.396,0-2.773,0-4.203c-5.776,0-11.439,0-17.157,0c0,1.4,0,2.781,0,4.244c4.234,0,8.442,0,12.725,0
		c0,1.432,0,2.781,0,4.234c-2.764,0-5.569,0-8.476,0c0,2.906,0,5.711,0,8.562c-2.882,0-5.661,0-8.47,0
		c-0.071-1.466-0.142-2.898-0.21-4.332c-1.501,0.031-3.002,0.076-4.503,0.09c-1.264,0.01-2.529-0.018-3.793-0.029
		c0,0.013,0,0.025,0,0.037c-0.009,0-0.018,0-0.027,0c0,1.377,0,2.751,0,4.203c-1.416,0-2.781,0-4.259,0c0-1.407,0-2.805,0-4.203
		c-0.009,0-0.018,0-0.027,0c0-0.013,0-0.024,0-0.037c-1.384,0-2.77,0-4.266,0c0,1.459,0,2.836,0,4.264c-1.462,0-2.812,0-4.216,0
		c0-7.088,0-14.15,0-21.293c1.369,0,2.727,0,4.158,0c0-1.461,0-2.842,0-4.332c-1.344,0-2.724,0-4.177,0c0-2.891,0-5.674,0-8.564
		c-4.308,0-8.54,0-12.891,0c0-1.508,0-2.913,0-4.32c-0.012,0-0.024,0-0.036,0c0-0.011,0-0.023,0-0.033c-2.81,0-5.62,0-8.541,0
		c0,1.447,0,2.822,0,4.256c-1.462,0-2.812,0-4.22,0c0-4.219,0-8.424,0-12.742c2.804,0,5.609,0,8.511,0c0-2.888,0-5.666,0-8.441
		c-0.012,0-0.023,0-0.035,0c0-0.009,0-0.018,0-0.026c-1.416-0.006-2.831-0.011-4.247-0.015c0,0.01,0,0.021,0,0.031
		c-0.01,0-0.021,0-0.031,0c0,1.32,0,2.64,0,4.035c-1.426,0-2.792,0-4.209,0c0-1.309,0-2.598,0-4.035c1.411,0,2.81,0,4.209,0
		c0-0.011,0-0.021,0-0.031c0.01,0,0.021,0,0.031,0c0-4.239,0-8.478,0-12.783c-2.872,0-5.678,0-8.552,0c0,1.375,0,2.754,0,4.217
		c1.354,0,2.709,0,4.142,0c0,1.429,0,2.779,0,4.244c-1.331,0-2.709,0-4.165,0c0,1.466,0,2.822,0,4.252c-1.394,0-2.709,0-4.081,0
		c0-5.641,0-11.275,0-16.965c7.027,0,14.033,0,21.188,0c0,4.25,0,8.507,0,12.764c0.009,0,0.019,0,0.028,0c0,0.012,0,0.023,0,0.034
		c1.421-0.009,2.842-0.019,4.264-0.028c0-1.384,0-2.765,0-4.2c4.312,0,8.512,0,12.82,0c0,2.807,0,5.608,0,8.483
		c2.886,0,5.664,0,8.594,0c0,1.413,0,2.757,0,4.1c0.011,0,0.022,0,0.033,0c0,0.008,0,0.016,0,0.023c1.383,0,2.768,0,4.253,0
		c0-2.752,0-5.501,0-8.312c1.394,0,2.686,0,4.094,0c0,1.35,0,2.727,0,4.184c1.465,0,2.819,0,4.249,0c0,1.395,0,2.709,0,4.098
		c-1.352,0-2.707,0-4.169,0c0,1.447,0,2.826,0,4.285c-2.877,0-5.652,0-8.426,0c0,0.013,0,0.024,0,0.037c-0.009,0-0.018,0-0.027,0
		c-0.003,1.419-0.005,2.839-0.007,4.258c0.011,0,0.022,0,0.033,0c0,0.008,0,0.016,0,0.023c2.765,0,5.53,0,8.358,0
		c0,1.514,0,2.888,0,4.262c0.011,0,0.021,0,0.031,0c0,0.011,0,0.022,0,0.033c2.807,0,5.615,0,8.54,0c0,1.463,0,2.838,0,4.266
		c1.494,0,2.871,0,4.304,0c0-2.85,0-5.654,0-8.539c-1.394,0-2.751,0-4.169,0c0-1.43,0-2.779,0-4.221c1.358,0,2.712,0,4.144,0
		c0-1.465,0-2.844,0-4.336c-1.344,0-2.722,0-4.207,0c0-0.43,0-0.746,0-1.064c0.001-3.565,0.002-7.132-0.002-10.697
		c-0.001-0.318-0.038-0.637-0.06-0.954c-1.36,0-2.724,0-4.198,0c0-1.444,0-2.824,0-4.257c-1.493,0-2.872,0-4.331,0
		c0,1.389,0,2.746,0,4.166c-1.372,0-2.667,0-4.077,0c0-1.346,0-2.725,0-4.221c-1.516,0-2.924,0-4.332,0c0,0.012,0,0.023,0,0.035
		c-0.009,0-0.019,0-0.028,0c0,2.805,0,5.607,0,8.473c-1.422,0-2.77,0-4.258,0c0-2.822,0-5.646,0-8.473c-0.009,0-0.018,0-0.027,0
		c0-0.012,0-0.023,0-0.035c-5.659,0-11.318,0-17.042,0c0-1.41,0-2.76,0-4.216c4.222,0,8.45,0,12.792,0c0-1.508,0-2.915,0-4.319
		c-0.012,0-0.023,0-0.035,0c0-0.01,0-0.019,0-0.027c-1.379,0-2.758,0-4.192,0c0-2.861,0-5.638,0-8.495c1.364,0,2.719,0,4.15,0
		c0-1.456,0-2.835,0-4.328c-1.335,0-2.712,0-4.147,0c0-1.46,0-2.809,0-4.221c4.21,0,8.413,0,12.685,0c0,1.342,0,2.691,0,4.154
		c-1.359,0-2.735,0-4.21,0c0,2.941,0,5.772,0,8.603c0.009,0,0.019,0,0.028,0c0,0.012,0,0.023,0,0.035c1.418,0,2.838,0,4.257,0
		c0-0.012,0-0.023,0-0.035c0.009,0,0.019,0,0.028,0c0-1.377,0-2.755,0-4.189c2.817,0,5.555,0,8.339,0c0,2.809,0,5.582,0,8.475
		c-1.369,0-2.711,0-4.054,0c0,0.01,0,0.019,0,0.028c-0.012,0-0.023,0-0.035,0c0,1.385,0,2.771,0,4.255c8.512,0,16.971,0,25.541,0
		c0,2.901,0,5.705,0,8.558c1.491,0,2.87,0,4.335,0c0-2.828,0-5.611,0-8.456c1.433,0,2.781,0,4.194,0c0,4.208,0,8.414,0,12.729
		c-1.368,0-2.747,0-4.221,0c0,1.646,0.012,3.185-0.004,4.722c-0.013,1.21-0.06,2.419-0.089,3.63c1.451,0.033,2.902,0.066,4.353,0.1
		c0-0.012,0-0.022,0-0.033c0.008,0,0.016,0,0.023,0c0-1.315,0-2.633,0-4.008c1.461,0,2.807,0,4.256,0c0,1.331,0,2.67,0,4.008
		c0.011,0,0.021,0,0.032,0c0,0.01,0,0.021,0,0.031c1.419-0.002,2.84-0.004,4.259-0.008c0-0.008,0-0.016,0-0.023
		c0.012,0,0.022,0,0.034,0c0-1.324,0-2.647,0-4.053c2.905,0,5.687,0,8.585,0c0-2.887,0-5.691,0-8.539c1.468,0,2.817,0,4.215,0
		C195.087,135.288,195.087,139.439,195.087,143.665z"/>
	<path fill="#002856" d="M130.986,156.536c-1.479,0-2.857,0-4.233,0c0,0.009,0,0.019,0,0.027c-0.009,0-0.018,0-0.026,0
		c0,2.851,0,5.701,0,8.564c1.503,0,2.881,0,4.258,0c0-0.012,0-0.021,0-0.033c0.011,0,0.021,0,0.032,0c0-1.353,0-2.705,0-4.131
		c2.863,0,5.659,0,8.506,0c0,1.359,0,2.707,0,4.133c-2.855,0-5.68,0-8.506-0.002c0,0.011,0,0.022,0,0.033c-0.011,0-0.021,0-0.032,0
		c0,2.855,0,5.714,0,8.539c1.543,0,2.922,0,4.379,0c0-1.428,0-2.779,0-4.209c0.493,0,0.903,0.004,1.314,0
		c2.339-0.019,4.678-0.039,7.016-0.06c0-1.378,0-2.759,0-4.258c1.55,0,2.926,0,4.298,0c0-1.48,0-2.838,0-4.312
		c-1.421,0-2.797,0-4.278,0c0-1.496,0-2.876,0-4.258c-0.011,0-0.02,0-0.031,0c0-0.011,0-0.022,0-0.033c-2.764,0-5.529,0-8.358,0
		c0-1.496,0-2.879,0-4.262c-0.011,0-0.022,0-0.033,0c0-0.008,0-0.016,0-0.023c-1.4,0-2.801,0-4.304,0
		C130.986,153.745,130.986,155.12,130.986,156.536z"/>
	<path fill="#002856" d="M182.281,152.251c0,0.009,0,0.019,0,0.027c-0.009,0-0.019,0-0.027,0c0,1.425,0,2.85,0,4.285
		c1.53,0,2.904,0,4.277,0c0-0.01,0-0.02,0-0.029c0.012,0,0.024,0,0.036,0c0-1.393,0-2.789,0-4.283
		C185.084,152.251,183.683,152.251,182.281,152.251z"/>
	<path fill="#002856" d="M169.491,113.827c7.163,0,14.257,0,21.357,0c0-7.144,0-14.215,0-21.324c-7.199,0-14.289,0-21.357,0
		C169.491,99.67,169.491,106.763,169.491,113.827z M173.805,96.811c4.239,0,8.446,0,12.705,0c0,4.239,0,8.446,0,12.72
		c-4.281,0-8.467,0-12.705,0C173.805,105.281,173.805,101.072,173.805,96.811z"/>
	<path fill="#002856" d="M152.352,173.698c1.429,0,2.785,0,4.18,0c0-2.912,0-5.713,0-8.496c-1.455,0-2.833,0-4.18,0
		C152.352,168.081,152.352,170.886,152.352,173.698z"/>
	<path fill="#002856" d="M165.169,135.339c-1.484,0-2.862,0-4.274,0c0,5.662,0,11.266,0,16.898c1.444,0,2.844,0,4.33,0
		c0-1.436,0-2.789,0-4.229c1.443,0,2.797,0,4.305,0c-0.074-1.523-0.145-2.954-0.215-4.385c-1.348,0.002-2.694,0.002-4.146,0.002
		C165.169,140.858,165.169,138.112,165.169,135.339z"/>
	<path fill="#002856" d="M178.064,156.548c0-1.428,0-2.807,0-4.27c1.478,0,2.834,0,4.19,0c0-0.009,0-0.019,0-0.027
		c0.009,0,0.018,0,0.027,0c0-1.42-0.001-2.84-0.001-4.26c-0.009,0-0.018,0-0.026,0c0-0.009,0-0.017,0-0.025
		c-1.372,0-2.744,0-4.259,0c0-1.458,0-2.856,0-4.254c-0.011,0-0.021,0-0.032,0c0-0.011,0-0.02,0-0.031c-1.419,0-2.837,0-4.256,0
		c0,0.011,0,0.023,0,0.033c-0.008,0-0.016,0-0.023,0c0,4.264,0,8.526,0,12.834C175.184,156.548,176.562,156.548,178.064,156.548z"/>
	<path fill="#002856" d="M169.398,178.048c0,1.438,0,2.818,0,4.195c0.007,0,0.014,0,0.021,0c0,0.01,0,0.02,0,0.029
		c1.421,0.002,2.841,0.002,4.262,0.004c0-0.012,0-0.025,0-0.037c0.01,0,0.02,0,0.03,0c0-1.398,0-2.792,0-4.191
		C172.237,178.048,170.861,178.048,169.398,178.048z"/>
	<path fill="#002856" d="M113.841,169.478c-7.158,0-14.25,0-21.372,0c0,7.131,0,14.201,0,21.34c7.186,0,14.277,0,21.372,0
		C113.841,183.661,113.841,176.569,113.841,169.478z M109.507,186.487c-4.193,0-8.4,0-12.676,0c0-4.189,0-8.398,0-12.703
		c4.234,0,8.419,0,12.676,0C109.507,178.007,109.507,182.212,109.507,186.487z"/>
	<path d="M122.44,152.251c0,0.009,0,0.018,0,0.027c0.009,0,0.018,0,0.027,0L122.44,152.251z"/>
	<path d="M186.501,173.661c0,0.009,0,0.019,0,0.027c0.01,0,0.02,0,0.029,0L186.501,173.661z"/>
	<path d="M143.712,156.569c0-0.011,0-0.022,0-0.033l-0.031,0.033C143.692,156.569,143.701,156.569,143.712,156.569z"/>
	<path d="M130.984,165.095c0,0.012,0,0.021,0,0.033c0.011,0,0.021,0,0.032,0L130.984,165.095z"/>
	<path d="M126.726,156.536c0,0.009,0,0.019,0,0.027c0.009,0,0.018,0,0.026,0L126.726,156.536z"/>
	<path d="M139.574,118.177c0.012,0,0.023,0,0.035,0l-0.035-0.028C139.574,118.158,139.574,118.167,139.574,118.177z"/>
	<ellipse transform="matrix(0.8303 -0.5573 0.5573 0.8303 -51.3074 118.7402)" cx="169.323" cy="143.619" rx="0.009" ry="0.009"/>
	<path d="M173.683,143.681c0,0.011,0,0.021,0,0.033c0.008,0,0.016,0,0.023,0L173.683,143.681z"/>
	<path d="M182.253,152.278c0.009,0,0.018,0,0.027,0l-0.027-0.027C182.253,152.26,182.253,152.27,182.253,152.278z"/>
	<path d="M186.548,177.954c-0.008,0-0.017,0-0.024,0c0,0.009,0,0.017,0,0.025L186.548,177.954z"/>
	<path d="M135.324,126.747c0-0.012,0-0.023,0-0.035c-0.009,0-0.019,0-0.028,0L135.324,126.747z"/>
	<ellipse transform="matrix(0.7423 -0.67 0.67 0.7423 -76.4804 139.9305)" cx="143.701" cy="169.407" rx="0.013" ry="0.013"/>
	<path d="M135.296,113.863c0,0.012,0,0.023,0,0.035c0.009,0,0.019,0,0.028,0L135.296,113.863z"/>
	<path d="M131.011,126.712c0,0.012,0,0.023,0,0.035l0.027-0.035C131.029,126.712,131.02,126.712,131.011,126.712z"/>
	<path d="M126.725,118.177c0.012,0,0.023,0,0.035,0c0-0.01,0-0.019,0-0.027L126.725,118.177z"/>
	<path d="M131.039,113.898c0-0.012,0-0.023,0-0.035l-0.028,0.035C131.02,113.898,131.03,113.898,131.039,113.898z"/>
	<ellipse transform="matrix(0.6657 -0.7462 0.7462 0.6657 -46.8613 157.4304)" cx="152.27" cy="131.015" rx="0.012" ry="0.012"/>
	<ellipse transform="matrix(0.6679 -0.7442 0.7442 0.6679 -89.2865 164.4192)" cx="139.595" cy="182.259" rx="0.013" ry="0.013"/>
	<ellipse transform="matrix(0.4995 -0.8663 0.8663 0.4995 -93.3602 219.8791)" cx="143.624" cy="190.742" rx="0.008" ry="0.008"/>
	<path d="M131.011,190.81c0,0.013,0,0.024,0,0.037l0.027-0.037C131.029,190.81,131.02,190.81,131.011,190.81z"/>
	<ellipse transform="matrix(0.7615 -0.6482 0.6482 0.7615 -86.8882 128.408)" cx="131.024" cy="182.259" rx="0.013" ry="0.013"/>
	<path d="M109.584,156.564c0.012,0,0.024,0,0.036,0c0-0.011,0-0.023,0-0.033L109.584,156.564z"/>
	<path d="M186.531,156.564c0.012,0,0.024,0,0.036,0l-0.036-0.029C186.531,156.544,186.531,156.554,186.531,156.564z"/>
	<path d="M169.398,182.243c0,0.01,0,0.02,0,0.029l0.021-0.029C169.411,182.243,169.405,182.243,169.398,182.243z"/>
	<path d="M173.71,182.276c0-0.013,0-0.024,0-0.037c-0.01,0-0.02,0-0.03,0L173.71,182.276z"/>
	<path d="M135.324,190.847c0-0.012,0-0.024,0-0.037c-0.009,0-0.018,0-0.027,0L135.324,190.847z"/>
	<path d="M122.468,147.964c-0.009,0-0.018,0-0.027,0c0,0.01,0,0.02,0,0.029L122.468,147.964z"/>
	<path d="M109.584,156.53c0,0.011,0,0.022,0,0.033l0.036-0.033C109.608,156.53,109.596,156.53,109.584,156.53z"/>
	<path d="M109.612,135.324c0-0.011,0-0.022,0-0.034l-0.027,0.035C109.594,135.325,109.603,135.325,109.612,135.324z"/>
	<ellipse transform="matrix(0.7167 -0.6974 0.6974 0.7167 -62.0965 117.7597)" cx="113.885" cy="135.305" rx="0.013" ry="0.013"/>
	<path d="M105.299,139.603c0.012,0,0.023,0,0.035,0c0-0.009,0-0.018,0-0.026L105.299,139.603z"/>
	<path d="M135.323,143.679c-0.011,0-0.022,0-0.033,0c0,0.008,0,0.016,0,0.023L135.323,143.679z"/>
	<path d="M101.053,139.593c0-0.011,0-0.021,0-0.031c-0.01,0-0.021,0-0.031,0L101.053,139.593z"/>
	<path d="M109.612,135.29c-0.009,0-0.019,0-0.028,0c0,0.012,0,0.023,0,0.035L109.612,135.29z"/>
	<path d="M105.299,139.576c0,0.009,0,0.018,0,0.026l0.035-0.026C105.323,139.576,105.311,139.576,105.299,139.576z"/>
	<path d="M182.287,143.681c-0.012,0-0.022,0-0.034,0l0.034,0.023C182.287,143.696,182.287,143.689,182.287,143.681z"/>
	<path d="M182.253,147.991c0.009,0,0.017,0,0.026,0c0-0.009,0-0.017,0-0.025L182.253,147.991z"/>
	<path d="M186.567,156.564c0-0.01,0-0.02,0-0.029c-0.012,0-0.024,0-0.036,0L186.567,156.564z"/>
	<path d="M182.281,152.278c0-0.009,0-0.019,0-0.027c-0.009,0-0.019,0-0.027,0L182.281,152.278z"/>
	<path d="M156.505,92.428c0,0.009,0,0.018,0,0.027c0.01,0,0.021,0,0.03,0L156.505,92.428z"/>
	<path d="M152.265,109.572c-0.01,0-0.02,0-0.03,0c0,0.01,0,0.019,0,0.029C152.235,109.601,152.265,109.572,152.265,109.572z"/>
	<path d="M126.725,118.149c0,0.009,0,0.018,0,0.027l0.035-0.027C126.749,118.149,126.737,118.149,126.725,118.149z"/>
	<path d="M131.039,113.863c-0.009,0-0.019,0-0.028,0c0,0.012,0,0.023,0,0.035L131.039,113.863z"/>
	<path d="M186.547,182.236c0-0.011,0-0.021,0-0.03c-0.009,0-0.019,0-0.027,0C186.52,182.206,186.544,182.234,186.547,182.236z"/>
	<path d="M186.548,177.98c0-0.009,0-0.017,0-0.025l-0.024,0.025C186.532,177.98,186.54,177.98,186.548,177.98z"/>
	<path d="M135.323,143.702c0-0.008,0-0.016,0-0.023l-0.033,0.023C135.301,143.702,135.312,143.702,135.323,143.702z"/>
	<path d="M135.324,147.993c0-0.013,0-0.024,0-0.037c-0.009,0-0.018,0-0.027,0L135.324,147.993z"/>
	<path d="M135.323,152.251c-0.011,0-0.022,0-0.033,0c0,0.008,0,0.016,0,0.023L135.323,152.251z"/>
	<path d="M122.468,147.993c0-0.01,0-0.02,0-0.029l-0.027,0.029C122.449,147.993,122.458,147.993,122.468,147.993z"/>
	<path d="M126.753,156.564c0-0.009,0-0.019,0-0.027c-0.009,0-0.018,0-0.026,0L126.753,156.564z"/>
	<path d="M135.297,147.993c0.009,0,0.018,0,0.027,0l-0.027-0.037C135.297,147.969,135.297,147.98,135.297,147.993z"/>
	<path d="M122.468,152.278c0-0.009,0-0.019,0-0.027c-0.009,0-0.018,0-0.027,0L122.468,152.278z"/>
	<path d="M186.531,173.661c-0.01,0-0.02,0-0.029,0l0.029,0.027C186.531,173.68,186.531,173.67,186.531,173.661z"/>
	<path d="M139.609,118.177c0-0.01,0-0.019,0-0.028c-0.012,0-0.023,0-0.035,0L139.609,118.177z"/>
	<path d="M135.324,113.863c-0.009,0-0.019,0-0.028,0l0.028,0.035C135.324,113.887,135.324,113.875,135.324,113.863z"/>
	<path d="M131.011,126.747c0.009,0,0.018,0,0.027,0c0-0.012,0-0.023,0-0.035L131.011,126.747z"/>
	<path d="M135.296,126.747c0.009,0,0.019,0,0.028,0l-0.028-0.035C135.296,126.724,135.296,126.735,135.296,126.747z"/>
	<path d="M169.35,186.505l-0.002-0.002c0,0.008,0,0.016,0,0.023c0.009,0,0.018,0,0.026,0
		C169.375,186.526,169.348,186.503,169.35,186.505L169.35,186.505z"/>
	<path d="M143.712,156.536c-0.011,0-0.02,0-0.031,0c0,0.011,0,0.022,0,0.033L143.712,156.536z"/>
	<path d="M135.323,152.274c0-0.008,0-0.016,0-0.023l-0.033,0.023C135.301,152.274,135.312,152.274,135.323,152.274z"/>
	<path d="M131.011,190.847c0.009,0,0.018,0,0.027,0c0-0.012,0-0.025,0-0.037L131.011,190.847z"/>
	<path d="M135.297,190.847c0.009,0,0.018,0,0.027,0l-0.027-0.037C135.297,190.821,135.297,190.835,135.297,190.847z"/>
	<polygon points="173.661,186.589 173.662,186.589 173.662,186.588 	"/>
	<path d="M173.692,186.589c0-0.01,0-0.021,0-0.031c0-0.002-0.03,0.031-0.029,0.031C173.672,186.589,173.682,186.589,173.692,186.589
		z"/>
	<path d="M169.398,182.273c0.007,0,0.014,0,0.021,0c0-0.01,0-0.02,0-0.029L169.398,182.273z"/>
	<path d="M173.68,182.276c0.01,0,0.02,0,0.03,0l-0.03-0.037C173.68,182.251,173.68,182.265,173.68,182.276z"/>
	<path d="M169.374,186.526c0-0.007,0-0.014,0-0.021c-0.008,0-0.016,0-0.025,0C169.354,186.509,169.375,186.526,169.374,186.526z"/>
	<path d="M173.692,186.558c-0.01,0-0.02,0-0.029,0c0,0.01,0,0.02,0,0.03C173.664,186.586,173.692,186.556,173.692,186.558z"/>
	<polygon points="169.349,186.505 169.374,186.526 169.35,186.505 	"/>
	<polygon points="173.662,186.589 173.692,186.558 173.662,186.588 	"/>
	<path d="M152.276,113.868c0-0.011,0-0.021,0-0.032c-0.011,0-0.021,0-0.031,0L152.276,113.868z"/>
	<path d="M156.531,113.878c-0.01,0-0.02,0-0.029,0c0,0.009,0,0.018,0,0.027C156.501,113.905,156.53,113.88,156.531,113.878z"/>
	<path d="M152.265,109.602c0-0.01,0-0.02,0-0.029c0,0-0.03,0.028-0.03,0.029C152.244,109.602,152.255,109.602,152.265,109.602z"/>
	<path d="M152.276,113.869c0-0.001-0.031-0.033-0.031-0.033c0,0.011,0,0.022,0,0.033
		C152.255,113.869,152.265,113.869,152.276,113.869z"/>
	<path d="M156.532,113.905c0-0.01,0-0.019,0-0.027l-0.03,0.027C156.511,113.905,156.522,113.905,156.532,113.905z"/>
	<polygon points="156.532,113.878 156.531,113.878 156.501,113.905 	"/>
	<path d="M182.253,143.681c0,0.008,0,0.016,0,0.023c0.012,0,0.022,0,0.034,0L182.253,143.681z"/>
	<path d="M182.253,147.966c0,0.009,0,0.017,0,0.025l0.026-0.025C182.271,147.966,182.262,147.966,182.253,147.966z"/>
	<path d="M177.994,143.712c0-0.011,0-0.021,0-0.031l-0.032,0.031C177.973,143.712,177.984,143.712,177.994,143.712z"/>
	<polygon points="186.548,182.237 186.547,182.236 186.547,182.237 	"/>
	<path d="M186.52,182.237c0.01,0,0.018,0,0.027,0l-0.027-0.031C186.52,182.216,186.52,182.228,186.52,182.237z"/>
	<polygon points="186.547,182.237 186.547,182.236 186.52,182.206 	"/>
	<path d="M101.021,139.593c0.01,0,0.021,0,0.031,0l-0.031-0.031C101.021,139.571,101.021,139.582,101.021,139.593z"/>
	<path d="M177.994,143.681c-0.011,0-0.021,0-0.032,0c0,0.011,0,0.021,0,0.031L177.994,143.681z"/>
	<path d="M173.706,143.681c-0.008,0-0.016,0-0.023,0l0.023,0.033C173.706,143.703,173.706,143.691,173.706,143.681z"/>
	<path d="M156.507,92.429c-0.002-0.001,0.028,0.026,0.028,0.026c0-0.009,0-0.018,0-0.026
		C156.526,92.429,156.517,92.429,156.507,92.429z"/>
	<path d="M131.016,165.095c-0.011,0-0.021,0-0.032,0l0.032,0.033C131.016,165.117,131.016,165.105,131.016,165.095z"/>
	<ellipse transform="matrix(0.6482 -0.7615 0.7615 0.6482 -74.3725 143.546)" cx="118.17" cy="152.265" rx="0.013" ry="0.013"/>
	<ellipse transform="matrix(0.6873 -0.7264 0.7264 0.6873 -70.5377 132.1049)" cx="118.168" cy="147.98" rx="0.013" ry="0.013"/>
	<ellipse transform="matrix(0.7264 -0.6873 0.6873 0.7264 -70.5458 118.7667)" cx="113.884" cy="147.98" rx="0.013" ry="0.013"/>
</g>
<g>
	<g>
		<path fill="#BCD9EA" d="M279,265.28c3.225,0,3.225-5,0-5C275.775,260.28,275.775,265.28,279,265.28L279,265.28z"/>
	</g>
</g>
</svg>
