<?xml version="1.0" encoding="utf-8"?>
<!-- Generator: Adobe Illustrator 21.0.0, SVG Export Plug-In . SVG Version: 6.00 Build 0)  -->
<svg version="1.1" id="Layer_1" xmlns="http://www.w3.org/2000/svg" xmlns:xlink="http://www.w3.org/1999/xlink" x="0px" y="0px"
	 viewBox="0 0 283.46 283.46" enable-background="new 0 0 283.46 283.46" xml:space="preserve">
<path fill="#BCD9EA" d="M82.352,265.315c-6.235,0-13.889-4.419-17.008-9.819L5.965,152.647c-3.118-5.4-3.118-14.238,0-19.639
	L65.344,30.16c3.119-5.4,10.772-9.819,17.008-9.819h118.761c6.236,0,13.89,4.419,17.008,9.819l59.38,102.849
	c3.118,5.4,3.118,14.238,0,19.639l-59.38,102.849c-3.118,5.4-10.771,9.819-17.008,9.819H82.352z"/>
<g>
	<path fill="#002856" d="M231.74,133.009L195.24,69.79c-3.118-5.401-10.771-9.82-17.008-9.82h-73
		c-6.235,0-13.889,4.419-17.008,9.819l-36.499,63.219c-3.118,5.4-3.118,14.238,0,19.638l36.499,63.219
		c3.119,5.401,10.772,9.819,17.008,9.819h73c6.236,0,13.89-4.419,17.008-9.82l36.499-63.219
		C234.858,147.247,234.858,138.409,231.74,133.009z M184.957,202.801c0,2.972-2.431,5.403-5.403,5.403h-75.642
		c-2.972,0-5.403-2.431-5.403-5.403v-66.457c0-2.972,2.431-5.403,5.403-5.403h4.203V111.34c0-18.686,15.202-33.888,33.888-33.888
		c18.686,0,33.888,15.202,33.888,33.888v19.601h3.662c2.972,0,5.403,2.431,5.403,5.403V202.801z"/>
	<path fill="#002856" d="M142.003,85.016c-14.515,0-26.324,11.809-26.324,26.324v19.601h52.648V111.34
		C168.327,96.825,156.518,85.016,142.003,85.016z"/>
</g>
<g>
	<path fill="#002856" d="M148.179,170.659c-0.559-0.547-1.258-1.027-2.101-1.437c-0.842-0.411-1.831-0.826-2.969-1.248
		c-0.547-0.189-1.048-0.374-1.5-0.552c-0.453-0.179-0.853-0.379-1.2-0.6c-0.347-0.221-0.616-0.468-0.805-0.742
		c-0.189-0.273-0.284-0.611-0.284-1.011c0-0.673,0.257-1.174,0.774-1.5c0.516-0.326,1.362-0.49,2.542-0.49
		c1.052,0,1.953,0.122,2.7,0.363c0.747,0.242,1.426,0.522,2.037,0.837l1.421-3.884c-0.695-0.379-1.579-0.727-2.653-1.042
		c-1.074-0.315-2.348-0.474-3.822-0.474c-1.242,0-2.358,0.153-3.348,0.458c-0.99,0.306-1.831,0.742-2.526,1.31
		c-0.694,0.569-1.232,1.258-1.611,2.069s-0.568,1.721-0.568,2.732s0.179,1.869,0.537,2.574c0.358,0.706,0.821,1.306,1.39,1.8
		c0.569,0.495,1.211,0.906,1.927,1.232c0.716,0.326,1.431,0.616,2.147,0.868c1.642,0.548,2.8,1.058,3.474,1.532
		c0.674,0.473,1.011,1.069,1.011,1.784c0,0.337-0.053,0.642-0.158,0.916c-0.106,0.274-0.295,0.511-0.568,0.71
		c-0.274,0.201-0.637,0.359-1.09,0.474c-0.453,0.116-1.027,0.174-1.721,0.174c-1.39,0-2.563-0.142-3.521-0.426
		c-0.959-0.284-1.764-0.605-2.416-0.963l-1.39,3.916c0.294,0.169,0.658,0.347,1.09,0.537c0.431,0.19,0.947,0.368,1.547,0.537
		s1.289,0.31,2.068,0.426c0.779,0.115,1.653,0.174,2.622,0.174c2.884,0,5.042-0.563,6.474-1.69c1.432-1.126,2.147-2.711,2.147-4.753
		c0-1.052-0.137-1.947-0.411-2.684C149.153,171.849,148.736,171.206,148.179,170.659z"/>
	<path fill="#002856" d="M128.22,170.659c-0.559-0.547-1.258-1.027-2.101-1.437c-0.842-0.411-1.831-0.826-2.969-1.248
		c-0.547-0.189-1.048-0.374-1.5-0.552c-0.453-0.179-0.853-0.379-1.2-0.6c-0.347-0.221-0.616-0.468-0.805-0.742
		c-0.189-0.273-0.284-0.611-0.284-1.011c0-0.673,0.257-1.174,0.774-1.5c0.516-0.326,1.362-0.49,2.542-0.49
		c1.052,0,1.953,0.122,2.7,0.363c0.747,0.242,1.426,0.522,2.037,0.837l1.421-3.884c-0.695-0.379-1.579-0.727-2.653-1.042
		c-1.074-0.315-2.347-0.474-3.822-0.474c-1.242,0-2.358,0.153-3.348,0.458c-0.99,0.306-1.831,0.742-2.526,1.31
		c-0.694,0.569-1.232,1.258-1.611,2.069s-0.568,1.721-0.568,2.732s0.179,1.869,0.537,2.574c0.358,0.706,0.821,1.306,1.39,1.8
		c0.569,0.495,1.211,0.906,1.927,1.232c0.716,0.326,1.431,0.616,2.148,0.868c1.642,0.548,2.8,1.058,3.474,1.532
		c0.674,0.473,1.011,1.069,1.011,1.784c0,0.337-0.053,0.642-0.158,0.916c-0.106,0.274-0.295,0.511-0.568,0.71
		c-0.274,0.201-0.637,0.359-1.09,0.474c-0.453,0.116-1.027,0.174-1.721,0.174c-1.39,0-2.563-0.142-3.521-0.426
		c-0.959-0.284-1.764-0.605-2.416-0.963l-1.39,3.916c0.294,0.169,0.658,0.347,1.09,0.537c0.431,0.19,0.947,0.368,1.547,0.537
		s1.289,0.31,2.068,0.426c0.779,0.115,1.653,0.174,2.622,0.174c2.884,0,5.042-0.563,6.474-1.69c1.432-1.126,2.147-2.711,2.147-4.753
		c0-1.052-0.137-1.947-0.411-2.684C129.193,171.849,128.777,171.206,128.22,170.659z"/>
	<path fill="#002856" d="M231.74,133.009L195.24,69.79c-3.118-5.401-10.771-9.82-17.008-9.82h-73
		c-6.235,0-13.889,4.419-17.008,9.819l-36.499,63.219c-3.118,5.4-3.118,14.238,0,19.639l36.499,63.219
		c3.119,5.401,10.772,9.819,17.008,9.819h73c6.236,0,13.89-4.419,17.008-9.82l36.499-63.219
		C234.858,147.247,234.858,138.409,231.74,133.009z M184.957,202.801c0,2.972-2.431,5.403-5.403,5.403h-75.642
		c-2.972,0-5.403-2.431-5.403-5.403v-66.457c0-2.972,2.431-5.403,5.403-5.403h4.203V111.34c0-18.686,15.202-33.888,33.888-33.888
		c18.686,0,33.888,15.202,33.888,33.888v19.601h3.662c2.972,0,5.403,2.431,5.403,5.403V202.801z"/>
	<polygon fill="#002856" points="160.132,159.384 155.206,159.384 155.206,181.27 169.828,181.27 169.828,177.038 160.132,177.038 	
		"/>
	<path fill="#002856" d="M168.327,111.34c0-14.515-11.809-26.324-26.324-26.324c-14.515,0-26.324,11.809-26.324,26.324v19.601
		h52.648V111.34z"/>
</g>
</svg>
