<?xml version="1.0" encoding="utf-8"?>
<!-- Generator: Adobe Illustrator 21.0.0, SVG Export Plug-In . SVG Version: 6.00 Build 0)  -->
<svg version="1.1" id="Layer_1" xmlns="http://www.w3.org/2000/svg" xmlns:xlink="http://www.w3.org/1999/xlink" x="0px" y="0px"
	 viewBox="0 0 283.46 283.46" enable-background="new 0 0 283.46 283.46" xml:space="preserve">
<path fill="#BCD9EA" d="M82.352,264.215c-6.236,0-13.89-4.419-17.008-9.819L5.965,151.547c-3.118-5.4-3.118-14.238,0-19.639
	L65.344,29.06c3.118-5.4,10.772-9.819,17.008-9.819h118.76c6.236,0,13.89,4.419,17.008,9.819l59.38,102.849
	c3.118,5.4,3.118,14.238,0,19.639l-59.38,102.849c-3.118,5.4-10.771,9.819-17.008,9.819H82.352z"/>
<path fill="#002856" d="M105.233,224.585c-6.235,0-13.889-4.418-17.008-9.818l-36.499-63.22c-3.118-5.4-3.118-14.238,0-19.639
	l36.499-63.22c3.119-5.4,10.772-9.818,17.008-9.818h72.999c6.236,0,13.89,4.418,17.008,9.819l36.499,63.219
	c3.118,5.4,3.118,14.238,0,19.639l-36.499,63.219c-3.118,5.401-10.771,9.819-17.008,9.819H105.233z"/>
<path fill="#BCD9EA" d="M121.947,186.642c-3.38,0-7.528-2.395-9.219-5.322l-19.784-34.269c-1.69-2.927-1.69-7.718,0-10.645
	l19.784-34.269c1.69-2.927,5.839-5.322,9.219-5.322h39.57c3.38,0,7.528,2.396,9.219,5.323l19.784,34.268
	c1.69,2.927,1.69,7.718,0,10.645l-19.784,34.269c-1.69,2.928-5.839,5.322-9.219,5.322H121.947z"/>
<path fill="#BCD9EA" d="M78.815,113.068c0.176-1.189,0.245-2.445,0.208-3.768c-0.039-1.324-0.25-2.598-0.633-3.819l1.229-2.128
	l17.344,10.014l-1.748,3.029l-13.289-7.674c0.089,0.652,0.104,1.418,0.043,2.295c-0.062,0.877-0.167,1.695-0.317,2.453
	L78.815,113.068z"/>
<path fill="#BCD9EA" d="M203.921,113.122c-0.603,0.348-1.262,0.562-1.981,0.644c-0.722,0.083-1.467,0.085-2.234,0.005
	c-0.769-0.079-1.552-0.222-2.349-0.429c-0.799-0.206-1.585-0.42-2.356-0.642c-0.406-0.122-0.88-0.25-1.423-0.381
	c-0.543-0.131-1.076-0.246-1.6-0.344c-0.523-0.098-1.011-0.162-1.462-0.191c-0.449-0.029-0.788,0.01-1.016,0.119l4.45,7.709
	l-2.551,1.474l-6.373-11.038c0.123-0.094,0.28-0.195,0.472-0.307c0.193-0.111,0.339-0.195,0.439-0.253
	c0.801-0.462,1.612-0.759,2.439-0.891c0.824-0.132,1.648-0.156,2.476-0.077c0.823,0.08,1.646,0.229,2.462,0.447
	c0.814,0.219,1.621,0.443,2.421,0.672c0.615,0.178,1.212,0.346,1.792,0.5c0.578,0.155,1.127,0.268,1.643,0.336
	c0.519,0.067,1.014,0.076,1.485,0.027c0.471-0.051,0.908-0.19,1.309-0.422c0.867-0.501,1.34-1.107,1.418-1.82
	c0.078-0.713-0.09-1.428-0.504-2.144c-0.27-0.468-0.588-0.862-0.952-1.186c-0.364-0.324-0.728-0.587-1.09-0.789
	c-0.362-0.203-0.706-0.366-1.033-0.488c-0.326-0.123-0.582-0.21-0.765-0.26l1.258-2.729c1.074,0.314,2.086,0.826,3.039,1.533
	c0.953,0.705,1.742,1.602,2.369,2.686c1.069,1.854,1.419,3.469,1.049,4.852C206.382,111.116,205.438,112.247,203.921,113.122z"/>
<path fill="#BCD9EA" d="M140.56,215.438c-0.52,0-1.055-0.035-1.604-0.102c-0.549-0.067-1.069-0.154-1.561-0.26
	c-0.492-0.105-0.939-0.221-1.344-0.346c-0.404-0.125-0.713-0.246-0.925-0.361l0.694-2.978c0.404,0.192,0.992,0.41,1.762,0.651
	c0.77,0.24,1.725,0.361,2.861,0.361c1.521,0,2.62-0.295,3.295-0.883c0.674-0.586,1.011-1.373,1.011-2.355
	c0-0.635-0.129-1.165-0.391-1.59c-0.26-0.424-0.616-0.765-1.068-1.025c-0.453-0.26-0.973-0.443-1.561-0.549
	c-0.588-0.106-1.21-0.159-1.864-0.159h-1.186v-2.832h1.445c0.443,0,0.891-0.043,1.344-0.13c0.452-0.086,0.861-0.24,1.227-0.463
	c0.366-0.222,0.665-0.515,0.896-0.881c0.232-0.366,0.347-0.838,0.347-1.417c0-0.462-0.087-0.856-0.26-1.184
	c-0.174-0.327-0.4-0.596-0.68-0.809c-0.279-0.213-0.602-0.365-0.968-0.463c-0.366-0.096-0.751-0.145-1.156-0.145
	c-0.867,0-1.638,0.131-2.312,0.39c-0.674,0.261-1.271,0.556-1.792,0.882l-1.272-2.601c0.27-0.173,0.598-0.356,0.983-0.55
	c0.385-0.191,0.813-0.375,1.286-0.549c0.472-0.173,0.977-0.312,1.517-0.419c0.539-0.107,1.107-0.158,1.705-0.158
	c1.117,0,2.081,0.134,2.89,0.404c0.81,0.271,1.478,0.65,2.009,1.142c0.529,0.491,0.924,1.069,1.184,1.733
	c0.261,0.665,0.391,1.392,0.391,2.183c0,0.924-0.256,1.754-0.766,2.484c-0.511,0.732-1.17,1.292-1.98,1.676
	c1.04,0.367,1.902,0.975,2.587,1.821c0.684,0.849,1.025,1.936,1.025,3.267c0,0.887-0.154,1.711-0.463,2.471
	c-0.308,0.761-0.779,1.416-1.415,1.965c-0.637,0.55-1.441,0.982-2.414,1.301C143.069,215.277,141.908,215.438,140.56,215.438z"/>
<g>
	
		<rect x="103.887" y="65.417" transform="matrix(0.866 -0.5 0.5 0.866 -25.7144 63.3647)" fill="#BCD9EA" width="3" height="28.501"/>
</g>
<g>
	<rect x="197.75" y="140.23" fill="#BCD9EA" width="28.5" height="3"/>
</g>
<g>
	<rect x="163.353" y="78.167" transform="matrix(0.5 -0.866 0.866 0.5 19.8074 193.6415)" fill="#BCD9EA" width="28.5" height="3"/>
</g>
<g>
	
		<rect x="92.137" y="200.847" transform="matrix(0.5 -0.866 0.866 0.5 -122.044 193.3064)" fill="#BCD9EA" width="28.5" height="3"/>
</g>
<g>
	<rect x="56.75" y="140.23" fill="#BCD9EA" width="28.5" height="3"/>
</g>
<g>
	
		<rect x="176.103" y="189.096" transform="matrix(0.866 -0.5 0.5 0.866 -77.8775 116.0406)" fill="#BCD9EA" width="3" height="28.501"/>
</g>
<g>
	<path fill="#BCD9EA" d="M203.51,168.945c-0.176,1.189-0.245,2.445-0.208,3.768c0.039,1.324,0.25,2.598,0.633,3.819l-1.229,2.128
		l-17.344-10.014l1.748-3.029l13.289,7.674c-0.089-0.652-0.104-1.418-0.043-2.295c0.062-0.877,0.167-1.695,0.316-2.453
		L203.51,168.945z"/>
	<path fill="#BCD9EA" d="M78.404,168.892c0.603-0.348,1.262-0.562,1.981-0.644c0.722-0.083,1.467-0.085,2.234-0.005
		c0.769,0.079,1.552,0.222,2.349,0.429c0.799,0.206,1.585,0.42,2.356,0.642c0.406,0.122,0.88,0.25,1.423,0.381
		c0.543,0.131,1.076,0.246,1.6,0.344c0.523,0.098,1.011,0.162,1.462,0.191c0.449,0.029,0.788-0.01,1.016-0.119l-4.45-7.709
		l2.551-1.474l6.373,11.038c-0.123,0.094-0.28,0.195-0.472,0.307c-0.193,0.111-0.339,0.195-0.439,0.253
		c-0.801,0.462-1.612,0.759-2.438,0.891c-0.824,0.132-1.648,0.156-2.476,0.077c-0.823-0.08-1.646-0.229-2.462-0.447
		c-0.814-0.219-1.621-0.443-2.421-0.672c-0.615-0.178-1.212-0.346-1.792-0.5c-0.578-0.155-1.127-0.268-1.644-0.336
		c-0.519-0.067-1.014-0.076-1.485-0.027c-0.471,0.051-0.908,0.191-1.309,0.422c-0.867,0.501-1.34,1.107-1.418,1.82
		c-0.078,0.713,0.09,1.428,0.504,2.145c0.269,0.468,0.588,0.862,0.952,1.185c0.364,0.324,0.728,0.587,1.09,0.789
		c0.362,0.203,0.706,0.366,1.033,0.488c0.326,0.123,0.582,0.21,0.765,0.26l-1.258,2.729c-1.074-0.314-2.086-0.826-3.039-1.533
		c-0.953-0.705-1.742-1.602-2.369-2.686c-1.069-1.854-1.419-3.469-1.049-4.852C75.943,170.898,76.888,169.767,78.404,168.892z"/>
	<path fill="#BCD9EA" d="M141.765,66.576c0.521,0,1.056,0.035,1.604,0.103c0.549,0.066,1.069,0.154,1.561,0.26
		c0.491,0.105,0.939,0.221,1.344,0.346c0.404,0.125,0.713,0.246,0.925,0.361l-0.693,2.978c-0.404-0.192-0.992-0.41-1.763-0.651
		c-0.771-0.24-1.725-0.361-2.861-0.361c-1.521,0-2.62,0.295-3.295,0.883c-0.674,0.586-1.011,1.373-1.011,2.355
		c0,0.635,0.129,1.165,0.391,1.59c0.26,0.424,0.616,0.765,1.068,1.025c0.453,0.26,0.973,0.443,1.561,0.549s1.209,0.159,1.863,0.159
		h1.186v2.832h-1.445c-0.442,0-0.891,0.043-1.344,0.13c-0.452,0.086-0.861,0.24-1.227,0.463c-0.366,0.222-0.665,0.515-0.896,0.881
		c-0.232,0.366-0.347,0.838-0.347,1.417c0,0.462,0.087,0.856,0.26,1.185c0.174,0.327,0.4,0.596,0.68,0.809
		c0.279,0.213,0.602,0.365,0.969,0.463c0.365,0.096,0.751,0.145,1.155,0.145c0.866,0,1.638-0.131,2.312-0.39
		c0.675-0.261,1.271-0.556,1.792-0.882l1.271,2.601c-0.27,0.173-0.598,0.356-0.983,0.55c-0.385,0.191-0.813,0.375-1.286,0.549
		c-0.472,0.173-0.977,0.312-1.518,0.419c-0.539,0.106-1.107,0.158-1.705,0.158c-1.117,0-2.08-0.134-2.89-0.404
		c-0.81-0.271-1.477-0.65-2.009-1.142c-0.529-0.491-0.924-1.069-1.184-1.733c-0.261-0.665-0.391-1.392-0.391-2.183
		c0-0.924,0.256-1.754,0.766-2.484c0.511-0.732,1.17-1.292,1.98-1.676c-1.04-0.367-1.902-0.975-2.587-1.821
		c-0.684-0.849-1.025-1.937-1.025-3.267c0-0.887,0.154-1.711,0.463-2.471c0.308-0.761,0.779-1.416,1.415-1.965
		c0.637-0.55,1.441-0.982,2.414-1.301C139.256,66.736,140.417,66.576,141.765,66.576z"/>
</g>
</svg>
