<?xml version="1.0" encoding="utf-8"?>
<!-- Generator: Adobe Illustrator 21.0.2, SVG Export Plug-In . SVG Version: 6.00 Build 0)  -->
<svg version="1.1" id="Layer_1" xmlns="http://www.w3.org/2000/svg" xmlns:xlink="http://www.w3.org/1999/xlink" x="0px" y="0px"
	 viewBox="0 0 184.7 165.7" style="enable-background:new 0 0 184.7 165.7;" xml:space="preserve">
<style type="text/css">
	.st0{fill:#002856;}
	.st1{fill:#BCD9EA;}
</style>
<path class="st0" d="M55.8,165.7c-6.2,0-13.9-4.4-17-9.8L2.3,92.7c-3.1-5.4-3.1-14.2,0-19.6L38.8,9.8C42,4.4,49.6,0,55.8,0h73
	c6.2,0,13.9,4.4,17,9.8L182.4,73c3.1,5.4,3.1,14.2,0,19.6l-36.5,63.2c-3.1,5.4-10.8,9.8-17,9.8H55.8L55.8,165.7z"/>
<path class="st1" d="M72.6,127.8c-3.4,0-7.5-2.4-9.2-5.3L43.6,88.2c-1.7-2.9-1.7-7.7,0-10.6l19.8-34.3c1.7-2.9,5.8-5.3,9.2-5.3h39.6
	c3.4,0,7.5,2.4,9.2,5.3l19.8,34.3c1.7,2.9,1.7,7.7,0,10.6l-19.8,34.3c-1.7,2.9-5.8,5.3-9.2,5.3H72.6z"/>
<path class="st1" d="M29.4,54.2c0.2-1.2,0.2-2.4,0.2-3.8c0-1.3-0.3-2.6-0.6-3.8l1.2-2.1l17.3,10l-1.7,3l-13.3-7.7
	c0.1,0.7,0.1,1.4,0,2.3c-0.1,0.9-0.2,1.7-0.3,2.5L29.4,54.2z"/>
<path class="st1" d="M154.5,54.3c-0.6,0.3-1.3,0.6-2,0.6c-0.7,0.1-1.5,0.1-2.2,0c-0.8-0.1-1.6-0.2-2.3-0.4c-0.8-0.2-1.6-0.4-2.4-0.6
	c-0.4-0.1-0.9-0.3-1.4-0.4s-1.1-0.2-1.6-0.3c-0.5-0.1-1-0.2-1.5-0.2c-0.4,0-0.8,0-1,0.1l4.4,7.7l-2.6,1.5l-6.4-11
	c0.1-0.1,0.3-0.2,0.5-0.3c0.2-0.1,0.3-0.2,0.4-0.3c0.8-0.5,1.6-0.8,2.4-0.9c0.8-0.1,1.6-0.2,2.5-0.1c0.8,0.1,1.6,0.2,2.5,0.4
	c0.8,0.2,1.6,0.4,2.4,0.7c0.6,0.2,1.2,0.3,1.8,0.5c0.6,0.2,1.1,0.3,1.6,0.3c0.5,0.1,1,0.1,1.5,0c0.5-0.1,0.9-0.2,1.3-0.4
	c0.9-0.5,1.3-1.1,1.4-1.8s-0.1-1.4-0.5-2.1c-0.3-0.5-0.6-0.9-1-1.2s-0.7-0.6-1.1-0.8c-0.4-0.2-0.7-0.4-1-0.5
	c-0.3-0.1-0.6-0.2-0.8-0.3l1.3-2.7c1.1,0.3,2.1,0.8,3,1.5c1,0.7,1.7,1.6,2.4,2.7c1.1,1.9,1.4,3.5,1,4.9
	C157,52.2,156.1,53.4,154.5,54.3z"/>
<path class="st1" d="M91.2,156.6c-0.5,0-1.1,0-1.6-0.1c-0.5-0.1-1.1-0.2-1.6-0.3c-0.5-0.1-0.9-0.2-1.3-0.3c-0.4-0.1-0.7-0.2-0.9-0.4
	l0.7-3c0.4,0.2,1,0.4,1.8,0.7c0.8,0.2,1.7,0.4,2.9,0.4c1.5,0,2.6-0.3,3.3-0.9c0.7-0.6,1-1.4,1-2.4c0-0.6-0.1-1.2-0.4-1.6
	c-0.3-0.4-0.6-0.8-1.1-1c-0.5-0.3-1-0.4-1.6-0.5c-0.6-0.1-1.2-0.2-1.9-0.2h-1.2v-2.8h1.4c0.4,0,0.9,0,1.3-0.1
	c0.5-0.1,0.9-0.2,1.2-0.5c0.4-0.2,0.7-0.5,0.9-0.9c0.2-0.4,0.3-0.8,0.3-1.4c0-0.5-0.1-0.9-0.3-1.2c-0.2-0.3-0.4-0.6-0.7-0.8
	c-0.3-0.2-0.6-0.4-1-0.5c-0.4-0.1-0.8-0.1-1.2-0.1c-0.9,0-1.6,0.1-2.3,0.4c-0.7,0.3-1.3,0.6-1.8,0.9l-1.3-2.6c0.3-0.2,0.6-0.4,1-0.5
	c0.4-0.2,0.8-0.4,1.3-0.5c0.5-0.2,1-0.3,1.5-0.4c0.5-0.1,1.1-0.2,1.7-0.2c1.1,0,2.1,0.1,2.9,0.4c0.8,0.3,1.5,0.6,2,1.1
	c0.5,0.5,0.9,1.1,1.2,1.7c0.3,0.7,0.4,1.4,0.4,2.2c0,0.9-0.3,1.8-0.8,2.5c-0.5,0.7-1.2,1.3-2,1.7c1,0.4,1.9,1,2.6,1.8
	c0.7,0.8,1,1.9,1,3.3c0,0.9-0.2,1.7-0.5,2.5c-0.3,0.8-0.8,1.4-1.4,2c-0.6,0.6-1.4,1-2.4,1.3C93.7,156.4,92.5,156.6,91.2,156.6z"/>
<g>
	<rect x="54.5" y="6.5" transform="matrix(0.866 -0.5 0.5 0.866 -2.8943 30.785)" class="st1" width="3" height="28.5"/>
</g>
<g>
	<rect x="148.4" y="81.4" class="st1" width="28.5" height="3"/>
</g>
<g>
	<rect x="114" y="19.3" transform="matrix(0.5 -0.866 0.866 0.5 46.0912 121.4351)" class="st1" width="28.5" height="3"/>
</g>
<g>
	<rect x="42.7" y="142" transform="matrix(0.5 -0.866 0.866 0.5 -95.7587 121.0961)" class="st1" width="28.5" height="3"/>
</g>
<g>
	<rect x="7.4" y="81.4" class="st1" width="28.5" height="3"/>
</g>
<g>
	<rect x="126.7" y="130.2" transform="matrix(0.866 -0.5 0.5 0.866 -55.0571 83.4635)" class="st1" width="3" height="28.5"/>
</g>
<g>
	<path class="st1" d="M154.1,110.1c-0.2,1.2-0.2,2.4-0.2,3.8c0,1.3,0.3,2.6,0.6,3.8l-1.2,2.1l-17.3-10l1.7-3l13.3,7.7
		c-0.1-0.7-0.1-1.4,0-2.3c0.1-0.9,0.2-1.7,0.3-2.5L154.1,110.1z"/>
	<path class="st1" d="M29,110c0.6-0.3,1.3-0.6,2-0.6c0.7-0.1,1.5-0.1,2.2,0c0.8,0.1,1.6,0.2,2.3,0.4c0.8,0.2,1.6,0.4,2.4,0.6
		c0.4,0.1,0.9,0.3,1.4,0.4s1.1,0.2,1.6,0.3c0.5,0.1,1,0.2,1.5,0.2c0.4,0,0.8,0,1-0.1l-4.4-7.7l2.6-1.5l6.4,11
		c-0.1,0.1-0.3,0.2-0.5,0.3c-0.2,0.1-0.3,0.2-0.4,0.3c-0.8,0.5-1.6,0.8-2.4,0.9c-0.8,0.1-1.6,0.2-2.5,0.1c-0.8-0.1-1.6-0.2-2.5-0.4
		c-0.8-0.2-1.6-0.4-2.4-0.7c-0.6-0.2-1.2-0.3-1.8-0.5c-0.6-0.2-1.1-0.3-1.6-0.3c-0.5-0.1-1-0.1-1.5,0c-0.5,0.1-0.9,0.2-1.3,0.4
		c-0.9,0.5-1.3,1.1-1.4,1.8c-0.1,0.7,0.1,1.4,0.5,2.1c0.3,0.5,0.6,0.9,1,1.2c0.4,0.3,0.7,0.6,1.1,0.8c0.4,0.2,0.7,0.4,1,0.5
		c0.3,0.1,0.6,0.2,0.8,0.3l-1.3,2.7c-1.1-0.3-2.1-0.8-3-1.5c-1-0.7-1.7-1.6-2.4-2.7c-1.1-1.9-1.4-3.5-1-4.9
		C26.6,112,27.5,110.9,29,110z"/>
	<path class="st1" d="M92.4,7.7c0.5,0,1.1,0,1.6,0.1c0.5,0.1,1.1,0.2,1.6,0.3c0.5,0.1,0.9,0.2,1.3,0.3c0.4,0.1,0.7,0.2,0.9,0.4
		l-0.7,3c-0.4-0.2-1-0.4-1.8-0.7c-0.8-0.2-1.7-0.4-2.9-0.4c-1.5,0-2.6,0.3-3.3,0.9c-0.7,0.6-1,1.4-1,2.4c0,0.6,0.1,1.2,0.4,1.6
		c0.3,0.4,0.6,0.8,1.1,1c0.5,0.3,1,0.4,1.6,0.5s1.2,0.2,1.9,0.2h1.2v2.8h-1.4c-0.4,0-0.9,0-1.3,0.1c-0.5,0.1-0.9,0.2-1.2,0.5
		c-0.4,0.2-0.7,0.5-0.9,0.9C89.1,22,89,22.4,89,23c0,0.5,0.1,0.9,0.3,1.2c0.2,0.3,0.4,0.6,0.7,0.8c0.3,0.2,0.6,0.4,1,0.5
		c0.4,0.1,0.8,0.1,1.2,0.1c0.9,0,1.6-0.1,2.3-0.4c0.7-0.3,1.3-0.6,1.8-0.9l1.3,2.6c-0.3,0.2-0.6,0.4-1,0.6c-0.4,0.2-0.8,0.4-1.3,0.5
		c-0.5,0.2-1,0.3-1.5,0.4c-0.5,0.1-1.1,0.2-1.7,0.2c-1.1,0-2.1-0.1-2.9-0.4c-0.8-0.3-1.5-0.7-2-1.1c-0.5-0.5-0.9-1.1-1.2-1.7
		c-0.3-0.7-0.4-1.4-0.4-2.2c0-0.9,0.3-1.8,0.8-2.5c0.5-0.7,1.2-1.3,2-1.7c-1-0.4-1.9-1-2.6-1.8c-0.7-0.8-1-1.9-1-3.3
		c0-0.9,0.2-1.7,0.5-2.5c0.3-0.8,0.8-1.4,1.4-2c0.6-0.6,1.4-1,2.4-1.3C89.9,7.9,91,7.7,92.4,7.7z"/>
</g>
</svg>
