<?xml version="1.0" encoding="utf-8"?>
<!-- Generator: Adobe Illustrator 21.0.0, SVG Export Plug-In . SVG Version: 6.00 Build 0)  -->
<svg version="1.1" id="Layer_1" xmlns="http://www.w3.org/2000/svg" xmlns:xlink="http://www.w3.org/1999/xlink" x="0px" y="0px"
	 viewBox="0 0 283.46 283.46" enable-background="new 0 0 283.46 283.46" xml:space="preserve">
<path fill="#BCD9EA" d="M82.349,264.215c-6.236,0-13.89-4.419-17.008-9.819L5.963,151.547c-3.118-5.4-3.118-14.238,0-19.639
	L65.342,29.06c3.118-5.4,10.772-9.819,17.008-9.819h118.76c6.236,0,13.89,4.419,17.008,9.819l59.38,102.849
	c3.118,5.4,3.118,14.238,0,19.639l-59.38,102.849c-3.118,5.4-10.771,9.819-17.008,9.819H82.349z"/>
<g>
	<g>
		<path fill="#002856" d="M178.23,224.585c2.49,0,5.204-0.713,7.768-1.903V100.86h-90v121.079c2.971,1.635,6.261,2.646,9.233,2.646
			H178.23z"/>
		<circle fill="#002856" cx="127.765" cy="93.11" r="1.961"/>
		<path fill="#002856" d="M148.336,91.704H135.63c-0.974,0-1.771,0.633-1.771,1.406s0.797,1.406,1.771,1.406h12.707
			c0.976,0,1.772-0.633,1.772-1.406S149.312,91.704,148.336,91.704z"/>
		<path fill="#002856" d="M231.737,131.908l-36.499-63.219c-3.118-5.401-10.771-9.819-17.008-9.819h-73
			c-6.235,0-13.889,4.418-17.008,9.818l-36.499,63.22c-3.118,5.4-3.118,14.238,0,19.639l36.499,63.22
			c0.232,0.401,0.496,0.794,0.775,1.184V93.199c0-8.183,6.656-14.839,14.838-14.839h74.323c8.183,0,14.839,6.656,14.839,14.839
			v124.525c0.884-0.935,1.645-1.929,2.24-2.959l36.499-63.219C234.855,146.147,234.855,137.309,231.737,131.908z"/>
	</g>
</g>
</svg>
