<?xml version="1.0" encoding="utf-8"?>
<!-- Generator: Adobe Illustrator 21.0.2, SVG Export Plug-In . SVG Version: 6.00 Build 0)  -->
<svg version="1.1" id="Layer_1" xmlns="http://www.w3.org/2000/svg" xmlns:xlink="http://www.w3.org/1999/xlink" x="0px" y="0px"
	 viewBox="0 0 184.3 165.7" style="enable-background:new 0 0 184.3 165.7;" xml:space="preserve">
<style type="text/css">
	.st0{fill:#002856;}
	.st1{fill:#FFFFFF;}
</style>
<g>
	<path class="st0" d="M83.6,50.2l-8,13.8l13.8,8l8-13.8L83.6,50.2z M87.7,65.4l-5.5-3.2l3.2-5.5l5.5,3.2L87.7,65.4z"/>
	<polygon class="st0" points="95.8,95.9 95.8,95.9 95.8,95.9 90.3,92.7 88.3,96.2 87.1,98.3 83.9,103.8 87.4,105.8 87.4,105.8 
		94.9,110.2 98.1,104.6 92.6,101.5 	"/>
	<polygon class="st0" points="78.4,100.6 81.6,95.1 76.1,91.9 79.3,86.4 73.8,83.2 67.4,94.3 	"/>
	<polygon class="st0" points="96.6,81.6 91.2,78.5 88,84.1 82.5,80.9 79.3,86.4 90.2,92.7 	"/>
	<path class="st0" d="M182.4,73L145.9,9.8c-3.1-5.4-10.8-9.8-17-9.8h-73c-6.2,0-13.9,4.4-17,9.8L2.3,73c-3.1,5.4-3.1,14.2,0,19.6
		l36.5,63.2c3.1,5.4,10.8,9.8,17,9.8h73c6.2,0,13.9-4.4,17-9.8l36.5-63.2C185.5,87.3,185.5,78.4,182.4,73z M158.9,83.5l-31.6,56
		c-1.7,3.1-4,5.6-6.6,7.7l0,0l0,0c-0.2,0.2-0.4,0.3-0.6,0.5l0,0l0,0c-4.5,3.3-9.9,5.1-15.5,5.1c-4.3,0-8.7-1.1-12.8-3.4l-56-31.6
		c-12.5-7.1-16.9-23-9.9-35.5l31.6-56c1.7-3.1,4-5.7,6.6-7.7l0,0l0,0c0.2-0.1,0.3-0.2,0.5-0.3l0,0l0,0c8-6,19.1-7,28.4-1.8L149,48
		C161.5,55,165.9,71,158.9,83.5z"/>
	<path class="st0" d="M143.3,58l-56-31.6c-7-3.9-15.8-1.5-19.8,5.5l-31.6,56c-3.9,7-1.5,15.8,5.5,19.8l56,31.6
		c7,3.9,15.8,1.5,19.8-5.5l31.6-56C152.7,70.8,150.3,62,143.3,58z M122,88.9l-5.5-3.2L110,96.8l-5.5-3.2l-6.4,11.1l5.5,3.2l6.4-11.1
		l5.5,3.2l-12.8,22.1l-5.5-3.2l3.2-5.5l-5.5-3.2l-3.2,5.5l-11.1-6.4l3.2-5.5l-5.4-3.1l-3.2,5.5l-16.6-9.6l3.2-5.5l-5.5-3.2l3.2-5.5
		l5.5,3.2l0,0l3.2-5.5l-5.5-3.2l3.2-5.5l5.5,3.2L68.2,80l5.5,3.2l3.2-5.5l5.5,3.2l3.2-5.5l-5.5-3.2L77,77.6l-5.5-3.2l3.1-5.4
		l-5.5-3.2l12.8-22.1l33.1,19.1l-3.2,5.5l-10.9-6.3L94.4,73l5.4,3.1l-3.2,5.5l5.5,3.2L99,90.4l5.5,3.2l6.4-11.1l-11.1-6.4l3.2-5.5
		l5.5,3.2l0,0l3.2-5.5l5.5,3.2l3.2-5.5l5.5,3.2l-3.2,5.5l-5.5-3.2l-3.2,5.5l5.5,3.2l0,0l3.2-5.5l5.5,3.2L122,88.9z"/>
	<path class="st1" d="M120.6,147.2l-0.6,0.5C120.2,147.5,120.4,147.3,120.6,147.2z"/>
	<path class="st1" d="M64.1,18.5l0.5-0.3C64.4,18.3,64.3,18.4,64.1,18.5z"/>
</g>
</svg>
