<?xml version="1.0" encoding="utf-8"?>
<!-- Generator: Adobe Illustrator 21.0.0, SVG Export Plug-In . SVG Version: 6.00 Build 0)  -->
<svg version="1.1" id="Layer_1" xmlns="http://www.w3.org/2000/svg" xmlns:xlink="http://www.w3.org/1999/xlink" x="0px" y="0px"
	 viewBox="0 0 283.46 283.46" enable-background="new 0 0 283.46 283.46" xml:space="preserve">
<path fill="#BCD9EA" d="M82.352,264.215c-6.236,0-13.89-4.419-17.008-9.819L5.965,151.547c-3.118-5.4-3.118-14.238,0-19.639
	L65.344,29.06c3.118-5.4,10.772-9.819,17.008-9.819h118.76c6.236,0,13.89,4.419,17.008,9.819l59.38,102.849
	c3.118,5.4,3.118,14.238,0,19.639l-59.38,102.849c-3.118,5.4-10.771,9.819-17.008,9.819H82.352z"/>
<g>
	<path fill="#002856" d="M133.026,109.067l-7.954,13.776l13.776,7.954l7.954-13.776L133.026,109.067z M137.107,124.298l-5.536-3.196
		l3.196-5.536l5.536,3.196L137.107,124.298z"/>
	<polygon fill="#002856" points="145.192,154.793 145.162,154.776 145.162,154.776 139.684,151.613 137.684,155.077 
		136.488,157.149 133.292,162.684 136.755,164.684 136.755,164.684 144.312,169.047 147.508,163.511 141.996,160.329 	"/>
	<polygon fill="#002856" points="127.756,159.488 130.952,153.953 125.499,150.804 128.695,145.269 123.16,142.073 116.768,153.144 
			"/>
	<polygon fill="#002856" points="146.019,140.509 140.623,137.394 137.427,142.929 131.891,139.733 128.695,145.269 139.627,151.58 
			"/>
	<path fill="#002856" d="M231.74,131.908L195.24,68.689c-3.118-5.401-10.771-9.82-17.008-9.82h-73
		c-6.235,0-13.889,4.419-17.008,9.819l-36.499,63.219c-3.118,5.4-3.118,14.238,0,19.639l36.499,63.219
		c3.119,5.401,10.772,9.819,17.008,9.819h73c6.236,0,13.89-4.419,17.008-9.82l36.499-63.219
		C234.858,146.147,234.858,137.309,231.74,131.908z M208.237,142.347l-31.631,56.011c-1.732,3.067-4.002,5.641-6.619,7.686
		l0.002-0.001l-0.002,0.001c-0.214,0.167-0.43,0.329-0.649,0.489l-0.002,0.001l0.002-0.001c-4.49,3.288-9.926,5.062-15.46,5.062
		c-4.336,0-8.728-1.082-12.765-3.363l-56.011-31.631c-12.508-7.063-16.937-22.985-9.874-35.492l31.631-56.011
		c1.737-3.075,4.011-5.659,6.636-7.707l-0.001,0.001l0.001-0.001c0.153-0.119,0.308-0.233,0.463-0.349l0.003-0.002l-0.003,0.002
		c8.021-5.973,19.14-7.045,28.393-1.818l56.011,31.631C210.871,113.918,215.3,129.84,208.237,142.347z"/>
	<path fill="#002856" d="M192.688,116.905l-56.011-31.631c-6.967-3.933-15.833-1.467-19.767,5.499l-31.631,56.011
		c-3.933,6.966-1.467,15.833,5.499,19.767l56.011,31.631c6.966,3.932,15.833,1.467,19.767-5.499l31.631-56.011
		C202.12,129.706,199.654,120.839,192.688,116.905z M171.391,147.737l-5.546-3.202l-6.409,11.101l-5.512-3.183l-6.392,11.071
		l5.523,3.188l6.392-11.071l5.536,3.196l-12.784,22.143l-5.536-3.196l3.196-5.536l-5.522-3.188l-3.196,5.536l-11.101-6.409
		l3.196-5.536l-5.395-3.115l-3.196,5.536l-16.607-9.588l3.196-5.536l-5.536-3.196l3.196-5.535l5.536,3.196v0l3.196-5.535
		l-5.536-3.196l3.196-5.536l5.536,3.196l-3.196,5.536l5.536,3.196l3.196-5.536l5.536,3.196l3.196-5.535l-5.536-3.196l-3.137,5.434
		l-5.536-3.196l3.137-5.434l-5.536-3.196l12.779-22.135l33.074,19.095l-3.196,5.536l-10.94-6.316l-6.387,11.063l5.404,3.12
		l-3.196,5.536l5.536,3.196l-3.196,5.536l5.542,3.199l6.409-11.101l-11.078-6.396l3.196-5.536l5.536,3.196l0.029,0.017l3.183-5.513
		l5.513,3.183l3.188-5.521l5.536,3.196l-3.196,5.536l-5.512-3.183l-3.174,5.498l5.512,3.183l0.01,0.006l3.183-5.512l5.536,3.196
		L171.391,147.737z"/>
	<path fill="#FFFFFF" d="M169.987,206.044l-0.649,0.489C169.557,206.373,169.774,206.211,169.987,206.044z"/>
	<path fill="#FFFFFF" d="M113.496,77.39l0.463-0.349C113.804,77.157,113.648,77.271,113.496,77.39z"/>
</g>
</svg>
