<?xml version="1.0" encoding="utf-8"?>
<!-- Generator: Adobe Illustrator 21.0.2, SVG Export Plug-In . SVG Version: 6.00 Build 0)  -->
<svg version="1.1" id="Layer_1" xmlns="http://www.w3.org/2000/svg" xmlns:xlink="http://www.w3.org/1999/xlink" x="0px" y="0px"
	 viewBox="0 0 184.7 165.7" style="enable-background:new 0 0 184.7 165.7;" xml:space="preserve">
<style type="text/css">
	.st0{fill:#002856;}
</style>
<g>
	<g>
		<path class="st0" d="M128.8,165.7c2.5,0,5.2-0.7,7.8-1.9V42h-90v121.1c3,1.6,6.3,2.6,9.2,2.6H128.8L128.8,165.7z"/>
		<circle class="st0" cx="78.4" cy="34.2" r="2"/>
		<path class="st0" d="M99,32.8H86.2c-1,0-1.8,0.6-1.8,1.4s0.8,1.4,1.8,1.4H99c1,0,1.8-0.6,1.8-1.4S99.9,32.8,99,32.8z"/>
		<path class="st0" d="M182.4,73L145.9,9.8c-3.1-5.4-10.8-9.8-17-9.8h-73c-6.2,0-13.9,4.4-17,9.8L2.3,73c-3.1,5.4-3.1,14.2,0,19.6
			l36.5,63.2c0.2,0.4,0.5,0.8,0.8,1.2V34.3c0-8.2,6.7-14.8,14.8-14.8h74.3c8.2,0,14.8,6.7,14.8,14.8v124.5c0.9-0.9,1.6-1.9,2.2-3
			l36.5-63.2C185.5,87.3,185.5,78.4,182.4,73z"/>
	</g>
</g>
</svg>
