<?xml version="1.0" encoding="utf-8"?>
<!-- Generator: Adobe Illustrator 21.0.2, SVG Export Plug-In . SVG Version: 6.00 Build 0)  -->
<svg version="1.1" id="Layer_1" xmlns="http://www.w3.org/2000/svg" xmlns:xlink="http://www.w3.org/1999/xlink" x="0px" y="0px"
	 viewBox="0 0 184.7 165.8" style="enable-background:new 0 0 184.7 165.8;" xml:space="preserve">
<style type="text/css">
	.st0{fill:none;}
	.st1{fill:#002856;}
</style>
<g>
	<path class="st0" d="M78.2,168.5c1.9,0,3.5-1.2,4.2-2.8h-8.3C74.7,167.4,76.3,168.5,78.2,168.5z"/>
	<path class="st0" d="M133.6,168.5c2.5,0,4.5-2,4.5-4.5c0-0.3,0-0.6-0.1-0.9c-2.8,1.5-5.8,2.5-8.6,2.6
		C130.1,167.4,131.7,168.5,133.6,168.5z"/>
	<path class="st1" d="M82.7,164c0-2.5-2-4.5-4.5-4.5s-4.5,2-4.5,4.5c0,0.6,0.1,1.2,0.3,1.7h8.3C82.6,165.2,82.7,164.6,82.7,164z"/>
	<path class="st1" d="M133.6,159.5c-2.5,0-4.5,2-4.5,4.5c0,0.6,0.1,1.1,0.3,1.7c2.8-0.1,5.8-1.1,8.6-2.6
		C137.6,161.1,135.8,159.5,133.6,159.5z"/>
	<path class="st1" d="M182.4,73L145.9,9.8c-3.1-5.4-10.8-9.8-17-9.8h-73c-6.2,0-13.9,4.4-17,9.8L2.3,73c-3.1,5.4-3.1,14.2,0,19.6
		l36.5,63.2c3.1,5.4,10.8,9.8,17,9.8h11c-0.1-0.5-0.1-1.1-0.1-1.7c0-6.3,5.2-11.5,11.5-11.5s11.5,5.2,11.5,11.5
		c0,0.6-0.1,1.1-0.1,1.7h32.7c-0.1-0.5-0.1-1.1-0.1-1.7c0-6.3,5.2-11.5,11.5-11.5c4.4,0,8.2,2.5,10.2,6.1c0.8-0.9,1.5-1.8,2.1-2.8
		l36.5-63.2C185.5,87.3,185.5,78.4,182.4,73z M137.6,145.7H76c-5.5,0-12-3.7-14.7-8.5L36.1,93.7c-2.7-4.8-2.8-12.2,0-17l6-11.3
		c-1.3-1.7-2.2-3.9-2.2-6.2c0-5.6,4.5-10.1,10.1-10.1s10.1,4.5,10.1,10.1S55.6,69.4,50,69.4c-0.7,0-1.3-0.1-1.9-0.2l-5.9,11
		c-1.5,2.6-1.5,7.4,0,10l25.1,43.5c1.5,2.6,5.6,5,8.7,5h61.6L137.6,145.7L137.6,145.7z M160.1,88.4l-20.7,35.9
		c-1.8,3.1-6.1,5.6-9.6,5.6H88.4c-3.5,0-7.9-2.5-9.6-5.6L58.1,88.4c-1.8-3.1,0.2-8.1,2-11.1h100.1C161.9,80.4,161.9,85.4,160.1,88.4
		z"/>
</g>
</svg>
