<?xml version="1.0" encoding="utf-8"?>
<!-- Generator: Adobe Illustrator 21.0.0, SVG Export Plug-In . SVG Version: 6.00 Build 0)  -->
<svg version="1.1" id="Layer_1" xmlns="http://www.w3.org/2000/svg" xmlns:xlink="http://www.w3.org/1999/xlink" x="0px" y="0px"
	 viewBox="0 0 283.46 283.46" enable-background="new 0 0 283.46 283.46" xml:space="preserve">
<path fill="#BCD9EA" d="M82.352,264.215c-6.236,0-13.89-4.419-17.008-9.819L5.965,151.547c-3.118-5.4-3.118-14.238,0-19.639
	L65.344,29.059c3.118-5.4,10.772-9.819,17.008-9.819h118.76c6.236,0,13.89,4.419,17.008,9.819l59.38,102.849
	c3.118,5.4,3.118,14.238,0,19.639l-59.38,102.849c-3.118,5.4-10.771,9.819-17.008,9.819H82.352z"/>
<g>
	<path fill="none" d="M127.621,227.407c1.887,0,3.501-1.17,4.168-2.821h-8.336C124.121,226.236,125.734,227.407,127.621,227.407z"/>
	<path fill="none" d="M183,227.407c2.481,0,4.5-2.019,4.5-4.5c0-0.32-0.036-0.631-0.1-0.932c-2.76,1.507-5.784,2.465-8.576,2.585
		C179.485,226.224,181.104,227.407,183,227.407z"/>
	<path fill="#002856" d="M132.121,222.907c0-2.481-2.019-4.5-4.5-4.5c-2.481,0-4.5,2.019-4.5,4.5c0,0.594,0.122,1.159,0.332,1.679
		h8.336C131.999,224.065,132.121,223.501,132.121,222.907z"/>
	<path fill="#002856" d="M183,218.407c-2.481,0-4.5,2.019-4.5,4.5c0,0.585,0.12,1.14,0.324,1.653
		c2.792-0.121,5.816-1.078,8.576-2.585C186.97,219.939,185.161,218.407,183,218.407z"/>
	<path fill="#002856" d="M231.739,131.908L195.24,68.689c-3.118-5.401-10.771-9.82-17.008-9.82h-72.999
		c-6.235,0-13.889,4.419-17.008,9.819l-36.499,63.219c-3.118,5.4-3.118,14.238,0,19.639l36.499,63.219
		c3.119,5.401,10.772,9.819,17.008,9.819h11.025c-0.081-0.549-0.137-1.107-0.137-1.679c0-6.341,5.159-11.5,11.5-11.5
		c6.341,0,11.5,5.159,11.5,11.5c0,0.572-0.056,1.129-0.137,1.679h32.652c-0.081-0.549-0.137-1.107-0.137-1.679
		c0-6.341,5.159-11.5,11.5-11.5c4.404,0,8.233,2.492,10.165,6.136c0.812-0.882,1.519-1.813,2.075-2.777l36.499-63.219
		C234.857,146.146,234.857,137.309,231.739,131.908z M186.958,204.612h-61.581c-5.507,0-11.98-3.736-14.736-8.506l-25.117-43.507
		c-2.744-4.751-2.755-12.184-0.032-16.958l5.994-11.253c-1.345-1.71-2.154-3.861-2.154-6.206c0-5.554,4.503-10.057,10.057-10.057
		c5.554,0,10.057,4.503,10.057,10.057s-4.503,10.057-10.057,10.057c-0.659,0-1.301-0.068-1.925-0.189l-5.879,11.034
		c-1.513,2.621-1.513,7.394,0,10.013l25.117,43.507c1.514,2.62,5.648,5.007,8.674,5.007h61.581V204.612z M209.529,147.296
		l-20.699,35.853c-1.769,3.063-6.109,5.569-9.645,5.569h-41.399c-3.536,0-7.877-2.506-9.646-5.568l-20.699-35.854
		c-1.769-3.062,0.231-8.074,2-11.137h100.089C211.297,139.222,211.297,144.234,209.529,147.296z"/>
</g>
</svg>
