<?xml version="1.0" encoding="utf-8"?>
<!-- Generator: Adobe Illustrator 21.0.0, SVG Export Plug-In . SVG Version: 6.00 Build 0)  -->
<svg version="1.1" xmlns="http://www.w3.org/2000/svg" xmlns:xlink="http://www.w3.org/1999/xlink" x="0px" y="0px"
	 viewBox="0 0 152 137" enable-background="new 0 0 152 137" xml:space="preserve">
<g id="achtergrond">
	<path fill="#BCD9EA" d="M45.396,131.48c-3.2,0-7.127-2.267-8.727-5.038L6.2,73.668c-1.6-2.771-1.6-7.306,0-10.077l30.469-52.774
		c1.6-2.771,5.527-5.039,8.727-5.039h60.938c3.2,0,7.127,2.267,8.727,5.039l30.469,52.774c1.6,2.771,1.6,7.306,0,10.077
		l-30.469,52.774c-1.6,2.771-5.527,5.038-8.727,5.038H45.396z"/>
</g>
<g id="icoon__x23_20">
</g>
<g id="icoon__x23_19" display="none">
	<g display="inline">
		<path fill="#002856" d="M63.826,67.517c0-0.738,0-1.441,0-2.159c-0.742,0-1.449,0-2.157,0c0,0.719,0,1.437,0,2.159
			C62.42,67.517,63.123,67.517,63.826,67.517z"/>
		<path fill="#002856" d="M76.857,87.152c-0.713,0-1.386,0-2.076,0c0,0.734,0,1.438,0,2.144c0.698,0,1.396,0,2.076,0
			C76.857,88.547,76.857,87.846,76.857,87.152z"/>
		<path fill="#002856" d="M66.027,71.81c0.005,0,0.009,0,0.014,0c0,0.005,0,0.01,0,0.015c2.181,0,4.362,0,6.543,0
			c0-0.006,0-0.012,0-0.019c0.005,0,0.009,0,0.014,0c0-0.723,0-1.446-0.001-2.169c-0.006,0-0.011,0-0.017,0c0-0.004,0-0.008,0-0.012
			c-2.173,0-4.346,0-6.553,0C66.027,70.399,66.027,71.105,66.027,71.81z"/>
		<path fill="#002856" d="M74.772,91.511c0-0.771,0-1.488,0-2.205c-1.455,0-2.909,0-4.363,0c-0.004,1.451-0.007,2.904-0.011,4.356
			c0.005,0,0.009,0,0.014,0c0,0.006,0,0.013,0,0.019c0.724,0,1.448,0,2.172,0c0-0.006,0-0.013,0-0.019c0.005,0,0.009,0,0.014,0
			c0-0.699,0-1.397,0-2.151C73.346,91.511,74.045,91.511,74.772,91.511z"/>
		<path fill="#002856" d="M70.413,54.436c-0.005,0-0.01,0-0.014,0c0-0.006,0-0.012,0-0.018c-0.713,0-1.427,0-2.185,0
			c0,0.758,0,1.472,0,2.186c0.006,0,0.012,0,0.018,0c0,0.004,0,0.009,0,0.014c0.712,0,1.425,0,2.182,0
			C70.413,55.861,70.413,55.149,70.413,54.436z"/>
		<path fill="#002856" d="M79.045,91.525c-0.739,0-1.441,0-2.212,0c0,0.721,0,1.409,0,2.098c0.74,0.035,1.478,0.069,2.212,0.103
			C79.045,92.923,79.045,92.222,79.045,91.525z"/>
		<path fill="#002856" d="M66.041,73.996c0-0.724,0-1.447,0-2.171c-0.005,0-0.009,0-0.014,0c0-0.005,0-0.01,0-0.015
			c-0.724,0.004-1.449,0.009-2.174,0.013c0,0.725,0.001,1.449,0.001,2.175c0.725,0.004,1.449,0.008,2.173,0.012
			c0-0.005,0-0.009,0-0.014C66.032,73.996,66.036,73.996,66.041,73.996z"/>
		<path fill="#002856" d="M74.765,56.618c0-0.005,0-0.009,0-0.014c0.006,0,0.012,0,0.018,0c0-0.713,0-1.427,0-2.185
			c-0.758,0-1.472,0-2.185,0c0,0.006,0,0.012,0,0.018c-0.005,0-0.01,0-0.014,0c0,0.712,0,1.425,0,2.182
			C73.34,56.618,74.053,56.618,74.765,56.618z"/>
		<path fill="#002856" d="M63.844,69.668c-0.754,0-1.456,0-2.175,0c0,0.735,0,1.44,0,2.146c0.725,0,1.45,0,2.175,0
			C63.844,71.098,63.844,70.382,63.844,69.668z"/>
		<path fill="#002856" d="M83.414,61.007c-0.741,0-1.442,0-2.169,0c0,0.742,0,1.448,0,2.154c0.729,0,1.458,0,2.169,0
			C83.414,62.398,83.414,61.697,83.414,61.007z"/>
		<path fill="#002856" d="M79.056,84.932c0-0.729,0-1.43,0-2.181c-0.743,0-1.462,0-2.181,0c0,0.72,0,1.438,0,2.181
			C77.626,84.932,78.328,84.932,79.056,84.932z"/>
		<path fill="#002856" d="M59.485,65.364c-0.005,0.001-0.009,0.001-0.014,0.001l0.014-0.018l-0.014,0.018c0-0.006,0-0.012,0-0.018
			c-0.713,0-1.427,0-2.185,0c0,0.758,0,1.472,0,2.186c0.006,0,0.012,0,0.018,0c0,0.004,0,0.009,0,0.013c0.712,0,1.425,0,2.182,0
			C59.485,66.788,59.485,66.076,59.485,65.364z"/>
		<path fill="#002856" d="M70.398,58.825c0,0.742,0,1.444,0,2.147c0.005,0,0.009,0,0.014,0c0,0.006,0,0.012,0,0.018
			c0.724,0,1.448,0,2.171,0c0-0.006,0-0.012,0-0.018c0.005,0,0.01,0,0.014,0c0-0.713,0-1.426,0-2.147
			C71.837,58.825,71.125,58.825,70.398,58.825z"/>
		<path fill="#002856" d="M63.845,74.008c-0.705,0-1.409,0-2.186,0c0-0.753,0-1.469,0-2.185c-0.719,0-1.438,0-2.188,0
			c0,1.491,0,2.923,0,4.356c0.006,0,0.012,0,0.018,0c0,0.005,0,0.011,0,0.017c1.441,0,2.882,0,4.356,0
			C63.845,75.445,63.845,74.726,63.845,74.008z"/>
		<path fill="#002856" d="M68.244,87.156c0,0.739,0,1.443,0,2.14c0.743,0,1.45,0,2.157,0c0-0.717,0-1.432,0-2.14
			C69.64,87.156,68.936,87.156,68.244,87.156z"/>
		<path fill="#002856" d="M96.545,71.811c0,0.004,0,0.008,0,0.013c0.729,0,1.458,0,2.181,0c0-0.754,0-1.446,0-2.198
			c-0.743,0-1.46,0-2.177,0c0,0.004,0,0.008,0,0.012c-0.006,0-0.011,0-0.017,0c0,0.725,0,1.449,0,2.173
			C96.536,71.811,96.541,71.811,96.545,71.811z"/>
		<path fill="#002856" d="M50.742,54.404c3.666,0,7.283,0,10.899,0c0-3.65,0-7.267,0-10.883c-3.65,0-7.267,0-10.899,0
			C50.742,47.16,50.742,50.766,50.742,54.404z M52.964,45.713c2.171,0,4.306,0,6.472,0c0,2.163,0,4.308,0,6.485
			c-2.149,0-4.295,0-6.472,0C52.964,50.049,52.964,47.903,52.964,45.713z"/>
		<path fill="#002856" d="M68.227,76.182c0-0.716,0-1.432,0-2.185c-0.773,0-1.479,0-2.185,0c0,0.004,0,0.009,0,0.014
			c-0.005,0-0.009,0-0.014,0c0,0.728,0,1.456,0,2.185c0.776,0,1.482,0,2.186,0c0-0.004,0-0.009,0-0.014
			C68.218,76.182,68.222,76.182,68.227,76.182z"/>
		<path fill="#002856" d="M85.638,84.928c2.193,0,4.352,0,6.529,0c0-2.188,0-4.347,0-6.521c-2.189,0-4.348,0-6.529,0
			C85.638,80.581,85.638,82.73,85.638,84.928z M87.855,80.607c0.717,0,1.394,0,2.102,0c0,0.707,0,1.396,0,2.115
			c-0.691,0-1.38,0-2.102,0C87.855,82.03,87.855,81.341,87.855,80.607z"/>
		<path fill="#002856" d="M121.768,63.621L103.154,31.38c-1.59-2.754-5.493-5.008-8.674-5.008H57.25
			c-3.18,0-7.083,2.254-8.674,5.008L29.962,63.621c-1.59,2.754-1.59,7.262,0,10.016l18.614,32.242
			c1.591,2.754,5.494,5.007,8.674,5.007h37.23c3.181,0,7.084-2.253,8.674-5.008l18.615-32.242
			C123.359,70.883,123.359,66.376,121.768,63.621z M87.85,41.432c5.07,0,10.129,0,15.219,0c0,5.037,0,10.077,0,15.144
			c-5.076,0-10.134,0-15.219,0C87.85,51.525,87.85,46.495,87.85,41.432z M100.897,58.839c0,0.715,0,1.394,0,2.102
			c-0.706,0-1.395,0-2.115,0c0-0.693,0-1.382,0-2.102C99.478,58.839,100.166,58.839,100.897,58.839z M98.714,63.211
			c0,0.711,0,1.389,0,2.1c-0.705,0-1.394,0-2.116,0c0-0.688,0-1.378,0-2.1C97.29,63.211,97.978,63.211,98.714,63.211z M96.52,58.832
			c0,0.712,0,1.401,0,2.114c-0.711,0-1.399,0-2.113,0c0-0.711,0-1.401,0-2.114C95.118,58.832,95.806,58.832,96.52,58.832z
			 M79.073,47.855c0-0.713,0-1.404,0-2.152c0.742,0,1.443,0,2.186,0c0-0.748,0-1.438,0-2.202c0.742,0,1.441,0,2.141,0
			c0-0.004,0-0.009,0-0.014l0.015,0.014c0,0-0.015-0.014-0.014-0.013c0.005,0,0.009,0,0.014,0c0-0.673,0-1.347,0-2.053
			c0.759,0,1.447,0,2.169,0c0,0.662,0,1.332,0,2.053c-0.732,0-1.451,0-2.169,0c0,0.004,0,0.009,0,0.013c-0.005,0-0.01,0-0.015,0
			c0.01,1.236,0.024,2.472,0.03,3.707c0.005,0.923,0.001,1.845,0.001,2.821c-0.726,0-1.428,0-2.209,0c0,0.768,0,1.485,0,2.201
			c0.005,0,0.01,0,0.015,0c0,0.005,0,0.01,0,0.015c0.713,0,1.427,0,2.161,0c0,0.759,0,1.47,0,2.181c0.005,0,0.01,0,0.015,0h0.001
			l0,0c0,0.004,0,0.009,0,0.014c0.716,0,1.432,0,2.175,0c0,0.726,0,1.412,0,2.13c-0.693,0-1.381,0-2.174,0
			c0-0.706,0-1.418-0.001-2.13c-0.005,0-0.01,0-0.015,0c0-0.005,0-0.009,0-0.014c-0.718-0.007-1.436-0.014-2.155-0.021
			c0,0.005,0,0.011,0,0.016l-0.016-0.016l0.016,0.017c-0.005,0-0.01,0-0.016,0c0,0.703,0,1.406,0,2.144c-0.692,0-1.38,0-2.106,0
			c0-0.682,0-1.381,0-2.144c0.707,0,1.407,0,2.106,0c0-0.006,0-0.011,0-0.017c0.005,0,0.01,0,0.016,0
			c-0.001-0.72-0.003-1.44-0.005-2.16c-0.005,0-0.01,0-0.015,0c0-0.005,0-0.01,0-0.015c-0.691,0-1.382,0-2.13,0
			c0-0.727,0-1.43,0-2.183c-1.456,0-2.857,0-4.281,0c0-1.467,0-2.883,0-4.326c0.678,0,1.337,0,2.053,0c0,0.705,0,1.407,0,2.133
			C77.624,47.855,78.327,47.855,79.073,47.855z M74.803,41.432c0.685,0,1.354,0,2.048,0c0,0.669,0,1.329,0,2.022
			c-0.673,0-1.343,0-2.048,0C74.803,42.761,74.803,42.113,74.803,41.432z M70.453,41.419c0.714,0,1.392,0,2.098,0
			c0,1.407,0,2.795,0,4.217c-0.685,0-1.374,0-2.098,0C70.453,44.239,70.453,42.83,70.453,41.419z M66.071,43.535
			c0.711,0,1.399,0,2.098,0c0,0.722,0,1.421,0,2.114c-0.718,0-1.396,0-2.098,0C66.071,44.937,66.071,44.248,66.071,43.535z
			 M48.669,41.422c5.043,0,10.073,0,15.136,0c0,5.048,0,10.088,0,15.154c-5.045,0-10.074,0-15.136,0
			C48.669,51.525,48.669,46.485,48.669,41.422z M48.653,69.69c0.689,0,1.361,0,2.052,0c0,2.888,0,5.748,0,8.65
			c-0.672,0-1.342,0-2.052,0C48.653,75.448,48.653,72.585,48.653,69.69z M63.814,95.838c-5.054,0-10.084,0-15.146,0
			c0-5.062,0-10.123,0-15.216c5.039,0,10.081,0,15.146,0C63.814,85.695,63.814,90.755,63.814,95.838z M103.077,69.617
			c-0.7,0-1.392,0-2.123,0c0,0.739,0,1.442,0,2.208c0.684,0,1.387,0,2.117,0c0,1.478,0,2.896,0,4.355c-1.45,0-2.895,0-4.339,0
			c0,0.005,0,0.01,0,0.015c-0.006,0-0.012,0-0.018,0c0,0.704,0,1.411,0,2.167c-0.705,0-1.407,0-2.159,0c0,1.479,0,2.909,0,4.373
			c-0.74,0-1.431,0-2.158,0c0,0.736,0,1.438,0,2.193c1.425,0,2.864,0,4.302,0c0-0.004,0-0.009,0-0.014c0.005,0,0.01,0,0.015,0
			c0.013-1.1,0.027-2.199,0.038-3.299c0.003-0.317,0.001-0.634,0.001-1.013c0.724,0,1.426,0,2.172,0c0-0.751,0-1.44,0-2.167
			c0.732,0,1.419,0,2.142,0c0,1.413,0,2.83,0,4.298c-0.688,0-1.391,0-2.13,0c0,0.743,0,1.434,0,2.18c-0.764,0-1.494,0-2.223,0
			c0,0.004,0,0.009,0,0.014c-0.005,0-0.01,0-0.015,0c0.003,0.725,0.007,1.45,0.011,2.175c0.004,0,0.008,0,0.012,0
			c0,0.004,0,0.008,0,0.013c1.435,0,2.87,0,4.341,0c0,2.93,0,5.803,0,8.712c-2.131,0-4.277,0-6.46,0c0-0.68,0-1.368,0-2.105
			c1.414,0,2.833,0,4.293,0c0-1.478,0-2.911,0-4.452c-0.714,0-1.444,0-2.174,0c0,0.005,0,0.01,0,0.015l0.001,0h-0.001
			c-0.005,0-0.009,0-0.014,0c0,0.719,0,1.436,0,2.178c-0.707,0-1.396,0-2.113,0c0-0.702,0-1.391,0-2.177
			c0.714,0,1.414,0,2.113-0.001c0-0.005,0-0.011,0-0.016c0.004,0,0.009,0,0.014,0c0.001-0.718,0.001-1.437,0.001-2.156
			c-0.004,0-0.008,0-0.012,0c0-0.004,0-0.008,0-0.013c-1.429,0-2.859,0-4.339,0c0,0.748,0,1.449,0,2.185c-0.765,0-1.481,0-2.196,0
			c0,0.006,0,0.012,0,0.019c-0.005,0-0.01,0-0.015,0c-0.003,0.727-0.005,1.455-0.009,2.183c0.005,0,0.01,0,0.015,0
			c0,0.005,0,0.011,0,0.016c0.716,0,1.431,0,2.169,0c0,0.743,0,1.429,0,2.144c-0.702,0-1.389,0-2.169,0c0-0.718,0-1.43,0-2.144
			c-0.005,0-0.01,0-0.015,0h0l0-0.001c0-0.005,0-0.01,0-0.015c-0.729-0.009-1.457-0.018-2.187-0.027c0,0.004,0,0.007,0,0.011
			c-0.004,0-0.009,0-0.013,0c0,1.444,0,2.889,0,4.36c-0.687,0-1.376,0-2.095,0c0-1.421,0-2.836,0-4.361c0.699,0,1.397,0,2.095,0.001
			c0-0.004,0-0.008,0-0.012l0.001,0.001c0.004,0,0.008,0,0.012,0c0.007-0.72,0.014-1.439,0.022-2.159c-0.003,0-0.007,0-0.01,0
			c0-0.005,0-0.01,0-0.015c-0.693,0-1.386,0-2.137,0c0-0.712,0-1.414,0-2.144c-2.946,0-5.834,0-8.75,0c0,0.714,0,1.418,0,2.164
			c2.16,0,4.306,0,6.49,0c0,0.73,0,1.418,0,2.16c-1.409,0-2.84,0-4.323,0c0,1.482,0,2.913,0,4.367c-1.47,0-2.887,0-4.32,0
			c-0.036-0.748-0.072-1.478-0.107-2.209c-0.765,0.016-1.531,0.039-2.297,0.046c-0.645,0.005-1.29-0.009-1.934-0.015
			c0,0.006,0,0.013,0,0.019c-0.005,0-0.009,0-0.014,0c0,0.702,0,1.403,0,2.144c-0.722,0-1.418,0-2.172,0c0-0.718,0-1.43,0-2.144
			c-0.005,0-0.009,0-0.014,0c0-0.006,0-0.012,0-0.019c-0.706,0-1.412,0-2.175,0c0,0.744,0,1.446,0,2.174c-0.746,0-1.434,0-2.15,0
			c0-3.615,0-7.217,0-10.859c0.698,0,1.391,0,2.121,0c0-0.745,0-1.449,0-2.209c-0.685,0-1.389,0-2.13,0c0-1.474,0-2.894,0-4.368
			c-2.197,0-4.355,0-6.574,0c0-0.769,0-1.486,0-2.203c-0.006,0-0.012,0-0.018,0c0-0.005,0-0.011,0-0.017c-1.433,0-2.866,0-4.356,0
			c0,0.738,0,1.439,0,2.171c-0.746,0-1.434,0-2.152,0c0-2.152,0-4.296,0-6.499c1.43,0,2.861,0,4.341,0c0-1.473,0-2.89,0-4.305
			c-0.006,0-0.012,0-0.018,0c0-0.004,0-0.009,0-0.013c-0.722-0.003-1.444-0.005-2.166-0.007c0,0.005,0,0.01,0,0.016
			c-0.005,0-0.011,0-0.016,0c0,0.673,0,1.346,0,2.058c-0.727,0-1.424,0-2.147,0c0-0.667,0-1.325,0-2.058c0.719,0,1.433,0,2.147,0
			c0-0.005,0-0.011,0-0.016c0.005,0,0.011,0,0.016,0c0-2.162,0-4.324,0-6.519c-1.465,0-2.896,0-4.361,0c0,0.701,0,1.405,0,2.151
			c0.69,0,1.382,0,2.112,0c0,0.729,0,1.417,0,2.165c-0.679,0-1.382,0-2.124,0c0,0.748,0,1.439,0,2.168c-0.711,0-1.381,0-2.081,0
			c0-2.877,0-5.75,0-8.652c3.584,0,7.157,0,10.806,0c0,2.168,0,4.338,0,6.509c0.005,0,0.009,0,0.014,0c0,0.006,0,0.012,0,0.017
			c0.725-0.004,1.449-0.009,2.174-0.014c0-0.706,0-1.41,0-2.142c2.199,0,4.341,0,6.538,0c0,1.431,0,2.86,0,4.327
			c1.472,0,2.889,0,4.383,0c0,0.721,0,1.406,0,2.091c0.006,0,0.011,0,0.017,0c0,0.004,0,0.008,0,0.012c0.705,0,1.412,0,2.169,0
			c0-1.404,0-2.806,0-4.239c0.711,0,1.37,0,2.088,0c0,0.688,0,1.391,0,2.134c0.747,0,1.438,0,2.167,0c0,0.711,0,1.382,0,2.09
			c-0.689,0-1.381,0-2.126,0c0,0.738,0,1.441,0,2.185c-1.467,0-2.883,0-4.297,0c0,0.006,0,0.012,0,0.019c-0.005,0-0.009,0-0.014,0
			c-0.001,0.724-0.002,1.448-0.003,2.171c0.006,0,0.011,0,0.017,0c0,0.004,0,0.008,0,0.012c1.41,0,2.82,0,4.263,0
			c0,0.772,0,1.473,0,2.174c0.005,0,0.01,0,0.016,0c0,0.005,0,0.011,0,0.017c1.431,0,2.864,0,4.355,0c0,0.746,0,1.447,0,2.175
			c0.762,0,1.464,0,2.195,0c0-1.453,0-2.884,0-4.355c-0.711,0-1.403,0-2.126,0c0-0.729,0-1.417,0-2.153c0.693,0,1.383,0,2.113,0
			c0-0.747,0-1.45,0-2.211c-0.685,0-1.388,0-2.146,0c0-0.219,0-0.381,0-0.543c0-1.818,0.001-3.637-0.001-5.456
			c-0.001-0.162-0.019-0.325-0.03-0.487c-0.694,0-1.389,0-2.141,0c0-0.737,0-1.44,0-2.171c-0.762,0-1.465,0-2.209,0
			c0,0.708,0,1.401,0,2.125c-0.7,0-1.36,0-2.079,0c0-0.686,0-1.39,0-2.153c-0.773,0-1.491,0-2.209,0c0,0.006,0,0.012,0,0.018
			c-0.005,0-0.01,0-0.014,0c0,1.43,0,2.86,0,4.321c-0.725,0-1.413,0-2.171,0c0-1.439,0-2.88,0-4.321c-0.005,0-0.009,0-0.014,0
			c0-0.006,0-0.012,0-0.018c-2.886,0-5.772,0-8.691,0c0-0.719,0-1.407,0-2.15c2.153,0,4.309,0,6.524,0c0-0.769,0-1.487,0-2.203
			c-0.006,0-0.012,0-0.018,0c0-0.005,0-0.009,0-0.014c-0.703,0-1.407,0-2.138,0c0-1.459,0-2.875,0-4.333c0.696,0,1.387,0,2.117,0
			c0-0.743,0-1.446,0-2.207c-0.681,0-1.383,0-2.115,0c0-0.745,0-1.432,0-2.153c2.147,0,4.291,0,6.469,0c0,0.684,0,1.373,0,2.119
			c-0.693,0-1.395,0-2.147,0c0,1.5,0,2.944,0,4.388c0.005,0,0.01,0,0.014,0c0,0.006,0,0.012,0,0.018c0.723,0,1.448,0,2.171,0
			c0-0.006,0-0.012,0-0.018c0.005,0,0.01,0,0.014,0c0-0.702,0-1.405,0-2.137c1.437,0,2.833,0,4.253,0c0,1.432,0,2.847,0,4.322
			c-0.698,0-1.383,0-2.068,0c0,0.005,0,0.009,0,0.014c-0.006,0-0.012,0-0.018,0c0,0.706,0,1.413,0,2.17c4.341,0,8.655,0,13.026,0
			c0,1.48,0,2.91,0,4.364c0.761,0,1.464,0,2.211,0c0-1.442,0-2.862,0-4.313c0.731,0,1.418,0,2.139,0c0,2.146,0,4.291,0,6.492
			c-0.698,0-1.401,0-2.153,0c0,0.84,0.006,1.624-0.002,2.408c-0.006,0.617-0.03,1.234-0.045,1.851c0.74,0.017,1.48,0.034,2.22,0.051
			c0-0.006,0-0.011,0-0.017c0.004,0,0.008,0,0.012,0c0-0.671,0-1.343,0-2.044c0.745,0,1.431,0,2.17,0c0,0.679,0,1.362,0,2.044
			c0.006,0,0.011,0,0.016,0c0,0.005,0,0.01,0,0.016c0.724-0.001,1.448-0.002,2.172-0.004c0-0.004,0-0.008,0-0.012
			c0.006,0,0.011,0,0.017,0c0-0.675,0-1.35,0-2.067c1.482,0,2.9,0,4.378,0c0-1.472,0-2.903,0-4.355c0.749,0,1.437,0,2.15,0
			C103.077,65.345,103.077,67.462,103.077,69.617z"/>
		<path fill="#002856" d="M70.386,76.182c-0.754,0-1.457,0-2.159,0c0,0.004,0,0.009,0,0.014c-0.004,0-0.009,0-0.013,0
			c0,1.454,0,2.908,0,4.368c0.766,0,1.469,0,2.171,0c0-0.006,0-0.011,0-0.017c0.006,0,0.011,0,0.016,0c0-0.69,0-1.38,0-2.107
			c1.46,0,2.886,0,4.338,0c0,0.693,0,1.381,0,2.108c-1.456,0-2.897,0-4.338-0.001c0,0.005,0,0.011,0,0.017c-0.005,0-0.011,0-0.016,0
			c0,1.456,0,2.914,0,4.355c0.787,0,1.49,0,2.233,0c0-0.728,0-1.417,0-2.147c0.252,0,0.461,0.002,0.67,0
			c1.193-0.01,2.386-0.02,3.578-0.031c0-0.703,0-1.407,0-2.171c0.79,0,1.492,0,2.192,0c0-0.755,0-1.447,0-2.199
			c-0.725,0-1.426,0-2.182,0c0-0.763,0-1.467,0-2.171c-0.005,0-0.01,0-0.016,0c0-0.006,0-0.011,0-0.017c-1.409,0-2.82,0-4.263,0
			c0-0.763,0-1.468,0-2.174c-0.006,0-0.011,0-0.017,0c0-0.004,0-0.008,0-0.012c-0.714,0-1.428,0-2.195,0
			C70.386,74.758,70.386,75.459,70.386,76.182z"/>
		<path fill="#002856" d="M96.546,73.996c0,0.004,0,0.009,0,0.014c-0.004,0-0.009,0-0.014,0c0,0.727,0,1.453,0,2.185
			c0.78,0,1.481,0,2.181,0c0-0.005,0-0.01,0-0.015c0.006,0,0.012,0,0.018,0c0-0.71,0-1.422,0-2.184
			C97.976,73.996,97.261,73.996,96.546,73.996z"/>
		<path fill="#002856" d="M90.023,54.4c3.653,0,7.271,0,10.892,0c0-3.643,0-7.25,0-10.875c-3.672,0-7.287,0-10.892,0
			C90.023,47.18,90.023,50.797,90.023,54.4z M92.223,45.722c2.162,0,4.308,0,6.48,0c0,2.162,0,4.308,0,6.487
			c-2.183,0-4.318,0-6.48,0C92.223,50.042,92.223,47.895,92.223,45.722z"/>
		<path fill="#002856" d="M81.282,84.934c0.729,0,1.42,0,2.132,0c0-1.485,0-2.914,0-4.333c-0.742,0-1.445,0-2.132,0
			C81.282,82.07,81.282,83.5,81.282,84.934z"/>
		<path fill="#002856" d="M87.819,65.371c-0.757,0-1.46,0-2.179,0c0,2.888,0,5.745,0,8.618c0.737,0,1.45,0,2.208,0
			c0-0.732,0-1.422,0-2.157c0.736,0,1.426,0,2.195,0c-0.038-0.777-0.074-1.507-0.11-2.236c-0.687,0.001-1.374,0.001-2.115,0.001
			C87.819,68.186,87.819,66.785,87.819,65.371z"/>
		<path fill="#002856" d="M94.395,76.188c0-0.728,0-1.431,0-2.177c0.754,0,1.445,0,2.137,0c0-0.004,0-0.009,0-0.014
			c0.004,0,0.009,0,0.014,0c0-0.724-0.001-1.448-0.001-2.172c-0.004,0-0.009,0-0.013,0c0-0.004,0-0.008,0-0.013
			c-0.7,0-1.4,0-2.172,0c0-0.744,0-1.457,0-2.169c-0.006,0-0.011,0-0.016,0c0-0.005,0-0.01,0-0.016c-0.724,0-1.447,0-2.17,0
			c0,0.005,0,0.011,0,0.017c-0.004,0-0.008,0-0.012,0c0,2.174,0,4.348,0,6.545C92.926,76.188,93.629,76.188,94.395,76.188z"/>
		<path fill="#002856" d="M89.976,87.153c0,0.733,0,1.437,0,2.14c0.003,0,0.007,0,0.01,0c0,0.005,0,0.01,0,0.015
			c0.725,0.001,1.449,0.001,2.173,0.002c0-0.006,0-0.013,0-0.019c0.005,0,0.01,0,0.015,0c0-0.713,0-1.424,0-2.138
			C91.423,87.153,90.722,87.153,89.976,87.153z"/>
		<path fill="#002856" d="M61.642,82.782c-3.651,0-7.268,0-10.9,0c0,3.637,0,7.243,0,10.883c3.665,0,7.281,0,10.9,0
			C61.642,90.015,61.642,86.399,61.642,82.782z M59.431,91.457c-2.139,0-4.284,0-6.465,0c0-2.137,0-4.283,0-6.479
			c2.16,0,4.294,0,6.465,0C59.431,87.132,59.431,89.276,59.431,91.457z"/>
		<path d="M66.027,73.996c0,0.004,0,0.009,0,0.014c0.005,0,0.009,0,0.014,0L66.027,73.996z"/>
		<path d="M98.698,84.915c0,0.004,0,0.009,0,0.014c0.005,0,0.01,0,0.015,0L98.698,84.915z"/>
		<path d="M76.876,76.199c0-0.006,0-0.011,0-0.017l-0.016,0.017C76.865,76.199,76.87,76.199,76.876,76.199z"/>
		<path d="M70.385,80.547c0,0.006,0,0.011,0,0.017c0.006,0,0.011,0,0.016,0L70.385,80.547z"/>
		<path d="M68.213,76.182c0,0.004,0,0.009,0,0.014c0.004,0,0.009,0,0.013,0L68.213,76.182z"/>
		<path d="M74.765,56.618c0.006,0,0.012,0,0.018,0l-0.018-0.014C74.765,56.609,74.765,56.613,74.765,56.618z"/>
		<ellipse transform="matrix(0.8303 -0.5573 0.5573 0.8303 -23.5236 61.9345)" cx="89.937" cy="69.594" rx="0.004" ry="0.004"/>
		<path d="M92.161,69.625c0,0.005,0,0.011,0,0.017c0.004,0,0.008,0,0.012,0L92.161,69.625z"/>
		<path d="M96.532,74.01c0.004,0,0.009,0,0.014,0l-0.014-0.014C96.532,74.001,96.532,74.006,96.532,74.01z"/>
		<path d="M98.722,87.105c-0.004,0-0.008,0-0.012,0c0,0.004,0,0.008,0,0.013L98.722,87.105z"/>
		<path d="M72.598,60.989c0-0.006,0-0.012,0-0.018c-0.005,0-0.01,0-0.014,0L72.598,60.989z"/>
		<ellipse transform="matrix(0.7423 -0.67 0.67 0.7423 -35.6352 72.8241)" cx="76.87" cy="82.746" rx="0.007" ry="0.007"/>
		<path d="M72.583,54.418c0,0.006,0,0.012,0,0.018c0.005,0,0.01,0,0.014,0L72.583,54.418z"/>
		<path d="M70.398,60.971c0,0.006,0,0.012,0,0.018l0.014-0.018C70.407,60.971,70.403,60.971,70.398,60.971z"/>
		<path d="M68.213,56.618c0.006,0,0.012,0,0.018,0c0-0.005,0-0.009,0-0.014L68.213,56.618z"/>
		<path d="M70.413,54.436c0-0.006,0-0.012,0-0.018l-0.014,0.018C70.403,54.436,70.408,54.436,70.413,54.436z"/>
		<ellipse transform="matrix(0.6657 -0.7462 0.7462 0.6657 -19.9764 81.7422)" cx="81.24" cy="63.166" rx="0.006" ry="0.006"/>
		<ellipse transform="matrix(0.6679 -0.7442 0.7442 0.6679 -41.6285 85.3075)" cx="74.776" cy="89.3" rx="0.007" ry="0.007"/>
		<ellipse transform="matrix(0.4995 -0.8663 0.8663 0.4995 -42.6572 113.4144)" cx="76.831" cy="93.627" rx="0.004" ry="0.004"/>
		<path d="M70.398,93.661c0,0.006,0,0.012,0,0.019l0.014-0.019C70.407,93.661,70.403,93.661,70.398,93.661z"/>
		<ellipse transform="matrix(0.7615 -0.6482 0.6482 0.7615 -41.0912 66.9394)" cx="70.405" cy="89.3" rx="0.007" ry="0.007"/>
		<path d="M59.471,76.196c0.006,0,0.012,0,0.018,0c0-0.005,0-0.011,0-0.017L59.471,76.196z"/>
		<path d="M98.713,76.196c0.006,0,0.012,0,0.018,0l-0.018-0.015C98.713,76.186,98.713,76.191,98.713,76.196z"/>
		<path d="M89.976,89.292c0,0.005,0,0.01,0,0.015l0.01-0.015C89.983,89.292,89.979,89.292,89.976,89.292z"/>
		<path d="M92.175,89.309c0-0.006,0-0.012,0-0.019c-0.005,0-0.01,0-0.015,0L92.175,89.309z"/>
		<path d="M72.598,93.68c0-0.006,0-0.012,0-0.019c-0.005,0-0.009,0-0.014,0L72.598,93.68z"/>
		<path d="M66.041,71.81c-0.005,0-0.009,0-0.014,0c0,0.005,0,0.01,0,0.015L66.041,71.81z"/>
		<path d="M59.471,76.179c0,0.005,0,0.011,0,0.017l0.018-0.017C59.483,76.179,59.477,76.179,59.471,76.179z"/>
		<path d="M59.485,65.364c0-0.005,0-0.011,0-0.017l-0.014,0.018C59.476,65.364,59.48,65.364,59.485,65.364z"/>
		<ellipse transform="matrix(0.7167 -0.6974 0.6974 0.7167 -28.1073 61.5214)" cx="61.664" cy="65.354" rx="0.007" ry="0.007"/>
		<path d="M57.285,67.546c0.006,0,0.012,0,0.018,0c0-0.004,0-0.009,0-0.013L57.285,67.546z"/>
		<path d="M72.597,69.624c-0.006,0-0.011,0-0.017,0c0,0.004,0,0.008,0,0.012L72.597,69.624z"/>
		<path d="M55.119,67.541c0-0.005,0-0.011,0-0.016c-0.005,0-0.011,0-0.016,0L55.119,67.541z"/>
		<path d="M59.485,65.346c-0.005,0-0.009,0-0.014,0c0,0.006,0,0.012,0,0.018L59.485,65.346z"/>
		<path d="M57.285,67.532c0,0.004,0,0.009,0,0.013l0.018-0.013C57.297,67.532,57.291,67.532,57.285,67.532z"/>
		<path d="M96.549,69.625c-0.006,0-0.011,0-0.017,0l0.017,0.012C96.549,69.633,96.549,69.629,96.549,69.625z"/>
		<path d="M96.532,71.824c0.004,0,0.009,0,0.013,0c0-0.004,0-0.008,0-0.013L96.532,71.824z"/>
		<path d="M98.732,76.196c0-0.005,0-0.01,0-0.015c-0.006,0-0.012,0-0.018,0L98.732,76.196z"/>
		<path d="M96.546,74.01c0-0.004,0-0.009,0-0.014c-0.004,0-0.009,0-0.014,0L96.546,74.01z"/>
		<path d="M83.4,43.486c0,0.004,0,0.009,0,0.014c0.005,0,0.01,0,0.015,0L83.4,43.486z"/>
		<path d="M81.238,52.23c-0.005,0-0.01,0-0.015,0c0,0.005,0,0.01,0,0.015L81.238,52.23z"/>
		<path d="M68.213,56.604c0,0.004,0,0.009,0,0.014l0.018-0.014C68.225,56.604,68.219,56.604,68.213,56.604z"/>
		<path d="M70.413,54.418c-0.005,0-0.01,0-0.014,0c0,0.006,0,0.012,0,0.018L70.413,54.418z"/>
		<path d="M98.722,89.289c0-0.006,0-0.011,0-0.015c-0.004,0-0.009,0-0.014,0C98.708,89.273,98.72,89.288,98.722,89.289z"/>
		<path d="M98.722,87.118c0-0.004,0-0.008,0-0.013l-0.012,0.013C98.714,87.118,98.718,87.118,98.722,87.118z"/>
		<path d="M72.597,69.636c0-0.004,0-0.008,0-0.012l-0.017,0.012C72.586,69.636,72.592,69.636,72.597,69.636z"/>
		<path d="M72.598,71.825c0-0.006,0-0.012,0-0.019c-0.005,0-0.009,0-0.014,0L72.598,71.825z"/>
		<path d="M72.597,73.996c-0.006,0-0.011,0-0.017,0c0,0.004,0,0.008,0,0.012L72.597,73.996z"/>
		<path d="M66.041,71.825c0-0.005,0-0.01,0-0.015l-0.014,0.015C66.032,71.825,66.036,71.825,66.041,71.825z"/>
		<path d="M68.227,76.196c0-0.004,0-0.009,0-0.014c-0.004,0-0.009,0-0.013,0L68.227,76.196z"/>
		<path d="M72.584,71.825c0.005,0,0.009,0,0.014,0l-0.014-0.019C72.584,71.812,72.584,71.818,72.584,71.825z"/>
		<path d="M66.041,74.01c0-0.004,0-0.009,0-0.014c-0.005,0-0.009,0-0.014,0L66.041,74.01z"/>
		<path d="M98.713,84.915c-0.005,0-0.01,0-0.015,0l0.015,0.014C98.713,84.925,98.713,84.92,98.713,84.915z"/>
		<path d="M74.783,56.618c0-0.005,0-0.009,0-0.014c-0.006,0-0.012,0-0.018,0L74.783,56.618z"/>
		<path d="M72.598,54.418c-0.005,0-0.01,0-0.014,0l0.014,0.018C72.598,54.43,72.598,54.424,72.598,54.418z"/>
		<path d="M70.398,60.989c0.005,0,0.009,0,0.014,0c0-0.006,0-0.012,0-0.018L70.398,60.989z"/>
		<path d="M72.583,60.989c0.005,0,0.01,0,0.014,0l-0.014-0.018C72.583,60.977,72.583,60.983,72.583,60.989z"/>
		<path d="M89.951,91.466L89.951,91.466c-0.001,0.003-0.001,0.007-0.001,0.011c0.004,0,0.009,0,0.013,0
			C89.964,91.477,89.95,91.465,89.951,91.466L89.951,91.466z"/>
		<path d="M76.876,76.182c-0.005,0-0.01,0-0.016,0c0,0.005,0,0.011,0,0.017L76.876,76.182z"/>
		<path d="M72.597,74.008c0-0.004,0-0.008,0-0.012l-0.017,0.012C72.586,74.008,72.592,74.008,72.597,74.008z"/>
		<path d="M70.398,93.68c0.005,0,0.009,0,0.014,0c0-0.006,0-0.013,0-0.019L70.398,93.68z"/>
		<path d="M72.584,93.68c0.005,0,0.009,0,0.014,0l-0.014-0.019C72.584,93.667,72.584,93.674,72.584,93.68z"/>
		<polygon points="92.15,91.509 92.15,91.509 92.15,91.508 		"/>
		<path d="M92.165,91.509c0-0.005,0-0.011,0-0.016c0-0.001-0.015,0.016-0.015,0.016C92.155,91.509,92.16,91.509,92.165,91.509z"/>
		<path d="M89.976,89.307c0.003,0,0.007,0,0.01,0c0-0.005,0-0.01,0-0.015L89.976,89.307z"/>
		<path d="M92.159,89.309c0.005,0,0.01,0,0.015,0l-0.015-0.019C92.159,89.296,92.159,89.303,92.159,89.309z"/>
		<path d="M89.964,91.477c0-0.003,0-0.007,0-0.011c-0.004,0-0.008,0-0.012,0C89.953,91.468,89.964,91.477,89.964,91.477z"/>
		<path d="M92.165,91.493c-0.005,0-0.01,0-0.015,0c0,0.005,0,0.01,0,0.015C92.152,91.507,92.165,91.492,92.165,91.493z"/>
		<polygon points="89.951,91.466 89.964,91.477 89.951,91.466 		"/>
		<polygon points="92.15,91.509 92.165,91.493 92.15,91.508 		"/>
		<path d="M81.243,54.421c0-0.006,0-0.011,0-0.016c-0.005,0-0.01,0-0.016,0L81.243,54.421z"/>
		<path d="M83.413,54.426c-0.005,0-0.01,0-0.015,0c0,0.004,0,0.009,0,0.014C83.398,54.44,83.413,54.427,83.413,54.426z"/>
		<path d="M81.238,52.245c0-0.005,0-0.01,0-0.015l-0.015,0.015C81.227,52.245,81.233,52.245,81.238,52.245z"/>
		<path d="M81.243,54.422l-0.016-0.017c0,0.005,0,0.011,0,0.017C81.233,54.422,81.238,54.422,81.243,54.422z"/>
		<polygon points="83.414,54.426 83.413,54.426 83.414,54.426 		"/>
		<path d="M83.414,54.44c0-0.005,0-0.009,0-0.014l-0.015,0.014C83.403,54.44,83.409,54.44,83.414,54.44z"/>
		<polygon points="83.414,54.426 83.413,54.426 83.398,54.44 		"/>
		<path d="M96.532,69.625c0,0.004,0,0.008,0,0.012c0.006,0,0.011,0,0.017,0L96.532,69.625z"/>
		<path d="M96.532,71.811c0,0.004,0,0.008,0,0.013l0.013-0.013C96.541,71.811,96.536,71.811,96.532,71.811z"/>
		<path d="M94.36,69.641c0-0.005,0-0.011,0-0.016l-0.016,0.016C94.349,69.641,94.354,69.641,94.36,69.641z"/>
		<polygon points="98.722,89.289 98.722,89.289 98.722,89.289 		"/>
		<path d="M98.708,89.289c0.005,0,0.009,0,0.014,0l-0.014-0.016C98.708,89.278,98.708,89.284,98.708,89.289z"/>
		<polygon points="98.722,89.289 98.722,89.289 98.708,89.273 		"/>
		<path d="M55.104,67.541c0.005,0,0.011,0,0.016,0l-0.016-0.016C55.104,67.53,55.104,67.535,55.104,67.541z"/>
		<path d="M94.36,69.625c-0.006,0-0.011,0-0.016,0c0,0.005,0,0.01,0,0.016L94.36,69.625z"/>
		<path d="M92.173,69.625c-0.004,0-0.008,0-0.012,0l0.012,0.017C92.173,69.637,92.173,69.631,92.173,69.625z"/>
		<path d="M83.401,43.487c-0.001,0,0.014,0.013,0.014,0.013c0-0.004,0-0.009,0-0.013C83.411,43.487,83.406,43.487,83.401,43.487z"/>
		<path d="M70.401,80.547c-0.005,0-0.011,0-0.016,0l0.016,0.017C70.401,80.558,70.401,80.552,70.401,80.547z"/>
		<ellipse transform="matrix(0.6482 -0.7615 0.7615 0.6482 -33.889 74.6519)" cx="63.85" cy="74.003" rx="0.007" ry="0.007"/>
		<ellipse transform="matrix(0.6873 -0.7264 0.7264 0.6873 -32.2014 68.834)" cx="63.848" cy="71.818" rx="0.007" ry="0.007"/>
		<ellipse transform="matrix(0.7264 -0.6873 0.6873 0.7264 -32.4881 62.0342)" cx="61.664" cy="71.818" rx="0.007" ry="0.007"/>
	</g>
</g>
<g id="icoon__x23_18" display="none">
	<g display="inline">
		<g>
			<path fill="#002856" d="M46.846,102.883l1.73,2.996c1.591,2.754,5.494,5.007,8.674,5.007h37.23c3.181,0,7.084-2.253,8.674-5.008
				l18.615-32.242c1.59-2.754,1.59-7.262,0-10.016l-6.957-12.05H46.846V102.883z M52.86,57.065c9.853,0,19.68,0,29.571,0
				c0,9.862,0,19.71,0,29.605c-9.857,0-19.682,0-29.571,0C52.86,76.804,52.86,66.957,52.86,57.065z"/>
			<path fill="#002856" d="M56.909,82.427c7.163,0,14.229,0,21.294,0c0-7.131,0-14.198,0-21.262c-7.132,0-14.198,0-21.294,0
				C56.909,68.275,56.909,75.32,56.909,82.427z M61.25,65.448c4.242,0,8.412,0,12.644,0c0,4.226,0,8.417,0,12.671
				c-4.199,0-8.39,0-12.644,0C61.25,73.919,61.25,69.727,61.25,65.448z"/>
			<path fill="#002856" d="M112.75,48.001l-9.596-16.621c-1.59-2.754-5.493-5.008-8.674-5.008H57.25
				c-3.18,0-7.083,2.254-8.674,5.008L29.962,63.621c-1.59,2.754-1.59,7.262,0,10.016L43.276,96.7V48.001H112.75z"/>
		</g>
		<g>
			<path fill="#002856" d="M65.815,68.286l1.296-0.214v1.692h1.992v1.082h-1.992v2.282c0,0.45,0.071,0.771,0.214,0.964
				c0.142,0.193,0.385,0.289,0.728,0.289c0.236,0,0.445-0.025,0.627-0.075c0.182-0.05,0.327-0.096,0.434-0.139l0.214,1.028
				c-0.15,0.064-0.346,0.131-0.589,0.198c-0.243,0.068-0.528,0.102-0.857,0.102c-0.4,0-0.734-0.053-1.002-0.161
				c-0.267-0.107-0.48-0.262-0.637-0.466c-0.157-0.204-0.268-0.45-0.332-0.739c-0.064-0.289-0.096-0.619-0.096-0.991V68.286z"/>
		</g>
	</g>
</g>
<g id="icoon__x23_17" display="none">
	<g display="inline">
		<rect x="63.625" y="63.517" fill="none" width="9.86" height="35.071"/>
		<rect x="51.385" y="44.231" fill="none" width="9.86" height="54.356"/>
		<rect x="75.865" y="51.755" fill="none" width="9.86" height="46.832"/>
		<rect x="87.967" y="77.847" fill="none" width="9.86" height="1.02"/>
		<rect x="87.967" y="81.052" fill="none" width="9.86" height="17.535"/>
		<path fill="#002856" d="M94.256,72.677c0.097,0,0.176-0.041,0.238-0.122s0.093-0.209,0.093-0.385c0-0.176-0.031-0.303-0.093-0.382
			c-0.062-0.079-0.141-0.119-0.238-0.119c-0.1,0-0.18,0.04-0.24,0.119c-0.06,0.079-0.09,0.207-0.09,0.382
			c0,0.176,0.03,0.304,0.09,0.385S94.157,72.677,94.256,72.677z"/>
		<path fill="#002856" d="M91.297,73.908c0.04,0.107,0.091,0.19,0.155,0.248c0.064,0.059,0.144,0.088,0.24,0.088
			c0.096,0,0.178-0.029,0.243-0.088c0.065-0.059,0.117-0.141,0.155-0.248c0.038-0.107,0.065-0.234,0.083-0.382
			c0.017-0.148,0.026-0.312,0.026-0.491c0-0.179-0.009-0.342-0.026-0.489c-0.017-0.146-0.045-0.273-0.083-0.38
			c-0.038-0.107-0.09-0.19-0.155-0.248c-0.065-0.059-0.147-0.088-0.243-0.088c-0.097,0-0.177,0.029-0.24,0.088
			c-0.064,0.059-0.116,0.141-0.155,0.248c-0.04,0.107-0.068,0.233-0.085,0.38c-0.017,0.147-0.026,0.31-0.026,0.489
			c0,0.179,0.009,0.343,0.026,0.491S91.257,73.801,91.297,73.908z"/>
		<path fill="#002856" d="M96.57,73.53c-0.061,0.079-0.091,0.207-0.091,0.383c0,0.176,0.03,0.304,0.091,0.385
			c0.06,0.081,0.14,0.122,0.24,0.122c0.096,0,0.176-0.04,0.238-0.122c0.062-0.081,0.093-0.209,0.093-0.385
			c0-0.176-0.031-0.303-0.093-0.383c-0.062-0.079-0.141-0.119-0.238-0.119C96.71,73.412,96.63,73.451,96.57,73.53z"/>
		<path fill="#002856" d="M121.769,63.621L103.154,31.38c-1.59-2.754-5.493-5.008-8.674-5.008H57.25
			c-3.18,0-7.083,2.254-8.674,5.008L29.962,63.621c-1.59,2.754-1.59,7.262,0,10.016l18.614,32.242
			c1.591,2.754,5.494,5.008,8.674,5.008h37.23c3.18,0,7.084-2.254,8.674-5.008l18.615-32.242
			C123.359,70.883,123.359,66.376,121.769,63.621z M97.726,73.913c0,0.324-0.083,0.572-0.248,0.744
			c-0.165,0.172-0.388,0.258-0.667,0.258c-0.279,0-0.502-0.086-0.667-0.258c-0.165-0.172-0.248-0.42-0.248-0.744
			c0-0.324,0.083-0.572,0.248-0.745s0.388-0.258,0.667-0.258c0.279,0,0.502,0.086,0.667,0.258S97.726,73.589,97.726,73.913z
			 M96.898,71.25l-2.021,3.583h-0.719l2.021-3.583H96.898z M93.589,71.426c0.165-0.172,0.388-0.258,0.667-0.258
			c0.279,0,0.502,0.086,0.667,0.258c0.166,0.172,0.248,0.42,0.248,0.744c0,0.324-0.083,0.572-0.248,0.745
			c-0.165,0.172-0.388,0.258-0.667,0.258c-0.279,0-0.502-0.086-0.667-0.258s-0.248-0.421-0.248-0.745
			C93.341,71.847,93.424,71.599,93.589,71.426z M90.49,72.238c0.06-0.231,0.147-0.426,0.261-0.584
			c0.114-0.158,0.25-0.279,0.408-0.362c0.158-0.083,0.336-0.124,0.532-0.124c0.403,0,0.719,0.161,0.949,0.483
			c0.229,0.322,0.344,0.783,0.344,1.383c0,0.603-0.115,1.066-0.344,1.388c-0.229,0.322-0.546,0.483-0.949,0.483
			s-0.719-0.161-0.949-0.483C90.514,74.1,90.4,73.637,90.4,73.034C90.4,72.734,90.43,72.469,90.49,72.238z M61.245,98.587h-9.86
			V44.231h9.86V98.587z M73.485,98.587h-9.86V63.517h9.86V98.587z M85.725,98.587h-9.86V51.755h9.86V98.587z M87.541,66.763h0.863
			v-0.956h0.703v0.956h0.863v0.646h-0.863v0.956h-0.703v-0.956h-0.863V66.763z M87.649,71.995c0.1-0.041,0.204-0.089,0.313-0.142
			c0.109-0.053,0.215-0.112,0.318-0.176c0.103-0.064,0.202-0.131,0.297-0.202c0.095-0.071,0.18-0.146,0.256-0.225h0.538v3.583h-0.77
			v-2.58c-0.103,0.069-0.219,0.132-0.346,0.189c-0.128,0.057-0.252,0.106-0.372,0.147L87.649,71.995z M97.827,98.587h-9.86V81.052
			h9.86V98.587z M97.827,78.867h-9.86v-1.02h9.86V78.867z"/>
	</g>
</g>
<g id="icoon__x23_16" display="none">
	<g display="inline">
		<path fill="#002856" d="M121.768,63.441L103.154,31.2c-1.59-2.755-5.493-5.008-8.674-5.008H57.25c-3.18,0-7.083,2.253-8.674,5.007
			L29.962,63.441c-1.59,2.754-1.59,7.262,0,10.016l18.614,32.242c0.274,0.474,0.621,0.932,1.016,1.368l0.012-10.971
			c-0.093-1.184,0.122-2.428,0.645-3.333l10.388-17.993c0.887-1.537,3.066-2.794,4.84-2.794h20.776c1.775,0,3.953,1.257,4.841,2.794
			l10.388,17.993c0.522,0.905,0.737,2.151,0.644,3.336l0.012,10.969c0.395-0.435,0.742-0.893,1.016-1.368l18.615-32.242
			C123.359,70.703,123.359,66.195,121.768,63.441z M90.16,56.85l-5.797,10.04c-0.496,0.858-1.711,1.559-2.701,1.559H70.068
			c-0.99,0-2.206-0.701-2.701-1.559l-5.797-10.04c-0.496-0.857-0.496-2.262,0-3.119l5.797-10.04
			c0.495-0.858,1.711-1.559,2.701-1.559h11.594c0.991,0,2.206,0.702,2.701,1.559l5.797,10.04
			C90.654,54.588,90.654,55.992,90.16,56.85z"/>
	</g>
</g>
<g id="icoon__x23_15" display="none">
	<g display="inline">
		<path fill="#002856" d="M79.234,43.117h-6.48c-0.497,0-0.903,0.323-0.903,0.717c0,0.394,0.406,0.717,0.903,0.717h6.48
			c0.498,0,0.904-0.323,0.904-0.717C80.138,43.44,79.732,43.117,79.234,43.117z"/>
		<path fill="#002856" d="M121.768,63.621L103.154,31.38c-1.59-2.755-5.493-5.008-8.674-5.008H57.25
			c-3.18,0-7.083,2.253-8.674,5.007L29.962,63.621c-1.59,2.754-1.59,7.262,0,10.016l18.614,32.242
			c0.118,0.205,0.253,0.405,0.395,0.604V43.88c0-4.173,3.395-7.568,7.568-7.568h37.905c4.173,0,7.568,3.395,7.568,7.568v63.508
			c0.451-0.477,0.839-0.984,1.143-1.509l18.615-32.242C123.359,70.883,123.359,66.376,121.768,63.621z"/>
		<circle fill="#002856" cx="68.743" cy="43.834" r="1"/>
		<path fill="#002856" d="M94.48,110.887c1.27,0,2.654-0.364,3.961-0.971V47.787h-45.9v61.75c1.515,0.834,3.193,1.349,4.709,1.349
			H94.48z M62.055,73.857l5.03-8.707c0.775-1.339,2.207-2.167,3.756-2.167h10.047c1.537,0,2.968,0.828,3.77,2.167l1.313,2.272
			l-7.46,12.923c-0.131,0.211-0.801,1.13-1.773,0.565c-1.143-0.656-0.473-1.838-0.473-1.838v-0.013l2.732-4.754
			c0,0,1.024-1.786-0.63-2.719c-1.55-0.88-2.561,0.881-2.561,0.881l-2.745,4.754c-0.079,0.119-0.735,1.13-1.76,0.552
			c-1.076-0.631-0.551-1.72-0.472-1.852v-0.013l2.718-4.741c0,0,1.024-1.786-0.63-2.731c-1.55-0.881-2.561,0.879-2.561,0.879
			l-2.324,4.019c-2.22,3.848-0.21,7.617,3.677,9.863c3.875,2.233,8.156,2.088,10.375-1.747l5.989-10.349l1.602,2.759
			c0.775,1.34,0.775,2.994,0,4.334l-5.03,8.707c-0.775,1.34-2.206,2.167-3.756,2.167H70.842c-1.55,0-2.981-0.827-3.756-2.167
			l-5.03-8.707C61.281,76.852,61.281,75.197,62.055,73.857z"/>
	</g>
</g>
<g id="icoon__x23_12" display="none">
	<g display="inline">
		<g>
			<path fill="#002856" d="M115.413,64.315l-12.286-21.281H48.603L36.316,64.315c-1.37,2.373-1.37,6.256,0,8.629l16.038,27.778
				c1.371,2.373,4.733,4.315,7.473,4.315h32.076c2.74,0,6.103-1.942,7.473-4.315l16.037-27.778
				C116.784,70.571,116.784,66.688,115.413,64.315z M63.193,73.347l-1.162,3.485l-15.173-6.411v-3.584l15.173-6.41l1.162,3.485
				l-11.794,4.717L63.193,73.347z M71.958,85.174h-4.365l11.904-34.077h4.289L71.958,85.174z M104.874,70.421l-15.172,6.411
				l-1.162-3.485l11.794-4.718l-11.794-4.717l1.162-3.485l15.172,6.41V70.421z"/>
		</g>
		<g>
			<path fill="#002856" d="M94.096,31.356l1.155-1.664h1.319l-1.824,2.603c0.381,0.479,0.746,0.963,1.096,1.452
				c0.35,0.489,0.638,0.948,0.864,1.379h-1.369c-0.063-0.127-0.145-0.267-0.244-0.42s-0.207-0.312-0.32-0.477
				c-0.114-0.165-0.232-0.328-0.356-0.49c-0.124-0.162-0.244-0.315-0.361-0.458c-0.243,0.282-0.482,0.595-0.715,0.937
				c-0.233,0.342-0.426,0.644-0.579,0.908H91.48c0.103-0.209,0.229-0.429,0.378-0.659c0.15-0.231,0.31-0.467,0.481-0.708
				c0.171-0.241,0.347-0.482,0.528-0.723c0.182-0.241,0.361-0.47,0.54-0.687l-1.845-2.656h1.382L94.096,31.356z"/>
		</g>
		<g>
			<path fill="none" d="M103.754,38.418l-55.777-0.002L32.838,64.637c-1.228,2.127-1.228,5.857,0,7.984l18.056,31.274
				c1.228,2.127,4.459,3.992,6.914,3.992h36.113c2.455,0,5.686-1.866,6.914-3.992l18.056-31.274c1.228-2.127,1.228-5.857,0-7.984
				L103.754,38.418z"/>
			<path fill="#002856" d="M121.891,62.906l-18.056-31.274c-1.853-3.21-6.208-5.724-9.913-5.724H57.809
				c-3.705,0-8.059,2.514-9.913,5.724L29.839,62.906c-1.853,3.209-1.853,8.237,0,11.447l18.056,31.274
				c1.853,3.21,6.208,5.724,9.913,5.724h36.113c3.705,0,8.06-2.514,9.913-5.724l18.056-31.274
				C123.744,71.143,123.744,66.115,121.891,62.906z M89.161,31.706l2-3.464c0.171-0.296,0.59-0.538,0.932-0.538h4
				c0.342,0,0.761,0.243,0.932,0.538l2,3.464c0.171,0.296,0.171,0.78,0,1.076l-2,3.463c-0.171,0.296-0.59,0.538-0.932,0.538h-4
				c-0.342,0-0.761-0.242-0.932-0.538l-2-3.463C88.99,32.486,88.99,32.002,89.161,31.706z M118.892,72.621l-18.056,31.274
				c-1.228,2.127-4.459,3.992-6.914,3.992H57.809c-2.455,0-5.686-1.866-6.914-3.992L32.838,72.621c-1.228-2.127-1.228-5.857,0-7.984
				l15.139-26.222l55.777,0.002l15.138,26.219C120.12,66.764,120.12,70.495,118.892,72.621z"/>
		</g>
	</g>
</g>
<g id="icoon__x23_11" display="none">
	<g display="inline">
		<path fill="none" d="M68.668,111.606c0.962,0,1.785-0.597,2.126-1.439h-4.251C66.883,111.009,67.706,111.606,68.668,111.606z"/>
		<path fill="none" d="M96.911,111.606c1.266,0,2.295-1.029,2.295-2.295c0-0.163-0.018-0.322-0.051-0.475
			c-1.408,0.769-2.95,1.257-4.374,1.319C95.119,111.003,95.944,111.606,96.911,111.606z"/>
		<path fill="#002856" d="M70.963,109.311c0-1.266-1.029-2.295-2.295-2.295c-1.266,0-2.295,1.029-2.295,2.295
			c0,0.303,0.062,0.591,0.169,0.856h4.251C70.901,109.902,70.963,109.614,70.963,109.311z"/>
		<path fill="#002856" d="M96.911,107.016c-1.266,0-2.295,1.029-2.295,2.295c0,0.298,0.061,0.581,0.165,0.843
			c1.424-0.062,2.966-0.55,4.374-1.319C98.936,107.798,98.014,107.016,96.911,107.016z"/>
		<path fill="#002856" d="M121.768,62.902L103.154,30.66c-1.59-2.754-5.493-5.008-8.674-5.008H57.25
			c-3.18,0-7.083,2.254-8.674,5.008L29.962,62.902c-1.59,2.754-1.59,7.262,0,10.016l18.614,32.242
			c1.591,2.754,5.494,5.008,8.674,5.008h5.623c-0.041-0.28-0.07-0.565-0.07-0.856c0-3.234,2.631-5.865,5.865-5.865
			s5.865,2.631,5.865,5.865c0,0.292-0.028,0.576-0.07,0.856h16.653c-0.041-0.28-0.07-0.565-0.07-0.856
			c0-3.234,2.631-5.865,5.865-5.865c2.246,0,4.199,1.271,5.184,3.129c0.414-0.45,0.774-0.925,1.058-1.416l18.615-32.242
			C123.359,70.164,123.359,65.656,121.768,62.902z M98.93,99.981H67.524c-2.809,0-6.11-1.906-7.515-4.338l-12.81-22.188
			c-1.399-2.423-1.405-6.214-0.016-8.648l3.057-5.739c-0.686-0.872-1.098-1.969-1.098-3.165c0-2.833,2.296-5.129,5.129-5.129
			S59.4,53.07,59.4,55.902s-2.297,5.129-5.129,5.129c-0.336,0-0.664-0.035-0.982-0.096l-2.998,5.627
			c-0.772,1.337-0.772,3.771,0,5.106L63.1,93.857c0.772,1.336,2.88,2.554,4.424,2.554H98.93V99.981z M110.441,70.75L99.885,89.034
			c-0.902,1.562-3.116,2.84-4.919,2.84H73.852c-1.803,0-4.017-1.278-4.919-2.84L58.376,70.75c-0.902-1.561,0.118-4.118,1.02-5.68
			h51.045C111.343,66.632,111.343,69.188,110.441,70.75z"/>
	</g>
</g>
<g id="icoon__x23_10" display="none">
	<g display="inline">
		<path fill="#002856" d="M121.768,63.621L103.154,31.38c-1.59-2.754-5.493-5.008-8.674-5.008H57.25
			c-3.18,0-7.083,2.254-8.674,5.008L29.962,63.621c-1.59,2.754-1.59,7.262,0,10.016l18.614,32.242
			c1.591,2.754,5.494,5.008,8.674,5.008h37.23c3.181,0,7.084-2.254,8.674-5.008l18.615-32.242
			C123.359,70.883,123.359,66.376,121.768,63.621z M60.452,105.924c-2.787,0-6.207-1.974-7.6-4.388L36.542,73.287
			c-1.394-2.414-1.394-6.362,0-8.776l16.309-28.249c1.394-2.413,4.814-4.388,7.6-4.388h30.131L72.101,63.886
			c-1.592,2.758-1.592,7.269,0,10.027l18.481,32.011H60.452z M110.528,71.955h-9.293v10.234h-5.639V71.955h-9.294v-5.326h9.294
			V56.396h5.639v10.233h9.293V71.955z"/>
	</g>
</g>
<g id="icoon__x23_9" display="none">
	<g display="inline">
		<path fill="#002856" d="M121.768,63.621L103.154,31.38c-1.59-2.754-5.493-5.008-8.674-5.008H57.25
			c-3.18,0-7.083,2.254-8.674,5.008L29.962,63.621c-1.59,2.754-1.59,7.262,0,10.016l18.614,32.242
			c1.591,2.754,5.494,5.008,8.674,5.008h37.23c3.181,0,7.084-2.254,8.674-5.008l18.615-32.242
			C123.359,70.883,123.359,66.376,121.768,63.621z M59.936,105.653c-2.786,0-6.206-1.974-7.6-4.388L36.027,73.017
			c-1.393-2.414-1.393-6.362,0-8.776l16.309-28.249c1.394-2.413,4.814-4.388,7.6-4.388h11.988L53.443,63.616
			c-1.592,2.758-1.592,7.269,0,10.027l18.481,32.011H59.936z M79.237,101.431c-2.469,0-5.499-1.749-6.733-3.888L58.055,72.517
			c-1.235-2.138-1.235-5.637,0-7.775l14.449-25.026c1.234-2.138,4.264-3.888,6.733-3.888h7.8c-0.034,0.055-0.073,0.11-0.105,0.165
			l-16.31,28.249c-1.393,2.413-1.393,6.362,0,8.776l16.31,28.249c0.031,0.055,0.071,0.11,0.105,0.165H79.237z M83.353,82.523
			c-1.66,0-3.193-0.887-4.024-2.321l-5.388-9.328c-0.83-1.436-0.83-3.208,0-4.643l5.388-9.328c0.831-1.435,2.364-2.321,4.024-2.321
			h10.762c1.646,0,3.181,0.887,4.038,2.321l1.407,2.434l-7.991,13.844c-0.141,0.225-0.858,1.21-1.9,0.605
			c-1.224-0.704-0.506-1.97-0.506-1.97v-0.014l2.926-5.093c0,0,1.098-1.913-0.675-2.912c-1.66-0.943-2.743,0.942-2.743,0.942
			l-2.94,5.094c-0.085,0.127-0.789,1.209-1.886,0.591c-1.153-0.676-0.591-1.843-0.506-1.984v-0.014l2.912-5.078
			c0,0,1.098-1.913-0.675-2.926c-1.66-0.943-2.744,0.942-2.744,0.942l-2.49,4.305c-2.378,4.123-0.225,8.161,3.94,10.566
			c4.15,2.392,8.737,2.237,11.114-1.871l6.415-11.087l1.716,2.955c0.831,1.435,0.831,3.207,0,4.643l-5.388,9.328
			c-0.83,1.434-2.363,2.321-4.024,2.321H83.353z M117.054,71.7l-11.413,19.768c-0.975,1.689-3.368,3.071-5.319,3.071h-6.16
			c0.026-0.044,0.057-0.087,0.083-0.13l12.882-22.313c1.101-1.907,1.101-5.025,0-6.932L94.244,42.85
			c-0.025-0.043-0.056-0.086-0.083-0.131h6.16c1.951,0,4.344,1.382,5.319,3.071l11.413,19.768
			C118.029,67.247,118.029,70.011,117.054,71.7z"/>
	</g>
</g>
<g id="icoon__x23_8" display="none">
	<g display="inline">
		<path fill="#002856" d="M103.154,31.38c-1.59-2.754-5.493-5.008-8.674-5.008H57.25c-3.18,0-7.084,2.254-8.674,5.008L29.961,63.621
			c-1.59,2.754-1.59,7.262,0,10.016l18.615,32.242c1.59,2.754,5.494,5.008,8.674,5.008h37.23c3.181,0,7.084-2.254,8.674-5.008
			l18.615-32.242c1.59-2.754,1.59-7.262,0-10.016L103.154,31.38z M87.424,94.898c-2.13,0.526-4.622,0.789-7.478,0.789
			c-6.264,0-11.049-1.515-14.356-4.547c-3.307-3.031-5.486-7.302-6.539-12.815H53.64v-7.441h4.735
			c-0.05-0.551-0.075-0.977-0.075-1.278c0-0.3,0-0.65,0-1.052c0-0.4,0-0.827,0-1.278c0-0.451,0.025-0.876,0.075-1.278H53.64v-7.441
			h5.712c1.302-5.612,3.783-9.846,7.44-12.702c3.657-2.856,8.343-4.284,14.055-4.284c2.255,0,4.184,0.176,5.787,0.526
			c1.603,0.352,3.206,0.827,4.81,1.428l-2.329,8.718c-1.203-0.4-2.431-0.739-3.683-1.015c-1.253-0.275-2.806-0.413-4.66-0.413
			c-3.006,0-5.349,0.651-7.027,1.954c-1.679,1.303-2.894,3.232-3.645,5.787h16.686l-1.428,7.441H69.123
			c-0.051,0.552-0.075,1.015-0.075,1.39c0,0.376,0,0.765,0,1.165c0,0.401,0,0.752,0,1.052c0,0.301,0.024,0.727,0.075,1.278h15.332
			l-1.428,7.441H70.1c0.851,3.006,2.129,5.099,3.833,6.276c1.703,1.178,3.833,1.766,6.389,1.766c1.653,0,3.331-0.15,5.036-0.451
			c1.703-0.301,3.406-0.801,5.11-1.504l2.18,8.644C91.295,93.758,89.554,94.372,87.424,94.898z"/>
	</g>
</g>
<g id="icoon__x23_7" display="none">
	<g display="inline">
		<path fill="#002856" d="M121.769,63.621L103.154,31.38c-1.59-2.754-5.493-5.008-8.674-5.008H57.25
			c-3.18,0-7.083,2.254-8.674,5.008L29.962,63.621c-1.59,2.754-1.59,7.261,0,10.016l18.614,32.242
			c1.591,2.754,5.494,5.008,8.674,5.008h37.23c3.181,0,7.084-2.254,8.674-5.008l18.615-32.242
			C123.359,70.883,123.359,66.376,121.769,63.621z M78.204,104.563h-5.286c-0.969,0-1.761-0.479-1.761-1.065
			c0-0.585,0.793-1.064,1.761-1.064h5.286c0.968,0,1.762,0.479,1.762,1.064C79.965,104.083,79.172,104.563,78.204,104.563z
			 M83.511,97.821l-0.264,1.329c-0.189,0.951-1.138,1.728-2.107,1.728H70.129c-0.969,0-1.867-0.572-1.996-1.271
			c-0.129-0.699,0.551-1.381,1.51-1.516l12.467-1.752C83.069,96.204,83.7,96.871,83.511,97.821z M84.364,93.538
			c-0.129,0.65-1.021,1.293-1.98,1.428l-12.98,1.824c-0.959,0.135-1.838-0.259-1.951-0.875c-0.114-0.616,0.578-1.23,1.538-1.365
			l13.865-1.948C83.814,92.467,84.493,92.888,84.364,93.538z M85.092,89.878c-0.121,0.608-1.006,1.216-1.965,1.351L68.75,93.25
			c-0.96,0.135-1.832-0.226-1.938-0.803c-0.106-0.577,0.592-1.158,1.551-1.292l15.204-2.137
			C84.527,88.883,85.213,89.27,85.092,89.878z M99.445,55.392l-8.913,15.554c-1.85,3.49-4.047,8.225-4.4,11.081
			c-0.163,1.328-0.538,2.18-1.039,2.686c0.561,0.224,0.887,0.713,0.774,1.279c-0.155,0.775-1.066,1.519-2.025,1.654l-15.718,2.209
			c-0.959,0.135-1.888-0.534-2.064-1.488l-0.378-2.052c-0.145-0.788,0.274-1.455,0.97-1.664c-0.471-0.513-0.821-1.35-0.979-2.624
			c-0.312-2.529-2.071-6.532-3.755-9.839l-9.633-16.789c-0.527-0.915-0.527-2.432,0-3.347l10.319-17.818
			c0.526-0.915,1.817-1.538,2.868-1.538h0.147h20.492h0.147c1.051,0,2.342,0.613,2.868,1.528L99.445,52.1
			C99.97,53.014,99.97,54.478,99.445,55.392z"/>
		<path fill="#002856" d="M87.286,36.948c-0.455-0.792-1.573-1.203-2.483-1.203H66.935c-0.91,0-2.028,0.426-2.483,1.217
			l-8.933,15.313c-0.456,0.791-0.456,2.118,0,2.91l8.933,15.594c0.456,0.792,0.967,1.56,2.483,1.56c5.261,0,5.532,12.54,8.582,12.54
			c3.05,0,4.269-12.534,9.287-12.534c1.629,0,2.028-0.745,2.483-1.536l8.933-15.626c0.456-0.791,0.456-2.028,0-2.82L87.286,36.948z"
			/>
	</g>
</g>
<g id="icoon__x23_6" display="none">
	<g display="inline">
		<path fill="#002856" d="M92.304,25.95h-32.88c-5.071,0-9.756,2.708-12.292,7.092L30.672,61.537c-2.536,4.384-2.536,9.799,0,14.183
			l16.461,28.496c2.536,4.384,7.222,7.092,12.292,7.092h32.88c5.072,0,9.757-2.708,12.293-7.092l16.46-28.496
			c2.537-4.384,2.537-9.799,0-14.183l-5.243-9.026L96.216,86.38c-7.263,12.551-21.275,13.022-33.954,5.716
			C49.54,84.747,42.964,72.411,50.227,59.817l7.608-13.151c0,0,3.31-5.76,8.381-2.879c5.415,3.094,2.063,8.94,2.063,8.94
			l-8.896,15.515v0.044c-0.258,0.43-1.977,3.997,1.547,6.061c3.353,1.891,5.502-1.418,5.76-1.805l8.983-15.559
			c0,0,3.309-5.76,8.381-2.88c5.416,3.051,2.063,8.897,2.063,8.897l-8.94,15.558v0.044c0,0-2.191,3.867,1.548,6.017
			c3.181,1.848,5.372-1.16,5.802-1.849l24.413-42.293l-4.298-7.435C102.019,28.658,97.334,25.95,92.304,25.95"/>
	</g>
</g>
<g id="icoon__x23_5" display="none">
	<g display="inline">
		<polygon fill="#002856" points="77.536,74.941 77.522,74.933 74.875,73.405 73.909,75.078 73.331,76.079 71.787,78.753 
			73.461,79.719 77.111,81.827 78.655,79.153 75.992,77.615 		"/>
		<polygon fill="#002856" points="77.935,68.041 75.329,66.536 73.785,69.21 71.111,67.666 69.567,70.34 74.848,73.389 		"/>
		<path fill="#002856" d="M122.049,63.591l-18.728-32.439c-1.6-2.771-5.527-5.039-8.727-5.039H57.136
			c-3.199,0-7.127,2.267-8.727,5.038L29.681,63.591c-1.6,2.771-1.6,7.306,0,10.077l18.728,32.439c1.6,2.771,5.528,5.039,8.727,5.039
			h37.458c3.2,0,7.127-2.267,8.727-5.039l18.728-32.439C123.649,70.897,123.649,66.362,122.049,63.591z M107.991,68.929
			l-15.28,27.057c-1.647,2.917-4.342,5.022-7.588,5.924c-1.127,0.313-2.273,0.469-3.409,0.469c-2.137,0-4.244-0.548-6.148-1.624h0
			l-27.057-15.28c-6.042-3.412-8.182-11.103-4.77-17.145l15.28-27.057c3.412-6.042,11.103-8.182,17.145-4.769l27.057,15.28
			C109.263,55.196,111.403,62.887,107.991,68.929z"/>
		<path fill="#002856" d="M71.659,52.852l-3.842,6.655l6.655,3.842l3.842-6.655L71.659,52.852z M73.63,60.21l-2.674-1.544
			l1.544-2.674l2.674,1.544L73.63,60.21z"/>
		<polygon fill="#002856" points="69.113,77.209 70.657,74.535 68.023,73.014 69.567,70.34 66.893,68.796 63.805,74.145 		"/>
		<path fill="#002856" d="M100.479,56.639l-27.057-15.28c-1.086-0.613-2.268-0.905-3.435-0.905c-2.448,0-4.827,1.282-6.114,3.561
			l-15.28,27.057c-1.9,3.365-0.709,7.649,2.656,9.549L78.308,95.9c1.621,0.915,3.51,1.142,5.321,0.638
			c1.811-0.504,3.312-1.674,4.227-3.294l15.28-27.057C105.036,62.822,103.844,58.539,100.479,56.639z M90.192,71.533l-2.679-1.547
			l-3.096,5.362l-2.663-1.537l-3.088,5.348l2.668,1.54l3.088-5.348l2.674,1.544L80.92,87.591l-2.674-1.544l1.544-2.674l-2.668-1.54
			l-1.544,2.674l-5.362-3.096l1.544-2.674l-2.606-1.505l-1.544,2.674l-8.022-4.632l1.544-2.674l-2.674-1.544l1.544-2.674
			l2.674,1.544l0,0l1.544-2.674l-2.674-1.544l1.544-2.674l2.674,1.544l-1.544,2.674l2.674,1.544l1.544-2.674l2.674,1.544
			l1.544-2.674l-2.674-1.544l-1.515,2.625l-2.674-1.544l1.515-2.625l-2.674-1.544l6.173-10.692l15.977,9.224l-1.544,2.674
			l-5.285-3.051l-3.085,5.344l2.611,1.507l-1.544,2.674l2.674,1.544l-1.544,2.674l2.677,1.546l3.096-5.362l-5.351-3.09l1.544-2.674
			l2.674,1.544l0.014,0.008l1.537-2.663l2.663,1.537l1.54-2.667l2.674,1.544l-1.544,2.674l-2.663-1.537l-1.533,2.656l2.663,1.537
			l0.005,0.003l1.537-2.663l2.674,1.544L90.192,71.533z"/>
	</g>
</g>
<g id="icoon__x23_4" display="none">
	<g display="inline">
		<path fill="#002856" d="M75.865,58.379c1.153,0,2.257,0.199,3.291,0.55l18.577-32.177c-1.056-0.394-2.133-0.639-3.14-0.639H57.136
			c-1.007,0-2.083,0.245-3.139,0.639l18.577,32.177C73.608,58.578,74.712,58.379,75.865,58.379z"/>
		<path fill="#002856" d="M69.112,60.932l-18.579-32.18c-0.87,0.717-1.62,1.527-2.124,2.4L29.681,63.591
			c-0.504,0.872-0.83,1.927-1.017,3.039h37.149C66.259,64.374,67.449,62.391,69.112,60.932z"/>
		<path fill="#002856" d="M75.865,78.879c-4.976,0-9.121-3.547-10.052-8.25H28.664c0.187,1.112,0.513,2.166,1.017,3.038
			l18.728,32.439c1.6,2.771,5.528,5.039,8.727,5.039h37.458c3.2,0,7.127-2.267,8.727-5.039l18.728-32.439
			c0.504-0.872,0.83-1.927,1.017-3.038H85.917C84.986,75.332,80.841,78.879,75.865,78.879z"/>
	</g>
	<g display="inline">
		<path fill="#002856" d="M101.272,52.259c0.486,0,0.957,0.251,1.219,0.693c0.371,0.623,0.211,1.425-0.369,1.859L86.324,66.629
			h36.742c-0.187-1.112-0.513-2.166-1.017-3.039l-18.728-32.439c-0.504-0.872-1.254-1.682-2.123-2.4l-18.38,31.836l17.864-8.199
			C100.873,52.301,101.074,52.259,101.272,52.259z"/>
	</g>
	<path display="inline" fill="#002856" d="M101.273,53.676L78.492,64.132c-1.539-0.897-3.488-1.002-5.159-0.076
		c-2.526,1.399-3.439,4.58-2.041,7.106c1.399,2.526,4.58,3.439,7.106,2.041c1.671-0.925,2.616-2.632,2.673-4.412L101.273,53.676z"/>
</g>
<g id="icoon__x23_3" display="none">
	<path display="inline" fill="#002856" d="M57.136,111.145c-3.199,0-7.127-2.267-8.727-5.039L29.681,73.668
		c-1.6-2.771-1.6-7.306,0-10.077l18.728-32.439c1.6-2.771,5.528-5.038,8.727-5.038h37.458c3.2,0,7.127,2.267,8.727,5.039
		l18.728,32.439c1.6,2.771,1.6,7.306,0,10.077l-18.728,32.439c-1.6,2.771-5.527,5.039-8.727,5.039H57.136z"/>
	<g display="inline">
		<g>
			<path fill="none" d="M71.542,65.186c-2.426,0-5.256,1.156-5.269,2.646c-0.007,0.781-0.014,1.666,3.439,3.075
				c1.324,0.54,2.768,0.887,4.412,1.112l2.674-4.632c-1.898-1.52-2.772-2.007-4.663-2.176
				C71.944,65.194,71.746,65.186,71.542,65.186z"/>
			<path fill="#BCD9EA" d="M112.896,77.098l-8.456-14.646c-0.722-1.251-2.495-2.275-3.94-2.275h-8.308h-8.604
				c-1.445,0-3.218,1.024-3.94,2.275l-2.849,4.935l-2.674,4.632c2.663,0.364,5.855,0.405,9.95,0.405l3.274-0.002
				c3.376,0,6.191,1.521,7.723,4.173c1.423,2.465,1.485,5.542,0.158,7.84c-1.23,2.13-3.41,3.304-6.138,3.304
				c0,0-0.31-0.005-0.31-0.005l-1.885-0.063c-2.527-0.088-5.139-0.178-7.833-0.178c-1.568,0-3.043,0.033-4.441,0.1l5.025,8.703
				c0.723,1.251,2.496,2.275,3.94,2.275H100.5c1.445,0,3.218-1.024,3.94-2.275l8.456-14.646
				C113.618,80.397,113.618,78.349,112.896,77.098z"/>
		</g>
		<g>
			<path fill="none" d="M64.856,67.82c-0.013,1.578,0.556,2.862,4.32,4.399c0.856,0.349,1.756,0.621,2.712,0.837l4.486-7.769
				c-1.318-0.92-2.371-1.331-4.113-1.487C69.313,63.536,64.88,64.964,64.856,67.82z"/>
			<path fill="#BCD9EA" d="M87.349,73.839c-6.824,0-11.611,0.085-15.46-0.783c-0.956-0.216-1.856-0.488-2.712-0.837
				c-3.764-1.536-4.334-2.82-4.32-4.399c0.024-2.856,4.457-4.284,7.405-4.021c1.742,0.156,2.795,0.567,4.113,1.487l2.045-3.543
				c0.983-1.701,3.205-2.984,5.168-2.984h4.579c-6.862-5.417-10.299-9.01-16.618-9.01c-9.873,0-9.824,5.917-26.446,5.917
				c-0.152,0-0.287,0.017-0.435,0.021v24.384c0.145,0.016,0.29,0.04,0.435,0.04c8.03,0,11.316,9.544,18.581,7.603
				c2.758-0.737,5.654-1.159,8.571-1.391c5.725-0.456,11.537-0.168,16.574-0.007C97.28,86.588,96.646,73.839,87.349,73.839z"/>
		</g>
	</g>
	<path display="inline" fill="#BCD9EA" d="M36.499,80.583c0.734,1.375,2.422,2.501,3.751,2.501s2.417-1.276,2.417-2.835V56.251
		c0-1.559-1.088-2.835-2.417-2.835s-3.017,1.125-3.751,2.501l-5.247,9.832c-0.734,1.375-0.734,3.626,0,5.002L36.499,80.583z"/>
	<text transform="matrix(1 0 0 1 157.5 72.0186)" display="inline" font-family="'MyriadPro-Regular'" font-size="12px">goed idee slecht uit gevoerd </text>
</g>
<g id="icoon__x23_2" display="none">
	<g display="inline">
		<path fill="none" d="M71.687,62.264c-0.924,1.315-1.854,2.74-2.766,4.262"/>
		<path fill="none" d="M74.3,63.169c2.034-3.897,4.605-8.096,7.891-12.618c0,0-4.726,3.759-9.836,10.782"/>
		<path fill="none" d="M71.499,69.122c0.617-1.484,1.321-3.023,2.114-4.614l-0.002,0.001"/>
		<g>
			<path fill="#002856" d="M74.5,76.375l-5.182-1.188c0.465-1.546,1.033-3.17,1.697-4.859l13.36-1.829l-12.876,0.622
				c0.617-1.484,1.321-3.023,2.114-4.614l7.185-1.967L74.3,63.169c2.034-3.897,4.605-8.096,7.891-12.618
				c0,0-4.726,3.759-9.836,10.782l-2.561-3.096l1.893,4.027l-2.766,4.262l-4.082-4.747l3.584,5.583
				c-1.066,1.839-2.098,3.823-3.057,5.941l-3.616-4.929l3,6.34c-1.009,2.376-1.921,4.909-2.678,7.602l0.319,2.137
				c0.219,1.467,1.485,2.415,2.812,2.105l2.047-0.478c0.212-2.821,0.722-6.062,1.732-9.707H74.5z"/>
			<path fill="#002856" d="M122.184,63.461l-18.728-32.439c-1.6-2.771-5.527-5.039-8.727-5.039H57.271
				c-3.199,0-7.127,2.267-8.727,5.039L29.816,63.461c-1.6,2.771-1.6,7.306,0,10.077l18.728,32.439
				c1.6,2.771,5.528,5.039,8.727,5.039h37.458c3.2,0,7.127-2.267,8.727-5.039l18.728-32.439
				C123.784,70.767,123.784,66.232,122.184,63.461z M98.153,58.332L85.175,79.137c-1.109,1.777-3.102,3.485-4.43,3.795l-13.495,3.15
				c-0.632,8.415,1.279,13.193-0.253,14.49c-3.039,2.571-7.21-0.467-7.21-0.467c-0.122-6.513,0.786-12.452,2.284-17.787
				l-2.245-15.041c-0.219-1.467,0.509-4.122,1.617-5.9l12.977-20.805c1.109-1.777,3.102-3.485,4.43-3.795l15.542-3.627
				c1.328-0.31,2.593,0.637,2.812,2.105l2.564,17.178C99.989,53.9,99.261,56.555,98.153,58.332z"/>
		</g>
		<line fill="#002856" x1="71.015" y1="70.329" x2="84.375" y2="68.5"/>
		<line fill="#002856" x1="73.613" y1="64.508" x2="80.799" y2="62.541"/>
		<line fill="#002856" x1="72.355" y1="61.333" x2="69.794" y2="58.237"/>
	</g>
</g>
<g id="icoon__x23_1" display="none">
	<path display="inline" fill="#002856" d="M57.136,111.145c-3.199,0-7.127-2.267-8.727-5.039L29.681,73.668
		c-1.6-2.771-1.6-7.306,0-10.077l18.728-32.439c1.6-2.771,5.528-5.038,8.727-5.038h37.458c3.2,0,7.127,2.267,8.727,5.039
		l18.728,32.439c1.6,2.771,1.6,7.306,0,10.077l-18.728,32.439c-1.6,2.771-5.527,5.039-8.727,5.039H57.136z"/>
	<g display="inline">
		<path fill="#BCD9EA" d="M100.241,83.249l-9.042-6.274c-0.432-0.3-0.689-0.792-0.689-1.318V57.561c0-1.294,1.455-2.056,2.518-1.318
			l9.042,6.274c0.432,0.3,0.689,0.792,0.689,1.318v18.096C102.759,83.226,101.304,83.987,100.241,83.249z"/>
		<polygon fill="#BCD9EA" stroke="#002856" stroke-miterlimit="10" points="83.384,76.746 101.634,72.246 91.384,65.371 
			73.134,69.871 		"/>
		<path fill="#BCD9EA" stroke="#002856" stroke-miterlimit="10" d="M89.657,64.624l-12.924,2.667
			c-0.847,0.175-1.654-0.436-1.716-1.299l-1.544-21.621c-0.051-0.715,0.435-1.358,1.138-1.503l12.924-2.667
			c0.847-0.175,1.654,0.436,1.716,1.299l1.544,21.621C90.845,63.837,90.359,64.479,89.657,64.624z"/>
		<path fill="#BCD9EA" stroke="#002856" stroke-miterlimit="10" d="M82.491,87.999l-9.042-6.274c-0.432-0.3-0.689-0.792-0.689-1.318
			V62.311c0-1.294,1.455-2.056,2.518-1.318l9.042,6.274c0.432,0.3,0.689,0.792,0.689,1.318v18.096
			C85.009,87.976,83.554,88.737,82.491,87.999z"/>
	</g>
	<g display="inline">
		<path fill="#BCD9EA" stroke="#002856" stroke-miterlimit="10" d="M78.607,89.753l-9.042-6.274c-0.432-0.3-0.689-0.792-0.689-1.318
			V64.065c0-1.294,1.455-2.056,2.518-1.318l9.042,6.274c0.432,0.3,0.689,0.792,0.689,1.318v18.096
			C81.125,89.73,79.67,90.491,78.607,89.753z"/>
		<polygon fill="#BCD9EA" stroke="#002856" stroke-miterlimit="10" points="61.75,83.25 80,78.75 69.75,71.875 51.5,76.375 		"/>
		<path fill="#BCD9EA" stroke="#002856" stroke-miterlimit="10" d="M68.023,71.128l-12.924,2.667
			c-0.847,0.175-1.654-0.436-1.716-1.299l-1.544-21.621c-0.051-0.715,0.435-1.358,1.138-1.503l12.924-2.667
			c0.847-0.175,1.654,0.436,1.716,1.299l1.544,21.621C69.212,70.341,68.725,70.983,68.023,71.128z"/>
		<path fill="#BCD9EA" stroke="#002856" stroke-miterlimit="10" d="M60.857,94.503l-9.042-6.274c-0.432-0.3-0.689-0.792-0.689-1.318
			V68.815c0-1.294,1.455-2.056,2.518-1.318l9.042,6.274c0.432,0.3,0.689,0.792,0.689,1.318v18.096
			C63.375,94.48,61.92,95.241,60.857,94.503z"/>
	</g>
	<g display="inline">
		<path fill="#BCD9EA" d="M86.677,60.381c-0.383,0-0.743-0.15-1.013-0.421L74.941,48.476c-0.403-0.406-0.52-1.001-0.294-1.543
			s0.73-0.878,1.317-0.878h5.46c0.235,0,0.427-0.192,0.427-0.427V35.399c0-0.787,0.64-1.427,1.427-1.427h6.536
			c0.787,0,1.427,0.64,1.427,1.427v10.228c0,0.235,0.192,0.427,0.427,0.427h5.651c0.566,0,1.064,0.32,1.299,0.835
			c0.235,0.516,0.15,1.101-0.222,1.529L87.743,59.902C87.483,60.202,87.09,60.381,86.677,60.381L86.677,60.381z"/>
		<path fill="#002856" d="M89.815,34.472c0.512,0,0.927,0.415,0.927,0.927v10.228c0,0.512,0.415,0.927,0.927,0.927h5.651
			c0.795,0,1.222,0.935,0.7,1.536L87.377,59.562c-0.184,0.212-0.442,0.319-0.7,0.319c-0.238,0-0.476-0.091-0.658-0.274
			L75.306,48.135c-0.581-0.585-0.166-1.58,0.658-1.58h5.46c0.512,0,0.927-0.415,0.927-0.927V35.399c0-0.512,0.415-0.927,0.927-0.927
			H89.815 M89.815,33.472h-6.536c-1.063,0-1.927,0.865-1.927,1.927v10.155h-5.387c-0.781,0-1.479,0.466-1.779,1.186
			c-0.3,0.721-0.139,1.544,0.411,2.098l10.691,11.45c0.386,0.389,0.871,0.592,1.389,0.592c0.558,0,1.088-0.242,1.455-0.663
			L98.754,48.77c0.523-0.601,0.638-1.392,0.321-2.088c-0.317-0.696-0.989-1.128-1.754-1.128h-5.579V35.399
			C91.742,34.337,90.878,33.472,89.815,33.472L89.815,33.472z"/>
	</g>
</g>
<g id="icoon__x23_0" display="none">
	<path display="inline" fill="#002856" d="M57.136,111.145c-3.199,0-7.127-2.267-8.727-5.039L29.681,73.668
		c-1.6-2.771-1.6-7.306,0-10.077l18.728-32.439c1.6-2.771,5.528-5.038,8.727-5.038h37.458c3.2,0,7.127,2.267,8.727,5.039
		l18.728,32.439c1.6,2.771,1.6,7.306,0,10.077l-18.728,32.439c-1.6,2.771-5.527,5.039-8.727,5.039H57.136z"/>
	<g display="inline">
		<path id="Facebook_3_" fill="#BCD9EA" d="M56.016,54.808c0,1.873,0,10.238,0,10.238h-7.39v12.522h7.39v34.36h15.177v-34.36h10.185
			c0,0,0.954-6.004,1.417-12.568c-1.325,0-11.544,0-11.544,0s0-7.284,0-8.559c0-1.28,1.659-2.999,3.29-2.999
			c1.637,0,5.083,0,8.272,0c0-1.706,0-7.594,0-13.039c-4.261,0-9.109,0-11.246,0C55.638,40.403,56.016,52.938,56.016,54.808z"/>
	</g>
</g>
<g id="icoon__x23_0_kopie_2" display="none">
	<path display="inline" fill="#002856" d="M57.136,111.145c-3.199,0-7.127-2.267-8.727-5.039L29.681,73.668
		c-1.6-2.771-1.6-7.306,0-10.077l18.728-32.439c1.6-2.771,5.528-5.038,8.727-5.038h37.458c3.2,0,7.127,2.267,8.727,5.039
		l18.728,32.439c1.6,2.771,1.6,7.306,0,10.077l-18.728,32.439c-1.6,2.771-5.527,5.039-8.727,5.039H57.136z"/>
	<path display="inline" fill="#BCD9EA" d="M111.5,118H56.153c-2.294,0-4.153-1.859-4.153-4.153V44.903
		c0-2.294,1.859-4.153,4.153-4.153h65.694c2.294,0,4.153,1.859,4.153,4.153V103C126,105.294,113.794,118,111.5,118z"/>
	<rect x="55.75" y="50" display="inline" fill="none" stroke="#002856" stroke-miterlimit="10" width="7" height="7"/>
	<rect x="55.75" y="62.25" display="inline" fill="none" stroke="#002856" stroke-miterlimit="10" width="7" height="7"/>
	<line display="inline" fill="none" stroke="#002856" stroke-miterlimit="10" x1="68" y1="65.5" x2="111" y2="65.5"/>
	<rect x="55.75" y="74.25" display="inline" fill="none" stroke="#002856" stroke-miterlimit="10" width="7" height="7"/>
	<line display="inline" fill="none" stroke="#002856" stroke-miterlimit="10" x1="68" y1="77.5" x2="111" y2="77.5"/>
	<rect x="55.75" y="86.5" display="inline" fill="none" stroke="#002856" stroke-miterlimit="10" width="7" height="7"/>
	<line display="inline" fill="none" stroke="#002856" stroke-miterlimit="10" x1="68" y1="89.75" x2="111" y2="89.75"/>
	<text transform="matrix(1 0 0 1 68.5 57.25)" display="inline" fill="#002856" font-family="'Ubuntu-Medium'" font-size="12px">Guest</text>
</g>
<g id="icoon__x23_0_kopie_3" display="none">
	<path display="inline" fill="#002856" d="M57.136,111.145c-3.199,0-7.127-2.267-8.727-5.039L29.681,73.668
		c-1.6-2.771-1.6-7.306,0-10.077l18.728-32.439c1.6-2.771,5.528-5.038,8.727-5.038h37.458c3.2,0,7.127,2.267,8.727,5.039
		l18.728,32.439c1.6,2.771,1.6,7.306,0,10.077l-18.728,32.439c-1.6,2.771-5.527,5.039-8.727,5.039H57.136z"/>
	<path display="inline" fill="#BCD9EA" d="M111.5,118H56.153c-2.294,0-4.153-1.859-4.153-4.153V44.903
		c0-2.294,1.859-4.153,4.153-4.153h65.694c2.294,0,4.153,1.859,4.153,4.153V103C126,105.294,113.794,118,111.5,118z"/>
	
		<text transform="matrix(1 0 0 1 75.251 109.8662)" display="inline" fill="#002856" font-family="'Ubuntu-Medium'" font-size="18.9933px"> ..,-</text>
	
		<line display="inline" fill="none" stroke="#002856" stroke-width="2" stroke-miterlimit="10" x1="66.25" y1="52" x2="112.5" y2="52"/>
	
		<line display="inline" fill="none" stroke="#002856" stroke-width="2" stroke-miterlimit="10" x1="66.25" y1="66.5" x2="112.5" y2="66.5"/>
	
		<line display="inline" fill="none" stroke="#002856" stroke-width="2" stroke-miterlimit="10" x1="66.25" y1="81.25" x2="112.5" y2="81.25"/>
</g>
<g id="icoon__x23_0_kopie_4" display="none">
	<path display="inline" fill="#002856" d="M57.136,111.145c-3.199,0-7.127-2.267-8.727-5.039L29.681,73.668
		c-1.6-2.771-1.6-7.306,0-10.077l18.728-32.439c1.6-2.771,5.528-5.038,8.727-5.038h37.458c3.2,0,7.127,2.267,8.727,5.039
		l18.728,32.439c1.6,2.771,1.6,7.306,0,10.077l-18.728,32.439c-1.6,2.771-5.527,5.039-8.727,5.039H57.136z"/>
	<path display="inline" fill="#BCD9EA" d="M111.5,118H56.153c-2.294,0-4.153-1.859-4.153-4.153V44.903
		c0-2.294,1.859-4.153,4.153-4.153h65.694c2.294,0,4.153,1.859,4.153,4.153V103C126,105.294,113.794,118,111.5,118z"/>
	
		<text transform="matrix(1 0 0 1 75.251 109.8662)" display="inline" fill="#002856" font-family="'Ubuntu-Medium'" font-size="18.9933px"> ..,-</text>
	
		<line display="inline" fill="none" stroke="#002856" stroke-width="2" stroke-miterlimit="10" x1="66.25" y1="52" x2="112.5" y2="52"/>
	
		<line display="inline" fill="none" stroke="#002856" stroke-width="2" stroke-miterlimit="10" x1="66.25" y1="66.5" x2="112.5" y2="66.5"/>
	
		<line display="inline" fill="none" stroke="#002856" stroke-width="2" stroke-miterlimit="10" x1="66.25" y1="81.25" x2="112.5" y2="81.25"/>
</g>
<g id="icoon__x23_0_kopie" display="none">
	<path display="inline" fill="#002856" d="M57.136,111.145c-3.199,0-7.127-2.267-8.727-5.039L29.681,73.668
		c-1.6-2.771-1.6-7.306,0-10.077l18.728-32.439c1.6-2.771,5.528-5.038,8.727-5.038h37.458c3.2,0,7.127,2.267,8.727,5.039
		l18.728,32.439c1.6,2.771,1.6,7.306,0,10.077l-18.728,32.439c-1.6,2.771-5.527,5.039-8.727,5.039H57.136z"/>
	<g display="inline">
		<rect x="64.776" y="46.667" fill="#BCD9EA" width="22.813" height="13.45"/>
		<path fill="#BCD9EA" stroke="#002856" stroke-miterlimit="10" d="M106.309,56.89L88.554,45.329
			c-0.535-0.348-1.251-0.197-1.6,0.338l-5.648,8.675c-0.213,0.328-0.578,0.525-0.969,0.525h-8.943c-0.391,0-0.756-0.198-0.969-0.525
			l-5.648-8.675c-0.348-0.535-1.065-0.687-1.6-0.338L45.421,56.89c-0.535,0.348-0.687,1.065-0.338,1.6l5.422,8.328
			c0.348,0.535,1.065,0.687,1.6,0.338l6.498-4.231c0.769-0.501,1.787,0.051,1.787,0.969v27.068c0,0.639,0.518,1.156,1.156,1.156
			h28.315c0.639,0,1.156-0.518,1.156-1.156V63.684c0-0.918,1.018-1.47,1.787-0.969l6.819,4.44c0.535,0.348,1.251,0.197,1.6-0.338
			l5.422-8.328C106.996,57.955,106.844,57.238,106.309,56.89z"/>
	</g>
</g>
<g id="icoon__x23_0_kopie_6" display="none">
	<path display="inline" fill="#002856" d="M57.136,111.145c-3.199,0-7.127-2.267-8.727-5.039L29.681,73.668
		c-1.6-2.771-1.6-7.306,0-10.077l18.728-32.439c1.6-2.771,5.528-5.038,8.727-5.038h37.458c3.2,0,7.127,2.267,8.727,5.039
		l18.728,32.439c1.6,2.771,1.6,7.306,0,10.077l-18.728,32.439c-1.6,2.771-5.527,5.039-8.727,5.039H57.136z"/>
	<circle display="inline" fill="#BCD9EA" stroke="#002856" stroke-miterlimit="10" cx="75.865" cy="68.629" r="22.625"/>
	<path display="inline" fill="none" stroke="#002856" stroke-miterlimit="10" d="M90.5,51.75c0,0,0.75,3.5-3.25,5.5s-3.75,2.25-7,2
		s-7,0.5-7.25,1.25S71.75,63,74,63s4,2.25,2.25,2.75s-3.75,0-5,2s-2.5,5.75-0.75,7.75s1,0.25,5,3.5s3.5,2.5,4.25,6.5
		s0.5,4.25,2.5,3.25s6.5-2.25,7-5.5s1-6-0.75-8S86.25,73,85,72s-2.75-4.5,0-5.25s3.75-1,6,0.25s5.73,2.009,7.49,1.629
		C100.25,68.25,99,57.75,99,57.75L90.5,51.75z"/>
	<path display="inline" fill="none" stroke="#002856" stroke-miterlimit="10" d="M62,87.25c0,0-0.5-1.75,0.25-3.25
		s1.25-2.75-0.5-4.25s-2.75-1.5-3.5-3.25s-1.5-2.75-1.5-3.75s-0.5-2.75-1.25-3s-2.26-1.121-2.26-1.121S52,70.75,52.5,73
		s2.25,8.25,3,9.75S62,87.25,62,87.25z"/>
	<path display="inline" fill="none" stroke="#002856" stroke-miterlimit="10" d="M55.75,57c0.75,0,3.25-1,3.75,0.25
		s1.25,3.75,3.75,1.5s4-1.75,3.75-4s-0.25-3.25,1.75-4s3.75-2,3-3.25s-1.5-2.25-2.75-2.25S59.75,50,59.75,50L55.75,57z"/>
	<g display="inline">
		<path fill="#BCD9EA" d="M80.263,63.437c-0.473,0-0.915-0.234-1.181-0.625l-8.431-13.258c-0.294-0.432-0.325-0.981-0.074-1.455
			c0.25-0.471,0.73-0.763,1.254-0.763c0.088,0,0.179,0.008,0.271,0.025l5.367,1.003c0.007,0,0.014,0,0.021,0
			c0.272,0,0.441-0.145,0.478-0.341l1.879-10.054c0.126-0.675,0.715-1.166,1.402-1.166c0.087,0,0.175,0.008,0.263,0.025l6.425,1.2
			c0.774,0.145,1.286,0.892,1.141,1.665l-1.879,10.054c-0.043,0.232,0.11,0.456,0.341,0.499l5.555,1.038
			c0.557,0.104,0.987,0.51,1.123,1.06c0.136,0.55-0.055,1.11-0.499,1.461l-12.583,9.331C80.898,63.327,80.583,63.437,80.263,63.437
			L80.263,63.437z"/>
		<path fill="#002856" d="M81.249,37.304c0.056,0,0.114,0.005,0.171,0.016l6.425,1.201c0.503,0.094,0.835,0.578,0.741,1.082
			l-1.879,10.054c-0.094,0.503,0.238,0.988,0.741,1.082l5.555,1.038c0.782,0.146,1.029,1.144,0.406,1.638l-12.57,9.321
			c-0.171,0.136-0.374,0.201-0.575,0.201c-0.296,0-0.588-0.141-0.768-0.406l-8.423-13.245c-0.428-0.631,0.044-1.449,0.758-1.449
			c0.058,0,0.118,0.005,0.179,0.017l5.367,1.003c0.058,0.011,0.115,0.016,0.171,0.016c0.438,0,0.827-0.311,0.91-0.757l1.879-10.054
			C80.421,37.615,80.811,37.304,81.249,37.304 M81.249,36.304c-0.927,0-1.723,0.662-1.893,1.573l-1.866,9.984l-5.295-0.991
			c-0.12-0.022-0.242-0.034-0.363-0.034c-0.71,0-1.36,0.394-1.696,1.029c-0.334,0.631-0.292,1.391,0.11,1.983l8.406,13.219
			c0.376,0.554,0.972,0.87,1.612,0.87c0.432,0,0.857-0.148,1.197-0.417l12.545-9.302c0.625-0.495,0.883-1.251,0.699-1.993
			c-0.184-0.742-0.765-1.291-1.517-1.431l-5.484-1.025l1.866-9.983c0.095-0.506-0.014-1.019-0.305-1.443
			c-0.291-0.425-0.73-0.711-1.236-0.805l-6.425-1.201C81.484,36.315,81.366,36.304,81.249,36.304L81.249,36.304z"/>
	</g>
	<g display="inline">
		<path fill="#BCD9EA" d="M40.062,99.724c-0.457,0-0.89-0.221-1.158-0.591l-3.825-5.3c-0.46-0.638-0.316-1.532,0.321-1.992
			l8.294-5.986c0.092-0.067,0.153-0.166,0.171-0.278s-0.008-0.226-0.075-0.318l-3.307-4.583c-0.315-0.436-0.359-1.004-0.115-1.483
			c0.246-0.48,0.73-0.779,1.266-0.779l0.135,0.006l15.547,1.918c0.378,0.034,0.743,0.234,0.985,0.547
			c0.242,0.312,0.343,0.716,0.278,1.106l-3.035,15.415c-0.112,0.677-0.707,1.18-1.412,1.18c-0.459,0-0.879-0.216-1.151-0.592
			l-3.195-4.428c-0.082-0.112-0.208-0.177-0.347-0.177c-0.09,0-0.176,0.028-0.25,0.081l-8.293,5.986
			C40.652,99.63,40.364,99.724,40.062,99.724L40.062,99.724z"/>
		<path fill="#002856" d="M41.635,78.912c0.029,0,0.059,0.001,0.089,0.004l15.531,1.917c0.537,0.049,0.919,0.543,0.831,1.075
			l-3.033,15.4c-0.081,0.492-0.498,0.777-0.921,0.777c-0.276,0-0.555-0.121-0.746-0.385l-3.195-4.427
			c-0.181-0.251-0.465-0.385-0.753-0.385c-0.188,0-0.378,0.057-0.542,0.175l-8.293,5.986c-0.164,0.118-0.354,0.175-0.542,0.175
			c-0.288,0-0.571-0.134-0.753-0.385l-3.825-5.3c-0.3-0.415-0.206-0.995,0.209-1.295l8.293-5.986c0.415-0.3,0.509-0.879,0.209-1.295
			l-3.308-4.582C40.441,79.762,40.895,78.912,41.635,78.912 M41.635,77.912c-0.724,0-1.379,0.403-1.711,1.051
			c-0.331,0.647-0.272,1.415,0.154,2.004l3.265,4.523l-8.234,5.943c-0.417,0.301-0.693,0.747-0.775,1.255
			c-0.082,0.508,0.039,1.018,0.34,1.435l3.825,5.3c0.361,0.501,0.946,0.799,1.563,0.799c0.407,0,0.797-0.126,1.127-0.365
			l8.234-5.943l3.153,4.368c0.367,0.508,0.934,0.8,1.557,0.8c0.95,0,1.753-0.678,1.907-1.613l3.027-15.37
			c0.093-0.557-0.045-1.101-0.371-1.523c-0.327-0.422-0.819-0.692-1.351-0.741l-15.499-1.913
			C41.754,77.914,41.694,77.912,41.635,77.912L41.635,77.912z"/>
	</g>
	<g display="inline">
		<path fill="#BCD9EA" d="M53.888,55.55c-0.371,0-0.706-0.22-0.855-0.561c-0.151-0.346-0.086-0.732,0.169-1.009l1.737-1.885
			l-3.528-3.164c-0.184-0.169-0.291-0.4-0.301-0.65c-0.01-0.25,0.078-0.488,0.247-0.672l2.08-2.257
			c0.176-0.191,0.427-0.301,0.688-0.301c0.236,0,0.461,0.088,0.634,0.248l3.532,3.255l1.708-1.948
			c0.18-0.195,0.423-0.302,0.685-0.302c0.479,0,0.88,0.358,0.933,0.833l0.576,7.343c0.027,0.241-0.054,0.501-0.223,0.698
			s-0.414,0.314-0.673,0.324L53.888,55.55z"/>
		<path fill="#002856" d="M54.125,45.55c0.105,0,0.211,0.038,0.295,0.115l3.532,3.255c0.084,0.077,0.189,0.115,0.295,0.115
			c0.117,0,0.234-0.047,0.32-0.14l1.799-1.952c0.089-0.097,0.204-0.141,0.317-0.141c0.207,0,0.409,0.148,0.436,0.388l0.574,7.327
			c0.028,0.252-0.164,0.474-0.417,0.483l-7.371,0.048c-0.006,0-0.012,0-0.018,0c-0.376,0-0.577-0.45-0.319-0.731l1.738-1.885
			c0.163-0.177,0.152-0.452-0.025-0.615l-3.532-3.255c-0.177-0.163-0.188-0.438-0.025-0.615l2.08-2.257
			C53.89,45.598,54.007,45.55,54.125,45.55 M54.125,44.55c-0.4,0-0.785,0.169-1.056,0.463l-2.08,2.257
			c-0.536,0.582-0.499,1.492,0.083,2.028l3.117,2.872l-1.355,1.47c-0.386,0.419-0.488,1.027-0.259,1.549
			c0.229,0.522,0.744,0.859,1.313,0.859h0.019l0.036-0.001l7.34-0.048c0.428-0.015,0.805-0.197,1.064-0.498
			c0.26-0.301,0.384-0.701,0.34-1.096l-0.571-7.294c-0.084-0.761-0.698-1.31-1.432-1.31c-0.398,0-0.781,0.169-1.053,0.463
			l-1.416,1.536l-3.117-2.872C54.832,44.685,54.486,44.55,54.125,44.55L54.125,44.55z"/>
	</g>
</g>
<g id="icoon__x23_0_kopie_7" display="none">
	<path display="inline" fill="#002856" d="M57.136,111.145c-3.199,0-7.127-2.267-8.727-5.039L29.681,73.668
		c-1.6-2.771-1.6-7.306,0-10.077l18.728-32.439c1.6-2.771,5.528-5.038,8.727-5.038h37.458c3.2,0,7.127,2.267,8.727,5.039
		l18.728,32.439c1.6,2.771,1.6,7.306,0,10.077l-18.728,32.439c-1.6,2.771-5.527,5.039-8.727,5.039H57.136z"/>
	<path display="inline" fill="none" stroke="#002856" stroke-miterlimit="10" d="M62,87.25c0,0-0.5-1.75,0.25-3.25
		s1.25-2.75-0.5-4.25s-2.75-1.5-3.5-3.25s-1.5-2.75-1.5-3.75s-0.5-2.75-1.25-3s-2.26-1.121-2.26-1.121S52,70.75,52.5,73
		s2.25,8.25,3,9.75S62,87.25,62,87.25z"/>
	<path display="inline" fill="none" stroke="#002856" stroke-miterlimit="10" d="M55.75,57c0.75,0,3.25-1,3.75,0.25
		s1.25,3.75,3.75,1.5s4-1.75,3.75-4s-0.25-3.25,1.75-4s3.75-2,3-3.25s-1.5-2.25-2.75-2.25S59.75,50,59.75,50L55.75,57z"/>
	<g display="inline">
		<circle fill="#BCD9EA" stroke="#002856" stroke-miterlimit="10" cx="85" cy="60.75" r="15"/>
		<g>
			<g>
				<path fill="#BCD9EA" d="M65.083,78.546l6.943-6.943l0.353,0.395c0.43,0.482,0.892,0.944,1.374,1.374l0.395,0.353l-6.943,6.943
					L65.083,78.546z"/>
				<path fill="#002856" d="M72.006,72.33c0.444,0.498,0.916,0.97,1.414,1.414l-6.215,6.215l-1.414-1.414L72.006,72.33
					 M72.047,70.874l-0.749,0.749l-6.215,6.215l-0.707,0.707l0.707,0.707l1.414,1.414l0.707,0.707l0.707-0.707l6.215-6.215
					l0.749-0.749l-0.79-0.705c-0.468-0.417-0.916-0.866-1.333-1.333L72.047,70.874L72.047,70.874z"/>
			</g>
			<g>
				<path fill="#BCD9EA" d="M90.309,44.688c-0.682-0.225-1.294-0.393-1.874-0.512l-0.519-0.107l2.536-9.465l2.898,0.776
					l-2.539,9.474L90.309,44.688z"/>
				<path fill="#002856" d="M90.807,35.216l1.932,0.518l-2.272,8.479c-0.63-0.208-1.27-0.391-1.929-0.527L90.807,35.216
					 M90.099,33.991l-0.259,0.966l-2.27,8.47l-0.274,1.024l1.038,0.214c0.56,0.116,1.155,0.278,1.818,0.497l1.006,0.332l0.274-1.023
					l2.272-8.479l0.259-0.966l-0.966-0.259l-1.932-0.518L90.099,33.991L90.099,33.991z"/>
			</g>
			<g>
				<path fill="#BCD9EA" d="M76.649,35.38l2.898-0.776l2.536,9.465l-0.519,0.107c-0.579,0.119-1.191,0.287-1.874,0.512l-0.502,0.166
					L76.649,35.38z"/>
				<path fill="#002856" d="M79.194,35.216l2.27,8.47c-0.659,0.136-1.3,0.319-1.929,0.527l-2.272-8.479L79.194,35.216
					 M79.901,33.991l-0.966,0.259l-1.932,0.518l-0.966,0.259l0.259,0.966l2.272,8.479l0.274,1.023l1.006-0.332
					c0.663-0.219,1.257-0.382,1.818-0.497l1.038-0.214l-0.274-1.024l-2.27-8.47L79.901,33.991L79.901,33.991z"/>
			</g>
			<g>
				<path fill="#BCD9EA" d="M94.285,46.609c-0.502-0.331-1.053-0.646-1.685-0.965l-0.473-0.238l4.907-8.5l2.599,1.5l-4.904,8.495
					L94.285,46.609z"/>
				<path fill="#002856" d="M97.217,37.589l1.732,1l-4.389,7.602c-0.556-0.366-1.138-0.693-1.736-0.994L97.217,37.589
					 M96.851,36.223l-0.5,0.866l-4.392,7.608l-0.529,0.916l0.945,0.476c0.613,0.309,1.148,0.615,1.636,0.936l0.886,0.583l0.53-0.918
					l4.389-7.602l0.5-0.866l-0.866-0.5l-1.732-1L96.851,36.223L96.851,36.223z"/>
			</g>
			<g>
				<path fill="#BCD9EA" d="M70.368,38.406l2.598-1.5l4.907,8.5L77.4,45.643c-0.632,0.319-1.183,0.634-1.685,0.965l-0.443,0.292
					L70.368,38.406z"/>
				<path fill="#002856" d="M72.783,37.589l4.392,7.608c-0.598,0.301-1.18,0.628-1.736,0.994l-4.389-7.602L72.783,37.589
					 M73.149,36.223l-0.866,0.5l-1.732,1l-0.866,0.5l0.5,0.866l4.389,7.602l0.53,0.918l0.886-0.583
					c0.488-0.321,1.023-0.627,1.636-0.936l0.945-0.476l-0.529-0.916l-4.392-7.608L73.149,36.223L73.149,36.223z"/>
			</g>
			<g>
				<path fill="#BCD9EA" d="M58.333,62.25v-3h9.821l-0.048,0.825c-0.015,0.224-0.031,0.447-0.031,0.675
					c0,0.227,0.016,0.45,0.031,0.674l0.048,0.826H58.333z"/>
				<path fill="#002856" d="M67.626,59.75c-0.019,0.333-0.05,0.662-0.05,1s0.032,0.667,0.05,1h-8.793v-2H67.626 M68.684,58.75
					h-1.058h-8.793h-1v1v2v1h1h8.793h1.058l-0.06-1.057l-0.019-0.296c-0.015-0.215-0.03-0.429-0.03-0.647s0.015-0.433,0.03-0.647
					l0.019-0.296L68.684,58.75L68.684,58.75z"/>
			</g>
			<g>
				<path fill="#BCD9EA" d="M101.845,62.25l0.049-0.819c0.016-0.226,0.031-0.451,0.031-0.681c0-0.23-0.016-0.456-0.031-0.682
					l-0.049-0.818h9.822v3H101.845z"/>
				<path fill="#002856" d="M111.167,59.75v2h-8.793c0.019-0.333,0.05-0.662,0.05-1s-0.032-0.667-0.05-1H111.167 M112.167,58.75h-1
					h-8.793h-1.058l0.06,1.057l0.019,0.296c0.015,0.215,0.03,0.429,0.03,0.647s-0.015,0.433-0.03,0.647l-0.019,0.296l-0.06,1.057
					h1.058h8.793h1v-1v-2V58.75L112.167,58.75z"/>
			</g>
			<g>
				<path fill="#BCD9EA" d="M85.681,43.857c-0.226-0.016-0.452-0.031-0.682-0.031c-0.229,0-0.455,0.016-0.681,0.031L83.5,43.905
					v-9.822h3v9.822L85.681,43.857z"/>
				<path fill="#002856" d="M86,34.583v8.793c-0.333-0.019-0.662-0.05-1-0.05s-0.667,0.032-1,0.05v-8.793H86 M87,33.583h-1h-2h-1v1
					v8.793v1.058l1.057-0.06l0.296-0.019c0.215-0.015,0.429-0.03,0.647-0.03s0.433,0.015,0.647,0.03l0.296,0.019L87,44.434v-1.058
					v-8.793V33.583L87,33.583z"/>
			</g>
			<g>
				<path fill="#BCD9EA" d="M101.574,57.314c-0.119-0.579-0.287-1.192-0.512-1.874l-0.167-0.502l9.474-2.539l0.776,2.898
					l-9.465,2.536L101.574,57.314z"/>
				<path fill="#002856" d="M110.016,53.012l0.518,1.932l-8.47,2.27c-0.136-0.659-0.319-1.3-0.527-1.929L110.016,53.012
					 M110.723,51.787l-0.966,0.259l-8.479,2.272l-1.023,0.274l0.332,1.006c0.219,0.663,0.382,1.257,0.497,1.818l0.214,1.038
					l1.024-0.274l8.47-2.27l0.966-0.259l-0.259-0.966l-0.518-1.932L110.723,51.787L110.723,51.787z"/>
			</g>
			<g>
				<path fill="#BCD9EA" d="M100.107,53.15c-0.319-0.632-0.634-1.183-0.965-1.685l-0.292-0.443l8.495-4.904l1.5,2.599l-8.5,4.907
					L100.107,53.15z"/>
				<path fill="#002856" d="M107.161,46.801l1,1.732l-7.608,4.392c-0.301-0.598-0.628-1.18-0.994-1.736L107.161,46.801
					 M107.527,45.435l-0.866,0.5l-7.602,4.389l-0.918,0.53l0.583,0.886c0.321,0.488,0.627,1.023,0.936,1.636l0.476,0.945
					l0.916-0.529l7.608-4.392l0.866-0.5l-0.5-0.866l-1-1.732L107.527,45.435L107.527,45.435z"/>
			</g>
			<g>
				<path fill="#BCD9EA" d="M65.083,42.954l2.121-2.121l6.943,6.943l-0.395,0.353c-0.482,0.43-0.944,0.892-1.374,1.374l-0.353,0.395
					L65.083,42.954z"/>
				<path fill="#002856" d="M67.204,41.54l6.215,6.215c-0.498,0.444-0.97,0.916-1.414,1.414l-6.215-6.215L67.204,41.54
					 M67.204,40.126l-0.707,0.707l-1.414,1.414l-0.707,0.707l0.707,0.707l6.215,6.215l0.749,0.749l0.705-0.79
					c0.417-0.468,0.866-0.916,1.333-1.333l0.79-0.705l-0.749-0.749l-6.215-6.215L67.204,40.126L67.204,40.126z"/>
			</g>
			<g>
				<path fill="#BCD9EA" d="M87.917,77.432l0.519-0.107c0.58-0.12,1.193-0.288,1.874-0.512l0.502-0.167l2.539,9.474l-2.898,0.776
					L87.917,77.432z"/>
				<path fill="#002856" d="M90.466,77.287l2.272,8.479l-1.932,0.518l-2.27-8.47C89.196,77.678,89.837,77.495,90.466,77.287
					 M91.158,76.005l-1.006,0.332c-0.663,0.219-1.257,0.382-1.818,0.497l-1.038,0.214l0.274,1.024l2.27,8.47l0.259,0.966
					l0.966-0.259l1.932-0.518l0.966-0.259l-0.259-0.966l-2.272-8.479L91.158,76.005L91.158,76.005z"/>
			</g>
			<g>
				<path fill="#BCD9EA" d="M92.127,76.094l0.473-0.238c0.631-0.318,1.183-0.634,1.686-0.965l0.443-0.292l4.904,8.494l-2.599,1.5
					L92.127,76.094z"/>
				<path fill="#002856" d="M94.56,75.309l4.389,7.602l-1.732,1l-4.392-7.608C93.423,76.002,94.005,75.675,94.56,75.309
					 M94.896,73.891l-0.886,0.583c-0.488,0.321-1.023,0.627-1.636,0.936l-0.945,0.476l0.529,0.916l4.392,7.608l0.5,0.866l0.866-0.5
					l1.732-1l0.866-0.5l-0.5-0.866l-4.389-7.602L94.896,73.891L94.896,73.891z"/>
			</g>
			<g>
				<path fill="#BCD9EA" d="M97.621,49.503c-0.43-0.482-0.892-0.944-1.374-1.374l-0.395-0.353l6.943-6.943l2.121,2.121l-6.943,6.943
					L97.621,49.503z"/>
				<path fill="#002856" d="M102.796,41.54l1.414,1.414l-6.215,6.215c-0.444-0.498-0.916-0.97-1.414-1.414L102.796,41.54
					 M102.796,40.126l-0.707,0.707l-6.215,6.215l-0.749,0.749l0.79,0.705c0.468,0.417,0.916,0.866,1.333,1.333l0.705,0.79
					l0.749-0.749l6.215-6.215l0.707-0.707l-0.707-0.707l-1.414-1.414L102.796,40.126L102.796,40.126z"/>
			</g>
			<g>
				<path fill="#BCD9EA" d="M61.156,48.716l1.5-2.599l8.494,4.904l-0.292,0.443c-0.331,0.503-0.646,1.054-0.965,1.686l-0.238,0.473
					L61.156,48.716z"/>
				<path fill="#002856" d="M62.839,46.801l7.602,4.389c-0.366,0.556-0.693,1.138-0.994,1.736l-7.608-4.392L62.839,46.801
					 M62.473,45.435l-0.5,0.866l-1,1.732l-0.5,0.866l0.866,0.5l7.608,4.392l0.916,0.529l0.476-0.945
					c0.309-0.613,0.615-1.148,0.936-1.636l0.583-0.886l-0.918-0.53l-7.602-4.389L62.473,45.435L62.473,45.435z"/>
			</g>
			<g>
				<path fill="#BCD9EA" d="M95.852,73.724l0.395-0.353c0.482-0.43,0.944-0.892,1.374-1.374l0.353-0.395l6.943,6.943l-2.121,2.121
					L95.852,73.724z"/>
				<path fill="#002856" d="M97.994,72.33l6.215,6.215l-1.414,1.414l-6.215-6.215C97.078,73.3,97.55,72.828,97.994,72.33
					 M97.953,70.874l-0.705,0.79c-0.417,0.468-0.866,0.916-1.333,1.333l-0.79,0.705l0.749,0.749l6.215,6.215l0.707,0.707
					l0.707-0.707l1.414-1.414l0.707-0.707l-0.707-0.707l-6.215-6.215L97.953,70.874L97.953,70.874z"/>
			</g>
			<g>
				<path fill="#BCD9EA" d="M98.849,70.478l0.292-0.443c0.331-0.502,0.646-1.053,0.965-1.685l0.238-0.473l8.5,4.907l-1.5,2.598
					L98.849,70.478z"/>
				<path fill="#002856" d="M100.553,68.575l7.608,4.392l-1,1.732l-7.602-4.389C99.925,69.754,100.252,69.173,100.553,68.575
					 M100.137,67.18l-0.476,0.945c-0.309,0.613-0.615,1.148-0.936,1.636l-0.583,0.886l0.918,0.53l7.602,4.389l0.866,0.5l0.5-0.866
					l1-1.732l0.5-0.866l-0.866-0.5l-7.608-4.392L100.137,67.18L100.137,67.18z"/>
			</g>
			<g>
				<path fill="#BCD9EA" d="M100.896,66.562l0.166-0.502c0.225-0.683,0.393-1.295,0.512-1.874l0.107-0.519l9.465,2.536l-0.776,2.898
					L100.896,66.562z"/>
				<path fill="#002856" d="M102.064,64.287l8.47,2.27l-0.518,1.932l-8.479-2.272C101.745,65.587,101.928,64.946,102.064,64.287
					 M101.299,63.047l-0.214,1.038c-0.116,0.56-0.278,1.155-0.497,1.818l-0.332,1.006l1.023,0.274l8.479,2.272l0.966,0.259
					l0.259-0.966l0.518-1.932l0.259-0.966l-0.966-0.259l-8.47-2.27L101.299,63.047L101.299,63.047z"/>
			</g>
			<g>
				<path fill="#BCD9EA" d="M76.649,86.12l2.539-9.474l0.502,0.166c0.682,0.225,1.294,0.393,1.874,0.512l0.519,0.107l-2.536,9.464
					L76.649,86.12z"/>
				<path fill="#002856" d="M79.534,77.287c0.63,0.208,1.27,0.391,1.929,0.527l-2.27,8.47l-1.932-0.518L79.534,77.287
					 M78.842,76.005l-0.274,1.023l-2.272,8.479l-0.259,0.966l0.966,0.259l1.932,0.518l0.966,0.259l0.259-0.966l2.27-8.47
					l0.274-1.024l-1.038-0.214c-0.56-0.116-1.155-0.278-1.818-0.497L78.842,76.005L78.842,76.005z"/>
			</g>
			<g>
				<path fill="#BCD9EA" d="M70.368,83.094l4.904-8.494l0.443,0.292c0.503,0.331,1.054,0.646,1.686,0.965l0.473,0.238l-4.907,8.5
					L70.368,83.094z"/>
				<path fill="#002856" d="M75.44,75.309c0.556,0.366,1.138,0.693,1.736,0.994l-4.392,7.608l-1.732-1L75.44,75.309 M75.104,73.891
					l-0.53,0.918l-4.389,7.602l-0.5,0.866l0.866,0.5l1.732,1l0.866,0.5l0.5-0.866l4.392-7.608l0.529-0.916l-0.945-0.476
					c-0.613-0.309-1.148-0.615-1.636-0.936L75.104,73.891L75.104,73.891z"/>
			</g>
			<g>
				<path fill="#BCD9EA" d="M58.854,55.297l0.776-2.898l9.474,2.539l-0.167,0.502c-0.225,0.681-0.393,1.293-0.512,1.874
					l-0.107,0.519L58.854,55.297z"/>
				<path fill="#002856" d="M59.984,53.012l8.479,2.272c-0.208,0.63-0.391,1.27-0.527,1.929l-8.47-2.27L59.984,53.012
					 M59.277,51.787l-0.259,0.966L58.5,54.685l-0.259,0.966l0.966,0.259l8.47,2.27l1.024,0.274l0.214-1.038
					c0.116-0.56,0.278-1.155,0.497-1.818l0.332-1.006l-1.023-0.274l-8.479-2.272L59.277,51.787L59.277,51.787z"/>
			</g>
			<g>
				<path fill="#BCD9EA" d="M58.854,66.203l9.464-2.536l0.107,0.519c0.12,0.58,0.287,1.192,0.512,1.874l0.166,0.502l-9.474,2.539
					L58.854,66.203z"/>
				<path fill="#002856" d="M67.936,64.287c0.136,0.659,0.319,1.3,0.527,1.929l-8.479,2.272l-0.518-1.932L67.936,64.287
					 M68.701,63.047l-1.024,0.274l-8.47,2.27l-0.966,0.259l0.259,0.966l0.518,1.932l0.259,0.966l0.966-0.259l8.479-2.272
					l1.023-0.274l-0.332-1.006c-0.219-0.663-0.382-1.257-0.497-1.818L68.701,63.047L68.701,63.047z"/>
			</g>
			<g>
				<path fill="#BCD9EA" d="M83.5,87.417v-9.821l0.826,0.048c0.224,0.015,0.447,0.031,0.674,0.031c0.228,0,0.451-0.016,0.675-0.031
					l0.825-0.048v9.821H83.5z"/>
				<path fill="#002856" d="M86,78.124v8.793h-2v-8.793c0.333,0.019,0.662,0.05,1,0.05S85.667,78.143,86,78.124 M87,77.066
					l-1.057,0.06l-0.296,0.019c-0.215,0.015-0.429,0.03-0.647,0.03s-0.433-0.015-0.647-0.03l-0.296-0.019L83,77.066v1.058v8.793v1h1
					h2h1v-1v-8.793V77.066L87,77.066z"/>
			</g>
			<g>
				<path fill="#BCD9EA" d="M61.156,72.784l8.5-4.907l0.238,0.473c0.318,0.631,0.634,1.183,0.965,1.686l0.292,0.443l-8.494,4.904
					L61.156,72.784z"/>
				<path fill="#002856" d="M69.447,68.575c0.301,0.598,0.628,1.18,0.994,1.736l-7.602,4.389l-1-1.732L69.447,68.575 M69.863,67.18
					l-0.916,0.529l-7.608,4.392l-0.866,0.5l0.5,0.866l1,1.732l0.5,0.866l0.866-0.5l7.602-4.389l0.918-0.53l-0.583-0.886
					c-0.321-0.488-0.627-1.023-0.936-1.636L69.863,67.18L69.863,67.18z"/>
			</g>
		</g>
	</g>
	<g display="inline">
		<g>
			<path fill="#BCD9EA" d="M39.609,70.974c-1.435,0-2.602-1.167-2.602-2.602V39.219c0-1.435,1.167-2.602,2.602-2.602h23.178
				c1.435,0,2.602,1.167,2.602,2.602v29.153c0,1.435-1.167,2.602-2.602,2.602H39.609z"/>
			<path fill="#002856" d="M62.788,37.118c1.161,0,2.102,0.941,2.102,2.102v29.153c0,1.161-0.941,2.102-2.102,2.102H39.609
				c-1.161,0-2.102-0.941-2.102-2.102V39.22c0-1.161,0.941-2.102,2.102-2.102H62.788 M62.788,36.118H39.609
				c-1.71,0-3.102,1.392-3.102,3.102v29.153c0,1.71,1.391,3.102,3.102,3.102h23.179c1.71,0,3.102-1.392,3.102-3.102V39.22
				C65.89,37.509,64.498,36.118,62.788,36.118L62.788,36.118z"/>
		</g>
		<g>
			<rect x="39.273" y="38.719" fill="#002856" width="12.648" height="12.648"/>
			<path fill="#BCD9EA" d="M51.421,39.22v11.648H39.773V39.22H51.421 M52.421,38.22h-1H39.773h-1v1v11.648v1h1h11.648h1v-1V39.22
				V38.22L52.421,38.22z"/>
		</g>
		<g>
			<path fill="#BCD9EA" d="M44.189,41.351l1.2-0.198v1.567h1.844v1.002h-1.844v2.112c0,0.417,0.066,0.714,0.198,0.893
				c0.133,0.178,0.357,0.268,0.675,0.268c0.218,0,0.411-0.023,0.58-0.069c0.169-0.046,0.303-0.089,0.402-0.129l0.198,0.952
				c-0.139,0.059-0.321,0.121-0.545,0.183s-0.489,0.094-0.794,0.094c-0.37,0-0.679-0.05-0.927-0.149
				c-0.248-0.099-0.444-0.243-0.59-0.432c-0.146-0.188-0.248-0.416-0.308-0.684c-0.06-0.268-0.09-0.574-0.09-0.917V41.351z"/>
		</g>
	</g>
	<g display="inline">
		<g>
			<path fill="#BCD9EA" d="M70.468,95.308c-4.164,0-8.006-1.89-10.541-5.185c-3.453-4.486-4.916-19.35-5.385-25.532
				c-0.051-0.676,0.173-1.319,0.63-1.813c0.455-0.491,1.097-0.773,1.76-0.773c0.269,0,0.536,0.046,0.794,0.136
				c5.855,2.037,19.848,7.258,23.301,11.747c4.06,5.277,3.571,12.807-1.137,17.515l-0.385,0.385L60.831,69.587l16.667,23.726
				l-0.48,0.271C75.026,94.712,72.761,95.308,70.468,95.308z"/>
			<path fill="#002856" d="M56.932,62.505c0.207,0,0.419,0.034,0.63,0.108c5.912,2.057,19.704,7.207,23.069,11.579
				c3.97,5.159,3.39,12.374-1.094,16.856L57.201,64.496l-0.362,0.279L76.771,93.15c-1.969,1.115-4.143,1.658-6.303,1.658
				c-3.834,0-7.625-1.714-10.145-4.989c-3.365-4.373-4.81-19.023-5.283-25.265C54.954,63.409,55.871,62.505,56.932,62.505
				 M56.932,61.505c-0.802,0-1.577,0.34-2.127,0.933c-0.553,0.597-0.824,1.375-0.762,2.191c0.586,7.734,2.079,21.37,5.487,25.799
				c2.631,3.419,6.617,5.379,10.937,5.379c2.379,0,4.729-0.618,6.795-1.788l0.959-0.543l-0.634-0.902l-9.744-13.872l10.927,12.99
				l0.702,0.834l0.771-0.77c4.886-4.885,5.393-12.697,1.18-18.173c-3.408-4.429-16.207-9.366-23.533-11.914
				C57.58,61.56,57.257,61.505,56.932,61.505L56.932,61.505z"/>
		</g>
		<g>
			<path fill="#BCD9EA" d="M76.771,93.15l3.883,5.527l3.218-2.476l-4.334-5.152c-0.39,0.39-0.798,0.766-1.246,1.111
				C77.803,92.535,77.291,92.855,76.771,93.15z"/>
		</g>
	</g>
</g>
<g id="icoon__x23_0_kopie_8">
	<path fill="#002856" d="M57.136,111.145c-3.199,0-7.127-2.267-8.727-5.039L29.681,73.668c-1.6-2.771-1.6-7.306,0-10.077
		l18.728-32.439c1.6-2.771,5.528-5.038,8.727-5.038h37.458c3.2,0,7.127,2.267,8.727,5.039l18.728,32.439
		c1.6,2.771,1.6,7.306,0,10.077l-18.728,32.439c-1.6,2.771-5.527,5.039-8.727,5.039H57.136z"/>
	<path fill="none" stroke="#002856" stroke-miterlimit="10" d="M62,87.25c0,0-0.5-1.75,0.25-3.25s1.25-2.75-0.5-4.25
		s-2.75-1.5-3.5-3.25s-1.5-2.75-1.5-3.75s-0.5-2.75-1.25-3s-2.26-1.121-2.26-1.121S52,70.75,52.5,73s2.25,8.25,3,9.75
		S62,87.25,62,87.25z"/>
	<path fill="none" stroke="#002856" stroke-miterlimit="10" d="M55.75,57c0.75,0,3.25-1,3.75,0.25s1.25,3.75,3.75,1.5s4-1.75,3.75-4
		s-0.25-3.25,1.75-4s3.75-2,3-3.25s-1.5-2.25-2.75-2.25S59.75,50,59.75,50L55.75,57z"/>
	<rect x="49.917" y="44.365" fill="#BCD9EA" stroke="#002856" stroke-miterlimit="10" width="53.333" height="47.968"/>
	<path fill="none" stroke="#002856" stroke-width="4" stroke-miterlimit="10" d="M92,69.083"/>
	<path fill="none" stroke="#002856" stroke-width="4" stroke-miterlimit="10" d="M91.333,79.417"/>
	<g>
		<path fill="#002856" d="M51.78,69.275c1.161-0.46,2.328-1.052,3.5-1.773s2.21-1.573,3.111-2.554h2.555v20.827h-3.637V69.816
			c-0.541,0.421-1.222,0.832-2.043,1.233s-1.612,0.731-2.374,0.991L51.78,69.275z"/>
		<path fill="#002856" d="M80.601,70.357c0,0.721-0.15,1.427-0.451,2.119c-0.301,0.692-0.686,1.363-1.157,2.014
			c-0.471,0.651-1.007,1.282-1.607,1.893c-0.602,0.612-1.203,1.207-1.803,1.788c-0.321,0.3-0.682,0.661-1.082,1.081
			c-0.402,0.421-0.781,0.842-1.143,1.263c-0.36,0.42-0.671,0.826-0.932,1.217c-0.26,0.391-0.4,0.716-0.42,0.977h9.256v3.065H68.008
			c-0.02-0.16-0.031-0.356-0.031-0.586s0-0.405,0-0.526c0-0.962,0.156-1.849,0.466-2.66c0.312-0.812,0.717-1.567,1.218-2.269
			c0.501-0.702,1.062-1.363,1.682-1.984c0.622-0.621,1.244-1.233,1.864-1.833c0.481-0.46,0.943-0.912,1.383-1.352
			c0.44-0.441,0.825-0.877,1.157-1.308c0.33-0.43,0.596-0.871,0.796-1.323c0.2-0.45,0.301-0.916,0.301-1.397
			c0-1.042-0.301-1.783-0.902-2.224c-0.6-0.44-1.332-0.661-2.194-0.661c-0.561,0-1.082,0.08-1.563,0.24
			c-0.481,0.16-0.906,0.351-1.277,0.571c-0.371,0.22-0.697,0.446-0.978,0.676s-0.49,0.416-0.631,0.556l-1.803-2.554
			c0.842-0.802,1.829-1.447,2.961-1.939c1.132-0.491,2.35-0.736,3.652-0.736c2.223,0,3.861,0.526,4.914,1.578
			C80.074,67.097,80.601,68.534,80.601,70.357z"/>
		<path fill="#002856" d="M98.843,80.185c0,0.862-0.15,1.664-0.451,2.405c-0.301,0.741-0.752,1.382-1.352,1.923
			c-0.602,0.541-1.348,0.961-2.24,1.262c-0.891,0.301-1.919,0.451-3.08,0.451c-1.363,0-2.495-0.191-3.397-0.571
			c-0.901-0.381-1.622-0.861-2.163-1.443c-0.541-0.581-0.928-1.207-1.157-1.878c-0.231-0.671-0.347-1.307-0.347-1.909
			c0-0.601,0.086-1.157,0.257-1.667c0.169-0.511,0.405-0.981,0.706-1.412c0.301-0.431,0.64-0.827,1.022-1.188
			c0.38-0.36,0.781-0.681,1.201-0.961c-0.921-0.641-1.607-1.338-2.058-2.089c-0.451-0.751-0.677-1.667-0.677-2.75
			c0-0.781,0.156-1.528,0.466-2.239c0.31-0.711,0.756-1.337,1.337-1.878c0.581-0.541,1.282-0.972,2.104-1.292
			c0.822-0.32,1.733-0.482,2.735-0.482c1.181,0,2.188,0.171,3.021,0.512c0.831,0.34,1.511,0.781,2.043,1.322
			c0.53,0.541,0.915,1.143,1.157,1.803c0.24,0.661,0.36,1.303,0.36,1.924c0,1.102-0.301,2.078-0.901,2.929
			c-0.602,0.852-1.293,1.528-2.075,2.029c1.181,0.642,2.058,1.383,2.63,2.224C98.557,78.051,98.843,79.043,98.843,80.185z
			 M88.234,80.366c0,0.3,0.061,0.621,0.18,0.961c0.121,0.341,0.321,0.651,0.602,0.932c0.281,0.281,0.642,0.516,1.082,0.706
			c0.44,0.191,0.992,0.285,1.653,0.285c0.602,0,1.123-0.08,1.563-0.24c0.44-0.16,0.802-0.375,1.082-0.646
			c0.281-0.271,0.49-0.581,0.631-0.932c0.139-0.35,0.211-0.706,0.211-1.067c0-0.561-0.112-1.052-0.332-1.473
			c-0.22-0.421-0.536-0.786-0.947-1.097c-0.411-0.31-0.897-0.581-1.456-0.812c-0.561-0.23-1.183-0.436-1.864-0.615
			c-0.721,0.46-1.302,1.017-1.743,1.667C88.454,78.687,88.234,79.464,88.234,80.366z M94.786,70.087c0-0.26-0.055-0.546-0.165-0.857
			c-0.11-0.31-0.292-0.596-0.541-0.857c-0.251-0.26-0.567-0.481-0.947-0.661c-0.382-0.18-0.842-0.27-1.383-0.27
			s-1.007,0.085-1.398,0.255c-0.391,0.171-0.706,0.391-0.947,0.661s-0.42,0.561-0.541,0.871c-0.119,0.311-0.18,0.616-0.18,0.917
			c0,0.761,0.286,1.483,0.857,2.164c0.57,0.681,1.528,1.223,2.871,1.622c0.739-0.46,1.321-0.986,1.743-1.578
			C94.575,71.765,94.786,71.009,94.786,70.087z"/>
	</g>
	
		<rect x="96.062" y="35.853" transform="matrix(0.7071 -0.7071 0.7071 0.7071 -5.2139 84.5357)" fill="#BCD9EA" stroke="#002856" stroke-miterlimit="10" width="6.75" height="25.417"/>
	
		<rect x="52.93" y="32.505" transform="matrix(-0.398 -0.9174 0.9174 -0.398 35.3642 117.7096)" fill="#BCD9EA" stroke="#002856" stroke-miterlimit="10" width="6.75" height="29.491"/>
	<g>
		<path fill="#002856" d="M72.064,51.078c-0.764,0-1.347,0.237-1.749,0.712c-0.404,0.475-0.605,1.133-0.605,1.974
			c0,0.399,0.048,0.765,0.144,1.097c0.096,0.332,0.239,0.615,0.428,0.851c0.189,0.235,0.425,0.419,0.707,0.551
			c0.282,0.132,0.611,0.198,0.99,0.198c0.236,0,0.439-0.009,0.61-0.027c0.171-0.018,0.307-0.041,0.407-0.07V53.7h1.348v3.564
			c-0.185,0.071-0.5,0.15-0.942,0.235c-0.442,0.086-0.952,0.128-1.53,0.128c-0.535,0-1.023-0.086-1.466-0.257
			c-0.443-0.171-0.819-0.421-1.129-0.749c-0.31-0.328-0.551-0.731-0.722-1.209s-0.257-1.027-0.257-1.648
			c0-0.621,0.095-1.17,0.283-1.648c0.189-0.478,0.448-0.883,0.776-1.215c0.328-0.332,0.713-0.583,1.156-0.754
			c0.442-0.171,0.913-0.257,1.412-0.257c0.343,0,0.648,0.024,0.915,0.07c0.268,0.047,0.498,0.098,0.69,0.155
			c0.193,0.057,0.351,0.118,0.476,0.182c0.125,0.064,0.212,0.111,0.262,0.139l-0.406,1.102c-0.214-0.128-0.48-0.237-0.797-0.327
			C72.747,51.122,72.413,51.078,72.064,51.078z"/>
		<path fill="#002856" d="M82.797,53.764c0,0.635-0.095,1.195-0.283,1.68c-0.189,0.485-0.446,0.89-0.771,1.215
			c-0.325,0.325-0.704,0.569-1.14,0.733c-0.435,0.164-0.899,0.246-1.391,0.246c-0.492,0-0.958-0.082-1.397-0.246
			c-0.438-0.164-0.82-0.408-1.145-0.733c-0.325-0.325-0.583-0.729-0.776-1.215c-0.192-0.485-0.289-1.045-0.289-1.68
			c0-0.635,0.097-1.193,0.289-1.675c0.193-0.481,0.455-0.886,0.787-1.215c0.332-0.328,0.715-0.574,1.15-0.738
			c0.435-0.164,0.895-0.246,1.381-0.246c0.485,0,0.945,0.082,1.38,0.246c0.435,0.164,0.815,0.41,1.14,0.738
			c0.325,0.328,0.583,0.733,0.776,1.215C82.701,52.571,82.797,53.129,82.797,53.764z M77.007,53.764c0,0.407,0.05,0.776,0.15,1.107
			c0.1,0.332,0.244,0.614,0.433,0.845c0.189,0.232,0.419,0.412,0.69,0.54c0.271,0.129,0.578,0.193,0.92,0.193
			c0.335,0,0.639-0.064,0.91-0.193c0.271-0.128,0.501-0.308,0.69-0.54c0.189-0.232,0.333-0.514,0.433-0.845
			c0.1-0.332,0.15-0.701,0.15-1.107c0-0.407-0.05-0.776-0.15-1.108c-0.1-0.332-0.244-0.614-0.433-0.845
			c-0.189-0.232-0.419-0.412-0.69-0.54c-0.271-0.129-0.575-0.193-0.91-0.193c-0.342,0-0.649,0.064-0.92,0.193
			c-0.271,0.128-0.501,0.31-0.69,0.546c-0.189,0.235-0.333,0.517-0.433,0.845C77.057,52.99,77.007,53.357,77.007,53.764z"/>
		<path fill="#002856" d="M85.75,56.771c0,0.25-0.082,0.453-0.246,0.61c-0.165,0.157-0.368,0.235-0.61,0.235
			c-0.236,0-0.437-0.079-0.605-0.235c-0.168-0.157-0.251-0.36-0.251-0.61c0-0.249,0.084-0.455,0.251-0.615
			c0.168-0.16,0.369-0.241,0.605-0.241c0.242,0,0.445,0.08,0.61,0.241C85.668,56.316,85.75,56.521,85.75,56.771z M85.59,52.052
			c0,0.592-0.022,1.134-0.065,1.626c-0.042,0.492-0.096,0.988-0.16,1.488h-0.92c-0.072-0.499-0.129-0.997-0.172-1.493
			c-0.042-0.496-0.064-1.036-0.064-1.621v-1.99h1.381V52.052z"/>
	</g>
</g>
<g id="icoon__x23_0_kopie_5" display="none">
	<path display="inline" fill="#002856" d="M57.136,111.145c-3.199,0-7.127-2.267-8.727-5.039L29.681,73.668
		c-1.6-2.771-1.6-7.306,0-10.077l18.728-32.439c1.6-2.771,5.528-5.038,8.727-5.038h37.458c3.2,0,7.127,2.267,8.727,5.039
		l18.728,32.439c1.6,2.771,1.6,7.306,0,10.077l-18.728,32.439c-1.6,2.771-5.527,5.039-8.727,5.039H57.136z"/>
</g>
</svg>
