<?xml version="1.0" encoding="utf-8"?>
<!-- Generator: Adobe Illustrator 21.0.2, SVG Export Plug-In . SVG Version: 6.00 Build 0)  -->
<svg version="1.1" id="Layer_1" xmlns="http://www.w3.org/2000/svg" xmlns:xlink="http://www.w3.org/1999/xlink" x="0px" y="0px"
	 viewBox="0 0 186.5 165.7" style="enable-background:new 0 0 186.5 165.7;" xml:space="preserve">
<style type="text/css">
	.st0{fill:none;stroke:#808285;stroke-width:0.25;stroke-miterlimit:10;}
	.st1{fill:none;stroke:#808285;stroke-width:0.25;stroke-miterlimit:10;stroke-dasharray:1.9931,1.9931;}
	.st2{fill:#002856;}
</style>
<g>
	<g>
		<polyline class="st0" points="47.3,165.7 46.3,165.7 45.8,164.8 		"/>
		<line class="st1" x1="44.8" y1="163.1" x2="-0.5" y2="84.6"/>
		<polyline class="st0" points="-1,83.7 -1.5,82.9 -1,82 		"/>
		<line class="st1" x1="0" y1="80.3" x2="45.3" y2="1.7"/>
		<polyline class="st0" points="45.8,0.9 46.3,0 47.3,0 		"/>
		<line class="st1" x1="49.3" y1="0" x2="140" y2="0"/>
		<polyline class="st0" points="141,0 142,0 142.5,0.9 		"/>
		<line class="st1" x1="143.5" y1="2.6" x2="188.9" y2="81.1"/>
		<polyline class="st0" points="189.4,82 189.9,82.9 189.4,83.7 		"/>
		<line class="st1" x1="188.4" y1="85.5" x2="143" y2="164"/>
		<polyline class="st0" points="142.5,164.8 142,165.7 141,165.7 		"/>
		<line class="st1" x1="139" y1="165.7" x2="48.3" y2="165.7"/>
	</g>
</g>
<g>
	<path class="st2" d="M184.2,73L147.7,9.8c-3.1-5.4-10.8-9.8-17-9.8h-73c-6.2,0-13.9,4.4-17,9.8L4.2,73c-3.1,5.4-3.1,14.2,0,19.6
		l36.5,63.2c3.1,5.4,10.8,9.8,17,9.8h73c6.2,0,13.9-4.4,17-9.8l36.5-63.2C187.3,87.3,187.3,78.4,184.2,73z M173.9,89.9l-33.7,58.4
		c-2.7,4.7-6.8,7.1-12.2,7.1c-5.3,0-17.8-11.3-24-17.3c-2.8,2.3-6.4,3.7-10.3,3.7c-9.1,0-16.4-7.4-16.4-16.4
		c0-9.1,7.4-16.4,16.4-16.4c9.1,0,16.4,7.4,16.4,16.4c0,3-0.8,5.9-2.3,8.3c7.9,7.6,17.7,15.6,20.2,15.9c3.3,0,5.4-1.2,7.1-4.1l30-52
		c-2.1,0.8-4.7,0-5.9-2l-20.6-35.2c-1.3-2.3-0.6-5.2,1.7-6.5l4.8-2.8c1.7-1,3.8-0.8,5.3,0.3l-15.4-26.7c-1.2-2.1-4.6-4.1-7.1-4.1
		H60.5c-2.5,0-5.9,2-7.1,4.1L38.3,46.5c1.4-0.6,3-0.6,4.4,0.2l4.8,2.8c2.3,1.3,3,4.3,1.7,6.5L28.7,91.3c-1.3,2.3-4.3,3-6.5,1.7
		l-4.8-2.8c-2.3-1.3-3-4.3-1.7-6.5l1.1-1.8l-3-4.4l34.6-60c2.3-4,7.6-7.1,12.2-7.1H128c4.6,0,9.9,3.1,12.2,7.1l33.7,58.4
		C176.2,79.8,176.2,86,173.9,89.9z"/>
	<path class="st2" d="M93.6,114.8c-5.8,0-10.5,4.7-10.5,10.5c0,5.8,4.7,10.5,10.5,10.5s10.5-4.7,10.5-10.5
		C104.2,119.5,99.4,114.8,93.6,114.8z"/>
</g>
</svg>
