<?xml version="1.0" encoding="utf-8"?>
<!-- Generator: Adobe Illustrator 21.0.2, SVG Export Plug-In . SVG Version: 6.00 Build 0)  -->
<svg version="1.1" id="Layer_1" xmlns="http://www.w3.org/2000/svg" xmlns:xlink="http://www.w3.org/1999/xlink" x="0px" y="0px"
	 viewBox="0 0 184.7 165.7" style="enable-background:new 0 0 184.7 165.7;" xml:space="preserve">
<style type="text/css">
	.st0{fill:#BCD9EA;}
	.st1{fill:none;stroke:#808285;stroke-width:0.25;stroke-miterlimit:10;}
	.st2{fill:none;stroke:#808285;stroke-width:0.25;stroke-miterlimit:10;stroke-dasharray:1.9931,1.9931;}
	.st3{fill:#002856;}
	.st4{fill:none;stroke:#002856;stroke-width:7;stroke-miterlimit:10;}
	.st5{fill:none;stroke:#808285;stroke-width:0.25;stroke-miterlimit:10;stroke-dasharray:2;}
	.st6{filter:url(#Adobe_OpacityMaskFilter);}
	.st7{opacity:0.1;mask:url(#SVGID_1_);}
	.st8{fill:none;stroke:#BCD9EA;stroke-miterlimit:10;}
	.st9{fill:none;}
	.st10{fill:#FFFFFF;}
</style>
<path class="st0" d="M31.2,2330.7c-6.2,0-13.9-4.4-17-9.8L-45.2,2218c-3.1-5.4-3.1-14.2,0-19.6l59.4-102.8c3.1-5.4,10.8-9.8,17-9.8
	h118.8c6.2,0,13.9,4.4,17,9.8l59.4,102.8c3.1,5.4,3.1,14.2,0,19.6l-59.4,102.8c-3.1,5.4-10.8,9.8-17,9.8H31.2z"/>
<path class="st0" d="M31.2,508.8c-6.2,0-13.9-4.4-17-9.8l-59.4-102.8c-3.1-5.4-3.1-14.2,0-19.6l59.4-102.8c3.1-5.4,10.8-9.8,17-9.8
	h118.8c6.2,0,13.9,4.4,17,9.8l59.4,102.8c3.1,5.4,3.1,14.2,0,19.6L166.9,499c-3.1,5.4-10.8,9.8-17,9.8L31.2,508.8L31.2,508.8z"/>
<path class="st0" d="M31.2-1615.4c-6.2,0-13.9-4.4-17-9.8l-59.4-102.8c-3.1-5.4-3.1-14.2,0-19.6l59.4-102.8c3.1-5.4,10.8-9.8,17-9.8
	h118.8c6.2,0,13.9,4.4,17,9.8l59.4,102.8c3.1,5.4,3.1,14.2,0,19.6l-59.4,102.8c-3.1,5.4-10.8,9.8-17,9.8L31.2-1615.4L31.2-1615.4z"
	/>
<path class="st0" d="M31.2-1008.5c-6.2,0-13.9-4.4-17-9.8l-59.4-102.8c-3.1-5.4-3.1-14.2,0-19.6l59.4-102.8c3.1-5.4,10.8-9.8,17-9.8
	h118.8c6.2,0,13.9,4.4,17,9.8l59.4,102.8c3.1,5.4,3.1,14.2,0,19.6l-59.4,102.8c-3.1,5.4-10.8,9.8-17,9.8H31.2z"/>
<path class="st0" d="M31.2-1918.9c-6.2,0-13.9-4.4-17-9.8l-59.4-102.8c-3.1-5.4-3.1-14.2,0-19.6L14.2-2154c3.1-5.4,10.8-9.8,17-9.8
	h118.8c6.2,0,13.9,4.4,17,9.8l59.4,102.8c3.1,5.4,3.1,14.2,0,19.6l-59.4,102.8c-3.1,5.4-10.8,9.8-17,9.8L31.2-1918.9L31.2-1918.9z"
	/>
<path class="st0" d="M31.2-1312c-6.2,0-13.9-4.4-17-9.8l-59.4-102.8c-3.1-5.4-3.1-14.2,0-19.6l59.4-102.8c3.1-5.4,10.8-9.8,17-9.8
	h118.8c6.2,0,13.9,4.4,17,9.8l59.4,102.8c3.1,5.4,3.1,14.2,0,19.6l-59.4,102.8c-3.1,5.4-10.8,9.8-17,9.8L31.2-1312L31.2-1312z"/>
<g>
	<g>
		<polyline class="st1" points="43.7,-1351.6 42.7,-1351.6 42.2,-1352.4 		"/>
		<line class="st2" x1="41.2" y1="-1354.2" x2="-4.1" y2="-1432.7"/>
		<polyline class="st1" points="-4.6,-1433.6 -5.1,-1434.4 -4.6,-1435.3 		"/>
		<line class="st2" x1="-3.6" y1="-1437" x2="41.7" y2="-1515.6"/>
		<polyline class="st1" points="42.2,-1516.4 42.7,-1517.3 43.7,-1517.3 		"/>
		<line class="st2" x1="45.7" y1="-1517.3" x2="136.4" y2="-1517.3"/>
		<polyline class="st1" points="137.4,-1517.3 138.4,-1517.3 138.9,-1516.4 		"/>
		<line class="st2" x1="139.9" y1="-1514.7" x2="185.2" y2="-1436.2"/>
		<polyline class="st1" points="185.7,-1435.3 186.2,-1434.4 185.7,-1433.6 		"/>
		<line class="st2" x1="184.7" y1="-1431.8" x2="139.4" y2="-1353.3"/>
		<polyline class="st1" points="138.9,-1352.4 138.4,-1351.6 137.4,-1351.6 		"/>
		<line class="st2" x1="135.4" y1="-1351.6" x2="44.7" y2="-1351.6"/>
	</g>
</g>
<path class="st0" d="M-282.8-1310.7c-6.2,0-13.9-4.4-17-9.8l-59.4-102.8c-3.1-5.4-3.1-14.2,0-19.6l59.4-102.8
	c3.1-5.4,10.8-9.8,17-9.8H-164c6.2,0,13.9,4.4,17,9.8l59.4,102.8c3.1,5.4,3.1,14.2,0,19.6l-59.4,102.8c-3.1,5.4-10.8,9.8-17,9.8
	H-282.8z"/>
<path class="st3" d="M-344.9-1518.3c-6.2,0-13.9-4.4-17-9.8l-36.5-63.2c-3.1-5.4-3.1-14.2,0-19.6l36.5-63.2c3.1-5.4,10.8-9.8,17-9.8
	h73c6.2,0,13.9,4.4,17,9.8l36.5,63.2c3.1,5.4,3.1,14.2,0,19.6l-36.5,63.2c-3.1,5.4-10.8,9.8-17,9.8L-344.9-1518.3L-344.9-1518.3z"/>
<path class="st0" d="M31.2-705c-6.2,0-13.9-4.4-17-9.8l-59.4-102.8c-3.1-5.4-3.1-14.2,0-19.6l59.4-102.8c3.1-5.4,10.8-9.8,17-9.8
	h118.8c6.2,0,13.9,4.4,17,9.8l59.4,102.8c3.1,5.4,3.1,14.2,0,19.6l-59.4,102.8c-3.1,5.4-10.8,9.8-17,9.8L31.2-705L31.2-705z"/>
<path class="st0" d="M31.2-401.6c-6.2,0-13.9-4.4-17-9.8l-59.4-102.8c-3.1-5.4-3.1-14.2,0-19.6l59.4-102.8c3.1-5.4,10.8-9.8,17-9.8
	h118.8c6.2,0,13.9,4.4,17,9.8l59.4,102.8c3.1,5.4,3.1,14.2,0,19.6l-59.4,102.8c-3.1,5.4-10.8,9.8-17,9.8L31.2-401.6L31.2-401.6z"/>
<g>
	<g>
		<polyline class="st1" points="43.7,-441.2 42.7,-441.2 42.2,-442.1 		"/>
		<line class="st2" x1="41.2" y1="-443.8" x2="-4.1" y2="-522.3"/>
		<polyline class="st1" points="-4.6,-523.2 -5.1,-524.1 -4.6,-524.9 		"/>
		<line class="st2" x1="-3.6" y1="-526.7" x2="41.7" y2="-605.2"/>
		<polyline class="st1" points="42.2,-606.1 42.7,-606.9 43.7,-606.9 		"/>
		<line class="st2" x1="45.7" y1="-606.9" x2="136.4" y2="-606.9"/>
		<polyline class="st1" points="137.4,-606.9 138.4,-606.9 138.9,-606.1 		"/>
		<line class="st2" x1="139.9" y1="-604.3" x2="185.2" y2="-525.8"/>
		<polyline class="st1" points="185.7,-524.9 186.2,-524.1 185.7,-523.2 		"/>
		<line class="st2" x1="184.7" y1="-521.5" x2="139.4" y2="-442.9"/>
		<polyline class="st1" points="138.9,-442.1 138.4,-441.2 137.4,-441.2 		"/>
		<line class="st2" x1="135.4" y1="-441.2" x2="44.7" y2="-441.2"/>
	</g>
</g>
<path class="st0" d="M31.2-98.1c-6.2,0-13.9-4.4-17-9.8l-59.4-102.8c-3.1-5.4-3.1-14.2,0-19.6l59.4-102.8c3.1-5.4,10.8-9.8,17-9.8
	h118.8c6.2,0,13.9,4.4,17,9.8l59.4,102.8c3.1,5.4,3.1,14.2,0,19.6l-59.4,102.8c-3.1,5.4-10.8,9.8-17,9.8H31.2z"/>
<path class="st0" d="M-284.8,508.8c-6.2,0-13.9-4.4-17-9.8l-59.4-102.8c-3.1-5.4-3.1-14.2,0-19.6l59.4-102.8
	c3.1-5.4,10.8-9.8,17-9.8h118.8c6.2,0,13.9,4.4,17,9.8l59.4,102.8c3.1,5.4,3.1,14.2,0,19.6L-149.1,499c-3.1,5.4-10.8,9.8-17,9.8
	L-284.8,508.8L-284.8,508.8z"/>
<path class="st0" d="M-730.4,63.2c-6.2,0-13.9-4.4-17-9.8l-59.4-102.8c-3.1-5.4-3.1-14.2,0-19.6l59.4-102.8c3.1-5.4,10.8-9.8,17-9.8
	h118.8c6.2,0,13.9,4.4,17,9.8l59.4,102.8c3.1,5.4,3.1,14.2,0,19.6l-59.4,102.8c-3.1,5.4-10.8,9.8-17,9.8H-730.4z"/>
<path class="st0" d="M-284.8,205.3c-6.2,0-13.9-4.4-17-9.8l-59.4-102.8c-3.1-5.4-3.1-14.2,0-19.6l59.4-102.8
	c3.1-5.4,10.8-9.8,17-9.8h118.8c6.2,0,13.9,4.4,17,9.8L-89.7,73c3.1,5.4,3.1,14.2,0,19.6l-59.4,102.8c-3.1,5.4-10.8,9.8-17,9.8
	H-284.8z"/>
<path class="st0" d="M-648,812.3c-6.2,0-13.9-4.4-17-9.8l-59.4-102.8c-3.1-5.4-3.1-14.2,0-19.6l59.4-102.8c3.1-5.4,10.8-9.8,17-9.8
	h118.8c6.2,0,13.9,4.4,17,9.8l59.4,102.8c3.1,5.4,3.1,14.2,0,19.6l-59.4,102.8c-3.1,5.4-10.8,9.8-17,9.8H-648z"/>
<path class="st0" d="M31.2,812.3c-6.2,0-13.9-4.4-17-9.8l-59.4-102.8c-3.1-5.4-3.1-14.2,0-19.6l59.4-102.8c3.1-5.4,10.8-9.8,17-9.8
	h118.8c6.2,0,13.9,4.4,17,9.8L226.3,680c3.1,5.4,3.1,14.2,0,19.6l-59.4,102.8c-3.1,5.4-10.8,9.8-17,9.8H31.2z"/>
<path class="st0" d="M31.2,1115.7c-6.2,0-13.9-4.4-17-9.8l-59.4-102.8c-3.1-5.4-3.1-14.2,0-19.6l59.4-102.8c3.1-5.4,10.8-9.8,17-9.8
	h118.8c6.2,0,13.9,4.4,17,9.8l59.4,102.8c3.1,5.4,3.1,14.2,0,19.6l-59.4,102.8c-3.1,5.4-10.8,9.8-17,9.8L31.2,1115.7L31.2,1115.7z"
	/>
<g>
	<g>
		<polyline class="st1" points="43.7,1076.1 42.7,1076.1 42.2,1075.2 		"/>
		<line class="st2" x1="41.2" y1="1073.5" x2="-4.1" y2="995"/>
		<polyline class="st1" points="-4.6,994.1 -5.1,993.2 -4.6,992.4 		"/>
		<line class="st2" x1="-3.6" y1="990.6" x2="41.7" y2="912.1"/>
		<polyline class="st1" points="42.2,911.2 42.7,910.4 43.7,910.4 		"/>
		<line class="st2" x1="45.7" y1="910.4" x2="136.4" y2="910.4"/>
		<polyline class="st1" points="137.4,910.4 138.4,910.4 138.9,911.2 		"/>
		<line class="st2" x1="139.9" y1="913" x2="185.2" y2="991.5"/>
		<polyline class="st1" points="185.7,992.4 186.2,993.2 185.7,994.1 		"/>
		<line class="st2" x1="184.7" y1="995.8" x2="139.4" y2="1074.4"/>
		<polyline class="st1" points="138.9,1075.2 138.4,1076.1 137.4,1076.1 		"/>
		<line class="st2" x1="135.4" y1="1076.1" x2="44.7" y2="1076.1"/>
	</g>
</g>
<path class="st0" d="M31.2,1419.2c-6.2,0-13.9-4.4-17-9.8l-59.4-102.8c-3.1-5.4-3.1-14.2,0-19.6L14.1,1184c3.1-5.4,10.8-9.8,17-9.8
	h118.8c6.2,0,13.9,4.4,17,9.8l59.4,102.8c3.1,5.4,3.1,14.2,0,19.6l-59.4,102.8c-3.1,5.4-10.8,9.8-17,9.8L31.2,1419.2L31.2,1419.2z"
	/>
<g>
	<g>
		<polyline class="st1" points="43.7,1379.6 42.7,1379.6 42.2,1378.7 		"/>
		<line class="st2" x1="41.2" y1="1377" x2="-4.1" y2="1298.4"/>
		<polyline class="st1" points="-4.6,1297.6 -5.1,1296.7 -4.6,1295.8 		"/>
		<line class="st2" x1="-3.6" y1="1294.1" x2="41.7" y2="1215.6"/>
		<polyline class="st1" points="42.2,1214.7 42.7,1213.8 43.7,1213.8 		"/>
		<line class="st2" x1="45.7" y1="1213.8" x2="136.4" y2="1213.8"/>
		<polyline class="st1" points="137.4,1213.8 138.4,1213.8 138.9,1214.7 		"/>
		<line class="st2" x1="139.9" y1="1216.4" x2="185.2" y2="1295"/>
		<polyline class="st1" points="185.7,1295.8 186.2,1296.7 185.7,1297.6 		"/>
		<line class="st2" x1="184.7" y1="1299.3" x2="139.4" y2="1377.8"/>
		<polyline class="st1" points="138.9,1378.7 138.4,1379.6 137.4,1379.6 		"/>
		<line class="st2" x1="135.4" y1="1379.6" x2="44.7" y2="1379.6"/>
	</g>
</g>
<path class="st0" d="M31.2,1722.6c-6.2,0-13.9-4.4-17-9.8L-45.2,1610c-3.1-5.4-3.1-14.2,0-19.6l59.4-102.8c3.1-5.4,10.8-9.8,17-9.8
	h118.8c6.2,0,13.9,4.4,17,9.8l59.4,102.8c3.1,5.4,3.1,14.2,0,19.6l-59.4,102.8c-3.1,5.4-10.8,9.8-17,9.8H31.2z"/>
<path class="st0" d="M31.2,2026.1c-6.2,0-13.9-4.4-17-9.8l-59.4-102.8c-3.1-5.4-3.1-14.2,0-19.6l59.4-102.8c3.1-5.4,10.8-9.8,17-9.8
	h118.8c6.2,0,13.9,4.4,17,9.8l59.4,102.8c3.1,5.4,3.1,14.2,0,19.6l-59.4,102.8c-3.1,5.4-10.8,9.8-17,9.8H31.2z"/>
<g>
	<g>
		<polyline class="st1" points="43.7,1986.5 42.7,1986.5 42.2,1985.6 		"/>
		<line class="st2" x1="41.2" y1="1983.9" x2="-4.1" y2="1905.3"/>
		<polyline class="st1" points="-4.6,1904.5 -5.1,1903.6 -4.6,1902.8 		"/>
		<line class="st2" x1="-3.6" y1="1901" x2="41.7" y2="1822.5"/>
		<polyline class="st1" points="42.2,1821.6 42.7,1820.8 43.7,1820.8 		"/>
		<line class="st2" x1="45.7" y1="1820.8" x2="136.4" y2="1820.8"/>
		<polyline class="st1" points="137.4,1820.8 138.4,1820.8 138.9,1821.6 		"/>
		<line class="st2" x1="139.9" y1="1823.4" x2="185.2" y2="1901.9"/>
		<polyline class="st1" points="185.7,1902.8 186.2,1903.6 185.7,1904.5 		"/>
		<line class="st2" x1="184.7" y1="1906.2" x2="139.4" y2="1984.7"/>
		<polyline class="st1" points="138.9,1985.6 138.4,1986.5 137.4,1986.5 		"/>
		<line class="st2" x1="135.4" y1="1986.5" x2="44.7" y2="1986.5"/>
	</g>
</g>
<text transform="matrix(1 0 0 1 271.8065 -2035.0897)" class="st10" style="font-family:'Ubuntu-Bold'; font-size:21px; letter-spacing:1;">Home</text>
<text transform="matrix(1 0 0 1 338.7335 -2035.0897)" style="font-family:'Ubuntu-Bold'; font-size:21px; letter-spacing:1;"> </text>
<text transform="matrix(1 0 0 1 270.8065 -1427.5292)" class="st10" style="font-family:'Ubuntu-Bold'; font-size:21px; letter-spacing:1;">Customer suport </text>
<text transform="matrix(1 0 0 1 478.1165 -1427.5292)" style="font-family:'Ubuntu-Bold'; font-size:21px; letter-spacing:1;"> </text>
<text transform="matrix(1 0 0 1 270.8065 -1124.0692)" class="st10" style="font-family:'Ubuntu-Bold'; font-size:21px; letter-spacing:1;">Pricing</text>
<text transform="matrix(1 0 0 1 355.3725 -1124.0692)" style="font-family:'Ubuntu-Bold'; font-size:21px; letter-spacing:1;"> a</text>
<text transform="matrix(1 0 0 1 270.8065 -820.6093)" class="st10" style="font-family:'Ubuntu-Bold'; font-size:21px; letter-spacing:1;">Integratie</text>
<text transform="matrix(1 0 0 1 270.8065 -517.1493)" class="st10" style="font-family:'Ubuntu-Bold'; font-size:21px; letter-spacing:1;">Create A event </text>
<text transform="matrix(1 0 0 1 458.2715 -517.1493)" style="font-family:'Ubuntu-Bold'; font-size:21px; letter-spacing:1;"> </text>
<text transform="matrix(1 0 0 1 270.8065 -213.6893)" class="st10" style="font-family:'Ubuntu-Bold'; font-size:21px; letter-spacing:1;">Shop</text>
<text transform="matrix(1 0 0 1 329.2275 -213.6893)" style="font-family:'Ubuntu-Bold'; font-size:21px; letter-spacing:1;"> </text>
<text transform="matrix(1 0 0 1 658.2579 89.2072)" class="st10" style="font-family:'Ubuntu-Bold'; font-size:21px; letter-spacing:1;">Tickets</text>
<text transform="matrix(1 0 0 1 270.8065 393.2306)" class="st10" style="font-family:'Ubuntu-Bold'; font-size:21px; letter-spacing:1;">Api</text>
<text transform="matrix(1 0 0 1 270.8065 696.6905)" class="st10" style="font-family:'Ubuntu-Bold'; font-size:21px; letter-spacing:1;">Scanners </text>
<text transform="matrix(1 0 0 1 385.1285 696.6905)" style="font-family:'Ubuntu-Bold'; font-size:21px; letter-spacing:1;"> </text>
<text transform="matrix(1 0 0 1 270.8065 1000.1505)" class="st10" style="font-family:'Ubuntu-Bold'; font-size:21px; letter-spacing:1;">API Software</text>
<text transform="matrix(1 0 0 1 428.7035 1000.1505)" style="font-family:'Ubuntu-Bold'; font-size:21px; letter-spacing:1;"> </text>
<text transform="matrix(1 0 0 1 270.8065 1303.6105)" class="st10" style="font-family:'Ubuntu-Bold'; font-size:21px; letter-spacing:1;">Acount </text>
<text transform="matrix(1 0 0 1 362.9945 1303.6105)" style="font-family:'Ubuntu-Bold'; font-size:21px; letter-spacing:1;"> </text>
<text transform="matrix(1 0 0 1 270.8065 1607.0704)" class="st10" style="font-family:'Ubuntu-Bold'; font-size:21px; letter-spacing:1;">Pricing </text>
<text transform="matrix(1 0 0 1 270.8065 1910.5304)" class="st10" style="font-family:'Ubuntu-Bold'; font-size:21px; letter-spacing:1;">Veiligheid</text>
<text transform="matrix(1 0 0 1 393.8645 1910.5304)" style="font-family:'Ubuntu-Bold'; font-size:21px; letter-spacing:1;"> </text>
<text transform="matrix(1 0 0 1 270.8065 2213.9902)" class="st10" style="font-family:'Ubuntu-Bold'; font-size:21px; letter-spacing:1;">DATA</text>
<text transform="matrix(1 0 0 1 270.8065 -1732.0897)" class="st10" style="font-family:'Ubuntu-Bold'; font-size:21px; letter-spacing:1;">Innovatie</text>
<text transform="matrix(1 0 0 1 384.6455 -1732.0897)" style="font-family:'Ubuntu-Bold'; font-size:21px; letter-spacing:1;"> </text>
<text transform="matrix(1 0 0 1 267.0045 -1792.5485)" style="fill:#FF4C00; font-family:'Ubuntu-Bold'; font-size:11.0073px;">motion</text>
<g>
	<path class="st3" d="M180.5-1747.7l-36.5-63.2c-3.1-5.4-10.8-9.8-17-9.8H54c-6.2,0-13.9,4.4-17,9.8l-36.5,63.2
		c-3.1,5.4-3.1,14.2,0,19.6l36.5,63.2c3.1,5.4,10.8,9.8,17,9.8h73c6.2,0,13.9-4.4,17-9.8l36.5-63.2
		C183.7-1733.5,183.7-1742.3,180.5-1747.7z M95.1-1667.4H84.8c-1.9,0-3.5-0.9-3.5-2.1s1.6-2.1,3.5-2.1h10.4c1.9,0,3.5,0.9,3.5,2.1
		S97-1667.4,95.1-1667.4z M105.5-1680.7l-0.5,2.6c-0.4,1.9-2.2,3.4-4.1,3.4H79.3c-1.9,0-3.7-1.1-3.9-2.5c-0.3-1.4,1.1-2.7,3-3
		l24.4-3.4C104.7-1683.8,105.9-1682.5,105.5-1680.7z M107.2-1689.1c-0.3,1.3-2,2.5-3.9,2.8l-25.5,3.6c-1.9,0.3-3.6-0.5-3.8-1.7
		c-0.2-1.2,1.1-2.4,3-2.7l27.2-3.8C106.1-1691.2,107.5-1690.3,107.2-1689.1z M108.6-1696.2c-0.2,1.2-2,2.4-3.9,2.7l-28.2,4
		c-1.9,0.3-3.6-0.4-3.8-1.6c-0.2-1.1,1.2-2.3,3-2.5l29.8-4.2C107.5-1698.2,108.9-1697.4,108.6-1696.2z M136.8-1763.9l-17.5,30.5
		c-3.6,6.8-7.9,16.1-8.6,21.7c-0.3,2.6-1.1,4.3-2,5.3c1.1,0.4,1.7,1.4,1.5,2.5c-0.3,1.5-2.1,3-4,3.2l-30.8,4.3c-1.9,0.3-3.7-1-4-2.9
		l-0.7-4c-0.3-1.5,0.5-2.9,1.9-3.3c-0.9-1-1.6-2.6-1.9-5.1c-0.6-5-4.1-12.8-7.4-19.3l-18.9-32.9c-1-1.8-1-4.8,0-6.6l20.2-34.9
		c1-1.8,3.6-3,5.6-3h0.3h40.2h0.3c2.1,0,4.6,1.2,5.6,3l20.2,35.1C137.8-1768.5,137.8-1765.7,136.8-1763.9z"/>
	<path class="st3" d="M112.9-1800c-0.9-1.6-3.1-2.4-4.9-2.4H73c-1.8,0-4,0.8-4.9,2.4l-17.5,30c-0.9,1.6-0.9,4.2,0,5.7l17.5,30.6
		c0.9,1.6,1.9,3.1,4.9,3.1c10.3,0,10.8,24.6,16.8,24.6c6,0,8.4-24.6,18.2-24.6c3.2,0,4-1.5,4.9-3l17.5-30.6c0.9-1.6,0.9-4,0-5.5
		L112.9-1800z"/>
</g>
<g>
	<path class="st3" d="M122.5-2124.2H58.6c-9.8,0-18.9,5.3-23.9,13.8l-32,55.3c-4.9,8.5-4.9,19,0,27.5l32,55.3
		c4.9,8.5,14,13.8,23.9,13.8h63.8c9.8,0,18.9-5.3,23.9-13.8l32-55.3c4.9-8.5,4.9-19,0-27.5l-10.2-17.5l-38.1,65.8
		c-14.1,24.4-41.3,25.3-65.9,11.1c-24.7-14.3-37.5-38.2-23.4-62.7l14.8-25.5c0,0,6.4-11.2,16.3-5.6c10.5,6,4,17.4,4,17.4l-17.3,30.1
		v0.1c-0.5,0.8-3.8,7.8,3,11.8c6.5,3.7,10.7-2.8,11.2-3.5l17.4-30.2c0,0,6.4-11.2,16.3-5.6c10.5,5.9,4,17.3,4,17.3l-17.4,30.2v0.1
		c0,0-4.3,7.5,3,11.7c6.2,3.6,10.4-2.3,11.3-3.6l47.4-82.1l-8.3-14.4C141.3-2119,132.2-2124.2,122.5-2124.2"/>
</g>
<g>
	<path class="st3" d="M180.5-1444.3l-36.5-63.2c-3.1-5.4-10.8-9.8-17-9.8H54c-6.2,0-13.9,4.4-17,9.8l-36.5,63.2
		c-3.1,5.4-3.1,14.2,0,19.6l36.5,63.2c3.1,5.4,10.8,9.8,17,9.8h73c6.2,0,13.9-4.4,17-9.8l36.5-63.2
		C183.7-1430,183.7-1438.9,180.5-1444.3z M170.2-1427.4l-33.7,58.4c-2.7,4.7-6.8,7.1-12.2,7.1c-5.3,0-17.8-11.3-24-17.3
		c-2.8,2.3-6.4,3.7-10.3,3.7c-9.1,0-16.4-7.4-16.4-16.4s7.4-16.4,16.4-16.4c9.1,0,16.4,7.4,16.4,16.4c0,3-0.8,5.8-2.3,8.3
		c7.9,7.6,17.7,15.6,20.2,15.9c3.3,0,5.4-1.2,7.1-4.1l30-52c-2.1,0.8-4.7,0-5.9-2l-20.6-35.2c-1.3-2.3-0.6-5.2,1.7-6.5l4.8-2.8
		c1.7-1,3.8-0.8,5.3,0.3l-15.4-26.7c-1.2-2.1-4.6-4.1-7.1-4.1H56.9c-2.5,0-5.9,2-7.1,4.1l-15.1,26.1c1.4-0.6,3-0.6,4.4,0.2l4.8,2.8
		c2.3,1.3,3,4.3,1.7,6.5L25-1426c-1.3,2.3-4.3,3-6.5,1.7l-4.8-2.8c-2.3-1.3-3-4.3-1.7-6.5l1.1-1.8l-3-4.4l34.6-60
		c2.3-4,7.6-7.1,12.2-7.1h67.4c4.6,0,9.9,3.1,12.2,7.1l33.7,58.4C172.5-1437.5,172.5-1431.3,170.2-1427.4z"/>
	<path class="st3" d="M90-1402.5c-5.8,0-10.5,4.7-10.5,10.5c0,5.8,4.7,10.5,10.5,10.5s10.5-4.7,10.5-10.5
		C100.5-1397.8,95.8-1402.5,90-1402.5z"/>
</g>
<path class="st4" d="M-288.2-1487.4"/>
<path class="st3" d="M-195.4-1468.1l-16-49.6l-6.7,2.2l15.7,48.6c-8.6,2.9-14.8,11-14.8,20.6c0,5.8,2.3,11,5.9,14.9l-49.1,48.2
	c-6.7,5.2-9.8,5.8-15.9,2.9c-1.8-0.8-5-3.7-8.5-7c0.5-1.5,0.4-3.2-0.5-4.7l-11.9-20.4c-1.6-2.7-5.1-3.6-7.8-2l-3,1.7
	c-2.7,1.6-3.6,5.1-2,7.8l11.9,20.4c1.6,2.7,5.1,3.6,7.8,2l0.2-0.1c3.9,3.7,8,7.4,10.8,8.7c3.4,1.6,6.4,2.3,9.2,2.3
	c5,0,9.2-2.4,14.2-6.2l0.2-0.1l50.1-49.2c3,1.6,6.5,2.5,10.2,2.5c12,0,21.8-9.7,21.8-21.8C-173.7-1458.3-183.4-1468-195.4-1468.1z"
	/>
<path class="st0" d="M-577.8-1310.7c-6.2,0-13.9-4.4-17-9.8l-59.4-102.8c-3.1-5.4-3.1-14.2,0-19.6l59.4-102.8
	c3.1-5.4,10.8-9.8,17-9.8H-459c6.2,0,13.9,4.4,17,9.8l59.4,102.8c3.1,5.4,3.1,14.2,0,19.6l-59.4,102.8c-3.1,5.4-10.8,9.8-17,9.8
	H-577.8z"/>
<g>
	<path class="st3" d="M-592-1412.3l11.9,20.4c0.9,1.5,1,3.2,0.5,4.7c3.5,3.3,6.7,6.1,8.5,7c6,2.8,9.2,2.2,15.9-2.9l49.1-48.2
		c-3.7-3.9-5.9-9.1-5.9-14.9c0-9.6,6.2-17.7,14.8-20.6l-15.7-48.6l1.7-0.5h-43.5c-6.2,0-13.9,4.4-17,9.8l-36.5,63.2
		c-3.1,5.4-3.1,14.2,0,19.6l6.1,10.5l2.5-1.5C-597.1-1415.9-593.6-1415-592-1412.3z"/>
	<path class="st3" d="M-428.4-1443l-36.5-63.2c-3.1-5.4-10.8-9.8-17-9.8h-24l15.5,48c12,0,21.7,9.8,21.7,21.7
		c0,12-9.7,21.8-21.8,21.8c-3.7,0-7.2-0.9-10.2-2.5l-50.1,49.2l-0.2,0.1c-4.9,3.9-9.2,6.2-14.2,6.2c-2.8,0-5.7-0.7-9.2-2.3
		c-2.7-1.3-6.7-4.7-10.5-8.4l12.8,22.1c3.1,5.4,10.8,9.8,17,9.8h73c6.2,0,13.9-4.4,17-9.8l36.5-63.2
		C-425.3-1428.8-425.3-1437.6-428.4-1443z"/>
</g>
<path class="st4" d="M-240.7-1451.6"/>
<path class="st4" d="M-280.2-1451.6"/>
<g>
	<path class="st3" d="M-534.4-1440.6h-40.3v-3.5c0-11.1,9-20.2,20.2-20.2s20.2,9,20.2,20.2L-534.4-1440.6L-534.4-1440.6z
		 M-567.2-1447.6h25.4c-1.5-5.6-6.6-9.7-12.7-9.7S-565.7-1453.2-567.2-1447.6z"/>
</g>
<g>
	<path class="st0" d="M-346.4-1137.7l-40.5-70.1c-2.1-3.7-7.3-6.7-11.6-6.7h-80.9c-4.3,0-9.5,3-11.6,6.7l-40.5,70.1
		c-2.1,3.7-2.1,9.7,0,13.4l40.5,70.1c2.1,3.7,7.3,6.7,11.6,6.7h80.9c4.3,0,9.5-3,11.6-6.7l40.5-70.1
		C-344.3-1128-344.3-1134-346.4-1137.7z M-348.9-1121.2l-36.5,63.2c-3.1,5.4-10.8,9.8-17,9.8h-73c-6.2,0-13.9-4.4-17-9.8l-36.5-63.2
		c-3.1-5.4-3.1-14.2,0-19.6l36.5-63.2c3.1-5.4,10.8-9.8,17-9.8h73c6.2,0,13.9,4.4,17,9.8l36.5,63.2
		C-345.8-1135.4-345.8-1126.6-348.9-1121.2z"/>
	<path class="st3" d="M-385.4-1204c-3.1-5.4-10.8-9.8-17-9.8h-73c-6.2,0-13.9,4.4-17,9.8l-36.5,63.2c-3.1,5.4-3.1,14.2,0,19.6
		l36.5,63.2c3.1,5.4,10.8,9.8,17,9.8h73c6.2,0,13.9-4.4,17-9.8l36.5-63.2c3.1-5.4,3.1-14.2,0-19.6L-385.4-1204z M-416.3-1079.5
		c-4.2,1-9.1,1.5-14.7,1.5c-12.3,0-21.7-3-28.1-8.9c-6.5-5.9-10.8-14.3-12.8-25.1h-10.6v-14.6h9.3c-0.1-1.1-0.1-1.9-0.1-2.5
		c0-0.6,0-1.3,0-2.1c0-0.8,0-1.6,0-2.5s0-1.7,0.1-2.5h-9.3v-14.6h11.2c2.6-11,7.4-19.3,14.6-24.9c7.2-5.6,16.4-8.4,27.6-8.4
		c4.4,0,8.2,0.3,11.3,1c3.1,0.7,6.3,1.6,9.4,2.8l-4.6,17.1c-2.4-0.8-4.8-1.4-7.2-2c-2.5-0.5-5.5-0.8-9.1-0.8
		c-5.9,0-10.5,1.3-13.8,3.8c-3.3,2.6-5.7,6.3-7.1,11.3h32.7l-2.8,14.6h-31.8c-0.1,1.1-0.1,2-0.1,2.7c0,0.7,0,1.5,0,2.3
		c0,0.8,0,1.5,0,2.1c0,0.6,0,1.4,0.1,2.5h30.1l-2.8,14.6h-25.3c1.7,5.9,4.2,10,7.5,12.3c3.3,2.3,7.5,3.5,12.5,3.5
		c3.2,0,6.5-0.3,9.9-0.9c3.3-0.6,6.7-1.6,10-2.9l4.3,16.9C-408.7-1081.7-412.1-1080.5-416.3-1079.5z"/>
</g>
<g>
	<path class="st3" d="M183.1-1137.7l-40.5-70.1c-2.1-3.7-7.3-6.7-11.6-6.7H50.1c-4.3,0-9.5,3-11.6,6.7L-2-1137.7
		c-2.1,3.7-2.1,9.7,0,13.4l40.5,70.1c2.1,3.7,7.3,6.7,11.6,6.7H131c4.3,0,9.5-3,11.6-6.7l40.5-70.1
		C185.2-1128,185.2-1134,183.1-1137.7z M180.5-1121.2l-36.5,63.2c-3.1,5.4-10.8,9.8-17,9.8H54c-6.2,0-13.9-4.4-17-9.8l-36.5-63.2
		c-3.1-5.4-3.1-14.2,0-19.6L37-1204c3.1-5.4,10.8-9.8,17-9.8h73c6.2,0,13.9,4.4,17,9.8l36.5,63.2
		C183.7-1135.4,183.7-1126.6,180.5-1121.2z"/>
	<path class="st3" d="M144-1204c-3.1-5.4-10.8-9.8-17-9.8H54c-6.2,0-13.9,4.4-17,9.8l-36.5,63.2c-3.1,5.4-3.1,14.2,0,19.6l36.5,63.2
		c3.1,5.4,10.8,9.8,17,9.8h73c6.2,0,13.9-4.4,17-9.8l36.5-63.2c3.1-5.4,3.1-14.2,0-19.6L144-1204z M113.2-1079.5
		c-4.2,1-9.1,1.5-14.7,1.5c-12.3,0-21.7-3-28.1-8.9c-6.5-5.9-10.8-14.3-12.8-25.1H47v-14.6h9.3c-0.1-1.1-0.1-1.9-0.1-2.5
		c0-0.6,0-1.3,0-2.1c0-0.8,0-1.6,0-2.5s0-1.7,0.1-2.5H47v-14.6h11.2c2.6-11,7.4-19.3,14.6-24.9c7.2-5.6,16.4-8.4,27.6-8.4
		c4.4,0,8.2,0.3,11.3,1c3.1,0.7,6.3,1.6,9.4,2.8l-4.6,17.1c-2.4-0.8-4.8-1.4-7.2-2c-2.5-0.5-5.5-0.8-9.1-0.8
		c-5.9,0-10.5,1.3-13.8,3.8c-3.3,2.6-5.7,6.3-7.1,11.3H112l-2.8,14.6H77.3c-0.1,1.1-0.1,2-0.1,2.7c0,0.7,0,1.5,0,2.3
		c0,0.8,0,1.5,0,2.1c0,0.6,0,1.4,0.1,2.5h30.1l-2.8,14.6H79.2c1.7,5.9,4.2,10,7.5,12.3c3.3,2.3,7.5,3.5,12.5,3.5
		c3.2,0,6.5-0.3,9.9-0.9c3.3-0.6,6.7-1.6,10-2.9l4.3,16.9C120.8-1081.7,117.4-1080.5,113.2-1079.5z"/>
</g>
<path class="st3" d="M-307.4-734.6c-6.2,0-13.9-4.4-17-9.8l-36.5-63.2c-3.1-5.4-3.1-14.2,0-19.6l36.5-63.2c3.1-5.4,10.8-9.8,17-9.8
	h73c6.2,0,13.9,4.4,17,9.8l36.5,63.2c3.1,5.4,3.1,14.2,0,19.6l-36.5,63.2c-3.1,5.4-10.8,9.8-17,9.8L-307.4-734.6L-307.4-734.6z"/>
<g>
	<path class="st3" d="M180.5-837.3L144-900.6c-3.1-5.4-10.8-9.8-17-9.8H54c-6.2,0-13.9,4.4-17,9.8L0.5-837.3
		c-3.1,5.4-3.1,14.2,0,19.6L37-754.5c3.1,5.4,10.8,9.8,17,9.8h73c6.2,0,13.9-4.4,17-9.8l36.5-63.2
		C183.7-823.1,183.7-831.9,180.5-837.3z M59.3-754.9c-5.5,0-12.2-3.9-14.9-8.6l-32-55.4c-2.7-4.7-2.7-12.5,0-17.2l32-55.4
		c2.7-4.7,9.4-8.6,14.9-8.6h23.5l-36.2,62.8c-3.1,5.4-3.1,14.3,0,19.7l36.2,62.8L59.3-754.9L59.3-754.9z M97.2-763.2
		c-4.8,0-10.8-3.4-13.2-7.6l-28.3-49.1c-2.4-4.2-2.4-11.1,0-15.2l28.3-49.1c2.4-4.2,8.4-7.6,13.2-7.6h15.3c-0.1,0.1-0.1,0.2-0.2,0.3
		l-32,55.4c-2.7,4.7-2.7,12.5,0,17.2l32,55.4c0.1,0.1,0.1,0.2,0.2,0.3L97.2-763.2L97.2-763.2z M105.2-800.3c-3.3,0-6.3-1.7-7.9-4.6
		l-10.6-18.3c-1.6-2.8-1.6-6.3,0-9.1l10.6-18.3c1.6-2.8,4.6-4.6,7.9-4.6h21.1c3.2,0,6.2,1.7,7.9,4.6l2.8,4.8l-15.7,27.1
		c-0.3,0.4-1.7,2.4-3.7,1.2c-2.4-1.4-1-3.9-1-3.9v0l5.7-10c0,0,2.2-3.8-1.3-5.7c-3.3-1.8-5.4,1.8-5.4,1.8l-5.8,10
		c-0.2,0.2-1.5,2.4-3.7,1.2c-2.3-1.3-1.2-3.6-1-3.9v0l5.7-10c0,0,2.2-3.8-1.3-5.7c-3.3-1.8-5.4,1.8-5.4,1.8l-4.9,8.4
		c-4.7,8.1-0.4,16,7.7,20.7c8.1,4.7,17.1,4.4,21.8-3.7l12.6-21.7l3.4,5.8c1.6,2.8,1.6,6.3,0,9.1l-10.6,18.3
		c-1.6,2.8-4.6,4.6-7.9,4.6L105.2-800.3L105.2-800.3z M171.3-821.5l-22.4,38.8c-1.9,3.3-6.6,6-10.4,6h-12.1c0.1-0.1,0.1-0.2,0.2-0.3
		l25.3-43.8c2.2-3.7,2.2-9.9,0-13.6l-25.3-43.8c-0.1-0.1-0.1-0.2-0.2-0.3h12.1c3.8,0,8.5,2.7,10.4,6l22.4,38.8
		C173.2-830.2,173.2-824.8,171.3-821.5z"/>
</g>
<rect x="387.9" y="-1644.9" class="st5" width="4.5" height="1.5"/>
<path class="st3" d="M-209.9-441.2c-6.2,0-13.9-4.4-17-9.8l-36.5-63.2c-3.1-5.4-3.1-14.2,0-19.6l36.5-63.2c3.1-5.4,10.8-9.8,17-9.8
	h73c6.2,0,13.9,4.4,17,9.8l36.5,63.2c3.1,5.4,3.1,14.2,0,19.6l-36.5,63.2c-3.1,5.4-10.8,9.8-17,9.8L-209.9-441.2L-209.9-441.2z"/>
<path class="st3" d="M-625.2,772.6c-6.2,0-13.9-4.4-17-9.8l-36.5-63.2c-3.1-5.4-3.1-14.2,0-19.6l36.5-63.2c3.1-5.4,10.8-9.8,17-9.8
	h73c6.2,0,13.9,4.4,17,9.8l36.5,63.2c3.1,5.4,3.1,14.2,0,19.6l-36.5,63.2c-3.1,5.4-10.8,9.8-17,9.8H-625.2z"/>
<path class="st3" d="M54,1986.5c-6.2,0-13.9-4.4-17-9.8l-36.5-63.2c-3.1-5.4-3.1-14.2,0-19.6l36.5-63.2c3.1-5.4,10.8-9.8,17-9.8h73
	c6.2,0,13.9,4.4,17,9.8l36.5,63.2c3.1,5.4,3.1,14.2,0,19.6l-36.5,63.2c-3.1,5.4-10.8,9.8-17,9.8H54z"/>
<g>
	<g>
		<g>
			<path class="st0" d="M-294-531.1L-294-531.1c-0.1,0-0.5-0.6-1.1-0.8l-19.8-7.7c-1.6-0.6-6.1-1.2-9.8-1.1l-1.5,0
				c-11.3-5.4-21.8-14.5-23.4-30.9c-1.7,16.1-11.8,25.4-23.4,31c-3.2,0.2-6.5,0.6-8.2,1.1l-25.9,7.8c-1.4,0.4-2.1,0.6-1.9,1.6h0
				c0,0-1.2,25.8,0,27c1.2,1.2,19.5,8.4,23.9,9.1c2.5,0.4,58.8,0.1,60.4-0.3c5.8-1.2,29.3-8.4,30.7-9.1
				C-292.6-503.9-294-531.1-294-531.1z"/>
		</g>
		<defs>
			<filter id="Adobe_OpacityMaskFilter" filterUnits="userSpaceOnUse" x="-409.5" y="-571.6" width="116.1" height="77.9">
				<feColorMatrix  type="matrix" values="1 0 0 0 0  0 1 0 0 0  0 0 1 0 0  0 0 0 1 0"/>
			</filter>
		</defs>
		<mask maskUnits="userSpaceOnUse" x="-409.5" y="-571.6" width="116.1" height="77.9" id="SVGID_1_">
			<g class="st6">
				
					<image style="overflow:visible;enable-background:new    ;" width="504" height="346" xlink:href="60443810.jpeg"  transform="matrix(0.2386 0 0 0.2372 -411.5206 -573.6454)">
				</image>
			</g>
		</mask>
		<g class="st7">
			<path class="st0" d="M-294-531.1L-294-531.1c-0.1,0-0.5-0.6-1.1-0.8l-19.8-7.7c-1.6-0.6-6.1-1.2-9.8-1.1l-1.5,0
				c-11.3-5.4-21.8-14.5-23.4-30.9c-1.7,16.1-11.8,25.4-23.4,31c-3.2,0.2-6.5,0.6-8.2,1.1l-25.9,7.8c-1.4,0.4-2.1,0.6-1.9,1.6h0
				c0,0-1.2,25.8,0,27c1.2,1.2,19.5,8.4,23.9,9.1c2.5,0.4,58.8,0.1,60.4-0.3c5.8-1.2,29.3-8.4,30.7-9.1
				C-292.6-503.9-294-531.1-294-531.1z"/>
		</g>
	</g>
</g>
<g>
	<path class="st0" d="M-529.6-548.7c-3.8,2.6-3.6,4-3.6,6c0,3.3,0,52,0,52c0,4.4,3.1,9.7,6.9,11.9l44.3,25.6c1.8,1,4.1,1.6,6.5,1.6
		v-136.9C-478.4-586.4-517.2-557.4-529.6-548.7z"/>
</g>
<g>
	<path class="st8" d="M-421.2-548.7c3.8,2.6,3.6,4,3.6,6c0,3.3,0,52,0,52c0,4.4-3.1,9.7-6.9,11.9l-44.3,25.6c-1.8,1-4.1,1.6-6.5,1.6
		v-136.9C-472.5-586.4-433.7-557.4-421.2-548.7z"/>
</g>
<polygon class="st0" points="-432.7,-474.3 -452.2,-462.5 -451.9,-505.1 -432.8,-514.6 "/>
<path class="st0" d="M-203.7-450.9c-5.5,0-12.2-3.9-14.9-8.6l-32-55.4c-2.7-4.7-2.7-12.5,0-17.2l32-55.4c2.7-4.7,9.4-8.6,14.9-8.6
	h59.1l-36.2,62.8c-3.1,5.4-3.1,14.3,0,19.7l36.2,62.8L-203.7-450.9L-203.7-450.9z"/>
<g>
	<path class="st0" d="M-153-528h18.2V-548h11.1v20.1h18.2v10.4h-18.2v20.1h-11.1v-20.1H-153V-528z"/>
</g>
<g>
	<path class="st3" d="M180.5-533.9L144-597.1c-3.1-5.4-10.8-9.8-17-9.8H54c-6.2,0-13.9,4.4-17,9.8L0.5-533.9
		c-3.1,5.4-3.1,14.2,0,19.6L37-451c3.1,5.4,10.8,9.8,17,9.8h73c6.2,0,13.9-4.4,17-9.8l36.5-63.2
		C183.7-519.6,183.7-528.5,180.5-533.9z M60.3-450.9c-5.5,0-12.2-3.9-14.9-8.6l-32-55.4c-2.7-4.7-2.7-12.5,0-17.2l32-55.4
		c2.7-4.7,9.4-8.6,14.9-8.6h59.1l-36.2,62.8c-3.1,5.4-3.1,14.3,0,19.7l36.2,62.8L60.3-450.9L60.3-450.9z M158.5-517.5h-18.2v20.1
		h-11.1v-20.1H111V-528h18.2V-548h11.1v20.1h18.2V-517.5z"/>
</g>
<g>
	<path class="st9" d="M76.4-134.9c1.9,0,3.5-1.2,4.2-2.8h-8.3C72.9-136.1,74.5-134.9,76.4-134.9z"/>
	<path class="st9" d="M131.8-134.9c2.5,0,4.5-2,4.5-4.5c0-0.3,0-0.6-0.1-0.9c-2.8,1.5-5.8,2.5-8.6,2.6
		C128.3-136.1,129.9-134.9,131.8-134.9z"/>
	<path class="st3" d="M80.9-139.4c0-2.5-2-4.5-4.5-4.5s-4.5,2-4.5,4.5c0,0.6,0.1,1.2,0.3,1.7h8.3C80.8-138.3,80.9-138.8,80.9-139.4z
		"/>
	<path class="st3" d="M131.8-143.9c-2.5,0-4.5,2-4.5,4.5c0,0.6,0.1,1.1,0.3,1.7c2.8-0.1,5.8-1.1,8.6-2.6
		C135.8-142.4,134-143.9,131.8-143.9z"/>
	<path class="st3" d="M180.5-230.4L144-293.6c-3.1-5.4-10.8-9.8-17-9.8H54c-6.2,0-13.9,4.4-17,9.8L0.5-230.4
		c-3.1,5.4-3.1,14.2,0,19.6L37-147.6c3.1,5.4,10.8,9.8,17,9.8h11c-0.1-0.5-0.1-1.1-0.1-1.7c0-6.3,5.2-11.5,11.5-11.5
		s11.5,5.2,11.5,11.5c0,0.6-0.1,1.1-0.1,1.7h32.7c-0.1-0.5-0.1-1.1-0.1-1.7c0-6.3,5.2-11.5,11.5-11.5c4.4,0,8.2,2.5,10.2,6.1
		c0.8-0.9,1.5-1.8,2.1-2.8l36.5-63.2C183.7-216.2,183.7-225,180.5-230.4z M135.8-157.7H74.2c-5.5,0-12-3.7-14.7-8.5l-25.1-43.5
		c-2.7-4.8-2.8-12.2,0-17l6-11.3c-1.3-1.7-2.2-3.9-2.2-6.2c0-5.6,4.5-10.1,10.1-10.1s10.1,4.5,10.1,10.1c0,5.6-4.5,10.1-10.1,10.1
		c-0.7,0-1.3-0.1-1.9-0.2l-5.9,11c-1.5,2.6-1.5,7.4,0,10l25.1,43.5c1.5,2.6,5.6,5,8.7,5h61.6L135.8-157.7L135.8-157.7z M158.3-215
		l-20.7,35.9c-1.8,3.1-6.1,5.6-9.6,5.6H86.6c-3.5,0-7.9-2.5-9.6-5.6L56.2-215c-1.8-3.1,0.2-8.1,2-11.1h100.1
		C160.1-223.1,160.1-218.1,158.3-215z"/>
</g>
<path class="st0" d="M576.6,438.5v-13h-10v13c0,0-0.8,0-7.6,0s-9.1,10-9.1,10h43.3c0,0-1.5-10-8.5-10S576.6,438.5,576.6,438.5z"/>
<g>
	<path class="st0" d="M573,413.8c-0.1-0.1-0.3-0.2-0.4-0.2h-1.8c-0.2,0-0.3,0.1-0.4,0.2l-0.9,1.6c-0.1,0.1-0.1,0.4,0,0.5l0.9,1.6
		c0.1,0.1,0.3,0.2,0.4,0.2h1.8c0.2,0,0.3-0.1,0.4-0.2l0.9-1.6c0.1-0.1,0.1-0.4,0-0.5L573,413.8z"/>
	<path class="st0" d="M623.2,345.5H519.7c-7,0-12.7,5.7-12.7,12.7v51.7c0,7,5.7,12.7,12.7,12.7h103.6c7,0,12.7-5.7,12.7-12.7v-51.7
		C635.9,351.2,630.2,345.5,623.2,345.5z M634.3,408.5c0,6.6-5.5,12.1-12.3,12.1H521.3c-6.8,0-12.3-5.4-12.3-12.1v-49.4
		c0-6.6,5.5-12.1,12.3-12.1H622c6.8,0,12.3,5.4,12.3,12.1L634.3,408.5L634.3,408.5z"/>
</g>
<g>
	<path class="st3" d="M-564.9,303.5c-6.2,0-13.9,4.4-17,9.8l-36.5,63.2c-3.1,5.4-3.1,14.2,0,19.6l36.5,63.2c3.1,5.4,10.8,9.8,17,9.8
		h8.4V303.5H-564.9z"/>
	<path class="st3" d="M-438.4,376.5l-36.5-63.2c-3.1-5.4-10.8-9.8-17-9.8h-59.9v165.7h59.9c6.2,0,13.9-4.4,17-9.8l36.5-63.2
		C-435.3,390.7-435.3,381.9-438.4,376.5z"/>
</g>
<g>
	<path class="st0" d="M-508.5,345.7l-19.2-26.2c-14.4,11.6-17.3,32.7-6.2,47.8c11.1,15.1,32,18.7,47.4,8.5l-20-27.2L-508.5,345.7z"
		/>
	<path class="st0" d="M-481.6,374.7c10.5-8.5,14.9-21.9,12.2-34.5l-31.4,8.3L-481.6,374.7z"/>
	<path class="st0" d="M-472.5,336.2c-1.1-3.5-2.8-7-5.1-10.1c-11.1-15.1-32-18.7-47.4-8.5l20,27.2L-472.5,336.2z"/>
</g>
<g>
	<path class="st0" d="M-502.9,425.5l29.5,13.5c6.9-17.2-0.9-37-17.9-44.7c-17-7.8-37.1-0.7-45.5,15.8l30.7,14L-502.9,425.5z"/>
	<path class="st0" d="M-539.9,413.4c-5,12.5-2.2,26.4,6.2,36l23.3-22.6L-539.9,413.4z"/>
	<path class="st0" d="M-529.7,451.5c2.7,2.5,5.9,4.7,9.4,6.3c17,7.8,37.1,0.7,45.5-15.8l-30.7-14L-529.7,451.5z"/>
</g>
<rect x="-630.2" y="344.5" class="st0" width="67.3" height="4.1"/>
<rect x="-630.2" y="355.4" class="st0" width="67.3" height="4.1"/>
<rect x="-630.2" y="366.9" class="st0" width="67.3" height="4.1"/>
<rect x="-630.2" y="377.9" class="st0" width="67.3" height="4.1"/>
<rect x="-630.2" y="388.8" class="st0" width="67.3" height="4.1"/>
<rect x="-630.2" y="400.3" class="st0" width="67.3" height="4.1"/>
<g>
	<g>
		<path class="st3" d="M170.5,377.6l-24.8-43H35.4l-24.8,43c-2.8,4.8-2.8,12.6,0,17.4L43,451.2c2.8,4.8,9.6,8.7,15.1,8.7H123
			c5.5,0,12.3-3.9,15.1-8.7l32.4-56.2C173.3,390.2,173.3,382.4,170.5,377.6z M64.9,395.9l-2.3,7l-30.7-13v-7.2l30.7-13l2.3,7
			l-23.8,9.5L64.9,395.9z M82.6,419.8h-8.8l24.1-68.9h8.7L82.6,419.8z M149.2,389.9l-30.7,13l-2.4-7l23.8-9.5l-23.8-9.5l2.4-7
			l30.7,13V389.9z"/>
	</g>
	<g>
		<path class="st3" d="M127.4,311l2.3-3.4h2.7l-3.7,5.3c0.8,1,1.5,1.9,2.2,2.9c0.7,1,1.3,1.9,1.7,2.8h-2.8c-0.1-0.3-0.3-0.5-0.5-0.8
			s-0.4-0.6-0.6-1c-0.2-0.3-0.5-0.7-0.7-1c-0.3-0.3-0.5-0.6-0.7-0.9c-0.5,0.6-1,1.2-1.4,1.9s-0.9,1.3-1.2,1.8h-2.6
			c0.2-0.4,0.5-0.9,0.8-1.3c0.3-0.5,0.6-0.9,1-1.4c0.3-0.5,0.7-1,1.1-1.5s0.7-1,1.1-1.4l-3.7-5.4h2.8L127.4,311z"/>
	</g>
	<g>
		<path class="st9" d="M146.9,325.2l-112.7,0l-30.6,53c-2.5,4.3-2.5,11.8,0,16.1l36.5,63.2c2.5,4.3,9,8.1,14,8.1h73
			c5,0,11.5-3.8,14-8.1l36.5-63.2c2.5-4.3,2.5-11.8,0-16.1L146.9,325.2z"/>
		<path class="st3" d="M183.6,374.7l-36.5-63.2c-3.7-6.5-12.5-11.6-20-11.6H54c-7.5,0-16.3,5.1-20,11.6l-36.5,63.2
			c-3.7,6.5-3.7,16.7,0,23.1L34,461.1c3.7,6.5,12.5,11.6,20,11.6h73c7.5,0,16.3-5.1,20-11.6l36.5-63.2
			C187.3,391.4,187.3,381.2,183.6,374.7z M117.4,311.7l4-7c0.3-0.6,1.2-1.1,1.9-1.1h8.1c0.7,0,1.5,0.5,1.9,1.1l4,7
			c0.3,0.6,0.3,1.6,0,2.2l-4,7c-0.3,0.6-1.2,1.1-1.9,1.1h-8.1c-0.7,0-1.5-0.5-1.9-1.1l-4-7C117.1,313.3,117.1,312.3,117.4,311.7z
			 M177.5,394.4L141,457.6c-2.5,4.3-9,8.1-14,8.1H54c-5,0-11.5-3.8-14-8.1L3.6,394.4c-2.5-4.3-2.5-11.8,0-16.1l30.6-53l112.7,0
			l30.6,53C180,382.5,180,390.1,177.5,394.4z"/>
	</g>
</g>
<g>
	<path class="st3" d="M-249.1,80.7c0-1.4,0-2.8,0-4.2c-1.5,0-2.8,0-4.2,0c0,1.4,0,2.8,0,4.2C-251.8,80.7-250.4,80.7-249.1,80.7z"/>
	<path class="st3" d="M-223.5,119.2c-1.4,0-2.7,0-4.1,0c0,1.4,0,2.8,0,4.2c1.4,0,2.7,0,4.1,0C-223.5,121.9-223.5,120.5-223.5,119.2z
		"/>
	<path class="st3" d="M-244.8,89.1C-244.7,89.1-244.7,89.1-244.8,89.1C-244.7,89.1-244.7,89.1-244.8,89.1c4.3,0,8.6,0,12.9,0
		c0,0,0,0,0,0c0,0,0,0,0,0c0-1.4,0-2.8,0-4.3c0,0,0,0,0,0c0,0,0,0,0,0c-4.3,0-8.5,0-12.9,0C-244.8,86.3-244.8,87.7-244.8,89.1z"/>
	<path class="st3" d="M-227.6,127.7c0-1.5,0-2.9,0-4.3c-2.9,0-5.7,0-8.6,0c0,2.8,0,5.7,0,8.5c0,0,0,0,0,0c0,0,0,0,0,0
		c1.4,0,2.8,0,4.3,0c0,0,0,0,0,0c0,0,0,0,0,0c0-1.4,0-2.7,0-4.2C-230.4,127.7-229,127.7-227.6,127.7z"/>
	<path class="st3" d="M-236.2,55C-236.2,55-236.2,55-236.2,55C-236.2,55-236.2,55-236.2,55c-1.4,0-2.8,0-4.3,0c0,1.5,0,2.9,0,4.3
		c0,0,0,0,0,0c0,0,0,0,0,0c1.4,0,2.8,0,4.3,0C-236.2,57.8-236.2,56.4-236.2,55z"/>
	<path class="st3" d="M-219.2,127.8c-1.4,0-2.8,0-4.3,0c0,1.4,0,2.8,0,4.1c1.4,0.1,2.9,0.1,4.3,0.2
		C-219.2,130.5-219.2,129.1-219.2,127.8z"/>
	<path class="st3" d="M-244.7,93.4c0-1.4,0-2.8,0-4.3c0,0,0,0,0,0c0,0,0,0,0,0c-1.4,0-2.8,0-4.3,0c0,1.4,0,2.8,0,4.3
		C-247.6,93.4-246.2,93.4-244.7,93.4C-244.8,93.4-244.8,93.4-244.7,93.4C-244.7,93.4-244.7,93.4-244.7,93.4z"/>
	<path class="st3" d="M-227.6,59.3C-227.6,59.3-227.6,59.3-227.6,59.3C-227.6,59.3-227.6,59.3-227.6,59.3c0-1.4,0-2.8,0-4.3
		c-1.5,0-2.9,0-4.3,0c0,0,0,0,0,0c0,0,0,0,0,0c0,1.4,0,2.8,0,4.3C-230.4,59.3-229,59.3-227.6,59.3z"/>
	<path class="st3" d="M-249,84.9c-1.5,0-2.9,0-4.3,0c0,1.4,0,2.8,0,4.2c1.4,0,2.8,0,4.3,0C-249,87.7-249,86.3-249,84.9z"/>
	<path class="st3" d="M-210.7,67.9c-1.5,0-2.8,0-4.3,0c0,1.5,0,2.8,0,4.2c1.4,0,2.9,0,4.3,0C-210.7,70.6-210.7,69.3-210.7,67.9z"/>
	<path class="st3" d="M-219.2,114.8c0-1.4,0-2.8,0-4.3c-1.5,0-2.9,0-4.3,0c0,1.4,0,2.8,0,4.3C-222,114.8-220.6,114.8-219.2,114.8z"
		/>
	<path class="st3" d="M-257.6,76.5C-257.6,76.5-257.6,76.5-257.6,76.5L-257.6,76.5L-257.6,76.5C-257.6,76.4-257.6,76.4-257.6,76.5
		c-1.4,0-2.8,0-4.3,0c0,1.5,0,2.9,0,4.3c0,0,0,0,0,0c0,0,0,0,0,0c1.4,0,2.8,0,4.3,0C-257.6,79.2-257.6,77.9-257.6,76.5z"/>
	<path class="st3" d="M-236.2,63.6c0,1.5,0,2.8,0,4.2c0,0,0,0,0,0c0,0,0,0,0,0c1.4,0,2.8,0,4.3,0c0,0,0,0,0,0c0,0,0,0,0,0
		c0-1.4,0-2.8,0-4.2C-233.4,63.6-234.8,63.6-236.2,63.6z"/>
	<path class="st3" d="M-249,93.4c-1.4,0-2.8,0-4.3,0c0-1.5,0-2.9,0-4.3c-1.4,0-2.8,0-4.3,0c0,2.9,0,5.7,0,8.5c0,0,0,0,0,0
		c0,0,0,0,0,0c2.8,0,5.7,0,8.5,0C-249,96.2-249,94.8-249,93.4z"/>
	<path class="st3" d="M-240.4,119.2c0,1.4,0,2.8,0,4.2c1.5,0,2.8,0,4.2,0c0-1.4,0-2.8,0-4.2C-237.7,119.2-239,119.2-240.4,119.2z"/>
	<path class="st3" d="M-184.9,89.1C-184.9,89.1-184.9,89.1-184.9,89.1c1.4,0,2.9,0,4.3,0c0-1.5,0-2.8,0-4.3c-1.5,0-2.9,0-4.3,0
		c0,0,0,0,0,0c0,0,0,0,0,0C-184.9,86.3-184.9,87.7-184.9,89.1C-184.9,89.1-184.9,89.1-184.9,89.1z"/>
	<path class="st3" d="M-274.7,55c7.2,0,14.3,0,21.4,0c0-7.2,0-14.2,0-21.3c-7.2,0-14.2,0-21.4,0C-274.7,40.8-274.7,47.8-274.7,55z
		 M-270.4,37.9c4.3,0,8.4,0,12.7,0c0,4.2,0,8.4,0,12.7c-4.2,0-8.4,0-12.7,0C-270.4,46.4-270.4,42.2-270.4,37.9z"/>
	<path class="st3" d="M-240.4,97.7c0-1.4,0-2.8,0-4.3c-1.5,0-2.9,0-4.3,0c0,0,0,0,0,0c0,0,0,0,0,0c0,1.4,0,2.9,0,4.3
		C-243.2,97.7-241.8,97.7-240.4,97.7C-240.5,97.7-240.5,97.7-240.4,97.7C-240.5,97.7-240.4,97.7-240.4,97.7z"/>
	<path class="st3" d="M-206.3,114.8c4.3,0,8.5,0,12.8,0c0-4.3,0-8.5,0-12.8c-4.3,0-8.5,0-12.8,0
		C-206.3,106.3-206.3,110.5-206.3,114.8z M-202,106.3c1.4,0,2.7,0,4.1,0c0,1.4,0,2.7,0,4.1c-1.4,0-2.7,0-4.1,0
		C-202,109.1-202,107.8-202,106.3z"/>
	<path class="st3" d="M-135.5,73L-172,9.8c-3.1-5.4-10.8-9.8-17-9.8h-73c-6.2,0-13.9,4.4-17,9.8L-315.5,73c-3.1,5.4-3.1,14.2,0,19.6
		l36.5,63.2c3.1,5.4,10.8,9.8,17,9.8h73c6.2,0,13.9-4.4,17-9.8l36.5-63.2C-132.3,87.3-132.3,78.4-135.5,73z M-202,29.5
		c9.9,0,19.9,0,29.8,0c0,9.9,0,19.8,0,29.7c-10,0-19.9,0-29.8,0C-202,49.3-202,39.5-202,29.5z M-176.4,63.7c0,1.4,0,2.7,0,4.1
		c-1.4,0-2.7,0-4.1,0c0-1.4,0-2.7,0-4.1C-179.2,63.7-177.8,63.7-176.4,63.7z M-180.7,72.2c0,1.4,0,2.7,0,4.1c-1.4,0-2.7,0-4.1,0
		c0-1.3,0-2.7,0-4.1C-183.5,72.2-182.1,72.2-180.7,72.2z M-185,63.6c0,1.4,0,2.7,0,4.1c-1.4,0-2.7,0-4.1,0c0-1.4,0-2.7,0-4.1
		C-187.7,63.6-186.4,63.6-185,63.6z M-219.2,42.1c0-1.4,0-2.8,0-4.2c1.5,0,2.8,0,4.3,0c0-1.5,0-2.8,0-4.3c1.5,0,2.8,0,4.2,0
		c0,0,0,0,0,0l0,0c0,0,0,0,0,0c0,0,0,0,0,0c0-1.3,0-2.6,0-4c1.5,0,2.8,0,4.3,0c0,1.3,0,2.6,0,4c-1.4,0-2.8,0-4.3,0c0,0,0,0,0,0
		c0,0,0,0,0,0c0,2.4,0,4.8,0.1,7.3c0,1.8,0,3.6,0,5.5c-1.4,0-2.8,0-4.3,0c0,1.5,0,2.9,0,4.3c0,0,0,0,0,0c0,0,0,0,0,0
		c1.4,0,2.8,0,4.2,0c0,1.5,0,2.9,0,4.3c0,0,0,0,0,0h0l0,0c0,0,0,0,0,0c1.4,0,2.8,0,4.3,0c0,1.4,0,2.8,0,4.2c-1.4,0-2.7,0-4.3,0
		c0-1.4,0-2.8,0-4.2c0,0,0,0,0,0c0,0,0,0,0,0c-1.4,0-2.8,0-4.2,0c0,0,0,0,0,0l0,0c0,0,0,0,0,0c0,0,0,0,0,0c0,1.4,0,2.8,0,4.2
		c-1.4,0-2.7,0-4.1,0c0-1.3,0-2.7,0-4.2c1.4,0,2.8,0,4.1,0c0,0,0,0,0,0c0,0,0,0,0,0c0-1.4,0-2.8,0-4.2c0,0,0,0,0,0c0,0,0,0,0,0
		c-1.4,0-2.7,0-4.2,0c0-1.4,0-2.8,0-4.3c-2.9,0-5.6,0-8.4,0c0-2.9,0-5.7,0-8.5c1.3,0,2.6,0,4,0c0,1.4,0,2.8,0,4.2
		C-222,42.1-220.6,42.1-219.2,42.1z M-227.5,29.5c1.3,0,2.7,0,4,0c0,1.3,0,2.6,0,4c-1.3,0-2.6,0-4,0
		C-227.5,32.1-227.5,30.9-227.5,29.5z M-236.1,29.5c1.4,0,2.7,0,4.1,0c0,2.8,0,5.5,0,8.3c-1.3,0-2.7,0-4.1,0
		C-236.1,35-236.1,32.3-236.1,29.5z M-244.7,33.7c1.4,0,2.7,0,4.1,0c0,1.4,0,2.8,0,4.1c-1.4,0-2.7,0-4.1,0
		C-244.7,36.4-244.7,35.1-244.7,33.7z M-278.8,29.5c9.9,0,19.8,0,29.7,0c0,9.9,0,19.8,0,29.7c-9.9,0-19.8,0-29.7,0
		C-278.8,49.3-278.8,39.4-278.8,29.5z M-278.8,84.9c1.4,0,2.7,0,4,0c0,5.7,0,11.3,0,17c-1.3,0-2.6,0-4,0
		C-278.8,96.2-278.8,90.6-278.8,84.9z M-249.1,136.2c-9.9,0-19.8,0-29.7,0c0-9.9,0-19.9,0-29.8c9.9,0,19.8,0,29.7,0
		C-249.1,116.3-249.1,126.2-249.1,136.2z M-172.1,84.8c-1.4,0-2.7,0-4.2,0c0,1.4,0,2.8,0,4.3c1.3,0,2.7,0,4.2,0c0,2.9,0,5.7,0,8.5
		c-2.8,0-5.7,0-8.5,0c0,0,0,0,0,0c0,0,0,0,0,0c0,1.4,0,2.8,0,4.3c-1.4,0-2.8,0-4.2,0c0,2.9,0,5.7,0,8.6c-1.5,0-2.8,0-4.2,0
		c0,1.4,0,2.8,0,4.3c2.8,0,5.6,0,8.4,0c0,0,0,0,0,0c0,0,0,0,0,0c0-2.2,0.1-4.3,0.1-6.5c0-0.6,0-1.2,0-2c1.4,0,2.8,0,4.3,0
		c0-1.5,0-2.8,0-4.2c1.4,0,2.8,0,4.2,0c0,2.8,0,5.5,0,8.4c-1.3,0-2.7,0-4.2,0c0,1.5,0,2.8,0,4.3c-1.5,0-2.9,0-4.4,0c0,0,0,0,0,0
		c0,0,0,0,0,0c0,1.4,0,2.8,0,4.3c0,0,0,0,0,0c0,0,0,0,0,0c2.8,0,5.6,0,8.5,0c0,5.7,0,11.4,0,17.1c-4.2,0-8.4,0-12.7,0
		c0-1.3,0-2.7,0-4.1c2.8,0,5.6,0,8.4,0c0-2.9,0-5.7,0-8.7c-1.4,0-2.8,0-4.3,0c0,0,0,0,0,0l0,0h0c0,0,0,0,0,0c0,1.4,0,2.8,0,4.3
		c-1.4,0-2.7,0-4.1,0c0-1.4,0-2.7,0-4.3c1.4,0,2.8,0,4.1,0c0,0,0,0,0,0c0,0,0,0,0,0c0-1.4,0-2.8,0-4.2c0,0,0,0,0,0c0,0,0,0,0,0
		c-2.8,0-5.6,0-8.5,0c0,1.5,0,2.8,0,4.3c-1.5,0-2.9,0-4.3,0c0,0,0,0,0,0c0,0,0,0,0,0c0,1.4,0,2.9,0,4.3c0,0,0,0,0,0c0,0,0,0,0,0
		c1.4,0,2.8,0,4.3,0c0,1.5,0,2.8,0,4.2c-1.4,0-2.7,0-4.3,0c0-1.4,0-2.8,0-4.2c0,0,0,0,0,0h0l0,0c0,0,0,0,0,0c-1.4,0-2.9,0-4.3-0.1
		c0,0,0,0,0,0c0,0,0,0,0,0c0,2.8,0,5.7,0,8.5c-1.3,0-2.7,0-4.1,0c0-2.8,0-5.6,0-8.6c1.4,0,2.7,0,4.1,0c0,0,0,0,0,0l0,0c0,0,0,0,0,0
		c0-1.4,0-2.8,0-4.2c0,0,0,0,0,0c0,0,0,0,0,0c-1.4,0-2.7,0-4.2,0c0-1.4,0-2.8,0-4.2c-5.8,0-11.4,0-17.2,0c0,1.4,0,2.8,0,4.2
		c4.2,0,8.4,0,12.7,0c0,1.4,0,2.8,0,4.2c-2.8,0-5.6,0-8.5,0c0,2.9,0,5.7,0,8.6c-2.9,0-5.7,0-8.5,0c-0.1-1.5-0.1-2.9-0.2-4.3
		c-1.5,0-3,0.1-4.5,0.1c-1.3,0-2.5,0-3.8,0c0,0,0,0,0,0c0,0,0,0,0,0c0,1.4,0,2.8,0,4.2c-1.4,0-2.8,0-4.3,0c0-1.4,0-2.8,0-4.2
		c0,0,0,0,0,0c0,0,0,0,0,0c-1.4,0-2.8,0-4.3,0c0,1.5,0,2.8,0,4.3c-1.5,0-2.8,0-4.2,0c0-7.1,0-14.2,0-21.3c1.4,0,2.7,0,4.2,0
		c0-1.5,0-2.8,0-4.3c-1.3,0-2.7,0-4.2,0c0-2.9,0-5.7,0-8.6c-4.3,0-8.5,0-12.9,0c0-1.5,0-2.9,0-4.3c0,0,0,0,0,0c0,0,0,0,0,0
		c-2.8,0-5.6,0-8.5,0c0,1.4,0,2.8,0,4.3c-1.5,0-2.8,0-4.2,0c0-4.2,0-8.4,0-12.7c2.8,0,5.6,0,8.5,0c0-2.9,0-5.7,0-8.4c0,0,0,0,0,0
		c0,0,0,0,0,0c-1.4,0-2.8,0-4.2,0c0,0,0,0,0,0c0,0,0,0,0,0c0,1.3,0,2.6,0,4c-1.4,0-2.8,0-4.2,0c0-1.3,0-2.6,0-4c1.4,0,2.8,0,4.2,0
		c0,0,0,0,0,0c0,0,0,0,0,0c0-4.2,0-8.5,0-12.8c-2.9,0-5.7,0-8.6,0c0,1.4,0,2.8,0,4.2c1.4,0,2.7,0,4.1,0c0,1.4,0,2.8,0,4.2
		c-1.3,0-2.7,0-4.2,0c0,1.5,0,2.8,0,4.3c-1.4,0-2.7,0-4.1,0c0-5.6,0-11.3,0-17c7,0,14,0,21.2,0c0,4.3,0,8.5,0,12.8c0,0,0,0,0,0
		c0,0,0,0,0,0c1.4,0,2.8,0,4.3,0c0-1.4,0-2.8,0-4.2c4.3,0,8.5,0,12.8,0c0,2.8,0,5.6,0,8.5c2.9,0,5.7,0,8.6,0c0,1.4,0,2.8,0,4.1
		c0,0,0,0,0,0c0,0,0,0,0,0c1.4,0,2.8,0,4.3,0c0-2.8,0-5.5,0-8.3c1.4,0,2.7,0,4.1,0c0,1.4,0,2.7,0,4.2c1.5,0,2.8,0,4.2,0
		c0,1.4,0,2.7,0,4.1c-1.4,0-2.7,0-4.2,0c0,1.4,0,2.8,0,4.3c-2.9,0-5.7,0-8.4,0c0,0,0,0,0,0c0,0,0,0,0,0c0,1.4,0,2.8,0,4.3
		c0,0,0,0,0,0c0,0,0,0,0,0c2.8,0,5.5,0,8.4,0c0,1.5,0,2.9,0,4.3c0,0,0,0,0,0c0,0,0,0,0,0c2.8,0,5.6,0,8.5,0c0,1.5,0,2.8,0,4.3
		c1.5,0,2.9,0,4.3,0c0-2.9,0-5.7,0-8.5c-1.4,0-2.8,0-4.2,0c0-1.4,0-2.8,0-4.2c1.4,0,2.7,0,4.1,0c0-1.5,0-2.8,0-4.3
		c-1.3,0-2.7,0-4.2,0c0-0.4,0-0.7,0-1.1c0-3.6,0-7.1,0-10.7c0-0.3,0-0.6-0.1-1c-1.4,0-2.7,0-4.2,0c0-1.4,0-2.8,0-4.3
		c-1.5,0-2.9,0-4.3,0c0,1.4,0,2.7,0,4.2c-1.4,0-2.7,0-4.1,0c0-1.3,0-2.7,0-4.2c-1.5,0-2.9,0-4.3,0c0,0,0,0,0,0c0,0,0,0,0,0
		c0,2.8,0,5.6,0,8.5c-1.4,0-2.8,0-4.3,0c0-2.8,0-5.6,0-8.5c0,0,0,0,0,0c0,0,0,0,0,0c-5.7,0-11.3,0-17,0c0-1.4,0-2.8,0-4.2
		c4.2,0,8.4,0,12.8,0c0-1.5,0-2.9,0-4.3c0,0,0,0,0,0c0,0,0,0,0,0c-1.4,0-2.8,0-4.2,0c0-2.9,0-5.6,0-8.5c1.4,0,2.7,0,4.1,0
		c0-1.5,0-2.8,0-4.3c-1.3,0-2.7,0-4.1,0c0-1.5,0-2.8,0-4.2c4.2,0,8.4,0,12.7,0c0,1.3,0,2.7,0,4.2c-1.4,0-2.7,0-4.2,0
		c0,2.9,0,5.8,0,8.6c0,0,0,0,0,0c0,0,0,0,0,0c1.4,0,2.8,0,4.3,0c0,0,0,0,0,0c0,0,0,0,0,0c0-1.4,0-2.8,0-4.2c2.8,0,5.6,0,8.3,0
		c0,2.8,0,5.6,0,8.5c-1.4,0-2.7,0-4.1,0c0,0,0,0,0,0c0,0,0,0,0,0c0,1.4,0,2.8,0,4.3c8.5,0,17,0,25.5,0c0,2.9,0,5.7,0,8.6
		c1.5,0,2.9,0,4.3,0c0-2.8,0-5.6,0-8.5c1.4,0,2.8,0,4.2,0c0,4.2,0,8.4,0,12.7c-1.4,0-2.7,0-4.2,0c0,1.6,0,3.2,0,4.7
		c0,1.2-0.1,2.4-0.1,3.6c1.5,0,2.9,0.1,4.4,0.1c0,0,0,0,0,0c0,0,0,0,0,0c0-1.3,0-2.6,0-4c1.5,0,2.8,0,4.3,0c0,1.3,0,2.7,0,4
		c0,0,0,0,0,0c0,0,0,0,0,0c1.4,0,2.8,0,4.3,0c0,0,0,0,0,0c0,0,0,0,0,0c0-1.3,0-2.6,0-4.1c2.9,0,5.7,0,8.6,0c0-2.9,0-5.7,0-8.5
		c1.5,0,2.8,0,4.2,0C-172.1,76.4-172.1,80.6-172.1,84.8z"/>
	<path class="st3" d="M-236.2,97.7c-1.5,0-2.9,0-4.2,0c0,0,0,0,0,0c0,0,0,0,0,0c0,2.9,0,5.7,0,8.6c1.5,0,2.9,0,4.3,0c0,0,0,0,0,0
		c0,0,0,0,0,0c0-1.4,0-2.7,0-4.1c2.9,0,5.7,0,8.5,0c0,1.4,0,2.7,0,4.1c-2.9,0-5.7,0-8.5,0c0,0,0,0,0,0c0,0,0,0,0,0
		c0,2.9,0,5.7,0,8.5c1.5,0,2.9,0,4.4,0c0-1.4,0-2.8,0-4.2c0.5,0,0.9,0,1.3,0c2.3,0,4.7,0,7-0.1c0-1.4,0-2.8,0-4.3c1.6,0,2.9,0,4.3,0
		c0-1.5,0-2.8,0-4.3c-1.4,0-2.8,0-4.3,0c0-1.5,0-2.9,0-4.3c0,0,0,0,0,0c0,0,0,0,0,0c-2.8,0-5.5,0-8.4,0c0-1.5,0-2.9,0-4.3
		c0,0,0,0,0,0c0,0,0,0,0,0c-1.4,0-2.8,0-4.3,0C-236.2,94.9-236.2,96.2-236.2,97.7z"/>
	<path class="st3" d="M-184.9,93.4C-184.9,93.4-184.9,93.4-184.9,93.4C-184.9,93.4-184.9,93.4-184.9,93.4c0,1.5,0,2.9,0,4.3
		c1.5,0,2.9,0,4.3,0c0,0,0,0,0,0c0,0,0,0,0,0c0-1.4,0-2.8,0-4.3C-182.1,93.4-183.5,93.4-184.9,93.4z"/>
	<path class="st3" d="M-197.7,55c7.2,0,14.3,0,21.4,0c0-7.1,0-14.2,0-21.3c-7.2,0-14.3,0-21.4,0C-197.7,40.8-197.7,47.9-197.7,55z
		 M-193.4,37.9c4.2,0,8.4,0,12.7,0c0,4.2,0,8.4,0,12.7c-4.3,0-8.5,0-12.7,0C-193.4,46.4-193.4,42.2-193.4,37.9z"/>
	<path class="st3" d="M-214.8,114.8c1.4,0,2.8,0,4.2,0c0-2.9,0-5.7,0-8.5c-1.5,0-2.8,0-4.2,0C-214.8,109.2-214.8,112-214.8,114.8z"
		/>
	<path class="st3" d="M-202,76.5c-1.5,0-2.9,0-4.3,0c0,5.7,0,11.3,0,16.9c1.4,0,2.8,0,4.3,0c0-1.4,0-2.8,0-4.2c1.4,0,2.8,0,4.3,0
		c-0.1-1.5-0.1-3-0.2-4.4c-1.3,0-2.7,0-4.1,0C-202,82-202,79.2-202,76.5z"/>
	<path class="st3" d="M-189.1,97.7c0-1.4,0-2.8,0-4.3c1.5,0,2.8,0,4.2,0c0,0,0,0,0,0c0,0,0,0,0,0c0-1.4,0-2.8,0-4.3c0,0,0,0,0,0
		c0,0,0,0,0,0c-1.4,0-2.7,0-4.3,0c0-1.5,0-2.9,0-4.3c0,0,0,0,0,0c0,0,0,0,0,0c-1.4,0-2.8,0-4.3,0c0,0,0,0,0,0c0,0,0,0,0,0
		c0,4.3,0,8.5,0,12.8C-192,97.7-190.6,97.7-189.1,97.7z"/>
	<path class="st3" d="M-197.8,119.2c0,1.4,0,2.8,0,4.2c0,0,0,0,0,0c0,0,0,0,0,0c1.4,0,2.8,0,4.3,0c0,0,0,0,0,0c0,0,0,0,0,0
		c0-1.4,0-2.8,0-4.2C-195,119.2-196.3,119.2-197.8,119.2z"/>
	<path class="st3" d="M-253.3,110.6c-7.2,0-14.2,0-21.4,0c0,7.1,0,14.2,0,21.3c7.2,0,14.3,0,21.4,0
		C-253.3,124.8-253.3,117.7-253.3,110.6z M-257.7,127.6c-4.2,0-8.4,0-12.7,0c0-4.2,0-8.4,0-12.7c4.2,0,8.4,0,12.7,0
		C-257.7,119.1-257.7,123.3-257.7,127.6z"/>
	<path d="M-244.8,93.4C-244.8,93.4-244.8,93.4-244.8,93.4C-244.7,93.4-244.7,93.4-244.8,93.4L-244.8,93.4z"/>
	<path d="M-180.7,114.8C-180.7,114.8-180.7,114.8-180.7,114.8C-180.7,114.8-180.7,114.8-180.7,114.8L-180.7,114.8z"/>
	<path d="M-223.5,97.7C-223.5,97.7-223.5,97.7-223.5,97.7L-223.5,97.7C-223.5,97.7-223.5,97.7-223.5,97.7z"/>
	<path d="M-236.2,106.2C-236.2,106.2-236.2,106.2-236.2,106.2C-236.2,106.3-236.2,106.3-236.2,106.2L-236.2,106.2z"/>
	<path d="M-240.5,97.7C-240.5,97.7-240.5,97.7-240.5,97.7C-240.5,97.7-240.4,97.7-240.5,97.7L-240.5,97.7z"/>
	<path d="M-227.6,59.3C-227.6,59.3-227.6,59.3-227.6,59.3L-227.6,59.3C-227.6,59.3-227.6,59.3-227.6,59.3z"/>
	<ellipse transform="matrix(0.8303 -0.5573 0.5573 0.8303 -80.8067 -95.894)" cx="-197.9" cy="84.7" rx="0" ry="0"/>
	<path d="M-193.5,84.8C-193.5,84.8-193.5,84.8-193.5,84.8C-193.5,84.8-193.5,84.8-193.5,84.8L-193.5,84.8z"/>
	<path d="M-184.9,93.4C-184.9,93.4-184.9,93.4-184.9,93.4L-184.9,93.4C-184.9,93.4-184.9,93.4-184.9,93.4z"/>
	<path d="M-180.6,119.1C-180.7,119.1-180.7,119.1-180.6,119.1C-180.7,119.1-180.7,119.1-180.6,119.1L-180.6,119.1z"/>
	<path d="M-231.9,67.9C-231.9,67.9-231.9,67.9-231.9,67.9C-231.9,67.8-231.9,67.8-231.9,67.9L-231.9,67.9z"/>
	<ellipse transform="matrix(0.7423 -0.67 0.67 0.7423 -131.6404 -121.2623)" cx="-223.5" cy="110.5" rx="0" ry="0"/>
	<path d="M-231.9,55C-231.9,55-231.9,55-231.9,55C-231.9,55-231.9,55-231.9,55L-231.9,55z"/>
	<path d="M-236.2,67.8C-236.2,67.9-236.2,67.9-236.2,67.8L-236.2,67.8C-236.2,67.8-236.2,67.8-236.2,67.8z"/>
	<path d="M-240.5,59.3C-240.5,59.3-240.4,59.3-240.5,59.3C-240.4,59.3-240.4,59.3-240.5,59.3L-240.5,59.3z"/>
	<path d="M-236.2,55C-236.2,55-236.2,55-236.2,55L-236.2,55C-236.2,55-236.2,55-236.2,55z"/>
	<ellipse transform="matrix(0.6657 -0.7462 0.7462 0.6657 -125.6817 -136.2667)" cx="-214.9" cy="72.1" rx="0" ry="0"/>
	<ellipse transform="matrix(0.6679 -0.7442 0.7442 0.6679 -167.4034 -128.416)" cx="-227.6" cy="123.4" rx="0" ry="0"/>
	<ellipse transform="matrix(0.4995 -0.8663 0.8663 0.4995 -226.1263 -127.6728)" cx="-223.6" cy="131.9" rx="0" ry="0"/>
	<path d="M-236.2,131.9C-236.2,132-236.2,132-236.2,131.9L-236.2,131.9C-236.2,131.9-236.2,131.9-236.2,131.9z"/>
	<ellipse transform="matrix(0.7615 -0.6482 0.6482 0.7615 -136.3148 -123.6554)" cx="-236.2" cy="123.4" rx="0" ry="0"/>
	<path d="M-257.6,97.7C-257.6,97.7-257.6,97.7-257.6,97.7C-257.6,97.7-257.6,97.7-257.6,97.7L-257.6,97.7z"/>
	<path d="M-180.7,97.7C-180.6,97.7-180.6,97.7-180.7,97.7L-180.7,97.7C-180.7,97.7-180.7,97.7-180.7,97.7z"/>
	<path d="M-197.8,123.4C-197.8,123.4-197.8,123.4-197.8,123.4L-197.8,123.4C-197.8,123.4-197.8,123.4-197.8,123.4z"/>
	<path d="M-193.5,123.4C-193.5,123.4-193.5,123.4-193.5,123.4C-193.5,123.4-193.5,123.4-193.5,123.4L-193.5,123.4z"/>
	<path d="M-231.9,132C-231.9,132-231.9,132-231.9,132C-231.9,131.9-231.9,131.9-231.9,132L-231.9,132z"/>
	<path d="M-244.7,89.1C-244.7,89.1-244.7,89.1-244.7,89.1C-244.8,89.1-244.8,89.1-244.7,89.1L-244.7,89.1z"/>
	<path d="M-257.6,97.7C-257.6,97.7-257.6,97.7-257.6,97.7L-257.6,97.7C-257.6,97.7-257.6,97.7-257.6,97.7z"/>
	<path d="M-257.6,76.5C-257.6,76.4-257.6,76.4-257.6,76.5L-257.6,76.5C-257.6,76.5-257.6,76.5-257.6,76.5z"/>
	<ellipse transform="matrix(0.7167 -0.6974 0.6974 0.7167 -125.0725 -155.0029)" cx="-253.3" cy="76.4" rx="0" ry="0"/>
	<path d="M-261.9,80.7C-261.9,80.7-261.9,80.7-261.9,80.7C-261.9,80.7-261.9,80.7-261.9,80.7L-261.9,80.7z"/>
	<path d="M-231.9,84.8C-231.9,84.8-231.9,84.8-231.9,84.8C-231.9,84.8-231.9,84.8-231.9,84.8L-231.9,84.8z"/>
	<path d="M-266.1,80.7C-266.1,80.7-266.1,80.7-266.1,80.7C-266.1,80.7-266.2,80.7-266.1,80.7L-266.1,80.7z"/>
	<path d="M-257.6,76.4C-257.6,76.4-257.6,76.4-257.6,76.4C-257.6,76.4-257.6,76.4-257.6,76.4L-257.6,76.4z"/>
	<path d="M-261.9,80.7C-261.9,80.7-261.9,80.7-261.9,80.7L-261.9,80.7C-261.9,80.7-261.9,80.7-261.9,80.7z"/>
	<path d="M-184.9,84.8C-184.9,84.8-184.9,84.8-184.9,84.8L-184.9,84.8C-184.9,84.8-184.9,84.8-184.9,84.8z"/>
	<path d="M-184.9,89.1C-184.9,89.1-184.9,89.1-184.9,89.1C-184.9,89.1-184.9,89.1-184.9,89.1L-184.9,89.1z"/>
	<path d="M-180.6,97.7C-180.6,97.7-180.6,97.7-180.6,97.7C-180.6,97.7-180.6,97.7-180.6,97.7L-180.6,97.7z"/>
	<path d="M-184.9,93.4C-184.9,93.4-184.9,93.4-184.9,93.4C-184.9,93.4-184.9,93.4-184.9,93.4L-184.9,93.4z"/>
	<path d="M-210.7,33.6C-210.7,33.6-210.7,33.6-210.7,33.6C-210.7,33.6-210.7,33.6-210.7,33.6L-210.7,33.6z"/>
	<path d="M-214.9,50.7C-214.9,50.7-214.9,50.7-214.9,50.7C-215,50.7-215,50.7-214.9,50.7C-215,50.7-214.9,50.7-214.9,50.7z"/>
	<path d="M-240.5,59.3C-240.5,59.3-240.5,59.3-240.5,59.3L-240.5,59.3C-240.4,59.3-240.5,59.3-240.5,59.3z"/>
	<path d="M-236.2,55C-236.2,55-236.2,55-236.2,55C-236.2,55-236.2,55-236.2,55L-236.2,55z"/>
	<path d="M-180.6,123.4C-180.6,123.4-180.6,123.3-180.6,123.4C-180.7,123.3-180.7,123.3-180.6,123.4
		C-180.7,123.3-180.6,123.4-180.6,123.4z"/>
	<path d="M-180.6,119.1C-180.6,119.1-180.6,119.1-180.6,119.1L-180.6,119.1C-180.7,119.1-180.7,119.1-180.6,119.1z"/>
	<path d="M-231.9,84.8C-231.9,84.8-231.9,84.8-231.9,84.8L-231.9,84.8C-231.9,84.8-231.9,84.8-231.9,84.8z"/>
	<path d="M-231.9,89.1C-231.9,89.1-231.9,89.1-231.9,89.1C-231.9,89.1-231.9,89.1-231.9,89.1L-231.9,89.1z"/>
	<path d="M-231.9,93.4C-231.9,93.4-231.9,93.4-231.9,93.4C-231.9,93.4-231.9,93.4-231.9,93.4L-231.9,93.4z"/>
	<path d="M-244.7,89.1C-244.7,89.1-244.7,89.1-244.7,89.1L-244.7,89.1C-244.7,89.1-244.7,89.1-244.7,89.1z"/>
	<path d="M-240.4,97.7C-240.4,97.7-240.4,97.7-240.4,97.7C-240.4,97.7-240.5,97.7-240.4,97.7L-240.4,97.7z"/>
	<path d="M-231.9,89.1C-231.9,89.1-231.9,89.1-231.9,89.1L-231.9,89.1C-231.9,89.1-231.9,89.1-231.9,89.1z"/>
	<path d="M-244.7,93.4C-244.7,93.4-244.7,93.4-244.7,93.4C-244.7,93.4-244.7,93.4-244.7,93.4L-244.7,93.4z"/>
	<path d="M-180.7,114.8C-180.7,114.8-180.7,114.8-180.7,114.8L-180.7,114.8C-180.7,114.8-180.7,114.8-180.7,114.8z"/>
	<path d="M-227.6,59.3C-227.6,59.3-227.6,59.3-227.6,59.3C-227.6,59.3-227.6,59.3-227.6,59.3L-227.6,59.3z"/>
	<path d="M-231.9,55C-231.9,55-231.9,55-231.9,55L-231.9,55C-231.9,55-231.9,55-231.9,55z"/>
	<path d="M-236.2,67.9C-236.2,67.9-236.2,67.9-236.2,67.9C-236.2,67.9-236.2,67.9-236.2,67.9L-236.2,67.9z"/>
	<path d="M-231.9,67.9C-231.9,67.9-231.9,67.9-231.9,67.9L-231.9,67.9C-231.9,67.9-231.9,67.9-231.9,67.9z"/>
	<path d="M-197.8,127.6L-197.8,127.6C-197.8,127.6-197.8,127.6-197.8,127.6C-197.8,127.7-197.8,127.7-197.8,127.6
		C-197.8,127.7-197.8,127.6-197.8,127.6L-197.8,127.6z"/>
	<path d="M-223.5,97.7C-223.5,97.7-223.5,97.7-223.5,97.7C-223.5,97.7-223.5,97.7-223.5,97.7L-223.5,97.7z"/>
	<path d="M-231.9,93.4C-231.9,93.4-231.9,93.4-231.9,93.4L-231.9,93.4C-231.9,93.4-231.9,93.4-231.9,93.4z"/>
	<path d="M-236.2,132C-236.2,132-236.2,132-236.2,132C-236.2,132-236.2,132-236.2,132L-236.2,132z"/>
	<path d="M-231.9,132C-231.9,132-231.9,132-231.9,132L-231.9,132C-231.9,132-231.9,132-231.9,132z"/>
	<polygon points="-193.5,127.7 -193.5,127.7 -193.5,127.7 	"/>
	<path d="M-193.5,127.7C-193.5,127.7-193.5,127.7-193.5,127.7C-193.5,127.7-193.5,127.7-193.5,127.7
		C-193.5,127.7-193.5,127.7-193.5,127.7z"/>
	<path d="M-197.8,123.4C-197.8,123.4-197.8,123.4-197.8,123.4C-197.8,123.4-197.8,123.4-197.8,123.4L-197.8,123.4z"/>
	<path d="M-193.5,123.4C-193.5,123.4-193.5,123.4-193.5,123.4L-193.5,123.4C-193.5,123.4-193.5,123.4-193.5,123.4z"/>
	<path d="M-197.8,127.7C-197.8,127.6-197.8,127.6-197.8,127.7C-197.8,127.6-197.8,127.6-197.8,127.7
		C-197.8,127.6-197.8,127.7-197.8,127.7z"/>
	<path d="M-193.5,127.7C-193.5,127.7-193.5,127.7-193.5,127.7C-193.5,127.7-193.5,127.7-193.5,127.7
		C-193.5,127.7-193.5,127.7-193.5,127.7z"/>
	<path d="M-197.8,127.6L-197.8,127.6L-197.8,127.6z"/>
	<polygon points="-193.5,127.7 -193.5,127.7 -193.5,127.7 	"/>
	<path d="M-214.9,55C-214.9,55-214.9,55-214.9,55C-214.9,55-214.9,55-214.9,55L-214.9,55z"/>
	<path d="M-210.7,55C-210.7,55-210.7,55-210.7,55C-210.7,55-210.7,55-210.7,55C-210.7,55-210.7,55-210.7,55z"/>
	<path d="M-214.9,50.7C-214.9,50.7-214.9,50.7-214.9,50.7C-214.9,50.7-215,50.7-214.9,50.7C-214.9,50.7-214.9,50.7-214.9,50.7z"/>
	<path d="M-214.9,55C-214.9,55-214.9,55-214.9,55C-214.9,55-214.9,55-214.9,55C-214.9,55-214.9,55-214.9,55z"/>
	<path d="M-210.7,55L-210.7,55L-210.7,55z"/>
	<path d="M-210.7,55C-210.7,55-210.7,55-210.7,55L-210.7,55C-210.7,55-210.7,55-210.7,55z"/>
	<polygon points="-210.7,55 -210.7,55 -210.7,55 	"/>
	<path d="M-184.9,84.8C-184.9,84.8-184.9,84.8-184.9,84.8C-184.9,84.8-184.9,84.8-184.9,84.8L-184.9,84.8z"/>
	<path d="M-184.9,89.1C-184.9,89.1-184.9,89.1-184.9,89.1L-184.9,89.1C-184.9,89.1-184.9,89.1-184.9,89.1z"/>
	<path d="M-189.2,84.8C-189.2,84.8-189.2,84.8-189.2,84.8L-189.2,84.8C-189.2,84.8-189.2,84.8-189.2,84.8z"/>
	<polygon points="-180.6,123.4 -180.6,123.4 -180.6,123.4 	"/>
	<path d="M-180.7,123.4C-180.7,123.4-180.7,123.4-180.7,123.4L-180.7,123.4C-180.7,123.3-180.7,123.4-180.7,123.4z"/>
	<polygon points="-180.6,123.4 -180.6,123.4 -180.7,123.3 	"/>
	<path d="M-266.2,80.7C-266.2,80.7-266.1,80.7-266.2,80.7L-266.2,80.7C-266.2,80.7-266.2,80.7-266.2,80.7z"/>
	<path d="M-189.2,84.8C-189.2,84.8-189.2,84.8-189.2,84.8C-189.2,84.8-189.2,84.8-189.2,84.8L-189.2,84.8z"/>
	<path d="M-193.5,84.8C-193.5,84.8-193.5,84.8-193.5,84.8L-193.5,84.8C-193.5,84.8-193.5,84.8-193.5,84.8z"/>
	<path d="M-210.7,33.6C-210.7,33.6-210.7,33.6-210.7,33.6C-210.7,33.6-210.7,33.6-210.7,33.6C-210.7,33.6-210.7,33.6-210.7,33.6z"/>
	<path d="M-236.2,106.2C-236.2,106.2-236.2,106.2-236.2,106.2L-236.2,106.2C-236.2,106.2-236.2,106.2-236.2,106.2z"/>
	<ellipse transform="matrix(0.6482 -0.7615 0.7615 0.6482 -158.7289 -156.7576)" cx="-249" cy="93.4" rx="0" ry="0"/>
	<ellipse transform="matrix(0.6873 -0.7264 0.7264 0.6873 -142.6028 -153.0135)" cx="-249" cy="89.1" rx="0" ry="0"/>
	<ellipse transform="matrix(0.7264 -0.6873 0.6873 0.7264 -130.5571 -149.7182)" cx="-253.3" cy="89.1" rx="0" ry="0"/>
</g>
<g>
	<path class="st0" d="M-578.8,678.7h-19.7c-3,0-5.8,1.6-7.4,4.2l-9.9,17.1c-1.5,2.6-1.5,5.9,0,8.5l9.9,17.1c1.5,2.6,4.3,4.2,7.4,4.2
		h19.7c3,0,5.8-1.6,7.4-4.2l9.9-17.1c1.5-2.6,1.5-5.9,0-8.5l-3.1-5.4l-11.7,20.3c-4.4,7.5-12.7,7.8-20.3,3.4
		c-7.6-4.4-11.6-11.8-7.2-19.3l4.6-7.9c0,0,2-3.5,5-1.7c3.2,1.9,1.2,5.4,1.2,5.4l-5.3,9.3v0c-0.2,0.3-1.2,2.4,0.9,3.6
		c2,1.1,3.3-0.8,3.5-1.1l5.4-9.3c0,0,2-3.5,5-1.7c3.2,1.8,1.2,5.3,1.2,5.3l-5.4,9.3v0c0,0-1.3,2.3,0.9,3.6c1.9,1.1,3.2-0.7,3.5-1.1
		l14.6-25.3l-2.6-4.5C-573,680.3-575.8,678.7-578.8,678.7"/>
</g>
<g>
	<path class="st9" d="M-634.4,775.6c0,4.3,3.5,7.8,7.8,7.8h74.3c4.3,0,7.8-3.5,7.8-7.8V648.9h-90V775.6z"/>
	<path class="st0" d="M-552.2,626.4h-74.3c-8.2,0-14.8,6.7-14.8,14.8v134.3c0,8.2,6.7,14.8,14.8,14.8h74.3c8.2,0,14.8-6.7,14.8-14.8
		V641.2C-537.4,633.1-544,626.4-552.2,626.4z M-594.8,639.8h12.7c1,0,1.8,0.6,1.8,1.4s-0.8,1.4-1.8,1.4h-12.7c-1,0-1.8-0.6-1.8-1.4
		S-595.7,639.8-594.8,639.8z M-602.6,639.2c1.1,0,2,0.9,2,2s-0.9,2-2,2c-1.1,0-2-0.9-2-2C-604.6,640.1-603.7,639.2-602.6,639.2z
		 M-544.4,775.6c0,4.3-3.5,7.8-7.8,7.8h-74.3c-4.3,0-7.8-3.5-7.8-7.8V648.9h90V775.6z"/>
</g>
<g>
	<path class="st3" d="M180.5,983.4L144,920.2c-3.1-5.4-10.8-9.8-17-9.8H54c-6.2,0-13.9,4.4-17,9.8L0.5,983.4
		c-3.1,5.4-3.1,14.2,0,19.6l36.5,63.2c3.1,5.4,10.8,9.8,17,9.8h73c6.2,0,13.9-4.4,17-9.8l36.5-63.2
		C183.7,997.7,183.7,988.8,180.5,983.4z M91.9,1044.7L81,1063.5c-0.9,1.6-3.2,2.9-5.1,2.9H54.2c-1.9,0-4.1-1.3-5.1-2.9l-10.9-18.8
		c-0.9-1.6-0.9-4.2,0-5.9l10.9-18.8c0.9-1.6,3.2-2.9,5.1-2.9H76c1.9,0,4.1,1.3,5.1,2.9l10.9,18.8
		C92.8,1040.4,92.8,1043.1,91.9,1044.7z M92.2,1006.5H55c-3.2,0-7.1-2.3-8.7-5l-18.6-32.3c-1.6-2.8-1.6-7.3,0-10L46.3,927
		c1.6-2.8,5.5-5,8.7-5h37.2c3.2,0,7.1,2.3,8.7,5l18.6,32.3c1.6,2.8,1.6,7.3,0,10l-18.6,32.3C99.3,1004.3,95.4,1006.5,92.2,1006.5z
		 M170.7,996.1l-10.5,18.2c-0.9,1.6-3.1,2.8-4.9,2.8h-21c-1.8,0-4-1.3-4.9-2.8L119,996.1c-0.9-1.6-0.9-4.1,0-5.6l10.5-18.2
		c0.9-1.6,3.1-2.8,4.9-2.8h21c1.8,0,4,1.3,4.9,2.8l10.5,18.2C171.6,992,171.6,994.5,170.7,996.1z"/>
</g>
<path class="st3" d="M83.5,982.8c-0.4-1.3-0.9-2.6-1.3-4c-0.5-1.4-0.9-2.7-1.4-4.1H66.2c-0.5,1.4-0.9,2.7-1.4,4.1
	c-0.5,1.4-0.9,2.7-1.3,4h-8.7c1.4-4,2.7-7.7,4-11.1s2.5-6.6,3.7-9.6c1.2-3,2.4-5.8,3.5-8.5s2.4-5.3,3.6-7.9h7.9
	c1.2,2.6,2.4,5.2,3.6,7.9c1.2,2.7,2.4,5.5,3.6,8.5c1.2,3,2.4,6.2,3.7,9.6s2.6,7.1,4,11.1L83.5,982.8L83.5,982.8z M73.4,954.1
	c-0.2,0.5-0.5,1.3-0.8,2.2c-0.4,0.9-0.8,2-1.2,3.2c-0.5,1.2-1,2.6-1.5,4c-0.6,1.5-1.1,3-1.7,4.6h10.6c-0.6-1.6-1.1-3.1-1.6-4.6
	c-0.5-1.5-1-2.8-1.5-4c-0.5-1.2-0.9-2.3-1.3-3.2C73.9,955.3,73.7,954.6,73.4,954.1z"/>
<path class="st3" d="M65,1028c4.3,0,7.7,0.8,10,2.3c2.3,1.5,3.5,4,3.5,7.5c0,3.5-1.2,6-3.5,7.6c-2.4,1.6-5.7,2.3-10.1,2.3h-2.1v9.7
	h-6.6v-28.7c1.4-0.3,2.9-0.5,4.5-0.6C62.4,1028.1,63.8,1028,65,1028z M65.4,1033.6c-0.5,0-0.9,0-1.4,0c-0.5,0-0.9,0.1-1.2,0.1v8.4
	h2.1c2.3,0,4-0.3,5.1-0.9c1.1-0.6,1.7-1.8,1.7-3.4c0-0.8-0.1-1.5-0.4-2c-0.3-0.5-0.7-1-1.3-1.3s-1.2-0.5-2-0.7
	C67.2,1033.7,66.4,1033.6,65.4,1033.6z"/>
<path class="st3" d="M141.5,978.7h6.6v29.1h-6.6V978.7z"/>
<g>
	<path class="st3" d="M180.5,1286.9l-36.5-63.2c-3.1-5.4-10.8-9.8-17-9.8H54c-6.2,0-13.9,4.4-17,9.8l-36.5,63.2
		c-3.1,5.4-3.1,14.2,0,19.6l36.5,63.2c0.5,0.9,1.2,1.8,2,2.7l0-21.5c-0.2-2.3,0.2-4.8,1.3-6.5l20.4-35.3c1.7-3,6-5.5,9.5-5.5h40.7
		c3.5,0,7.8,2.5,9.5,5.5l20.4,35.3c1,1.8,1.4,4.2,1.3,6.5l0,21.5c0.8-0.9,1.5-1.8,2-2.7l36.5-63.2
		C183.7,1301.1,183.7,1292.3,180.5,1286.9z M118.6,1274l-11.4,19.7c-1,1.7-3.4,3.1-5.3,3.1H79.2c-1.9,0-4.3-1.4-5.3-3.1L62.5,1274
		c-1-1.7-1-4.4,0-6.1l11.4-19.7c1-1.7,3.4-3.1,5.3-3.1h22.7c1.9,0,4.3,1.4,5.3,3.1l11.4,19.7C119.5,1269.5,119.5,1272.3,118.6,1274z
		"/>
	<path class="st0" d="M127,1379.6H54c-5.2,0-11.3-3-15-7.1l0,17.7h103.1l0-17.7C138.3,1376.5,132.2,1379.6,127,1379.6z"/>
</g>
<path class="st0" d="M-34.9,331.2"/>
<g>
	<g>
		<path class="st0" d="M227.8,206.4c3.2,0,3.2-5,0-5S224.6,206.4,227.8,206.4L227.8,206.4z"/>
	</g>
</g>
<g>
	<path class="st3" d="M35.4,150l3.4,5.9c3.1,5.4,10.8,9.8,17,9.8h73c6.2,0,13.9-4.4,17-9.8l36.5-63.2c3.1-5.4,3.1-14.2,0-19.6
		l-13.6-23.6H35.4V150z M47.2,60.2c19.3,0,38.6,0,58,0c0,19.3,0,38.6,0,58c-19.3,0-38.6,0-58,0C47.2,98.9,47.2,79.6,47.2,60.2z"/>
	<path class="st3" d="M55.2,109.9c14,0,27.9,0,41.8,0c0-14,0-27.8,0-41.7c-14,0-27.8,0-41.8,0C55.2,82.2,55.2,96,55.2,109.9z
		 M63.7,76.6c8.3,0,16.5,0,24.8,0c0,8.3,0,16.5,0,24.8c-8.2,0-16.5,0-24.8,0C63.7,93.2,63.7,85,63.7,76.6z"/>
	<path class="st3" d="M164.7,42.4L145.9,9.8c-3.1-5.4-10.8-9.8-17-9.8h-73c-6.2,0-13.9,4.4-17,9.8L2.3,73c-3.1,5.4-3.1,14.2,0,19.6
		l26.1,45.2V42.4H164.7z"/>
</g>
<g>
	<path class="st3" d="M72.6,82.2l2.5-0.4v3.3h3.9v2.1h-3.9v4.5c0,0.9,0.1,1.5,0.4,1.9c0.3,0.4,0.8,0.6,1.4,0.6c0.5,0,0.9,0,1.2-0.1
		c0.4-0.1,0.6-0.2,0.9-0.3l0.4,2c-0.3,0.1-0.7,0.3-1.2,0.4c-0.5,0.1-1,0.2-1.7,0.2c-0.8,0-1.4-0.1-2-0.3c-0.5-0.2-0.9-0.5-1.2-0.9
		c-0.3-0.4-0.5-0.9-0.7-1.4c-0.1-0.6-0.2-1.2-0.2-1.9L72.6,82.2L72.6,82.2z"/>
</g>
<path class="st0" d="M70.8,1948.5c-3.4,0-7.5-2.4-9.2-5.3l-19.8-34.3c-1.7-2.9-1.7-7.7,0-10.6l19.8-34.3c1.7-2.9,5.8-5.3,9.2-5.3
	h39.6c3.4,0,7.5,2.4,9.2,5.3l19.8,34.3c1.7,2.9,1.7,7.7,0,10.6l-19.8,34.3c-1.7,2.9-5.8,5.3-9.2,5.3L70.8,1948.5L70.8,1948.5z"/>
<path class="st0" d="M27.6,1875c0.2-1.2,0.2-2.4,0.2-3.8c0-1.3-0.3-2.6-0.6-3.8l1.2-2.1l17.3,10l-1.7,3l-13.3-7.7
	c0.1,0.7,0.1,1.4,0,2.3c-0.1,0.9-0.2,1.7-0.3,2.5L27.6,1875z"/>
<path class="st0" d="M152.7,1875c-0.6,0.3-1.3,0.6-2,0.6c-0.7,0.1-1.5,0.1-2.2,0c-0.8-0.1-1.6-0.2-2.3-0.4c-0.8-0.2-1.6-0.4-2.4-0.6
	c-0.4-0.1-0.9-0.3-1.4-0.4s-1.1-0.2-1.6-0.3c-0.5-0.1-1-0.2-1.5-0.2c-0.4,0-0.8,0-1,0.1l4.4,7.7l-2.6,1.5l-6.4-11
	c0.1-0.1,0.3-0.2,0.5-0.3c0.2-0.1,0.3-0.2,0.4-0.3c0.8-0.5,1.6-0.8,2.4-0.9c0.8-0.1,1.6-0.2,2.5-0.1c0.8,0.1,1.6,0.2,2.5,0.4
	c0.8,0.2,1.6,0.4,2.4,0.7c0.6,0.2,1.2,0.3,1.8,0.5c0.6,0.2,1.1,0.3,1.6,0.3c0.5,0.1,1,0.1,1.5,0c0.5-0.1,0.9-0.2,1.3-0.4
	c0.9-0.5,1.3-1.1,1.4-1.8c0.1-0.7-0.1-1.4-0.5-2.1c-0.3-0.5-0.6-0.9-1-1.2c-0.4-0.3-0.7-0.6-1.1-0.8c-0.4-0.2-0.7-0.4-1-0.5
	c-0.3-0.1-0.6-0.2-0.8-0.3l1.3-2.7c1.1,0.3,2.1,0.8,3,1.5c1,0.7,1.7,1.6,2.4,2.7c1.1,1.9,1.4,3.5,1,4.9
	C155.2,1873,154.2,1874.1,152.7,1875z"/>
<path class="st0" d="M89.4,1977.3c-0.5,0-1.1,0-1.6-0.1c-0.5-0.1-1.1-0.2-1.6-0.3c-0.5-0.1-0.9-0.2-1.3-0.3
	c-0.4-0.1-0.7-0.2-0.9-0.4l0.7-3c0.4,0.2,1,0.4,1.8,0.7c0.8,0.2,1.7,0.4,2.9,0.4c1.5,0,2.6-0.3,3.3-0.9c0.7-0.6,1-1.4,1-2.4
	c0-0.6-0.1-1.2-0.4-1.6c-0.3-0.4-0.6-0.8-1.1-1c-0.5-0.3-1-0.4-1.6-0.5c-0.6-0.1-1.2-0.2-1.9-0.2h-1.2v-2.8h1.4c0.4,0,0.9,0,1.3-0.1
	c0.5-0.1,0.9-0.2,1.2-0.5c0.4-0.2,0.7-0.5,0.9-0.9c0.2-0.4,0.3-0.8,0.3-1.4c0-0.5-0.1-0.9-0.3-1.2c-0.2-0.3-0.4-0.6-0.7-0.8
	c-0.3-0.2-0.6-0.4-1-0.5c-0.4-0.1-0.8-0.1-1.2-0.1c-0.9,0-1.6,0.1-2.3,0.4c-0.7,0.3-1.3,0.6-1.8,0.9l-1.3-2.6c0.3-0.2,0.6-0.4,1-0.6
	c0.4-0.2,0.8-0.4,1.3-0.5c0.5-0.2,1-0.3,1.5-0.4c0.5-0.1,1.1-0.2,1.7-0.2c1.1,0,2.1,0.1,2.9,0.4c0.8,0.3,1.5,0.7,2,1.1
	c0.5,0.5,0.9,1.1,1.2,1.7c0.3,0.7,0.4,1.4,0.4,2.2c0,0.9-0.3,1.8-0.8,2.5c-0.5,0.7-1.2,1.3-2,1.7c1,0.4,1.9,1,2.6,1.8
	c0.7,0.8,1,1.9,1,3.3c0,0.9-0.2,1.7-0.5,2.5c-0.3,0.8-0.8,1.4-1.4,2c-0.6,0.6-1.4,1-2.4,1.3C91.9,1977.2,90.7,1977.3,89.4,1977.3z"
	/>
<g>
	<rect x="52.7" y="1827.2" transform="matrix(0.866 -0.5 0.5 0.866 -913.5029 273.8333)" class="st0" width="3" height="28.5"/>
</g>
<g>
	<rect x="146.6" y="1902.1" class="st0" width="28.5" height="3"/>
</g>
<g>
	<rect x="112.1" y="1840.1" transform="matrix(0.5 -0.866 0.866 0.5 -1531.6437 1030.191)" class="st0" width="28.5" height="3"/>
</g>
<g>
	<rect x="40.9" y="1962.7" transform="matrix(0.5 -0.866 0.866 0.5 -1673.4937 1029.8522)" class="st0" width="28.5" height="3"/>
</g>
<g>
	<rect x="5.6" y="1902.1" class="st0" width="28.5" height="3"/>
</g>
<g>
	<rect x="124.9" y="1950.9" transform="matrix(0.866 -0.5 0.5 0.866 -965.6657 326.5116)" class="st0" width="3" height="28.5"/>
</g>
<g>
	<path class="st0" d="M152.3,1930.8c-0.2,1.2-0.2,2.4-0.2,3.8c0,1.3,0.3,2.6,0.6,3.8l-1.2,2.1l-17.3-10l1.7-3l13.3,7.7
		c-0.1-0.7-0.1-1.4,0-2.3c0.1-0.9,0.2-1.7,0.3-2.5L152.3,1930.8z"/>
	<path class="st0" d="M27.2,1930.8c0.6-0.3,1.3-0.6,2-0.6c0.7-0.1,1.5-0.1,2.2,0c0.8,0.1,1.6,0.2,2.3,0.4c0.8,0.2,1.6,0.4,2.4,0.6
		c0.4,0.1,0.9,0.3,1.4,0.4s1.1,0.2,1.6,0.3c0.5,0.1,1,0.2,1.5,0.2c0.4,0,0.8,0,1-0.1l-4.4-7.7l2.6-1.5l6.4,11
		c-0.1,0.1-0.3,0.2-0.5,0.3c-0.2,0.1-0.3,0.2-0.4,0.3c-0.8,0.5-1.6,0.8-2.4,0.9c-0.8,0.1-1.6,0.2-2.5,0.1c-0.8-0.1-1.6-0.2-2.5-0.4
		c-0.8-0.2-1.6-0.4-2.4-0.7c-0.6-0.2-1.2-0.3-1.8-0.5c-0.6-0.2-1.1-0.3-1.6-0.3c-0.5-0.1-1-0.1-1.5,0c-0.5,0.1-0.9,0.2-1.3,0.4
		c-0.9,0.5-1.3,1.1-1.4,1.8c-0.1,0.7,0.1,1.4,0.5,2.1c0.3,0.5,0.6,0.9,1,1.2c0.4,0.3,0.7,0.6,1.1,0.8c0.4,0.2,0.7,0.4,1,0.5
		c0.3,0.1,0.6,0.2,0.8,0.3l-1.3,2.7c-1.1-0.3-2.1-0.8-3-1.5c-1-0.7-1.7-1.6-2.4-2.7c-1.1-1.9-1.4-3.5-1-4.9
		C24.7,1932.8,25.7,1931.7,27.2,1930.8z"/>
	<path class="st0" d="M90.6,1828.5c0.5,0,1.1,0,1.6,0.1c0.5,0.1,1.1,0.2,1.6,0.3c0.5,0.1,0.9,0.2,1.3,0.3c0.4,0.1,0.7,0.2,0.9,0.4
		l-0.7,3c-0.4-0.2-1-0.4-1.8-0.7c-0.8-0.2-1.7-0.4-2.9-0.4c-1.5,0-2.6,0.3-3.3,0.9c-0.7,0.6-1,1.4-1,2.4c0,0.6,0.1,1.2,0.4,1.6
		c0.3,0.4,0.6,0.8,1.1,1c0.5,0.3,1,0.4,1.6,0.5s1.2,0.2,1.9,0.2h1.2v2.8H91c-0.4,0-0.9,0-1.3,0.1c-0.5,0.1-0.9,0.2-1.2,0.5
		c-0.4,0.2-0.7,0.5-0.9,0.9c-0.2,0.4-0.3,0.8-0.3,1.4c0,0.5,0.1,0.9,0.3,1.2c0.2,0.3,0.4,0.6,0.7,0.8s0.6,0.4,1,0.5
		c0.4,0.1,0.8,0.1,1.2,0.1c0.9,0,1.6-0.1,2.3-0.4c0.7-0.3,1.3-0.6,1.8-0.9l1.3,2.6c-0.3,0.2-0.6,0.4-1,0.6c-0.4,0.2-0.8,0.4-1.3,0.5
		c-0.5,0.2-1,0.3-1.5,0.4c-0.5,0.1-1.1,0.2-1.7,0.2c-1.1,0-2.1-0.1-2.9-0.4c-0.8-0.3-1.5-0.7-2-1.1c-0.5-0.5-0.9-1.1-1.2-1.7
		c-0.3-0.7-0.4-1.4-0.4-2.2c0-0.9,0.3-1.8,0.8-2.5c0.5-0.7,1.2-1.3,2-1.7c-1-0.4-1.9-1-2.6-1.8c-0.7-0.8-1-1.9-1-3.3
		c0-0.9,0.2-1.7,0.5-2.5c0.3-0.8,0.8-1.4,1.4-2c0.6-0.6,1.4-1,2.4-1.3C88.1,1828.6,89.2,1828.5,90.6,1828.5z"/>
</g>
<text transform="matrix(1 0 0 1 339.8846 -1661.412)" style="font-family:'MyriadPro-Regular'; font-size:12px;">Lorem ipsum</text>
<g>
	<path class="st3" d="M81.8,657.1l-8,13.8l13.8,8l8-13.8L81.8,657.1z M85.9,672.3l-5.5-3.2l3.2-5.5l5.5,3.2L85.9,672.3z"/>
	<polygon class="st3" points="94,702.8 94,702.8 94,702.8 88.5,699.7 86.5,703.1 85.3,705.2 82.1,710.7 85.6,712.7 85.6,712.7 
		93.1,717.1 96.3,711.6 90.8,708.4 	"/>
	<polygon class="st3" points="76.6,707.5 79.8,702 74.3,698.9 77.5,693.3 72,690.1 65.6,701.2 	"/>
	<polygon class="st3" points="94.8,688.6 89.4,685.4 86.2,691 80.7,687.8 77.5,693.3 88.4,699.6 	"/>
	<path class="st3" d="M180.5,680L144,616.7c-3.1-5.4-10.8-9.8-17-9.8H54c-6.2,0-13.9,4.4-17,9.8L0.5,680c-3.1,5.4-3.1,14.2,0,19.6
		L37,762.8c3.1,5.4,10.8,9.8,17,9.8h73c6.2,0,13.9-4.4,17-9.8l36.5-63.2C183.7,694.2,183.7,685.4,180.5,680z M157,690.4l-31.6,56
		c-1.7,3.1-4,5.6-6.6,7.7l0,0l0,0c-0.2,0.2-0.4,0.3-0.6,0.5l0,0l0,0c-4.5,3.3-9.9,5.1-15.5,5.1c-4.3,0-8.7-1.1-12.8-3.4l-56-31.6
		c-12.5-7.1-16.9-23-9.9-35.5l31.6-56c1.7-3.1,4-5.7,6.6-7.7l0,0l0,0c0.2-0.1,0.3-0.2,0.5-0.3l0,0l0,0c8-6,19.1-7,28.4-1.8l56,31.6
		C159.7,662,164.1,677.9,157,690.4z"/>
	<path class="st3" d="M141.5,665l-56-31.6c-7-3.9-15.8-1.5-19.8,5.5l-31.6,56c-3.9,7-1.5,15.8,5.5,19.8l56,31.6
		c7,3.9,15.8,1.5,19.8-5.5l31.6-56C150.9,677.8,148.5,668.9,141.5,665z M120.2,695.8l-5.5-3.2l-6.4,11.1l-5.5-3.2l-6.4,11.1l5.5,3.2
		l6.4-11.1l5.5,3.2L101,729l-5.5-3.2l3.2-5.5l-5.5-3.2l-3.2,5.5l-11.1-6.4l3.2-5.5l-5.4-3.1l-3.2,5.5l-16.6-9.6L60,698l-5.5-3.2
		l3.2-5.5l5.5,3.2l0,0l3.2-5.5l-5.5-3.2l3.2-5.5l5.5,3.2l-3.2,5.5l5.5,3.2l3.2-5.5l5.5,3.2l3.2-5.5l-5.5-3.2l-3.1,5.4l-5.5-3.2
		l3.1-5.4l-5.5-3.2l12.8-22.1l33.1,19.1l-3.2,5.5L99,668.8l-6.4,11.1L98,683l-3.2,5.5l5.5,3.2l-3.2,5.5l5.5,3.2l6.4-11.1L98,683
		l3.2-5.5l5.5,3.2l0,0l3.2-5.5l5.5,3.2l3.2-5.5l5.5,3.2l-3.2,5.5l-5.5-3.2l-3.2,5.5l5.5,3.2l0,0l3.2-5.5l5.5,3.2L120.2,695.8z"/>
	<path class="st10" d="M118.8,754.1l-0.6,0.5C118.4,754.4,118.6,754.3,118.8,754.1z"/>
	<path class="st10" d="M62.3,625.4l0.5-0.3C62.6,625.2,62.5,625.3,62.3,625.4z"/>
</g>
<path class="st0" d="M30.8,1633.9"/>
<g>
	<path class="st3" d="M180.5,1590.3l-36.5-63.2c-3.1-5.4-10.8-9.8-17-9.8H54c-6.2,0-13.9,4.4-17,9.8l-36.5,63.2
		c-3.1,5.4-3.1,14.2,0,19.6l36.5,63.2c3.1,5.4,10.8,9.8,17,9.8h73c6.2,0,13.9-4.4,17-9.8l36.5-63.2
		C183.7,1604.6,183.7,1595.7,180.5,1590.3z M94.3,1585.1h24.8v40.8H94.3V1585.1z M62.5,1574.5h24.8v51.4H62.5
		C62.5,1625.9,62.5,1574.5,62.5,1574.5z M30.8,1610.2h24.8v15.7H30.8V1610.2z M150.8,1635.4h-120v-3h120V1635.4z M150.8,1625.9H126
		v-67.2h24.8V1625.9z"/>
</g>
<g>
	<path class="st3" d="M-581-69.1l-36.5-63.2c-3.1-5.4-10.8-9.8-17-9.8h-73c-6.2,0-13.9,4.4-17,9.8L-761-69.1
		c-3.1,5.4-3.1,14.2,0,19.6l36.5,63.2c3.1,5.4,10.8,9.8,17,9.8h73c6.2,0,13.9-4.4,17-9.8l36.5-63.2C-577.9-54.8-577.9-63.7-581-69.1
		z M-627.8,0.7c0,3-2.4,5.4-5.4,5.4h-75.6c-3,0-5.4-2.4-5.4-5.4v-66.5c0-3,2.4-5.4,5.4-5.4h4.2v-19.6c0-18.7,15.2-33.9,33.9-33.9
		s33.9,15.2,33.9,33.9v19.6h3.7c3,0,5.4,2.4,5.4,5.4V0.7z"/>
	<path class="st3" d="M-670.7-117.1c-14.5,0-26.3,11.8-26.3,26.3v19.6h52.6v-19.6C-644.4-105.2-656.2-117.1-670.7-117.1z"/>
</g>
<g>
	<path class="st3" d="M-664.6-275.6c-0.6-0.5-1.3-1-2.1-1.4c-0.8-0.4-1.8-0.8-3-1.2c-0.5-0.2-1-0.4-1.5-0.6
		c-0.5-0.2-0.9-0.4-1.2-0.6s-0.6-0.5-0.8-0.7c-0.2-0.3-0.3-0.6-0.3-1c0-0.7,0.3-1.2,0.8-1.5c0.5-0.3,1.4-0.5,2.5-0.5
		c1.1,0,2,0.1,2.7,0.4c0.7,0.2,1.4,0.5,2,0.8l1.4-3.9c-0.7-0.4-1.6-0.7-2.7-1c-1.1-0.3-2.3-0.5-3.8-0.5c-1.2,0-2.4,0.2-3.3,0.5
		c-1,0.3-1.8,0.7-2.5,1.3c-0.7,0.6-1.2,1.3-1.6,2.1s-0.6,1.7-0.6,2.7c0,1,0.2,1.9,0.5,2.6c0.4,0.7,0.8,1.3,1.4,1.8
		c0.6,0.5,1.2,0.9,1.9,1.2c0.7,0.3,1.4,0.6,2.1,0.9c1.6,0.5,2.8,1.1,3.5,1.5c0.7,0.5,1,1.1,1,1.8c0,0.3-0.1,0.6-0.2,0.9
		c-0.1,0.3-0.3,0.5-0.6,0.7c-0.3,0.2-0.6,0.4-1.1,0.5c-0.5,0.1-1,0.2-1.7,0.2c-1.4,0-2.6-0.1-3.5-0.4c-1-0.3-1.8-0.6-2.4-1l-1.4,3.9
		c0.3,0.2,0.7,0.3,1.1,0.5c0.4,0.2,0.9,0.4,1.5,0.5s1.3,0.3,2.1,0.4c0.8,0.1,1.7,0.2,2.6,0.2c2.9,0,5-0.6,6.5-1.7
		c1.4-1.1,2.1-2.7,2.1-4.8c0-1.1-0.1-1.9-0.4-2.7C-663.6-274.4-664-275.1-664.6-275.6z"/>
	<path class="st3" d="M-684.5-275.6c-0.6-0.5-1.3-1-2.1-1.4c-0.8-0.4-1.8-0.8-3-1.2c-0.5-0.2-1-0.4-1.5-0.6
		c-0.5-0.2-0.9-0.4-1.2-0.6s-0.6-0.5-0.8-0.7c-0.2-0.3-0.3-0.6-0.3-1c0-0.7,0.3-1.2,0.8-1.5c0.5-0.3,1.4-0.5,2.5-0.5
		c1.1,0,2,0.1,2.7,0.4c0.7,0.2,1.4,0.5,2,0.8l1.4-3.9c-0.7-0.4-1.6-0.7-2.7-1c-1.1-0.3-2.3-0.5-3.8-0.5c-1.2,0-2.4,0.2-3.3,0.5
		c-1,0.3-1.8,0.7-2.5,1.3c-0.7,0.6-1.2,1.3-1.6,2.1s-0.6,1.7-0.6,2.7c0,1,0.2,1.9,0.5,2.6c0.4,0.7,0.8,1.3,1.4,1.8
		c0.6,0.5,1.2,0.9,1.9,1.2c0.7,0.3,1.4,0.6,2.1,0.9c1.6,0.5,2.8,1.1,3.5,1.5c0.7,0.5,1,1.1,1,1.8c0,0.3-0.1,0.6-0.2,0.9
		c-0.1,0.3-0.3,0.5-0.6,0.7c-0.3,0.2-0.6,0.4-1.1,0.5c-0.5,0.1-1,0.2-1.7,0.2c-1.4,0-2.6-0.1-3.5-0.4c-1-0.3-1.8-0.6-2.4-1l-1.4,3.9
		c0.3,0.2,0.7,0.3,1.1,0.5c0.4,0.2,0.9,0.4,1.5,0.5s1.3,0.3,2.1,0.4c0.8,0.1,1.7,0.2,2.6,0.2c2.9,0,5-0.6,6.5-1.7
		c1.4-1.1,2.1-2.7,2.1-4.8c0-1.1-0.1-1.9-0.4-2.7C-683.6-274.4-684-275.1-684.5-275.6z"/>
	<path class="st3" d="M-581-313.3l-36.5-63.2c-3.1-5.4-10.8-9.8-17-9.8h-73c-6.2,0-13.9,4.4-17,9.8l-36.5,63.2
		c-3.1,5.4-3.1,14.2,0,19.6l36.5,63.2c3.1,5.4,10.8,9.8,17,9.8h73c6.2,0,13.9-4.4,17-9.8l36.5-63.2
		C-577.9-299-577.9-307.9-581-313.3z M-627.8-243.5c0,3-2.4,5.4-5.4,5.4h-75.6c-3,0-5.4-2.4-5.4-5.4v-66.5c0-3,2.4-5.4,5.4-5.4h4.2
		v-19.6c0-18.7,15.2-33.9,33.9-33.9s33.9,15.2,33.9,33.9v19.6h3.7c3,0,5.4,2.4,5.4,5.4V-243.5z"/>
	<polygon class="st3" points="-652.6,-286.9 -657.5,-286.9 -657.5,-265 -642.9,-265 -642.9,-269.3 -652.6,-269.3 	"/>
	<path class="st3" d="M-644.4-334.9c0-14.5-11.8-26.3-26.3-26.3c-14.5,0-26.3,11.8-26.3,26.3v19.6h52.6L-644.4-334.9L-644.4-334.9z"
		/>
</g>
<path class="st0" d="M-278.4,2330.7c-6.2,0-13.9-4.4-17-9.8l-59.4-102.8c-3.1-5.4-3.1-14.2,0-19.6l59.4-102.8
	c3.1-5.4,10.8-9.8,17-9.8h118.8c6.2,0,13.9,4.4,17,9.8l59.4,102.8c3.1,5.4,3.1,14.2,0,19.6l-59.4,102.8c-3.1,5.4-10.8,9.8-17,9.8
	H-278.4z"/>
<g>
	<path class="st3" d="M180.5,2198.4l-36.5-63.2c-3.1-5.4-10.8-9.8-17-9.8H54c-6.2,0-13.9,4.4-17,9.8l-36.5,63.2
		c-3.1,5.4-3.1,14.2,0,19.6l36.5,63.2c3.1,5.4,10.8,9.8,17,9.8h73c6.2,0,13.9-4.4,17-9.8l36.5-63.2
		C183.7,2212.6,183.7,2203.8,180.5,2198.4z M133.8,2268.2c0,3-2.4,5.4-5.4,5.4H52.7c-3,0-5.4-2.4-5.4-5.4v-66.5c0-3,2.4-5.4,5.4-5.4
		h4.2v-19.6c0-18.7,15.2-33.9,33.9-33.9s33.9,15.2,33.9,33.9v19.6h3.7c3,0,5.4,2.4,5.4,5.4L133.8,2268.2L133.8,2268.2z"/>
	<path class="st3" d="M90.8,2150.4c-14.5,0-26.3,11.8-26.3,26.3v19.6h52.6v-19.6C117.1,2162.2,105.3,2150.4,90.8,2150.4z"/>
</g>
<g>
	<path class="st3" d="M-212.6,2236c-0.6-0.5-1.3-1-2.1-1.4c-0.8-0.4-1.8-0.8-3-1.2c-0.5-0.2-1-0.4-1.5-0.6c-0.5-0.2-0.9-0.4-1.2-0.6
		c-0.3-0.2-0.6-0.5-0.8-0.7c-0.2-0.3-0.3-0.6-0.3-1c0-0.7,0.3-1.2,0.8-1.5c0.5-0.3,1.4-0.5,2.5-0.5c1.1,0,2,0.1,2.7,0.4
		c0.7,0.2,1.4,0.5,2,0.8l1.4-3.9c-0.7-0.4-1.6-0.7-2.7-1s-2.3-0.5-3.8-0.5c-1.2,0-2.4,0.2-3.3,0.5c-1,0.3-1.8,0.7-2.5,1.3
		c-0.7,0.6-1.2,1.3-1.6,2.1c-0.4,0.8-0.6,1.7-0.6,2.7s0.2,1.9,0.5,2.6c0.4,0.7,0.8,1.3,1.4,1.8c0.6,0.5,1.2,0.9,1.9,1.2
		s1.4,0.6,2.1,0.9c1.6,0.5,2.8,1.1,3.5,1.5s1,1.1,1,1.8c0,0.3-0.1,0.6-0.2,0.9c-0.1,0.3-0.3,0.5-0.6,0.7c-0.3,0.2-0.6,0.4-1.1,0.5
		c-0.5,0.1-1,0.2-1.7,0.2c-1.4,0-2.6-0.1-3.5-0.4c-1-0.3-1.8-0.6-2.4-1l-1.4,3.9c0.3,0.2,0.7,0.3,1.1,0.5c0.4,0.2,0.9,0.4,1.5,0.5
		c0.6,0.2,1.3,0.3,2.1,0.4c0.8,0.1,1.7,0.2,2.6,0.2c2.9,0,5-0.6,6.5-1.7c1.4-1.1,2.1-2.7,2.1-4.8c0-1.1-0.1-1.9-0.4-2.7
		C-211.6,2237.2-212,2236.6-212.6,2236z"/>
	<path class="st3" d="M-232.5,2236c-0.6-0.5-1.3-1-2.1-1.4c-0.8-0.4-1.8-0.8-3-1.2c-0.5-0.2-1-0.4-1.5-0.6c-0.5-0.2-0.9-0.4-1.2-0.6
		c-0.3-0.2-0.6-0.5-0.8-0.7c-0.2-0.3-0.3-0.6-0.3-1c0-0.7,0.3-1.2,0.8-1.5c0.5-0.3,1.4-0.5,2.5-0.5c1.1,0,2,0.1,2.7,0.4
		c0.7,0.2,1.4,0.5,2,0.8l1.4-3.9c-0.7-0.4-1.6-0.7-2.7-1s-2.3-0.5-3.8-0.5c-1.2,0-2.4,0.2-3.3,0.5c-1,0.3-1.8,0.7-2.5,1.3
		c-0.7,0.6-1.2,1.3-1.6,2.1c-0.4,0.8-0.6,1.7-0.6,2.7s0.2,1.9,0.5,2.6c0.4,0.7,0.8,1.3,1.4,1.8c0.6,0.5,1.2,0.9,1.9,1.2
		s1.4,0.6,2.1,0.9c1.6,0.5,2.8,1.1,3.5,1.5s1,1.1,1,1.8c0,0.3-0.1,0.6-0.2,0.9c-0.1,0.3-0.3,0.5-0.6,0.7c-0.3,0.2-0.6,0.4-1.1,0.5
		c-0.5,0.1-1,0.2-1.7,0.2c-1.4,0-2.6-0.1-3.5-0.4c-1-0.3-1.8-0.6-2.4-1l-1.4,3.9c0.3,0.2,0.7,0.3,1.1,0.5c0.4,0.2,0.9,0.4,1.5,0.5
		c0.6,0.2,1.3,0.3,2.1,0.4c0.8,0.1,1.7,0.2,2.6,0.2c2.9,0,5-0.6,6.5-1.7c1.4-1.1,2.1-2.7,2.1-4.8c0-1.1-0.1-1.9-0.4-2.7
		C-231.6,2237.2-232,2236.6-232.5,2236z"/>
	<path class="st3" d="M-129,2198.4l-36.5-63.2c-3.1-5.4-10.8-9.8-17-9.8h-73c-6.2,0-13.9,4.4-17,9.8l-36.5,63.2
		c-3.1,5.4-3.1,14.2,0,19.6l36.5,63.2c3.1,5.4,10.8,9.8,17,9.8h73c6.2,0,13.9-4.4,17-9.8l36.5-63.2
		C-125.9,2212.6-125.9,2203.8-129,2198.4z M-175.8,2268.2c0,3-2.4,5.4-5.4,5.4h-75.6c-3,0-5.4-2.4-5.4-5.4v-66.5
		c0-3,2.4-5.4,5.4-5.4h4.2v-19.6c0-18.7,15.2-33.9,33.9-33.9s33.9,15.2,33.9,33.9v19.6h3.7c3,0,5.4,2.4,5.4,5.4L-175.8,2268.2
		L-175.8,2268.2z"/>
	<polygon class="st3" points="-200.6,2224.7 -205.6,2224.7 -205.6,2246.6 -190.9,2246.6 -190.9,2242.4 -200.6,2242.4 	"/>
	<path class="st3" d="M-192.4,2176.7c0-14.5-11.8-26.3-26.3-26.3s-26.3,11.8-26.3,26.3v19.6h52.6L-192.4,2176.7L-192.4,2176.7z"/>
</g>
<g>
	<path class="st3" d="M490.1,2198.4l-36.5-63.2c-3.1-5.4-10.8-9.8-17-9.8h-73c-6.2,0-13.9,4.4-17,9.8l-36.5,63.2
		c-3.1,5.4-3.1,14.2,0,19.6l36.5,63.2c3.1,5.4,10.8,9.8,17,9.8h73c6.2,0,13.9-4.4,17-9.8l36.5-63.2
		C493.2,2212.6,493.2,2203.8,490.1,2198.4z M443.3,2268.2c0,3-2.4,5.4-5.4,5.4h-75.6c-3,0-5.4-2.4-5.4-5.4v-66.5
		c0-3,2.4-5.4,5.4-5.4h4.2v-19.6c0-18.7,15.2-33.9,33.9-33.9s33.9,15.2,33.9,33.9v19.6h3.7c3,0,5.4,2.4,5.4,5.4L443.3,2268.2
		L443.3,2268.2z"/>
	<path class="st3" d="M400.4,2150.4c-14.5,0-26.3,11.8-26.3,26.3v19.6h52.6v-19.6C426.7,2162.2,414.9,2150.4,400.4,2150.4z"/>
</g>
<g>
	<path class="st3" d="M97,2236c-0.6-0.5-1.3-1-2.1-1.4c-0.8-0.4-1.8-0.8-3-1.2c-0.5-0.2-1-0.4-1.5-0.6c-0.5-0.2-0.9-0.4-1.2-0.6
		c-0.3-0.2-0.6-0.5-0.8-0.7c-0.2-0.3-0.3-0.6-0.3-1c0-0.7,0.3-1.2,0.8-1.5c0.5-0.3,1.4-0.5,2.5-0.5c1.1,0,2,0.1,2.7,0.4
		c0.7,0.2,1.4,0.5,2,0.8l1.4-3.9c-0.7-0.4-1.6-0.7-2.7-1s-2.3-0.5-3.8-0.5c-1.2,0-2.4,0.2-3.3,0.5c-1,0.3-1.8,0.7-2.5,1.3
		c-0.7,0.6-1.2,1.3-1.6,2.1c-0.4,0.8-0.6,1.7-0.6,2.7s0.2,1.9,0.5,2.6c0.4,0.7,0.8,1.3,1.4,1.8c0.6,0.5,1.2,0.9,1.9,1.2
		s1.4,0.6,2.1,0.9c1.6,0.5,2.8,1.1,3.5,1.5s1,1.1,1,1.8c0,0.3-0.1,0.6-0.2,0.9c-0.1,0.3-0.3,0.5-0.6,0.7c-0.3,0.2-0.6,0.4-1.1,0.5
		c-0.5,0.1-1,0.2-1.7,0.2c-1.4,0-2.6-0.1-3.5-0.4c-1-0.3-1.8-0.6-2.4-1l-1.4,3.9c0.3,0.2,0.7,0.3,1.1,0.5c0.4,0.2,0.9,0.4,1.5,0.5
		c0.6,0.2,1.3,0.3,2.1,0.4c0.8,0.1,1.7,0.2,2.6,0.2c2.9,0,5-0.6,6.5-1.7c1.4-1.1,2.1-2.7,2.1-4.8c0-1.1-0.1-1.9-0.4-2.7
		C98,2237.2,97.5,2236.6,97,2236z"/>
	<path class="st3" d="M77,2236c-0.6-0.5-1.3-1-2.1-1.4c-0.8-0.4-1.8-0.8-3-1.2c-0.5-0.2-1-0.4-1.5-0.6c-0.5-0.2-0.9-0.4-1.2-0.6
		c-0.3-0.2-0.6-0.5-0.8-0.7c-0.2-0.3-0.3-0.6-0.3-1c0-0.7,0.3-1.2,0.8-1.5c0.5-0.3,1.4-0.5,2.5-0.5c1.1,0,2,0.1,2.7,0.4
		c0.7,0.2,1.4,0.5,2,0.8l1.4-3.9c-0.7-0.4-1.6-0.7-2.7-1s-2.3-0.5-3.8-0.5c-1.2,0-2.4,0.2-3.3,0.5c-1,0.3-1.8,0.7-2.5,1.3
		c-0.7,0.6-1.2,1.3-1.6,2.1c-0.4,0.8-0.6,1.7-0.6,2.7s0.2,1.9,0.5,2.6c0.4,0.7,0.8,1.3,1.4,1.8c0.6,0.5,1.2,0.9,1.9,1.2
		s1.4,0.6,2.1,0.9c1.6,0.5,2.8,1.1,3.5,1.5c0.7,0.5,1,1.1,1,1.8c0,0.3-0.1,0.6-0.2,0.9c-0.1,0.3-0.3,0.5-0.6,0.7
		c-0.3,0.2-0.6,0.4-1.1,0.5c-0.5,0.1-1,0.2-1.7,0.2c-1.4,0-2.6-0.1-3.5-0.4c-1-0.3-1.8-0.6-2.4-1l-1.4,3.9c0.3,0.2,0.7,0.3,1.1,0.5
		c0.4,0.2,0.9,0.4,1.5,0.5c0.6,0.2,1.3,0.3,2.1,0.4c0.8,0.1,1.7,0.2,2.6,0.2c2.9,0,5-0.6,6.5-1.7c1.4-1.1,2.1-2.7,2.1-4.8
		c0-1.1-0.1-1.9-0.4-2.7C78,2237.2,77.6,2236.6,77,2236z"/>
	<path class="st3" d="M180.5,2198.4l-36.5-63.2c-3.1-5.4-10.8-9.8-17-9.8H54c-6.2,0-13.9,4.4-17,9.8l-36.5,63.2
		c-3.1,5.4-3.1,14.2,0,19.6l36.5,63.2c3.1,5.4,10.8,9.8,17,9.8h73c6.2,0,13.9-4.4,17-9.8l36.5-63.2
		C183.7,2212.6,183.7,2203.8,180.5,2198.4z M133.8,2268.2c0,3-2.4,5.4-5.4,5.4H52.7c-3,0-5.4-2.4-5.4-5.4v-66.5c0-3,2.4-5.4,5.4-5.4
		h4.2v-19.6c0-18.7,15.2-33.9,33.9-33.9s33.9,15.2,33.9,33.9v19.6h3.7c3,0,5.4,2.4,5.4,5.4L133.8,2268.2L133.8,2268.2z"/>
	<polygon class="st3" points="108.9,2224.7 104,2224.7 104,2246.6 118.6,2246.6 118.6,2242.4 108.9,2242.4 	"/>
	<path class="st3" d="M117.1,2176.7c0-14.5-11.8-26.3-26.3-26.3s-26.3,11.8-26.3,26.3v19.6h52.6V2176.7z"/>
</g>
</svg>
