<?xml version="1.0" encoding="utf-8"?>
<!-- Generator: Adobe Illustrator 16.0.0, SVG Export Plug-In . SVG Version: 6.00 Build 0)  -->
<!DOCTYPE svg PUBLIC "-//W3C//DTD SVG 1.1//EN" "http://www.w3.org/Graphics/SVG/1.1/DTD/svg11.dtd">
<svg version="1.1" id="Beeldmerk" xmlns="http://www.w3.org/2000/svg" xmlns:xlink="http://www.w3.org/1999/xlink" x="0px" y="0px"
	 width="1193.539px" height="283.333px" viewBox="0 0 1193.539 283.333" enable-background="new 0 0 1193.539 283.333"
	 xml:space="preserve">
<g>
	<g>
		<path fill="#FFFFFF" d="M408.815,144.557c0-8.967,1.329-16.83,3.995-23.588c2.665-6.754,6.207-12.369,10.622-16.856
			c4.414-4.479,9.485-7.863,15.203-10.138c5.716-2.271,11.562-3.411,17.539-3.411c14.036,0,24.979,4.357,32.841,13.058
			c7.858,8.714,11.795,21.705,11.795,38.99c0,1.297-0.034,2.757-0.1,4.384c-0.065,1.622-0.164,3.087-0.295,4.38h-67.241
			c0.648,8.188,3.541,14.518,8.678,19.006c5.128,4.479,12.569,6.723,22.318,6.723c5.709,0,10.94-0.519,15.687-1.56
			c4.743-1.04,8.479-2.145,11.206-3.315l3.116,19.294c-1.298,0.653-3.087,1.343-5.357,2.046c-2.275,0.721-4.871,1.369-7.795,1.955
			c-2.922,0.586-6.081,1.068-9.458,1.465c-3.375,0.387-6.817,0.581-10.323,0.581c-8.971,0-16.767-1.334-23.39-4.001
			c-6.628-2.659-12.087-6.358-16.375-11.103c-4.289-4.745-7.471-10.332-9.548-16.767
			C409.851,159.269,408.815,152.221,408.815,144.557z M477.228,134.036c0-3.249-0.46-6.335-1.37-9.26
			c-0.912-2.924-2.243-5.461-3.996-7.601c-1.753-2.145-3.894-3.834-6.428-5.069c-2.534-1.23-5.554-1.856-9.063-1.856
			c-3.637,0-6.817,0.685-9.548,2.05c-2.731,1.365-5.036,3.154-6.926,5.362c-1.882,2.208-3.339,4.745-4.38,7.597
			c-1.041,2.866-1.753,5.786-2.149,8.777H477.228z"/>
		<path fill="#FFFFFF" d="M571.509,195.032c-6.524-13.382-13.211-28.747-20.058-46.086c-6.854-17.353-13.083-35.966-18.688-55.842
			h25.151c1.431,5.714,3.096,11.86,4.983,18.411c1.893,6.565,3.912,13.13,6.07,19.691c2.153,6.565,4.37,12.927,6.654,19.096
			c2.28,6.173,4.398,11.733,6.358,16.667c1.951-4.934,4.046-10.494,6.263-16.667c2.213-6.169,4.402-12.531,6.555-19.096
			c2.151-6.561,4.206-13.125,6.166-19.691c1.958-6.551,3.652-12.697,5.087-18.411h24.37c-5.612,19.876-11.842,38.489-18.692,55.842
			c-6.85,17.339-13.531,32.704-20.056,46.086H571.509z"/>
		<path fill="#FFFFFF" d="M659.256,144.557c0-8.967,1.334-16.83,4.002-23.588c2.658-6.754,6.2-12.369,10.622-16.856
			c4.411-4.479,9.482-7.863,15.201-10.138c5.711-2.271,11.558-3.411,17.541-3.411c14.027,0,24.977,4.357,32.839,13.058
			c7.858,8.714,11.79,21.705,11.79,38.99c0,1.297-0.036,2.757-0.095,4.384c-0.07,1.622-0.165,3.087-0.295,4.38h-67.241
			c0.652,8.188,3.541,14.518,8.671,19.006c5.135,4.479,12.578,6.723,22.317,6.723c5.719,0,10.947-0.519,15.688-1.56
			c4.749-1.04,8.484-2.145,11.213-3.315l3.118,19.294c-1.305,0.653-3.089,1.343-5.364,2.046c-2.271,0.721-4.871,1.369-7.795,1.955
			c-2.925,0.586-6.076,1.068-9.453,1.465c-3.382,0.387-6.818,0.581-10.328,0.581c-8.967,0-16.76-1.334-23.39-4.001
			c-6.628-2.659-12.08-6.358-16.37-11.103c-4.289-4.745-7.471-10.332-9.553-16.767C660.297,159.269,659.256,152.221,659.256,144.557
			z M727.669,134.036c0-3.249-0.459-6.335-1.365-9.26c-0.912-2.924-2.241-5.461-3.994-7.601c-1.753-2.145-3.9-3.834-6.437-5.069
			c-2.528-1.23-5.552-1.856-9.058-1.856c-3.636,0-6.824,0.685-9.552,2.05c-2.73,1.365-5.038,3.154-6.919,5.362
			c-1.888,2.208-3.346,4.745-4.382,7.597c-1.041,2.866-1.76,5.786-2.149,8.777H727.669z"/>
		<path fill="#FFFFFF" d="M795.691,96.416c4.541-1.302,10.453-2.537,17.73-3.704c7.276-1.167,15.329-1.757,24.169-1.757
			c8.313,0,15.267,1.145,20.854,3.416c5.587,2.275,10.044,5.457,13.354,9.543c3.312,4.096,5.652,9.039,7.013,14.815
			c1.363,5.786,2.046,12.117,2.046,19.006v57.297h-23.584v-53.593c0-5.466-0.355-10.107-1.067-13.937
			c-0.712-3.835-1.884-6.953-3.506-9.359c-1.631-2.406-3.837-4.159-6.63-5.263c-2.796-1.099-6.207-1.653-10.231-1.653
			c-2.991,0-6.109,0.193-9.358,0.581c-3.246,0.392-5.646,0.721-7.205,0.978v82.246h-23.583V96.416z"/>
		<path fill="#FFFFFF" d="M928.021,66.204l23.587-3.897v30.797h36.249v19.682h-36.249v41.512c0,8.188,1.298,14.036,3.897,17.542
			c2.6,3.505,7.016,5.263,13.252,5.263c4.289,0,8.088-0.451,11.399-1.365c3.316-0.906,5.948-1.753,7.895-2.528l3.897,18.704
			c-2.727,1.167-6.304,2.375-10.724,3.609c-4.411,1.23-9.616,1.852-15.586,1.852c-7.282,0-13.355-0.978-18.222-2.924
			c-4.871-1.951-8.742-4.776-11.604-8.48c-2.852-3.703-4.87-8.183-6.033-13.45c-1.176-5.258-1.76-11.269-1.76-18.023V66.204z"/>
		<path fill="#FFFFFF" d="M1140.039,124.312l21.665-31.208h24.751l-34.223,48.821c7.146,8.985,14.004,18.056,20.561,27.233
			c6.564,9.161,11.959,17.794,16.198,25.873h-25.684c-1.185-2.388-2.717-5.011-4.587-7.876c-1.869-2.861-3.87-5.845-6.002-8.939
			c-2.131-3.101-4.356-6.169-6.673-9.206c-2.325-3.041-4.592-5.898-6.776-8.588c-4.564,5.294-9.035,11.156-13.405,17.568
			c-4.371,6.421-7.998,12.094-10.868,17.041h-24.039c1.929-3.911,4.289-8.034,7.092-12.364c2.812-4.33,5.817-8.75,9.025-13.283
			c3.204-4.515,6.512-9.039,9.922-13.559c3.406-4.515,6.781-8.817,10.125-12.899l-34.605-49.822h25.918L1140.039,124.312z"/>
		<path fill="#FFFFFF" d="M1053.927,195.032h-23.584V93.104h23.584V195.032z M1050.273,71.111l0.054-0.036
			c0,0,2.267-2.907,4.511-6.795c2.248-3.893,3.632-7.304,3.632-7.304v-0.072c0,0-1.384-3.411-3.632-7.295
			c-2.244-3.893-4.511-6.795-4.511-6.795l-0.054-0.041c0,0-3.646-0.504-8.143-0.504c-4.492,0-8.128,0.504-8.128,0.504l-0.067,0.041
			c0,0-2.263,2.902-4.502,6.795c-2.253,3.884-3.637,7.295-3.637,7.295v0.072c0,0,1.384,3.411,3.637,7.304
			c2.239,3.888,4.502,6.795,4.502,6.795l0.067,0.036c0,0,3.636,0.505,8.128,0.505C1046.627,71.616,1050.273,71.111,1050.273,71.111z
			"/>
	</g>
</g>
<path fill="#FFFFFF" d="M211.778-0.498H102.919c-16.788,0-32.3,8.963-40.696,23.479l-54.495,94.34
	c-8.396,14.514-8.396,32.443,0,46.958l54.495,94.341c8.396,14.516,23.908,23.48,40.696,23.48h108.859
	c16.788,0,32.301-8.965,40.698-23.48l54.494-94.341c8.396-14.515,8.396-32.444,0-46.958l-17.356-29.884l-64.886,112.131
	c-24.05,41.552-70.44,43.113-112.417,18.924c-42.119-24.33-63.886-65.17-39.842-106.865l25.19-43.541
	c0,0,10.954-19.068,27.748-9.532c17.928,10.244,6.828,29.597,6.828,29.597l-29.456,51.366v0.144
	c-0.854,1.424-6.542,13.233,5.12,20.064c11.101,6.261,18.216-4.697,19.07-5.978l29.743-51.511c0,0,10.955-19.069,27.747-9.535
	c17.93,10.103,6.83,29.456,6.83,29.456l-29.597,51.511v0.144c0,0-7.256,12.806,5.119,19.92c10.534,6.118,17.788-3.842,19.211-6.119
	l80.824-140.019l-14.229-24.616C243.939,8.466,228.426-0.498,211.778-0.498"/>
<g opacity="0.1">
	<path d="M203.388,223.12c1.95-1.327,3.85-2.772,5.688-4.352L203.388,223.12z"/>
	<path d="M124.484,156.879l-4.44,3.4C121.859,159.347,123.349,158.069,124.484,156.879z"/>
	<path d="M191.288,122.16l-29.597,51.511v0.144c0,0-7.256,12.806,5.119,19.92c10.534,6.118,17.788-3.842,19.211-6.119L266.583,48.05
		l-72.693,55.673C196.638,112.816,191.288,122.16,191.288,122.16z"/>
	<path d="M107.898,159.727c4.885,2.754,8.999,2.175,12.146,0.553l4.44-3.4c1.371-1.436,2.226-2.736,2.484-3.13l29.743-51.511
		c0,0,2.739-4.766,7.576-8.343c4.839-3.575-62.43,47.767-62.43,47.767C100.339,145.645,98.581,154.269,107.898,159.727z"/>
	<g>
		<path d="M112.311,218.493c-13.168-7.61-24.353-16.833-32.767-27.193c-5.715-7.04-10.139-14.611-13.055-22.549
			c-6.509-17.732-5.436-37.328,5.979-57.123l25.19-43.541c0,0,1.585-2.76,4.473-5.655C81.551,78.333,1.499,138.679,1.499,138.679
			c-0.399,8.81,1.664,17.71,6.229,25.601l19.812,34.3l13.033,22.562l21.65,37.479c8.396,14.516,23.908,23.48,40.696,23.48h23.465
			l77.004-58.981C178.182,240.322,143.992,236.75,112.311,218.493z"/>
		<path d="M106.774,58.697c-1.793,1.114-3.344,2.438-4.643,3.735C105.672,59.696,107.471,58.266,106.774,58.697z"/>
	</g>
</g>
</svg>
