<?xml version="1.0" encoding="utf-8"?>
<!-- Generator: Adobe Illustrator 21.0.0, SVG Export Plug-In . SVG Version: 6.00 Build 0)  -->
<svg version="1.1" id="Beeldmerk" xmlns="http://www.w3.org/2000/svg" xmlns:xlink="http://www.w3.org/1999/xlink" x="0px" y="0px"
	 viewBox="0 0 787.539 691.882" enable-background="new 0 0 787.539 691.882" xml:space="preserve">
<g>
	<g>
		<path fill="#FFFFFF" d="M2.815,553.106c0-8.967,1.329-16.83,3.995-23.588c2.665-6.754,6.207-12.369,10.622-16.857
			c4.414-4.479,9.485-7.863,15.203-10.138c5.716-2.271,11.562-3.411,17.539-3.411c14.036,0,24.979,4.357,32.841,13.058
			c7.858,8.714,11.795,21.705,11.795,38.99c0,1.297-0.034,2.757-0.1,4.384c-0.065,1.622-0.164,3.087-0.295,4.38H27.175
			c0.648,8.188,3.541,14.518,8.678,19.006c5.128,4.479,12.569,6.723,22.318,6.723c5.709,0,10.94-0.518,15.687-1.56
			c4.743-1.04,8.479-2.145,11.206-3.315l3.116,19.294c-1.298,0.653-3.087,1.343-5.357,2.046c-2.275,0.721-4.871,1.369-7.795,1.955
			c-2.922,0.586-6.081,1.068-9.458,1.465c-3.375,0.387-6.817,0.581-10.323,0.581c-8.971,0-16.767-1.334-23.39-4.001
			c-6.628-2.659-12.087-6.358-16.375-11.103c-4.289-4.745-7.471-10.332-9.548-16.767C3.852,567.818,2.815,560.77,2.815,553.106z
			 M71.228,542.584c0-3.249-0.46-6.335-1.37-9.26c-0.912-2.924-2.243-5.461-3.996-7.601c-1.753-2.145-3.894-3.834-6.428-5.069
			c-2.534-1.23-5.554-1.857-9.063-1.857c-3.637,0-6.817,0.685-9.548,2.05c-2.731,1.365-5.036,3.154-6.926,5.362
			c-1.882,2.208-3.339,4.745-4.38,7.597c-1.041,2.866-1.753,5.786-2.149,8.777H71.228z"/>
		<path fill="#FFFFFF" d="M165.51,603.581c-6.524-13.382-13.211-28.747-20.058-46.086c-6.853-17.352-13.083-35.966-18.688-55.842
			h25.151c1.431,5.714,3.096,11.86,4.983,18.411c1.893,6.565,3.912,13.13,6.07,19.691c2.153,6.565,4.37,12.927,6.654,19.096
			c2.28,6.173,4.398,11.733,6.358,16.667c1.951-4.934,4.046-10.494,6.263-16.667c2.213-6.169,4.402-12.531,6.555-19.096
			c2.151-6.561,4.206-13.125,6.166-19.691c1.958-6.551,3.652-12.697,5.087-18.411h24.37c-5.612,19.876-11.842,38.489-18.692,55.842
			c-6.85,17.339-13.531,32.704-20.056,46.086H165.51z"/>
		<path fill="#FFFFFF" d="M253.257,553.106c0-8.967,1.334-16.83,4.002-23.588c2.658-6.754,6.2-12.369,10.622-16.857
			c4.411-4.479,9.482-7.863,15.201-10.138c5.711-2.271,11.558-3.411,17.541-3.411c14.027,0,24.977,4.357,32.839,13.058
			c7.858,8.714,11.79,21.705,11.79,38.99c0,1.297-0.036,2.757-0.095,4.384c-0.07,1.622-0.165,3.087-0.295,4.38h-67.241
			c0.652,8.188,3.541,14.518,8.671,19.006c5.135,4.479,12.578,6.723,22.317,6.723c5.719,0,10.947-0.518,15.688-1.56
			c4.749-1.04,8.484-2.145,11.213-3.315l3.118,19.294c-1.305,0.653-3.089,1.343-5.364,2.046c-2.271,0.721-4.871,1.369-7.795,1.955
			c-2.925,0.586-6.076,1.068-9.453,1.465c-3.382,0.387-6.818,0.581-10.328,0.581c-8.967,0-16.76-1.334-23.39-4.001
			c-6.628-2.659-12.08-6.358-16.37-11.103c-4.289-4.745-7.471-10.332-9.553-16.767C254.298,567.818,253.257,560.77,253.257,553.106z
			 M321.67,542.584c0-3.249-0.459-6.335-1.365-9.26c-0.912-2.924-2.241-5.461-3.994-7.601c-1.753-2.145-3.9-3.834-6.436-5.069
			c-2.528-1.23-5.552-1.857-9.058-1.857c-3.636,0-6.824,0.685-9.552,2.05c-2.73,1.365-5.038,3.154-6.919,5.362
			c-1.888,2.208-3.346,4.745-4.382,7.597c-1.041,2.866-1.76,5.786-2.149,8.777H321.67z"/>
		<path fill="#FFFFFF" d="M389.691,504.965c4.541-1.302,10.453-2.537,17.73-3.704c7.276-1.167,15.329-1.757,24.169-1.757
			c8.314,0,15.267,1.145,20.854,3.415c5.587,2.275,10.044,5.457,13.354,9.543c3.311,4.096,5.652,9.039,7.013,14.815
			c1.363,5.786,2.046,12.117,2.046,19.006v57.297h-23.584v-53.593c0-5.466-0.355-10.107-1.067-13.937
			c-0.712-3.835-1.884-6.953-3.506-9.359c-1.631-2.406-3.837-4.159-6.63-5.263c-2.796-1.099-6.207-1.653-10.231-1.653
			c-2.991,0-6.109,0.193-9.358,0.581c-3.246,0.392-5.645,0.721-7.205,0.978v82.246h-23.583V504.965z"/>
		<path fill="#FFFFFF" d="M522.021,474.753l23.587-3.897v30.797h36.249v19.682h-36.249v41.512c0,8.188,1.298,14.036,3.898,17.542
			c2.6,3.505,7.016,5.263,13.252,5.263c4.289,0,8.088-0.451,11.399-1.365c3.316-0.906,5.948-1.753,7.895-2.528l3.897,18.704
			c-2.727,1.167-6.304,2.375-10.724,3.609c-4.411,1.23-9.616,1.852-15.586,1.852c-7.282,0-13.355-0.977-18.222-2.924
			c-4.871-1.951-8.742-4.776-11.604-8.481c-2.852-3.703-4.87-8.183-6.033-13.45c-1.176-5.258-1.76-11.268-1.76-18.023V474.753z"/>
		<path fill="#FFFFFF" d="M734.039,532.861l21.665-31.208h24.751l-34.223,48.821c7.146,8.985,14.004,18.056,20.561,27.233
			c6.564,9.161,11.959,17.794,16.198,25.873h-25.684c-1.185-2.388-2.717-5.011-4.587-7.876c-1.869-2.861-3.87-5.845-6.002-8.94
			c-2.131-3.101-4.357-6.169-6.673-9.206c-2.325-3.041-4.592-5.898-6.776-8.588c-4.564,5.294-9.035,11.156-13.405,17.568
			c-4.371,6.421-7.998,12.094-10.868,17.041h-24.039c1.929-3.911,4.289-8.034,7.092-12.364c2.812-4.33,5.817-8.75,9.025-13.283
			c3.204-4.515,6.512-9.039,9.922-13.559c3.406-4.515,6.781-8.817,10.125-12.899l-34.605-49.822h25.918L734.039,532.861z"/>
		<path fill="#FFFFFF" d="M647.928,603.581h-23.584V501.653h23.584V603.581z M644.273,479.66l0.054-0.036
			c0,0,2.267-2.907,4.511-6.795c2.248-3.893,3.632-7.304,3.632-7.304v-0.072c0,0-1.384-3.411-3.632-7.295
			c-2.244-3.893-4.511-6.795-4.511-6.795l-0.054-0.041c0,0-3.645-0.504-8.142-0.504c-4.492,0-8.128,0.504-8.128,0.504l-0.067,0.041
			c0,0-2.263,2.902-4.502,6.795c-2.253,3.884-3.637,7.295-3.637,7.295v0.072c0,0,1.384,3.411,3.637,7.304
			c2.239,3.888,4.502,6.795,4.502,6.795l0.067,0.036c0,0,3.636,0.505,8.128,0.505C640.628,480.164,644.273,479.66,644.273,479.66z"
			/>
	</g>
</g>
<g>
	<path fill="#FFFFFF" d="M456.61,80.173H330.955c-19.378,0-37.284,10.346-46.977,27.102l-62.907,108.897
		c-9.689,16.754-9.689,37.45,0,54.204l62.907,108.901c9.692,16.754,27.599,27.102,46.977,27.102H456.61
		c19.381,0,37.287-10.348,46.977-27.102l62.907-108.901c9.692-16.754,9.692-37.449,0-54.204l-20.037-34.495l-74.899,129.434
		c-27.758,47.963-81.306,49.766-129.762,21.844c-48.618-28.085-73.748-75.227-45.99-123.355l29.074-50.26
		c0,0,12.647-22.011,32.029-11.003c20.695,11.824,7.882,34.163,7.882,34.163l-33.998,59.294v0.166
		c-0.986,1.645-7.555,15.275,5.91,23.161c12.814,7.228,21.026-5.42,22.013-6.899l34.329-59.459c0,0,12.648-22.012,32.029-11.006
		c20.695,11.661,7.882,34.002,7.882,34.002l-34.163,59.458v0.165c0,0-8.376,14.782,5.913,22.995
		c12.154,7.062,20.53-4.434,22.175-7.065l93.295-161.624l-16.424-28.414C493.732,90.519,475.829,80.173,456.61,80.173"/>
	<g opacity="0.5">
		<path fill="#67B2E8" d="M446.928,338.298c2.247-1.534,4.443-3.201,6.562-5.024L446.928,338.298z"/>
		<path fill="#67B2E8" d="M355.845,261.835l-5.125,3.925C352.815,264.683,354.534,263.207,355.845,261.835z"/>
		<g>
			<path fill="#67B2E8" d="M335.405,148.502c-2.069,1.286-3.863,2.814-5.358,4.311C334.134,149.655,336.207,148.004,335.405,148.502
				z"/>
		</g>
	</g>
</g>
</svg>
