<?xml version="1.0" encoding="utf-8"?>
<!-- Generator: Adobe Illustrator 21.0.0, SVG Export Plug-In . SVG Version: 6.00 Build 0)  -->
<svg version="1.1" id="Laag_1" xmlns="http://www.w3.org/2000/svg" xmlns:xlink="http://www.w3.org/1999/xlink" x="0px" y="0px"
	 viewBox="0 0 200 200" enable-background="new 0 0 200 200" xml:space="preserve">
<path fill="#67B2E8" d="M59.038,184.905c-4.356,0-9.703-3.087-11.882-6.86L5.675,106.196c-2.178-3.773-2.178-9.947,0-13.719
	l41.481-71.849c2.178-3.773,7.525-6.86,11.882-6.86h82.965c4.357,0,9.703,3.087,11.881,6.86l41.482,71.849
	c2.178,3.773,2.178,9.947,0,13.719l-41.482,71.849c-2.178,3.773-7.525,6.86-11.881,6.86H59.038z"/>
<g>
	<path fill="#FFFFFF" d="M49.535,84.324v5.606h-8.81v23.606H34.15V89.93h-8.81v-5.606H49.535z"/>
	<path fill="#FFFFFF" d="M64.627,96.928c-0.562-0.141-1.223-0.288-1.982-0.443c-0.758-0.154-1.574-0.232-2.444-0.232
		c-0.395,0-0.865,0.036-1.412,0.105c-0.548,0.071-0.963,0.148-1.244,0.232v16.946h-6.281V92.544
		c1.123-0.393,2.451-0.765,3.983-1.117c1.532-0.351,3.239-0.527,5.122-0.527c0.337,0,0.744,0.021,1.223,0.063
		c0.477,0.042,0.955,0.099,1.434,0.169c0.477,0.07,0.955,0.155,1.432,0.253c0.478,0.099,0.885,0.218,1.223,0.358L64.627,96.928z"/>
	<path fill="#FFFFFF" d="M90.93,91.364c-1.268,4.272-2.591,8.277-3.972,12.014c-1.379,3.738-2.888,7.363-4.522,10.876
		c-0.592,1.265-1.182,2.339-1.772,3.225c-0.592,0.885-1.24,1.616-1.943,2.192c-0.704,0.576-1.498,0.997-2.385,1.264
		c-0.887,0.267-1.92,0.401-3.102,0.401c-0.985,0-1.894-0.092-2.723-0.274c-0.831-0.183-1.513-0.386-2.047-0.611l1.095-5.016
		c0.648,0.225,1.224,0.379,1.729,0.464c0.506,0.085,1.041,0.127,1.603,0.127c1.125,0,1.99-0.302,2.594-0.906
		c0.604-0.605,1.117-1.44,1.539-2.508c-1.434-2.81-2.868-5.965-4.301-9.464c-1.435-3.499-2.784-7.426-4.048-11.782h6.66
		c0.283,1.096,0.614,2.284,0.996,3.562c0.381,1.279,0.783,2.571,1.207,3.878c0.423,1.307,0.853,2.579,1.291,3.815
		c0.437,1.237,0.853,2.361,1.249,3.373c0.367-1.012,0.747-2.136,1.143-3.373c0.395-1.236,0.783-2.508,1.164-3.815
		c0.381-1.307,0.747-2.599,1.1-3.878c0.353-1.278,0.67-2.466,0.952-3.562H90.93z"/>
	<path fill="#FFFFFF" d="M118.247,101.775c0-2.023-0.261-3.456-0.78-4.3c-0.52-0.843-1.412-1.265-2.678-1.265
		c-0.393,0-0.8,0.021-1.223,0.063c-0.421,0.042-0.828,0.092-1.221,0.148v17.115h-6.282V92.122c0.534-0.141,1.16-0.288,1.877-0.443
		c0.716-0.154,1.476-0.295,2.276-0.422c0.802-0.126,1.623-0.224,2.467-0.295c0.842-0.07,1.671-0.106,2.487-0.106
		c1.602,0,2.9,0.204,3.899,0.611c0.997,0.408,1.819,0.892,2.465,1.454c0.899-0.646,1.932-1.152,3.099-1.518
		c1.165-0.365,2.24-0.548,3.225-0.548c1.769,0,3.223,0.247,4.362,0.738c1.139,0.492,2.044,1.188,2.719,2.087
		c0.676,0.9,1.139,1.967,1.392,3.204c0.253,1.237,0.379,2.614,0.379,4.131v12.52h-6.281v-11.761c0-2.023-0.261-3.456-0.78-4.3
		c-0.52-0.843-1.412-1.265-2.677-1.265c-0.337,0-0.809,0.085-1.412,0.253c-0.606,0.169-1.104,0.379-1.498,0.632
		c0.197,0.647,0.323,1.328,0.381,2.044c0.056,0.717,0.084,1.483,0.084,2.298v12.098h-6.281V101.775z"/>
	<path fill="#FFFFFF" d="M142.19,102.619c0-1.967,0.301-3.688,0.906-5.164c0.604-1.475,1.398-2.704,2.381-3.688
		c0.985-0.983,2.116-1.728,3.394-2.234c1.278-0.506,2.593-0.759,3.941-0.759c3.147,0,5.634,0.963,7.461,2.888
		c1.827,1.925,2.74,4.757,2.74,8.494c0,0.365-0.014,0.766-0.042,1.202c-0.028,0.436-0.057,0.822-0.084,1.159H148.64
		c0.14,1.293,0.744,2.318,1.813,3.077c1.067,0.759,2.499,1.138,4.298,1.138c1.153,0,2.284-0.105,3.394-0.316
		c1.109-0.211,2.016-0.47,2.719-0.78l0.844,5.101c-0.337,0.169-0.788,0.337-1.35,0.506s-1.187,0.316-1.875,0.443
		c-0.69,0.127-1.426,0.232-2.214,0.316c-0.786,0.084-1.574,0.127-2.36,0.127c-1.996,0-3.731-0.295-5.207-0.885
		c-1.474-0.59-2.697-1.398-3.666-2.424c-0.971-1.026-1.687-2.241-2.15-3.646C142.422,105.766,142.19,104.249,142.19,102.619z
		 M156.943,100.216c-0.028-0.534-0.12-1.054-0.273-1.56c-0.155-0.506-0.393-0.955-0.716-1.349c-0.323-0.393-0.732-0.717-1.223-0.97
		c-0.492-0.253-1.103-0.379-1.835-0.379c-0.702,0-1.306,0.12-1.811,0.358c-0.506,0.239-0.927,0.555-1.266,0.948
		c-0.337,0.394-0.597,0.851-0.78,1.37c-0.182,0.52-0.315,1.047-0.399,1.581H156.943z"/>
	<path fill="#FFFFFF" d="M175.702,110.206c0,1.237-0.401,2.192-1.202,2.866c-0.8,0.675-1.707,1.012-2.719,1.012
		c-1.011,0-1.917-0.337-2.719-1.012c-0.802-0.675-1.201-1.63-1.201-2.866c0-1.236,0.399-2.192,1.201-2.866
		c0.802-0.675,1.707-1.012,2.719-1.012c1.011,0,1.918,0.337,2.719,1.012C175.302,108.014,175.702,108.97,175.702,110.206z
		 M175.154,91.869c0,2.277-0.084,4.399-0.253,6.366c-0.168,1.967-0.393,3.962-0.674,5.986h-4.805
		c-0.281-2.023-0.514-4.019-0.696-5.986c-0.183-1.967-0.275-4.089-0.275-6.366v-7.545h6.703V91.869z"/>
</g>
</svg>
