<?xml version="1.0" encoding="utf-8"?>
<!-- Generator: Adobe Illustrator 21.0.0, SVG Export Plug-In . SVG Version: 6.00 Build 0)  -->
<svg version="1.1" id="Laag_1" xmlns="http://www.w3.org/2000/svg" xmlns:xlink="http://www.w3.org/1999/xlink" x="0px" y="0px"
	 viewBox="0 0 841.89 595.28" enable-background="new 0 0 841.89 595.28" xml:space="preserve">
<g>
	<path fill="#FF4C00" d="M566.095,303.11c0-0.29,0-0.587,0-0.884c0-5.789-0.016-11.579,0.005-17.368
		c0.018-4.92,2.378-8.511,6.537-10.916c2.335-1.35,4.919-1.761,7.635-1.339c5.002,0.778,8.431,3.578,10.112,8.254
		c1.466,4.078,0.776,8.036-1.98,11.433c-2.145,2.645-4.908,4.409-8.425,4.59c-2.577,0.132-5.161,0.125-7.743,0.178
		c-0.323,0.007-0.647,0.001-1.075,0.001c0.196,2.041-0.342,3.742-1.924,5.006C568.317,302.8,567.127,303.2,566.095,303.11z
		 M571.339,292.1c0.01,0.003,0.062,0.029,0.114,0.029c2.533,0.006,5.066,0.02,7.599,0.01c2.926-0.012,5.322-2.068,6.187-4.334
		c1.208-3.167,0.683-6.063-1.804-8.607c-1.998-2.044-5.698-2.377-7.881-1.257c-2.484,1.274-4.145,3.255-4.204,6.206
		C571.298,286.773,571.339,289.401,571.339,292.1z"/>
	<path fill="#FF4C00" d="M617.963,297.058c-1.462,0-2.863,0-4.264,0c-2.592,0-5.184-0.008-7.776,0.002
		c-3.992,0.014-7.341-1.46-9.943-4.467c-1.563-1.807-2.5-3.926-2.772-6.36c-0.305-2.719,0.158-5.254,1.554-7.57
		c1.85-3.067,4.526-5.061,8.057-5.896c1.961-0.464,3.909-0.424,5.825,0.042c2.108,0.513,3.978,1.543,5.545,3.085
		c1.686,1.659,2.979,3.547,3.506,5.891c0.124,0.552,0.292,1.113,0.295,1.671c0.024,4.384,0.013,8.769,0.011,13.153
		C618.001,296.718,617.983,296.826,617.963,297.058z M612.92,292.142c0-2.722,0.078-5.311-0.026-7.893
		c-0.077-1.929-0.923-3.621-2.312-4.962c-2.553-2.464-6.691-2.569-9.348-0.591c-2.237,1.665-3.446,4.993-2.846,7.667
		c0.715,3.184,3.796,6.062,7.519,5.809C608.203,292.015,610.517,292.142,612.92,292.142z"/>
	<path fill="#FF4C00" d="M640.389,292.142c0-5.103-0.022-10.065,0.01-15.026c0.015-2.311,2.483-4.767,5.029-4.606
		c0,10.187,0,20.377,0,30.655c-1.585-0.037-2.838-0.651-3.86-1.839c-1.046-1.215-1.319-2.637-1.155-4.267
		c-2.27,0-4.439-0.014-6.608,0.004c-1.894,0.015-3.743-0.22-5.513-0.921c-2.157-0.854-3.869-2.288-5.291-4.097
		c-1.869-2.376-2.539-5.097-2.482-8.084c0.066-3.5,0.015-7.002,0.015-10.503c0-0.3,0-0.6,0-0.974
		c1.771-0.038,3.036,0.785,4.063,2.051c0.763,0.941,1.043,2.042,1.027,3.254c-0.03,2.315-0.012,4.631-0.008,6.947
		c0.006,3.59,2.533,6.731,6.187,7.394c0.241,0.044,0.495,0.014,0.743,0.014C635.13,292.142,637.714,292.142,640.389,292.142z"/>
	<path fill="#FF4C00" d="M680.549,297.017c-2.457,0.154-5.09-2.281-5.083-4.675c0.007-2.316,0.009-4.633,0-6.949
		c-0.014-3.475-1.457-6.055-4.69-7.547c-2.002-0.924-5.207-0.487-6.938,0.919c-2.122,1.724-3.088,3.895-2.995,6.623
		c0.076,2.231,0.062,4.468,0.003,6.7c-0.07,2.691-2.397,5.036-5.235,4.921c0-0.291,0-0.586,0-0.881
		c0-3.557,0.028-7.115-0.009-10.672c-0.031-2.974,0.634-5.74,2.516-8.074c2.039-2.528,4.581-4.292,7.908-4.784
		c2.697-0.399,5.302-0.151,7.706,1.098c2.726,1.417,4.794,3.532,5.997,6.429c0.64,1.541,0.843,3.13,0.83,4.783
		c-0.03,3.723-0.01,7.445-0.01,11.168C680.549,296.376,680.549,296.674,680.549,297.017z"/>
	<path fill="#FF4C00" d="M682.914,266.42c1.506-0.373,3.677,0.984,4.456,2.304c0.57,0.967,0.812,1.981,0.804,3.109
		c-0.032,4.302-0.008,8.604-0.014,12.906c-0.005,3.089,1.973,6.251,5.205,7.051c1.353,0.335,2.811,0.335,4.221,0.33
		c1.989-0.007,3.492,0.806,4.488,2.464c0.411,0.684,0.547,1.534,0.863,2.473c-1.863,0-3.456,0.042-5.046-0.011
		c-1.772-0.06-3.606,0.053-5.3-0.365c-5.193-1.279-8.383-4.643-9.486-9.906c-0.155-0.741-0.18-1.52-0.182-2.282
		c-0.014-5.736-0.008-11.472-0.008-17.208C682.914,266.99,682.914,266.694,682.914,266.42z"/>
	<path fill="#FF4C00" d="M648.081,290.193c2.515-0.242,5.759,2.239,4.927,6.784C650.014,297.413,647.562,294.067,648.081,290.193z"
		/>
</g>
<g>
	<path fill="none" stroke="#FF4C00" stroke-width="0.75" stroke-miterlimit="10" stroke-dasharray="4.0042,4.0042" d="
		M463.452,348.328c0,6.236-5.102,11.339-11.339,11.339H276.005c-6.236,0-11.339-5.102-11.339-11.339V223.672
		c0-6.236,5.102-11.339,11.339-11.339h176.108c6.236,0,11.339,5.102,11.339,11.339V348.328z"/>
</g>
<g>
	<path fill="none" stroke="#FF4C00" stroke-width="0.75" stroke-miterlimit="10" stroke-dasharray="4.0214,4.0214" d="
		M711.197,348.328c0,6.236-5.102,11.339-11.339,11.339H562.522c-6.236,0-11.339-5.102-11.339-11.339V223.672
		c0-6.236,5.102-11.339,11.339-11.339h137.336c6.236,0,11.339,5.102,11.339,11.339V348.328z"/>
</g>
<text transform="matrix(1 0 0 1 289.6406 275.3774)"><tspan x="0" y="0" fill="#002E6D" font-family="'Ubuntu-Bold'" font-size="21.9887px" letter-spacing="2">Stichting </tspan><tspan x="0" y="35" fill="#002E6D" font-family="'Ubuntu-Bold'" font-size="21.9887px" letter-spacing="2">derde gelden</tspan></text>
<text transform="matrix(1 0 0 1 303.9553 95.8441)" fill="#9ACAEB" font-family="'Ubuntu-Bold'" font-size="13px" letter-spacing="1">Eventix Holding </text>
<g>
	<text transform="matrix(0.5 -0.866 0.866 0.5 143.136 184.47)"><tspan x="0" y="0" fill="#9ACAEB" font-family="'Ubuntu-Bold'" font-size="13px" letter-spacing="1">Whitelabel</tspan><tspan x="80.95" y="0" fill="#9ACAEB" font-family="'Ubuntu-Light'" font-size="13px" letter-spacing="1"> </tspan><tspan x="85.214" y="0" fill="#3FD5AE" font-family="'Ubuntu-Light'" font-size="13px" letter-spacing="1">(eventix)</tspan><tspan x="147.457" y="0" fill="#9ACAEB" font-family="'Ubuntu-Light'" font-size="16px" letter-spacing="1"> </tspan></text>
</g>
<g>
	
		<text transform="matrix(-0.5 -0.866 0.866 -0.5 131.3284 375.1688)" fill="#9ACAEB" font-family="'Ubuntu-Bold'" font-size="13px" letter-spacing="1">Organisator</text>
</g>
<g>
	
		<text transform="matrix(1 0 0 1 230.3681 487.3337)" fill="#9ACAEB" font-family="'Ubuntu-Bold'" font-size="13px" letter-spacing="1">Bezoeker</text>
</g>
<g>
	<g>
		<g>
			<path fill="none" stroke="#002856" stroke-width="2" stroke-miterlimit="10" d="M206.946,232.275"/>
		</g>
		<g>
			<path fill="none" stroke="#002856" stroke-width="2" stroke-miterlimit="10" d="M300,393.45"/>
		</g>
		<g>
			<path fill="none" stroke="#002856" stroke-width="2" stroke-miterlimit="10" d="M329.347,127.72h52.031
				c6.236,0,15.658,2.717,20.936,6.037l167.019,105.062"/>
		</g>
		<g>
			<path fill="none" stroke="#002856" stroke-width="2" stroke-miterlimit="10" d="M209.95,444.28l-26.015-45.06
				c-3.118-5.401-6.058-4.732-6.532,1.486l-7.542,98.794"/>
		</g>
		<g>
			<path fill="none" stroke="#002856" stroke-width="2" stroke-miterlimit="10" d="M178.265,182.599l26.015-45.06
				c3.118-5.401,10.772-9.82,17.008-9.82h38.026c6.236,0,7.167-2.938,2.068-6.529l-78.049-54.97"/>
		</g>
		<g>
			<path fill="none" stroke="#002856" stroke-width="2" stroke-miterlimit="10" d="M149.585,339.725l-25.349-43.905
				c-3.118-5.401-3.118-14.238,0-19.639l19.679-34.086c3.118-5.401,1.066-7.618-4.559-4.927L54,278"/>
		</g>
	</g>
</g>
<g>
	<path fill="#FFFFFF" d="M449.671,231.196l0.652-2.362c0.133-0.482,0.634-0.767,1.117-0.634l2.362,0.651
		c0.343,0.095,0.415,0.273,0.427,0.371c0.012,0.098-0.013,0.288-0.323,0.464l-3.57,2.026c-0.31,0.176-0.487,0.1-0.565,0.04
		C449.693,231.692,449.576,231.539,449.671,231.196z"/>
</g>
<g>
	<path fill="#FFFFFF" d="M326.244,130.095l-1.735-1.731c-0.354-0.353-0.355-0.93-0.002-1.284l1.73-1.735
		c0.252-0.252,0.442-0.227,0.534-0.189c0.091,0.038,0.244,0.154,0.245,0.51l0.006,4.105c0,0.356-0.153,0.473-0.244,0.511
		C326.687,130.321,326.496,130.347,326.244,130.095z"/>
</g>
<g>
	<circle fill="none" stroke="#FF4C00" stroke-miterlimit="10" cx="166.765" cy="54.721" r="11.5"/>
	<g>
		<path fill="#FF4C00" d="M170.233,60.244c-0.182-0.479-0.352-0.948-0.511-1.411c-0.159-0.462-0.324-0.932-0.494-1.41h-5.005
			l-1.004,2.821h-1.61c0.425-1.169,0.823-2.25,1.195-3.244c0.372-0.993,0.736-1.937,1.093-2.829c0.355-0.893,0.709-1.745,1.06-2.558
			c0.351-0.813,0.717-1.618,1.1-2.415h1.419c0.383,0.797,0.749,1.602,1.1,2.415c0.351,0.812,0.704,1.665,1.06,2.558
			c0.356,0.893,0.721,1.836,1.093,2.829c0.371,0.994,0.77,2.075,1.195,3.244H170.233z M168.782,56.147
			c-0.34-0.924-0.677-1.819-1.012-2.686s-0.683-1.697-1.044-2.494c-0.372,0.797-0.726,1.628-1.061,2.494
			c-0.334,0.866-0.667,1.762-0.996,2.686H168.782z"/>
	</g>
</g>
<line fill="none" stroke="#FF4C00" stroke-width="0.75" stroke-miterlimit="10" stroke-dasharray="4" x1="176.149" y1="70.175" x2="206.944" y2="123.513"/>
<path fill="#67B2E8" d="M208.811,286c0-0.167,0.005-0.333,0.006-0.5h-1c-0.001,0.167-0.006,0.333-0.006,0.5s0.005,0.333,0.006,0.5h1
	C208.816,286.333,208.811,286.167,208.811,286z"/>
<path fill="#67B2E8" d="M254.653,365.854l-0.5,0.866c0.287,0.169,0.574,0.339,0.863,0.505l0.5-0.866
	C255.226,366.193,254.94,366.022,254.653,365.854z"/>
<path fill="#67B2E8" d="M348.014,206.146l0.5-0.866c-0.287-0.169-0.574-0.339-0.863-0.504l-0.5,0.866
	C347.44,205.808,347.726,205.978,348.014,206.146z"/>
<g>
	<path fill="#002E6D" d="M297.885,125.715c1.102,1.102,1.102,2.906,0,4.009l-6.865,6.865c-1.102,1.102-2.004,0.729-2.004-0.83
		v-16.078c0-1.559,0.902-1.933,2.004-0.83L297.885,125.715z"/>
	<path fill="#002E6D" d="M312.824,125.715c1.102,1.102,1.102,2.906,0,4.009l-6.865,6.865c-1.102,1.102-2.004,0.729-2.004-0.83
		v-16.078c0-1.559,0.902-1.933,2.004-0.83L312.824,125.715z"/>
</g>
<g>
	<path fill="#002E6D" d="M304.782,442.276c-1.102,1.102-1.102,2.906,0,4.009l6.865,6.865c1.102,1.102,2.004,0.729,2.004-0.83
		v-16.078c0-1.559-0.902-1.933-2.004-0.83L304.782,442.276z"/>
	<path fill="#002E6D" d="M289.843,442.276c-1.102,1.102-1.102,2.906,0,4.009l6.865,6.865c1.102,1.102,2.004,0.729,2.004-0.83
		v-16.078c0-1.559-0.902-1.933-2.004-0.83L289.843,442.276z"/>
</g>
<g>
	<path fill="#002E6D" d="M165.283,205.455c1.506-0.404,3.068,0.498,3.472,2.004l2.513,9.377c0.404,1.506-0.371,2.1-1.721,1.321
		l-13.924-8.039c-1.35-0.78-1.223-1.747,0.283-2.151L165.283,205.455z"/>
	<path fill="#002E6D" d="M172.752,192.518c1.506-0.404,3.068,0.498,3.472,2.004l2.513,9.377c0.404,1.506-0.371,2.1-1.721,1.321
		l-13.924-8.039c-1.35-0.78-1.223-1.747,0.283-2.151L172.752,192.518z"/>
</g>
<g>
	<path fill="#002E6D" d="M160.168,365.06c0.404-1.506,1.966-2.408,3.472-2.004l9.377,2.513c1.506,0.404,1.633,1.371,0.283,2.151
		l-13.924,8.039c-1.35,0.78-2.125,0.185-1.721-1.321L160.168,365.06z"/>
	<path fill="#002E6D" d="M152.698,352.122c0.404-1.506,1.966-2.408,3.472-2.004l9.377,2.513c1.506,0.404,1.633,1.371,0.283,2.151
		l-13.924,8.039c-1.35,0.78-2.125,0.185-1.721-1.321L152.698,352.122z"/>
</g>
<g>
	
		<line fill="none" stroke="#3FD5AE" stroke-width="0.5" stroke-miterlimit="10" x1="215.583" y1="138.476" x2="254.153" y2="205.281"/>
	<polyline fill="none" stroke="#3FD5AE" stroke-width="0.5" stroke-miterlimit="10" points="219.062,136.805 213.844,135.065 
		212.104,140.282 	"/>
	<polyline fill="none" stroke="#3FD5AE" stroke-width="0.5" stroke-miterlimit="10" points="251.766,208.634 257.211,209.407 
		257.984,203.962 	"/>
</g>
<g>
	
		<line fill="none" stroke="#3FD5AE" stroke-width="0.5" stroke-miterlimit="10" x1="254.682" y1="366.473" x2="216.113" y2="433.277"/>
	<polyline fill="none" stroke="#3FD5AE" stroke-width="0.5" stroke-miterlimit="10" points="251.204,364.801 256.421,363.061 
		258.161,368.279 	"/>
	<polyline fill="none" stroke="#3FD5AE" stroke-width="0.5" stroke-miterlimit="10" points="218.5,436.63 213.055,437.404 
		212.281,431.958 	"/>
</g>
<g>
	<circle fill="none" stroke="#FF4C00" stroke-miterlimit="10" cx="38.17" cy="286.5" r="11.5"/>
	<g>
		<path fill="#FF4C00" d="M41.637,292.023c-0.182-0.479-0.352-0.948-0.511-1.411c-0.159-0.462-0.324-0.932-0.494-1.41h-5.005
			l-1.004,2.821h-1.61c0.425-1.169,0.823-2.25,1.195-3.244c0.372-0.993,0.736-1.937,1.093-2.829c0.355-0.893,0.709-1.745,1.06-2.558
			c0.351-0.813,0.717-1.618,1.1-2.415h1.419c0.383,0.797,0.749,1.602,1.1,2.415c0.351,0.812,0.704,1.665,1.06,2.558
			c0.356,0.893,0.721,1.836,1.093,2.829c0.371,0.994,0.77,2.075,1.195,3.244H41.637z M40.186,287.926
			c-0.34-0.924-0.677-1.819-1.012-2.686s-0.683-1.697-1.044-2.494c-0.372,0.797-0.726,1.628-1.061,2.494
			c-0.334,0.866-0.667,1.762-0.996,2.686H40.186z"/>
	</g>
</g>
<line fill="none" stroke="#FF4C00" stroke-width="0.75" stroke-miterlimit="10" stroke-dasharray="4" x1="56.245" y1="286.1" x2="117.835" y2="286.1"/>
<g>
	
		<line fill="none" stroke="#3FD5AE" stroke-width="0.5" stroke-miterlimit="10" x1="131.291" y1="285.792" x2="208.43" y2="285.792"/>
	<polyline fill="none" stroke="#3FD5AE" stroke-width="0.5" stroke-miterlimit="10" points="131.583,281.943 127.467,285.592 
		131.116,289.707 	"/>
	<polyline fill="none" stroke="#3FD5AE" stroke-width="0.5" stroke-miterlimit="10" points="210.141,289.536 213.533,285.207 
		209.204,281.814 	"/>
</g>
<g>
	
		<line fill="none" stroke="#3FD5AE" stroke-width="2" stroke-miterlimit="10" x1="473.037" y1="285.792" x2="539.597" y2="285.792"/>
	<polyline fill="none" stroke="#3FD5AE" stroke-width="2" stroke-miterlimit="10" points="473.288,281.943 469.737,285.592 
		472.886,289.707 	"/>
	<polyline fill="none" stroke="#3FD5AE" stroke-width="2" stroke-miterlimit="10" points="541.073,289.536 544,285.207 
		540.265,281.814 	"/>
</g>
<g>
	<circle fill="none" stroke="#FF4C00" stroke-miterlimit="10" cx="168.112" cy="518.2" r="11.5"/>
	<g>
		<path fill="#FF4C00" d="M171.579,523.723c-0.182-0.479-0.352-0.948-0.511-1.411c-0.159-0.462-0.324-0.932-0.494-1.41h-5.005
			l-1.004,2.821h-1.61c0.425-1.169,0.823-2.25,1.195-3.244c0.372-0.993,0.736-1.937,1.093-2.829c0.355-0.893,0.709-1.745,1.06-2.558
			c0.351-0.813,0.717-1.618,1.1-2.415h1.419c0.383,0.797,0.749,1.602,1.1,2.415c0.351,0.812,0.704,1.665,1.06,2.558
			c0.356,0.893,0.721,1.836,1.093,2.829c0.371,0.994,0.77,2.075,1.195,3.244H171.579z M170.128,519.626
			c-0.34-0.924-0.677-1.819-1.012-2.686s-0.683-1.697-1.044-2.494c-0.372,0.797-0.726,1.628-1.061,2.494
			c-0.334,0.866-0.667,1.762-0.996,2.686H170.128z"/>
	</g>
</g>
<line fill="none" stroke="#FF4C00" stroke-width="0.75" stroke-miterlimit="10" stroke-dasharray="4" x1="176.803" y1="502.347" x2="207.598" y2="449.008"/>
<g>
	<path fill="#67B2E8" d="M298.333,193.478c0.167,0,0.333,0.005,0.5,0.006v-1c-0.167-0.001-0.333-0.006-0.5-0.006
		s-0.333,0.005-0.5,0.006v1C298,193.483,298.166,193.478,298.333,193.478z"/>
	<g>
		<line fill="none" stroke="#3FD5AE" stroke-miterlimit="10" x1="306.199" y1="227.894" x2="306.199" y2="150.754"/>
		<polyline fill="none" stroke="#3FD5AE" stroke-miterlimit="10" points="309.943,149.044 305.614,145.652 302.221,149.981 		"/>
	</g>
	<g>
		<line fill="none" stroke="#3FD5AE" stroke-miterlimit="10" x1="295.816" y1="227.894" x2="295.816" y2="150.754"/>
		<polyline fill="none" stroke="#3FD5AE" stroke-miterlimit="10" points="291.967,227.602 295.616,231.717 299.731,228.069 		"/>
	</g>
</g>
<g>
	<g>
		<line fill="none" stroke="#3FD5AE" stroke-miterlimit="10" x1="306.199" y1="424.846" x2="306.199" y2="347.707"/>
		<polyline fill="none" stroke="#3FD5AE" stroke-miterlimit="10" points="309.943,345.997 305.614,342.604 302.221,346.933 		"/>
	</g>
	<g>
		<line fill="none" stroke="#3FD5AE" stroke-miterlimit="10" x1="295.816" y1="424.846" x2="295.816" y2="347.707"/>
		<polyline fill="none" stroke="#3FD5AE" stroke-miterlimit="10" points="291.967,424.554 295.616,428.67 299.731,425.021 		"/>
	</g>
</g>
<g>
	<g>
		<line fill="none" stroke="#3FD5AE" stroke-miterlimit="10" x1="184.369" y1="359.564" x2="251.174" y2="320.994"/>
		<polyline fill="none" stroke="#3FD5AE" stroke-miterlimit="10" points="254.527,323.381 255.3,317.936 249.855,317.163 		"/>
	</g>
	<g>
		<line fill="none" stroke="#3FD5AE" stroke-miterlimit="10" x1="179.177" y1="350.572" x2="245.982" y2="312.002"/>
		<polyline fill="none" stroke="#3FD5AE" stroke-miterlimit="10" points="177.506,347.093 175.766,352.311 180.984,354.05 		"/>
	</g>
</g>
<g>
	<g>
		<line fill="none" stroke="#3FD5AE" stroke-miterlimit="10" x1="184.226" y1="211.958" x2="251.031" y2="250.527"/>
		<polyline fill="none" stroke="#3FD5AE" stroke-miterlimit="10" points="254.384,248.14 255.157,253.585 249.712,254.359 		"/>
	</g>
	<g>
		<line fill="none" stroke="#3FD5AE" stroke-miterlimit="10" x1="179.035" y1="220.95" x2="245.839" y2="259.519"/>
		<polyline fill="none" stroke="#3FD5AE" stroke-miterlimit="10" points="177.363,224.428 175.623,219.211 180.841,217.471 		"/>
	</g>
</g>
<g>
	<text transform="matrix(1.0384 0 0 1 560.3893 433.2772)"><tspan x="0" y="0" font-family="'Ubuntu-Light'" font-size="11.5567px" letter-spacing="0.963">Affiliate (kickback)</tspan><tspan x="0" y="17.335" font-family="'Ubuntu-Light'" font-size="11.5567px" letter-spacing="0.963">Factuur relatie</tspan><tspan x="0" y="34.67" font-family="'Ubuntu-Light'" font-size="11.5567px" letter-spacing="0.963">geldstroom</tspan><tspan x="0" y="52.005" font-family="'Ubuntu-Light'" font-size="11.5567px" letter-spacing="0.963">stichting derde gelden</tspan><tspan x="0" y="69.34" font-family="'Ubuntu-Light'" font-size="11.5567px" letter-spacing="0.963">Bijhorende labels  </tspan><tspan x="0" y="83.208" font-family="'MyriadPro-Regular'" font-size="11.5567px"> </tspan></text>
	
		<line fill="none" stroke="#002856" stroke-width="2" stroke-miterlimit="10" x1="536.092" y1="448.008" x2="553.908" y2="448.008"/>
	<line fill="none" stroke="#3FD5AE" stroke-miterlimit="10" x1="536.092" y1="465.589" x2="553.908" y2="465.589"/>
	
		<line fill="none" stroke="#FF4C00" stroke-width="0.75" stroke-miterlimit="10" stroke-dasharray="4" x1="536.092" y1="483.17" x2="553.908" y2="483.17"/>
	<g>
		<circle fill="none" stroke="#FF4C00" stroke-miterlimit="10" cx="544" cy="428.67" r="5.157"/>
		<g>
			<path fill="#FF4C00" d="M545.555,431.146c-0.081-0.215-0.158-0.425-0.229-0.633c-0.071-0.207-0.145-0.418-0.222-0.632h-2.244
				l-0.45,1.265h-0.722c0.19-0.524,0.369-1.009,0.536-1.455c0.167-0.445,0.33-0.868,0.49-1.269c0.159-0.4,0.318-0.783,0.475-1.147
				c0.157-0.365,0.321-0.726,0.493-1.083h0.636c0.172,0.357,0.336,0.718,0.493,1.083c0.157,0.364,0.316,0.747,0.475,1.147
				c0.16,0.4,0.323,0.823,0.49,1.269c0.166,0.446,0.345,0.931,0.536,1.455H545.555z M544.904,429.309
				c-0.152-0.414-0.303-0.816-0.454-1.204s-0.306-0.761-0.468-1.118c-0.167,0.357-0.325,0.73-0.476,1.118
				c-0.15,0.388-0.299,0.79-0.447,1.204H544.904z"/>
		</g>
	</g>
	<line fill="#002E6D" stroke="#9ACAEB" stroke-miterlimit="10" x1="536.092" y1="499.5" x2="553.908" y2="499.5"/>
</g>
<line fill="#002E6D" stroke="#9ACAEB" stroke-miterlimit="10" x1="300" y1="118.217" x2="300" y2="86.333"/>
<line fill="#002E6D" stroke="#9ACAEB" stroke-miterlimit="10" x1="302.221" y1="487.333" x2="302.221" y2="455.45"/>
<line fill="#002E6D" stroke="#9ACAEB" stroke-miterlimit="10" x1="159.195" y1="200.449" x2="131.583" y2="184.507"/>
<line fill="#002E6D" stroke="#9ACAEB" stroke-miterlimit="10" x1="155.08" y1="368.13" x2="127.467" y2="384.072"/>
</svg>
