<?xml version="1.0" encoding="utf-8"?>
<!-- Generator: Adobe Illustrator 16.0.3, SVG Export Plug-In . SVG Version: 6.00 Build 0)  -->
<!DOCTYPE svg PUBLIC "-//W3C//DTD SVG 1.1//EN" "http://www.w3.org/Graphics/SVG/1.1/DTD/svg11.dtd">
<svg version="1.1" id="Laag_1" xmlns="http://www.w3.org/2000/svg" xmlns:xlink="http://www.w3.org/1999/xlink" x="0px" y="0px"
	 width="29.027px" height="141.73px" viewBox="56.352 0 29.027 141.73" enable-background="new 56.352 0 29.027 141.73"
	 xml:space="preserve">
<path fill="#E6F4FC" d="M23.408,192.192l-0.015,0.025C23.398,192.643,23.403,192.612,23.408,192.192z"/>
<path fill="#E6F4FC" d="M86.789,205.753L86.789,205.753C86.789,206.146,86.789,206.168,86.789,205.753z"/>
<polygon fill="#002856" points="85.385,127.567 85.385,93.35 85.379,93.362 85.379,127.555 "/>
<g>
	<g>
		<defs>
			<polygon id="SVGID_1_" points="82.988,88.996 70.895,109.942 85.379,135.029 85.379,127.555 75.508,110.459 85.379,93.362 
				85.379,84.855 			"/>
		</defs>
		<clipPath id="SVGID_2_">
			<use xlink:href="#SVGID_1_"  overflow="visible"/>
		</clipPath>
		<g clip-path="url(#SVGID_2_)">
			
				<image overflow="visible" enable-background="new    " width="2400" height="1600" xlink:href="873A2472.png"  transform="matrix(0.0375 0 0 0.0375 21.2598 74.5642)">
			</image>
		</g>
	</g>
</g>
<g>
	<g>
		<defs>
			<polygon id="SVGID_3_" points="85.379,17.033 85.379,0 56.352,0 56.352,67.308 63.409,55.085 			"/>
		</defs>
		<clipPath id="SVGID_4_">
			<use xlink:href="#SVGID_3_"  overflow="visible"/>
		</clipPath>
		<g clip-path="url(#SVGID_4_)">
			
				<image overflow="visible" enable-background="new    " width="2400" height="1600" xlink:href="873A2476.png"  transform="matrix(0.0435 0 0 0.0435 25.9233 -2.441406e-004)">
			</image>
		</g>
	</g>
</g>
<polygon fill="#E6F4FC" points="70.895,109.942 56.352,84.755 56.352,141.73 85.379,141.73 85.379,135.029 "/>
<polygon fill="#A9D3ED" points="70.895,109.942 82.988,88.996 63.409,55.085 56.352,67.308 56.352,84.755 "/>
<polygon fill="#A9D3ED" points="56.352,84.755 70.895,109.942 70.895,109.942 "/>
<polygon fill="#C9E0F1" points="82.988,88.996 85.379,84.855 85.379,17.033 63.409,55.085 "/>
<polygon fill="#002856" points="85.379,127.555 85.379,93.362 75.508,110.459 "/>
</svg>
