<svg xmlns="http://www.w3.org/2000/svg" version="1.1" width="180px" height="180px" viewBox="-0.004 0 1.008 1">
  <polygon id="hex" points="0.9866025 0.45, 0.9939693 0.465798, 0.9984808 0.4826352, 1 0.5, 0.9984808 0.5173648, 0.9939693 0.534202, 0.9866025 0.55, 0.7866025 0.8964102, 0.7766044 0.9106889, 0.7642788 0.9230146, 0.75 0.9330127, 0.734202 0.9403794, 0.7173648 0.9448909, 0.70 0.9464102, 0.30 0.9464102, 0.2826352 0.9448909, 0.265798 0.9403794, 0.25 0.9330127, 0.2357212 0.9230146, 0.2233956 0.9106889, 0.2133975 0.8964102, 0.0133975 0.55, 0.0060307 0.534202, 0.0015192 0.5173648, 0 0.50, 0.0015192 0.4826352, 0.0060307 0.465798, 0.0133975 0.45, 0.2133975 0.1035898, 0.2233956 0.0893111, 0.2357212 0.0769854, 0.25 0.0669873, 0.265798 0.0596206, 0.2826352 0.0551091, 0.30 0.0535898, 0.70 0.0535898, 0.7173648 0.0551091, 0.734202 0.0596206, 0.75 0.0669873, 0.7642788 0.0769854, 0.7766044 0.0893111, 0.7866025 0.1035898"
           fill="inherit" stroke="#cccccc" stroke-width="0.004"/>
</svg>